<?xml version="1.0" encoding="UTF-8"?>
<svg xmlns="http://www.w3.org/2000/svg" version="1.1" xmlns:xlink="http://www.w3.org/1999/xlink" viewBox="0 0 512 512">
  <defs>
    <style>
      .cls-1 {
        fill: url(#_名称未設定グラデーション_18);
      }

      .cls-2 {
        fill: url(#_名称未設定グラデーション_27);
      }

      .cls-3 {
        fill: #eef6f8;
      }
    </style>
    <linearGradient id="_名称未設定グラデーション_18" data-name="名称未設定グラデーション 18" x1="376.2" y1="137.8" x2="135.8" y2="378.2" gradientTransform="translate(0 514) scale(1 -1)" gradientUnits="userSpaceOnUse">
      <stop offset="0" stop-color="#2368cc"/>
      <stop offset=".5" stop-color="#19aab5"/>
      <stop offset="1" stop-color="#a1dbe5"/>
    </linearGradient>
    <linearGradient id="_名称未設定グラデーション_27" data-name="名称未設定グラデーション 27" x1="302.6" y1="230.7" x2="205.2" y2="328.1" gradientTransform="translate(0 514) scale(1 -1)" gradientUnits="userSpaceOnUse">
      <stop offset="0" stop-color="#a1dbe5"/>
      <stop offset=".6" stop-color="#fff"/>
      <stop offset="1" stop-color="#fff"/>
    </linearGradient>
  </defs>
  <!-- Generator: Adobe Illustrator 28.6.0, SVG Export Plug-In . SVG Version: 1.2.0 Build 709)  -->
  <g>
    <g id="_レイヤー_1" data-name="レイヤー_1">
      <path class="cls-3" d="M496.5,129.9c-13.4-49.5-64.9-100.9-114.4-114.4C351.8,7.9,311.2.1,256,0c-55.2.1-95.8,7.9-126.1,15.5C80.4,28.9,28.9,80.4,15.5,129.9,7.9,160.2.1,200.8,0,256c.1,55.2,7.9,95.8,15.5,126.1,13.4,49.5,64.9,100.9,114.4,114.4,30.3,7.6,71,15.4,126.1,15.5,55.2-.1,95.8-7.9,126.1-15.5,49.5-13.4,100.9-64.9,114.4-114.4,7.6-30.3,15.4-71,15.5-126.1-.1-55.2-7.9-95.8-15.5-126.1Z"/>
      <path class="cls-1" d="M256,86c-93.9,0-170,76.1-170,170s76.1,170,170,170,170-76.1,170-170-76.1-170-170-170Z"/>
      <path class="cls-2" d="M353,227.9l-102.2,107.3c-5.6,5.9-13.4,9.3-21.6,9.3h-.1c-8.1,0-15.9-3.3-21.5-9.1l-54.2-55.9c-12.1-11.4-12.6-30.3-1.3-42.4,11.4-12.1,30.3-12.6,42.4-1.3.6.6,1.3,1.2,1.9,1.9l32.5,33.5,80.7-84.7c11.4-12,30.4-12.5,42.4-1.1,12,11.4,12.5,30.4,1.1,42.4h0Z"/>
    </g>
  </g>
</svg>