<?xml version="1.0" encoding="UTF-8"?>
<svg xmlns="http://www.w3.org/2000/svg" version="1.1" xmlns:svg="http://www.w3.org/2000/svg" viewBox="0 0 682.7 682.7">
  <defs>
    <style>
      .cls-1 {
        fill: #fffde6;
      }
    </style>
  </defs>
  <!-- Generator: Adobe Illustrator 28.6.0, SVG Export Plug-In . SVG Version: 1.2.0 Build 709)  -->
  <g>
    <g id="svg1827">
      <g>
        <path class="cls-1" d="M602.7,0H80C35.9,0,0,35.9,0,80v260.4c0,44.1,35.9,80,80,80h28.5c6,28.4,21.3,53.5,42.4,71.9-58.9,30.9-99.2,92.7-99.2,163.7s11.9,26.7,26.7,26.7h316.1c14.7,0,26.7-11.9,26.7-26.7,0-70.7-39.9-132.2-98.3-163.2,21.4-18.5,36.9-43.7,43-72.3h53.7v78.2c0,10.8,6.5,20.5,16.5,24.6,3.3,1.4,6.8,2,10.2,2,6.9,0,13.8-2.7,18.9-7.8l97.1-97.1h40.5c44.1,0,80-35.9,80-80V80c-.1-44.1-36-80-80.1-80ZM237.2,471.3c-43.1,0-78.2-35.1-78.2-78.2s35.1-78.2,78.2-78.2,78.2,35.1,78.2,78.2-35.1,78.2-78.2,78.2ZM365.1,629.3H107.8c12.4-59.7,65.4-104.7,128.7-104.7s116.3,45,128.6,104.7ZM629.3,340.4c0,14.7-12,26.7-26.7,26.7h-51.6c-7.1,0-13.9,2.8-18.9,7.8l-59.4,59.4v-40.5c0-14.7-11.9-26.7-26.7-26.7h-80.1c-12.1-60.2-65.3-105.6-129-105.6s-116.9,45.5-129,105.6h-27.9c-14.7,0-26.7-12-26.7-26.7V80c0-14.7,12-26.7,26.7-26.7h522.7c14.7,0,26.7,12,26.7,26.7v260.4h-.1Z"/>
        <path class="cls-1" d="M551.1,104.9H131.6c-14.7,0-26.7,11.9-26.7,26.7s11.9,26.7,26.7,26.7h419.6c14.7,0,26.7-11.9,26.7-26.7s-12.1-26.7-26.8-26.7Z"/>
        <path class="cls-1" d="M551.1,209.8h-209.8c-14.7,0-26.7,11.9-26.7,26.7s11.9,26.7,26.7,26.7h209.8c14.7,0,26.7-11.9,26.7-26.7s-12-26.7-26.7-26.7Z"/>
      </g>
    </g>
  </g>
</svg>