<?xml version="1.0" encoding="utf-8"?>
<!-- Generator: Adobe Illustrator 27.5.0, SVG Export Plug-In . SVG Version: 6.00 Build 0)  -->
<svg version="1.1" id="Capa_1" xmlns="http://www.w3.org/2000/svg" xmlns:xlink="http://www.w3.org/1999/xlink" x="0px" y="0px"
	 viewBox="0 0 512 512" style="enable-background:new 0 0 512 512;" xml:space="preserve">
<style type="text/css">
	.st0{fill:#FFFFFF;}
</style>
<g>
	<g>
		<path class="st0" d="M512,256C512,114.8,397.2,0,256,0S0,114.8,0,256s114.9,256,256,256S512,397.2,512,256z M39.7,256
			c0-119.3,97-216.3,216.3-216.3S472.3,136.7,472.3,256c0,119.3-97,216.3-216.3,216.3S39.7,375.3,39.7,256z"/>
	</g>
</g>
<g>
	<g>
		<path class="st0" d="M228.6,369.2l99.1-99.1c7.7-7.7,7.7-20.2,0-28L228.6,143c-7.4-6.4-18.4-6.4-25.8,0c-8.3,7.1-9.3,19.7-2.2,28
			l85.1,85.1l-85.1,85.3c-7.7,7.7-7.7,20.2,0,28C208.4,376.9,220.9,376.9,228.6,369.2z"/>
	</g>
</g>
</svg>
