<?xml version="1.0" encoding="utf-8"?>
<!-- Generator: Adobe Illustrator 27.5.0, SVG Export Plug-In . SVG Version: 6.00 Build 0)  -->
<svg version="1.1" id="レイヤー_1" xmlns="http://www.w3.org/2000/svg" xmlns:xlink="http://www.w3.org/1999/xlink" x="0px"
	 y="0px" viewBox="0 0 158.7 197.6" style="enable-background:new 0 0 158.7 197.6;" xml:space="preserve">
<style type="text/css">
	.st0{clip-path:url(#SVGID_00000097478475463281004070000007302903349089949103_);}
	.st1{clip-path:url(#SVGID_00000063630406086509569220000015391069826224109448_);}
	.st2{clip-path:url(#SVGID_00000076597945130010183740000017969652491736901808_);fill:#FC878B;}
	.st3{clip-path:url(#SVGID_00000003799007823795096420000003490828452941296000_);fill:#FC878B;}
	.st4{clip-path:url(#SVGID_00000176026970026702534000000000548852367162472340_);fill:#FC878B;}
	.st5{clip-path:url(#SVGID_00000103250147971468270850000003084179551076126649_);fill:#FC878B;}
	.st6{clip-path:url(#SVGID_00000096024079934019203010000018196022756018004870_);fill:#FC878B;}
	.st7{clip-path:url(#SVGID_00000071525322426806012990000002076986346029938083_);fill:#FC878B;}
	.st8{clip-path:url(#SVGID_00000115473791646309182480000008860573768120741014_);fill:#FC878B;}
	.st9{clip-path:url(#SVGID_00000083807372567801984990000001659945966982517160_);fill:#FC878B;}
	.st10{clip-path:url(#SVGID_00000007415963974752925740000005716197225794338700_);fill:#FC878B;}
	.st11{clip-path:url(#SVGID_00000129922204563387960650000001001139681259025082_);fill:#FC878B;}
	.st12{clip-path:url(#SVGID_00000037686624466928364600000011424907834234630319_);fill:#FC878B;}
	.st13{clip-path:url(#SVGID_00000123407295290978466740000011098103531288353949_);fill:#FC878B;}
	.st14{clip-path:url(#SVGID_00000021102988997865856050000009233173742728506814_);fill:#FC878B;}
	.st15{clip-path:url(#SVGID_00000164480568825046771950000003637260633524646026_);fill:#FC878B;}
	.st16{clip-path:url(#SVGID_00000109747263547445265160000005784177290677991566_);fill:#FC878B;}
	.st17{clip-path:url(#SVGID_00000168800068687296333240000005401847809055752883_);fill:#FC878B;}
	.st18{fill:#FC878B;}
	.st19{fill:#FFFFFF;}
	.st20{fill:#251E1C;}
	.st21{fill:#FA8589;}
	.st22{fill:#595757;}
</style>
<g>
	<defs>
		<path id="SVGID_1_" d="M157.6,126.7c0,40.2-32.6,72.7-72.7,72.7s-72.7-32.6-72.7-72.7c0-22.7-23.6-79.5-7.2-92.8
			C17.4,23.7,67.4,0.7,84.8,0.7c19.1,0,57.8,16.4,70.8,28.4c7.2,6.6-8.4,59-4.4,68C155.3,106.2,157.6,116.2,157.6,126.7z"/>
	</defs>
	<clipPath id="SVGID_00000040536375636787245830000002398808132683564457_">
		<use xlink:href="#SVGID_1_"  style="overflow:visible;"/>
	</clipPath>
	<g style="clip-path:url(#SVGID_00000040536375636787245830000002398808132683564457_);">
		<g>
			<defs>
				<circle id="SVGID_00000096016968747924094270000003606359724772072864_" cx="84.8" cy="126.7" r="72.7"/>
			</defs>
			<clipPath id="SVGID_00000027570380828439640120000003072578706458849719_">
				<use xlink:href="#SVGID_00000096016968747924094270000003606359724772072864_"  style="overflow:visible;"/>
			</clipPath>
			<g style="clip-path:url(#SVGID_00000027570380828439640120000003072578706458849719_);">
				<g>
					<defs>
						<rect id="SVGID_00000020364046091839082210000011563086549792132277_" x="149.1" y="48.7" width="47.2" height="47.2"/>
					</defs>
					<clipPath id="SVGID_00000109016914778929748090000010859269340613701789_">
						<use xlink:href="#SVGID_00000020364046091839082210000011563086549792132277_"  style="overflow:visible;"/>
					</clipPath>
					<path style="clip-path:url(#SVGID_00000109016914778929748090000010859269340613701789_);fill:#FC878B;" d="M196.4,99.5
						c2,0,3.5-1.6,3.5-3.5c0-2-1.6-3.5-3.5-3.5c-2,0-3.5,1.6-3.5,3.5C192.8,97.9,194.4,99.5,196.4,99.5z"/>
					<path style="clip-path:url(#SVGID_00000109016914778929748090000010859269340613701789_);fill:#FC878B;" d="M172.7,99.5
						c2,0,3.5-1.6,3.5-3.5c0-2-1.6-3.5-3.5-3.5c-2,0-3.5,1.6-3.5,3.5C169.2,97.9,170.8,99.5,172.7,99.5z"/>
					<path style="clip-path:url(#SVGID_00000109016914778929748090000010859269340613701789_);fill:#FC878B;" d="M149.1,99.5
						c2,0,3.5-1.6,3.5-3.5c0-2-1.6-3.5-3.5-3.5c-2,0-3.5,1.6-3.5,3.5C145.6,97.9,147.2,99.5,149.1,99.5z"/>
					<path style="clip-path:url(#SVGID_00000109016914778929748090000010859269340613701789_);fill:#FC878B;" d="M196.4,75.9
						c2,0,3.5-1.6,3.5-3.5c0-2-1.6-3.5-3.5-3.5c-2,0-3.5,1.6-3.5,3.5C192.8,74.3,194.4,75.9,196.4,75.9z"/>
					<path style="clip-path:url(#SVGID_00000109016914778929748090000010859269340613701789_);fill:#FC878B;" d="M172.7,75.9
						c2,0,3.5-1.6,3.5-3.5c0-2-1.6-3.5-3.5-3.5c-2,0-3.5,1.6-3.5,3.5C169.2,74.3,170.8,75.9,172.7,75.9z"/>
					<path style="clip-path:url(#SVGID_00000109016914778929748090000010859269340613701789_);fill:#FC878B;" d="M149.1,75.9
						c2,0,3.5-1.6,3.5-3.5c0-2-1.6-3.5-3.5-3.5c-2,0-3.5,1.6-3.5,3.5C145.6,74.3,147.2,75.9,149.1,75.9z"/>
					<path style="clip-path:url(#SVGID_00000109016914778929748090000010859269340613701789_);fill:#FC878B;" d="M196.4,52.3
						c2,0,3.5-1.6,3.5-3.5c0-2-1.6-3.5-3.5-3.5c-2,0-3.5,1.6-3.5,3.5C192.8,50.7,194.4,52.3,196.4,52.3z"/>
					<path style="clip-path:url(#SVGID_00000109016914778929748090000010859269340613701789_);fill:#FC878B;" d="M172.7,52.3
						c2,0,3.5-1.6,3.5-3.5c0-2-1.6-3.5-3.5-3.5c-2,0-3.5,1.6-3.5,3.5C169.2,50.7,170.8,52.3,172.7,52.3z"/>
					<path style="clip-path:url(#SVGID_00000109016914778929748090000010859269340613701789_);fill:#FC878B;" d="M149.1,52.3
						c2,0,3.5-1.6,3.5-3.5c0-2-1.6-3.5-3.5-3.5c-2,0-3.5,1.6-3.5,3.5C145.6,50.7,147.2,52.3,149.1,52.3z"/>
					<path style="clip-path:url(#SVGID_00000109016914778929748090000010859269340613701789_);fill:#FC878B;" d="M125.5,52.3
						c2,0,3.5-1.6,3.5-3.5c0-2-1.6-3.5-3.5-3.5c-2,0-3.5,1.6-3.5,3.5C122,50.7,123.5,52.3,125.5,52.3z"/>
					<path style="clip-path:url(#SVGID_00000109016914778929748090000010859269340613701789_);fill:#FC878B;" d="M125.5,48.7"/>
					<path style="clip-path:url(#SVGID_00000109016914778929748090000010859269340613701789_);fill:#FC878B;" d="M160.9,87.7
						c2,0,3.5-1.6,3.5-3.5c0-2-1.6-3.5-3.5-3.5c-2,0-3.5,1.6-3.5,3.5C157.4,86.1,159,87.7,160.9,87.7z"/>
					<path style="clip-path:url(#SVGID_00000109016914778929748090000010859269340613701789_);fill:#FC878B;" d="M184.5,87.7
						c2,0,3.5-1.6,3.5-3.5c0-2-1.6-3.5-3.5-3.5c-2,0-3.5,1.6-3.5,3.5C181,86.1,182.6,87.7,184.5,87.7z"/>
					
						<circle style="clip-path:url(#SVGID_00000109016914778929748090000010859269340613701789_);fill:#FC878B;" cx="160.9" cy="60.5" r="3.5"/>
					<path style="clip-path:url(#SVGID_00000109016914778929748090000010859269340613701789_);fill:#FC878B;" d="M184.5,64.1
						c2,0,3.5-1.6,3.5-3.5c0-2-1.6-3.5-3.5-3.5c-2,0-3.5,1.6-3.5,3.5C181,62.5,182.6,64.1,184.5,64.1z"/>
					
						<circle style="clip-path:url(#SVGID_00000109016914778929748090000010859269340613701789_);fill:#FC878B;" cx="137.3" cy="60.5" r="3.5"/>
					<path style="clip-path:url(#SVGID_00000109016914778929748090000010859269340613701789_);fill:#FC878B;" d="M137.3,60.5"/>
				</g>
			</g>
			<g style="clip-path:url(#SVGID_00000027570380828439640120000003072578706458849719_);">
				<g>
					<defs>
						<rect id="SVGID_00000002355952731913000000000001797953215360640954_" x="149.1" y="96" width="47.2" height="47.2"/>
					</defs>
					<clipPath id="SVGID_00000108301081531798644610000017879659535929167026_">
						<use xlink:href="#SVGID_00000002355952731913000000000001797953215360640954_"  style="overflow:visible;"/>
					</clipPath>
					<path style="clip-path:url(#SVGID_00000108301081531798644610000017879659535929167026_);fill:#FC878B;" d="M196.4,146.7
						c2,0,3.5-1.6,3.5-3.5c0-2-1.6-3.5-3.5-3.5c-2,0-3.5,1.6-3.5,3.5C192.8,145.2,194.4,146.7,196.4,146.7z"/>
					<path style="clip-path:url(#SVGID_00000108301081531798644610000017879659535929167026_);fill:#FC878B;" d="M172.7,146.7
						c2,0,3.5-1.6,3.5-3.5c0-2-1.6-3.5-3.5-3.5c-2,0-3.5,1.6-3.5,3.5C169.2,145.2,170.8,146.7,172.7,146.7z"/>
					<path style="clip-path:url(#SVGID_00000108301081531798644610000017879659535929167026_);fill:#FC878B;" d="M149.1,146.7
						c2,0,3.5-1.6,3.5-3.5c0-2-1.6-3.5-3.5-3.5c-2,0-3.5,1.6-3.5,3.5C145.6,145.2,147.2,146.7,149.1,146.7z"/>
					<path style="clip-path:url(#SVGID_00000108301081531798644610000017879659535929167026_);fill:#FC878B;" d="M196.4,123.1
						c2,0,3.5-1.6,3.5-3.5s-1.6-3.5-3.5-3.5c-2,0-3.5,1.6-3.5,3.5S194.4,123.1,196.4,123.1z"/>
					<path style="clip-path:url(#SVGID_00000108301081531798644610000017879659535929167026_);fill:#FC878B;" d="M172.7,123.1
						c2,0,3.5-1.6,3.5-3.5s-1.6-3.5-3.5-3.5c-2,0-3.5,1.6-3.5,3.5S170.8,123.1,172.7,123.1z"/>
					<path style="clip-path:url(#SVGID_00000108301081531798644610000017879659535929167026_);fill:#FC878B;" d="M149.1,123.1
						c2,0,3.5-1.6,3.5-3.5s-1.6-3.5-3.5-3.5c-2,0-3.5,1.6-3.5,3.5S147.2,123.1,149.1,123.1z"/>
					<path style="clip-path:url(#SVGID_00000108301081531798644610000017879659535929167026_);fill:#FC878B;" d="M196.4,99.5
						c2,0,3.5-1.6,3.5-3.5c0-2-1.6-3.5-3.5-3.5c-2,0-3.5,1.6-3.5,3.5C192.8,97.9,194.4,99.5,196.4,99.5z"/>
					<path style="clip-path:url(#SVGID_00000108301081531798644610000017879659535929167026_);fill:#FC878B;" d="M172.7,99.5
						c2,0,3.5-1.6,3.5-3.5c0-2-1.6-3.5-3.5-3.5c-2,0-3.5,1.6-3.5,3.5C169.2,97.9,170.8,99.5,172.7,99.5z"/>
					<path style="clip-path:url(#SVGID_00000108301081531798644610000017879659535929167026_);fill:#FC878B;" d="M149.1,99.5
						c2,0,3.5-1.6,3.5-3.5c0-2-1.6-3.5-3.5-3.5c-2,0-3.5,1.6-3.5,3.5C145.6,97.9,147.2,99.5,149.1,99.5z"/>
					<path style="clip-path:url(#SVGID_00000108301081531798644610000017879659535929167026_);fill:#FC878B;" d="M125.5,99.5
						c2,0,3.5-1.6,3.5-3.5c0-2-1.6-3.5-3.5-3.5c-2,0-3.5,1.6-3.5,3.5C122,97.9,123.5,99.5,125.5,99.5z"/>
					<path style="clip-path:url(#SVGID_00000108301081531798644610000017879659535929167026_);fill:#FC878B;" d="M125.5,96"/>
					<path style="clip-path:url(#SVGID_00000108301081531798644610000017879659535929167026_);fill:#FC878B;" d="M160.9,134.9
						c2,0,3.5-1.6,3.5-3.5c0-2-1.6-3.5-3.5-3.5c-2,0-3.5,1.6-3.5,3.5C157.4,133.4,159,134.9,160.9,134.9z"/>
					<path style="clip-path:url(#SVGID_00000108301081531798644610000017879659535929167026_);fill:#FC878B;" d="M184.5,134.9
						c2,0,3.5-1.6,3.5-3.5c0-2-1.6-3.5-3.5-3.5c-2,0-3.5,1.6-3.5,3.5C181,133.4,182.6,134.9,184.5,134.9z"/>
					
						<circle style="clip-path:url(#SVGID_00000108301081531798644610000017879659535929167026_);fill:#FC878B;" cx="160.9" cy="107.8" r="3.5"/>
					<path style="clip-path:url(#SVGID_00000108301081531798644610000017879659535929167026_);fill:#FC878B;" d="M184.5,111.3
						c2,0,3.5-1.6,3.5-3.5c0-2-1.6-3.5-3.5-3.5c-2,0-3.5,1.6-3.5,3.5C181,109.7,182.6,111.3,184.5,111.3z"/>
					
						<circle style="clip-path:url(#SVGID_00000108301081531798644610000017879659535929167026_);fill:#FC878B;" cx="137.3" cy="107.8" r="3.5"/>
					<path style="clip-path:url(#SVGID_00000108301081531798644610000017879659535929167026_);fill:#FC878B;" d="M137.3,107.8"/>
				</g>
			</g>
			<g style="clip-path:url(#SVGID_00000027570380828439640120000003072578706458849719_);">
				<g>
					<defs>
						<rect id="SVGID_00000137130861365744718240000016569069546267096227_" x="149.1" y="143.2" width="47.2" height="47.2"/>
					</defs>
					<clipPath id="SVGID_00000051361003221979960900000017926304237693249983_">
						<use xlink:href="#SVGID_00000137130861365744718240000016569069546267096227_"  style="overflow:visible;"/>
					</clipPath>
					<path style="clip-path:url(#SVGID_00000051361003221979960900000017926304237693249983_);fill:#FC878B;" d="M196.4,194
						c2,0,3.5-1.6,3.5-3.5c0-2-1.6-3.5-3.5-3.5c-2,0-3.5,1.6-3.5,3.5C192.8,192.4,194.4,194,196.4,194z"/>
					<path style="clip-path:url(#SVGID_00000051361003221979960900000017926304237693249983_);fill:#FC878B;" d="M172.7,194
						c2,0,3.5-1.6,3.5-3.5c0-2-1.6-3.5-3.5-3.5c-2,0-3.5,1.6-3.5,3.5C169.2,192.4,170.8,194,172.7,194z"/>
					<path style="clip-path:url(#SVGID_00000051361003221979960900000017926304237693249983_);fill:#FC878B;" d="M149.1,194
						c2,0,3.5-1.6,3.5-3.5c0-2-1.6-3.5-3.5-3.5c-2,0-3.5,1.6-3.5,3.5C145.6,192.4,147.2,194,149.1,194z"/>
					<path style="clip-path:url(#SVGID_00000051361003221979960900000017926304237693249983_);fill:#FC878B;" d="M196.4,170.4
						c2,0,3.5-1.6,3.5-3.5s-1.6-3.5-3.5-3.5c-2,0-3.5,1.6-3.5,3.5S194.4,170.4,196.4,170.4z"/>
					<path style="clip-path:url(#SVGID_00000051361003221979960900000017926304237693249983_);fill:#FC878B;" d="M172.7,170.4
						c2,0,3.5-1.6,3.5-3.5s-1.6-3.5-3.5-3.5c-2,0-3.5,1.6-3.5,3.5S170.8,170.4,172.7,170.4z"/>
					<path style="clip-path:url(#SVGID_00000051361003221979960900000017926304237693249983_);fill:#FC878B;" d="M149.1,170.4
						c2,0,3.5-1.6,3.5-3.5s-1.6-3.5-3.5-3.5c-2,0-3.5,1.6-3.5,3.5S147.2,170.4,149.1,170.4z"/>
					<path style="clip-path:url(#SVGID_00000051361003221979960900000017926304237693249983_);fill:#FC878B;" d="M196.4,146.7
						c2,0,3.5-1.6,3.5-3.5c0-2-1.6-3.5-3.5-3.5c-2,0-3.5,1.6-3.5,3.5C192.8,145.2,194.4,146.7,196.4,146.7z"/>
					<path style="clip-path:url(#SVGID_00000051361003221979960900000017926304237693249983_);fill:#FC878B;" d="M172.7,146.7
						c2,0,3.5-1.6,3.5-3.5c0-2-1.6-3.5-3.5-3.5c-2,0-3.5,1.6-3.5,3.5C169.2,145.2,170.8,146.7,172.7,146.7z"/>
					<path style="clip-path:url(#SVGID_00000051361003221979960900000017926304237693249983_);fill:#FC878B;" d="M149.1,146.7
						c2,0,3.5-1.6,3.5-3.5c0-2-1.6-3.5-3.5-3.5c-2,0-3.5,1.6-3.5,3.5C145.6,145.2,147.2,146.7,149.1,146.7z"/>
					<path style="clip-path:url(#SVGID_00000051361003221979960900000017926304237693249983_);fill:#FC878B;" d="M125.5,146.7
						c2,0,3.5-1.6,3.5-3.5c0-2-1.6-3.5-3.5-3.5c-2,0-3.5,1.6-3.5,3.5C122,145.2,123.5,146.7,125.5,146.7z"/>
					<path style="clip-path:url(#SVGID_00000051361003221979960900000017926304237693249983_);fill:#FC878B;" d="M125.5,143.2"/>
					<path style="clip-path:url(#SVGID_00000051361003221979960900000017926304237693249983_);fill:#FC878B;" d="M160.9,182.2
						c2,0,3.5-1.6,3.5-3.5c0-2-1.6-3.5-3.5-3.5c-2,0-3.5,1.6-3.5,3.5C157.4,180.6,159,182.2,160.9,182.2z"/>
					<path style="clip-path:url(#SVGID_00000051361003221979960900000017926304237693249983_);fill:#FC878B;" d="M184.5,182.2
						c2,0,3.5-1.6,3.5-3.5c0-2-1.6-3.5-3.5-3.5c-2,0-3.5,1.6-3.5,3.5C181,180.6,182.6,182.2,184.5,182.2z"/>
					
						<circle style="clip-path:url(#SVGID_00000051361003221979960900000017926304237693249983_);fill:#FC878B;" cx="160.9" cy="155" r="3.5"/>
					<path style="clip-path:url(#SVGID_00000051361003221979960900000017926304237693249983_);fill:#FC878B;" d="M184.5,158.6
						c2,0,3.5-1.6,3.5-3.5s-1.6-3.5-3.5-3.5c-2,0-3.5,1.6-3.5,3.5S182.6,158.6,184.5,158.6z"/>
					
						<circle style="clip-path:url(#SVGID_00000051361003221979960900000017926304237693249983_);fill:#FC878B;" cx="137.3" cy="155" r="3.5"/>
					<path style="clip-path:url(#SVGID_00000051361003221979960900000017926304237693249983_);fill:#FC878B;" d="M137.3,155"/>
				</g>
			</g>
			<g style="clip-path:url(#SVGID_00000027570380828439640120000003072578706458849719_);">
				<g>
					<defs>
						<rect id="SVGID_00000019646049080829540970000003644821012886025361_" x="149.1" y="190.4" width="47.2" height="47.2"/>
					</defs>
					<clipPath id="SVGID_00000122693291034234658490000006328774614522342302_">
						<use xlink:href="#SVGID_00000019646049080829540970000003644821012886025361_"  style="overflow:visible;"/>
					</clipPath>
					<path style="clip-path:url(#SVGID_00000122693291034234658490000006328774614522342302_);fill:#FC878B;" d="M196.4,241.2
						c2,0,3.5-1.6,3.5-3.5c0-2-1.6-3.5-3.5-3.5c-2,0-3.5,1.6-3.5,3.5C192.8,239.6,194.4,241.2,196.4,241.2z"/>
					<path style="clip-path:url(#SVGID_00000122693291034234658490000006328774614522342302_);fill:#FC878B;" d="M172.7,241.2
						c2,0,3.5-1.6,3.5-3.5c0-2-1.6-3.5-3.5-3.5c-2,0-3.5,1.6-3.5,3.5C169.2,239.6,170.8,241.2,172.7,241.2z"/>
					<path style="clip-path:url(#SVGID_00000122693291034234658490000006328774614522342302_);fill:#FC878B;" d="M149.1,241.2
						c2,0,3.5-1.6,3.5-3.5c0-2-1.6-3.5-3.5-3.5c-2,0-3.5,1.6-3.5,3.5C145.6,239.6,147.2,241.2,149.1,241.2z"/>
					<path style="clip-path:url(#SVGID_00000122693291034234658490000006328774614522342302_);fill:#FC878B;" d="M196.4,217.6
						c2,0,3.5-1.6,3.5-3.5c0-2-1.6-3.5-3.5-3.5c-2,0-3.5,1.6-3.5,3.5C192.8,216,194.4,217.6,196.4,217.6z"/>
					<path style="clip-path:url(#SVGID_00000122693291034234658490000006328774614522342302_);fill:#FC878B;" d="M172.7,217.6
						c2,0,3.5-1.6,3.5-3.5c0-2-1.6-3.5-3.5-3.5c-2,0-3.5,1.6-3.5,3.5C169.2,216,170.8,217.6,172.7,217.6z"/>
					<path style="clip-path:url(#SVGID_00000122693291034234658490000006328774614522342302_);fill:#FC878B;" d="M149.1,217.6
						c2,0,3.5-1.6,3.5-3.5c0-2-1.6-3.5-3.5-3.5c-2,0-3.5,1.6-3.5,3.5C145.6,216,147.2,217.6,149.1,217.6z"/>
					<path style="clip-path:url(#SVGID_00000122693291034234658490000006328774614522342302_);fill:#FC878B;" d="M196.4,194
						c2,0,3.5-1.6,3.5-3.5c0-2-1.6-3.5-3.5-3.5c-2,0-3.5,1.6-3.5,3.5C192.8,192.4,194.4,194,196.4,194z"/>
					<path style="clip-path:url(#SVGID_00000122693291034234658490000006328774614522342302_);fill:#FC878B;" d="M172.7,194
						c2,0,3.5-1.6,3.5-3.5c0-2-1.6-3.5-3.5-3.5c-2,0-3.5,1.6-3.5,3.5C169.2,192.4,170.8,194,172.7,194z"/>
					<path style="clip-path:url(#SVGID_00000122693291034234658490000006328774614522342302_);fill:#FC878B;" d="M149.1,194
						c2,0,3.5-1.6,3.5-3.5c0-2-1.6-3.5-3.5-3.5c-2,0-3.5,1.6-3.5,3.5C145.6,192.4,147.2,194,149.1,194z"/>
					<path style="clip-path:url(#SVGID_00000122693291034234658490000006328774614522342302_);fill:#FC878B;" d="M125.5,194
						c2,0,3.5-1.6,3.5-3.5c0-2-1.6-3.5-3.5-3.5c-2,0-3.5,1.6-3.5,3.5C122,192.4,123.5,194,125.5,194z"/>
					<path style="clip-path:url(#SVGID_00000122693291034234658490000006328774614522342302_);fill:#FC878B;" d="M125.5,190.4"/>
					<path style="clip-path:url(#SVGID_00000122693291034234658490000006328774614522342302_);fill:#FC878B;" d="M160.9,229.4
						c2,0,3.5-1.6,3.5-3.5c0-2-1.6-3.5-3.5-3.5c-2,0-3.5,1.6-3.5,3.5C157.4,227.8,159,229.4,160.9,229.4z"/>
					<path style="clip-path:url(#SVGID_00000122693291034234658490000006328774614522342302_);fill:#FC878B;" d="M184.5,229.4
						c2,0,3.5-1.6,3.5-3.5c0-2-1.6-3.5-3.5-3.5c-2,0-3.5,1.6-3.5,3.5C181,227.8,182.6,229.4,184.5,229.4z"/>
					
						<circle style="clip-path:url(#SVGID_00000122693291034234658490000006328774614522342302_);fill:#FC878B;" cx="160.9" cy="202.3" r="3.5"/>
					<path style="clip-path:url(#SVGID_00000122693291034234658490000006328774614522342302_);fill:#FC878B;" d="M184.5,205.8
						c2,0,3.5-1.6,3.5-3.5c0-2-1.6-3.5-3.5-3.5c-2,0-3.5,1.6-3.5,3.5C181,204.2,182.6,205.8,184.5,205.8z"/>
					
						<circle style="clip-path:url(#SVGID_00000122693291034234658490000006328774614522342302_);fill:#FC878B;" cx="137.3" cy="202.3" r="3.5"/>
					<path style="clip-path:url(#SVGID_00000122693291034234658490000006328774614522342302_);fill:#FC878B;" d="M137.3,202.3"/>
				</g>
			</g>
			<g style="clip-path:url(#SVGID_00000027570380828439640120000003072578706458849719_);">
				<g>
					<defs>
						<rect id="SVGID_00000049208305557989340580000016766230157877097894_" x="101.9" y="48.7" width="47.2" height="47.2"/>
					</defs>
					<clipPath id="SVGID_00000122721606398721850010000002633123982168543374_">
						<use xlink:href="#SVGID_00000049208305557989340580000016766230157877097894_"  style="overflow:visible;"/>
					</clipPath>
					<path style="clip-path:url(#SVGID_00000122721606398721850010000002633123982168543374_);fill:#FC878B;" d="M149.1,99.5
						c2,0,3.5-1.6,3.5-3.5c0-2-1.6-3.5-3.5-3.5c-2,0-3.5,1.6-3.5,3.5C145.6,97.9,147.2,99.5,149.1,99.5z"/>
					<path style="clip-path:url(#SVGID_00000122721606398721850010000002633123982168543374_);fill:#FC878B;" d="M125.5,99.5
						c2,0,3.5-1.6,3.5-3.5c0-2-1.6-3.5-3.5-3.5c-2,0-3.5,1.6-3.5,3.5C122,97.9,123.5,99.5,125.5,99.5z"/>
					<path style="clip-path:url(#SVGID_00000122721606398721850010000002633123982168543374_);fill:#FC878B;" d="M101.9,99.5
						c2,0,3.5-1.6,3.5-3.5c0-2-1.6-3.5-3.5-3.5c-2,0-3.5,1.6-3.5,3.5C98.3,97.9,99.9,99.5,101.9,99.5z"/>
					<path style="clip-path:url(#SVGID_00000122721606398721850010000002633123982168543374_);fill:#FC878B;" d="M149.1,75.9
						c2,0,3.5-1.6,3.5-3.5c0-2-1.6-3.5-3.5-3.5c-2,0-3.5,1.6-3.5,3.5C145.6,74.3,147.2,75.9,149.1,75.9z"/>
					<path style="clip-path:url(#SVGID_00000122721606398721850010000002633123982168543374_);fill:#FC878B;" d="M125.5,75.9
						c2,0,3.5-1.6,3.5-3.5c0-2-1.6-3.5-3.5-3.5c-2,0-3.5,1.6-3.5,3.5C122,74.3,123.5,75.9,125.5,75.9z"/>
					<path style="clip-path:url(#SVGID_00000122721606398721850010000002633123982168543374_);fill:#FC878B;" d="M101.9,75.9
						c2,0,3.5-1.6,3.5-3.5c0-2-1.6-3.5-3.5-3.5c-2,0-3.5,1.6-3.5,3.5C98.3,74.3,99.9,75.9,101.9,75.9z"/>
					<path style="clip-path:url(#SVGID_00000122721606398721850010000002633123982168543374_);fill:#FC878B;" d="M149.1,52.3
						c2,0,3.5-1.6,3.5-3.5c0-2-1.6-3.5-3.5-3.5c-2,0-3.5,1.6-3.5,3.5C145.6,50.7,147.2,52.3,149.1,52.3z"/>
					<path style="clip-path:url(#SVGID_00000122721606398721850010000002633123982168543374_);fill:#FC878B;" d="M125.5,52.3
						c2,0,3.5-1.6,3.5-3.5c0-2-1.6-3.5-3.5-3.5c-2,0-3.5,1.6-3.5,3.5C122,50.7,123.5,52.3,125.5,52.3z"/>
					<path style="clip-path:url(#SVGID_00000122721606398721850010000002633123982168543374_);fill:#FC878B;" d="M101.9,52.3
						c2,0,3.5-1.6,3.5-3.5c0-2-1.6-3.5-3.5-3.5c-2,0-3.5,1.6-3.5,3.5C98.3,50.7,99.9,52.3,101.9,52.3z"/>
					<path style="clip-path:url(#SVGID_00000122721606398721850010000002633123982168543374_);fill:#FC878B;" d="M78.3,52.3
						c2,0,3.5-1.6,3.5-3.5c0-2-1.6-3.5-3.5-3.5c-2,0-3.5,1.6-3.5,3.5C74.7,50.7,76.3,52.3,78.3,52.3z"/>
					<path style="clip-path:url(#SVGID_00000122721606398721850010000002633123982168543374_);fill:#FC878B;" d="M78.3,48.7"/>
					<path style="clip-path:url(#SVGID_00000122721606398721850010000002633123982168543374_);fill:#FC878B;" d="M113.7,87.7
						c2,0,3.5-1.6,3.5-3.5c0-2-1.6-3.5-3.5-3.5c-2,0-3.5,1.6-3.5,3.5C110.2,86.1,111.7,87.7,113.7,87.7z"/>
					<path style="clip-path:url(#SVGID_00000122721606398721850010000002633123982168543374_);fill:#FC878B;" d="M137.3,87.7
						c2,0,3.5-1.6,3.5-3.5c0-2-1.6-3.5-3.5-3.5c-2,0-3.5,1.6-3.5,3.5C133.8,86.1,135.4,87.7,137.3,87.7z"/>
					
						<circle style="clip-path:url(#SVGID_00000122721606398721850010000002633123982168543374_);fill:#FC878B;" cx="113.7" cy="60.5" r="3.5"/>
					<path style="clip-path:url(#SVGID_00000122721606398721850010000002633123982168543374_);fill:#FC878B;" d="M137.3,64.1
						c2,0,3.5-1.6,3.5-3.5c0-2-1.6-3.5-3.5-3.5c-2,0-3.5,1.6-3.5,3.5C133.8,62.5,135.4,64.1,137.3,64.1z"/>
					
						<circle style="clip-path:url(#SVGID_00000122721606398721850010000002633123982168543374_);fill:#FC878B;" cx="90.1" cy="60.5" r="3.5"/>
					<path style="clip-path:url(#SVGID_00000122721606398721850010000002633123982168543374_);fill:#FC878B;" d="M90.1,60.5"/>
				</g>
			</g>
			<g style="clip-path:url(#SVGID_00000027570380828439640120000003072578706458849719_);">
				<g>
					<defs>
						<rect id="SVGID_00000156587426336049855600000009214325661164090036_" x="101.9" y="96" width="47.2" height="47.2"/>
					</defs>
					<clipPath id="SVGID_00000139284004215609043300000002420569235969359787_">
						<use xlink:href="#SVGID_00000156587426336049855600000009214325661164090036_"  style="overflow:visible;"/>
					</clipPath>
					<path style="clip-path:url(#SVGID_00000139284004215609043300000002420569235969359787_);fill:#FC878B;" d="M149.1,146.7
						c2,0,3.5-1.6,3.5-3.5c0-2-1.6-3.5-3.5-3.5c-2,0-3.5,1.6-3.5,3.5C145.6,145.2,147.2,146.7,149.1,146.7z"/>
					<path style="clip-path:url(#SVGID_00000139284004215609043300000002420569235969359787_);fill:#FC878B;" d="M125.5,146.7
						c2,0,3.5-1.6,3.5-3.5c0-2-1.6-3.5-3.5-3.5c-2,0-3.5,1.6-3.5,3.5C122,145.2,123.5,146.7,125.5,146.7z"/>
					<path style="clip-path:url(#SVGID_00000139284004215609043300000002420569235969359787_);fill:#FC878B;" d="M101.9,146.7
						c2,0,3.5-1.6,3.5-3.5c0-2-1.6-3.5-3.5-3.5c-2,0-3.5,1.6-3.5,3.5C98.3,145.2,99.9,146.7,101.9,146.7z"/>
					<path style="clip-path:url(#SVGID_00000139284004215609043300000002420569235969359787_);fill:#FC878B;" d="M149.1,123.1
						c2,0,3.5-1.6,3.5-3.5s-1.6-3.5-3.5-3.5c-2,0-3.5,1.6-3.5,3.5S147.2,123.1,149.1,123.1z"/>
					<path style="clip-path:url(#SVGID_00000139284004215609043300000002420569235969359787_);fill:#FC878B;" d="M125.5,123.1
						c2,0,3.5-1.6,3.5-3.5s-1.6-3.5-3.5-3.5c-2,0-3.5,1.6-3.5,3.5S123.5,123.1,125.5,123.1z"/>
					<path style="clip-path:url(#SVGID_00000139284004215609043300000002420569235969359787_);fill:#FC878B;" d="M101.9,123.1
						c2,0,3.5-1.6,3.5-3.5s-1.6-3.5-3.5-3.5c-2,0-3.5,1.6-3.5,3.5S99.9,123.1,101.9,123.1z"/>
					<path style="clip-path:url(#SVGID_00000139284004215609043300000002420569235969359787_);fill:#FC878B;" d="M149.1,99.5
						c2,0,3.5-1.6,3.5-3.5c0-2-1.6-3.5-3.5-3.5c-2,0-3.5,1.6-3.5,3.5C145.6,97.9,147.2,99.5,149.1,99.5z"/>
					<path style="clip-path:url(#SVGID_00000139284004215609043300000002420569235969359787_);fill:#FC878B;" d="M125.5,99.5
						c2,0,3.5-1.6,3.5-3.5c0-2-1.6-3.5-3.5-3.5c-2,0-3.5,1.6-3.5,3.5C122,97.9,123.5,99.5,125.5,99.5z"/>
					<path style="clip-path:url(#SVGID_00000139284004215609043300000002420569235969359787_);fill:#FC878B;" d="M101.9,99.5
						c2,0,3.5-1.6,3.5-3.5c0-2-1.6-3.5-3.5-3.5c-2,0-3.5,1.6-3.5,3.5C98.3,97.9,99.9,99.5,101.9,99.5z"/>
					<path style="clip-path:url(#SVGID_00000139284004215609043300000002420569235969359787_);fill:#FC878B;" d="M78.3,99.5
						c2,0,3.5-1.6,3.5-3.5c0-2-1.6-3.5-3.5-3.5c-2,0-3.5,1.6-3.5,3.5C74.7,97.9,76.3,99.5,78.3,99.5z"/>
					<path style="clip-path:url(#SVGID_00000139284004215609043300000002420569235969359787_);fill:#FC878B;" d="M78.3,96"/>
					<path style="clip-path:url(#SVGID_00000139284004215609043300000002420569235969359787_);fill:#FC878B;" d="M113.7,134.9
						c2,0,3.5-1.6,3.5-3.5c0-2-1.6-3.5-3.5-3.5c-2,0-3.5,1.6-3.5,3.5C110.2,133.4,111.7,134.9,113.7,134.9z"/>
					<path style="clip-path:url(#SVGID_00000139284004215609043300000002420569235969359787_);fill:#FC878B;" d="M137.3,134.9
						c2,0,3.5-1.6,3.5-3.5c0-2-1.6-3.5-3.5-3.5c-2,0-3.5,1.6-3.5,3.5C133.8,133.4,135.4,134.9,137.3,134.9z"/>
					
						<circle style="clip-path:url(#SVGID_00000139284004215609043300000002420569235969359787_);fill:#FC878B;" cx="113.7" cy="107.8" r="3.5"/>
					<path style="clip-path:url(#SVGID_00000139284004215609043300000002420569235969359787_);fill:#FC878B;" d="M137.3,111.3
						c2,0,3.5-1.6,3.5-3.5c0-2-1.6-3.5-3.5-3.5c-2,0-3.5,1.6-3.5,3.5C133.8,109.7,135.4,111.3,137.3,111.3z"/>
					
						<circle style="clip-path:url(#SVGID_00000139284004215609043300000002420569235969359787_);fill:#FC878B;" cx="90.1" cy="107.8" r="3.5"/>
					<path style="clip-path:url(#SVGID_00000139284004215609043300000002420569235969359787_);fill:#FC878B;" d="M90.1,107.8"/>
				</g>
			</g>
			<g style="clip-path:url(#SVGID_00000027570380828439640120000003072578706458849719_);">
				<g>
					<defs>
						<rect id="SVGID_00000010993893262675800970000009738335947610125472_" x="101.9" y="143.2" width="47.2" height="47.2"/>
					</defs>
					<clipPath id="SVGID_00000062180452646841709220000006711059619389955214_">
						<use xlink:href="#SVGID_00000010993893262675800970000009738335947610125472_"  style="overflow:visible;"/>
					</clipPath>
					<path style="clip-path:url(#SVGID_00000062180452646841709220000006711059619389955214_);fill:#FC878B;" d="M149.1,194
						c2,0,3.5-1.6,3.5-3.5c0-2-1.6-3.5-3.5-3.5c-2,0-3.5,1.6-3.5,3.5C145.6,192.4,147.2,194,149.1,194z"/>
					<path style="clip-path:url(#SVGID_00000062180452646841709220000006711059619389955214_);fill:#FC878B;" d="M125.5,194
						c2,0,3.5-1.6,3.5-3.5c0-2-1.6-3.5-3.5-3.5c-2,0-3.5,1.6-3.5,3.5C122,192.4,123.5,194,125.5,194z"/>
					<path style="clip-path:url(#SVGID_00000062180452646841709220000006711059619389955214_);fill:#FC878B;" d="M101.9,194
						c2,0,3.5-1.6,3.5-3.5c0-2-1.6-3.5-3.5-3.5c-2,0-3.5,1.6-3.5,3.5C98.3,192.4,99.9,194,101.9,194z"/>
					<path style="clip-path:url(#SVGID_00000062180452646841709220000006711059619389955214_);fill:#FC878B;" d="M149.1,170.4
						c2,0,3.5-1.6,3.5-3.5s-1.6-3.5-3.5-3.5c-2,0-3.5,1.6-3.5,3.5S147.2,170.4,149.1,170.4z"/>
					<path style="clip-path:url(#SVGID_00000062180452646841709220000006711059619389955214_);fill:#FC878B;" d="M125.5,170.4
						c2,0,3.5-1.6,3.5-3.5s-1.6-3.5-3.5-3.5c-2,0-3.5,1.6-3.5,3.5S123.5,170.4,125.5,170.4z"/>
					<path style="clip-path:url(#SVGID_00000062180452646841709220000006711059619389955214_);fill:#FC878B;" d="M101.9,170.4
						c2,0,3.5-1.6,3.5-3.5s-1.6-3.5-3.5-3.5c-2,0-3.5,1.6-3.5,3.5S99.9,170.4,101.9,170.4z"/>
					<path style="clip-path:url(#SVGID_00000062180452646841709220000006711059619389955214_);fill:#FC878B;" d="M149.1,146.7
						c2,0,3.5-1.6,3.5-3.5c0-2-1.6-3.5-3.5-3.5c-2,0-3.5,1.6-3.5,3.5C145.6,145.2,147.2,146.7,149.1,146.7z"/>
					<path style="clip-path:url(#SVGID_00000062180452646841709220000006711059619389955214_);fill:#FC878B;" d="M125.5,146.7
						c2,0,3.5-1.6,3.5-3.5c0-2-1.6-3.5-3.5-3.5c-2,0-3.5,1.6-3.5,3.5C122,145.2,123.5,146.7,125.5,146.7z"/>
					<path style="clip-path:url(#SVGID_00000062180452646841709220000006711059619389955214_);fill:#FC878B;" d="M101.9,146.7
						c2,0,3.5-1.6,3.5-3.5c0-2-1.6-3.5-3.5-3.5c-2,0-3.5,1.6-3.5,3.5C98.3,145.2,99.9,146.7,101.9,146.7z"/>
					<path style="clip-path:url(#SVGID_00000062180452646841709220000006711059619389955214_);fill:#FC878B;" d="M78.3,146.7
						c2,0,3.5-1.6,3.5-3.5c0-2-1.6-3.5-3.5-3.5c-2,0-3.5,1.6-3.5,3.5C74.7,145.2,76.3,146.7,78.3,146.7z"/>
					<path style="clip-path:url(#SVGID_00000062180452646841709220000006711059619389955214_);fill:#FC878B;" d="M78.3,143.2"/>
					<path style="clip-path:url(#SVGID_00000062180452646841709220000006711059619389955214_);fill:#FC878B;" d="M113.7,182.2
						c2,0,3.5-1.6,3.5-3.5c0-2-1.6-3.5-3.5-3.5c-2,0-3.5,1.6-3.5,3.5C110.2,180.6,111.7,182.2,113.7,182.2z"/>
					<path style="clip-path:url(#SVGID_00000062180452646841709220000006711059619389955214_);fill:#FC878B;" d="M137.3,182.2
						c2,0,3.5-1.6,3.5-3.5c0-2-1.6-3.5-3.5-3.5c-2,0-3.5,1.6-3.5,3.5C133.8,180.6,135.4,182.2,137.3,182.2z"/>
					
						<circle style="clip-path:url(#SVGID_00000062180452646841709220000006711059619389955214_);fill:#FC878B;" cx="113.7" cy="155" r="3.5"/>
					<path style="clip-path:url(#SVGID_00000062180452646841709220000006711059619389955214_);fill:#FC878B;" d="M137.3,158.6
						c2,0,3.5-1.6,3.5-3.5s-1.6-3.5-3.5-3.5c-2,0-3.5,1.6-3.5,3.5S135.4,158.6,137.3,158.6z"/>
					
						<circle style="clip-path:url(#SVGID_00000062180452646841709220000006711059619389955214_);fill:#FC878B;" cx="90.1" cy="155" r="3.5"/>
					<path style="clip-path:url(#SVGID_00000062180452646841709220000006711059619389955214_);fill:#FC878B;" d="M90.1,155"/>
				</g>
			</g>
			<g style="clip-path:url(#SVGID_00000027570380828439640120000003072578706458849719_);">
				<g>
					<defs>
						<rect id="SVGID_00000017493883854084527140000015163968967269598866_" x="101.9" y="190.4" width="47.2" height="47.2"/>
					</defs>
					<clipPath id="SVGID_00000071529153222065518670000004365397764559319965_">
						<use xlink:href="#SVGID_00000017493883854084527140000015163968967269598866_"  style="overflow:visible;"/>
					</clipPath>
					<path style="clip-path:url(#SVGID_00000071529153222065518670000004365397764559319965_);fill:#FC878B;" d="M149.1,241.2
						c2,0,3.5-1.6,3.5-3.5c0-2-1.6-3.5-3.5-3.5c-2,0-3.5,1.6-3.5,3.5C145.6,239.6,147.2,241.2,149.1,241.2z"/>
					<path style="clip-path:url(#SVGID_00000071529153222065518670000004365397764559319965_);fill:#FC878B;" d="M125.5,241.2
						c2,0,3.5-1.6,3.5-3.5c0-2-1.6-3.5-3.5-3.5c-2,0-3.5,1.6-3.5,3.5C122,239.6,123.5,241.2,125.5,241.2z"/>
					<path style="clip-path:url(#SVGID_00000071529153222065518670000004365397764559319965_);fill:#FC878B;" d="M101.9,241.2
						c2,0,3.5-1.6,3.5-3.5c0-2-1.6-3.5-3.5-3.5c-2,0-3.5,1.6-3.5,3.5C98.3,239.6,99.9,241.2,101.9,241.2z"/>
					<path style="clip-path:url(#SVGID_00000071529153222065518670000004365397764559319965_);fill:#FC878B;" d="M149.1,217.6
						c2,0,3.5-1.6,3.5-3.5c0-2-1.6-3.5-3.5-3.5c-2,0-3.5,1.6-3.5,3.5C145.6,216,147.2,217.6,149.1,217.6z"/>
					<path style="clip-path:url(#SVGID_00000071529153222065518670000004365397764559319965_);fill:#FC878B;" d="M125.5,217.6
						c2,0,3.5-1.6,3.5-3.5c0-2-1.6-3.5-3.5-3.5c-2,0-3.5,1.6-3.5,3.5C122,216,123.5,217.6,125.5,217.6z"/>
					<path style="clip-path:url(#SVGID_00000071529153222065518670000004365397764559319965_);fill:#FC878B;" d="M101.9,217.6
						c2,0,3.5-1.6,3.5-3.5c0-2-1.6-3.5-3.5-3.5c-2,0-3.5,1.6-3.5,3.5C98.3,216,99.9,217.6,101.9,217.6z"/>
					<path style="clip-path:url(#SVGID_00000071529153222065518670000004365397764559319965_);fill:#FC878B;" d="M149.1,194
						c2,0,3.5-1.6,3.5-3.5c0-2-1.6-3.5-3.5-3.5c-2,0-3.5,1.6-3.5,3.5C145.6,192.4,147.2,194,149.1,194z"/>
					<path style="clip-path:url(#SVGID_00000071529153222065518670000004365397764559319965_);fill:#FC878B;" d="M125.5,194
						c2,0,3.5-1.6,3.5-3.5c0-2-1.6-3.5-3.5-3.5c-2,0-3.5,1.6-3.5,3.5C122,192.4,123.5,194,125.5,194z"/>
					<path style="clip-path:url(#SVGID_00000071529153222065518670000004365397764559319965_);fill:#FC878B;" d="M101.9,194
						c2,0,3.5-1.6,3.5-3.5c0-2-1.6-3.5-3.5-3.5c-2,0-3.5,1.6-3.5,3.5C98.3,192.4,99.9,194,101.9,194z"/>
					<path style="clip-path:url(#SVGID_00000071529153222065518670000004365397764559319965_);fill:#FC878B;" d="M78.3,194
						c2,0,3.5-1.6,3.5-3.5c0-2-1.6-3.5-3.5-3.5c-2,0-3.5,1.6-3.5,3.5C74.7,192.4,76.3,194,78.3,194z"/>
					<path style="clip-path:url(#SVGID_00000071529153222065518670000004365397764559319965_);fill:#FC878B;" d="M78.3,190.4"/>
					<path style="clip-path:url(#SVGID_00000071529153222065518670000004365397764559319965_);fill:#FC878B;" d="M113.7,229.4
						c2,0,3.5-1.6,3.5-3.5c0-2-1.6-3.5-3.5-3.5c-2,0-3.5,1.6-3.5,3.5C110.2,227.8,111.7,229.4,113.7,229.4z"/>
					<path style="clip-path:url(#SVGID_00000071529153222065518670000004365397764559319965_);fill:#FC878B;" d="M137.3,229.4
						c2,0,3.5-1.6,3.5-3.5c0-2-1.6-3.5-3.5-3.5c-2,0-3.5,1.6-3.5,3.5C133.8,227.8,135.4,229.4,137.3,229.4z"/>
					
						<circle style="clip-path:url(#SVGID_00000071529153222065518670000004365397764559319965_);fill:#FC878B;" cx="113.7" cy="202.3" r="3.5"/>
					<path style="clip-path:url(#SVGID_00000071529153222065518670000004365397764559319965_);fill:#FC878B;" d="M137.3,205.8
						c2,0,3.5-1.6,3.5-3.5c0-2-1.6-3.5-3.5-3.5c-2,0-3.5,1.6-3.5,3.5C133.8,204.2,135.4,205.8,137.3,205.8z"/>
					
						<circle style="clip-path:url(#SVGID_00000071529153222065518670000004365397764559319965_);fill:#FC878B;" cx="90.1" cy="202.3" r="3.5"/>
					<path style="clip-path:url(#SVGID_00000071529153222065518670000004365397764559319965_);fill:#FC878B;" d="M90.1,202.3"/>
				</g>
			</g>
			<g style="clip-path:url(#SVGID_00000027570380828439640120000003072578706458849719_);">
				<g>
					<defs>
						<rect id="SVGID_00000162348833517963529970000001251358703179561379_" x="54.6" y="48.7" width="47.2" height="47.2"/>
					</defs>
					<clipPath id="SVGID_00000000197266335286176400000005064449549105372811_">
						<use xlink:href="#SVGID_00000162348833517963529970000001251358703179561379_"  style="overflow:visible;"/>
					</clipPath>
					<path style="clip-path:url(#SVGID_00000000197266335286176400000005064449549105372811_);fill:#FC878B;" d="M101.9,99.5
						c2,0,3.5-1.6,3.5-3.5c0-2-1.6-3.5-3.5-3.5c-2,0-3.5,1.6-3.5,3.5C98.3,97.9,99.9,99.5,101.9,99.5z"/>
					<path style="clip-path:url(#SVGID_00000000197266335286176400000005064449549105372811_);fill:#FC878B;" d="M78.3,99.5
						c2,0,3.5-1.6,3.5-3.5c0-2-1.6-3.5-3.5-3.5c-2,0-3.5,1.6-3.5,3.5C74.7,97.9,76.3,99.5,78.3,99.5z"/>
					<path style="clip-path:url(#SVGID_00000000197266335286176400000005064449549105372811_);fill:#FC878B;" d="M54.6,99.5
						c2,0,3.5-1.6,3.5-3.5c0-2-1.6-3.5-3.5-3.5c-2,0-3.5,1.6-3.5,3.5C51.1,97.9,52.7,99.5,54.6,99.5z"/>
					<path style="clip-path:url(#SVGID_00000000197266335286176400000005064449549105372811_);fill:#FC878B;" d="M101.9,75.9
						c2,0,3.5-1.6,3.5-3.5c0-2-1.6-3.5-3.5-3.5c-2,0-3.5,1.6-3.5,3.5C98.3,74.3,99.9,75.9,101.9,75.9z"/>
					<path style="clip-path:url(#SVGID_00000000197266335286176400000005064449549105372811_);fill:#FC878B;" d="M78.3,75.9
						c2,0,3.5-1.6,3.5-3.5c0-2-1.6-3.5-3.5-3.5c-2,0-3.5,1.6-3.5,3.5C74.7,74.3,76.3,75.9,78.3,75.9z"/>
					<path style="clip-path:url(#SVGID_00000000197266335286176400000005064449549105372811_);fill:#FC878B;" d="M54.6,75.9
						c2,0,3.5-1.6,3.5-3.5c0-2-1.6-3.5-3.5-3.5c-2,0-3.5,1.6-3.5,3.5C51.1,74.3,52.7,75.9,54.6,75.9z"/>
					<path style="clip-path:url(#SVGID_00000000197266335286176400000005064449549105372811_);fill:#FC878B;" d="M101.9,52.3
						c2,0,3.5-1.6,3.5-3.5c0-2-1.6-3.5-3.5-3.5c-2,0-3.5,1.6-3.5,3.5C98.3,50.7,99.9,52.3,101.9,52.3z"/>
					<path style="clip-path:url(#SVGID_00000000197266335286176400000005064449549105372811_);fill:#FC878B;" d="M78.3,52.3
						c2,0,3.5-1.6,3.5-3.5c0-2-1.6-3.5-3.5-3.5c-2,0-3.5,1.6-3.5,3.5C74.7,50.7,76.3,52.3,78.3,52.3z"/>
					<path style="clip-path:url(#SVGID_00000000197266335286176400000005064449549105372811_);fill:#FC878B;" d="M54.6,52.3
						c2,0,3.5-1.6,3.5-3.5c0-2-1.6-3.5-3.5-3.5c-2,0-3.5,1.6-3.5,3.5C51.1,50.7,52.7,52.3,54.6,52.3z"/>
					<path style="clip-path:url(#SVGID_00000000197266335286176400000005064449549105372811_);fill:#FC878B;" d="M31,52.3
						c2,0,3.5-1.6,3.5-3.5c0-2-1.6-3.5-3.5-3.5c-2,0-3.5,1.6-3.5,3.5C27.5,50.7,29.1,52.3,31,52.3z"/>
					<path style="clip-path:url(#SVGID_00000000197266335286176400000005064449549105372811_);fill:#FC878B;" d="M31,48.7"/>
					<path style="clip-path:url(#SVGID_00000000197266335286176400000005064449549105372811_);fill:#FC878B;" d="M66.5,87.7
						c2,0,3.5-1.6,3.5-3.5c0-2-1.6-3.5-3.5-3.5c-2,0-3.5,1.6-3.5,3.5C62.9,86.1,64.5,87.7,66.5,87.7z"/>
					<path style="clip-path:url(#SVGID_00000000197266335286176400000005064449549105372811_);fill:#FC878B;" d="M90.1,87.7
						c2,0,3.5-1.6,3.5-3.5c0-2-1.6-3.5-3.5-3.5c-2,0-3.5,1.6-3.5,3.5C86.5,86.1,88.1,87.7,90.1,87.7z"/>
					
						<circle style="clip-path:url(#SVGID_00000000197266335286176400000005064449549105372811_);fill:#FC878B;" cx="66.5" cy="60.5" r="3.5"/>
					<path style="clip-path:url(#SVGID_00000000197266335286176400000005064449549105372811_);fill:#FC878B;" d="M90.1,64.1
						c2,0,3.5-1.6,3.5-3.5c0-2-1.6-3.5-3.5-3.5c-2,0-3.5,1.6-3.5,3.5C86.5,62.5,88.1,64.1,90.1,64.1z"/>
					
						<circle style="clip-path:url(#SVGID_00000000197266335286176400000005064449549105372811_);fill:#FC878B;" cx="42.8" cy="60.5" r="3.5"/>
					<path style="clip-path:url(#SVGID_00000000197266335286176400000005064449549105372811_);fill:#FC878B;" d="M42.8,60.5"/>
				</g>
			</g>
			<g style="clip-path:url(#SVGID_00000027570380828439640120000003072578706458849719_);">
				<g>
					<defs>
						<rect id="SVGID_00000141425552744372954280000007644346772376974993_" x="54.6" y="96" width="47.2" height="47.2"/>
					</defs>
					<clipPath id="SVGID_00000100360478982326544580000010558781865145098166_">
						<use xlink:href="#SVGID_00000141425552744372954280000007644346772376974993_"  style="overflow:visible;"/>
					</clipPath>
					<path style="clip-path:url(#SVGID_00000100360478982326544580000010558781865145098166_);fill:#FC878B;" d="M101.9,146.7
						c2,0,3.5-1.6,3.5-3.5c0-2-1.6-3.5-3.5-3.5c-2,0-3.5,1.6-3.5,3.5C98.3,145.2,99.9,146.7,101.9,146.7z"/>
					<path style="clip-path:url(#SVGID_00000100360478982326544580000010558781865145098166_);fill:#FC878B;" d="M78.3,146.7
						c2,0,3.5-1.6,3.5-3.5c0-2-1.6-3.5-3.5-3.5c-2,0-3.5,1.6-3.5,3.5C74.7,145.2,76.3,146.7,78.3,146.7z"/>
					<path style="clip-path:url(#SVGID_00000100360478982326544580000010558781865145098166_);fill:#FC878B;" d="M54.6,146.7
						c2,0,3.5-1.6,3.5-3.5c0-2-1.6-3.5-3.5-3.5c-2,0-3.5,1.6-3.5,3.5C51.1,145.2,52.7,146.7,54.6,146.7z"/>
					<path style="clip-path:url(#SVGID_00000100360478982326544580000010558781865145098166_);fill:#FC878B;" d="M101.9,123.1
						c2,0,3.5-1.6,3.5-3.5s-1.6-3.5-3.5-3.5c-2,0-3.5,1.6-3.5,3.5S99.9,123.1,101.9,123.1z"/>
					<path style="clip-path:url(#SVGID_00000100360478982326544580000010558781865145098166_);fill:#FC878B;" d="M78.3,123.1
						c2,0,3.5-1.6,3.5-3.5s-1.6-3.5-3.5-3.5c-2,0-3.5,1.6-3.5,3.5S76.3,123.1,78.3,123.1z"/>
					<path style="clip-path:url(#SVGID_00000100360478982326544580000010558781865145098166_);fill:#FC878B;" d="M54.6,123.1
						c2,0,3.5-1.6,3.5-3.5s-1.6-3.5-3.5-3.5c-2,0-3.5,1.6-3.5,3.5S52.7,123.1,54.6,123.1z"/>
					<path style="clip-path:url(#SVGID_00000100360478982326544580000010558781865145098166_);fill:#FC878B;" d="M101.9,99.5
						c2,0,3.5-1.6,3.5-3.5c0-2-1.6-3.5-3.5-3.5c-2,0-3.5,1.6-3.5,3.5C98.3,97.9,99.9,99.5,101.9,99.5z"/>
					<path style="clip-path:url(#SVGID_00000100360478982326544580000010558781865145098166_);fill:#FC878B;" d="M78.3,99.5
						c2,0,3.5-1.6,3.5-3.5c0-2-1.6-3.5-3.5-3.5c-2,0-3.5,1.6-3.5,3.5C74.7,97.9,76.3,99.5,78.3,99.5z"/>
					<path style="clip-path:url(#SVGID_00000100360478982326544580000010558781865145098166_);fill:#FC878B;" d="M54.6,99.5
						c2,0,3.5-1.6,3.5-3.5c0-2-1.6-3.5-3.5-3.5c-2,0-3.5,1.6-3.5,3.5C51.1,97.9,52.7,99.5,54.6,99.5z"/>
					<path style="clip-path:url(#SVGID_00000100360478982326544580000010558781865145098166_);fill:#FC878B;" d="M31,99.5
						c2,0,3.5-1.6,3.5-3.5c0-2-1.6-3.5-3.5-3.5c-2,0-3.5,1.6-3.5,3.5C27.5,97.9,29.1,99.5,31,99.5z"/>
					<path style="clip-path:url(#SVGID_00000100360478982326544580000010558781865145098166_);fill:#FC878B;" d="M31,96"/>
					<path style="clip-path:url(#SVGID_00000100360478982326544580000010558781865145098166_);fill:#FC878B;" d="M66.5,134.9
						c2,0,3.5-1.6,3.5-3.5c0-2-1.6-3.5-3.5-3.5c-2,0-3.5,1.6-3.5,3.5C62.9,133.4,64.5,134.9,66.5,134.9z"/>
					<path style="clip-path:url(#SVGID_00000100360478982326544580000010558781865145098166_);fill:#FC878B;" d="M90.1,134.9
						c2,0,3.5-1.6,3.5-3.5c0-2-1.6-3.5-3.5-3.5c-2,0-3.5,1.6-3.5,3.5C86.5,133.4,88.1,134.9,90.1,134.9z"/>
					
						<circle style="clip-path:url(#SVGID_00000100360478982326544580000010558781865145098166_);fill:#FC878B;" cx="66.5" cy="107.8" r="3.5"/>
					<path style="clip-path:url(#SVGID_00000100360478982326544580000010558781865145098166_);fill:#FC878B;" d="M90.1,111.3
						c2,0,3.5-1.6,3.5-3.5c0-2-1.6-3.5-3.5-3.5c-2,0-3.5,1.6-3.5,3.5C86.5,109.7,88.1,111.3,90.1,111.3z"/>
					
						<circle style="clip-path:url(#SVGID_00000100360478982326544580000010558781865145098166_);fill:#FC878B;" cx="42.8" cy="107.8" r="3.5"/>
					<path style="clip-path:url(#SVGID_00000100360478982326544580000010558781865145098166_);fill:#FC878B;" d="M42.8,107.8"/>
				</g>
			</g>
			<g style="clip-path:url(#SVGID_00000027570380828439640120000003072578706458849719_);">
				<g>
					<defs>
						<rect id="SVGID_00000168821156343812619810000004516367400903735972_" x="54.6" y="143.2" width="47.2" height="47.2"/>
					</defs>
					<clipPath id="SVGID_00000158750697747128086790000005536865030203491256_">
						<use xlink:href="#SVGID_00000168821156343812619810000004516367400903735972_"  style="overflow:visible;"/>
					</clipPath>
					<path style="clip-path:url(#SVGID_00000158750697747128086790000005536865030203491256_);fill:#FC878B;" d="M101.9,194
						c2,0,3.5-1.6,3.5-3.5c0-2-1.6-3.5-3.5-3.5c-2,0-3.5,1.6-3.5,3.5C98.3,192.4,99.9,194,101.9,194z"/>
					<path style="clip-path:url(#SVGID_00000158750697747128086790000005536865030203491256_);fill:#FC878B;" d="M78.3,194
						c2,0,3.5-1.6,3.5-3.5c0-2-1.6-3.5-3.5-3.5c-2,0-3.5,1.6-3.5,3.5C74.7,192.4,76.3,194,78.3,194z"/>
					<path style="clip-path:url(#SVGID_00000158750697747128086790000005536865030203491256_);fill:#FC878B;" d="M54.6,194
						c2,0,3.5-1.6,3.5-3.5c0-2-1.6-3.5-3.5-3.5c-2,0-3.5,1.6-3.5,3.5C51.1,192.4,52.7,194,54.6,194z"/>
					<path style="clip-path:url(#SVGID_00000158750697747128086790000005536865030203491256_);fill:#FC878B;" d="M101.9,170.4
						c2,0,3.5-1.6,3.5-3.5s-1.6-3.5-3.5-3.5c-2,0-3.5,1.6-3.5,3.5S99.9,170.4,101.9,170.4z"/>
					<path style="clip-path:url(#SVGID_00000158750697747128086790000005536865030203491256_);fill:#FC878B;" d="M78.3,170.4
						c2,0,3.5-1.6,3.5-3.5s-1.6-3.5-3.5-3.5c-2,0-3.5,1.6-3.5,3.5S76.3,170.4,78.3,170.4z"/>
					<path style="clip-path:url(#SVGID_00000158750697747128086790000005536865030203491256_);fill:#FC878B;" d="M54.6,170.4
						c2,0,3.5-1.6,3.5-3.5s-1.6-3.5-3.5-3.5c-2,0-3.5,1.6-3.5,3.5S52.7,170.4,54.6,170.4z"/>
					<path style="clip-path:url(#SVGID_00000158750697747128086790000005536865030203491256_);fill:#FC878B;" d="M101.9,146.7
						c2,0,3.5-1.6,3.5-3.5c0-2-1.6-3.5-3.5-3.5c-2,0-3.5,1.6-3.5,3.5C98.3,145.2,99.9,146.7,101.9,146.7z"/>
					<path style="clip-path:url(#SVGID_00000158750697747128086790000005536865030203491256_);fill:#FC878B;" d="M78.3,146.7
						c2,0,3.5-1.6,3.5-3.5c0-2-1.6-3.5-3.5-3.5c-2,0-3.5,1.6-3.5,3.5C74.7,145.2,76.3,146.7,78.3,146.7z"/>
					<path style="clip-path:url(#SVGID_00000158750697747128086790000005536865030203491256_);fill:#FC878B;" d="M54.6,146.7
						c2,0,3.5-1.6,3.5-3.5c0-2-1.6-3.5-3.5-3.5c-2,0-3.5,1.6-3.5,3.5C51.1,145.2,52.7,146.7,54.6,146.7z"/>
					<path style="clip-path:url(#SVGID_00000158750697747128086790000005536865030203491256_);fill:#FC878B;" d="M31,146.7
						c2,0,3.5-1.6,3.5-3.5c0-2-1.6-3.5-3.5-3.5c-2,0-3.5,1.6-3.5,3.5C27.5,145.2,29.1,146.7,31,146.7z"/>
					<path style="clip-path:url(#SVGID_00000158750697747128086790000005536865030203491256_);fill:#FC878B;" d="M31,143.2"/>
					<path style="clip-path:url(#SVGID_00000158750697747128086790000005536865030203491256_);fill:#FC878B;" d="M66.5,182.2
						c2,0,3.5-1.6,3.5-3.5c0-2-1.6-3.5-3.5-3.5c-2,0-3.5,1.6-3.5,3.5C62.9,180.6,64.5,182.2,66.5,182.2z"/>
					<path style="clip-path:url(#SVGID_00000158750697747128086790000005536865030203491256_);fill:#FC878B;" d="M90.1,182.2
						c2,0,3.5-1.6,3.5-3.5c0-2-1.6-3.5-3.5-3.5c-2,0-3.5,1.6-3.5,3.5C86.5,180.6,88.1,182.2,90.1,182.2z"/>
					
						<circle style="clip-path:url(#SVGID_00000158750697747128086790000005536865030203491256_);fill:#FC878B;" cx="66.5" cy="155" r="3.5"/>
					<path style="clip-path:url(#SVGID_00000158750697747128086790000005536865030203491256_);fill:#FC878B;" d="M90.1,158.6
						c2,0,3.5-1.6,3.5-3.5s-1.6-3.5-3.5-3.5c-2,0-3.5,1.6-3.5,3.5S88.1,158.6,90.1,158.6z"/>
					
						<circle style="clip-path:url(#SVGID_00000158750697747128086790000005536865030203491256_);fill:#FC878B;" cx="42.8" cy="155" r="3.5"/>
					<path style="clip-path:url(#SVGID_00000158750697747128086790000005536865030203491256_);fill:#FC878B;" d="M42.8,155"/>
				</g>
			</g>
			<g style="clip-path:url(#SVGID_00000027570380828439640120000003072578706458849719_);">
				<g>
					<defs>
						<rect id="SVGID_00000156561672028455606390000003727875365825202879_" x="54.6" y="190.4" width="47.2" height="47.2"/>
					</defs>
					<clipPath id="SVGID_00000042707479337143025880000001340508894388626830_">
						<use xlink:href="#SVGID_00000156561672028455606390000003727875365825202879_"  style="overflow:visible;"/>
					</clipPath>
					<path style="clip-path:url(#SVGID_00000042707479337143025880000001340508894388626830_);fill:#FC878B;" d="M101.9,241.2
						c2,0,3.5-1.6,3.5-3.5c0-2-1.6-3.5-3.5-3.5c-2,0-3.5,1.6-3.5,3.5C98.3,239.6,99.9,241.2,101.9,241.2z"/>
					<path style="clip-path:url(#SVGID_00000042707479337143025880000001340508894388626830_);fill:#FC878B;" d="M78.3,241.2
						c2,0,3.5-1.6,3.5-3.5c0-2-1.6-3.5-3.5-3.5c-2,0-3.5,1.6-3.5,3.5C74.7,239.6,76.3,241.2,78.3,241.2z"/>
					<path style="clip-path:url(#SVGID_00000042707479337143025880000001340508894388626830_);fill:#FC878B;" d="M54.6,241.2
						c2,0,3.5-1.6,3.5-3.5c0-2-1.6-3.5-3.5-3.5c-2,0-3.5,1.6-3.5,3.5C51.1,239.6,52.7,241.2,54.6,241.2z"/>
					<path style="clip-path:url(#SVGID_00000042707479337143025880000001340508894388626830_);fill:#FC878B;" d="M101.9,217.6
						c2,0,3.5-1.6,3.5-3.5c0-2-1.6-3.5-3.5-3.5c-2,0-3.5,1.6-3.5,3.5C98.3,216,99.9,217.6,101.9,217.6z"/>
					<path style="clip-path:url(#SVGID_00000042707479337143025880000001340508894388626830_);fill:#FC878B;" d="M78.3,217.6
						c2,0,3.5-1.6,3.5-3.5c0-2-1.6-3.5-3.5-3.5c-2,0-3.5,1.6-3.5,3.5C74.7,216,76.3,217.6,78.3,217.6z"/>
					<path style="clip-path:url(#SVGID_00000042707479337143025880000001340508894388626830_);fill:#FC878B;" d="M54.6,217.6
						c2,0,3.5-1.6,3.5-3.5c0-2-1.6-3.5-3.5-3.5c-2,0-3.5,1.6-3.5,3.5C51.1,216,52.7,217.6,54.6,217.6z"/>
					<path style="clip-path:url(#SVGID_00000042707479337143025880000001340508894388626830_);fill:#FC878B;" d="M101.9,194
						c2,0,3.5-1.6,3.5-3.5c0-2-1.6-3.5-3.5-3.5c-2,0-3.5,1.6-3.5,3.5C98.3,192.4,99.9,194,101.9,194z"/>
					<path style="clip-path:url(#SVGID_00000042707479337143025880000001340508894388626830_);fill:#FC878B;" d="M78.3,194
						c2,0,3.5-1.6,3.5-3.5c0-2-1.6-3.5-3.5-3.5c-2,0-3.5,1.6-3.5,3.5C74.7,192.4,76.3,194,78.3,194z"/>
					<path style="clip-path:url(#SVGID_00000042707479337143025880000001340508894388626830_);fill:#FC878B;" d="M54.6,194
						c2,0,3.5-1.6,3.5-3.5c0-2-1.6-3.5-3.5-3.5c-2,0-3.5,1.6-3.5,3.5C51.1,192.4,52.7,194,54.6,194z"/>
					<path style="clip-path:url(#SVGID_00000042707479337143025880000001340508894388626830_);fill:#FC878B;" d="M31,194
						c2,0,3.5-1.6,3.5-3.5c0-2-1.6-3.5-3.5-3.5c-2,0-3.5,1.6-3.5,3.5C27.5,192.4,29.1,194,31,194z"/>
					<path style="clip-path:url(#SVGID_00000042707479337143025880000001340508894388626830_);fill:#FC878B;" d="M31,190.4"/>
					<path style="clip-path:url(#SVGID_00000042707479337143025880000001340508894388626830_);fill:#FC878B;" d="M66.5,229.4
						c2,0,3.5-1.6,3.5-3.5c0-2-1.6-3.5-3.5-3.5c-2,0-3.5,1.6-3.5,3.5C62.9,227.8,64.5,229.4,66.5,229.4z"/>
					<path style="clip-path:url(#SVGID_00000042707479337143025880000001340508894388626830_);fill:#FC878B;" d="M90.1,229.4
						c2,0,3.5-1.6,3.5-3.5c0-2-1.6-3.5-3.5-3.5c-2,0-3.5,1.6-3.5,3.5C86.5,227.8,88.1,229.4,90.1,229.4z"/>
					
						<circle style="clip-path:url(#SVGID_00000042707479337143025880000001340508894388626830_);fill:#FC878B;" cx="66.5" cy="202.3" r="3.5"/>
					<path style="clip-path:url(#SVGID_00000042707479337143025880000001340508894388626830_);fill:#FC878B;" d="M90.1,205.8
						c2,0,3.5-1.6,3.5-3.5c0-2-1.6-3.5-3.5-3.5c-2,0-3.5,1.6-3.5,3.5C86.5,204.2,88.1,205.8,90.1,205.8z"/>
					
						<circle style="clip-path:url(#SVGID_00000042707479337143025880000001340508894388626830_);fill:#FC878B;" cx="42.8" cy="202.3" r="3.5"/>
					<path style="clip-path:url(#SVGID_00000042707479337143025880000001340508894388626830_);fill:#FC878B;" d="M42.8,202.3"/>
				</g>
			</g>
			<g style="clip-path:url(#SVGID_00000027570380828439640120000003072578706458849719_);">
				<g>
					<defs>
						<rect id="SVGID_00000083782344833666967010000013968742871415957652_" x="7.4" y="48.7" width="47.2" height="47.2"/>
					</defs>
					<clipPath id="SVGID_00000119813638222702229820000012606820170641760152_">
						<use xlink:href="#SVGID_00000083782344833666967010000013968742871415957652_"  style="overflow:visible;"/>
					</clipPath>
					<path style="clip-path:url(#SVGID_00000119813638222702229820000012606820170641760152_);fill:#FC878B;" d="M54.6,99.5
						c2,0,3.5-1.6,3.5-3.5c0-2-1.6-3.5-3.5-3.5c-2,0-3.5,1.6-3.5,3.5C51.1,97.9,52.7,99.5,54.6,99.5z"/>
					<path style="clip-path:url(#SVGID_00000119813638222702229820000012606820170641760152_);fill:#FC878B;" d="M31,99.5
						c2,0,3.5-1.6,3.5-3.5c0-2-1.6-3.5-3.5-3.5c-2,0-3.5,1.6-3.5,3.5C27.5,97.9,29.1,99.5,31,99.5z"/>
					<path style="clip-path:url(#SVGID_00000119813638222702229820000012606820170641760152_);fill:#FC878B;" d="M7.4,99.5
						c2,0,3.5-1.6,3.5-3.5c0-2-1.6-3.5-3.5-3.5c-2,0-3.5,1.6-3.5,3.5C3.9,97.9,5.5,99.5,7.4,99.5z"/>
					<path style="clip-path:url(#SVGID_00000119813638222702229820000012606820170641760152_);fill:#FC878B;" d="M54.6,75.9
						c2,0,3.5-1.6,3.5-3.5c0-2-1.6-3.5-3.5-3.5c-2,0-3.5,1.6-3.5,3.5C51.1,74.3,52.7,75.9,54.6,75.9z"/>
					<path style="clip-path:url(#SVGID_00000119813638222702229820000012606820170641760152_);fill:#FC878B;" d="M31,75.9
						c2,0,3.5-1.6,3.5-3.5c0-2-1.6-3.5-3.5-3.5c-2,0-3.5,1.6-3.5,3.5C27.5,74.3,29.1,75.9,31,75.9z"/>
					<path style="clip-path:url(#SVGID_00000119813638222702229820000012606820170641760152_);fill:#FC878B;" d="M7.4,75.9
						c2,0,3.5-1.6,3.5-3.5c0-2-1.6-3.5-3.5-3.5c-2,0-3.5,1.6-3.5,3.5C3.9,74.3,5.5,75.9,7.4,75.9z"/>
					<path style="clip-path:url(#SVGID_00000119813638222702229820000012606820170641760152_);fill:#FC878B;" d="M54.6,52.3
						c2,0,3.5-1.6,3.5-3.5c0-2-1.6-3.5-3.5-3.5c-2,0-3.5,1.6-3.5,3.5C51.1,50.7,52.7,52.3,54.6,52.3z"/>
					<path style="clip-path:url(#SVGID_00000119813638222702229820000012606820170641760152_);fill:#FC878B;" d="M31,52.3
						c2,0,3.5-1.6,3.5-3.5c0-2-1.6-3.5-3.5-3.5c-2,0-3.5,1.6-3.5,3.5C27.5,50.7,29.1,52.3,31,52.3z"/>
					<path style="clip-path:url(#SVGID_00000119813638222702229820000012606820170641760152_);fill:#FC878B;" d="M7.4,52.3
						c2,0,3.5-1.6,3.5-3.5c0-2-1.6-3.5-3.5-3.5c-2,0-3.5,1.6-3.5,3.5C3.9,50.7,5.5,52.3,7.4,52.3z"/>
					<path style="clip-path:url(#SVGID_00000119813638222702229820000012606820170641760152_);fill:#FC878B;" d="M-16.2,52.3
						c2,0,3.5-1.6,3.5-3.5c0-2-1.6-3.5-3.5-3.5c-2,0-3.5,1.6-3.5,3.5C-19.8,50.7-18.2,52.3-16.2,52.3z"/>
					<path style="clip-path:url(#SVGID_00000119813638222702229820000012606820170641760152_);fill:#FC878B;" d="M-16.2,48.7"/>
					<path style="clip-path:url(#SVGID_00000119813638222702229820000012606820170641760152_);fill:#FC878B;" d="M19.2,87.7
						c2,0,3.5-1.6,3.5-3.5c0-2-1.6-3.5-3.5-3.5c-2,0-3.5,1.6-3.5,3.5C15.7,86.1,17.3,87.7,19.2,87.7z"/>
					<path style="clip-path:url(#SVGID_00000119813638222702229820000012606820170641760152_);fill:#FC878B;" d="M42.8,87.7
						c2,0,3.5-1.6,3.5-3.5c0-2-1.6-3.5-3.5-3.5c-2,0-3.5,1.6-3.5,3.5C39.3,86.1,40.9,87.7,42.8,87.7z"/>
					
						<circle style="clip-path:url(#SVGID_00000119813638222702229820000012606820170641760152_);fill:#FC878B;" cx="19.2" cy="60.5" r="3.5"/>
					<path style="clip-path:url(#SVGID_00000119813638222702229820000012606820170641760152_);fill:#FC878B;" d="M42.8,64.1
						c2,0,3.5-1.6,3.5-3.5c0-2-1.6-3.5-3.5-3.5c-2,0-3.5,1.6-3.5,3.5C39.3,62.5,40.9,64.1,42.8,64.1z"/>
					
						<circle style="clip-path:url(#SVGID_00000119813638222702229820000012606820170641760152_);fill:#FC878B;" cx="-4.4" cy="60.5" r="3.5"/>
					<path style="clip-path:url(#SVGID_00000119813638222702229820000012606820170641760152_);fill:#FC878B;" d="M-4.4,60.5"/>
				</g>
			</g>
			<g style="clip-path:url(#SVGID_00000027570380828439640120000003072578706458849719_);">
				<g>
					<defs>
						<rect id="SVGID_00000008831600859585448440000002948631985903763111_" x="7.4" y="96" width="47.2" height="47.2"/>
					</defs>
					<clipPath id="SVGID_00000150091732293470541580000007740782257409793953_">
						<use xlink:href="#SVGID_00000008831600859585448440000002948631985903763111_"  style="overflow:visible;"/>
					</clipPath>
					<path style="clip-path:url(#SVGID_00000150091732293470541580000007740782257409793953_);fill:#FC878B;" d="M54.6,146.7
						c2,0,3.5-1.6,3.5-3.5c0-2-1.6-3.5-3.5-3.5c-2,0-3.5,1.6-3.5,3.5C51.1,145.2,52.7,146.7,54.6,146.7z"/>
					<path style="clip-path:url(#SVGID_00000150091732293470541580000007740782257409793953_);fill:#FC878B;" d="M31,146.7
						c2,0,3.5-1.6,3.5-3.5c0-2-1.6-3.5-3.5-3.5c-2,0-3.5,1.6-3.5,3.5C27.5,145.2,29.1,146.7,31,146.7z"/>
					<path style="clip-path:url(#SVGID_00000150091732293470541580000007740782257409793953_);fill:#FC878B;" d="M7.4,146.7
						c2,0,3.5-1.6,3.5-3.5c0-2-1.6-3.5-3.5-3.5c-2,0-3.5,1.6-3.5,3.5C3.9,145.2,5.5,146.7,7.4,146.7z"/>
					<path style="clip-path:url(#SVGID_00000150091732293470541580000007740782257409793953_);fill:#FC878B;" d="M54.6,123.1
						c2,0,3.5-1.6,3.5-3.5s-1.6-3.5-3.5-3.5c-2,0-3.5,1.6-3.5,3.5S52.7,123.1,54.6,123.1z"/>
					<path style="clip-path:url(#SVGID_00000150091732293470541580000007740782257409793953_);fill:#FC878B;" d="M31,123.1
						c2,0,3.5-1.6,3.5-3.5S33,116,31,116c-2,0-3.5,1.6-3.5,3.5S29.1,123.1,31,123.1z"/>
					<path style="clip-path:url(#SVGID_00000150091732293470541580000007740782257409793953_);fill:#FC878B;" d="M7.4,123.1
						c2,0,3.5-1.6,3.5-3.5S9.4,116,7.4,116c-2,0-3.5,1.6-3.5,3.5S5.5,123.1,7.4,123.1z"/>
					<path style="clip-path:url(#SVGID_00000150091732293470541580000007740782257409793953_);fill:#FC878B;" d="M54.6,99.5
						c2,0,3.5-1.6,3.5-3.5c0-2-1.6-3.5-3.5-3.5c-2,0-3.5,1.6-3.5,3.5C51.1,97.9,52.7,99.5,54.6,99.5z"/>
					<path style="clip-path:url(#SVGID_00000150091732293470541580000007740782257409793953_);fill:#FC878B;" d="M31,99.5
						c2,0,3.5-1.6,3.5-3.5c0-2-1.6-3.5-3.5-3.5c-2,0-3.5,1.6-3.5,3.5C27.5,97.9,29.1,99.5,31,99.5z"/>
					<path style="clip-path:url(#SVGID_00000150091732293470541580000007740782257409793953_);fill:#FC878B;" d="M7.4,99.5
						c2,0,3.5-1.6,3.5-3.5c0-2-1.6-3.5-3.5-3.5c-2,0-3.5,1.6-3.5,3.5C3.9,97.9,5.5,99.5,7.4,99.5z"/>
					<path style="clip-path:url(#SVGID_00000150091732293470541580000007740782257409793953_);fill:#FC878B;" d="M-16.2,99.5
						c2,0,3.5-1.6,3.5-3.5c0-2-1.6-3.5-3.5-3.5c-2,0-3.5,1.6-3.5,3.5C-19.8,97.9-18.2,99.5-16.2,99.5z"/>
					<path style="clip-path:url(#SVGID_00000150091732293470541580000007740782257409793953_);fill:#FC878B;" d="M-16.2,96"/>
					<path style="clip-path:url(#SVGID_00000150091732293470541580000007740782257409793953_);fill:#FC878B;" d="M19.2,134.9
						c2,0,3.5-1.6,3.5-3.5c0-2-1.6-3.5-3.5-3.5c-2,0-3.5,1.6-3.5,3.5C15.7,133.4,17.3,134.9,19.2,134.9z"/>
					<path style="clip-path:url(#SVGID_00000150091732293470541580000007740782257409793953_);fill:#FC878B;" d="M42.8,134.9
						c2,0,3.5-1.6,3.5-3.5c0-2-1.6-3.5-3.5-3.5c-2,0-3.5,1.6-3.5,3.5C39.3,133.4,40.9,134.9,42.8,134.9z"/>
					
						<circle style="clip-path:url(#SVGID_00000150091732293470541580000007740782257409793953_);fill:#FC878B;" cx="19.2" cy="107.8" r="3.5"/>
					<path style="clip-path:url(#SVGID_00000150091732293470541580000007740782257409793953_);fill:#FC878B;" d="M42.8,111.3
						c2,0,3.5-1.6,3.5-3.5c0-2-1.6-3.5-3.5-3.5c-2,0-3.5,1.6-3.5,3.5C39.3,109.7,40.9,111.3,42.8,111.3z"/>
					
						<circle style="clip-path:url(#SVGID_00000150091732293470541580000007740782257409793953_);fill:#FC878B;" cx="-4.4" cy="107.8" r="3.5"/>
					<path style="clip-path:url(#SVGID_00000150091732293470541580000007740782257409793953_);fill:#FC878B;" d="M-4.4,107.8"/>
				</g>
			</g>
			<g style="clip-path:url(#SVGID_00000027570380828439640120000003072578706458849719_);">
				<g>
					<defs>
						<rect id="SVGID_00000018227541397964144060000000739637405766275460_" x="7.4" y="143.2" width="47.2" height="47.2"/>
					</defs>
					<clipPath id="SVGID_00000078745236362162655870000004944697584157036198_">
						<use xlink:href="#SVGID_00000018227541397964144060000000739637405766275460_"  style="overflow:visible;"/>
					</clipPath>
					<path style="clip-path:url(#SVGID_00000078745236362162655870000004944697584157036198_);fill:#FC878B;" d="M54.6,194
						c2,0,3.5-1.6,3.5-3.5c0-2-1.6-3.5-3.5-3.5c-2,0-3.5,1.6-3.5,3.5C51.1,192.4,52.7,194,54.6,194z"/>
					<path style="clip-path:url(#SVGID_00000078745236362162655870000004944697584157036198_);fill:#FC878B;" d="M31,194
						c2,0,3.5-1.6,3.5-3.5c0-2-1.6-3.5-3.5-3.5c-2,0-3.5,1.6-3.5,3.5C27.5,192.4,29.1,194,31,194z"/>
					<path style="clip-path:url(#SVGID_00000078745236362162655870000004944697584157036198_);fill:#FC878B;" d="M7.4,194
						c2,0,3.5-1.6,3.5-3.5c0-2-1.6-3.5-3.5-3.5c-2,0-3.5,1.6-3.5,3.5C3.9,192.4,5.5,194,7.4,194z"/>
					<path style="clip-path:url(#SVGID_00000078745236362162655870000004944697584157036198_);fill:#FC878B;" d="M54.6,170.4
						c2,0,3.5-1.6,3.5-3.5s-1.6-3.5-3.5-3.5c-2,0-3.5,1.6-3.5,3.5S52.7,170.4,54.6,170.4z"/>
					<path style="clip-path:url(#SVGID_00000078745236362162655870000004944697584157036198_);fill:#FC878B;" d="M31,170.4
						c2,0,3.5-1.6,3.5-3.5s-1.6-3.5-3.5-3.5c-2,0-3.5,1.6-3.5,3.5S29.1,170.4,31,170.4z"/>
					<path style="clip-path:url(#SVGID_00000078745236362162655870000004944697584157036198_);fill:#FC878B;" d="M7.4,170.4
						c2,0,3.5-1.6,3.5-3.5s-1.6-3.5-3.5-3.5c-2,0-3.5,1.6-3.5,3.5S5.5,170.4,7.4,170.4z"/>
					<path style="clip-path:url(#SVGID_00000078745236362162655870000004944697584157036198_);fill:#FC878B;" d="M54.6,146.7
						c2,0,3.5-1.6,3.5-3.5c0-2-1.6-3.5-3.5-3.5c-2,0-3.5,1.6-3.5,3.5C51.1,145.2,52.7,146.7,54.6,146.7z"/>
					<path style="clip-path:url(#SVGID_00000078745236362162655870000004944697584157036198_);fill:#FC878B;" d="M31,146.7
						c2,0,3.5-1.6,3.5-3.5c0-2-1.6-3.5-3.5-3.5c-2,0-3.5,1.6-3.5,3.5C27.5,145.2,29.1,146.7,31,146.7z"/>
					<path style="clip-path:url(#SVGID_00000078745236362162655870000004944697584157036198_);fill:#FC878B;" d="M7.4,146.7
						c2,0,3.5-1.6,3.5-3.5c0-2-1.6-3.5-3.5-3.5c-2,0-3.5,1.6-3.5,3.5C3.9,145.2,5.5,146.7,7.4,146.7z"/>
					<path style="clip-path:url(#SVGID_00000078745236362162655870000004944697584157036198_);fill:#FC878B;" d="M-16.2,146.7
						c2,0,3.5-1.6,3.5-3.5c0-2-1.6-3.5-3.5-3.5c-2,0-3.5,1.6-3.5,3.5C-19.8,145.2-18.2,146.7-16.2,146.7z"/>
					<path style="clip-path:url(#SVGID_00000078745236362162655870000004944697584157036198_);fill:#FC878B;" d="M-16.2,143.2"/>
					<path style="clip-path:url(#SVGID_00000078745236362162655870000004944697584157036198_);fill:#FC878B;" d="M19.2,182.2
						c2,0,3.5-1.6,3.5-3.5c0-2-1.6-3.5-3.5-3.5c-2,0-3.5,1.6-3.5,3.5C15.7,180.6,17.3,182.2,19.2,182.2z"/>
					<path style="clip-path:url(#SVGID_00000078745236362162655870000004944697584157036198_);fill:#FC878B;" d="M42.8,182.2
						c2,0,3.5-1.6,3.5-3.5c0-2-1.6-3.5-3.5-3.5c-2,0-3.5,1.6-3.5,3.5C39.3,180.6,40.9,182.2,42.8,182.2z"/>
					
						<circle style="clip-path:url(#SVGID_00000078745236362162655870000004944697584157036198_);fill:#FC878B;" cx="19.2" cy="155" r="3.5"/>
					<path style="clip-path:url(#SVGID_00000078745236362162655870000004944697584157036198_);fill:#FC878B;" d="M42.8,158.6
						c2,0,3.5-1.6,3.5-3.5s-1.6-3.5-3.5-3.5c-2,0-3.5,1.6-3.5,3.5S40.9,158.6,42.8,158.6z"/>
					
						<circle style="clip-path:url(#SVGID_00000078745236362162655870000004944697584157036198_);fill:#FC878B;" cx="-4.4" cy="155" r="3.5"/>
					<path style="clip-path:url(#SVGID_00000078745236362162655870000004944697584157036198_);fill:#FC878B;" d="M-4.4,155"/>
				</g>
			</g>
			<g style="clip-path:url(#SVGID_00000027570380828439640120000003072578706458849719_);">
				<g>
					<defs>
						<rect id="SVGID_00000062898179511506009630000005367391180932634241_" x="7.4" y="190.4" width="47.2" height="47.2"/>
					</defs>
					<clipPath id="SVGID_00000046332525091703651120000001274291241416523673_">
						<use xlink:href="#SVGID_00000062898179511506009630000005367391180932634241_"  style="overflow:visible;"/>
					</clipPath>
					<path style="clip-path:url(#SVGID_00000046332525091703651120000001274291241416523673_);fill:#FC878B;" d="M54.6,241.2
						c2,0,3.5-1.6,3.5-3.5c0-2-1.6-3.5-3.5-3.5c-2,0-3.5,1.6-3.5,3.5C51.1,239.6,52.7,241.2,54.6,241.2z"/>
					<path style="clip-path:url(#SVGID_00000046332525091703651120000001274291241416523673_);fill:#FC878B;" d="M31,241.2
						c2,0,3.5-1.6,3.5-3.5c0-2-1.6-3.5-3.5-3.5c-2,0-3.5,1.6-3.5,3.5C27.5,239.6,29.1,241.2,31,241.2z"/>
					<path style="clip-path:url(#SVGID_00000046332525091703651120000001274291241416523673_);fill:#FC878B;" d="M7.4,241.2
						c2,0,3.5-1.6,3.5-3.5c0-2-1.6-3.5-3.5-3.5c-2,0-3.5,1.6-3.5,3.5C3.9,239.6,5.5,241.2,7.4,241.2z"/>
					<path style="clip-path:url(#SVGID_00000046332525091703651120000001274291241416523673_);fill:#FC878B;" d="M54.6,217.6
						c2,0,3.5-1.6,3.5-3.5c0-2-1.6-3.5-3.5-3.5c-2,0-3.5,1.6-3.5,3.5C51.1,216,52.7,217.6,54.6,217.6z"/>
					<path style="clip-path:url(#SVGID_00000046332525091703651120000001274291241416523673_);fill:#FC878B;" d="M31,217.6
						c2,0,3.5-1.6,3.5-3.5c0-2-1.6-3.5-3.5-3.5c-2,0-3.5,1.6-3.5,3.5C27.5,216,29.1,217.6,31,217.6z"/>
					<path style="clip-path:url(#SVGID_00000046332525091703651120000001274291241416523673_);fill:#FC878B;" d="M7.4,217.6
						c2,0,3.5-1.6,3.5-3.5c0-2-1.6-3.5-3.5-3.5c-2,0-3.5,1.6-3.5,3.5C3.9,216,5.5,217.6,7.4,217.6z"/>
					<path style="clip-path:url(#SVGID_00000046332525091703651120000001274291241416523673_);fill:#FC878B;" d="M54.6,194
						c2,0,3.5-1.6,3.5-3.5c0-2-1.6-3.5-3.5-3.5c-2,0-3.5,1.6-3.5,3.5C51.1,192.4,52.7,194,54.6,194z"/>
					<path style="clip-path:url(#SVGID_00000046332525091703651120000001274291241416523673_);fill:#FC878B;" d="M31,194
						c2,0,3.5-1.6,3.5-3.5c0-2-1.6-3.5-3.5-3.5c-2,0-3.5,1.6-3.5,3.5C27.5,192.4,29.1,194,31,194z"/>
					<path style="clip-path:url(#SVGID_00000046332525091703651120000001274291241416523673_);fill:#FC878B;" d="M7.4,194
						c2,0,3.5-1.6,3.5-3.5c0-2-1.6-3.5-3.5-3.5c-2,0-3.5,1.6-3.5,3.5C3.9,192.4,5.5,194,7.4,194z"/>
					<path style="clip-path:url(#SVGID_00000046332525091703651120000001274291241416523673_);fill:#FC878B;" d="M-16.2,194
						c2,0,3.5-1.6,3.5-3.5c0-2-1.6-3.5-3.5-3.5c-2,0-3.5,1.6-3.5,3.5C-19.8,192.4-18.2,194-16.2,194z"/>
					<path style="clip-path:url(#SVGID_00000046332525091703651120000001274291241416523673_);fill:#FC878B;" d="M-16.2,190.4"/>
					<path style="clip-path:url(#SVGID_00000046332525091703651120000001274291241416523673_);fill:#FC878B;" d="M19.2,229.4
						c2,0,3.5-1.6,3.5-3.5c0-2-1.6-3.5-3.5-3.5c-2,0-3.5,1.6-3.5,3.5C15.7,227.8,17.3,229.4,19.2,229.4z"/>
					<path style="clip-path:url(#SVGID_00000046332525091703651120000001274291241416523673_);fill:#FC878B;" d="M42.8,229.4
						c2,0,3.5-1.6,3.5-3.5c0-2-1.6-3.5-3.5-3.5c-2,0-3.5,1.6-3.5,3.5C39.3,227.8,40.9,229.4,42.8,229.4z"/>
					
						<circle style="clip-path:url(#SVGID_00000046332525091703651120000001274291241416523673_);fill:#FC878B;" cx="19.2" cy="202.3" r="3.5"/>
					<path style="clip-path:url(#SVGID_00000046332525091703651120000001274291241416523673_);fill:#FC878B;" d="M42.8,205.8
						c2,0,3.5-1.6,3.5-3.5c0-2-1.6-3.5-3.5-3.5c-2,0-3.5,1.6-3.5,3.5C39.3,204.2,40.9,205.8,42.8,205.8z"/>
					
						<circle style="clip-path:url(#SVGID_00000046332525091703651120000001274291241416523673_);fill:#FC878B;" cx="-4.4" cy="202.3" r="3.5"/>
					<path style="clip-path:url(#SVGID_00000046332525091703651120000001274291241416523673_);fill:#FC878B;" d="M-4.4,202.3"/>
				</g>
			</g>
		</g>
	</g>
	<g style="clip-path:url(#SVGID_00000040536375636787245830000002398808132683564457_);">
		<g>
			<path class="st18" d="M130.4,67c0,0,0.5-10-1.3-14.9c-1.7-4.5-4.1-10.3-11.1-13.9c-0.5-0.3-15.2-5.7-27.8,3.1
				c-4.5,3.2-14-0.4-10.9,16.2c0,0,4.9,26.6,10.7,28.9l31.9,3.7c0.6,0.1,1-0.4,1.5-0.9C128.8,84.8,130.4,67,130.4,67z"/>
			<path class="st19" d="M122.2,105.4c0.3-0.1,0.5-0.8,0.2-0.9c-2-0.4-8.2-6.3-9.2-13.4l0.2-8.5c0,0,7.5,0.6,8.3-6.8
				c0,0,2.3-10.2-6.2-6.3l-1.3,0.3c-2.5-5.2-5.2-9.4-7.9-12.8c-4.1-5-8.2-8.1-12-9c0,0-8.6-1.8-11.7,8.1c-0.6,1.8-0.8,3.7-0.7,5.6
				c0.1,2.5-0.6,6.3-1,11.2c0,0-2.7,10.5,7.1,19.4c0,0,1.1,1.3,3.6,1.2c0,0,0.1-2.9,0,0c-0.2,9.7-13.1,10.9-13.1,10.9l1,102.6
				l20.7-0.7l0.2-49.7L122.2,105.4L122.2,105.4z"/>
			<path class="st20" d="M114.8,77.8c-0.1,0-0.1,0-0.2,0c-0.5-0.1-0.8-0.6-0.7-1.1c1-5.3,4.2-5.2,4.3-5.2l0,0c0.7,0.4,0.7,1.4,0,1.8
				l-0.1,0.1c-0.1,0-1.8,0.1-2.5,3.7C115.7,77.5,115.3,77.8,114.8,77.8z"/>
			<path class="st20" d="M114.8,77.9C114.7,77.9,114.7,77.9,114.8,77.9c-0.6-0.1-0.9-0.7-0.8-1.2c1-5.4,4.3-5.3,4.4-5.3c0,0,0,0,0,0
				c0.3,0.2,0.6,0.5,0.6,0.9c0,0.4-0.2,0.8-0.5,1l-0.1,0.1c0,0,0,0,0,0c-0.1,0-1.7,0.1-2.4,3.7C115.7,77.6,115.3,77.9,114.8,77.9
				L114.8,77.9C114.8,77.9,114.8,77.9,114.8,77.9z M118.3,71.6c-0.3,0-3.2,0.1-4.2,5.1c-0.1,0.5,0.2,0.9,0.6,1c0,0,0.1,0,0.1,0
				c0.4,0,0.8-0.3,0.9-0.7c0.7-3.6,2.3-3.8,2.5-3.8l0.1-0.1c0.3-0.2,0.5-0.5,0.4-0.8C118.7,72,118.6,71.7,118.3,71.6z"/>
			<path class="st20" d="M115.4,83c-0.7,0-1.3-0.2-1.9-0.6c-0.4-0.3-0.6-0.9-0.3-1.4c0.3-0.4,0.9-0.6,1.3-0.3c1.4,1,3.4-0.7,3.6-1
				c4.5-5.8,2.2-8.7,2-9c-0.9-0.7-1.7-1-2.5-0.9c-1.2,0.1-2,1.2-2.1,1.2c-0.3,0.4-0.9,0.5-1.4,0.2c-0.4-0.3-0.5-0.9-0.2-1.4
				c0.1-0.1,1.3-1.7,3.4-2c1.4-0.2,2.7,0.3,4.1,1.4c0,0,0,0,0.1,0c0.2,0.2,4.1,4.1-1.8,11.7c0,0-0.1,0.1-0.1,0.1
				c0,0-0.8,0.8-1.9,1.3C117,82.8,116.2,83,115.4,83z"/>
			<path class="st20" d="M115.2,83c-0.6-0.1-1.1-0.3-1.6-0.6c-0.5-0.3-0.6-1-0.3-1.5c0.2-0.2,0.4-0.4,0.7-0.4c0.3-0.1,0.6,0,0.8,0.2
				c1.4,0.9,3.3-0.8,3.6-1c4.5-5.8,2.2-8.6,1.9-8.9c-0.9-0.7-1.7-1-2.5-0.9c-1.2,0.1-2,1.2-2,1.2c-0.2,0.2-0.4,0.4-0.7,0.4
				c-0.3,0-0.5,0-0.8-0.2c-0.5-0.3-0.6-1-0.2-1.5c0.1-0.1,1.3-1.8,3.4-2c1.4-0.2,2.8,0.3,4.1,1.4c0,0,0,0,0.1,0.1
				c0.2,0.2,4.1,4.2-1.8,11.8c0,0-0.1,0.1-0.1,0.1c0,0-0.8,0.8-1.9,1.3c-0.8,0.4-1.7,0.6-2.4,0.6l0,0C115.3,83,115.2,83,115.2,83z
				 M114.2,80.6c-0.1,0-0.2,0-0.3,0c-0.2,0-0.4,0.2-0.6,0.4c-0.3,0.4-0.2,1,0.2,1.2c0.6,0.4,1.2,0.6,1.8,0.6l0,0
				c0.7,0,1.5-0.2,2.4-0.6c1.1-0.5,1.8-1.3,1.8-1.3c0,0,0.1-0.1,0.1-0.1c5.8-7.5,2-11.4,1.8-11.6c0,0,0,0,0,0
				c-1.3-1.1-2.6-1.6-4-1.4c-2,0.3-3.3,1.9-3.3,2c-0.3,0.4-0.2,1,0.2,1.2c0.2,0.1,0.4,0.2,0.7,0.2c0.2,0,0.4-0.2,0.6-0.3
				c0,0,0.8-1.1,2.1-1.3c0.8-0.1,1.7,0.2,2.6,1c0.3,0.3,2.6,3.2-1.9,9.1c-0.4,0.4-2.3,2-3.8,1C114.5,80.7,114.4,80.7,114.2,80.6z"/>
			<path class="st19" d="M115.8,81.1c0,0-4.8,7.2-0.8,7.7C115,88.9,119.1,89.6,115.8,81.1z"/>
			<path class="st20" d="M114.7,89.9c-1.2-0.2-1.8-0.9-2.1-1.5c-1.1-2.5,1.7-7,2.3-7.8c0.2-0.3,0.6-0.5,1-0.5c0.4,0,0.7,0.3,0.9,0.7
				c1.6,4.1,1.8,6.8,0.6,8.2c-0.8,0.9-1.9,1-2.5,0.9C114.8,89.9,114.7,89.9,114.7,89.9z M115.5,83.6c-0.8,1.5-1.3,3.2-1,3.9
				c0,0.1,0.1,0.3,0.6,0.3c0,0,0,0,0.1,0c0,0,0.3,0,0.5-0.2C115.9,87.4,116.4,86.5,115.5,83.6z"/>
			<path class="st20" d="M90.1,93.7c-0.7-0.1-1.5-0.4-2.1-0.9c-10.3-7.4-8.2-21.2-8.1-21.7c0.1-0.6,0.6-1,1.2-0.9
				c0.6,0.1,1,0.6,0.9,1.2l0,0c0,0.1-1.9,13,7.3,19.7c0.4,0.3,0.9,0.5,1.5,0.6c2,0.2,7.4,0,15.1-6.1c0.4-0.4,1.1-0.3,1.5,0.2
				c0.4,0.4,0.3,1.1-0.2,1.5c-8,6.4-13.8,6.9-16.6,6.6C90.3,93.7,90.2,93.7,90.1,93.7z"/>
			<path class="st20" d="M81.1,53c0,0-0.1,0-0.1,0c-0.5-0.2-0.8-0.8-0.7-1.3c0.7-2.3,2.1-3.9,4-4.8c4-1.9,9-0.2,9.2-0.1
				c0.5,0.2,0.8,0.8,0.6,1.3c-0.2,0.5-0.8,0.8-1.3,0.6l0,0c0,0-4.4-1.5-7.6,0c-1.4,0.7-2.4,1.9-2.9,3.6C82.1,52.8,81.6,53,81.1,53z"
				/>
			<path class="st20" d="M117.5,64.4c-0.4-0.1-0.8-0.4-0.9-0.9c-1.2-9.3-6.3-14.4-6.3-14.5c-0.4-0.4-0.4-1.1,0-1.5
				c0.4-0.4,1.1-0.4,1.5,0c0.2,0.2,5.7,5.7,7,15.7c0.1,0.6-0.3,1.1-0.9,1.2C117.7,64.5,117.6,64.4,117.5,64.4z"/>
		</g>
		<g>
			<path class="st18" d="M104.9,123.3c-15.9,0-25.7-2.2-26.2-2.3c-0.8-0.2-1.3-1-1.1-1.8c0.2-0.8,1-1.3,1.8-1.1
				c0.1,0,13.6,3.1,34,2.1c0.9,0,1.6,0.6,1.6,1.5c0,0.8-0.6,1.6-1.5,1.6C110.5,123.2,107.6,123.3,104.9,123.3z"/>
			<path class="st18" d="M104.9,130.1c-15.9,0-25.7-2.2-26.2-2.3c-0.8-0.2-1.3-1-1.1-1.8c0.2-0.8,1-1.3,1.8-1.1
				c0.1,0,13.6,3.1,34,2.1c0.9,0,1.6,0.6,1.6,1.5c0,0.8-0.6,1.6-1.5,1.6C110.5,130,107.6,130.1,104.9,130.1z"/>
			<path class="st18" d="M104.9,136.8c-15.9,0-25.7-2.2-26.2-2.3c-0.8-0.2-1.3-1-1.1-1.8c0.2-0.8,1-1.3,1.8-1.1
				c0.1,0,13.6,3.1,34,2.1c0.9,0,1.6,0.6,1.6,1.5c0,0.8-0.6,1.6-1.5,1.6C110.5,136.8,107.6,136.8,104.9,136.8z"/>
			<path class="st18" d="M104.9,143.6c-15.9,0-25.7-2.2-26.2-2.3c-0.8-0.2-1.3-1-1.1-1.8c0.2-0.8,1-1.3,1.8-1.1
				c0.1,0,13.6,3.1,34,2.1c0.9-0.1,1.6,0.6,1.6,1.5c0,0.8-0.6,1.6-1.5,1.6C110.5,143.6,107.6,143.6,104.9,143.6z"/>
			<path class="st18" d="M104.9,150.4c-15.9,0-25.7-2.2-26.2-2.3c-0.8-0.2-1.3-1-1.1-1.8c0.2-0.8,1-1.3,1.8-1.1
				c0.1,0,13.6,3.1,34,2.1c0.9-0.1,1.6,0.6,1.6,1.5c0,0.8-0.6,1.6-1.5,1.6C110.5,150.3,107.6,150.4,104.9,150.4z"/>
			<path class="st18" d="M104.9,157.2c-15.9,0-25.7-2.2-26.2-2.3c-0.8-0.2-1.3-1-1.1-1.8c0.2-0.8,1-1.3,1.8-1.1
				c0.1,0,13.6,3.1,34,2.1c0.9,0,1.6,0.6,1.6,1.5c0,0.8-0.6,1.6-1.5,1.6C110.5,157.1,107.6,157.2,104.9,157.2z"/>
			<path class="st18" d="M104.9,164c-15.9,0-25.7-2.2-26.2-2.3c-0.8-0.2-1.3-1-1.1-1.8c0.2-0.8,1-1.3,1.8-1.1c0.1,0,13.6,3.1,34,2.1
				c0.9,0,1.6,0.6,1.6,1.5c0,0.8-0.6,1.6-1.5,1.6C110.5,163.9,107.6,164,104.9,164z"/>
			<path class="st18" d="M104.9,170.8c-15.9,0-25.7-2.2-26.2-2.3c-0.8-0.2-1.3-1-1.1-1.8c0.2-0.8,1-1.3,1.8-1.1
				c0.1,0,13.6,3.1,34,2.1c0.9,0,1.6,0.6,1.6,1.5c0,0.8-0.6,1.6-1.5,1.6C110.5,170.7,107.6,170.8,104.9,170.8z"/>
			<path class="st18" d="M104.9,177.6c-15.9,0-25.7-2.2-26.2-2.3c-0.8-0.2-1.3-1-1.1-1.8c0.2-0.8,1-1.3,1.8-1.1
				c0.1,0,13.6,3.1,34,2.1c0.9,0,1.6,0.6,1.6,1.5c0,0.8-0.6,1.6-1.5,1.6C110.5,177.5,107.6,177.6,104.9,177.6z"/>
			<path class="st18" d="M104.9,184.3c-15.9,0-25.7-2.2-26.2-2.3c-0.8-0.2-1.3-1-1.1-1.8c0.2-0.8,1-1.3,1.8-1.1
				c0.1,0,13.6,3.1,34,2.1c0.9-0.1,1.6,0.6,1.6,1.5c0,0.8-0.6,1.6-1.5,1.6C110.5,184.3,107.6,184.3,104.9,184.3z"/>
			<path class="st18" d="M104.9,191.1c-15.9,0-25.7-2.2-26.2-2.3c-0.8-0.2-1.3-1-1.1-1.8c0.2-0.8,1-1.3,1.8-1.1
				c0.1,0,13.6,3.1,34,2.1c0.9-0.1,1.6,0.6,1.6,1.5c0,0.8-0.6,1.6-1.5,1.6C110.5,191.1,107.6,191.1,104.9,191.1z"/>
			<path class="st18" d="M104.9,197.9c-15.9,0-25.7-2.2-26.2-2.3c-0.8-0.2-1.3-1-1.1-1.8c0.2-0.8,1-1.3,1.8-1.1
				c0.1,0,13.6,3.1,34,2.1c0.9-0.1,1.6,0.6,1.6,1.5c0,0.8-0.6,1.6-1.5,1.6C110.5,197.8,107.6,197.9,104.9,197.9z"/>
			<path class="st18" d="M104.9,204.7c-15.9,0-25.7-2.2-26.2-2.3c-0.8-0.2-1.3-1-1.1-1.8c0.2-0.8,1-1.3,1.8-1.1
				c0.1,0,13.6,3.1,34,2.1c0.9-0.1,1.6,0.6,1.6,1.5c0,0.8-0.6,1.6-1.5,1.6C110.5,204.6,107.6,204.7,104.9,204.7z"/>
		</g>
		<g>
			<path class="st20" d="M90.7,79l-1.9-0.3c-0.5-0.1-0.9-0.6-0.8-1.1c0.1-0.5,0.6-0.9,1.1-0.8l1.9,0.3c0.5,0.1,0.9,0.6,0.8,1.1
				C91.7,78.7,91.2,79.1,90.7,79z"/>
			<path class="st20" d="M87.2,66.3c-0.1,0.8-0.8,1.3-1.5,1.3c-0.8-0.1-1.3-0.8-1.3-1.5c0.1-0.8,0.8-1.3,1.5-1.3
				C86.7,64.8,87.3,65.5,87.2,66.3z"/>
			<path class="st20" d="M102.9,67.8c-0.1,0.8-0.8,1.3-1.5,1.3c-0.8-0.1-1.3-0.8-1.3-1.5c0.1-0.8,0.8-1.3,1.5-1.3
				C102.4,66.3,103,67,102.9,67.8z"/>
			<path class="st20" d="M103.6,63.7c-0.1,0-0.2,0-0.3-0.1c-2.1-0.8-4.4-0.7-4.4-0.7c-0.5,0-1-0.4-1-0.9c0-0.5,0.4-1,0.9-1
				c0.1,0,2.7-0.1,5.2,0.9c0.5,0.2,0.7,0.8,0.5,1.3C104.5,63.5,104,63.7,103.6,63.7z"/>
			<path class="st20" d="M92.9,87.3c-0.3,0-0.6,0-0.9-0.1c-1.4-0.2-4.2-1.7-4.2-5.5c0-0.3,0.1-0.6,0.3-0.8c0.2-0.2,0.5-0.3,0.8-0.3
				l8.4,1c0.3,0,0.6,0.2,0.7,0.5c0.2,0.3,0.2,0.6,0.1,0.9C97.6,84.6,96,87.3,92.9,87.3z M89.9,82.9c0.5,1.9,2.1,2.2,2.3,2.3
				c1.2,0.2,2.1-0.2,2.9-1.1c0.1-0.2,0.3-0.3,0.4-0.5L89.9,82.9z"/>
		</g>
		<path class="st20" d="M117.4,101.8c-0.3,0-0.7-0.1-0.9-0.4c-0.2-0.2-4-4.9-4.5-10.2c-0.1-0.7,0.4-1.2,1.1-1.3
			c0.6-0.1,1.2,0.4,1.3,1.1c0.4,4.6,3.9,8.9,4,8.9c0.4,0.5,0.3,1.2-0.2,1.7C117.9,101.7,117.7,101.8,117.4,101.8z"/>
		<g>
			<path class="st19" d="M43.5,115.1l-0.2-4.3c0,0,1.3-11.4,0.5-15.9l0-4.2c0-1-1.1-1.7-2-1.2c-0.4,0.2-0.9,0.7-1.4,1.6
				c-0.4,0.8-0.7,1.7-0.8,2.6c-0.1,0.9-0.3,2.4-0.3,3.9c0,0,0.6,4.2-2.4,2.1l-11-12.7c0,0-3.9-4.9-5.5-3.1c0,0-1.9,0.4,2.7,7
				l5.1,7.3c0,0-2.1-2-3.7-0.7c0,0-2.5,1.9,0.4,4.5c0,0-1.6-0.6-2.2,0.7c0,0-1.2,1.8,0.3,3.3c0,0-1.6-0.1-1.9,1.9
				c0,0-0.6,1.2,2.5,4.2l9.2,7.7l0.1,12.3l13,0.3L43.5,115.1z"/>
			<path class="st20" d="M44.6,123.6c-0.5,0-1-0.4-1.1-0.9l-1.1-7.4c-0.1-0.6,0.3-1.2,0.9-1.3c0.6-0.1,1.2,0.3,1.3,0.9l1.1,7.4
				c0.1,0.6-0.3,1.2-0.9,1.3C44.7,123.6,44.7,123.6,44.6,123.6z"/>
			<path class="st20" d="M32.8,120.8c-0.3,0-0.5-0.1-0.7-0.3l-5.4-4.6c-0.5-0.4-0.5-1.1-0.1-1.6c0.4-0.5,1.1-0.5,1.6-0.1l5.4,4.6
				c0.5,0.4,0.5,1.1,0.1,1.6C33.4,120.7,33.1,120.8,32.8,120.8z"/>
			<path class="st20" d="M23.5,113c-0.3,0-0.5-0.1-0.8-0.3c-3.1-2.9-3.1-4.5-2.8-5.3c0.2-1.1,0.7-1.8,1.3-2.3
				c-0.4-1.3,0-2.5,0.4-3.2c0.3-0.5,0.6-0.9,1-1.1c-0.3-0.5-0.4-1.1-0.4-1.7c0-1.6,1.3-2.7,1.4-2.8c0.5-0.4,1-0.6,1.5-0.6l-3.1-4.4
				c-3.5-5-3.5-6.8-3.1-7.7c0.2-0.4,0.4-0.7,0.7-0.9c0.4-0.4,1-0.6,1.6-0.6c2.2,0.1,4.8,3.2,5.4,3.9l10.9,12.5
				c0.2,0.2,0.4,0.2,0.5,0.3c0.1-0.3,0.1-0.9,0-1.4c0-0.1,0-0.1,0-0.2c0-1.6,0.2-3.1,0.3-4c0.1-1.1,0.5-2.1,0.9-3
				c0.5-1,1.2-1.7,1.9-2c0.8-0.4,1.7-0.3,2.4,0.1c0.7,0.5,1.2,1.3,1.2,2.1l0,4.2c0.7,4.6-0.5,15.6-0.5,16.1c-0.1,0.6-0.6,1-1.2,1
				c-0.6-0.1-1-0.6-1-1.2c0-0.1,1.2-11.3,0.5-15.6c0-0.1,0-0.1,0-0.2l0-4.2c0-0.1-0.1-0.2-0.1-0.2c-0.1,0-0.2-0.1-0.2,0
				c-0.2,0.1-0.5,0.3-0.9,1.1c-0.4,0.7-0.6,1.4-0.7,2.2c-0.1,0.9-0.3,2.3-0.3,3.7c0.1,0.7,0.2,2.8-1.1,3.6c-0.8,0.5-1.8,0.3-3-0.5
				c-0.1-0.1-0.1-0.1-0.2-0.2l-11-12.7c0,0,0,0,0,0c-1.2-1.5-2.9-3.1-3.7-3.1c-0.1,0-0.1,0-0.1,0c0,0-0.1,0.1-0.1,0.1
				c0,0.4,0.3,1.8,2.9,5.5l5.1,7.3c0.3,0.5,0.2,1.1-0.2,1.5c-0.4,0.4-1.1,0.4-1.5,0c0,0-1.5-1.3-2.3-0.7c0,0-0.6,0.5-0.6,1.1
				c0,0.6,0.6,1.3,1.1,1.7c0.4,0.3,0.5,0.9,0.2,1.4c-0.3,0.5-0.8,0.7-1.3,0.5c-0.1,0-0.7-0.2-0.8,0.2c0,0.1-0.1,0.1-0.1,0.2
				c-0.1,0.2-0.6,1.1,0.2,1.9c0.3,0.3,0.5,0.9,0.2,1.3c-0.2,0.4-0.7,0.7-1.1,0.6c-0.3,0-0.6,0.2-0.7,1c0,0.1,0,0.1,0,0.2
				c0,0.2,0.2,1.1,2.2,3c0.4,0.4,0.5,1.1,0.1,1.6C24.1,112.9,23.8,113,23.5,113z M22,108.3C22,108.3,22,108.3,22,108.3
				C22,108.3,22,108.3,22,108.3z M22,108.3C22,108.3,22,108.3,22,108.3C22,108.3,22,108.3,22,108.3z M22,108.3
				C22,108.3,22,108.3,22,108.3C22,108.3,22,108.3,22,108.3z M20.7,84.9C20.7,84.9,20.7,84.9,20.7,84.9
				C20.7,84.9,20.7,84.9,20.7,84.9z M20.7,84.9C20.7,84.9,20.7,84.9,20.7,84.9C20.7,84.9,20.7,84.9,20.7,84.9z M21.1,84.5L21.1,84.5
				L21.1,84.5z"/>
			<path class="st20" d="M31.5,106.5c-0.8,0-2.1-0.3-3.9-1.5l-3.4-2.3c-0.5-0.3-0.6-1-0.3-1.5c0.3-0.5,1-0.6,1.5-0.3l3.3,2.3
				c1.8,1.2,2.6,1.1,2.8,1.1c0.2-0.2,0.3-0.3,0.3-0.4c0.1-0.7-0.8-1.9-1.4-2.5l-3-2.5c-0.5-0.4-0.5-1.1-0.1-1.6
				c0.4-0.5,1.1-0.5,1.6-0.1l3,2.5c0,0,0,0,0.1,0.1c0.4,0.4,2.3,2.4,2.1,4.3c-0.1,0.6-0.3,1.4-1.3,2
				C32.6,106.3,32.2,106.5,31.5,106.5z M31.5,104.4C31.5,104.4,31.5,104.4,31.5,104.4C31.5,104.4,31.5,104.4,31.5,104.4z
				 M31.5,104.4C31.5,104.4,31.5,104.4,31.5,104.4C31.5,104.4,31.5,104.4,31.5,104.4z M31.5,104.4C31.5,104.4,31.5,104.4,31.5,104.4
				C31.5,104.4,31.5,104.4,31.5,104.4z M31.5,104.4C31.5,104.4,31.5,104.4,31.5,104.4C31.5,104.4,31.5,104.4,31.5,104.4z
				 M31.5,104.4C31.5,104.4,31.5,104.4,31.5,104.4C31.5,104.4,31.5,104.4,31.5,104.4z"/>
			<path class="st20" d="M29.3,109.8c-0.3,0-2.7-0.1-7-3c-0.5-0.3-0.6-1-0.3-1.5c0.3-0.5,1-0.6,1.5-0.3c3.7,2.5,5.8,2.6,5.8,2.6
				c0.6,0,0.8-0.1,0.9-0.2c0.1-0.2-0.1-1-0.4-1.5c-0.3-0.5-0.1-1.2,0.4-1.5c0.5-0.3,1.2-0.1,1.5,0.4c0.2,0.4,1.2,2.3,0.4,3.7
				C31.8,109.1,31,109.8,29.3,109.8z"/>
			<path class="st20" d="M26.9,112.9c-0.6,0-1.1-0.5-1.1-1.1c0-0.6,0.5-1.1,1.1-1.1c1.1,0,1.3-0.3,1.3-0.3c0.1-0.1-0.1-0.7-0.4-1.1
				c-0.4-0.5-0.3-1.2,0.2-1.5c0.5-0.4,1.2-0.3,1.5,0.2c0.1,0.2,1.4,1.8,0.7,3.3C29.7,112.3,28.6,112.9,26.9,112.9
				C26.9,112.9,26.9,112.9,26.9,112.9z"/>
		</g>
		<g>
			<g>
				<path class="st20" d="M27.9,123.7C27.9,123.6,27.8,123.7,27.9,123.7L27.9,123.7z"/>
				<path class="st20" d="M27.9,124.6c-0.3,0-0.5-0.1-0.7-0.3c-0.2-0.3-0.3-0.7-0.1-1c0.2-0.3,0.5-0.5,0.9-0.5
					c0.4,0,0.7,0.3,0.8,0.7c0.1,0.4-0.1,0.9-0.5,1.1C28.1,124.6,28,124.6,27.9,124.6z M27.9,123.7l-0.8,0.2c0.1,0.3,0.4,0.6,0.7,0.6
					L27.9,123.7z M27.9,123.7l0.7,0.4c0.2-0.3,0.1-0.7-0.1-1c-0.2-0.3-0.6-0.4-0.9-0.2L27.9,123.7z"/>
			</g>
			<path class="st20" d="M137.6,116.3C137.6,116.3,137.6,116.2,137.6,116.3c-4.1-4.8-16.2-14.9-16.2-14.9c-0.3,0-0.5,0.2-0.7,0.4
				c-16.7,24-22.9,42.8-24.2,47.6c-1-0.5-2.7-1.1-5.6-2c-3.2-1-7.1-2.3-8.6-3.3c-1.3-16.5-1.7-40.6-1.7-40.8c0-0.3-0.1-0.5-0.4-0.7
				c-0.2-0.2-0.5-0.2-0.8-0.1c-6.4,1.8-12.4,8.4-13.1,9.3c-1.5,1.1-3,4.8-5.1,10.2c-0.9,2.4-2.1,5.3-2.6,5.8
				c-0.2,0.1-0.3,0.2-0.4,0.4c-0.7,1.7-1.4,3.5-2,5.3c-0.2,0.4-1,2-2,3.8l-6.9-18.9c-0.2-0.5-0.8-0.8-1.3-0.6l-18.5,5.1
				c-0.2,0.1-0.4,0.2-0.5,0.4c-0.1,0.2-0.1,0.4-0.1,0.7l3.5,12l0.2,5.5c0,0.1,0,0.1,0,0.2l6.3,21.8c0.1,0.4,1.6,5.3,4.2,10
				c4.4,7.9,9.2,9.3,15.2,8c3.7-0.8,6.4-1.9,7-3.2c0,0,0.3,15.7,0.7,26.8c0,3.2,3.2,2.8,3.5,3.1c0.1,0.1,0.3,0.3,0.7,0.3
				c0.1,0,0.1,0,0.2,0h63.3c0.4,0.1,0.7-0.2,0.8-0.3c0.5-0.6,0.1-1.1-0.1-1.4c-0.1-0.1-0.3-0.3-0.5-0.6c-0.4-0.5-0.9-1-1.3-1.6
				c-0.4-0.5-0.9-1.1-1.1-1.4l2.4-33.7c0.3-1,2.2-6.7,6.7-20.2l0-0.1c0.9-2.8,1.8-5.8,2.6-8.4c0,0,0,0,0,0
				C143,133.2,144,124.3,137.6,116.3z M92.3,206.6l-8.8-0.3v-38.4l8.8,6.3V206.6z"/>
		</g>
		<g>
			<path class="st19" d="M72,125.8l0.6-3.2l1.3-5.2c0,0-3.5-2.2-6.1,5l-1.1,6.1L60.3,118c0,0-6.5-11.3-7.8-10.2c0,0-3-0.9-0.2,5.2
				l4.5,10.2c0,0-3.2-2.8-5-0.2c0,0-0.9,0.9,0.2,3.2c0,0-3.9-0.6-3,3.9c0,0-3.7,0.9-1.7,5l3.1,3.6c3.1,3.6,6.6,6.9,10.5,9.6
				c0.7,0.5,1.5,1,2.3,1.4l2.3,2.8l7.3-8.4l-1.1-4.2L72,125.8z"/>
			<path class="st20" d="M67.9,154c-0.2,0-0.3,0-0.5-0.1c-1-0.4-6.6-4.2-7.2-4.6c-3.9-2.8-7.5-6.1-10.7-9.8l-3.1-3.6
				c-0.1-0.1-0.1-0.2-0.2-0.2c-0.8-1.7-0.9-3.1-0.3-4.3c0.5-0.9,1.2-1.5,1.8-1.8c-0.1-1.4,0.2-2.5,1-3.3c0.5-0.5,1.2-0.8,1.7-0.9
				c-0.4-1.7,0.2-2.6,0.4-2.9c0.6-0.9,1.4-1.4,2.3-1.5c0.4-0.1,0.8,0,1.3,0l-3.3-7.4c-1.4-3.1-1.7-5-0.7-6.1
				c0.5-0.6,1.2-0.8,1.8-0.7c0.2,0,0.4-0.1,0.6,0c0.8,0.1,2,0.9,5.1,5.7c1.6,2.4,3,4.8,3.1,5l5,7.9l0.6-3.2c0-0.1,0-0.1,0-0.2
				c1.2-3.2,2.7-5.2,4.6-5.8c1.7-0.6,3,0.2,3.1,0.3c0.5,0.3,0.7,1,0.4,1.5c-0.3,0.5-1,0.7-1.5,0.4c0,0-0.6-0.3-1.3,0
				c-1.1,0.4-2.2,2-3.1,4.4l-1.1,6c-0.1,0.4-0.4,0.8-0.9,0.9c-0.4,0.1-0.9-0.1-1.1-0.5l-6.5-10.4c0,0,0,0,0,0
				c-2.4-4.1-5.5-8.8-6.6-9.6c-0.2,0-0.3,0-0.5,0c0,0.3-0.1,1.2,1.1,3.7l4.6,10.2c0.2,0.5,0.1,1-0.4,1.3c-0.4,0.3-1,0.3-1.4-0.1
				c-0.4-0.3-1.6-1.2-2.5-1c-0.2,0-0.5,0.1-0.8,0.6c0,0,0,0.1-0.1,0.1c0,0.1-0.3,0.7,0.4,2.1c0.2,0.4,0.1,0.8-0.1,1.1
				c-0.2,0.3-0.7,0.5-1.1,0.4c0,0-1-0.1-1.5,0.4c-0.5,0.5-0.4,1.5-0.3,2.2c0.1,0.6-0.3,1.1-0.8,1.3c0,0-0.9,0.2-1.3,1
				c-0.3,0.7-0.1,1.6,0.3,2.3l3,3.5c3,3.5,6.5,6.7,10.3,9.5c0.9,0.7,6.1,4.1,6.8,4.4c0.6,0.3,0.8,0.9,0.5,1.5
				C68.7,153.7,68.3,154,67.9,154z M52.6,123.7C52.6,123.7,52.6,123.7,52.6,123.7C52.6,123.7,52.6,123.7,52.6,123.7z M52.6,123.7
				C52.6,123.7,52.6,123.7,52.6,123.7C52.6,123.7,52.6,123.7,52.6,123.7z M52.6,123.7C52.6,123.7,52.6,123.7,52.6,123.7
				C52.6,123.7,52.6,123.7,52.6,123.7z"/>
			<path class="st20" d="M72.9,145.1C72.9,145.1,72.9,145.1,72.9,145.1c-0.6,0-1.1-0.5-1.1-1.1l0.1-12.4c0-0.6,0.5-1.1,1.1-1.1
				c0,0,0,0,0,0c0.6,0,1.1,0.5,1.1,1.1L74,144.1C74,144.7,73.5,145.1,72.9,145.1z"/>
			<path class="st20" d="M54.2,129.9c-0.3,0-0.6-0.1-0.8-0.4l-2.2-2.6c-0.4-0.5-0.3-1.2,0.1-1.6c0.5-0.4,1.2-0.3,1.6,0.1l2.2,2.6
				c0.4,0.5,0.3,1.2-0.1,1.6C54.7,129.8,54.5,129.9,54.2,129.9z"/>
			<path class="st20" d="M59,126.9c-0.3,0-0.6-0.1-0.8-0.4l-2.2-2.6c-0.4-0.5-0.3-1.2,0.1-1.6c0.5-0.4,1.2-0.3,1.6,0.1l2.2,2.6
				c0.4,0.5,0.3,1.2-0.1,1.6C59.5,126.8,59.3,126.9,59,126.9z"/>
			<path class="st20" d="M51.2,133.8c-0.3,0-0.6-0.1-0.8-0.4l-2.2-2.6c-0.4-0.5-0.3-1.2,0.1-1.6c0.5-0.4,1.2-0.3,1.6,0.1l2.2,2.6
				c0.4,0.5,0.3,1.2-0.1,1.6C51.7,133.7,51.5,133.8,51.2,133.8z"/>
		</g>
		<g>
			<path class="st21" d="M103.6,27.2c-0.9,0.5-2,0.2-2.5-0.7L98.9,23c-0.5-0.9-0.3-2,0.6-2.6c0.9-0.5,2-0.3,2.6,0.6l2.1,3.5
				C104.8,25.5,104.5,26.6,103.6,27.2C103.6,27.2,103.6,27.2,103.6,27.2z"/>
			<path class="st21" d="M111.7,26.6c-0.2,0.1-0.4,0.2-0.7,0.2c-1,0.1-1.9-0.6-2.1-1.7l-0.4-3.4c-0.1-1,0.6-1.9,1.7-2.1
				c1-0.1,1.9,0.6,2.1,1.7l0.4,3.4C112.8,25.5,112.4,26.2,111.7,26.6z"/>
			<path class="st21" d="M130.4,31.8C130.4,31.8,130.4,31.8,130.4,31.8l-3.7,1.9c-0.9,0.5-2,0.1-2.5-0.8c-0.5-0.9-0.1-2,0.8-2.5
				l3.6-1.9c0.9-0.5,2-0.1,2.5,0.8C131.7,30.2,131.3,31.3,130.4,31.8z"/>
			<path class="st21" d="M120.1,28.9c-0.6,0.3-1.4,0.3-2-0.2c-0.8-0.6-1-1.8-0.4-2.6l2.1-2.7c0.6-0.8,1.8-1,2.6-0.4
				c0.8,0.6,1,1.8,0.4,2.6l-2.1,2.7C120.6,28.6,120.4,28.8,120.1,28.9z"/>
		</g>
		<path class="st22" d="M80.6,166.4c-0.2,0-0.4-0.1-0.6-0.2l-15.6-9.6c-0.3-0.2-0.5-0.6-0.5-1c0.2-2.2,7.8-12,9-13.1
			c0.4-0.4,1.1-0.4,1.5,0c0.4,0.4,0.4,1.1,0,1.5c-0.6,0.6-2.6,3-4.7,5.9c-2.1,2.9-3.1,4.5-3.5,5.3l14.9,9.2c0.5,0.3,0.7,1,0.3,1.5
			C81.3,166.2,81,166.4,80.6,166.4z"/>
		<path class="st20" d="M84.7,103.9c-0.6,0-1.1-0.4-1.2-1c-0.1-0.6,0.3-1.3,1-1.4c0.2,0,5.2-1.1,5.9-8.1c0.1-0.6,0.7-1.1,1.3-1.1
			c0.6,0.1,1.1,0.6,1.1,1.3c-0.5,4.6-2.5,7.1-4.2,8.4c-1.8,1.4-3.6,1.8-3.7,1.8C84.8,103.9,84.8,103.9,84.7,103.9z"/>
		<path class="st22" d="M116,186.1c-0.3,0-0.5,0-0.7-0.1c-3.7-0.1-16.5-7.5-19.1-9c-0.5-0.3-0.7-0.9-0.4-1.4
			c0.3-0.5,0.9-0.7,1.4-0.4c6.4,3.7,16.2,8.9,18.2,8.7c0.2,0,0.4,0,0.5,0.1c0.3,0,3.6,0,11.7-13.4c0.3-0.5,1-0.7,1.5-0.4
			c0.5,0.3,0.7,1,0.4,1.5c-5.2,8.6-9.6,13.6-12.7,14.3C116.5,186.1,116.2,186.1,116,186.1z M116.1,184
			C116.1,184,116.1,184,116.1,184C116.1,184,116.1,184,116.1,184z M116.1,184C116.1,184,116.1,184,116.1,184
			C116.1,184,116.1,184,116.1,184z M116.1,184C116.1,184,116.1,184,116.1,184C116.1,184,116.1,184,116.1,184z M116.1,184
			C116.1,184,116.1,184,116.1,184C116.1,184,116.1,184,116.1,184z M116.1,184C116.1,184,116.1,184,116.1,184
			C116.1,184,116.1,184,116.1,184z"/>
		<path class="st22" d="M121.6,161.2c-0.3,0-0.5-0.1-0.7-0.3c-3.9-3.7-18.7-8.1-18.9-8.1c-0.6-0.2-0.9-0.8-0.7-1.3
			c0.2-0.6,0.8-0.9,1.3-0.7c0.6,0.2,15.4,4.6,19.7,8.6c0.4,0.4,0.4,1.1,0,1.5C122.1,161.1,121.8,161.2,121.6,161.2z"/>
		<path class="st22" d="M111.4,152.3c-0.1,0-0.2,0-0.3,0c-0.6-0.2-0.9-0.8-0.7-1.3c9.4-30.1,17.4-31,18.2-31v2.1c0,0,0,0,0,0
			c-0.1,0-7.4,1-16.3,29.5C112.3,152,111.8,152.3,111.4,152.3z"/>
		<path class="st22" d="M62.7,168.2c-0.5,0-1-0.4-1.1-1c-0.7-5.3-3.8-11.2-3.8-11.3c0,0,0-0.1-0.1-0.1l-3.9-9.9
			c-0.2-0.6,0.1-1.2,0.6-1.4c0.6-0.2,1.2,0.1,1.4,0.6l3.9,9.9c0.3,0.7,3.3,6.5,4,12c0.1,0.6-0.4,1.1-1,1.2
			C62.8,168.2,62.8,168.2,62.7,168.2z"/>
	</g>
</g>
</svg>
