<?xml version="1.0" encoding="UTF-8"?>
<svg xmlns="http://www.w3.org/2000/svg" version="1.1" viewBox="0 0 512 512">
  <defs>
    <style>
      .cls-1 {
        fill: #fff;
      }
    </style>
  </defs>
  <!-- Generator: Adobe Illustrator 28.6.0, SVG Export Plug-In . SVG Version: 1.2.0 Build 709)  -->
  <g>
    <g id="Bold">
      <g>
        <path class="cls-1" d="M460.9,122.3h-61c-4.1,0-7.5,3.4-7.5,7.5s3.4,7.5,7.5,7.5h61c4.1,0,7.5-3.4,7.5-7.5s-3.4-7.5-7.5-7.5Z"/>
        <path class="cls-1" d="M460.9,155.7h-61c-4.1,0-7.5,3.4-7.5,7.5s3.4,7.5,7.5,7.5h61c4.1,0,7.5-3.4,7.5-7.5s-3.4-7.5-7.5-7.5Z"/>
        <path class="cls-1" d="M499.5,204.9c6.9,0,12.5-5.6,12.5-12.5v-91.7c0-6.9-5.6-12.5-12.5-12.5h-138.3c-6.9,0-12.5,5.6-12.5,12.5v9.3h-177.7c-4.1,0-7.5,3.4-7.5,7.5s3.4,7.5,7.5,7.5h177.7v14.4H88.7c-6.9,0-12.5,5.6-12.5,12.5v194c0,6.9,5.6,12.5,12.5,12.5h334.6c6.9,0,12.5-5.6,12.5-12.5v-67.7c0-4.1-3.4-7.5-7.5-7.5s-7.5,3.4-7.5,7.5v65.2h-15.5c-2.6-12.4-8.9-23.7-18.4-32.4-4.2-3.9-8.9-7.1-13.9-9.6,5.8-6.5,9.3-15,9.3-24.3,0-20.1-16.3-36.4-36.4-36.4s-36.4,16.3-36.4,36.4,3.5,17.8,9.3,24.3c-5,2.5-9.7,5.7-13.9,9.6-9.4,8.7-15.8,20-18.4,32.4h-15.5v-189h77.7v38.1c0,6.9,5.6,12.5,12.5,12.5h12.2v19.8c0,4.8,2.6,9.1,6.9,11.2,1.8.9,3.7,1.3,5.6,1.3s5.3-.8,7.5-2.5l27.4-20.5v28.8c0,4.1,3.4,7.5,7.5,7.5s7.5-3.4,7.5-7.5v-38.1h14.4v167.6H62V127.4c0-1.4,1.1-2.5,2.5-2.5h71.5c4.1,0,7.5-3.4,7.5-7.5s-3.4-7.5-7.5-7.5h-71.5c-9.6,0-17.5,7.9-17.5,17.5v245.1H12.5c-6.9,0-12.5,5.6-12.5,12.5v26.3c0,6.9,5.6,12.5,12.5,12.5h328.5c4.1,0,7.5-3.4,7.5-7.5s-3.4-7.5-7.5-7.5H15v-21.3h482v21.3h-121c-4.1,0-7.5,3.4-7.5,7.5s3.4,7.5,7.5,7.5h123.5c6.9,0,12.5-5.6,12.5-12.5v-26.3c0-6.9-5.6-12.5-12.5-12.5h-34.3v-167.6h34.3ZM141.9,343.2c3.6-10.3,12-18.1,22.4-21.1,2.9,1,6,1.5,9.2,1.5s6.3-.5,9.2-1.5c10.5,2.9,18.8,10.8,22.4,21.1h-63.4ZM158.8,293.8c0-8.2,6.7-14.8,14.8-14.8s14.8,6.7,14.8,14.8-6.7,14.8-14.8,14.8c-8.2,0-14.8-6.7-14.8-14.8ZM256,343.2h-35.1c-3.2-13.6-11.9-24.8-23.6-31.3,3.9-5,6.2-11.3,6.2-18.2,0-16.5-13.4-29.8-29.8-29.8s-29.8,13.4-29.8,29.8,2.3,13.1,6.2,18.2c-11.7,6.5-20.4,17.7-23.6,31.3h-35.1v-87h164.8v87ZM164.4,220.2c2.9.9,6,1.5,9.2,1.5s6.3-.5,9.2-1.5c10.5,2.9,18.8,10.8,22.4,21.1h-63.4c3.6-10.3,12-18.1,22.4-21.1h0ZM158.8,191.8c0-8.2,6.7-14.8,14.8-14.8s14.8,6.7,14.8,14.8-6.7,14.8-14.8,14.8-14.8-6.7-14.8-14.8ZM256,241.2h-35.1c-3.2-13.6-11.9-24.8-23.6-31.3,3.9-5,6.2-11.3,6.2-18.2,0-16.5-13.4-29.8-29.8-29.8s-29.8,13.4-29.8,29.8,2.3,13.1,6.2,18.2c-11.7,6.5-20.4,17.7-23.6,31.3h-35.1v-87h164.8v87ZM345.9,255.5c11.8,0,21.4,9.6,21.4,21.4s-9.6,21.4-21.4,21.4-21.4-9.6-21.4-21.4,9.6-21.4,21.4-21.4ZM334,311.4c3.7,1.3,7.8,2,11.9,2s8.2-.7,11.9-2c15.5,4.1,27.8,16.2,32.1,31.8h-88.1c4.3-15.7,16.6-27.7,32.1-31.8h0ZM432.4,189.9c-2.7,0-5.4.9-7.5,2.5l-36.4,27.3v-17.3c0-6.9-5.6-12.5-12.5-12.5h-12.2v-86.7h133.3v86.7h-64.6Z"/>
        <circle class="cls-1" cx="291.5" cy="174.5" r="7.5"/>
        <circle class="cls-1" cx="312.5" cy="174.5" r="7.5"/>
      </g>
    </g>
  </g>
</svg>