<?xml version="1.0" encoding="utf-8"?>
<!-- Generator: Adobe Illustrator 27.5.0, SVG Export Plug-In . SVG Version: 6.00 Build 0)  -->
<svg version="1.1" id="レイヤー_1" xmlns="http://www.w3.org/2000/svg" xmlns:xlink="http://www.w3.org/1999/xlink" x="0px"
	 y="0px" viewBox="0 0 158.7 197.6" style="enable-background:new 0 0 158.7 197.6;" xml:space="preserve">
<style type="text/css">
	.st0{clip-path:url(#SVGID_00000031914030768279333270000002475876699121322143_);}
	.st1{clip-path:url(#SVGID_00000103257963534538870400000009252841549634422912_);}
	.st2{clip-path:url(#SVGID_00000073003284808934013340000008382517124792142215_);fill:#17B0B4;}
	.st3{clip-path:url(#SVGID_00000073003284808934013340000008382517124792142215_);fill:#32A4DE;}
	.st4{clip-path:url(#SVGID_00000153677377161158785430000006272069215564986766_);fill:#17B0B4;}
	.st5{clip-path:url(#SVGID_00000153677377161158785430000006272069215564986766_);fill:#32A4DE;}
	.st6{clip-path:url(#SVGID_00000053521614218348466240000015797865265909262523_);fill:#17B0B4;}
	.st7{clip-path:url(#SVGID_00000053521614218348466240000015797865265909262523_);fill:#32A4DE;}
	.st8{clip-path:url(#SVGID_00000026859639077248524300000011642608111487642787_);fill:#17B0B4;}
	.st9{clip-path:url(#SVGID_00000026859639077248524300000011642608111487642787_);fill:#32A4DE;}
	.st10{clip-path:url(#SVGID_00000179619473130372267150000014258849858919182758_);fill:#17B0B4;}
	.st11{clip-path:url(#SVGID_00000179619473130372267150000014258849858919182758_);fill:#32A4DE;}
	.st12{clip-path:url(#SVGID_00000146464172841611846540000006225222405820762042_);fill:#17B0B4;}
	.st13{clip-path:url(#SVGID_00000146464172841611846540000006225222405820762042_);fill:#32A4DE;}
	.st14{clip-path:url(#SVGID_00000093860053051965433450000018047979814160061874_);fill:#17B0B4;}
	.st15{clip-path:url(#SVGID_00000093860053051965433450000018047979814160061874_);fill:#32A4DE;}
	.st16{clip-path:url(#SVGID_00000119086275307353701170000013178255263410268592_);fill:#17B0B4;}
	.st17{clip-path:url(#SVGID_00000119086275307353701170000013178255263410268592_);fill:#32A4DE;}
	.st18{clip-path:url(#SVGID_00000083091214906803401430000000917933601877626757_);fill:#17B0B4;}
	.st19{clip-path:url(#SVGID_00000083091214906803401430000000917933601877626757_);fill:#32A4DE;}
	.st20{clip-path:url(#SVGID_00000094615398311261500970000018224033728558319282_);fill:#17B0B4;}
	.st21{clip-path:url(#SVGID_00000094615398311261500970000018224033728558319282_);fill:#32A4DE;}
	.st22{clip-path:url(#SVGID_00000094595934269456590470000002149803493798681235_);fill:#17B0B4;}
	.st23{clip-path:url(#SVGID_00000094595934269456590470000002149803493798681235_);fill:#32A4DE;}
	.st24{clip-path:url(#SVGID_00000150822539954543218380000004786659556923363720_);fill:#17B0B4;}
	.st25{clip-path:url(#SVGID_00000150822539954543218380000004786659556923363720_);fill:#32A4DE;}
	.st26{clip-path:url(#SVGID_00000037681712971045242820000017647365854937563573_);fill:#17B0B4;}
	.st27{clip-path:url(#SVGID_00000037681712971045242820000017647365854937563573_);fill:#32A4DE;}
	.st28{clip-path:url(#SVGID_00000168829369832609909820000015481696348481880992_);fill:#17B0B4;}
	.st29{clip-path:url(#SVGID_00000168829369832609909820000015481696348481880992_);fill:#32A4DE;}
	.st30{clip-path:url(#SVGID_00000019679187956883413440000017442245002309636284_);fill:#17B0B4;}
	.st31{clip-path:url(#SVGID_00000019679187956883413440000017442245002309636284_);fill:#32A4DE;}
	.st32{clip-path:url(#SVGID_00000018204509556567159350000004127974898615147926_);fill:#17B0B4;}
	.st33{clip-path:url(#SVGID_00000018204509556567159350000004127974898615147926_);fill:#32A4DE;}
	.st34{clip-path:url(#SVGID_00000031914030768279333270000002475876699121322143_);fill:#17B0B4;}
	.st35{clip-path:url(#SVGID_00000031914030768279333270000002475876699121322143_);fill:#FFFFFF;}
	.st36{fill:#251E1C;}
	.st37{clip-path:url(#SVGID_00000031914030768279333270000002475876699121322143_);fill:#251E1C;}
	.st38{clip-path:url(#SVGID_00000031914030768279333270000002475876699121322143_);fill:#231815;}
	.st39{fill:#17B0B4;}
	.st40{clip-path:url(#SVGID_00000031914030768279333270000002475876699121322143_);fill:none;}
	.st41{clip-path:url(#SVGID_00000031914030768279333270000002475876699121322143_);fill:#DADBDB;}
</style>
<g>
	<defs>
		<path id="SVGID_1_" d="M152.6,123.5c0,40.2-32.6,72.7-72.7,72.7S7.2,163.7,7.2,123.5c0-16.6-18.6-71.8-9.2-96.8
			C11.3-8.7,56.4-12.7,79.9-12.7c13,0,70,42.1,80.6,48.1C182.6,47.9,152.6,96.4,152.6,123.5z"/>
	</defs>
	<clipPath id="SVGID_00000165945369368611316140000008376392616245696150_">
		<use xlink:href="#SVGID_1_"  style="overflow:visible;"/>
	</clipPath>
	<g style="clip-path:url(#SVGID_00000165945369368611316140000008376392616245696150_);">
		<g>
			<defs>
				<circle id="SVGID_00000076584356107638977430000014457150385179572653_" cx="79.9" cy="123.5" r="72.7"/>
			</defs>
			<clipPath id="SVGID_00000155122625029328288700000002264079655369664434_">
				<use xlink:href="#SVGID_00000076584356107638977430000014457150385179572653_"  style="overflow:visible;"/>
			</clipPath>
			<g style="clip-path:url(#SVGID_00000155122625029328288700000002264079655369664434_);">
				<g>
					<defs>
						<rect id="SVGID_00000146460734094098998130000005055671242105391792_" x="106.8" y="16.8" width="47.2" height="47.2"/>
					</defs>
					<clipPath id="SVGID_00000157293627132767692040000013699437652776681628_">
						<use xlink:href="#SVGID_00000146460734094098998130000005055671242105391792_"  style="overflow:visible;"/>
					</clipPath>
					<path style="clip-path:url(#SVGID_00000157293627132767692040000013699437652776681628_);fill:#17B0B4;" d="M154,67.6
						c2,0,3.5-1.6,3.5-3.5c0-2-1.6-3.5-3.5-3.5c-2,0-3.5,1.6-3.5,3.5C150.5,66,152.1,67.6,154,67.6z"/>
					<path style="clip-path:url(#SVGID_00000157293627132767692040000013699437652776681628_);fill:#17B0B4;" d="M130.4,67.6
						c2,0,3.5-1.6,3.5-3.5c0-2-1.6-3.5-3.5-3.5c-2,0-3.5,1.6-3.5,3.5C126.9,66,128.5,67.6,130.4,67.6z"/>
					<path style="clip-path:url(#SVGID_00000157293627132767692040000013699437652776681628_);fill:#17B0B4;" d="M106.8,67.6
						c2,0,3.5-1.6,3.5-3.5c0-2-1.6-3.5-3.5-3.5c-2,0-3.5,1.6-3.5,3.5C103.3,66,104.8,67.6,106.8,67.6z"/>
					<path style="clip-path:url(#SVGID_00000157293627132767692040000013699437652776681628_);fill:#17B0B4;" d="M154,44
						c2,0,3.5-1.6,3.5-3.5c0-2-1.6-3.5-3.5-3.5c-2,0-3.5,1.6-3.5,3.5C150.5,42.4,152.1,44,154,44z"/>
					<path style="clip-path:url(#SVGID_00000157293627132767692040000013699437652776681628_);fill:#17B0B4;" d="M130.4,44
						c2,0,3.5-1.6,3.5-3.5c0-2-1.6-3.5-3.5-3.5c-2,0-3.5,1.6-3.5,3.5C126.9,42.4,128.5,44,130.4,44z"/>
					<path style="clip-path:url(#SVGID_00000157293627132767692040000013699437652776681628_);fill:#17B0B4;" d="M106.8,44
						c2,0,3.5-1.6,3.5-3.5c0-2-1.6-3.5-3.5-3.5c-2,0-3.5,1.6-3.5,3.5C103.3,42.4,104.8,44,106.8,44z"/>
					<path style="clip-path:url(#SVGID_00000157293627132767692040000013699437652776681628_);fill:#17B0B4;" d="M154,20.4
						c2,0,3.5-1.6,3.5-3.5c0-2-1.6-3.5-3.5-3.5c-2,0-3.5,1.6-3.5,3.5C150.5,18.8,152.1,20.4,154,20.4z"/>
					<path style="clip-path:url(#SVGID_00000157293627132767692040000013699437652776681628_);fill:#17B0B4;" d="M130.4,20.4
						c2,0,3.5-1.6,3.5-3.5c0-2-1.6-3.5-3.5-3.5c-2,0-3.5,1.6-3.5,3.5C126.9,18.8,128.5,20.4,130.4,20.4z"/>
					<path style="clip-path:url(#SVGID_00000157293627132767692040000013699437652776681628_);fill:#17B0B4;" d="M106.8,20.4
						c2,0,3.5-1.6,3.5-3.5c0-2-1.6-3.5-3.5-3.5c-2,0-3.5,1.6-3.5,3.5C103.3,18.8,104.8,20.4,106.8,20.4z"/>
					<path style="clip-path:url(#SVGID_00000157293627132767692040000013699437652776681628_);fill:#17B0B4;" d="M83.2,20.4
						c2,0,3.5-1.6,3.5-3.5c0-2-1.6-3.5-3.5-3.5c-2,0-3.5,1.6-3.5,3.5C79.6,18.8,81.2,20.4,83.2,20.4z"/>
					<path style="clip-path:url(#SVGID_00000157293627132767692040000013699437652776681628_);fill:#17B0B4;" d="M83.2,16.8"/>
					<path style="clip-path:url(#SVGID_00000157293627132767692040000013699437652776681628_);fill:#17B0B4;" d="M118.6,55.8
						c2,0,3.5-1.6,3.5-3.5c0-2-1.6-3.5-3.5-3.5c-2,0-3.5,1.6-3.5,3.5C115.1,54.2,116.7,55.8,118.6,55.8z"/>
					<path style="clip-path:url(#SVGID_00000157293627132767692040000013699437652776681628_);fill:#17B0B4;" d="M142.2,55.8
						c2,0,3.5-1.6,3.5-3.5c0-2-1.6-3.5-3.5-3.5c-2,0-3.5,1.6-3.5,3.5C138.7,54.2,140.3,55.8,142.2,55.8z"/>
					
						<circle style="clip-path:url(#SVGID_00000157293627132767692040000013699437652776681628_);fill:#17B0B4;" cx="118.6" cy="28.6" r="3.5"/>
					<path style="clip-path:url(#SVGID_00000157293627132767692040000013699437652776681628_);fill:#32A4DE;" d="M142.2,32.2
						c2,0,3.5-1.6,3.5-3.5s-1.6-3.5-3.5-3.5c-2,0-3.5,1.6-3.5,3.5S140.3,32.2,142.2,32.2z"/>
					
						<circle style="clip-path:url(#SVGID_00000157293627132767692040000013699437652776681628_);fill:#17B0B4;" cx="95" cy="28.6" r="3.5"/>
					<path style="clip-path:url(#SVGID_00000157293627132767692040000013699437652776681628_);fill:#17B0B4;" d="M95,28.6"/>
				</g>
			</g>
			<g style="clip-path:url(#SVGID_00000155122625029328288700000002264079655369664434_);">
				<g>
					<defs>
						<rect id="SVGID_00000181775951346458988500000009627898822104216247_" x="106.8" y="64" width="47.2" height="47.2"/>
					</defs>
					<clipPath id="SVGID_00000135680551352518172470000001084562289296877735_">
						<use xlink:href="#SVGID_00000181775951346458988500000009627898822104216247_"  style="overflow:visible;"/>
					</clipPath>
					<path style="clip-path:url(#SVGID_00000135680551352518172470000001084562289296877735_);fill:#17B0B4;" d="M154,114.8
						c2,0,3.5-1.6,3.5-3.5c0-2-1.6-3.5-3.5-3.5c-2,0-3.5,1.6-3.5,3.5C150.5,113.2,152.1,114.8,154,114.8z"/>
					<path style="clip-path:url(#SVGID_00000135680551352518172470000001084562289296877735_);fill:#17B0B4;" d="M130.4,114.8
						c2,0,3.5-1.6,3.5-3.5c0-2-1.6-3.5-3.5-3.5c-2,0-3.5,1.6-3.5,3.5C126.9,113.2,128.5,114.8,130.4,114.8z"/>
					<path style="clip-path:url(#SVGID_00000135680551352518172470000001084562289296877735_);fill:#17B0B4;" d="M106.8,114.8
						c2,0,3.5-1.6,3.5-3.5c0-2-1.6-3.5-3.5-3.5c-2,0-3.5,1.6-3.5,3.5C103.3,113.2,104.8,114.8,106.8,114.8z"/>
					<path style="clip-path:url(#SVGID_00000135680551352518172470000001084562289296877735_);fill:#17B0B4;" d="M154,91.2
						c2,0,3.5-1.6,3.5-3.5c0-2-1.6-3.5-3.5-3.5c-2,0-3.5,1.6-3.5,3.5C150.5,89.6,152.1,91.2,154,91.2z"/>
					<path style="clip-path:url(#SVGID_00000135680551352518172470000001084562289296877735_);fill:#17B0B4;" d="M130.4,91.2
						c2,0,3.5-1.6,3.5-3.5c0-2-1.6-3.5-3.5-3.5c-2,0-3.5,1.6-3.5,3.5C126.9,89.6,128.5,91.2,130.4,91.2z"/>
					<path style="clip-path:url(#SVGID_00000135680551352518172470000001084562289296877735_);fill:#17B0B4;" d="M106.8,91.2
						c2,0,3.5-1.6,3.5-3.5c0-2-1.6-3.5-3.5-3.5c-2,0-3.5,1.6-3.5,3.5C103.3,89.6,104.8,91.2,106.8,91.2z"/>
					<path style="clip-path:url(#SVGID_00000135680551352518172470000001084562289296877735_);fill:#17B0B4;" d="M154,67.6
						c2,0,3.5-1.6,3.5-3.5c0-2-1.6-3.5-3.5-3.5c-2,0-3.5,1.6-3.5,3.5C150.5,66,152.1,67.6,154,67.6z"/>
					<path style="clip-path:url(#SVGID_00000135680551352518172470000001084562289296877735_);fill:#17B0B4;" d="M130.4,67.6
						c2,0,3.5-1.6,3.5-3.5c0-2-1.6-3.5-3.5-3.5c-2,0-3.5,1.6-3.5,3.5C126.9,66,128.5,67.6,130.4,67.6z"/>
					<path style="clip-path:url(#SVGID_00000135680551352518172470000001084562289296877735_);fill:#17B0B4;" d="M106.8,67.6
						c2,0,3.5-1.6,3.5-3.5c0-2-1.6-3.5-3.5-3.5c-2,0-3.5,1.6-3.5,3.5C103.3,66,104.8,67.6,106.8,67.6z"/>
					<path style="clip-path:url(#SVGID_00000135680551352518172470000001084562289296877735_);fill:#17B0B4;" d="M83.2,67.6
						c2,0,3.5-1.6,3.5-3.5c0-2-1.6-3.5-3.5-3.5c-2,0-3.5,1.6-3.5,3.5C79.6,66,81.2,67.6,83.2,67.6z"/>
					<path style="clip-path:url(#SVGID_00000135680551352518172470000001084562289296877735_);fill:#17B0B4;" d="M83.2,64"/>
					<path style="clip-path:url(#SVGID_00000135680551352518172470000001084562289296877735_);fill:#17B0B4;" d="M118.6,103
						c2,0,3.5-1.6,3.5-3.5c0-2-1.6-3.5-3.5-3.5c-2,0-3.5,1.6-3.5,3.5C115.1,101.4,116.7,103,118.6,103z"/>
					<path style="clip-path:url(#SVGID_00000135680551352518172470000001084562289296877735_);fill:#17B0B4;" d="M142.2,103
						c2,0,3.5-1.6,3.5-3.5c0-2-1.6-3.5-3.5-3.5c-2,0-3.5,1.6-3.5,3.5C138.7,101.4,140.3,103,142.2,103z"/>
					
						<circle style="clip-path:url(#SVGID_00000135680551352518172470000001084562289296877735_);fill:#17B0B4;" cx="118.6" cy="75.9" r="3.5"/>
					<path style="clip-path:url(#SVGID_00000135680551352518172470000001084562289296877735_);fill:#32A4DE;" d="M142.2,79.4
						c2,0,3.5-1.6,3.5-3.5s-1.6-3.5-3.5-3.5c-2,0-3.5,1.6-3.5,3.5S140.3,79.4,142.2,79.4z"/>
					
						<circle style="clip-path:url(#SVGID_00000135680551352518172470000001084562289296877735_);fill:#17B0B4;" cx="95" cy="75.9" r="3.5"/>
					<path style="clip-path:url(#SVGID_00000135680551352518172470000001084562289296877735_);fill:#17B0B4;" d="M95,75.9"/>
				</g>
			</g>
			<g style="clip-path:url(#SVGID_00000155122625029328288700000002264079655369664434_);">
				<g>
					<defs>
						<rect id="SVGID_00000064350344456380195750000013527585137110033852_" x="106.8" y="111.3" width="47.2" height="47.2"/>
					</defs>
					<clipPath id="SVGID_00000078005897904894516780000001208552469902055312_">
						<use xlink:href="#SVGID_00000064350344456380195750000013527585137110033852_"  style="overflow:visible;"/>
					</clipPath>
					<path style="clip-path:url(#SVGID_00000078005897904894516780000001208552469902055312_);fill:#17B0B4;" d="M154,162.1
						c2,0,3.5-1.6,3.5-3.5c0-2-1.6-3.5-3.5-3.5c-2,0-3.5,1.6-3.5,3.5C150.5,160.5,152.1,162.1,154,162.1z"/>
					<path style="clip-path:url(#SVGID_00000078005897904894516780000001208552469902055312_);fill:#17B0B4;" d="M130.4,162.1
						c2,0,3.5-1.6,3.5-3.5c0-2-1.6-3.5-3.5-3.5c-2,0-3.5,1.6-3.5,3.5C126.9,160.5,128.5,162.1,130.4,162.1z"/>
					<path style="clip-path:url(#SVGID_00000078005897904894516780000001208552469902055312_);fill:#17B0B4;" d="M106.8,162.1
						c2,0,3.5-1.6,3.5-3.5c0-2-1.6-3.5-3.5-3.5c-2,0-3.5,1.6-3.5,3.5C103.3,160.5,104.8,162.1,106.8,162.1z"/>
					<path style="clip-path:url(#SVGID_00000078005897904894516780000001208552469902055312_);fill:#17B0B4;" d="M154,138.4
						c2,0,3.5-1.6,3.5-3.5s-1.6-3.5-3.5-3.5c-2,0-3.5,1.6-3.5,3.5S152.1,138.4,154,138.4z"/>
					<path style="clip-path:url(#SVGID_00000078005897904894516780000001208552469902055312_);fill:#17B0B4;" d="M130.4,138.4
						c2,0,3.5-1.6,3.5-3.5s-1.6-3.5-3.5-3.5c-2,0-3.5,1.6-3.5,3.5S128.5,138.4,130.4,138.4z"/>
					<path style="clip-path:url(#SVGID_00000078005897904894516780000001208552469902055312_);fill:#17B0B4;" d="M106.8,138.4
						c2,0,3.5-1.6,3.5-3.5s-1.6-3.5-3.5-3.5c-2,0-3.5,1.6-3.5,3.5S104.8,138.4,106.8,138.4z"/>
					<path style="clip-path:url(#SVGID_00000078005897904894516780000001208552469902055312_);fill:#17B0B4;" d="M154,114.8
						c2,0,3.5-1.6,3.5-3.5c0-2-1.6-3.5-3.5-3.5c-2,0-3.5,1.6-3.5,3.5C150.5,113.2,152.1,114.8,154,114.8z"/>
					<path style="clip-path:url(#SVGID_00000078005897904894516780000001208552469902055312_);fill:#17B0B4;" d="M130.4,114.8
						c2,0,3.5-1.6,3.5-3.5c0-2-1.6-3.5-3.5-3.5c-2,0-3.5,1.6-3.5,3.5C126.9,113.2,128.5,114.8,130.4,114.8z"/>
					<path style="clip-path:url(#SVGID_00000078005897904894516780000001208552469902055312_);fill:#17B0B4;" d="M106.8,114.8
						c2,0,3.5-1.6,3.5-3.5c0-2-1.6-3.5-3.5-3.5c-2,0-3.5,1.6-3.5,3.5C103.3,113.2,104.8,114.8,106.8,114.8z"/>
					<path style="clip-path:url(#SVGID_00000078005897904894516780000001208552469902055312_);fill:#17B0B4;" d="M83.2,114.8
						c2,0,3.5-1.6,3.5-3.5c0-2-1.6-3.5-3.5-3.5c-2,0-3.5,1.6-3.5,3.5C79.6,113.2,81.2,114.8,83.2,114.8z"/>
					<path style="clip-path:url(#SVGID_00000078005897904894516780000001208552469902055312_);fill:#17B0B4;" d="M83.2,111.3"/>
					<path style="clip-path:url(#SVGID_00000078005897904894516780000001208552469902055312_);fill:#17B0B4;" d="M118.6,150.3
						c2,0,3.5-1.6,3.5-3.5c0-2-1.6-3.5-3.5-3.5c-2,0-3.5,1.6-3.5,3.5C115.1,148.7,116.7,150.3,118.6,150.3z"/>
					<path style="clip-path:url(#SVGID_00000078005897904894516780000001208552469902055312_);fill:#17B0B4;" d="M142.2,150.3
						c2,0,3.5-1.6,3.5-3.5c0-2-1.6-3.5-3.5-3.5c-2,0-3.5,1.6-3.5,3.5C138.7,148.7,140.3,150.3,142.2,150.3z"/>
					
						<circle style="clip-path:url(#SVGID_00000078005897904894516780000001208552469902055312_);fill:#17B0B4;" cx="118.6" cy="123.1" r="3.5"/>
					<path style="clip-path:url(#SVGID_00000078005897904894516780000001208552469902055312_);fill:#32A4DE;" d="M142.2,126.6
						c2,0,3.5-1.6,3.5-3.5c0-2-1.6-3.5-3.5-3.5c-2,0-3.5,1.6-3.5,3.5C138.7,125,140.3,126.6,142.2,126.6z"/>
					
						<circle style="clip-path:url(#SVGID_00000078005897904894516780000001208552469902055312_);fill:#17B0B4;" cx="95" cy="123.1" r="3.5"/>
					<path style="clip-path:url(#SVGID_00000078005897904894516780000001208552469902055312_);fill:#17B0B4;" d="M95,123.1"/>
				</g>
			</g>
			<g style="clip-path:url(#SVGID_00000155122625029328288700000002264079655369664434_);">
				<g>
					<defs>
						<rect id="SVGID_00000064356189006481715400000017684768727676925614_" x="106.8" y="158.5" width="47.2" height="47.2"/>
					</defs>
					<clipPath id="SVGID_00000009571492657463481640000017571952880124156841_">
						<use xlink:href="#SVGID_00000064356189006481715400000017684768727676925614_"  style="overflow:visible;"/>
					</clipPath>
					<path style="clip-path:url(#SVGID_00000009571492657463481640000017571952880124156841_);fill:#17B0B4;" d="M154,209.3
						c2,0,3.5-1.6,3.5-3.5c0-2-1.6-3.5-3.5-3.5c-2,0-3.5,1.6-3.5,3.5C150.5,207.7,152.1,209.3,154,209.3z"/>
					<path style="clip-path:url(#SVGID_00000009571492657463481640000017571952880124156841_);fill:#17B0B4;" d="M130.4,209.3
						c2,0,3.5-1.6,3.5-3.5c0-2-1.6-3.5-3.5-3.5c-2,0-3.5,1.6-3.5,3.5C126.9,207.7,128.5,209.3,130.4,209.3z"/>
					<path style="clip-path:url(#SVGID_00000009571492657463481640000017571952880124156841_);fill:#17B0B4;" d="M106.8,209.3
						c2,0,3.5-1.6,3.5-3.5c0-2-1.6-3.5-3.5-3.5c-2,0-3.5,1.6-3.5,3.5C103.3,207.7,104.8,209.3,106.8,209.3z"/>
					<path style="clip-path:url(#SVGID_00000009571492657463481640000017571952880124156841_);fill:#17B0B4;" d="M154,185.7
						c2,0,3.5-1.6,3.5-3.5s-1.6-3.5-3.5-3.5c-2,0-3.5,1.6-3.5,3.5S152.1,185.7,154,185.7z"/>
					<path style="clip-path:url(#SVGID_00000009571492657463481640000017571952880124156841_);fill:#17B0B4;" d="M130.4,185.7
						c2,0,3.5-1.6,3.5-3.5s-1.6-3.5-3.5-3.5c-2,0-3.5,1.6-3.5,3.5S128.5,185.7,130.4,185.7z"/>
					<path style="clip-path:url(#SVGID_00000009571492657463481640000017571952880124156841_);fill:#17B0B4;" d="M106.8,185.7
						c2,0,3.5-1.6,3.5-3.5s-1.6-3.5-3.5-3.5c-2,0-3.5,1.6-3.5,3.5S104.8,185.7,106.8,185.7z"/>
					<path style="clip-path:url(#SVGID_00000009571492657463481640000017571952880124156841_);fill:#17B0B4;" d="M154,162.1
						c2,0,3.5-1.6,3.5-3.5c0-2-1.6-3.5-3.5-3.5c-2,0-3.5,1.6-3.5,3.5C150.5,160.5,152.1,162.1,154,162.1z"/>
					<path style="clip-path:url(#SVGID_00000009571492657463481640000017571952880124156841_);fill:#17B0B4;" d="M130.4,162.1
						c2,0,3.5-1.6,3.5-3.5c0-2-1.6-3.5-3.5-3.5c-2,0-3.5,1.6-3.5,3.5C126.9,160.5,128.5,162.1,130.4,162.1z"/>
					<path style="clip-path:url(#SVGID_00000009571492657463481640000017571952880124156841_);fill:#17B0B4;" d="M106.8,162.1
						c2,0,3.5-1.6,3.5-3.5c0-2-1.6-3.5-3.5-3.5c-2,0-3.5,1.6-3.5,3.5C103.3,160.5,104.8,162.1,106.8,162.1z"/>
					<path style="clip-path:url(#SVGID_00000009571492657463481640000017571952880124156841_);fill:#17B0B4;" d="M83.2,162.1
						c2,0,3.5-1.6,3.5-3.5c0-2-1.6-3.5-3.5-3.5c-2,0-3.5,1.6-3.5,3.5C79.6,160.5,81.2,162.1,83.2,162.1z"/>
					<path style="clip-path:url(#SVGID_00000009571492657463481640000017571952880124156841_);fill:#17B0B4;" d="M83.2,158.5"/>
					<path style="clip-path:url(#SVGID_00000009571492657463481640000017571952880124156841_);fill:#17B0B4;" d="M118.6,197.5
						c2,0,3.5-1.6,3.5-3.5c0-2-1.6-3.5-3.5-3.5c-2,0-3.5,1.6-3.5,3.5C115.1,195.9,116.7,197.5,118.6,197.5z"/>
					<path style="clip-path:url(#SVGID_00000009571492657463481640000017571952880124156841_);fill:#17B0B4;" d="M142.2,197.5
						c2,0,3.5-1.6,3.5-3.5c0-2-1.6-3.5-3.5-3.5c-2,0-3.5,1.6-3.5,3.5C138.7,195.9,140.3,197.5,142.2,197.5z"/>
					
						<circle style="clip-path:url(#SVGID_00000009571492657463481640000017571952880124156841_);fill:#17B0B4;" cx="118.6" cy="170.3" r="3.5"/>
					<path style="clip-path:url(#SVGID_00000009571492657463481640000017571952880124156841_);fill:#32A4DE;" d="M142.2,173.9
						c2,0,3.5-1.6,3.5-3.5s-1.6-3.5-3.5-3.5c-2,0-3.5,1.6-3.5,3.5S140.3,173.9,142.2,173.9z"/>
					
						<circle style="clip-path:url(#SVGID_00000009571492657463481640000017571952880124156841_);fill:#17B0B4;" cx="95" cy="170.3" r="3.5"/>
					<path style="clip-path:url(#SVGID_00000009571492657463481640000017571952880124156841_);fill:#17B0B4;" d="M95,170.3"/>
				</g>
			</g>
			<g style="clip-path:url(#SVGID_00000155122625029328288700000002264079655369664434_);">
				<g>
					<defs>
						<rect id="SVGID_00000116947938074855052930000010202627826400452526_" x="59.6" y="16.8" width="47.2" height="47.2"/>
					</defs>
					<clipPath id="SVGID_00000025437076011222281860000017972584517618021262_">
						<use xlink:href="#SVGID_00000116947938074855052930000010202627826400452526_"  style="overflow:visible;"/>
					</clipPath>
					<path style="clip-path:url(#SVGID_00000025437076011222281860000017972584517618021262_);fill:#17B0B4;" d="M106.8,67.6
						c2,0,3.5-1.6,3.5-3.5c0-2-1.6-3.5-3.5-3.5c-2,0-3.5,1.6-3.5,3.5C103.3,66,104.8,67.6,106.8,67.6z"/>
					<path style="clip-path:url(#SVGID_00000025437076011222281860000017972584517618021262_);fill:#17B0B4;" d="M83.2,67.6
						c2,0,3.5-1.6,3.5-3.5c0-2-1.6-3.5-3.5-3.5c-2,0-3.5,1.6-3.5,3.5C79.6,66,81.2,67.6,83.2,67.6z"/>
					<path style="clip-path:url(#SVGID_00000025437076011222281860000017972584517618021262_);fill:#17B0B4;" d="M59.6,67.6
						c2,0,3.5-1.6,3.5-3.5c0-2-1.6-3.5-3.5-3.5c-2,0-3.5,1.6-3.5,3.5C56,66,57.6,67.6,59.6,67.6z"/>
					<path style="clip-path:url(#SVGID_00000025437076011222281860000017972584517618021262_);fill:#17B0B4;" d="M106.8,44
						c2,0,3.5-1.6,3.5-3.5c0-2-1.6-3.5-3.5-3.5c-2,0-3.5,1.6-3.5,3.5C103.3,42.4,104.8,44,106.8,44z"/>
					<path style="clip-path:url(#SVGID_00000025437076011222281860000017972584517618021262_);fill:#17B0B4;" d="M83.2,44
						c2,0,3.5-1.6,3.5-3.5c0-2-1.6-3.5-3.5-3.5c-2,0-3.5,1.6-3.5,3.5C79.6,42.4,81.2,44,83.2,44z"/>
					<path style="clip-path:url(#SVGID_00000025437076011222281860000017972584517618021262_);fill:#17B0B4;" d="M59.6,44
						c2,0,3.5-1.6,3.5-3.5c0-2-1.6-3.5-3.5-3.5c-2,0-3.5,1.6-3.5,3.5C56,42.4,57.6,44,59.6,44z"/>
					<path style="clip-path:url(#SVGID_00000025437076011222281860000017972584517618021262_);fill:#17B0B4;" d="M106.8,20.4
						c2,0,3.5-1.6,3.5-3.5c0-2-1.6-3.5-3.5-3.5c-2,0-3.5,1.6-3.5,3.5C103.3,18.8,104.8,20.4,106.8,20.4z"/>
					<path style="clip-path:url(#SVGID_00000025437076011222281860000017972584517618021262_);fill:#17B0B4;" d="M83.2,20.4
						c2,0,3.5-1.6,3.5-3.5c0-2-1.6-3.5-3.5-3.5c-2,0-3.5,1.6-3.5,3.5C79.6,18.8,81.2,20.4,83.2,20.4z"/>
					<path style="clip-path:url(#SVGID_00000025437076011222281860000017972584517618021262_);fill:#17B0B4;" d="M59.6,20.4
						c2,0,3.5-1.6,3.5-3.5c0-2-1.6-3.5-3.5-3.5c-2,0-3.5,1.6-3.5,3.5C56,18.8,57.6,20.4,59.6,20.4z"/>
					<path style="clip-path:url(#SVGID_00000025437076011222281860000017972584517618021262_);fill:#17B0B4;" d="M35.9,20.4
						c2,0,3.5-1.6,3.5-3.5c0-2-1.6-3.5-3.5-3.5c-2,0-3.5,1.6-3.5,3.5C32.4,18.8,34,20.4,35.9,20.4z"/>
					<path style="clip-path:url(#SVGID_00000025437076011222281860000017972584517618021262_);fill:#17B0B4;" d="M35.9,16.8"/>
					<path style="clip-path:url(#SVGID_00000025437076011222281860000017972584517618021262_);fill:#17B0B4;" d="M71.4,55.8
						c2,0,3.5-1.6,3.5-3.5c0-2-1.6-3.5-3.5-3.5c-2,0-3.5,1.6-3.5,3.5C67.8,54.2,69.4,55.8,71.4,55.8z"/>
					<path style="clip-path:url(#SVGID_00000025437076011222281860000017972584517618021262_);fill:#17B0B4;" d="M95,55.8
						c2,0,3.5-1.6,3.5-3.5c0-2-1.6-3.5-3.5-3.5c-2,0-3.5,1.6-3.5,3.5C91.5,54.2,93,55.8,95,55.8z"/>
					
						<circle style="clip-path:url(#SVGID_00000025437076011222281860000017972584517618021262_);fill:#17B0B4;" cx="71.4" cy="28.6" r="3.5"/>
					<path style="clip-path:url(#SVGID_00000025437076011222281860000017972584517618021262_);fill:#32A4DE;" d="M95,32.2
						c2,0,3.5-1.6,3.5-3.5s-1.6-3.5-3.5-3.5c-2,0-3.5,1.6-3.5,3.5S93,32.2,95,32.2z"/>
					
						<circle style="clip-path:url(#SVGID_00000025437076011222281860000017972584517618021262_);fill:#17B0B4;" cx="47.8" cy="28.6" r="3.5"/>
					<path style="clip-path:url(#SVGID_00000025437076011222281860000017972584517618021262_);fill:#17B0B4;" d="M47.8,28.6"/>
				</g>
			</g>
			<g style="clip-path:url(#SVGID_00000155122625029328288700000002264079655369664434_);">
				<g>
					<defs>
						<rect id="SVGID_00000065753302161997300860000008904089685813359005_" x="59.6" y="64" width="47.2" height="47.2"/>
					</defs>
					<clipPath id="SVGID_00000124146542148156073950000004619014429271974288_">
						<use xlink:href="#SVGID_00000065753302161997300860000008904089685813359005_"  style="overflow:visible;"/>
					</clipPath>
					<path style="clip-path:url(#SVGID_00000124146542148156073950000004619014429271974288_);fill:#17B0B4;" d="M106.8,114.8
						c2,0,3.5-1.6,3.5-3.5c0-2-1.6-3.5-3.5-3.5c-2,0-3.5,1.6-3.5,3.5C103.3,113.2,104.8,114.8,106.8,114.8z"/>
					<path style="clip-path:url(#SVGID_00000124146542148156073950000004619014429271974288_);fill:#17B0B4;" d="M83.2,114.8
						c2,0,3.5-1.6,3.5-3.5c0-2-1.6-3.5-3.5-3.5c-2,0-3.5,1.6-3.5,3.5C79.6,113.2,81.2,114.8,83.2,114.8z"/>
					<path style="clip-path:url(#SVGID_00000124146542148156073950000004619014429271974288_);fill:#17B0B4;" d="M59.6,114.8
						c2,0,3.5-1.6,3.5-3.5c0-2-1.6-3.5-3.5-3.5c-2,0-3.5,1.6-3.5,3.5C56,113.2,57.6,114.8,59.6,114.8z"/>
					<path style="clip-path:url(#SVGID_00000124146542148156073950000004619014429271974288_);fill:#17B0B4;" d="M106.8,91.2
						c2,0,3.5-1.6,3.5-3.5c0-2-1.6-3.5-3.5-3.5c-2,0-3.5,1.6-3.5,3.5C103.3,89.6,104.8,91.2,106.8,91.2z"/>
					<path style="clip-path:url(#SVGID_00000124146542148156073950000004619014429271974288_);fill:#17B0B4;" d="M83.2,91.2
						c2,0,3.5-1.6,3.5-3.5c0-2-1.6-3.5-3.5-3.5c-2,0-3.5,1.6-3.5,3.5C79.6,89.6,81.2,91.2,83.2,91.2z"/>
					<path style="clip-path:url(#SVGID_00000124146542148156073950000004619014429271974288_);fill:#17B0B4;" d="M59.6,91.2
						c2,0,3.5-1.6,3.5-3.5c0-2-1.6-3.5-3.5-3.5c-2,0-3.5,1.6-3.5,3.5C56,89.6,57.6,91.2,59.6,91.2z"/>
					<path style="clip-path:url(#SVGID_00000124146542148156073950000004619014429271974288_);fill:#17B0B4;" d="M106.8,67.6
						c2,0,3.5-1.6,3.5-3.5c0-2-1.6-3.5-3.5-3.5c-2,0-3.5,1.6-3.5,3.5C103.3,66,104.8,67.6,106.8,67.6z"/>
					<path style="clip-path:url(#SVGID_00000124146542148156073950000004619014429271974288_);fill:#17B0B4;" d="M83.2,67.6
						c2,0,3.5-1.6,3.5-3.5c0-2-1.6-3.5-3.5-3.5c-2,0-3.5,1.6-3.5,3.5C79.6,66,81.2,67.6,83.2,67.6z"/>
					<path style="clip-path:url(#SVGID_00000124146542148156073950000004619014429271974288_);fill:#17B0B4;" d="M59.6,67.6
						c2,0,3.5-1.6,3.5-3.5c0-2-1.6-3.5-3.5-3.5c-2,0-3.5,1.6-3.5,3.5C56,66,57.6,67.6,59.6,67.6z"/>
					<path style="clip-path:url(#SVGID_00000124146542148156073950000004619014429271974288_);fill:#17B0B4;" d="M35.9,67.6
						c2,0,3.5-1.6,3.5-3.5c0-2-1.6-3.5-3.5-3.5c-2,0-3.5,1.6-3.5,3.5C32.4,66,34,67.6,35.9,67.6z"/>
					<path style="clip-path:url(#SVGID_00000124146542148156073950000004619014429271974288_);fill:#17B0B4;" d="M35.9,64"/>
					<path style="clip-path:url(#SVGID_00000124146542148156073950000004619014429271974288_);fill:#17B0B4;" d="M71.4,103
						c2,0,3.5-1.6,3.5-3.5c0-2-1.6-3.5-3.5-3.5c-2,0-3.5,1.6-3.5,3.5C67.8,101.4,69.4,103,71.4,103z"/>
					<path style="clip-path:url(#SVGID_00000124146542148156073950000004619014429271974288_);fill:#17B0B4;" d="M95,103
						c2,0,3.5-1.6,3.5-3.5c0-2-1.6-3.5-3.5-3.5c-2,0-3.5,1.6-3.5,3.5C91.5,101.4,93,103,95,103z"/>
					
						<circle style="clip-path:url(#SVGID_00000124146542148156073950000004619014429271974288_);fill:#17B0B4;" cx="71.4" cy="75.9" r="3.5"/>
					<path style="clip-path:url(#SVGID_00000124146542148156073950000004619014429271974288_);fill:#32A4DE;" d="M95,79.4
						c2,0,3.5-1.6,3.5-3.5s-1.6-3.5-3.5-3.5c-2,0-3.5,1.6-3.5,3.5S93,79.4,95,79.4z"/>
					
						<circle style="clip-path:url(#SVGID_00000124146542148156073950000004619014429271974288_);fill:#17B0B4;" cx="47.8" cy="75.9" r="3.5"/>
					<path style="clip-path:url(#SVGID_00000124146542148156073950000004619014429271974288_);fill:#17B0B4;" d="M47.8,75.9"/>
				</g>
			</g>
			<g style="clip-path:url(#SVGID_00000155122625029328288700000002264079655369664434_);">
				<g>
					<defs>
						<rect id="SVGID_00000141427669893772699240000015613098075211069078_" x="59.6" y="111.3" width="47.2" height="47.2"/>
					</defs>
					<clipPath id="SVGID_00000039812423940315928590000005308905126479953078_">
						<use xlink:href="#SVGID_00000141427669893772699240000015613098075211069078_"  style="overflow:visible;"/>
					</clipPath>
					<path style="clip-path:url(#SVGID_00000039812423940315928590000005308905126479953078_);fill:#17B0B4;" d="M106.8,162.1
						c2,0,3.5-1.6,3.5-3.5c0-2-1.6-3.5-3.5-3.5c-2,0-3.5,1.6-3.5,3.5C103.3,160.5,104.8,162.1,106.8,162.1z"/>
					<path style="clip-path:url(#SVGID_00000039812423940315928590000005308905126479953078_);fill:#17B0B4;" d="M83.2,162.1
						c2,0,3.5-1.6,3.5-3.5c0-2-1.6-3.5-3.5-3.5c-2,0-3.5,1.6-3.5,3.5C79.6,160.5,81.2,162.1,83.2,162.1z"/>
					<path style="clip-path:url(#SVGID_00000039812423940315928590000005308905126479953078_);fill:#17B0B4;" d="M59.6,162.1
						c2,0,3.5-1.6,3.5-3.5c0-2-1.6-3.5-3.5-3.5c-2,0-3.5,1.6-3.5,3.5C56,160.5,57.6,162.1,59.6,162.1z"/>
					<path style="clip-path:url(#SVGID_00000039812423940315928590000005308905126479953078_);fill:#17B0B4;" d="M106.8,138.4
						c2,0,3.5-1.6,3.5-3.5s-1.6-3.5-3.5-3.5c-2,0-3.5,1.6-3.5,3.5S104.8,138.4,106.8,138.4z"/>
					<path style="clip-path:url(#SVGID_00000039812423940315928590000005308905126479953078_);fill:#17B0B4;" d="M83.2,138.4
						c2,0,3.5-1.6,3.5-3.5s-1.6-3.5-3.5-3.5c-2,0-3.5,1.6-3.5,3.5S81.2,138.4,83.2,138.4z"/>
					<path style="clip-path:url(#SVGID_00000039812423940315928590000005308905126479953078_);fill:#17B0B4;" d="M59.6,138.4
						c2,0,3.5-1.6,3.5-3.5s-1.6-3.5-3.5-3.5c-2,0-3.5,1.6-3.5,3.5S57.6,138.4,59.6,138.4z"/>
					<path style="clip-path:url(#SVGID_00000039812423940315928590000005308905126479953078_);fill:#17B0B4;" d="M106.8,114.8
						c2,0,3.5-1.6,3.5-3.5c0-2-1.6-3.5-3.5-3.5c-2,0-3.5,1.6-3.5,3.5C103.3,113.2,104.8,114.8,106.8,114.8z"/>
					<path style="clip-path:url(#SVGID_00000039812423940315928590000005308905126479953078_);fill:#17B0B4;" d="M83.2,114.8
						c2,0,3.5-1.6,3.5-3.5c0-2-1.6-3.5-3.5-3.5c-2,0-3.5,1.6-3.5,3.5C79.6,113.2,81.2,114.8,83.2,114.8z"/>
					<path style="clip-path:url(#SVGID_00000039812423940315928590000005308905126479953078_);fill:#17B0B4;" d="M59.6,114.8
						c2,0,3.5-1.6,3.5-3.5c0-2-1.6-3.5-3.5-3.5c-2,0-3.5,1.6-3.5,3.5C56,113.2,57.6,114.8,59.6,114.8z"/>
					<path style="clip-path:url(#SVGID_00000039812423940315928590000005308905126479953078_);fill:#17B0B4;" d="M35.9,114.8
						c2,0,3.5-1.6,3.5-3.5c0-2-1.6-3.5-3.5-3.5c-2,0-3.5,1.6-3.5,3.5C32.4,113.2,34,114.8,35.9,114.8z"/>
					<path style="clip-path:url(#SVGID_00000039812423940315928590000005308905126479953078_);fill:#17B0B4;" d="M35.9,111.3"/>
					<path style="clip-path:url(#SVGID_00000039812423940315928590000005308905126479953078_);fill:#17B0B4;" d="M71.4,150.3
						c2,0,3.5-1.6,3.5-3.5c0-2-1.6-3.5-3.5-3.5c-2,0-3.5,1.6-3.5,3.5C67.8,148.7,69.4,150.3,71.4,150.3z"/>
					<path style="clip-path:url(#SVGID_00000039812423940315928590000005308905126479953078_);fill:#17B0B4;" d="M95,150.3
						c2,0,3.5-1.6,3.5-3.5c0-2-1.6-3.5-3.5-3.5c-2,0-3.5,1.6-3.5,3.5C91.5,148.7,93,150.3,95,150.3z"/>
					
						<circle style="clip-path:url(#SVGID_00000039812423940315928590000005308905126479953078_);fill:#17B0B4;" cx="71.4" cy="123.1" r="3.5"/>
					<path style="clip-path:url(#SVGID_00000039812423940315928590000005308905126479953078_);fill:#32A4DE;" d="M95,126.6
						c2,0,3.5-1.6,3.5-3.5c0-2-1.6-3.5-3.5-3.5c-2,0-3.5,1.6-3.5,3.5C91.5,125,93,126.6,95,126.6z"/>
					
						<circle style="clip-path:url(#SVGID_00000039812423940315928590000005308905126479953078_);fill:#17B0B4;" cx="47.8" cy="123.1" r="3.5"/>
					<path style="clip-path:url(#SVGID_00000039812423940315928590000005308905126479953078_);fill:#17B0B4;" d="M47.8,123.1"/>
				</g>
			</g>
			<g style="clip-path:url(#SVGID_00000155122625029328288700000002264079655369664434_);">
				<g>
					<defs>
						<rect id="SVGID_00000043420866104919881060000009589100985500317578_" x="59.6" y="158.5" width="47.2" height="47.2"/>
					</defs>
					<clipPath id="SVGID_00000125563754518180525960000012829263297164697776_">
						<use xlink:href="#SVGID_00000043420866104919881060000009589100985500317578_"  style="overflow:visible;"/>
					</clipPath>
					<path style="clip-path:url(#SVGID_00000125563754518180525960000012829263297164697776_);fill:#17B0B4;" d="M106.8,209.3
						c2,0,3.5-1.6,3.5-3.5c0-2-1.6-3.5-3.5-3.5c-2,0-3.5,1.6-3.5,3.5C103.3,207.7,104.8,209.3,106.8,209.3z"/>
					<path style="clip-path:url(#SVGID_00000125563754518180525960000012829263297164697776_);fill:#17B0B4;" d="M83.2,209.3
						c2,0,3.5-1.6,3.5-3.5c0-2-1.6-3.5-3.5-3.5c-2,0-3.5,1.6-3.5,3.5C79.6,207.7,81.2,209.3,83.2,209.3z"/>
					<path style="clip-path:url(#SVGID_00000125563754518180525960000012829263297164697776_);fill:#17B0B4;" d="M59.6,209.3
						c2,0,3.5-1.6,3.5-3.5c0-2-1.6-3.5-3.5-3.5c-2,0-3.5,1.6-3.5,3.5C56,207.7,57.6,209.3,59.6,209.3z"/>
					<path style="clip-path:url(#SVGID_00000125563754518180525960000012829263297164697776_);fill:#17B0B4;" d="M106.8,185.7
						c2,0,3.5-1.6,3.5-3.5s-1.6-3.5-3.5-3.5c-2,0-3.5,1.6-3.5,3.5S104.8,185.7,106.8,185.7z"/>
					<path style="clip-path:url(#SVGID_00000125563754518180525960000012829263297164697776_);fill:#17B0B4;" d="M83.2,185.7
						c2,0,3.5-1.6,3.5-3.5s-1.6-3.5-3.5-3.5c-2,0-3.5,1.6-3.5,3.5S81.2,185.7,83.2,185.7z"/>
					<path style="clip-path:url(#SVGID_00000125563754518180525960000012829263297164697776_);fill:#17B0B4;" d="M59.6,185.7
						c2,0,3.5-1.6,3.5-3.5s-1.6-3.5-3.5-3.5c-2,0-3.5,1.6-3.5,3.5S57.6,185.7,59.6,185.7z"/>
					<path style="clip-path:url(#SVGID_00000125563754518180525960000012829263297164697776_);fill:#17B0B4;" d="M106.8,162.1
						c2,0,3.5-1.6,3.5-3.5c0-2-1.6-3.5-3.5-3.5c-2,0-3.5,1.6-3.5,3.5C103.3,160.5,104.8,162.1,106.8,162.1z"/>
					<path style="clip-path:url(#SVGID_00000125563754518180525960000012829263297164697776_);fill:#17B0B4;" d="M83.2,162.1
						c2,0,3.5-1.6,3.5-3.5c0-2-1.6-3.5-3.5-3.5c-2,0-3.5,1.6-3.5,3.5C79.6,160.5,81.2,162.1,83.2,162.1z"/>
					<path style="clip-path:url(#SVGID_00000125563754518180525960000012829263297164697776_);fill:#17B0B4;" d="M59.6,162.1
						c2,0,3.5-1.6,3.5-3.5c0-2-1.6-3.5-3.5-3.5c-2,0-3.5,1.6-3.5,3.5C56,160.5,57.6,162.1,59.6,162.1z"/>
					<path style="clip-path:url(#SVGID_00000125563754518180525960000012829263297164697776_);fill:#17B0B4;" d="M35.9,162.1
						c2,0,3.5-1.6,3.5-3.5c0-2-1.6-3.5-3.5-3.5c-2,0-3.5,1.6-3.5,3.5C32.4,160.5,34,162.1,35.9,162.1z"/>
					<path style="clip-path:url(#SVGID_00000125563754518180525960000012829263297164697776_);fill:#17B0B4;" d="M35.9,158.5"/>
					<path style="clip-path:url(#SVGID_00000125563754518180525960000012829263297164697776_);fill:#17B0B4;" d="M71.4,197.5
						c2,0,3.5-1.6,3.5-3.5c0-2-1.6-3.5-3.5-3.5c-2,0-3.5,1.6-3.5,3.5C67.8,195.9,69.4,197.5,71.4,197.5z"/>
					<path style="clip-path:url(#SVGID_00000125563754518180525960000012829263297164697776_);fill:#17B0B4;" d="M95,197.5
						c2,0,3.5-1.6,3.5-3.5c0-2-1.6-3.5-3.5-3.5c-2,0-3.5,1.6-3.5,3.5C91.5,195.9,93,197.5,95,197.5z"/>
					
						<circle style="clip-path:url(#SVGID_00000125563754518180525960000012829263297164697776_);fill:#17B0B4;" cx="71.4" cy="170.3" r="3.5"/>
					<path style="clip-path:url(#SVGID_00000125563754518180525960000012829263297164697776_);fill:#32A4DE;" d="M95,173.9
						c2,0,3.5-1.6,3.5-3.5s-1.6-3.5-3.5-3.5c-2,0-3.5,1.6-3.5,3.5S93,173.9,95,173.9z"/>
					
						<circle style="clip-path:url(#SVGID_00000125563754518180525960000012829263297164697776_);fill:#17B0B4;" cx="47.8" cy="170.3" r="3.5"/>
					<path style="clip-path:url(#SVGID_00000125563754518180525960000012829263297164697776_);fill:#17B0B4;" d="M47.8,170.3"/>
				</g>
			</g>
			<g style="clip-path:url(#SVGID_00000155122625029328288700000002264079655369664434_);">
				<g>
					<defs>
						<rect id="SVGID_00000083054319856618726660000000396424296727997625_" x="12.3" y="16.8" width="47.2" height="47.2"/>
					</defs>
					<clipPath id="SVGID_00000101102329216014268200000002660844073306013085_">
						<use xlink:href="#SVGID_00000083054319856618726660000000396424296727997625_"  style="overflow:visible;"/>
					</clipPath>
					<path style="clip-path:url(#SVGID_00000101102329216014268200000002660844073306013085_);fill:#17B0B4;" d="M59.6,67.6
						c2,0,3.5-1.6,3.5-3.5c0-2-1.6-3.5-3.5-3.5c-2,0-3.5,1.6-3.5,3.5C56,66,57.6,67.6,59.6,67.6z"/>
					<path style="clip-path:url(#SVGID_00000101102329216014268200000002660844073306013085_);fill:#17B0B4;" d="M35.9,67.6
						c2,0,3.5-1.6,3.5-3.5c0-2-1.6-3.5-3.5-3.5c-2,0-3.5,1.6-3.5,3.5C32.4,66,34,67.6,35.9,67.6z"/>
					<path style="clip-path:url(#SVGID_00000101102329216014268200000002660844073306013085_);fill:#17B0B4;" d="M12.3,67.6
						c2,0,3.5-1.6,3.5-3.5c0-2-1.6-3.5-3.5-3.5c-2,0-3.5,1.6-3.5,3.5C8.8,66,10.4,67.6,12.3,67.6z"/>
					<path style="clip-path:url(#SVGID_00000101102329216014268200000002660844073306013085_);fill:#17B0B4;" d="M59.6,44
						c2,0,3.5-1.6,3.5-3.5c0-2-1.6-3.5-3.5-3.5c-2,0-3.5,1.6-3.5,3.5C56,42.4,57.6,44,59.6,44z"/>
					<path style="clip-path:url(#SVGID_00000101102329216014268200000002660844073306013085_);fill:#17B0B4;" d="M35.9,44
						c2,0,3.5-1.6,3.5-3.5c0-2-1.6-3.5-3.5-3.5c-2,0-3.5,1.6-3.5,3.5C32.4,42.4,34,44,35.9,44z"/>
					<path style="clip-path:url(#SVGID_00000101102329216014268200000002660844073306013085_);fill:#17B0B4;" d="M12.3,44
						c2,0,3.5-1.6,3.5-3.5c0-2-1.6-3.5-3.5-3.5c-2,0-3.5,1.6-3.5,3.5C8.8,42.4,10.4,44,12.3,44z"/>
					<path style="clip-path:url(#SVGID_00000101102329216014268200000002660844073306013085_);fill:#17B0B4;" d="M59.6,20.4
						c2,0,3.5-1.6,3.5-3.5c0-2-1.6-3.5-3.5-3.5c-2,0-3.5,1.6-3.5,3.5C56,18.8,57.6,20.4,59.6,20.4z"/>
					<path style="clip-path:url(#SVGID_00000101102329216014268200000002660844073306013085_);fill:#17B0B4;" d="M35.9,20.4
						c2,0,3.5-1.6,3.5-3.5c0-2-1.6-3.5-3.5-3.5c-2,0-3.5,1.6-3.5,3.5C32.4,18.8,34,20.4,35.9,20.4z"/>
					<path style="clip-path:url(#SVGID_00000101102329216014268200000002660844073306013085_);fill:#17B0B4;" d="M12.3,20.4
						c2,0,3.5-1.6,3.5-3.5c0-2-1.6-3.5-3.5-3.5c-2,0-3.5,1.6-3.5,3.5C8.8,18.8,10.4,20.4,12.3,20.4z"/>
					<path style="clip-path:url(#SVGID_00000101102329216014268200000002660844073306013085_);fill:#17B0B4;" d="M-11.3,20.4
						c2,0,3.5-1.6,3.5-3.5c0-2-1.6-3.5-3.5-3.5c-2,0-3.5,1.6-3.5,3.5C-14.8,18.8-13.2,20.4-11.3,20.4z"/>
					<path style="clip-path:url(#SVGID_00000101102329216014268200000002660844073306013085_);fill:#17B0B4;" d="M-11.3,16.8"/>
					<path style="clip-path:url(#SVGID_00000101102329216014268200000002660844073306013085_);fill:#17B0B4;" d="M24.1,55.8
						c2,0,3.5-1.6,3.5-3.5c0-2-1.6-3.5-3.5-3.5c-2,0-3.5,1.6-3.5,3.5C20.6,54.2,22.2,55.8,24.1,55.8z"/>
					<path style="clip-path:url(#SVGID_00000101102329216014268200000002660844073306013085_);fill:#17B0B4;" d="M47.8,55.8
						c2,0,3.5-1.6,3.5-3.5c0-2-1.6-3.5-3.5-3.5c-2,0-3.5,1.6-3.5,3.5C44.2,54.2,45.8,55.8,47.8,55.8z"/>
					
						<circle style="clip-path:url(#SVGID_00000101102329216014268200000002660844073306013085_);fill:#17B0B4;" cx="24.1" cy="28.6" r="3.5"/>
					<path style="clip-path:url(#SVGID_00000101102329216014268200000002660844073306013085_);fill:#32A4DE;" d="M47.8,32.2
						c2,0,3.5-1.6,3.5-3.5s-1.6-3.5-3.5-3.5c-2,0-3.5,1.6-3.5,3.5S45.8,32.2,47.8,32.2z"/>
					
						<circle style="clip-path:url(#SVGID_00000101102329216014268200000002660844073306013085_);fill:#17B0B4;" cx="0.5" cy="28.6" r="3.5"/>
					<path style="clip-path:url(#SVGID_00000101102329216014268200000002660844073306013085_);fill:#17B0B4;" d="M0.5,28.6"/>
				</g>
			</g>
			<g style="clip-path:url(#SVGID_00000155122625029328288700000002264079655369664434_);">
				<g>
					<defs>
						<rect id="SVGID_00000031188751829223121170000017643663316223139209_" x="12.3" y="64" width="47.2" height="47.2"/>
					</defs>
					<clipPath id="SVGID_00000173857427944466499550000013818794045289002143_">
						<use xlink:href="#SVGID_00000031188751829223121170000017643663316223139209_"  style="overflow:visible;"/>
					</clipPath>
					<path style="clip-path:url(#SVGID_00000173857427944466499550000013818794045289002143_);fill:#17B0B4;" d="M59.6,114.8
						c2,0,3.5-1.6,3.5-3.5c0-2-1.6-3.5-3.5-3.5c-2,0-3.5,1.6-3.5,3.5C56,113.2,57.6,114.8,59.6,114.8z"/>
					<path style="clip-path:url(#SVGID_00000173857427944466499550000013818794045289002143_);fill:#17B0B4;" d="M35.9,114.8
						c2,0,3.5-1.6,3.5-3.5c0-2-1.6-3.5-3.5-3.5c-2,0-3.5,1.6-3.5,3.5C32.4,113.2,34,114.8,35.9,114.8z"/>
					<path style="clip-path:url(#SVGID_00000173857427944466499550000013818794045289002143_);fill:#17B0B4;" d="M12.3,114.8
						c2,0,3.5-1.6,3.5-3.5c0-2-1.6-3.5-3.5-3.5c-2,0-3.5,1.6-3.5,3.5C8.8,113.2,10.4,114.8,12.3,114.8z"/>
					<path style="clip-path:url(#SVGID_00000173857427944466499550000013818794045289002143_);fill:#17B0B4;" d="M59.6,91.2
						c2,0,3.5-1.6,3.5-3.5c0-2-1.6-3.5-3.5-3.5c-2,0-3.5,1.6-3.5,3.5C56,89.6,57.6,91.2,59.6,91.2z"/>
					<path style="clip-path:url(#SVGID_00000173857427944466499550000013818794045289002143_);fill:#17B0B4;" d="M35.9,91.2
						c2,0,3.5-1.6,3.5-3.5c0-2-1.6-3.5-3.5-3.5c-2,0-3.5,1.6-3.5,3.5C32.4,89.6,34,91.2,35.9,91.2z"/>
					<path style="clip-path:url(#SVGID_00000173857427944466499550000013818794045289002143_);fill:#17B0B4;" d="M12.3,91.2
						c2,0,3.5-1.6,3.5-3.5c0-2-1.6-3.5-3.5-3.5c-2,0-3.5,1.6-3.5,3.5C8.8,89.6,10.4,91.2,12.3,91.2z"/>
					<path style="clip-path:url(#SVGID_00000173857427944466499550000013818794045289002143_);fill:#17B0B4;" d="M59.6,67.6
						c2,0,3.5-1.6,3.5-3.5c0-2-1.6-3.5-3.5-3.5c-2,0-3.5,1.6-3.5,3.5C56,66,57.6,67.6,59.6,67.6z"/>
					<path style="clip-path:url(#SVGID_00000173857427944466499550000013818794045289002143_);fill:#17B0B4;" d="M35.9,67.6
						c2,0,3.5-1.6,3.5-3.5c0-2-1.6-3.5-3.5-3.5c-2,0-3.5,1.6-3.5,3.5C32.4,66,34,67.6,35.9,67.6z"/>
					<path style="clip-path:url(#SVGID_00000173857427944466499550000013818794045289002143_);fill:#17B0B4;" d="M12.3,67.6
						c2,0,3.5-1.6,3.5-3.5c0-2-1.6-3.5-3.5-3.5c-2,0-3.5,1.6-3.5,3.5C8.8,66,10.4,67.6,12.3,67.6z"/>
					<path style="clip-path:url(#SVGID_00000173857427944466499550000013818794045289002143_);fill:#17B0B4;" d="M-11.3,67.6
						c2,0,3.5-1.6,3.5-3.5c0-2-1.6-3.5-3.5-3.5c-2,0-3.5,1.6-3.5,3.5C-14.8,66-13.2,67.6-11.3,67.6z"/>
					<path style="clip-path:url(#SVGID_00000173857427944466499550000013818794045289002143_);fill:#17B0B4;" d="M-11.3,64"/>
					<path style="clip-path:url(#SVGID_00000173857427944466499550000013818794045289002143_);fill:#17B0B4;" d="M24.1,103
						c2,0,3.5-1.6,3.5-3.5c0-2-1.6-3.5-3.5-3.5c-2,0-3.5,1.6-3.5,3.5C20.6,101.4,22.2,103,24.1,103z"/>
					<path style="clip-path:url(#SVGID_00000173857427944466499550000013818794045289002143_);fill:#17B0B4;" d="M47.8,103
						c2,0,3.5-1.6,3.5-3.5c0-2-1.6-3.5-3.5-3.5c-2,0-3.5,1.6-3.5,3.5C44.2,101.4,45.8,103,47.8,103z"/>
					
						<circle style="clip-path:url(#SVGID_00000173857427944466499550000013818794045289002143_);fill:#17B0B4;" cx="24.1" cy="75.9" r="3.5"/>
					<path style="clip-path:url(#SVGID_00000173857427944466499550000013818794045289002143_);fill:#32A4DE;" d="M47.8,79.4
						c2,0,3.5-1.6,3.5-3.5s-1.6-3.5-3.5-3.5c-2,0-3.5,1.6-3.5,3.5S45.8,79.4,47.8,79.4z"/>
					
						<circle style="clip-path:url(#SVGID_00000173857427944466499550000013818794045289002143_);fill:#17B0B4;" cx="0.5" cy="75.9" r="3.5"/>
					<path style="clip-path:url(#SVGID_00000173857427944466499550000013818794045289002143_);fill:#17B0B4;" d="M0.5,75.9"/>
				</g>
			</g>
			<g style="clip-path:url(#SVGID_00000155122625029328288700000002264079655369664434_);">
				<g>
					<defs>
						<rect id="SVGID_00000178899319937775606630000015072162296751239041_" x="12.3" y="111.3" width="47.2" height="47.2"/>
					</defs>
					<clipPath id="SVGID_00000174595628016400419960000002366832705257850030_">
						<use xlink:href="#SVGID_00000178899319937775606630000015072162296751239041_"  style="overflow:visible;"/>
					</clipPath>
					<path style="clip-path:url(#SVGID_00000174595628016400419960000002366832705257850030_);fill:#17B0B4;" d="M59.6,162.1
						c2,0,3.5-1.6,3.5-3.5c0-2-1.6-3.5-3.5-3.5c-2,0-3.5,1.6-3.5,3.5C56,160.5,57.6,162.1,59.6,162.1z"/>
					<path style="clip-path:url(#SVGID_00000174595628016400419960000002366832705257850030_);fill:#17B0B4;" d="M35.9,162.1
						c2,0,3.5-1.6,3.5-3.5c0-2-1.6-3.5-3.5-3.5c-2,0-3.5,1.6-3.5,3.5C32.4,160.5,34,162.1,35.9,162.1z"/>
					<path style="clip-path:url(#SVGID_00000174595628016400419960000002366832705257850030_);fill:#17B0B4;" d="M12.3,162.1
						c2,0,3.5-1.6,3.5-3.5c0-2-1.6-3.5-3.5-3.5c-2,0-3.5,1.6-3.5,3.5C8.8,160.5,10.4,162.1,12.3,162.1z"/>
					<path style="clip-path:url(#SVGID_00000174595628016400419960000002366832705257850030_);fill:#17B0B4;" d="M59.6,138.4
						c2,0,3.5-1.6,3.5-3.5s-1.6-3.5-3.5-3.5c-2,0-3.5,1.6-3.5,3.5S57.6,138.4,59.6,138.4z"/>
					<path style="clip-path:url(#SVGID_00000174595628016400419960000002366832705257850030_);fill:#17B0B4;" d="M35.9,138.4
						c2,0,3.5-1.6,3.5-3.5s-1.6-3.5-3.5-3.5c-2,0-3.5,1.6-3.5,3.5S34,138.4,35.9,138.4z"/>
					<path style="clip-path:url(#SVGID_00000174595628016400419960000002366832705257850030_);fill:#17B0B4;" d="M12.3,138.4
						c2,0,3.5-1.6,3.5-3.5s-1.6-3.5-3.5-3.5c-2,0-3.5,1.6-3.5,3.5S10.4,138.4,12.3,138.4z"/>
					<path style="clip-path:url(#SVGID_00000174595628016400419960000002366832705257850030_);fill:#17B0B4;" d="M59.6,114.8
						c2,0,3.5-1.6,3.5-3.5c0-2-1.6-3.5-3.5-3.5c-2,0-3.5,1.6-3.5,3.5C56,113.2,57.6,114.8,59.6,114.8z"/>
					<path style="clip-path:url(#SVGID_00000174595628016400419960000002366832705257850030_);fill:#17B0B4;" d="M35.9,114.8
						c2,0,3.5-1.6,3.5-3.5c0-2-1.6-3.5-3.5-3.5c-2,0-3.5,1.6-3.5,3.5C32.4,113.2,34,114.8,35.9,114.8z"/>
					<path style="clip-path:url(#SVGID_00000174595628016400419960000002366832705257850030_);fill:#17B0B4;" d="M12.3,114.8
						c2,0,3.5-1.6,3.5-3.5c0-2-1.6-3.5-3.5-3.5c-2,0-3.5,1.6-3.5,3.5C8.8,113.2,10.4,114.8,12.3,114.8z"/>
					<path style="clip-path:url(#SVGID_00000174595628016400419960000002366832705257850030_);fill:#17B0B4;" d="M-11.3,114.8
						c2,0,3.5-1.6,3.5-3.5c0-2-1.6-3.5-3.5-3.5c-2,0-3.5,1.6-3.5,3.5C-14.8,113.2-13.2,114.8-11.3,114.8z"/>
					<path style="clip-path:url(#SVGID_00000174595628016400419960000002366832705257850030_);fill:#17B0B4;" d="M-11.3,111.3"/>
					<path style="clip-path:url(#SVGID_00000174595628016400419960000002366832705257850030_);fill:#17B0B4;" d="M24.1,150.3
						c2,0,3.5-1.6,3.5-3.5c0-2-1.6-3.5-3.5-3.5c-2,0-3.5,1.6-3.5,3.5C20.6,148.7,22.2,150.3,24.1,150.3z"/>
					<path style="clip-path:url(#SVGID_00000174595628016400419960000002366832705257850030_);fill:#17B0B4;" d="M47.8,150.3
						c2,0,3.5-1.6,3.5-3.5c0-2-1.6-3.5-3.5-3.5c-2,0-3.5,1.6-3.5,3.5C44.2,148.7,45.8,150.3,47.8,150.3z"/>
					
						<circle style="clip-path:url(#SVGID_00000174595628016400419960000002366832705257850030_);fill:#17B0B4;" cx="24.1" cy="123.1" r="3.5"/>
					<path style="clip-path:url(#SVGID_00000174595628016400419960000002366832705257850030_);fill:#32A4DE;" d="M47.8,126.6
						c2,0,3.5-1.6,3.5-3.5c0-2-1.6-3.5-3.5-3.5c-2,0-3.5,1.6-3.5,3.5C44.2,125,45.8,126.6,47.8,126.6z"/>
					
						<circle style="clip-path:url(#SVGID_00000174595628016400419960000002366832705257850030_);fill:#17B0B4;" cx="0.5" cy="123.1" r="3.5"/>
					<path style="clip-path:url(#SVGID_00000174595628016400419960000002366832705257850030_);fill:#17B0B4;" d="M0.5,123.1"/>
				</g>
			</g>
			<g style="clip-path:url(#SVGID_00000155122625029328288700000002264079655369664434_);">
				<g>
					<defs>
						<rect id="SVGID_00000158738854102130705140000016966747583989877174_" x="12.3" y="158.5" width="47.2" height="47.2"/>
					</defs>
					<clipPath id="SVGID_00000111155279315185046920000016040007054527203997_">
						<use xlink:href="#SVGID_00000158738854102130705140000016966747583989877174_"  style="overflow:visible;"/>
					</clipPath>
					<path style="clip-path:url(#SVGID_00000111155279315185046920000016040007054527203997_);fill:#17B0B4;" d="M59.6,209.3
						c2,0,3.5-1.6,3.5-3.5c0-2-1.6-3.5-3.5-3.5c-2,0-3.5,1.6-3.5,3.5C56,207.7,57.6,209.3,59.6,209.3z"/>
					<path style="clip-path:url(#SVGID_00000111155279315185046920000016040007054527203997_);fill:#17B0B4;" d="M35.9,209.3
						c2,0,3.5-1.6,3.5-3.5c0-2-1.6-3.5-3.5-3.5c-2,0-3.5,1.6-3.5,3.5C32.4,207.7,34,209.3,35.9,209.3z"/>
					<path style="clip-path:url(#SVGID_00000111155279315185046920000016040007054527203997_);fill:#17B0B4;" d="M12.3,209.3
						c2,0,3.5-1.6,3.5-3.5c0-2-1.6-3.5-3.5-3.5c-2,0-3.5,1.6-3.5,3.5C8.8,207.7,10.4,209.3,12.3,209.3z"/>
					<path style="clip-path:url(#SVGID_00000111155279315185046920000016040007054527203997_);fill:#17B0B4;" d="M59.6,185.7
						c2,0,3.5-1.6,3.5-3.5s-1.6-3.5-3.5-3.5c-2,0-3.5,1.6-3.5,3.5S57.6,185.7,59.6,185.7z"/>
					<path style="clip-path:url(#SVGID_00000111155279315185046920000016040007054527203997_);fill:#17B0B4;" d="M35.9,185.7
						c2,0,3.5-1.6,3.5-3.5s-1.6-3.5-3.5-3.5c-2,0-3.5,1.6-3.5,3.5S34,185.7,35.9,185.7z"/>
					<path style="clip-path:url(#SVGID_00000111155279315185046920000016040007054527203997_);fill:#17B0B4;" d="M12.3,185.7
						c2,0,3.5-1.6,3.5-3.5s-1.6-3.5-3.5-3.5c-2,0-3.5,1.6-3.5,3.5S10.4,185.7,12.3,185.7z"/>
					<path style="clip-path:url(#SVGID_00000111155279315185046920000016040007054527203997_);fill:#17B0B4;" d="M59.6,162.1
						c2,0,3.5-1.6,3.5-3.5c0-2-1.6-3.5-3.5-3.5c-2,0-3.5,1.6-3.5,3.5C56,160.5,57.6,162.1,59.6,162.1z"/>
					<path style="clip-path:url(#SVGID_00000111155279315185046920000016040007054527203997_);fill:#17B0B4;" d="M35.9,162.1
						c2,0,3.5-1.6,3.5-3.5c0-2-1.6-3.5-3.5-3.5c-2,0-3.5,1.6-3.5,3.5C32.4,160.5,34,162.1,35.9,162.1z"/>
					<path style="clip-path:url(#SVGID_00000111155279315185046920000016040007054527203997_);fill:#17B0B4;" d="M12.3,162.1
						c2,0,3.5-1.6,3.5-3.5c0-2-1.6-3.5-3.5-3.5c-2,0-3.5,1.6-3.5,3.5C8.8,160.5,10.4,162.1,12.3,162.1z"/>
					<path style="clip-path:url(#SVGID_00000111155279315185046920000016040007054527203997_);fill:#17B0B4;" d="M-11.3,162.1
						c2,0,3.5-1.6,3.5-3.5c0-2-1.6-3.5-3.5-3.5c-2,0-3.5,1.6-3.5,3.5C-14.8,160.5-13.2,162.1-11.3,162.1z"/>
					<path style="clip-path:url(#SVGID_00000111155279315185046920000016040007054527203997_);fill:#17B0B4;" d="M-11.3,158.5"/>
					<path style="clip-path:url(#SVGID_00000111155279315185046920000016040007054527203997_);fill:#17B0B4;" d="M24.1,197.5
						c2,0,3.5-1.6,3.5-3.5c0-2-1.6-3.5-3.5-3.5c-2,0-3.5,1.6-3.5,3.5C20.6,195.9,22.2,197.5,24.1,197.5z"/>
					<path style="clip-path:url(#SVGID_00000111155279315185046920000016040007054527203997_);fill:#17B0B4;" d="M47.8,197.5
						c2,0,3.5-1.6,3.5-3.5c0-2-1.6-3.5-3.5-3.5c-2,0-3.5,1.6-3.5,3.5C44.2,195.9,45.8,197.5,47.8,197.5z"/>
					
						<circle style="clip-path:url(#SVGID_00000111155279315185046920000016040007054527203997_);fill:#17B0B4;" cx="24.1" cy="170.3" r="3.5"/>
					<path style="clip-path:url(#SVGID_00000111155279315185046920000016040007054527203997_);fill:#32A4DE;" d="M47.8,173.9
						c2,0,3.5-1.6,3.5-3.5s-1.6-3.5-3.5-3.5c-2,0-3.5,1.6-3.5,3.5S45.8,173.9,47.8,173.9z"/>
					
						<circle style="clip-path:url(#SVGID_00000111155279315185046920000016040007054527203997_);fill:#17B0B4;" cx="0.5" cy="170.3" r="3.5"/>
					<path style="clip-path:url(#SVGID_00000111155279315185046920000016040007054527203997_);fill:#17B0B4;" d="M0.5,170.3"/>
				</g>
			</g>
			<g style="clip-path:url(#SVGID_00000155122625029328288700000002264079655369664434_);">
				<g>
					<defs>
						<rect id="SVGID_00000060719394583078309840000003667024915531708547_" x="-34.9" y="16.8" width="47.2" height="47.2"/>
					</defs>
					<clipPath id="SVGID_00000117660886757456857300000007076187621341655449_">
						<use xlink:href="#SVGID_00000060719394583078309840000003667024915531708547_"  style="overflow:visible;"/>
					</clipPath>
					<path style="clip-path:url(#SVGID_00000117660886757456857300000007076187621341655449_);fill:#17B0B4;" d="M12.3,67.6
						c2,0,3.5-1.6,3.5-3.5c0-2-1.6-3.5-3.5-3.5c-2,0-3.5,1.6-3.5,3.5C8.8,66,10.4,67.6,12.3,67.6z"/>
					<path style="clip-path:url(#SVGID_00000117660886757456857300000007076187621341655449_);fill:#17B0B4;" d="M-11.3,67.6
						c2,0,3.5-1.6,3.5-3.5c0-2-1.6-3.5-3.5-3.5c-2,0-3.5,1.6-3.5,3.5C-14.8,66-13.2,67.6-11.3,67.6z"/>
					<path style="clip-path:url(#SVGID_00000117660886757456857300000007076187621341655449_);fill:#17B0B4;" d="M-34.9,67.6
						c2,0,3.5-1.6,3.5-3.5c0-2-1.6-3.5-3.5-3.5c-2,0-3.5,1.6-3.5,3.5C-38.5,66-36.9,67.6-34.9,67.6z"/>
					<path style="clip-path:url(#SVGID_00000117660886757456857300000007076187621341655449_);fill:#17B0B4;" d="M12.3,44
						c2,0,3.5-1.6,3.5-3.5c0-2-1.6-3.5-3.5-3.5c-2,0-3.5,1.6-3.5,3.5C8.8,42.4,10.4,44,12.3,44z"/>
					<path style="clip-path:url(#SVGID_00000117660886757456857300000007076187621341655449_);fill:#17B0B4;" d="M-11.3,44
						c2,0,3.5-1.6,3.5-3.5c0-2-1.6-3.5-3.5-3.5c-2,0-3.5,1.6-3.5,3.5C-14.8,42.4-13.2,44-11.3,44z"/>
					<path style="clip-path:url(#SVGID_00000117660886757456857300000007076187621341655449_);fill:#17B0B4;" d="M-34.9,44
						c2,0,3.5-1.6,3.5-3.5c0-2-1.6-3.5-3.5-3.5c-2,0-3.5,1.6-3.5,3.5C-38.5,42.4-36.9,44-34.9,44z"/>
					<path style="clip-path:url(#SVGID_00000117660886757456857300000007076187621341655449_);fill:#17B0B4;" d="M12.3,20.4
						c2,0,3.5-1.6,3.5-3.5c0-2-1.6-3.5-3.5-3.5c-2,0-3.5,1.6-3.5,3.5C8.8,18.8,10.4,20.4,12.3,20.4z"/>
					<path style="clip-path:url(#SVGID_00000117660886757456857300000007076187621341655449_);fill:#17B0B4;" d="M-11.3,20.4
						c2,0,3.5-1.6,3.5-3.5c0-2-1.6-3.5-3.5-3.5c-2,0-3.5,1.6-3.5,3.5C-14.8,18.8-13.2,20.4-11.3,20.4z"/>
					<path style="clip-path:url(#SVGID_00000117660886757456857300000007076187621341655449_);fill:#17B0B4;" d="M-34.9,20.4
						c2,0,3.5-1.6,3.5-3.5c0-2-1.6-3.5-3.5-3.5c-2,0-3.5,1.6-3.5,3.5C-38.5,18.8-36.9,20.4-34.9,20.4z"/>
					<path style="clip-path:url(#SVGID_00000117660886757456857300000007076187621341655449_);fill:#17B0B4;" d="M-58.5,20.4
						c2,0,3.5-1.6,3.5-3.5c0-2-1.6-3.5-3.5-3.5c-2,0-3.5,1.6-3.5,3.5C-62.1,18.8-60.5,20.4-58.5,20.4z"/>
					<path style="clip-path:url(#SVGID_00000117660886757456857300000007076187621341655449_);fill:#17B0B4;" d="M-58.5,16.8"/>
					<path style="clip-path:url(#SVGID_00000117660886757456857300000007076187621341655449_);fill:#17B0B4;" d="M-23.1,55.8
						c2,0,3.5-1.6,3.5-3.5c0-2-1.6-3.5-3.5-3.5c-2,0-3.5,1.6-3.5,3.5C-26.6,54.2-25.1,55.8-23.1,55.8z"/>
					<path style="clip-path:url(#SVGID_00000117660886757456857300000007076187621341655449_);fill:#17B0B4;" d="M0.5,55.8
						c2,0,3.5-1.6,3.5-3.5c0-2-1.6-3.5-3.5-3.5c-2,0-3.5,1.6-3.5,3.5C-3,54.2-1.4,55.8,0.5,55.8z"/>
					
						<circle style="clip-path:url(#SVGID_00000117660886757456857300000007076187621341655449_);fill:#17B0B4;" cx="-23.1" cy="28.6" r="3.5"/>
					<path style="clip-path:url(#SVGID_00000117660886757456857300000007076187621341655449_);fill:#32A4DE;" d="M0.5,32.2
						c2,0,3.5-1.6,3.5-3.5s-1.6-3.5-3.5-3.5c-2,0-3.5,1.6-3.5,3.5S-1.4,32.2,0.5,32.2z"/>
					
						<circle style="clip-path:url(#SVGID_00000117660886757456857300000007076187621341655449_);fill:#17B0B4;" cx="-46.7" cy="28.6" r="3.5"/>
					<path style="clip-path:url(#SVGID_00000117660886757456857300000007076187621341655449_);fill:#17B0B4;" d="M-46.7,28.6"/>
				</g>
			</g>
			<g style="clip-path:url(#SVGID_00000155122625029328288700000002264079655369664434_);">
				<g>
					<defs>
						<rect id="SVGID_00000042714469915840027170000003308784665168203182_" x="-34.9" y="64" width="47.2" height="47.2"/>
					</defs>
					<clipPath id="SVGID_00000131358753803074517700000018375509245403930275_">
						<use xlink:href="#SVGID_00000042714469915840027170000003308784665168203182_"  style="overflow:visible;"/>
					</clipPath>
					<path style="clip-path:url(#SVGID_00000131358753803074517700000018375509245403930275_);fill:#17B0B4;" d="M12.3,114.8
						c2,0,3.5-1.6,3.5-3.5c0-2-1.6-3.5-3.5-3.5c-2,0-3.5,1.6-3.5,3.5C8.8,113.2,10.4,114.8,12.3,114.8z"/>
					<path style="clip-path:url(#SVGID_00000131358753803074517700000018375509245403930275_);fill:#17B0B4;" d="M-11.3,114.8
						c2,0,3.5-1.6,3.5-3.5c0-2-1.6-3.5-3.5-3.5c-2,0-3.5,1.6-3.5,3.5C-14.8,113.2-13.2,114.8-11.3,114.8z"/>
					<path style="clip-path:url(#SVGID_00000131358753803074517700000018375509245403930275_);fill:#17B0B4;" d="M-34.9,114.8
						c2,0,3.5-1.6,3.5-3.5c0-2-1.6-3.5-3.5-3.5c-2,0-3.5,1.6-3.5,3.5C-38.5,113.2-36.9,114.8-34.9,114.8z"/>
					<path style="clip-path:url(#SVGID_00000131358753803074517700000018375509245403930275_);fill:#17B0B4;" d="M12.3,91.2
						c2,0,3.5-1.6,3.5-3.5c0-2-1.6-3.5-3.5-3.5c-2,0-3.5,1.6-3.5,3.5C8.8,89.6,10.4,91.2,12.3,91.2z"/>
					<path style="clip-path:url(#SVGID_00000131358753803074517700000018375509245403930275_);fill:#17B0B4;" d="M-11.3,91.2
						c2,0,3.5-1.6,3.5-3.5c0-2-1.6-3.5-3.5-3.5c-2,0-3.5,1.6-3.5,3.5C-14.8,89.6-13.2,91.2-11.3,91.2z"/>
					<path style="clip-path:url(#SVGID_00000131358753803074517700000018375509245403930275_);fill:#17B0B4;" d="M-34.9,91.2
						c2,0,3.5-1.6,3.5-3.5c0-2-1.6-3.5-3.5-3.5c-2,0-3.5,1.6-3.5,3.5C-38.5,89.6-36.9,91.2-34.9,91.2z"/>
					<path style="clip-path:url(#SVGID_00000131358753803074517700000018375509245403930275_);fill:#17B0B4;" d="M12.3,67.6
						c2,0,3.5-1.6,3.5-3.5c0-2-1.6-3.5-3.5-3.5c-2,0-3.5,1.6-3.5,3.5C8.8,66,10.4,67.6,12.3,67.6z"/>
					<path style="clip-path:url(#SVGID_00000131358753803074517700000018375509245403930275_);fill:#17B0B4;" d="M-11.3,67.6
						c2,0,3.5-1.6,3.5-3.5c0-2-1.6-3.5-3.5-3.5c-2,0-3.5,1.6-3.5,3.5C-14.8,66-13.2,67.6-11.3,67.6z"/>
					<path style="clip-path:url(#SVGID_00000131358753803074517700000018375509245403930275_);fill:#17B0B4;" d="M-34.9,67.6
						c2,0,3.5-1.6,3.5-3.5c0-2-1.6-3.5-3.5-3.5c-2,0-3.5,1.6-3.5,3.5C-38.5,66-36.9,67.6-34.9,67.6z"/>
					<path style="clip-path:url(#SVGID_00000131358753803074517700000018375509245403930275_);fill:#17B0B4;" d="M-58.5,67.6
						c2,0,3.5-1.6,3.5-3.5c0-2-1.6-3.5-3.5-3.5c-2,0-3.5,1.6-3.5,3.5C-62.1,66-60.5,67.6-58.5,67.6z"/>
					<path style="clip-path:url(#SVGID_00000131358753803074517700000018375509245403930275_);fill:#17B0B4;" d="M-58.5,64"/>
					<path style="clip-path:url(#SVGID_00000131358753803074517700000018375509245403930275_);fill:#17B0B4;" d="M-23.1,103
						c2,0,3.5-1.6,3.5-3.5c0-2-1.6-3.5-3.5-3.5c-2,0-3.5,1.6-3.5,3.5C-26.6,101.4-25.1,103-23.1,103z"/>
					<path style="clip-path:url(#SVGID_00000131358753803074517700000018375509245403930275_);fill:#17B0B4;" d="M0.5,103
						c2,0,3.5-1.6,3.5-3.5c0-2-1.6-3.5-3.5-3.5c-2,0-3.5,1.6-3.5,3.5C-3,101.4-1.4,103,0.5,103z"/>
					
						<circle style="clip-path:url(#SVGID_00000131358753803074517700000018375509245403930275_);fill:#17B0B4;" cx="-23.1" cy="75.9" r="3.5"/>
					<path style="clip-path:url(#SVGID_00000131358753803074517700000018375509245403930275_);fill:#32A4DE;" d="M0.5,79.4
						c2,0,3.5-1.6,3.5-3.5s-1.6-3.5-3.5-3.5c-2,0-3.5,1.6-3.5,3.5S-1.4,79.4,0.5,79.4z"/>
					
						<circle style="clip-path:url(#SVGID_00000131358753803074517700000018375509245403930275_);fill:#17B0B4;" cx="-46.7" cy="75.9" r="3.5"/>
					<path style="clip-path:url(#SVGID_00000131358753803074517700000018375509245403930275_);fill:#17B0B4;" d="M-46.7,75.9"/>
				</g>
			</g>
			<g style="clip-path:url(#SVGID_00000155122625029328288700000002264079655369664434_);">
				<g>
					<defs>
						<rect id="SVGID_00000066513034282743880610000001993564507496487312_" x="-34.9" y="111.3" width="47.2" height="47.2"/>
					</defs>
					<clipPath id="SVGID_00000056406720215442943200000014462905504922764470_">
						<use xlink:href="#SVGID_00000066513034282743880610000001993564507496487312_"  style="overflow:visible;"/>
					</clipPath>
					<path style="clip-path:url(#SVGID_00000056406720215442943200000014462905504922764470_);fill:#17B0B4;" d="M12.3,162.1
						c2,0,3.5-1.6,3.5-3.5c0-2-1.6-3.5-3.5-3.5c-2,0-3.5,1.6-3.5,3.5C8.8,160.5,10.4,162.1,12.3,162.1z"/>
					<path style="clip-path:url(#SVGID_00000056406720215442943200000014462905504922764470_);fill:#17B0B4;" d="M-11.3,162.1
						c2,0,3.5-1.6,3.5-3.5c0-2-1.6-3.5-3.5-3.5c-2,0-3.5,1.6-3.5,3.5C-14.8,160.5-13.2,162.1-11.3,162.1z"/>
					<path style="clip-path:url(#SVGID_00000056406720215442943200000014462905504922764470_);fill:#17B0B4;" d="M-34.9,162.1
						c2,0,3.5-1.6,3.5-3.5c0-2-1.6-3.5-3.5-3.5c-2,0-3.5,1.6-3.5,3.5C-38.5,160.5-36.9,162.1-34.9,162.1z"/>
					<path style="clip-path:url(#SVGID_00000056406720215442943200000014462905504922764470_);fill:#17B0B4;" d="M12.3,138.4
						c2,0,3.5-1.6,3.5-3.5s-1.6-3.5-3.5-3.5c-2,0-3.5,1.6-3.5,3.5S10.4,138.4,12.3,138.4z"/>
					<path style="clip-path:url(#SVGID_00000056406720215442943200000014462905504922764470_);fill:#17B0B4;" d="M-11.3,138.4
						c2,0,3.5-1.6,3.5-3.5s-1.6-3.5-3.5-3.5c-2,0-3.5,1.6-3.5,3.5S-13.2,138.4-11.3,138.4z"/>
					<path style="clip-path:url(#SVGID_00000056406720215442943200000014462905504922764470_);fill:#17B0B4;" d="M-34.9,138.4
						c2,0,3.5-1.6,3.5-3.5s-1.6-3.5-3.5-3.5c-2,0-3.5,1.6-3.5,3.5S-36.9,138.4-34.9,138.4z"/>
					<path style="clip-path:url(#SVGID_00000056406720215442943200000014462905504922764470_);fill:#17B0B4;" d="M12.3,114.8
						c2,0,3.5-1.6,3.5-3.5c0-2-1.6-3.5-3.5-3.5c-2,0-3.5,1.6-3.5,3.5C8.8,113.2,10.4,114.8,12.3,114.8z"/>
					<path style="clip-path:url(#SVGID_00000056406720215442943200000014462905504922764470_);fill:#17B0B4;" d="M-11.3,114.8
						c2,0,3.5-1.6,3.5-3.5c0-2-1.6-3.5-3.5-3.5c-2,0-3.5,1.6-3.5,3.5C-14.8,113.2-13.2,114.8-11.3,114.8z"/>
					<path style="clip-path:url(#SVGID_00000056406720215442943200000014462905504922764470_);fill:#17B0B4;" d="M-34.9,114.8
						c2,0,3.5-1.6,3.5-3.5c0-2-1.6-3.5-3.5-3.5c-2,0-3.5,1.6-3.5,3.5C-38.5,113.2-36.9,114.8-34.9,114.8z"/>
					<path style="clip-path:url(#SVGID_00000056406720215442943200000014462905504922764470_);fill:#17B0B4;" d="M-58.5,114.8
						c2,0,3.5-1.6,3.5-3.5c0-2-1.6-3.5-3.5-3.5c-2,0-3.5,1.6-3.5,3.5C-62.1,113.2-60.5,114.8-58.5,114.8z"/>
					<path style="clip-path:url(#SVGID_00000056406720215442943200000014462905504922764470_);fill:#17B0B4;" d="M-58.5,111.3"/>
					<path style="clip-path:url(#SVGID_00000056406720215442943200000014462905504922764470_);fill:#17B0B4;" d="M-23.1,150.3
						c2,0,3.5-1.6,3.5-3.5c0-2-1.6-3.5-3.5-3.5c-2,0-3.5,1.6-3.5,3.5C-26.6,148.7-25.1,150.3-23.1,150.3z"/>
					<path style="clip-path:url(#SVGID_00000056406720215442943200000014462905504922764470_);fill:#17B0B4;" d="M0.5,150.3
						c2,0,3.5-1.6,3.5-3.5c0-2-1.6-3.5-3.5-3.5c-2,0-3.5,1.6-3.5,3.5C-3,148.7-1.4,150.3,0.5,150.3z"/>
					
						<circle style="clip-path:url(#SVGID_00000056406720215442943200000014462905504922764470_);fill:#17B0B4;" cx="-23.1" cy="123.1" r="3.5"/>
					<path style="clip-path:url(#SVGID_00000056406720215442943200000014462905504922764470_);fill:#32A4DE;" d="M0.5,126.6
						c2,0,3.5-1.6,3.5-3.5c0-2-1.6-3.5-3.5-3.5c-2,0-3.5,1.6-3.5,3.5C-3,125-1.4,126.6,0.5,126.6z"/>
					
						<circle style="clip-path:url(#SVGID_00000056406720215442943200000014462905504922764470_);fill:#17B0B4;" cx="-46.7" cy="123.1" r="3.5"/>
					<path style="clip-path:url(#SVGID_00000056406720215442943200000014462905504922764470_);fill:#17B0B4;" d="M-46.7,123.1"/>
				</g>
			</g>
			<g style="clip-path:url(#SVGID_00000155122625029328288700000002264079655369664434_);">
				<g>
					<defs>
						<rect id="SVGID_00000118372332960363347710000016472407709877503418_" x="-34.9" y="158.5" width="47.2" height="47.2"/>
					</defs>
					<clipPath id="SVGID_00000052078936559582683800000007300703746756222649_">
						<use xlink:href="#SVGID_00000118372332960363347710000016472407709877503418_"  style="overflow:visible;"/>
					</clipPath>
					<path style="clip-path:url(#SVGID_00000052078936559582683800000007300703746756222649_);fill:#17B0B4;" d="M12.3,209.3
						c2,0,3.5-1.6,3.5-3.5c0-2-1.6-3.5-3.5-3.5c-2,0-3.5,1.6-3.5,3.5C8.8,207.7,10.4,209.3,12.3,209.3z"/>
					<path style="clip-path:url(#SVGID_00000052078936559582683800000007300703746756222649_);fill:#17B0B4;" d="M-11.3,209.3
						c2,0,3.5-1.6,3.5-3.5c0-2-1.6-3.5-3.5-3.5c-2,0-3.5,1.6-3.5,3.5C-14.8,207.7-13.2,209.3-11.3,209.3z"/>
					<path style="clip-path:url(#SVGID_00000052078936559582683800000007300703746756222649_);fill:#17B0B4;" d="M-34.9,209.3
						c2,0,3.5-1.6,3.5-3.5c0-2-1.6-3.5-3.5-3.5c-2,0-3.5,1.6-3.5,3.5C-38.5,207.7-36.9,209.3-34.9,209.3z"/>
					<path style="clip-path:url(#SVGID_00000052078936559582683800000007300703746756222649_);fill:#17B0B4;" d="M12.3,185.7
						c2,0,3.5-1.6,3.5-3.5s-1.6-3.5-3.5-3.5c-2,0-3.5,1.6-3.5,3.5S10.4,185.7,12.3,185.7z"/>
					<path style="clip-path:url(#SVGID_00000052078936559582683800000007300703746756222649_);fill:#17B0B4;" d="M-11.3,185.7
						c2,0,3.5-1.6,3.5-3.5s-1.6-3.5-3.5-3.5c-2,0-3.5,1.6-3.5,3.5S-13.2,185.7-11.3,185.7z"/>
					<path style="clip-path:url(#SVGID_00000052078936559582683800000007300703746756222649_);fill:#17B0B4;" d="M-34.9,185.7
						c2,0,3.5-1.6,3.5-3.5s-1.6-3.5-3.5-3.5c-2,0-3.5,1.6-3.5,3.5S-36.9,185.7-34.9,185.7z"/>
					<path style="clip-path:url(#SVGID_00000052078936559582683800000007300703746756222649_);fill:#17B0B4;" d="M12.3,162.1
						c2,0,3.5-1.6,3.5-3.5c0-2-1.6-3.5-3.5-3.5c-2,0-3.5,1.6-3.5,3.5C8.8,160.5,10.4,162.1,12.3,162.1z"/>
					<path style="clip-path:url(#SVGID_00000052078936559582683800000007300703746756222649_);fill:#17B0B4;" d="M-11.3,162.1
						c2,0,3.5-1.6,3.5-3.5c0-2-1.6-3.5-3.5-3.5c-2,0-3.5,1.6-3.5,3.5C-14.8,160.5-13.2,162.1-11.3,162.1z"/>
					<path style="clip-path:url(#SVGID_00000052078936559582683800000007300703746756222649_);fill:#17B0B4;" d="M-34.9,162.1
						c2,0,3.5-1.6,3.5-3.5c0-2-1.6-3.5-3.5-3.5c-2,0-3.5,1.6-3.5,3.5C-38.5,160.5-36.9,162.1-34.9,162.1z"/>
					<path style="clip-path:url(#SVGID_00000052078936559582683800000007300703746756222649_);fill:#17B0B4;" d="M-58.5,162.1
						c2,0,3.5-1.6,3.5-3.5c0-2-1.6-3.5-3.5-3.5c-2,0-3.5,1.6-3.5,3.5C-62.1,160.5-60.5,162.1-58.5,162.1z"/>
					<path style="clip-path:url(#SVGID_00000052078936559582683800000007300703746756222649_);fill:#17B0B4;" d="M-58.5,158.5"/>
					<path style="clip-path:url(#SVGID_00000052078936559582683800000007300703746756222649_);fill:#17B0B4;" d="M-23.1,197.5
						c2,0,3.5-1.6,3.5-3.5c0-2-1.6-3.5-3.5-3.5c-2,0-3.5,1.6-3.5,3.5C-26.6,195.9-25.1,197.5-23.1,197.5z"/>
					<path style="clip-path:url(#SVGID_00000052078936559582683800000007300703746756222649_);fill:#17B0B4;" d="M0.5,197.5
						c2,0,3.5-1.6,3.5-3.5c0-2-1.6-3.5-3.5-3.5c-2,0-3.5,1.6-3.5,3.5C-3,195.9-1.4,197.5,0.5,197.5z"/>
					
						<circle style="clip-path:url(#SVGID_00000052078936559582683800000007300703746756222649_);fill:#17B0B4;" cx="-23.1" cy="170.3" r="3.5"/>
					<path style="clip-path:url(#SVGID_00000052078936559582683800000007300703746756222649_);fill:#32A4DE;" d="M0.5,173.9
						c2,0,3.5-1.6,3.5-3.5s-1.6-3.5-3.5-3.5c-2,0-3.5,1.6-3.5,3.5S-1.4,173.9,0.5,173.9z"/>
					
						<circle style="clip-path:url(#SVGID_00000052078936559582683800000007300703746756222649_);fill:#17B0B4;" cx="-46.7" cy="170.3" r="3.5"/>
					<path style="clip-path:url(#SVGID_00000052078936559582683800000007300703746756222649_);fill:#17B0B4;" d="M-46.7,170.3"/>
				</g>
			</g>
		</g>
	</g>
	<path style="clip-path:url(#SVGID_00000165945369368611316140000008376392616245696150_);fill:#17B0B4;" d="M64.1,20.7
		c4.3,0.9,15.5-4.8,19.5,4.2c1.9,4.3,17.6,7.2,6.9,20.1L60.8,71.3c0,0-3.4-4.2-10.9-12.4c0,0-19.6-15.9-2-26.8
		C48,32.1,50.2,17.8,64.1,20.7z"/>
	<path style="clip-path:url(#SVGID_00000165945369368611316140000008376392616245696150_);fill:#FFFFFF;" d="M91.3,52.7
		c-0.6-2.5,0.2-7.5-1.1-9.9c-12.8-1.2-24.8-7.8-24.8-7.8s-4.6,12.6-10.2,18.4c0,0-8.1-7-7.1,4.8c0,0,3.1,6.6,7.8,7.9
		c0,0,4.4,12.9,1.3,23.3l26.9-4.1l-0.5-5c2.1-0.5,6.1-3.6,6.7-5.7C91.6,70.1,93.4,61.6,91.3,52.7z"/>
	<g style="clip-path:url(#SVGID_00000165945369368611316140000008376392616245696150_);">
		<path class="st36" d="M68,47.9L68,47.9c0.1,0,0.2,0,0.3-0.1c1.7-0.9,4-0.6,4-0.6c0.1,0,0.2,0,0.4,0c0.4-0.1,0.7-0.5,0.7-0.9
			c0.1-0.6-0.4-1.1-0.9-1.2c-0.1,0-2.9-0.3-5.1,0.8c-0.2,0.1-0.4,0.3-0.5,0.6c-0.1,0.3-0.1,0.5,0.1,0.8C67.2,47.7,67.6,47.9,68,47.9
			z"/>
		<path class="st36" d="M67.9,48.1c-0.4,0-0.9-0.3-1.1-0.7c-0.1-0.3-0.2-0.6-0.1-0.9c0.1-0.3,0.3-0.6,0.6-0.7
			c2.3-1.2,5.1-0.8,5.2-0.8c0.6,0.1,1.1,0.7,1.1,1.3c0,0.5-0.4,0.9-0.9,1c-0.1,0-0.3,0-0.4,0c-0.2,0-2.3-0.2-3.9,0.6
			C68.3,48,68.2,48,68,48l0,0C68,48,67.9,48.1,67.9,48.1z M71.5,45.2c-1,0-2.6,0.1-4,0.8c-0.2,0.1-0.3,0.3-0.4,0.5
			c-0.1,0.2,0,0.5,0.1,0.7c0.2,0.3,0.5,0.5,0.9,0.5c0.1,0,0.2,0,0.3-0.1c1.6-0.9,3.8-0.7,4.1-0.6c0.1,0,0.2,0,0.3,0
			c0.3-0.1,0.6-0.4,0.6-0.7c0-0.5-0.3-0.9-0.8-1C72.5,45.3,72.1,45.2,71.5,45.2z"/>
	</g>
	<path style="clip-path:url(#SVGID_00000165945369368611316140000008376392616245696150_);fill:#251E1C;" d="M83.8,65.5l1.9-0.4
		c0,0,0,0,0,0c0.5-0.1,0.9-0.7,0.7-1.2c-0.1-0.6-0.6-0.9-1.2-0.8l-1.9,0.4c0,0,0,0,0,0c-0.5,0.1-0.9,0.7-0.7,1.2
		c0.1,0.3,0.2,0.5,0.4,0.7C83.3,65.5,83.5,65.5,83.8,65.5z"/>
	<g style="clip-path:url(#SVGID_00000165945369368611316140000008376392616245696150_);">
		<path class="st36" d="M92.3,48c-0.5,0.1-0.7,0.5-0.6,1c0.4,1.8,0.4,3.7,0.4,4.6c0,0.3-0.3,0.7-0.6,0.8c-3,1.2-5,1.2-6,1.1
			c-0.2,0-0.4-0.2-0.5-0.4c-0.2-0.4-0.3-1.1-0.5-1.7c0-0.1,0-0.2-0.1-0.3c-0.2-1.3-0.4-2.7-0.4-2.7c0-0.4-0.5-0.7-0.9-0.7
			c-0.5,0.1-0.8,0.4-0.8,0.9c0,0.1,0.1,0.9,0.2,1.9c-0.7,0-1.5,0.2-2,0.3c-0.1-0.7-0.1-1.4-0.2-1.9c-0.1-0.4-0.5-0.7-1-0.6
			c-0.5,0.1-0.8,0.5-0.7,0.9c0.3,1.6,0.4,4,0.2,4.6c-0.3,0.8-0.4,0.9-1,1.2c-3.8,1.5-7.4,1.4-8.1,1.4c-0.9,0-1.7-0.5-2-1.2
			c-0.4-0.9-0.7-2.2-0.9-2.9c0,0,0-0.1,0-0.1l-0.3-1.6c-0.1-0.4-0.5-0.7-1-0.6c-0.5,0.1-0.8,0.5-0.7,0.9l0.1,0.3l-6.7,0.2
			c-0.5,0-0.8,0.4-0.8,0.9c0,0.4,0.4,0.7,0.9,0.7l6.8-0.3c0.2,0.8,0.5,2.1,1,3.1c0.6,1.2,1.9,2,3.4,2.1c0.8,0,3.1,0.1,5.9-0.6
			c0.9-0.2,1.9-0.5,2.9-0.9c1.3-0.5,1.6-1.1,2-2.3c0.1-0.4,0.2-1.1,0.2-1.8c0.7-0.2,1.6-0.4,2.2-0.4c0.1,0.6,0.3,1.2,0.5,1.7
			c0.3,0.7,1,1.2,1.8,1.3c0.8,0.1,2.2,0.2,4.2-0.3c0.8-0.2,1.8-0.5,2.8-0.9c1-0.4,1.6-1.3,1.7-2.2c0.1-0.9,0-3.1-0.4-5
			C93.2,48.2,92.8,47.9,92.3,48z"/>
		<path class="st36" d="M70.5,60.1c-0.3,0-0.6,0-0.8,0c-1.6-0.1-2.9-0.9-3.6-2.2c-0.5-0.9-0.8-2.1-1-3l-6.7,0.3
			c-0.3,0-0.5-0.1-0.8-0.2c-0.2-0.2-0.3-0.4-0.3-0.6c0-0.5,0.4-1,0.9-1.1l6.5-0.2l0-0.1c-0.1-0.5,0.3-1,0.8-1.1c0.3,0,0.6,0,0.8,0.2
			c0.2,0.1,0.3,0.4,0.4,0.6l0.3,1.6c0,0,0,0.1,0,0.1c0.1,0.7,0.4,2,0.9,2.8c0.3,0.7,1.1,1.1,1.9,1.1c0.7,0,4.2,0.1,8-1.4
			c0.6-0.2,0.6-0.3,0.9-1.1c0.2-0.6,0.1-3-0.2-4.5c0-0.2,0-0.5,0.2-0.7c0.2-0.2,0.4-0.4,0.7-0.4c0.3-0.1,0.6,0,0.8,0.2
			c0.2,0.1,0.3,0.4,0.4,0.6c0.1,0.5,0.2,1.1,0.2,1.7c0.4-0.1,1-0.2,1.6-0.3c-0.1-0.9-0.2-1.7-0.2-1.7c0-0.5,0.4-1,0.9-1.1
			c0.3,0,0.6,0,0.8,0.2c0.2,0.2,0.3,0.4,0.3,0.6c0,0,0.1,1.3,0.4,2.6c0,0.1,0.1,0.2,0.1,0.4c0.1,0.7,0.3,1.3,0.5,1.6
			c0.1,0.2,0.2,0.3,0.4,0.3c0.9,0.1,2.9,0.2,5.9-1.1c0.3-0.1,0.5-0.4,0.5-0.7c0-0.9,0-2.8-0.4-4.5c-0.1-0.3,0-0.5,0.1-0.7
			c0.1-0.2,0.4-0.4,0.6-0.4l0,0c0.5-0.1,1.1,0.2,1.2,0.7c0.5,2,0.5,4.1,0.4,5c-0.1,1-0.8,2-1.8,2.4c-1,0.4-1.9,0.7-2.8,0.9
			c-1.9,0.5-3.4,0.4-4.2,0.3c-0.9-0.1-1.6-0.7-1.9-1.4c-0.2-0.4-0.3-0.9-0.5-1.6c-0.6,0-1.3,0.2-1.9,0.3c0,0.8-0.1,1.4-0.2,1.8
			c-0.4,1.2-0.8,1.8-2.1,2.4c-0.9,0.4-1.9,0.7-3,0.9C73.4,60,71.6,60.1,70.5,60.1z M65.2,54.6c0.1,0,0.2,0.1,0.2,0.1
			c0.1,0.7,0.5,2.1,1,3.1c0.6,1.2,1.9,1.9,3.3,2c0.8,0,3.1,0.1,5.8-0.6c1-0.2,2-0.5,2.9-0.9c1.2-0.5,1.6-1,1.9-2.1
			c0.1-0.4,0.2-1,0.2-1.8c0-0.1,0-0.1,0.1-0.2c0.7-0.2,1.6-0.4,2.3-0.4c0.1,0,0.1,0.1,0.2,0.1c0.2,0.7,0.3,1.2,0.5,1.7
			c0.3,0.7,0.9,1.1,1.7,1.2c0.8,0.1,2.2,0.2,4.1-0.3c0.9-0.2,1.8-0.5,2.7-0.9c0.9-0.4,1.5-1.2,1.6-2.1c0.1-0.9,0-3-0.4-4.9
			c-0.1-0.3-0.4-0.5-0.8-0.4l0,0c-0.2,0-0.3,0.1-0.4,0.3c-0.1,0.1-0.1,0.3-0.1,0.5c0.4,1.8,0.5,3.7,0.4,4.6c0,0.4-0.3,0.8-0.7,1
			c-3.1,1.3-5.1,1.2-6.1,1.1c-0.3,0-0.6-0.2-0.7-0.5c-0.2-0.4-0.3-1-0.5-1.7c0,0,0,0,0,0c0-0.1,0-0.2,0-0.2c0,0,0,0,0,0
			c-0.2-1.3-0.4-2.7-0.4-2.7c0-0.2-0.1-0.3-0.2-0.4c-0.1-0.1-0.3-0.2-0.5-0.1c-0.4,0-0.7,0.4-0.6,0.7c0,0,0.1,0.8,0.2,1.8
			c0,0,0,0.1,0,0.1c0,0-0.1,0.1-0.1,0.1c-0.7,0-1.5,0.2-1.9,0.3c0,0-0.1,0-0.1,0c0,0-0.1-0.1-0.1-0.1c-0.1-0.7-0.1-1.3-0.2-1.9
			c0-0.2-0.1-0.3-0.3-0.4c-0.2-0.1-0.3-0.1-0.5-0.1c-0.2,0-0.4,0.1-0.5,0.3c-0.1,0.1-0.1,0.3-0.1,0.5c0.3,1.6,0.4,4,0.2,4.7
			c-0.3,0.9-0.4,1-1.1,1.3c-3.8,1.5-7.4,1.4-8.1,1.4c-1,0-1.8-0.6-2.2-1.3c-0.5-0.9-0.8-2.2-0.9-2.9c0-0.1,0-0.1,0-0.1l-0.3-1.6
			c0-0.2-0.1-0.3-0.2-0.4c-0.1-0.1-0.3-0.1-0.5-0.1c-0.4,0.1-0.6,0.4-0.6,0.7l0.1,0.3c0,0,0,0.1,0,0.1c0,0-0.1,0.1-0.1,0.1l-6.7,0.2
			c-0.4,0-0.6,0.3-0.6,0.7c0,0.2,0.1,0.3,0.2,0.4c0.1,0.1,0.3,0.2,0.5,0.1L65.2,54.6C65.2,54.6,65.2,54.6,65.2,54.6z"/>
	</g>
	<g style="clip-path:url(#SVGID_00000165945369368611316140000008376392616245696150_);">
		<g>
			<path class="st36" d="M56,66.3c0.6-0.1,1.2-0.4,1.7-0.9c0.4-0.4,0.4-1.1,0-1.5c-0.4-0.4-1-0.5-1.4-0.1c-1.3,1.2-3.4-0.3-3.7-0.6
				c-5.3-5.7-3.5-9.1-3.3-9.5c0.7-0.9,1.5-1.4,2.3-1.4c1.2,0,2.2,1,2.2,1c0.4,0.4,1,0.4,1.4,0c0.4-0.4,0.4-1.1,0-1.5
				c-0.1-0.1-1.5-1.7-3.6-1.7c-1.4,0-2.6,0.7-3.8,2.1c0,0,0,0,0,0.1c-0.1,0.2-3.4,5,3.6,12.4c0,0,0.1,0.1,0.1,0.1c0,0,0.9,0.7,2,1.2
				C54.4,66.3,55.2,66.4,56,66.3z"/>
			<path class="st36" d="M55.3,66.5c-0.6,0-1.2-0.1-1.8-0.4c-1.1-0.4-2-1.1-2.1-1.2c0,0-0.1-0.1-0.1-0.1c-7.1-7.5-3.8-12.4-3.6-12.6
				c0,0,0,0,0.1-0.1c1.2-1.4,2.5-2.1,3.9-2.1c0,0,0,0,0,0c2.1,0,3.7,1.7,3.7,1.8c0.4,0.5,0.4,1.3,0,1.7c-0.2,0.2-0.5,0.3-0.8,0.3
				c0,0,0,0,0,0c-0.3,0-0.6-0.1-0.8-0.4c0,0-0.9-1-2.1-1c0,0,0,0,0,0c-0.8,0-1.5,0.4-2.2,1.3c-0.2,0.3-1.9,3.6,3.3,9.3
				c0.2,0.2,2.3,1.7,3.5,0.6c0.2-0.2,0.5-0.3,0.8-0.3c0.3,0,0.6,0.2,0.8,0.4c0.4,0.5,0.4,1.3-0.1,1.7c-0.5,0.5-1.1,0.8-1.8,1l0,0
				C55.8,66.5,55.6,66.5,55.3,66.5z M51.6,50.3c-1.3,0-2.5,0.7-3.6,2c0,0,0,0,0,0c-0.1,0.2-3.3,4.9,3.6,12.2c0,0,0.1,0.1,0.1,0.1
				c0.1,0.1,0.9,0.7,2,1.2c0.9,0.3,1.6,0.4,2.4,0.3l0,0c0.6-0.1,1.2-0.4,1.6-0.9c0.3-0.3,0.3-0.9,0-1.3c-0.2-0.2-0.4-0.3-0.6-0.3
				c-0.2,0-0.4,0.1-0.5,0.2c-1.3,1.3-3.5-0.3-4-0.6c-5.5-5.8-3.6-9.3-3.4-9.7c0.8-1,1.6-1.4,2.5-1.4c0,0,0,0,0,0
				c1.3,0,2.3,1.1,2.3,1.1c0.2,0.2,0.4,0.3,0.6,0.3c0,0,0,0,0,0c0.2,0,0.4-0.1,0.5-0.2c0.3-0.3,0.3-0.9,0-1.3
				C55,51.9,53.6,50.3,51.6,50.3C51.6,50.3,51.6,50.3,51.6,50.3z"/>
		</g>
		<g>
			<path class="st36" d="M55.8,60.6c0,0,0.1,0,0.1,0c0.5-0.2,0.7-0.8,0.5-1.3c-1.8-5.6-4.9-5.1-5-5l0,0c-0.6,0.5-0.5,1.6,0.2,1.9
				l0.1,0.1c0.1,0,1.8-0.2,3,3.7C54.9,60.4,55.3,60.7,55.8,60.6z"/>
			<path class="st36" d="M55.6,60.8c-0.5,0-0.9-0.3-1-0.8c-1.2-3.8-2.8-3.6-2.8-3.6l0,0l-0.2-0.1c-0.4-0.2-0.7-0.6-0.7-1.1
				c-0.1-0.5,0.1-0.9,0.4-1.1l0,0l0,0c0.1,0,3.4-0.6,5.2,5.2c0.2,0.6-0.1,1.3-0.6,1.5c-0.1,0-0.1,0-0.2,0.1l0,0
				C55.7,60.8,55.7,60.8,55.6,60.8z M51.8,56.1c0.4,0,1.9,0.3,3.1,3.8c0.1,0.4,0.5,0.6,0.8,0.6h0c0,0,0.1,0,0.1,0
				c0.4-0.1,0.5-0.6,0.4-1.1c-1.7-5.2-4.4-5-4.8-4.9c-0.2,0.2-0.3,0.5-0.3,0.8c0,0.3,0.2,0.6,0.5,0.8L51.8,56.1
				C51.8,56.1,51.8,56.1,51.8,56.1z"/>
		</g>
	</g>
	<g style="clip-path:url(#SVGID_00000165945369368611316140000008376392616245696150_);">
		<path class="st36" d="M83.6,80.4c-9.8,1.9-16.1-4.6-16.3-4.9c-0.4-0.4-0.3-1,0-1.4c0.4-0.4,1-0.3,1.4,0l0,0
			c0.3,0.3,6.9,7,16.9,3.7c0.3-0.1,4.6-1.9,5-6.9c0,0,0,0,0-0.1c0-0.1,1.1-8.3,0.9-12.7c0-0.5,0.4-1,0.9-1c0.5,0,1,0.4,1,0.9
			c0.2,4.5-0.8,12.4-0.9,13c-0.5,6.3-6,8.4-6.2,8.5c0,0,0,0,0,0C85.3,80,84.4,80.2,83.6,80.4z"/>
		<path class="st36" d="M80.1,80.9c-7.8,0-12.7-5-13-5.3c-0.2-0.2-0.3-0.5-0.3-0.8c0-0.3,0.1-0.6,0.3-0.8c0.4-0.4,1.2-0.4,1.6,0
			c0.3,0.3,6.8,6.9,16.7,3.7c0.2-0.1,4.5-1.8,4.9-6.7l0-0.1c0-0.1,1.1-8.3,0.9-12.7c0-0.6,0.5-1.1,1.1-1.2c0.6,0,1.1,0.5,1.2,1.1
			c0.2,4.4-0.8,12.2-0.9,13c-0.5,6.4-6.1,8.5-6.3,8.6l0,0c-0.9,0.3-1.7,0.5-2.6,0.7h0C82.4,80.8,81.2,80.9,80.1,80.9z M67.9,74
			c-0.2,0-0.4,0.1-0.5,0.2c-0.2,0.1-0.2,0.3-0.2,0.5c0,0.2,0.1,0.4,0.2,0.6c0.3,0.3,6.5,6.7,16.2,4.8c0.8-0.2,1.7-0.4,2.5-0.7
			c0.3-0.1,5.7-2.2,6.2-8.3c0.1-0.9,1.1-8.6,0.9-13c0-0.4-0.4-0.8-0.8-0.7c-0.4,0-0.8,0.4-0.7,0.8c0.2,4.4-0.9,12.4-0.9,12.7l0,0
			c-0.4,5-4.6,6.8-5.1,7c-10.2,3.3-16.8-3.5-17.1-3.8C68.4,74.1,68.2,74,67.9,74z M83.6,80.4L83.6,80.4L83.6,80.4z"/>
	</g>
	<g style="clip-path:url(#SVGID_00000165945369368611316140000008376392616245696150_);">
		<path class="st36" d="M58.4,90.4c0.3-0.1,0.6-0.3,0.7-0.6c2.3-5.4-1-20.2-1.1-20.9c-0.1-0.5-0.7-0.9-1.2-0.8
			c-0.5,0.1-0.9,0.7-0.8,1.2c0,0,0.8,3.8,1.4,8.1c0.7,5.6,0.7,9.6-0.2,11.5c-0.2,0.5,0,1.1,0.5,1.3C57.9,90.5,58.2,90.5,58.4,90.4z"
			/>
		<path class="st36" d="M58.1,90.6c-0.2,0-0.3,0-0.5-0.1c-0.6-0.3-0.9-0.9-0.6-1.5c0.8-1.9,0.9-5.9,0.2-11.4
			c-0.5-4.3-1.4-7.9-1.4-8.1c-0.1-0.6,0.3-1.3,0.9-1.4c0.3-0.1,0.6,0,0.9,0.2c0.3,0.2,0.5,0.4,0.5,0.7c0.1,0.6,3.4,15.5,1.1,21
			c-0.1,0.3-0.4,0.6-0.8,0.7C58.3,90.6,58.2,90.6,58.1,90.6z M57,68.4c-0.1,0-0.1,0-0.2,0c-0.4,0.1-0.7,0.6-0.6,1
			c0,0.2,0.8,3.8,1.4,8.1c0.7,5.6,0.7,9.6-0.2,11.6c-0.2,0.4,0,0.9,0.4,1.1c0.2,0.1,0.4,0.1,0.5,0h0c0.3-0.1,0.5-0.2,0.6-0.5
			c2.3-5.4-1-20.1-1.1-20.8c0-0.2-0.2-0.4-0.4-0.5C57.3,68.4,57.1,68.4,57,68.4z"/>
	</g>
	<path style="clip-path:url(#SVGID_00000165945369368611316140000008376392616245696150_);fill:#231815;" d="M84.7,50.8
		c0.1,0.8,0.8,1.3,1.6,1.1c0.8-0.1,1.3-0.8,1.1-1.6c-0.1-0.8-0.8-1.3-1.6-1.1C85.1,49.3,84.6,50,84.7,50.8z"/>
	<path style="clip-path:url(#SVGID_00000165945369368611316140000008376392616245696150_);fill:#231815;" d="M69.4,53.3
		c0.1,0.8,0.8,1.3,1.6,1.1c0.8-0.1,1.3-0.8,1.1-1.6c-0.1-0.8-0.8-1.3-1.6-1.1C69.8,51.9,69.3,52.6,69.4,53.3z"/>
	<path style="clip-path:url(#SVGID_00000165945369368611316140000008376392616245696150_);fill:#251E1C;" d="M82.7,73.5
		c-3.1,0-4.8-2.7-5.2-4.3c-0.1-0.3,0-0.6,0.1-0.9c0.2-0.3,0.4-0.4,0.7-0.5l8.4-1c0.3,0,0.6,0.1,0.8,0.3c0.2,0.2,0.3,0.5,0.3,0.8
		c-0.1,3.8-2.8,5.2-4.2,5.5C83.4,73.5,83,73.5,82.7,73.5z M80,69.8c0.1,0.2,0.2,0.3,0.4,0.5c0.8,0.9,1.7,1.3,2.9,1.1
		c0.2,0,1.8-0.4,2.3-2.3L80,69.8z"/>
	<path style="clip-path:url(#SVGID_00000165945369368611316140000008376392616245696150_);fill:#251E1C;" d="M92.4,44.9
		c-0.1,0-0.1,0-0.2,0c-20.5-3.2-28.4-11.7-28.8-12.1c-0.4-0.4-0.4-1.1,0.1-1.5c0.4-0.4,1.1-0.4,1.5,0.1c0.1,0.1,7.9,8.4,27.5,11.4
		c0.6,0.1,1,0.6,0.9,1.2C93.3,44.5,92.9,44.9,92.4,44.9z"/>
	<g style="clip-path:url(#SVGID_00000165945369368611316140000008376392616245696150_);">
		<path class="st36" d="M56.8,90.5c0,0-1.8-10.8,2.2-9.1c2.4,1,16.9,5.2,27.3,0c1.9-1,1.3,8.4,2.8,7.2c0,0,8.1,77.7,9.1,109H64.2
			L56.8,90.5z"/>
		<path class="st36" d="M98.1,198.8H64.2c-0.6,0-1.1-0.4-1.1-1L55.7,90.7c-0.3-2-1.2-8.2,1.1-10c0.4-0.3,1.3-0.8,2.6-0.2
			c2.3,1,16.3,5,26.3,0c0.5-0.2,1-0.3,1.5,0c1.1,0.6,1.4,2.2,1.7,4.9c0.1,0.7,0.2,1.7,0.4,2.2c0,0,0.1,0,0.1,0
			c0.4,0.2,0.6,0.5,0.7,0.9c0.1,0.8,8.1,78.1,9.1,109.1c0,0.3-0.1,0.6-0.3,0.8C98.7,198.6,98.4,198.8,98.1,198.8z M65.2,196.6H97
			c-1.1-29.8-8.1-98.5-9-107c-0.8-0.5-1-1.9-1.2-3.9c-0.1-0.8-0.3-2.3-0.5-3c-10.7,5-25.2,0.8-27.7-0.2c-0.1,0-0.3-0.1-0.4-0.1
			c-0.8,0.6-0.8,4.7-0.2,8c0,0,0,0.1,0,0.1L65.2,196.6z"/>
	</g>
	<path style="clip-path:url(#SVGID_00000165945369368611316140000008376392616245696150_);fill:#251E1C;" d="M63.3,81.7
		C63.3,81.7,63.3,81.7,63.3,81.7C63.3,81.7,63.3,81.7,63.3,81.7z"/>
	<g style="clip-path:url(#SVGID_00000165945369368611316140000008376392616245696150_);">
		<path class="st39" d="M48.6,14.5c-0.5,0.9-1.6,1.2-2.5,0.8l-3.7-1.8c-0.9-0.5-1.3-1.6-0.8-2.5c0.5-0.9,1.6-1.3,2.5-0.8l3.7,1.8
			C48.7,12.4,49.1,13.5,48.6,14.5C48.6,14.5,48.6,14.5,48.6,14.5z"/>
		<path class="st39" d="M55.1,9.6c-0.1,0.2-0.3,0.4-0.5,0.6c-0.8,0.6-2,0.5-2.6-0.3l-2.1-2.7c-0.6-0.8-0.5-2,0.3-2.6
			c0.8-0.6,2-0.5,2.6,0.3L55,7.6C55.4,8.2,55.5,9,55.1,9.6z"/>
		<path class="st39" d="M73.7,4.1C73.7,4.1,73.7,4.1,73.7,4.1l-2.1,3.6c-0.5,0.9-1.7,1.2-2.6,0.7c-0.9-0.5-1.2-1.7-0.7-2.6l2.1-3.6
			C71,1.3,72.2,1,73,1.6C73.9,2.1,74.2,3.2,73.7,4.1z"/>
		<path class="st39" d="M63.5,7.1c-0.3,0.6-1,1-1.8,1c-1-0.1-1.8-1-1.7-2l0.3-3.4c0.1-1,1-1.8,2-1.7c1,0.1,1.8,1,1.7,2l-0.3,3.4
			C63.7,6.7,63.6,6.9,63.5,7.1z"/>
	</g>
	<path style="clip-path:url(#SVGID_00000165945369368611316140000008376392616245696150_);fill:none;" d="M152.6,123.5
		c0,40.2-32.6,72.7-72.7,72.7S7.2,163.7,7.2,123.5c0-16.6-18.6-71.8-9.2-96.8C11.3-8.7,56.4-12.7,79.9-12.7c13,0,70,42.1,80.6,48.1
		C182.6,47.9,152.6,96.4,152.6,123.5z"/>
	<path style="clip-path:url(#SVGID_00000165945369368611316140000008376392616245696150_);fill:#FFFFFF;" d="M149.2,95.4
		c1.6-1.6,0.3-3.5,0.3-3.5c-0.6-1.4-2.4-0.8-2.4-0.8c3.2-2.7,0.5-4.8,0.5-4.8c-1.7-1.4-4,0.8-4,0.8l5.4-7.8c4.9-7,2.9-7.5,2.9-7.5
		c-1.7-1.9-5.9,3.3-5.9,3.3l-11.7,13.5c-3.2,2.2-2.5-2.2-2.5-2.2c0-1.6-0.2-3.2-0.3-4.2c-0.1-1-0.4-1.9-0.9-2.8
		c-0.5-0.9-1-1.4-1.5-1.7c-1-0.5-2.1,0.2-2.1,1.3l0,4.5c-0.8,4.8,0.6,16.9,0.6,16.9l-0.3,4.6l-1.2,3l11.8,4.5l0.8-2.6l9.8-8.3
		c3.4-3.2,2.7-4.4,2.7-4.4C151,95.3,149.2,95.4,149.2,95.4z"/>
	<path style="clip-path:url(#SVGID_00000165945369368611316140000008376392616245696150_);fill:#251E1C;" d="M145.4,104.6
		c-0.4-0.5-1.1-0.5-1.6-0.1l-5.8,4.9c-0.1,0.1-0.2,0.3-0.3,0.4l-4.3,10.2l-7.8-6.8l-2.3,0c-0.2,0.4,0,0.9,0.3,1.2l9.5,8.3
		c0.2,0.2,0.5,0.3,0.7,0.3c0.1,0,0.2,0,0.3,0c0.3-0.1,0.6-0.3,0.8-0.7l4.8-11.4l5.6-4.7C145.7,105.8,145.8,105.1,145.4,104.6z"/>
	<path style="clip-path:url(#SVGID_00000165945369368611316140000008376392616245696150_);fill:#251E1C;" d="M148.6,103
		c-0.3,0-0.6-0.1-0.8-0.3c-0.4-0.4-0.4-1.1,0.1-1.6c2.2-2.1,2.4-3.1,2.4-3.3c0-0.1,0-0.1,0-0.2c-0.1-1-0.6-1.1-0.9-1.1
		c-0.5,0.1-0.9-0.2-1.1-0.6c-0.2-0.4-0.1-0.9,0.3-1.3c0.9-0.9,0.3-1.9,0.2-2.1c0,0-0.1-0.1-0.1-0.2c-0.2-0.5-1-0.2-1-0.2
		c-0.5,0.2-1.1,0-1.3-0.5c-0.3-0.5-0.2-1.1,0.2-1.4c0.5-0.5,1.2-1.1,1.2-1.8c0-0.7-0.6-1.2-0.6-1.2c-0.9-0.7-2.5,0.7-2.5,0.7
		c-0.4,0.4-1.1,0.4-1.5,0c-0.4-0.4-0.5-1-0.2-1.5l5.4-7.8c2.9-4.1,3.1-5.6,3.1-6c-0.1,0-0.1-0.1-0.1-0.1c0,0-0.1-0.1-0.2-0.1
		c-0.9,0-2.8,1.8-4,3.3c0,0,0,0,0,0l-11.7,13.5c-0.1,0.1-0.1,0.1-0.2,0.2c-1.3,0.9-2.3,1.1-3.2,0.5c-1.3-0.8-1.2-3-1.1-3.7
		c0-1.5-0.2-3-0.3-3.9c-0.1-0.9-0.4-1.7-0.7-2.4c-0.4-0.8-0.8-1.1-1-1.2c-0.1-0.1-0.2,0-0.3,0c-0.1,0-0.2,0.1-0.2,0.3l0,4.5
		c0,0.1,0,0.1,0,0.2c-0.8,4.6,0.6,16.5,0.6,16.6c0.1,0.6-0.4,1.2-1,1.2c-0.6,0.1-1.2-0.4-1.2-1c-0.1-0.5-1.3-12.2-0.6-17.1l0-4.4
		c0-0.9,0.5-1.7,1.2-2.2c0.8-0.5,1.7-0.5,2.5-0.1c0.8,0.4,1.4,1.1,2,2.1c0.5,0.9,0.8,2,1,3.2c0.1,1,0.3,2.6,0.3,4.3
		c0,0.1,0,0.1,0,0.2c-0.1,0.6,0,1.3,0.1,1.6c0.1,0,0.3-0.1,0.6-0.3l11.6-13.4c0.6-0.7,3.3-4.1,5.7-4.1c0.7,0,1.2,0.2,1.7,0.6
		c0.3,0.2,0.6,0.5,0.7,0.9c0.4,0.9,0.4,2.8-3.3,8.1l-3.3,4.8c0.6,0.1,1.1,0.3,1.7,0.7c0.1,0.1,1.4,1.1,1.5,2.9
		c0,0.6-0.1,1.2-0.4,1.8c0.5,0.2,0.9,0.6,1.1,1.2c0.4,0.7,0.9,2.1,0.4,3.4c0.7,0.4,1.2,1.2,1.4,2.4c0.3,0.8,0.2,2.5-3,5.5
		C149.1,102.9,148.9,103,148.6,103z M150.3,98C150.3,98,150.3,98,150.3,98C150.3,98,150.3,98,150.3,98z M150.3,98L150.3,98L150.3,98
		z M151.7,73C151.7,73,151.7,73,151.7,73C151.7,73,151.7,73,151.7,73z"/>
	<path style="clip-path:url(#SVGID_00000165945369368611316140000008376392616245696150_);fill:#251E1C;" d="M140.1,96.1
		c-0.7,0-1.1-0.2-1.3-0.4c-1-0.6-1.3-1.5-1.3-2.1c-0.2-2.1,1.8-4.1,2.2-4.5c0,0,0,0,0.1-0.1l3.2-2.7c0.5-0.4,1.2-0.3,1.6,0.1
		c0.4,0.5,0.3,1.2-0.1,1.6l-3.2,2.7c-0.7,0.7-1.6,2-1.6,2.7c0,0.1,0,0.2,0.3,0.4c0.1,0,1,0.1,3.1-1.2l3.5-2.4
		c0.5-0.3,1.2-0.2,1.5,0.3c0.3,0.5,0.2,1.2-0.3,1.5l-3.5,2.4C142.3,95.7,141,96.1,140.1,96.1z M140.1,93.9
		C140.1,93.9,140.1,93.9,140.1,93.9C140.1,93.9,140.1,93.9,140.1,93.9z M140.1,93.9C140.1,93.9,140.1,93.9,140.1,93.9
		C140.1,93.9,140.1,93.9,140.1,93.9z"/>
	<path style="clip-path:url(#SVGID_00000165945369368611316140000008376392616245696150_);fill:#251E1C;" d="M142.4,99.5
		c-1.8,0-2.6-0.7-2.9-1.4c-0.9-1.5,0.2-3.5,0.4-3.9c0.3-0.5,1-0.7,1.5-0.4c0.5,0.3,0.7,1,0.4,1.5c-0.3,0.6-0.6,1.4-0.4,1.7
		c0.1,0.1,0.3,0.2,1,0.2c0,0,2.2-0.1,6.2-2.8c0.5-0.3,1.2-0.2,1.5,0.3c0.3,0.5,0.2,1.2-0.3,1.5C145.2,99.5,142.7,99.5,142.4,99.5z"
		/>
	<path style="clip-path:url(#SVGID_00000165945369368611316140000008376392616245696150_);fill:#251E1C;" d="M145,102.9
		C145,102.9,145,102.9,145,102.9c-1.8-0.1-3-0.6-3.5-1.7c-0.7-1.6,0.6-3.3,0.7-3.5c0.4-0.5,1.1-0.6,1.6-0.2c0.5,0.4,0.6,1.1,0.2,1.5
		c-0.3,0.4-0.6,1-0.5,1.2c0,0,0.2,0.3,1.5,0.4c0.6,0,1.1,0.5,1.1,1.1C146.1,102.4,145.6,102.9,145,102.9z"/>
	<path style="clip-path:url(#SVGID_00000165945369368611316140000008376392616245696150_);fill:#FFFFFF;" d="M56.9,83.4
		c-0.2,0.6-0.8-3-2.9-1.8c-1.5,0.8-2.7,2.6-3.4,3.9c-0.8,1.4-4.3,3.6-4.5,4.4c0,0-26.1,12.8-24.5,18.3c0,0,11.9,50.5,15.7,66.4
		c0,0-5.2,28.4-3.1,29.9l45.3-1.4l0-0.2C79.1,129.8,56.9,83.4,56.9,83.4z"/>
	<path style="clip-path:url(#SVGID_00000165945369368611316140000008376392616245696150_);fill:#DADBDB;" d="M90.4,86.5l2.7,1.1
		c5.4,3.7,18.6,11.7,18.6,11.7c5.6,9.1,4.7,14.5,4.7,14.5l4.2-7.3l23.1,7.9c0,0-14.6,43.7-15.9,47.4c-3.2,8.7-10,10.9-10,10.9
		c-6.4,0.2-10.1-3.5-10.1-3.5l0,0l6.1,32.9l-20.3,0.6c0,0,0.5-90.1-4-115.4C89.3,86.7,89.8,86.3,90.4,86.5z"/>
	<path style="clip-path:url(#SVGID_00000165945369368611316140000008376392616245696150_);fill:#DADBDB;" d="M79.3,202.9l-40.2,1
		c-2.1-1.5,3.1-29.3,3.1-29.3c-3.7-15.9-15.7-66.4-15.7-66.4c-1-2.3,21.9-14.9,21.9-14.9c0.2-0.8,8.4-6.7,9.1-8.1
		c0,0,1.6,2.3,4.4,10.2c0,0,6.1,14.1,12.3,42.8c0.4,2,19.1-12.2,19.5-9.9c0.5,3.3,9.9,21.3,10.4,24.9c0.4,3.2-26.4,10.3-26.1,13.7
		C79,177.7,79.5,189.8,79.3,202.9z"/>
	<path style="clip-path:url(#SVGID_00000165945369368611316140000008376392616245696150_);fill:#251E1C;" d="M50.3,145.7
		c-0.1,0-0.2,0-0.3-0.1L39,142c-0.6-0.2-0.8-0.8-0.7-1.3c0.2-0.6,0.8-0.8,1.3-0.7l11,3.7c0.6,0.2,0.8,0.8,0.7,1.3
		C51.1,145.4,50.7,145.7,50.3,145.7z"/>
	<path style="clip-path:url(#SVGID_00000165945369368611316140000008376392616245696150_);fill:#251E1C;" d="M57.8,140.8
		c-0.5,0-0.9-0.3-1-0.8l-3.1-12.5c-1.7-5.5-4.9-11.3-5.3-11.9c-7.2-8.8-18.4-9.5-18.5-9.5c-0.6,0-1-0.5-1-1.1c0-0.6,0.5-1,1.1-1
		c0.5,0,12.3,0.7,20.1,10.3c0,0,0.1,0.1,0.1,0.1c0.2,0.3,3.7,6.4,5.6,12.5c0,0,0,0,0,0.1l3.1,12.5c0.1,0.6-0.2,1.1-0.8,1.3
		C58,140.8,57.9,140.8,57.8,140.8z"/>
	<path style="clip-path:url(#SVGID_00000165945369368611316140000008376392616245696150_);fill:#251E1C;" d="M112.9,198.9
		c-0.5,0-0.9-0.4-1-0.9l-5.2-28.7c0-0.1,0-0.2,0-0.3l3.1-24.5c0.1-0.6,0.6-1,1.2-0.9c0.6,0.1,1,0.6,0.9,1.2l-3.1,24.4l5.2,28.5
		c0.1,0.6-0.3,1.1-0.8,1.2C113,198.9,112.9,198.9,112.9,198.9z"/>
	<path style="clip-path:url(#SVGID_00000165945369368611316140000008376392616245696150_);fill:#251E1C;" d="M116,173.8
		c-2.5,0-4.1-1.1-4.2-1.2c-0.5-0.3-0.6-1-0.3-1.5c0.3-0.5,1-0.6,1.5-0.3c0.1,0.1,2,1.3,4.8,0.6c3.3-0.9,6.4-4.4,9.1-10.2l15.5-46.4
		l-18.8-6.2c-0.5-0.2-0.8-0.8-0.6-1.4c0.2-0.5,0.8-0.8,1.4-0.6l19.8,6.6c0.3,0.1,0.5,0.3,0.6,0.6c0.1,0.3,0.1,0.6,0,0.8l-15.9,47.4
		c-3,6.5-6.5,10.3-10.5,11.4C117.4,173.8,116.7,173.8,116,173.8z"/>
	<path style="clip-path:url(#SVGID_00000165945369368611316140000008376392616245696150_);fill:#FFFFFF;" d="M122.2,119.6
		c0.9-4.8-3.2-4.2-3.2-4.2c1.2-2.5,0.2-3.5,0.2-3.5c-1.8-2.8-5.3,0.2-5.3,0.2l4.8-10.8c3-6.5-0.2-5.5-0.2-5.5
		c-1.4-1.2-8.3,10.8-8.3,10.8l-6.9,11.1l-1.2-6.5c-2.8-7.6-6.5-5.3-6.5-5.3l1.4,5.5l0.7,3.5l0.2,15l-0.9,0.5l-2.9,1.5l0,0l-0.1-0.3
		l5.8,12.2l0,0l1-0.6l7.6-3.5l7.4-5.3l8.3-9.7C126.1,120.5,122.2,119.6,122.2,119.6z"/>
	<path style="clip-path:url(#SVGID_00000165945369368611316140000008376392616245696150_);fill:#251E1C;" d="M125.4,120.8
		c-0.5-1-1.3-1.6-2-1.9c0.1-1.5-0.2-2.7-1-3.5c-0.6-0.6-1.3-0.9-1.9-1c0.4-1.8-0.1-2.8-0.4-3.1c-0.6-0.9-1.5-1.4-2.5-1.6
		c-0.5-0.1-1,0-1.4,0.1l3.6-8c1.5-3.3,1.8-5.3,0.8-6.4c-0.5-0.6-1.3-0.8-1.9-0.7c-0.2,0-0.4-0.1-0.6,0c-0.9,0.2-2.1,1-5.4,6.1
		c-1.7,2.6-3.2,5.1-3.3,5.4l-5.4,8.6l-0.6-3.6c0-0.1,0-0.1,0-0.2c-1.2-3.4-2.9-5.5-4.8-6.1c-1.8-0.6-3.1,0.2-3.3,0.3
		c-0.4,0.3-0.6,0.7-0.5,1.2l1.4,5.5l0.7,3.3l0.2,14.9c0,0.6,0.5,1.1,1.1,1.1c0,0,0,0,0,0c0.6,0,1.1-0.5,1.1-1.1l-0.2-15
		c0-0.1,0-0.1,0-0.2l-0.7-3.5c0,0,0,0,0-0.1l-1.1-4.5c0.2,0,0.4,0,0.6,0.1c1.2,0.4,2.5,2.1,3.4,4.7l1.1,6.4c0.1,0.4,0.4,0.8,0.9,0.9
		c0.4,0.1,0.9-0.1,1.1-0.5l6.9-11.1c0,0,0,0,0,0c3.2-5.6,6.1-9.5,7.1-10.3c0.2,0,0.3,0,0.5,0c0,0,0.1,0,0.1,0c0.1,0.2,0.2,1.2-1.1,4
		l-4.8,10.8c-0.2,0.5-0.1,1,0.3,1.3c0.4,0.3,1,0.3,1.4,0c0.4-0.3,1.7-1.3,2.7-1.1c0.2,0,0.6,0.1,0.9,0.7c0,0,0,0.1,0.1,0.1
		c0,0.1,0.3,0.7-0.4,2.3c-0.2,0.4-0.1,0.8,0.1,1.1c0.2,0.3,0.7,0.5,1.1,0.4c0,0,1.1-0.2,1.7,0.4c0.5,0.5,0.4,1.6,0.3,2.4
		c-0.1,0.6,0.3,1.1,0.8,1.3c0,0,1,0.3,1.4,1.1c0.3,0.6,0.2,1.5-0.3,2.5l-8.1,9.5l-7.2,5.2l-6.6,3l-1.4,2c0.2,0.4,0.6,0.6,1,0.6
		c0.2,0,0.3,0,0.5-0.1l7.6-3.5c0.1,0,0.1-0.1,0.2-0.1l7.4-5.3c0.1-0.1,0.1-0.1,0.2-0.2l8.3-9.7c0.1-0.1,0.1-0.2,0.2-0.2
		C125.9,123.7,126,122.1,125.4,120.8z"/>
	<path style="clip-path:url(#SVGID_00000165945369368611316140000008376392616245696150_);fill:#251E1C;" d="M116.7,119.3
		c-0.2,0-0.5-0.1-0.7-0.3c-0.5-0.4-0.5-1.1-0.1-1.6l2.3-2.8c0.4-0.5,1.1-0.5,1.6-0.1c0.5,0.4,0.5,1.1,0.1,1.6l-2.3,2.8
		C117.3,119.2,117,119.3,116.7,119.3z"/>
	<path style="clip-path:url(#SVGID_00000165945369368611316140000008376392616245696150_);fill:#251E1C;" d="M111.6,116.1
		c-0.2,0-0.5-0.1-0.7-0.3c-0.5-0.4-0.5-1.1-0.1-1.6l2.3-2.8c0.4-0.5,1.1-0.5,1.6-0.1c0.5,0.4,0.5,1.1,0.1,1.6l-2.3,2.8
		C112.2,116,111.9,116.1,111.6,116.1z"/>
	<path style="clip-path:url(#SVGID_00000165945369368611316140000008376392616245696150_);fill:#251E1C;" d="M119.9,123.5
		c-0.2,0-0.5-0.1-0.7-0.3c-0.5-0.4-0.5-1.1-0.1-1.6l2.3-2.8c0.4-0.5,1.1-0.5,1.6-0.1c0.5,0.4,0.5,1.1,0.1,1.6l-2.3,2.8
		C120.6,123.4,120.2,123.5,119.9,123.5z"/>
	<path style="clip-path:url(#SVGID_00000165945369368611316140000008376392616245696150_);fill:#251E1C;" d="M24.7,103.4
		c-0.4,0-0.7-0.2-0.9-0.5c-0.3-0.5-0.1-1.1,0.4-1.4L45.5,89c0.5-0.3,1.1-0.1,1.4,0.4c0.3,0.5,0.1,1.1-0.4,1.4l-21.4,12.5
		C25,103.4,24.9,103.4,24.7,103.4z"/>
	<path style="clip-path:url(#SVGID_00000165945369368611316140000008376392616245696150_);fill:#251E1C;" d="M45.1,181
		c-0.7,0-1.4-0.1-2.2-0.4c-3.1-1.1-5.6-4.3-7.4-9.5c0,0,0-0.1,0-0.1l-13.9-55.6c-0.3-0.7-1.8-4.4-1.1-8.6c0.1-0.6,0.6-1,1.2-0.8
		c0.6,0.1,1,0.6,0.8,1.2c-0.7,3.8,0.9,7.4,0.9,7.4c0,0.1,0,0.1,0.1,0.2l13.9,55.7c1.6,4.5,3.7,7.3,6.1,8.2c2.2,0.8,3.9-0.3,4-0.4
		c0,0,0.1-0.1,0.2-0.1l56.4-25l-11.8-23L43.9,154c-0.5,0.3-1.2,0-1.4-0.5c-0.3-0.5,0-1.2,0.5-1.4l49.4-24.4c0.3-0.1,0.5-0.1,0.8,0
		c0.3,0.1,0.5,0.3,0.6,0.5l12.7,25c0.1,0.3,0.1,0.6,0,0.8c-0.1,0.3-0.3,0.5-0.6,0.6L48.7,180C48.3,180.3,46.9,181,45.1,181z"/>
	<path style="clip-path:url(#SVGID_00000165945369368611316140000008376392616245696150_);fill:#251E1C;" d="M110.9,99.5
		c-0.2,0-0.4,0-0.5-0.2l-11.4-7c-0.5-0.3-0.7-0.9-0.3-1.4c0.3-0.5,0.9-0.7,1.4-0.3l11.4,7c0.5,0.3,0.7,0.9,0.3,1.4
		C111.6,99.4,111.2,99.5,110.9,99.5z"/>
	<path style="clip-path:url(#SVGID_00000165945369368611316140000008376392616245696150_);fill:#251E1C;" d="M67.3,138.5
		c-0.5,0-0.9-0.3-1-0.8c-1.2-4.2-9.4-14.9-9.5-15c-0.3-0.4-0.3-1,0-1.3l4.9-6.2l-6.8-0.4c-0.6,0-1-0.5-1-1c-0.5-8.9-4.6-26-4.7-26.2
		c-0.1-0.6,0.2-1.2,0.8-1.3c0.6-0.1,1.2,0.2,1.3,0.8c0.2,0.7,3.9,16.3,4.7,25.6l7.9,0.5c0.4,0,0.8,0.3,0.9,0.6
		c0.2,0.4,0.1,0.8-0.1,1.1L59,122c1.9,2.5,8.2,11.1,9.3,15.1c0.2,0.6-0.2,1.2-0.7,1.4C67.5,138.5,67.4,138.5,67.3,138.5z"/>
	<path style="clip-path:url(#SVGID_00000165945369368611316140000008376392616245696150_);fill:#251E1C;" d="M99.1,102.2
		c-0.4,0-0.8-0.2-1-0.6L92,88c-0.2-0.6,0-1.2,0.6-1.4c0.6-0.2,1.2,0,1.4,0.6l6.1,13.6c0.2,0.6,0,1.2-0.6,1.4
		C99.4,102.2,99.3,102.2,99.1,102.2z"/>
	<path style="clip-path:url(#SVGID_00000165945369368611316140000008376392616245696150_);fill:#251E1C;" d="M72.8,178.7
		c-1.8,0-3.2-1.4-3.2-3.2c0-1.8,1.4-3.2,3.2-3.2c1.8,0,3.2,1.4,3.2,3.2C76,177.2,74.5,178.7,72.8,178.7z M72.8,174.5
		c-0.5,0-1,0.4-1,1c0,0.5,0.4,1,1,1c0.5,0,1-0.4,1-1C73.8,174.9,73.3,174.5,72.8,174.5z"/>
</g>
</svg>
