<?xml version="1.0" encoding="UTF-8"?>
<svg xmlns="http://www.w3.org/2000/svg" version="1.1" viewBox="0 0 512 478.6">
  <defs>
    <style>
      .cls-1 {
        fill: #d10b17;
      }
    </style>
  </defs>
  <!-- Generator: Adobe Illustrator 28.6.0, SVG Export Plug-In . SVG Version: 1.2.0 Build 709)  -->
  <g>
    <g id="Icons">
      <g>
        <path class="cls-1" d="M373.2,0c-54.6,0-98,38.4-117.2,58.9C236.8,38.4,193.5,0,138.8,0,48.6,0,0,71.9,0,139.6c0,172.4,200.6,308.8,240.8,334.5,4.6,2.8,9.8,4.4,15.2,4.4s10.7-1.6,15.3-4.4c40.2-25.6,240.7-162,240.7-334.5S463.4,0,373.2,0ZM256,452c-.4,0-.7-.1-1-.3-38.1-24.3-228.4-153.5-228.4-312.1S65.9,26.6,138.9,26.6s105.2,59,106.5,60.7h.1c0,0,.1.3.1.3,2.6,3,6.4,4.8,10.4,4.8s6.3-1.2,8.7-3.1c.6-.5,1.2-1.1,1.7-1.7l.2-.2c4.9-6.2,50-60.7,106.6-60.7s112.3,58.3,112.3,113c0,158.6-190.3,287.8-228.4,312.1-.4,0-.8.2-1.1.2Z"/>
        <path class="cls-1" d="M394.8,314.6c0-7.4-6-13.2-13.2-13.2h-3.4v-87.2c0-16.6-13.4-30-30-30h-16.8c-16.6,0-30,13.4-30,30v87.2h-7v-62.1c0-16.6-13.4-30-30-30h-16.8c-16.6,0-30,13.4-30,30v62.1h-7v-37c0-16.6-13.4-30-30-30h-16.8c-16.6,0-30,13.4-30,30v37h-3.4c-7.4,0-13.2,6-13.2,13.2s6,13.2,13.2,13.2h251.1c7.3,0,13.3-5.9,13.3-13.2ZM163.9,260.9h16.8c1.9,0,3.4,1.6,3.4,3.4v37h-23.6v-37c0-1.8,1.5-3.4,3.4-3.4ZM247.7,235.8h16.8c1.9,0,3.4,1.6,3.4,3.4v62.1h-23.6v-62.1c-.2-1.8,1.4-3.4,3.4-3.4ZM331.3,210.7h16.8c1.9,0,3.4,1.6,3.4,3.4v87.2h-23.6v-87.2c0-1.8,1.5-3.4,3.4-3.4Z"/>
        <path class="cls-1" d="M155.6,227.5c2,0,3.8-.4,5.5-1.2l185.5-85-1,3.9c-1.9,7.1,2.5,14.3,9.5,16.2,1.1.3,2.2.4,3.3.4h0c6.1,0,11.3-4.1,12.8-10l8.3-32.5c1.9-7.1-2.5-14.3-9.5-16.2l-32.4-8.3c-1.2-.4-2.5-.5-3.7-.5-5.8,0-11.1,3.9-12.8,9.5-2,6.7,1.6,13.7,7.9,16.2l-179.1,82.1c-6.7,3-9.6,11-6.6,17.6,2.4,4.7,7.1,7.8,12.3,7.8Z"/>
      </g>
    </g>
  </g>
</svg>