<?xml version="1.0" encoding="UTF-8"?>
<svg xmlns="http://www.w3.org/2000/svg" version="1.1" xmlns:xlink="http://www.w3.org/1999/xlink" viewBox="0 0 181.8 197.6">
  <defs>
    <style>
      .cls-1 {
        clip-path: url(#clippath-6);
      }

      .cls-2 {
        clip-path: url(#clippath-7);
      }

      .cls-3 {
        clip-path: url(#clippath-17);
      }

      .cls-4 {
        clip-path: url(#clippath-15);
      }

      .cls-5 {
        fill: #231815;
      }

      .cls-6 {
        clip-path: url(#clippath-4);
      }

      .cls-7 {
        clip-path: url(#clippath-9);
      }

      .cls-8 {
        clip-path: url(#clippath-10);
      }

      .cls-9 {
        fill: #fff;
      }

      .cls-10 {
        fill: none;
        stroke: #fff;
        stroke-miterlimit: 10;
      }

      .cls-11 {
        clip-path: url(#clippath-11);
      }

      .cls-12 {
        fill: #21110d;
      }

      .cls-13 {
        clip-path: url(#clippath-1);
      }

      .cls-14 {
        fill: #ffd9dd;
      }

      .cls-15 {
        clip-path: url(#clippath-5);
      }

      .cls-16 {
        clip-path: url(#clippath-8);
      }

      .cls-17 {
        clip-path: url(#clippath-3);
      }

      .cls-18 {
        clip-path: url(#clippath-12);
      }

      .cls-19 {
        fill: #d10b17;
      }

      .cls-20 {
        clip-path: url(#clippath-14);
      }

      .cls-21 {
        clip-path: url(#clippath-16);
      }

      .cls-22 {
        clip-path: url(#clippath-2);
      }

      .cls-23 {
        clip-path: url(#clippath-13);
      }

      .cls-24 {
        clip-path: url(#clippath);
      }
    </style>
    <clipPath id="clippath">
      <path class="cls-14" d="M61.1,74.5l22,48.2-44.7,26.9,30.4,11.3-12.5,32.4-44.4-18.5s-13.9-5.5-8.7-16.2l20.7-62.8s0-3.6,10-7.8l19.4-10.7,8.4-5.6-.6,2.8Z"/>
    </clipPath>
    <clipPath id="clippath-1">
      <rect class="cls-14" x="49.6" y="135" width="10.9" height="10.9"/>
    </clipPath>
    <clipPath id="clippath-2">
      <rect class="cls-14" x="49.6" y="135" width="10.9" height="10.9"/>
    </clipPath>
    <clipPath id="clippath-3">
      <rect class="cls-14" x="49.6" y="135" width="10.9" height="10.9"/>
    </clipPath>
    <clipPath id="clippath-4">
      <rect class="cls-14" x="49.6" y="135" width="10.9" height="10.9"/>
    </clipPath>
    <clipPath id="clippath-5">
      <rect class="cls-14" x="49.6" y="135" width="10.9" height="10.9"/>
    </clipPath>
    <clipPath id="clippath-6">
      <rect class="cls-14" x="49.6" y="135" width="10.9" height="10.9"/>
    </clipPath>
    <clipPath id="clippath-7">
      <rect class="cls-14" x="49.6" y="135" width="10.9" height="10.9"/>
    </clipPath>
    <clipPath id="clippath-8">
      <rect class="cls-14" x="49.6" y="135" width="10.9" height="10.9"/>
    </clipPath>
    <clipPath id="clippath-9">
      <rect class="cls-14" x="49.6" y="135" width="10.9" height="10.9"/>
    </clipPath>
    <clipPath id="clippath-10">
      <rect class="cls-14" x="49.6" y="135" width="10.9" height="10.9"/>
    </clipPath>
    <clipPath id="clippath-11">
      <rect class="cls-14" x="49.6" y="135" width="10.9" height="10.9"/>
    </clipPath>
    <clipPath id="clippath-12">
      <rect class="cls-14" x="49.6" y="135" width="10.9" height="10.9"/>
    </clipPath>
    <clipPath id="clippath-13">
      <rect class="cls-14" x="49.6" y="135" width="10.9" height="10.9"/>
    </clipPath>
    <clipPath id="clippath-14">
      <rect class="cls-14" x="49.6" y="135" width="10.9" height="10.9"/>
    </clipPath>
    <clipPath id="clippath-15">
      <rect class="cls-14" x="49.6" y="135" width="10.9" height="10.9"/>
    </clipPath>
    <clipPath id="clippath-16">
      <rect class="cls-14" x="49.6" y="135" width="10.9" height="10.9"/>
    </clipPath>
    <clipPath id="clippath-17">
      <rect class="cls-14" x="49.6" y="135" width="10.9" height="10.9"/>
    </clipPath>
  </defs>
  <!-- Generator: Adobe Illustrator 28.6.0, SVG Export Plug-In . SVG Version: 1.2.0 Build 709)  -->
  <g>
    <g id="_レイヤー_1" data-name="レイヤー_1">
      <path class="cls-14" d="M92,72.2s2.6-3.3,7.1,3.1l1.9,2.9,19.4,12.6s7.8,5.8,8.7,11.7l1.9,22.3s24,1.6,26.9,5.2l-8.4,47.3s-2.9,23.6-38.5-4.9l-19.4-26.6c0,.1,5.7-60.4.4-73.6Z"/>
      <path class="cls-10" d="M61.4,73.2l22,48.2-44.7,26.9,30.4,11.3-12.5,32.4-44.4-18.5s-13.9-5.5-8.7-16.2l20.7-62.8s0-3.6,10-7.8l19.4-10.7,8.4-5.6-.6,2.8Z"/>
      <path class="cls-9" d="M88.2,67.9s3,.3,4,2.5c3.8,9,5.8,32.6,1.3,65.3l-2.6,4.5-30.1-66.4,1.7-4.3c.3-.9,1.1-1.5,2.1-1.6h.3l1.1-13.5,22.2,13.5Z"/>
      <g>
        <path class="cls-19" d="M169.5,74c.6,1,2,1.4,3,.8l4.3-2.5c1.1-.6,1.5-2,.9-3.1s-2-1.5-3.1-.9l-4.3,2.5c-1.1.6-1.5,2-.8,3.2-.1,0,0,0,0,0Z"/>
        <path class="cls-19" d="M160.9,67.5c.2.2.4.5.6.6,1,.7,2.4.5,3.2-.5l2.4-3.4c.7-1,.5-2.4-.5-3.2-1-.7-2.4-.5-3.2.5l-2.4,3.5c-.5.8-.5,1.7-.1,2.5Z"/>
        <path class="cls-19" d="M138.3,63s0,0,0,0l2.8,4.2c.7,1,2.1,1.3,3.1.6,1-.7,1.3-2.1.6-3.1l-2.7-4.2c-.7-1-2.1-1.3-3.1-.6-1,.7-1.3,2.1-.7,3.1Z"/>
        <path class="cls-19" d="M150.6,65c.5.7,1.3,1.2,2.2,1,1.2-.2,2.1-1.3,1.9-2.6l-.6-4.1c-.2-1.2-1.3-2.1-2.6-1.9-1.2.2-2.1,1.3-1.9,2.6l.6,4.1c.2.4.3.7.4.9Z"/>
      </g>
      <g>
        <path class="cls-5" d="M83.2,84.9h.2c.3,0,.6-.2.8-.5l6.5-10.4c.3-.5.2-1.2-.4-1.6-.5-.3-1.2-.2-1.6.4l-5.7,9.2-16.6-13.9c-.5-.4-1.2-.3-1.6,0-.4.5-.3,1.2,0,1.6l17.6,14.8c.2.2.5.3.7.3Z"/>
        <path class="cls-5" d="M82.4,84.7l-17.6-14.8c-.3-.2-.4-.5-.4-.8s0-.7.3-.9c.4-.5,1.2-.6,1.8-.2l16.5,13.9,5.7-9.1c.2-.3.5-.5.8-.6s.7,0,.9.2c.3.2.5.5.6.8s0,.7-.2.9l-6.5,10.4c-.2.3-.5.5-.9.6h-.2c-.3-.1-.5-.2-.8-.4ZM89.5,72.4c-.3,0-.5.2-.7.5l-5.8,9.2h-.2l-16.5-13.9c-.4-.4-1.1-.3-1.5,0s-.3.5-.2.8c0,.3.2.5.4.7l17.6,14.8c.2.2.5.3.8.2.3,0,.6-.2.7-.5l6.5-10.3c0-.2.2-.5,0-.8s-.2-.5-.5-.7c-.2,0-.4-.2-.6-.2q0,0,0,0Z"/>
      </g>
      <polygon class="cls-19" points="78.1 87.7 89.3 87.7 91.9 90.7 88.4 99.7 95.8 115.3 93.1 141.6 79.3 113.6 81.5 99.3 75.5 91.1 78.1 87.7"/>
      <g>
        <path class="cls-5" d="M75.5,92.3c.3,0,.7-.2.9-.4l4.7-6c.4-.5.3-1.2-.2-1.6s-1.2-.3-1.6.2l-4.7,6c-.4.5-.3,1.2.2,1.6.2,0,.4.2.7.2Z"/>
        <path class="cls-5" d="M74.7,92.1c-.3-.2-.4-.5-.5-.8,0-.3,0-.7.3-.9l4.7-6c.2-.3.5-.4.8-.5.3,0,.7,0,.9.3.3.2.4.5.5.8,0,.3,0,.7-.3.9l-4.7,6c-.2.3-.6.5-1,.5s-.5,0-.7-.3ZM80.1,84c-.3,0-.5.2-.7.4l-4.7,6c-.2.2-.3.5-.2.8,0,.3.2.5.4.7.2,0,.4.2.7.2s.6,0,.8-.4l4.7-6c.2-.2.3-.5.2-.8,0-.3-.2-.5-.4-.7-.2,0-.4-.2-.6-.2h-.2Z"/>
      </g>
      <g>
        <path class="cls-5" d="M91.9,91.8c.3,0,.5,0,.7-.3.5-.4.5-1.1,0-1.6l-4.7-5.6c-.4-.5-1.1-.5-1.6,0s-.5,1.1,0,1.6l4.7,5.6c.2.3.5.4.9.4Z"/>
        <path class="cls-5" d="M90.9,91.5l-4.7-5.6c-.4-.5-.4-1.3,0-1.8.3-.2.6-.3.9-.3s.6.2.8.4l4.7,5.6c.4.5.4,1.3,0,1.8s-.5.3-.8.3-.6,0-.9-.4ZM86.4,84.3c-.4.4-.5,1,0,1.5l4.7,5.6c.2.2.5.4.8.4s.5,0,.7-.2c.4-.4.5-1,0-1.5l-4.7-5.6c-.2-.2-.4-.3-.7-.4h0c-.2-.1-.5,0-.7.2Z"/>
      </g>
      <path class="cls-9" d="M38,151.4c-.7-1.2-.3-2.7.9-3.4l61.1-35.6s2.6-1.6,3.9,1.9l25.6,43.7s2.3,2.9-1,4.9l-60.2,32.7s-3.3,2.3-5.2-.6l-25.1-43.6Z"/>
      <path class="cls-9" d="M103.3,156.4s-11.2,3.2-13.8,3.7c0,0-8.9,4-11.5,6.9,0,0-4.3,1.4-12.9-2l-5.7,12.6,13.5,5.5s14.9,12.1,18.4,6c0,0,4,.3,4-2.9,0,0,5.7.9,4.6-3.4,0,0,8,.9,7.8-4.3,0,0,0-1.1-3.2-2.6,0,0-12.1-4.3-12.6-8.3,0,0,10.3-2.3,13.2-8,0,0,1.4-3.5-1.8-3.2Z"/>
      <g>
        <path class="cls-5" d="M72.3,184.1l-3.6-1.3c-.6-.2-.9-.8-.6-1.4.2-.6.8-.9,1.4-.6l3.7,1.4c0,0,.2.1.3.2,2.9,2.3,11.2,8.2,15.2,7.4.7-.1,1.2-.5,1.6-1.1.2-.4.6-.6,1-.5.5,0,1.8,0,2.4-.7.2-.2.4-.5.4-1.1s0-.6.4-.8c.2-.2.6-.3.9-.3.8.1,2.6.1,3.3-.6.3-.3.3-.8,0-1.5,0-.3,0-.7.2-1s.6-.4.9-.4c1.1.1,4.4.1,5.9-1.2.5-.5.7-1.1.7-1.9,0-.2-.5-.8-2.5-1.7-.4-.1-3.2-1.2-6.2-2.7-4.5-2.3-6.8-4.4-7.1-6.5,0-.6.3-1.1.8-1.2,0,0,2.5-.6,5.3-1.8,2.5-1.1,5.8-3,7.1-5.6.2-.5.3-1.3.2-1.5,0-.1-.2-.1-.7-.1-.8.2-6.6,1.8-10.5,2.9-2.6.7-5,1.6-7.3,2.9-3.4,1.8-5.8,3.3-6.8,4.5-.5.7-1.7,1.6-3.6,1.1-.6-.1-.9-.7-.8-1.3s.7-.9,1.3-.8c.8.2,1.2-.1,1.3-.3,0-.1,0-.1,0-.1,1.2-1.3,3.7-3,7.5-5,2.5-1.3,5.1-2.3,7.8-3,4.2-1.1,10.5-2.9,10.5-2.9h.2c1.6-.1,2.3.5,2.7,1,1,1.3.2,3.3,0,3.7h0c-2.5,5.1-9.8,7.6-12.7,8.4,1.6,2.2,7.4,5.1,11.5,6.6h0c3.3,1.5,3.8,2.9,3.8,3.5,0,1.5-.4,2.7-1.4,3.6-1.7,1.6-4.5,1.9-6.2,1.9,0,1-.4,1.7-.8,2.1-1.1,1.2-2.9,1.4-4.1,1.4-.2.6-.5,1.1-1,1.6-1.1,1-2.6,1.2-3.4,1.2-.7.8-1.6,1.4-2.7,1.6-.4.1-.7.1-1.1.1-5.5-.4-14-7-15.6-8.2ZM106.5,178.5h0ZM106.5,178.5h0ZM106.5,178.5h0Z"/>
        <g>
          <path class="cls-5" d="M72.2,184.2l-3.5-1.3c-.6-.2-1-1-.7-1.6.2-.6,1-1,1.6-.7l3.7,1.4c0,0,.3.1.4.2,2.9,2.3,11.1,8.1,15.1,7.4.7-.1,1.1-.4,1.4-1s.7-.7,1.2-.6c.4,0,1.7,0,2.3-.6s.4-.4.4-1,.2-.7.4-.9c.3-.2.6-.3,1-.3.7.1,2.5.1,3.1-.5.2-.3.3-.7,0-1.4,0-.4,0-.8.3-1.1s.7-.5,1.1-.4c1.1.1,4.4.1,5.7-1.2.4-.4.7-1,.6-1.7,0-.2-.6-.8-2.4-1.6-.3-.1-3.2-1.2-6.2-2.7-4.5-2.3-6.9-4.5-7.2-6.6,0-.6.3-1.3,1-1.4,0,0,2.5-.6,5.3-1.8,2.5-1.1,5.7-2.9,7-5.5.2-.6.3-1.2.2-1.3,0,0,0-.1-.5-.1-.6.2-6.5,1.8-10.5,2.9-2.5.7-5,1.6-7.3,2.9-3.4,1.8-5.7,3.3-6.8,4.4-.6.8-1.9,1.6-3.7,1.2-.3-.1-.6-.3-.8-.6-.2-.3-.2-.6,0-.9,0-.3.3-.6.6-.8.3-.2.6-.2.9-.1.7.2,1-.1,1.1-.2,0-.1,0-.1,0-.1h0c1.2-1.4,3.7-3.1,7.5-5,2.5-1.3,5.1-2.3,7.8-3.1,4.2-1.1,10.5-2.9,10.5-2.9h.2c1.6-.1,2.5.5,2.9,1.1,1,1.4.3,3.4,0,3.8h0c-2.4,5-9.4,7.5-12.6,8.4,1.7,2.1,7,4.8,11.3,6.3h0c3.3,1.5,3.9,3,3.9,3.7,0,1.5-.4,2.8-1.4,3.8-1.6,1.5-4.2,1.9-6.2,1.9,0,1-.5,1.7-.8,2-1.1,1.2-2.9,1.4-4,1.4h0c-.2.6-.5,1.1-1,1.5-1.1,1-2.6,1.2-3.4,1.3-.7.8-1.6,1.4-2.7,1.6-.4.1-.7.1-1.1.1h0c-5.7-.4-14.2-6.9-15.9-8.3ZM96.2,187.3c1,0,2.9-.1,4-1.3.5-.5.7-1.2.7-2v-.2h.2c1.9,0,4.5-.3,6.1-1.8.9-.9,1.4-2.1,1.3-3.5,0-.5-.4-1.9-3.7-3.4h0c-3.7-1.3-9.9-4.2-11.6-6.6v-.2c0,0,0-.1,0-.1,3-.8,10.2-3.3,12.6-8.2h0c.2-.5.9-2.3,0-3.6-.4-.5-1.1-1.1-2.6-.9h-.2c0,0-6.4,1.8-10.5,2.9-2.7.7-5.3,1.7-7.8,3-3.7,2-6.2,3.6-7.4,5h0c0,.2-.5.6-1.4.4-.2-.1-.5,0-.7.1s-.4.3-.4.6c0,.2,0,.5,0,.7s.3.4.6.4c1.7.4,2.9-.3,3.4-1,1.1-1.1,3.4-2.7,6.9-4.5,2.3-1.2,4.8-2.2,7.4-2.9,4-1.1,9.8-2.7,10.5-2.9.4,0,.7,0,.8.2.2.3,0,1.2,0,1.7-1.4,2.7-4.7,4.6-7.2,5.7-2.8,1.2-5.3,1.8-5.4,1.8-.5.1-.8.6-.7,1,.3,2,2.6,4.1,7,6.4,3,1.5,5.9,2.6,6.2,2.7,1.8.8,2.4,1.5,2.5,1.7h0,0,0,0v.2c0,.8-.2,1.5-.7,2-1.5,1.4-4.8,1.4-6,1.3-.3,0-.6.1-.8.3-.2.2-.3.5-.2.8.2.8,0,1.3-.2,1.7-.7.8-2.8.7-3.4.6-.3,0-.5,0-.7.2s-.3.4-.3.7c0,.7-.3,1.1-.5,1.3-.9.8-2.5.7-2.6.7-.4,0-.7.2-.9.5-.4.6-.9,1-1.7,1.2-4.1.8-12.5-5.1-15.3-7.5,0-.1-.2-.1-.3-.1l-3.7-1.4c-.5-.2-1,.1-1.2.5-.2.5,0,1,.5,1.2l3.6,1.3h0c1.6,1.3,10.1,7.8,15.6,7.8s.7,0,1.1-.1c1.1-.2,1.9-.7,2.6-1.5h0c0-.1,0-.1,0-.1.8,0,2.3-.2,3.3-1.2.4-.4.7-.9.9-1.5h0c0-.1.4-.1.4-.1Z"/>
          <path class="cls-5" d="M72.2,184.3l-3.5-1.3c-.7-.3-1.1-1.1-.8-1.8.3-.7,1.1-1.1,1.8-.8l3.7,1.4c0,.1.3.1.4.2,2.8,2.3,11.1,8.1,15,7.4.6-.1,1.1-.4,1.4-.9s.8-.7,1.3-.7,1.7-.1,2.2-.6c0-.1.3-.4.3-.9s.2-.8.5-1c.3-.3.7-.4,1.1-.3.8.1,2.5.1,3-.5.2-.2.2-.6,0-1.2,0-.4,0-.9.3-1.3.3-.3.7-.5,1.2-.5,1.1.1,4.3.1,5.6-1.1.4-.4.6-.9.6-1.6,0-.2-.6-.8-2.3-1.5-.3-.1-3.2-1.2-6.2-2.7-4.6-2.3-7-4.5-7.3-6.7,0-.7.4-1.4,1.1-1.6,0,0,2.5-.6,5.3-1.8,2.5-1.1,5.7-2.9,7-5.5.2-.5.2-1.1.2-1.2h-.4c-.7.2-6.5,1.8-10.5,2.9-2.5.7-5,1.6-7.3,2.8-3.4,1.8-5.7,3.3-6.7,4.4-.6.9-2,1.7-3.9,1.2-.4-.1-.7-.3-.9-.6-.2-.3-.2-.7-.2-1.1,0-.4.3-.7.6-.9.3-.2.7-.2,1-.2.7.2.9-.1.9-.1,0-.1,0-.1,0-.2h0c1.2-1.4,3.8-3.1,7.6-5.1,2.5-1.3,5.1-2.3,7.9-3.1,4.2-1.1,10.5-2.9,10.5-2.9h.3c1.7-.2,2.6.5,3,1.1,1.1,1.5.3,3.6,0,4h0c-2.4,5-9.4,7.5-12.5,8.4,1.8,2,7,4.6,11.1,6.1h0c3.4,1.5,3.9,3,4,3.8,0,1.5-.4,2.9-1.5,3.9-1.6,1.5-4.2,1.9-6.2,2,0,1-.5,1.6-.9,2-1.1,1.3-3.1,1.5-4.1,1.5-.2.6-.5,1.1-1,1.5-1.1,1-2.6,1.3-3.5,1.3-.7.8-1.6,1.4-2.8,1.6-.4.1-.8.1-1.2.1h0c-5.4,0-13.9-6.5-15.6-7.9ZM96.4,187.5c1,0,2.9-.2,3.9-1.4.3-.4.7-1,.8-2h0c0-.1,0-.1,0-.1,1.9,0,4.5-.4,6.1-1.9,1-.9,1.5-2.2,1.4-3.7,0-.7-.5-2.1-3.8-3.6h0c-4.4-1.6-9.7-4.3-11.4-6.4v-.2c0,0,0-.1,0-.1,2.9-.9,10.1-3.4,12.5-8.3h0c.2-.5.9-2.5,0-3.8-.4-.5-1.2-1.1-2.8-1h-.2s-6.4,1.8-10.5,2.9c-2.7.7-5.3,1.7-7.8,3-3.8,2-6.3,3.7-7.5,5h0c0,.2-.4.5-1.2.3-.3-.1-.6,0-.8.1-.3.2-.4.4-.5.7s0,.6,0,.8c.2.3.4.4.7.5,1.8.4,3-.3,3.6-1.1,1-1.1,3.4-2.7,6.8-4.5,2.3-1.2,4.8-2.2,7.3-2.9,4-1.1,9.8-2.7,10.5-2.9.4,0,.6.1.6.1h0c0,.2,0,1-.2,1.5-1.3,2.6-4.6,4.5-7.1,5.6-2.8,1.2-5.2,1.8-5.3,1.8-.6.1-.9.7-.9,1.3.3,2.1,2.6,4.2,7.1,6.5,3,1.5,5.9,2.6,6.2,2.7,1.8.8,2.3,1.4,2.4,1.7h0c0,.8-.2,1.3-.7,1.8-1.4,1.3-4.7,1.3-5.8,1.2-.4,0-.7.1-1,.4-.2.3-.3.7-.2,1,.2.7,0,1.2,0,1.5-.6.7-2.4.7-3.2.6-.3,0-.6,0-.9.3s-.4.5-.4.8c0,.6-.2.9-.4,1.1-.7.6-2,.7-2.4.6-.4,0-.8.2-1,.6-.3.6-.8.9-1.5,1.1-4,.8-12.3-5.1-15.2-7.4,0-.1-.2-.1-.3-.2l-3.7-1.4c-.6-.2-1.2.1-1.4.7-.2.6,0,1.2.7,1.4l3.5,1.3h0c1.6,1.3,10.1,7.8,15.7,7.8s.8,0,1.1-.1c1.1-.2,2-.7,2.6-1.5h0c.8,0,2.3-.3,3.4-1.2.4-.4.7-.9.9-1.5h0c0-.1.3.5.3.5ZM72.4,184.1l-3.6-1.3c-.5-.2-.8-.8-.6-1.3.2-.5.8-.8,1.3-.6l3.7,1.4c0,0,.2.1.3.2,2.9,2.3,11.2,8.2,15.2,7.4.7-.1,1.2-.5,1.6-1.1.2-.3.6-.6,1-.5.2,0,1.7,0,2.5-.7.2-.2.4-.5.4-1.2s0-.6.4-.8c.2-.2.5-.3.8-.2.8.1,2.7.1,3.3-.6.3-.3.3-.8,0-1.5,0-.3,0-.7.2-1s.6-.4.9-.4c1.2.1,4.5.1,5.9-1.2.5-.5.7-1.1.7-1.9h0c0-.1-.2-.3-.2-.3h0c-.3-.3-.9-.8-2.3-1.5-.5-.2-3.3-1.2-6.2-2.7-4.5-2.3-6.8-4.4-7.1-6.5,0-.5.3-1.1.8-1.2,0,0,2.6-.6,5.3-1.8,2.5-1.1,5.8-3,7.1-5.6.2-.5.3-1.3.2-1.6,0-.1-.3-.2-.7-.1l-.8.2c-1.9.5-6.4,1.8-9.6,2.7-2.6.7-5,1.6-7.4,2.9-3.4,1.8-5.8,3.4-6.8,4.5-.6.8-1.8,1.5-3.5,1.1-.3-.1-.5-.2-.6-.5,0-.2-.2-.5,0-.8s.2-.5.5-.6c.2-.1.5-.2.8-.1.8.2,1.2-.2,1.3-.3q0-.1,0-.1h0c1.2-1.3,3.7-3,7.5-5,2.5-1.3,5.1-2.3,7.8-3,4.2-1.1,10.5-2.9,10.5-2.9h.2c1.5-.1,2.3.5,2.7,1,1,1.3.2,3.3,0,3.6h0c-2.5,5-9.7,7.5-12.7,8.4h0c1.7,2.4,7.8,5.3,11.6,6.6h0c3.4,1.5,3.8,3,3.8,3.5,0,1.4-.4,2.7-1.4,3.6-1.6,1.5-4.3,1.9-6.2,1.9h0c0,.8-.3,1.5-.8,2.1-1.1,1.2-3,1.4-4.1,1.3h0c-.2.6-.5,1.1-1,1.6-1.1,1-2.6,1.2-3.4,1.2h0c-.6.8-1.6,1.4-2.7,1.6-.3.1-.7.1-1.1.1-5.8-.2-14.2-6.8-15.8-8ZM96.2,187.1c1,0,2.9-.1,3.9-1.3.5-.5.7-1.1.7-1.9v-.3h.3c1.9,0,4.5-.3,6-1.8.9-.9,1.3-2,1.3-3.4s-.4-1.8-3.6-3.3h0c-3.8-1.3-10-4.2-11.7-6.7l-.2-.3h.4c3-.9,10.1-3.4,12.5-8.2h0c0-.4.8-2.2,0-3.4-.3-.5-1-1-2.5-.9h0c0,0-6.4,1.8-10.5,2.9-2.7.7-5.3,1.7-7.7,3-3.7,2-6.2,3.6-7.4,4.9h0c0,.2-.6.7-1.6.5-.2-.1-.4,0-.6.1s-.3.3-.4.5,0,.4,0,.6c0,.2.3.3.5.4,1.6.4,2.7-.3,3.3-1,1.1-1.2,3.5-2.7,6.9-4.5,2.3-1.2,4.8-2.2,7.4-2.9,3.3-.9,7.7-2.1,9.6-2.7l.9-.2c.3,0,.8,0,1,.2.3.4,0,1.3,0,1.8-1.4,2.7-4.7,4.7-7.3,5.8-2.8,1.2-5.3,1.8-5.4,1.8-.4.1-.7.5-.6.9.3,2,2.6,4,7,6.3,2.9,1.5,5.6,2.5,6.2,2.7,1.7.8,2.4,1.5,2.6,1.8h0s0,.1,0,.1h0c0,1-.2,1.7-.8,2.2-1.5,1.4-4.9,1.4-6.1,1.3-.3,0-.5.1-.7.3s-.2.5-.2.7c.2.8.2,1.4-.2,1.8-.8.9-2.8.8-3.5.7-.2,0-.5,0-.6.2-.2.1-.3.4-.3.6,0,.8-.3,1.1-.5,1.4-.8.8-2.4.7-2.7.7s-.6.1-.7.4c-.4.7-1,1.1-1.8,1.2-4.1.8-12.6-5.1-15.5-7.5q0-.1-.2-.1l-3.7-1.4c-.4-.1-.9.1-1,.5s0,.9.5,1l3.6,1.3h0c1.6,1.3,10,7.8,15.5,7.8s.7,0,1.1-.1c1-.2,1.9-.7,2.5-1.5h0c0-.1,0-.1,0-.1.8,0,2.2-.2,3.2-1.2.4-.4.7-.9.9-1.4v-.2c0,0,.2-.1.2-.1Z"/>
        </g>
      </g>
      <polygon class="cls-9" points="64 160.6 74.4 163.7 69 184.8 51.1 178.3 64 160.6"/>
      <g>
        <path class="cls-5" d="M69.2,186.4c.2,0,.4,0,.5-.1.3-.1.5-.4.6-.7l6.2-21.7c0-.3,0-.6,0-.9-.2-.3-.4-.5-.7-.5l-4.5-1c-.6-.1-1.2.3-1.4.9,0,.6.3,1.2.9,1.4l3.3.7-5.5,19.3-4.1-1.5c-.6-.2-1.3.1-1.5.7-.2.6,0,1.3.7,1.5l5.3,1.9s.2,0,.3,0Z"/>
        <path class="cls-5" d="M68.8,186.4l-5.3-1.9c-.3-.1-.6-.4-.7-.7,0-.3-.2-.7,0-1,0-.3.4-.6.7-.7.3-.1.7-.2,1,0l4,1.5,5.4-19-3.2-.7c-.7-.1-1.1-.8-1-1.5s.8-1.1,1.5-1l4.5,1c.3.1.6.3.8.6.2.3.2.7,0,1l-6.2,21.7c0,.3-.3.6-.7.8-.2.1-.4.1-.6.1-.1-.1-.2-.1-.3-.2ZM69.8,162.4c0,.5.2,1.1.8,1.2l3.5.7-5.6,19.6-4.3-1.6c-.3-.1-.5-.1-.8,0-.2.1-.4.3-.5.6s0,.5,0,.8c0,.2.3.4.6.5l5.3,1.9c.3.1.6.1.8,0,.3-.1.4-.4.5-.6l6.2-21.7c0-.3,0-.6,0-.8s-.4-.4-.7-.5l-4.5-1h-.2c-.4.1-.9.4-1,.9Z"/>
      </g>
      <g>
        <path class="cls-14" d="M61.1,74.5l22,48.2-44.7,26.9,30.4,11.3-12.5,32.4-44.4-18.5s-13.9-5.5-8.7-16.2l20.7-62.8s0-3.6,10-7.8l19.4-10.7,8.4-5.6-.6,2.8Z"/>
        <g class="cls-24">
          <g>
            <g>
              <rect class="cls-14" x="49.6" y="135" width="10.9" height="10.9"/>
              <g class="cls-13">
                <path class="cls-14" d="M49.6,146.7c-.4,0-.8-.4-.8-.8s.4-.8.8-.8.8.4.8.8-.3.8-.8.8Z"/>
              </g>
            </g>
            <g>
              <rect class="cls-14" x="49.6" y="135" width="10.9" height="10.9"/>
              <g class="cls-22">
                <circle class="cls-14" cx="55" cy="145.9" r=".8"/>
              </g>
            </g>
            <g>
              <rect class="cls-14" x="49.6" y="135" width="10.9" height="10.9"/>
              <g class="cls-17">
                <circle class="cls-14" cx="60.5" cy="145.9" r=".8"/>
              </g>
            </g>
            <g>
              <rect class="cls-14" x="49.6" y="135" width="10.9" height="10.9"/>
              <g class="cls-6">
                <path class="cls-14" d="M49.6,141.3c-.4,0-.8-.4-.8-.8s.4-.8.8-.8.8.4.8.8-.3.8-.8.8Z"/>
              </g>
            </g>
            <g>
              <rect class="cls-14" x="49.6" y="135" width="10.9" height="10.9"/>
              <g class="cls-15">
                <circle class="cls-14" cx="55" cy="140.5" r=".8"/>
              </g>
            </g>
            <g>
              <rect class="cls-14" x="49.6" y="135" width="10.9" height="10.9"/>
              <g class="cls-1">
                <circle class="cls-14" cx="60.5" cy="140.5" r=".8"/>
              </g>
            </g>
            <g>
              <rect class="cls-14" x="49.6" y="135" width="10.9" height="10.9"/>
              <g class="cls-2">
                <path class="cls-14" d="M49.6,135.8c-.4,0-.8-.4-.8-.8s.4-.8.8-.8.8.4.8.8-.3.8-.8.8Z"/>
              </g>
            </g>
            <g>
              <rect class="cls-14" x="49.6" y="135" width="10.9" height="10.9"/>
              <g class="cls-16">
                <circle class="cls-14" cx="55" cy="135" r=".8"/>
              </g>
            </g>
            <g>
              <rect class="cls-14" x="49.6" y="135" width="10.9" height="10.9"/>
              <g class="cls-7">
                <circle class="cls-14" cx="60.5" cy="135" r=".8"/>
              </g>
            </g>
            <g>
              <rect class="cls-14" x="49.6" y="135" width="10.9" height="10.9"/>
              <g class="cls-8">
                <path class="cls-14" d="M65.9,135.8c-.5,0-.8-.4-.8-.8s.4-.8.8-.8.8.4.8.8-.3.8-.8.8Z"/>
              </g>
            </g>
            <g>
              <rect class="cls-14" x="49.6" y="135" width="10.9" height="10.9"/>
              <g class="cls-11">
                <path class="cls-14" d="M65.9,135"/>
              </g>
            </g>
            <g>
              <rect class="cls-14" x="49.6" y="135" width="10.9" height="10.9"/>
              <g class="cls-18">
                <path class="cls-14" d="M57.8,144c-.4,0-.8-.4-.8-.8s.4-.8.8-.8.8.4.8.8c0,.4-.4.8-.8.8Z"/>
              </g>
            </g>
            <g>
              <rect class="cls-14" x="49.6" y="135" width="10.9" height="10.9"/>
              <g class="cls-23">
                <path class="cls-14" d="M52.3,144c-.4,0-.8-.4-.8-.8s.4-.8.8-.8.8.4.8.8c0,.4-.3.8-.8.8Z"/>
              </g>
            </g>
            <g>
              <rect class="cls-14" x="49.6" y="135" width="10.9" height="10.9"/>
              <g class="cls-20">
                <path class="cls-14" d="M57.8,138.6c-.4,0-.8-.4-.8-.8s.4-.8.8-.8.8.4.8.8c0,.4-.4.8-.8.8Z"/>
              </g>
            </g>
            <g>
              <rect class="cls-14" x="49.6" y="135" width="10.9" height="10.9"/>
              <g class="cls-4">
                <path class="cls-14" d="M52.3,138.6c-.4,0-.8-.4-.8-.8s.4-.8.8-.8.8.4.8.8c0,.4-.3.8-.8.8Z"/>
              </g>
            </g>
            <g>
              <rect class="cls-14" x="49.6" y="135" width="10.9" height="10.9"/>
              <g class="cls-21">
                <path class="cls-14" d="M63.2,138.6c-.4,0-.8-.4-.8-.8s.4-.8.8-.8.8.4.8.8-.4.8-.8.8Z"/>
              </g>
            </g>
            <g>
              <rect class="cls-14" x="49.6" y="135" width="10.9" height="10.9"/>
              <g class="cls-3">
                <path class="cls-14" d="M63.2,137.7"/>
              </g>
            </g>
          </g>
        </g>
      </g>
      <g>
        <path class="cls-5" d="M56.9,193.3c.2,0,.3,0,.5-.1.3-.1.5-.4.6-.7l11.7-32.4c0-.3,0-.6,0-.9,0-.3-.4-.5-.7-.6l-26-9c-.6-.2-1.3.1-1.5.7-.2.6,0,1.3.7,1.5l24.8,8.7-10.9,30.2c-15.2-6.2-42.7-17.6-45-18.9-.1,0-.1-.1-.2-.1-8.5-3.2-7.6-9.6-7.5-10.3l21.6-66.9v-.2c.2-1.9,5.3-4.9,8.8-6.4h0l14.9-7.9c.6-.3.8-1,.5-1.6s-1-.8-1.6-.5l-14.6,7.8c-1.7.7-9.5,4.3-10.1,8.1L1.4,160.7h0c0,.2-1.8,9.1,8.8,13,3.7,2,44.5,18.7,46.2,19.4.2.2.3.2.5.2Z"/>
        <path class="cls-5" d="M56.4,193.3c-.4-.2-42.5-17.4-46.2-19.4-10.7-4-8.9-13-8.9-13.1h0c0-.1,21.6-66.9,21.6-66.9.6-3.9,8.6-7.5,10.2-8.2l14.6-7.8c.6-.3,1.4,0,1.7.5s0,1.4-.5,1.7l-14.7,7.8h0c-1.9.8-4,2-5.6,3-1.9,1.3-3,2.5-3.1,3.3,0,0,0,.2-.1.2L3.7,161.4c0,.7-1,7.1,7.4,10.2.1,0,.1.1.2.1,2.3,1.3,29.2,12.4,44.8,18.9l10.8-30-24.7-8.7c-.6-.2-1-.9-.8-1.6.2-.6.9-1,1.6-.8l25.9,9.1c.3.1.6.3.7.6s.2.6,0,1l-11.7,32.4c0,.3-.4.6-.7.7-.2.1-.3.1-.5.1,0,0,0,0-.3-.1ZM41.7,150.4c-.2.5,0,1.2.6,1.3l24.8,8.7h0c0,.1-10.9,30.3-10.9,30.3h0c0,.1,0,.1,0,.1-15.6-6.4-42.7-17.6-45-18.9-.1,0-.1-.1-.2-.1-8.6-3.2-7.7-9.7-7.5-10.4l21.6-66.9v-.2c.2-2,5.3-5,8.9-6.5h0l14.8-7.8c.5-.3.7-.9.4-1.4s-.9-.7-1.4-.4l-14.6,7.8c-1.6.7-9.4,4.2-10.1,8.1L1.5,160.7h0c0,.2-1.8,9,8.8,12.9,3.7,2,45.8,19.3,46.2,19.4.3.1.6.1.8,0,.3-.1.5-.3.6-.6l11.7-32.4c0-.3,0-.6,0-.8,0-.3-.3-.5-.6-.5l-26-9c0,0-.2-.1-.3-.1-.5,0-.9.3-1,.8Z"/>
      </g>
      <g>
        <path class="cls-5" d="M32.5,144.8c.5,0,1-.4,1-.9,0-.6-.4-1.1-.9-1.1l-8.2-.8c-.6-.1-1.1.4-1.1.9-.1.6.4,1.1.9,1.1l8.2.8h.1Z"/>
        <g>
          <path class="cls-5" d="M32.4,144.9l-8.2-.8c-.3,0-.6-.2-.8-.4-.2-.2-.3-.6-.3-.9s.2-.6.4-.8c.2-.2.6-.3.9-.3l8.2.8c.3,0,.6.2.8.4s.3.6.3.9c0,.6-.6,1.1-1.2,1.1,0,.1,0,.1,0,0ZM23.8,142.3c-.2.1-.3.4-.3.6s0,.5.2.6c.1.2.4.3.6.3l8.2.8c.5,0,.9-.3,1-.8,0-.2,0-.5-.2-.6,0-.2-.4-.3-.6-.3l-8.2-.8h-.1c-.3,0-.5,0-.6.2Z"/>
          <path class="cls-5" d="M32.4,145l-8.2-.8c-.3,0-.7-.2-.9-.5-.2-.3-.3-.6-.3-.9s.2-.7.5-.9.6-.3.9-.3l8.2.8c.3,0,.7.2.9.5s.3.6.3.9c0,.7-.6,1.2-1.3,1.2h-.1ZM23.6,142.1c-.2.2-.4.4-.4.7s.1.6.2.8c.2.2.4.4.7.4l8.2.8c.6.1,1.1-.4,1.2-1,0-.3,0-.6-.2-.8-.2-.2-.4-.4-.7-.4l-8.2-.8h-.1c-.2,0-.5,0-.7.3ZM32.4,144.7l-8.2-.8c-.3,0-.5-.1-.7-.3s-.2-.5-.2-.7c0-.3.2-.5.4-.7.2-.2.5-.2.7-.2l8.2.8c.3,0,.5.1.7.3s.2.5.2.7c0,.6-.5.9-1.1.9,0,0,0,0,0,0ZM23.8,142.3c-.2.1-.3.3-.3.5s0,.4.2.6c.1.2.3.3.5.3l8.2.8c.4,0,.8-.3.8-.7s0-.4-.2-.6c0-.2-.3-.3-.5-.3l-8.2-.8h-.1c0,0-.2,0-.4.2Z"/>
        </g>
      </g>
      <g>
        <path class="cls-5" d="M39.2,143.2c.4,0,.9-.3,1.1-.7l7.3-17.3c0,0,0-.2,0-.3,1.1-7.5-1.2-15.4-6.6-22.6-4.1-5.4-8.4-8.6-8.6-8.7-.5-.4-1.2-.3-1.6.3-.4.5-.3,1.2.3,1.6.2,0,16.6,12.3,14.2,29l-7.3,17.1c-.2.6,0,1.3.6,1.5.2,0,.3,0,.5,0Z"/>
        <path class="cls-5" d="M38.7,143.2c-.3-.1-.5-.4-.7-.7,0-.3,0-.6,0-1l7.3-17.1c2.3-16.6-14-28.8-14.2-28.9-.6-.4-.7-1.2-.3-1.7.2-.3.5-.4.8-.5s.7,0,.9.2c.2,0,4.5,3.3,8.6,8.7,5.4,7.3,7.7,15.1,6.6,22.7,0,0,0,.2,0,.3l-7.3,17.3c-.2.5-.6.8-1.1.8s-.3,0-.5-.1ZM31.7,93.5c-.3,0-.5.2-.7.4-.3.5-.2,1.1.2,1.5.2,0,16.6,12.3,14.3,29.1h0l-7.3,17.1c0,.3,0,.5,0,.8s.3.5.6.6c0,.1.3.1.4.1.4,0,.8-.3,1-.6l7.3-17.3c0,0,0-.2,0-.3,1.1-7.5-1.2-15.3-6.6-22.5-4-5.4-8.4-8.6-8.5-8.7-.2,0-.4-.2-.6-.2-.1,0-.2,0-.2,0Z"/>
      </g>
      <g>
        <path class="cls-5" d="M28.4,153.8c.1,0,.3,0,.4-.1l9.8-4.4c.5-.2.8-.8.5-1.4-.2-.5-.8-.8-1.4-.5l-9.8,4.4c-.5.2-.8.8-.5,1.4.2.4.6.6,1,.6Z"/>
        <g>
          <path class="cls-5" d="M27.3,153.3c-.3-.6,0-1.3.6-1.6l9.8-4.4c.6-.3,1.3,0,1.6.6s0,1.3-.6,1.6l-9.8,4.4c-.2.1-.3.1-.5.1-.5,0-.9-.3-1.1-.7ZM37.9,147.6l-9.8,4.4c-.4.2-.6.7-.4,1.1.2.4.7.6,1.1.4l9.8-4.4c.4-.2.6-.7.4-1.1,0-.3-.5-.5-.8-.5s-.2.1-.3.1Z"/>
          <path class="cls-5" d="M27.2,153.3c-.3-.6,0-1.4.7-1.7l9.8-4.4c.6-.3,1.4,0,1.7.7.3.6,0,1.4-.7,1.7l-9.8,4.4c-.2.1-.3.1-.5.1-.5,0-1-.3-1.2-.8ZM37.8,147.4l-9.8,4.4c-.6.2-.8.9-.6,1.4.2.4.6.7,1,.7s.3,0,.4-.1l9.8-4.4c.6-.2.8-.9.6-1.4-.2-.4-.6-.7-1-.7,0,0-.3,0-.4.1ZM28.1,153.7c-.2-.1-.4-.3-.5-.5s-.1-.5,0-.7.3-.4.5-.5l9.8-4.4c0-.1.3-.1.4-.1.4,0,.7.2.9.6.2.5,0,1.1-.5,1.3l-9.8,4.4c-.1.1-.2.1-.4.1-.2-.2-.3-.2-.4-.2ZM37.9,147.7l-9.8,4.4c-.2.1-.3.2-.4.4s-.1.4,0,.6c.1.2.2.3.4.4.2.1.4.1.6,0l9.8-4.4c.4-.2.6-.6.4-1,0-.3-.4-.5-.7-.5-.1,0-.2.1-.3.1Z"/>
        </g>
      </g>
      <g>
        <path class="cls-5" d="M73.7,125.1c.3,0,.5,0,.7-.3.5-.4.6-1.1.2-1.6l-15.4-19.1,8.5-6.2c.4-.3.5-.7.4-1.1s-.4-.8-.8-.9l-10.5-2.6-1.5-18c0-.6-.6-1.1-1.2-1.1-.6,0-1.1.6-1.1,1.2l1.6,18.9c0,.5.4.9.9,1l8.9,2.2-7.5,5.5c-.3.2-.4.5-.5.8,0,.3,0,.6.2.9l16.1,20.1c.4,0,.7.3,1,.3Z"/>
        <path class="cls-5" d="M72.8,124.7l-16.1-20.1c-.2-.3-.3-.6-.3-.9s.2-.6.5-.8l7.3-5.3-8.7-2.2c-.5,0-.9-.6-.9-1.1l-1.6-18.9c0-.3,0-.7.3-.9.2-.3.5-.4.8-.4.7,0,1.3.5,1.3,1.1l1.5,18,10.5,2.6c.5,0,.8.5.9,1s0,1-.5,1.2l-8.4,6.1,15.3,19.1c.4.5.3,1.3-.2,1.8s-.5.3-.8.3c-.3,0-.7-.3-.9-.6ZM54.1,74.2c-.3,0-.5.2-.7.4-.2.2-.3.5-.2.8l1.6,18.9c0,.5.4.8.8.9l8.9,2.2s0,0,0,0h0c0,0-7.6,5.5-7.6,5.5-.2.2-.4.4-.4.7s0,.6.2.8l16.1,20.1c.2.3.5.4.8.4s.5,0,.7-.2c.5-.4.5-1,.2-1.5l-15.4-19.1h0v-.2l8.5-6.2c.3-.2.5-.7.4-1.1s-.4-.7-.8-.8l-10.5-2.6s0,0,0,0l-1.5-18c0-.6-.5-1-1.1-1h0Z"/>
      </g>
      <g>
        <path class="cls-5" d="M52.6,115.6h0l11.3-.9c.6,0,1.1-.6,1.1-1.2s-.6-1.1-1.2-1.1l-11.2.9c-.6,0-1.1.6-1.1,1.2s.5,1.1,1.1,1.1Z"/>
        <path class="cls-5" d="M51.3,114.5c0-.3,0-.7.3-.9.2-.3.5-.4.9-.4l11.2-.9c.3,0,.7,0,.9.3.3.2.4.5.4.9s0,.7-.3.9c-.2.3-.5.4-.9.4l-11.2.9h0c-.6,0-1.1-.5-1.2-1.2ZM63.7,112.5l-11.2.9c-.6,0-1,.6-1,1.1s.6,1,1.1,1l11.2-.9c.6,0,1-.6,1-1.1s-.2-.5-.4-.7c0-.2-.3-.3-.7-.3,0,0,0,0,0,0Z"/>
      </g>
      <g>
        <path class="cls-5" d="M82,119c.2,0,.3,0,.5,0,.6-.3.8-1,.6-1.5l-21-44.5c-.3-.6-1-.8-1.5-.6-.6.3-.8,1-.6,1.5l21,44.6c0,.4.6.6,1,.6Z"/>
        <path class="cls-5" d="M80.9,118.4l-21-44.5c0-.3-.2-.6,0-1,0-.3.3-.6.6-.7s.6-.2,1,0c.3,0,.6.3.7.6l20.9,44.5c0,.3.2.6,0,1,0,.3-.3.6-.6.7-.2,0-.3,0-.5,0-.5,0-.9-.3-1.1-.7ZM60.6,72.4c-.3,0-.4.3-.5.6,0,.3,0,.6,0,.8l20.9,44.5c.2.4.5.6,1,.6s.3,0,.4,0c.3,0,.4-.3.5-.6,0-.3,0-.6,0-.8l-20.9-44.5c0-.3-.3-.4-.6-.5,0,0-.2,0-.4,0s-.2,0-.4,0Z"/>
      </g>
      <g>
        <path class="cls-5" d="M95.5,112.3h0c.6,0,1.2-.5,1.2-1.2,0-18.1-1.9-33.8-1.9-33.9,0-.6-.7-1.1-1.3-1-.6,0-1.1.7-1,1.3,0,.2,1.9,15.7,1.9,33.7,0,.5.5,1.1,1.1,1.1Z"/>
        <path class="cls-5" d="M94.3,111.1c0-17.9-1.9-33.5-1.9-33.7,0-.3,0-.7.3-.9.2-.3.5-.4.8-.5.3,0,.7,0,.9.3.3.2.4.5.5.8,0,.2,1.9,15.8,1.9,34s-.6,1.2-1.2,1.2h0c-.8.1-1.3-.5-1.3-1.2ZM93.5,76.3c-.3,0-.5.2-.7.4-.2.2-.3.5-.2.8,0,.2,1.9,15.7,1.9,33.7s.5,1.1,1.1,1.1h0c0,0,0,0,0,0,.6,0,1.1-.5,1.1-1.1,0-18.1-1.9-33.8-1.9-33.9,0-.3-.2-.5-.4-.7-.2,0-.4-.2-.6-.2-.2-.2-.3-.2-.3-.1Z"/>
      </g>
      <g>
        <path class="cls-5" d="M129.4,113q.1,0,0,0c.7,0,1.2-.6,1.1-1.2l-.4-6.9c-.4-8.9-4.8-11.7-5.7-12.1l-17.6-13.8c-.5-.4-1.2-.3-1.6.2s-.3,1.2.2,1.6l17.7,13.8q0,0,.2,0c.2,0,4.1,2.1,4.5,10.2l.4,6.9c.1.7.6,1.2,1.2,1.2Z"/>
        <path class="cls-5" d="M128.2,111.9l-.4-6.9c-.4-8.1-4.3-10.1-4.5-10.2,0,0-.2,0-.3-.2l-17.7-13.8c-.3-.2-.4-.5-.5-.8,0-.3,0-.7.3-.9.2-.3.5-.4.8-.5.3,0,.7,0,.9.3l17.6,13.7c.9.5,5.3,3.3,5.8,12.2l.4,6.9c0,.3-.1.7-.3.9-.2.2-.5.4-.9.4h-.1c-.5,0-1.1-.4-1.1-1.1ZM106,78.8c-.3,0-.5.2-.7.4-.2.2-.2.5-.2.8s.2.5.4.7l17.7,13.8q0,0,.2,0c.2,0,4.2,2.1,4.6,10.3l.4,6.9c0,.6.5,1,1.1,1s.5,0,.7-.4c.2-.2.3-.5.3-.8l-.4-6.9c-.4-8.8-4.8-11.6-5.7-12.1l-17.6-13.7c-.2,0-.4-.2-.6-.2-.1,0-.2,0-.2,0Z"/>
      </g>
      <g>
        <path class="cls-19" d="M64.2,4.9c3-2.1,7-3.8,10.7-4.3,7.7-1.3,13.4,2.2,14.6,3.4,2.2,1,2.2,1.4,4.1,2.1,0,0,7.6,1.8,12.2,9.8,2.8,4.9,2.4,10.7,1.2,16.2l-1.4,6.5c-.4-.3-.8-.5-1.3-.6s-1,0-1.5.2l-.7-5.5c-1.6-8.8-1.5-10.8-7.9-14.2,0,0-3.6-1.6-6.4-4-10.6-4.9-18.3,2.4-23.6,10.8,0,0-3.2,3.5-2.2,3.9-.3.7-1,3.2-1.6,5.4-.4,1.5-.7,2.9-.8,3.5-.5-.2-1-.3-1.5-.2-.9,0-1.6.7-2.1,1.6l-2.4-10.4c-1.4-9.7,4.9-20.2,10.6-24.2Z"/>
        <path class="cls-9" d="M87.8,14.5c-10.6-4.9-18.3,2.4-23.6,10.8,0,0-3.2,3.5-2.2,3.9-.3.7-1,3.2-1.6,5.4-.4,1.5-.7,2.9-.8,3.5-.5-.2-1-.3-1.5-.2-2.2.4-3.5,3.5-2.9,7s2.9,8.1,5.1,7.7c.4,0,.7-.2,1-.4.8,3.1,3.6,11.3,12.3,16.4,8.1,4.5,15.2,0,15.2,0,8.8-5.1,11.5-13.3,12.3-16.4.3.2.6.3,1,.4,2.2.4,4.5-4.3,5.1-7.7.6-3.5-.7-6.6-2.9-7-.5,0-1,0-1.5.2l-.7-5.5c-1.6-8.8-1.5-10.8-7.9-14.2-.1.1-3.7-1.5-6.4-3.9Z"/>
        <g>
          <path class="cls-5" d="M57.8,37c.3,0,.5,0,.8,0,.4-2.7,1.3-5.7,2.3-8.1.2-.5.8-.8,1.4-.5.5.2.8.8.6,1.3-1.1,2.5-2,5.8-2.3,8.6l.4,4.6c0,.6-.4,1.1-1,1.1h0c-.5,0-1-.4-1.1-.9l-.3-4h-.4c-1.4.2-2.6,2.7-2.1,5.8.6,3.6,2.8,7.1,3.9,6.9.2,0,.4,0,.6-.2.3-.2.6-.2,1,0,.3,0,.5.4.6.7.9,3,3.6,10.7,11.9,15.6,7.4,4.1,13.9.2,14.2,0,8.4-4.9,11.1-12.7,11.8-15.8,0-.3.3-.6.6-.7.3,0,.7,0,1,0,.2,0,.4.2.6.2,1.1.2,3.3-3.3,3.9-6.9.5-3.1-.7-5.5-2.1-5.8h-.4l-.3,4c0,.5-.5.9-1.1.9h0c-.6,0-1-.5-1-1.1l.4-4.7.2-3.7c0-.6.5-1,1.1-1s1,.5,1,1.1v2.4h.5c2.8.5,4.5,4,3.8,8.1-.6,3.3-3,9.1-6.3,8.6h0c-1.2,3.8-4.3,11.1-12.5,15.9-.2,0-3.5,2.2-8.3,2.2s-5.2-.5-8.1-2.2c-8.2-4.8-11.3-12.1-12.5-15.9h-.5c-3.1,0-5.4-5.5-5.9-8.6-.6-3.9,1.1-7.4,3.9-7.9Z"/>
          <path class="cls-5" d="M72.9,69.8c-8.1-4.8-11.4-11.9-12.6-15.9h-.4c-3.4,0-5.6-6-6.1-8.8-.4-2.5,0-4.9,1.1-6.5.7-1,1.7-1.7,2.8-1.8h0c.2,0,.4,0,.7,0,.4-2.7,1.3-5.7,2.3-8,.3-.6,1-.9,1.6-.6.3.1.6.4.7.7,0,.3,0,.6,0,.9-1.1,2.5-2,5.8-2.3,8.5l.4,4.6c0,.3,0,.6-.3.9-.2.3-.5.4-.9.4-.7,0-1.3-.5-1.3-1.1l-.3-3.8h-.2c-.4,0-.8.4-1.2.8-.8,1.1-1.1,2.9-.7,4.7.6,3.6,2.8,6.9,3.7,6.7.2,0,.3,0,.5-.2.3-.2.8-.2,1.1,0,.4,0,.7.5.7.8.8,3.1,3.4,10.8,11.7,15.6,7.3,4.1,13.7.2,14,0,8.3-4.9,11-12.6,11.8-15.6,0-.4.4-.7.7-.8.4,0,.8,0,1.1,0,.2,0,.3.2.5.2.9,0,3.1-3.1,3.7-6.7.3-1.8,0-3.6-.7-4.7-.3-.5-.7-.8-1.2-.8h-.2l-.3,3.8c0,.6-.6,1.1-1.2,1.1h0c-.3,0-.6-.2-.9-.4-.2-.2-.3-.6-.3-.9l.4-4.7.2-3.7c0-.7.6-1.2,1.3-1.2s.6.2.9.4c.2.2.3.5.3.9v2.3h.3c1.1.2,2.1.8,2.8,1.8,1.2,1.6,1.6,4,1.1,6.5-.6,3.3-3.1,9.2-6.5,8.7-1.2,4-4.4,11.1-12.5,15.8,0,0-3.6,2.2-8.4,2.2-2.5,0-5.2-.7-7.8-2.1ZM101.8,53.5h0c3.3.5,5.6-5.2,6.2-8.4.4-2.4,0-4.7-1.1-6.2-.7-.9-1.6-1.5-2.6-1.7h-.6q0,0,0,0h0c0,0,0-2.5,0-2.5,0-.2,0-.4-.2-.6-.2-.2-.4-.3-.6-.3-.5,0-.9.3-.9.8l-.2,3.7-.4,4.7c0,.2,0,.4.2.6,0,.2.4.3.6.3.5,0,.9-.3.9-.8l.3-4c0,0,0-.2.2-.2h.4c.5,0,1,.4,1.4,1,.8,1.2,1.1,3.1.8,5-.6,3.5-2.8,7.3-4.1,7.1-.2,0-.4,0-.7-.3-.2,0-.5-.2-.8,0-.3,0-.4.3-.5.6-.8,3.1-3.5,10.9-11.9,15.9-.3.2-6.9,4.2-14.4,0-8.2-4.9-10.9-12.7-11.7-15.9,0-.3-.3-.5-.5-.6-.3,0-.6,0-.8,0-.2,0-.4.2-.7.3-1.3.2-3.5-3.6-4.1-7.1-.3-1.9,0-3.8.8-5,.4-.6.9-.9,1.4-1h.4c0,0,.2,0,.2.2l.3,4c0,.4.4.8.9.8h0c.2,0,.4,0,.6-.3,0-.2.2-.4.2-.6l-.4-4.7c.3-2.8,1.2-6.1,2.3-8.7,0-.2,0-.4,0-.6s-.3-.4-.5-.5c-.4-.2-1,0-1.1.4-1,2.4-1.9,5.4-2.3,8.1,0,0,0,.2-.2.2h-.8c-1,.2-1.9.8-2.6,1.7-1.1,1.5-1.5,3.9-1.1,6.2.5,2.9,2.7,8.5,5.7,8.5h.5c0,0,.2,0,.2,0,1.2,3.9,4.3,11.1,12.4,15.8,2.5,1.4,5.2,2.1,8,2.1,4.7,0,8-2.1,8.2-2.1,8.1-4.7,11.2-11.9,12.4-15.8,0,0,.2-.1.3-.1h0Z"/>
        </g>
        <g>
          <path class="cls-5" d="M87.8,15.6c0,0,.2,0,.3-.1.6-.2.9-.8.7-1.4-1.3-3.8-3.4-6.4-6.4-7.8-5.3-2.5-11.1-.2-11.4,0-.5.2-.8.8-.6,1.4.2.6.8.8,1.4.6h0c0,0,5.3-2,9.7.1,2.4,1.2,4.2,3.4,5.3,6.6,0,.4.5.7,1,.7Z"/>
          <path class="cls-5" d="M86.6,14.9c-1.1-3.2-2.8-5.3-5.2-6.5-4.4-2.1-9.5-.1-9.6-.1-.3.1-.6.1-1,0-.3-.1-.5-.4-.7-.7-.2-.6,0-1.4.8-1.6.2,0,6.2-2.4,11.5,0,3,1.4,5.2,4.1,6.5,8,.2.7,0,1.4-.8,1.6,0,0-.3.1-.4.1-.5-.1-1-.4-1.1-.9ZM71,6.3c-.4.2-.7.7-.5,1.2,0,.2.3.4.5.5.2.1.4.1.7,0,0,0,5.4-2.1,9.9.1,2.5,1.2,4.3,3.4,5.4,6.7.2.5.7.7,1.1.6.5-.2.7-.7.5-1.1-1.3-3.7-3.4-6.3-6.3-7.7-1.8-.9-3.7-1.1-5.4-1.1-3.2-.2-5.7.8-5.9.8Z"/>
        </g>
        <g>
          <path class="cls-5" d="M76.8,15.9c.3,0,.6-.1.8-.4.4-.4.4-1.1,0-1.5-4.5-4.2-12.4-1.4-12.7-1.3-.6.2-.8.8-.6,1.4.2.6.8.9,1.4.6h0c0,0,7-2.5,10.6.8,0,.3.3.4.6.4Z"/>
          <path class="cls-5" d="M75.9,15.8c-3.5-3.2-10.3-.8-10.4-.8-.3.1-.7.1-1,0s-.5-.4-.7-.7c-.2-.7,0-1.4.7-1.6.3-.1,8.3-3,12.9,1.3.5.5.5,1.3,0,1.8-.2.3-.6.4-.9.4,0-.1-.4-.2-.7-.4ZM64.9,12.9c-.5.2-.7.7-.5,1.1,0,.2.2.4.5.5.2.1.4.1.7,0,0,0,7.1-2.5,10.8.9.3.3.9.3,1.2-.1.3-.4.3-.9,0-1.3-1.9-1.7-4.3-2.3-6.6-2.3-3.2.2-5.9,1.2-6,1.2Z"/>
        </g>
        <g>
          <path class="cls-12" d="M80.1,53.5c-.6,0-1-.5-1-1.1s.5-1,1.1-1h1.9c.6,0,1,.5,1,1.1s-.5,1-1.1,1h-1.9Z"/>
          <path class="cls-5" d="M82,53.7h-1.9c-.3,0-.6,0-.8-.4-.2-.2-.3-.5-.3-.8s0-.6.4-.8c.2-.2.5-.3.8-.3h1.9c.3,0,.6,0,.8.4.2.2.3.5.3.8s0,.6-.4.8c0,0-.2.2-.4.3,0-.1-.3,0-.4,0ZM79.5,51.8c-.2.2-.3.4-.3.6s0,.5.3.6c.2.2.4.3.6.3h1.9c.2,0,.5,0,.6-.3.2-.2.3-.4.3-.6s0-.5-.3-.6c-.2-.2-.4-.3-.6-.3h-1.9c0,0-.2,0-.3,0-.2.1-.3.1-.3.2ZM80.1,53.5h0Z"/>
        </g>
        <path class="cls-5" d="M81,59.8c3.7,0,6.4-1.3,6.6-1.3.6-.3.9-1,.6-1.6s-1-.9-1.6-.6h0c0,0-5.6,2.6-11,0-.6-.3-1.3,0-1.6.5-.3.6,0,1.3.5,1.6,2.3,1.1,4.5,1.5,6.5,1.5Z"/>
      </g>
      <g>
        <path class="cls-5" d="M107,112.6c.5,0,.9-.3,1.1-.7,3-7.8,2.7-10.7,2.7-11,0-.3-.3-.6-.5-.8l-7.3-4.4,6.4-4.3c.5-.3.7-1,.3-1.6l-9.4-15.1c-.3-.5-1-.7-1.6-.4-.5.3-.7,1-.4,1.6l8.7,14.1-6.9,4.7c-.3.2-.5.6-.5,1s.2.8.6,1l8.3,5c0,1-.4,3.8-2.5,9.3-.2.6,0,1.3.7,1.5,0,0,.1,0,.3,0Z"/>
        <path class="cls-5" d="M106.5,112.6c-.6-.2-1-1-.7-1.6,2.1-5.4,2.5-8.2,2.5-9.2l-8.3-5c-.4-.2-.6-.6-.6-1s.2-.8.5-1.1l6.9-4.7-8.8-14.1c-.2-.3-.2-.6-.2-.9,0-.3.3-.6.6-.8.3-.2.6-.2.9-.2.3,0,.6.3.8.6l9.4,15.1c.4.6.2,1.3-.4,1.7l-6.3,4.3,7.2,4.4c.3.2.5.5.6.9,0,.3.4,3.2-2.7,11-.2.5-.6.8-1.2.8,0-.1,0-.2-.2-.2ZM98.6,74.4c-.2,0-.4.4-.5.7,0,.3,0,.6,0,.8l8.8,14.2h0c0,0-6.9,4.8-6.9,4.8-.3.2-.5.5-.5.9s.2.7.5.9l8.3,5h0c0,1.1-.4,3.9-2.5,9.4-.2.5,0,1.2.6,1.4,0,0,.3,0,.4,0,.4,0,.8-.3,1-.7,3-7.8,2.7-10.6,2.6-10.9s-.2-.6-.5-.7l-7.3-4.4h0v-.2l6.4-4.3c.5-.3.6-.9.3-1.4l-9.4-15.3c0-.2-.4-.4-.7-.5h-.2c-.2,0-.4.1-.5.2Z"/>
      </g>
      <g>
        <path class="cls-5" d="M138.7,187.5c1.6,0,3.1-.3,4.5-.8,6.1-2.4,7.2-9.3,7.3-9.9l8.2-45.7c.1-.6-.3-1.2-.9-1.3-.6-.1-1.2.3-1.3.9l-8.2,45.8h0c0,.2-.9,6.3-5.9,8.2-7,2.8-17.7-4-25.4-10.3-.5-.4-1.2-.3-1.6.2s-.3,1.2.2,1.6c9.3,7.5,17.1,11.3,23.1,11.3Z"/>
        <path class="cls-5" d="M115.4,176.2c-.3-.2-.4-.5-.5-.8,0-.3,0-.7.3-.9.4-.5,1.2-.6,1.8-.2,7.7,6.2,18.3,13,25.3,10.3,4.9-2,5.8-8,5.8-8.1l8.2-45.8c.1-.7.8-1.1,1.4-1,.7.1,1.1.8,1,1.4l-8.2,45.7c-.1.8-1.2,7.6-7.3,10-1.4.5-2.9.8-4.5.8-6.1,0-13.9-3.8-23.3-11.4ZM156.5,130.7l-8.2,45.8h0c0,.1-.9,6.2-5.9,8.2-1.1.4-2.3.6-3.6.6-6.8,0-15.4-5.7-21.9-10.9-.5-.4-1.1-.3-1.5.2-.2.2-.3.5-.2.8,0,.3.2.5.4.7,9.4,7.6,17.2,11.4,23.2,11.4s3.1-.3,4.4-.8c6-2.4,7.1-9.1,7.2-9.9l8.2-45.7c.1-.6-.3-1.1-.9-1.2h-.2c-.5-.1-1,.3-1,.8Z"/>
      </g>
      <g>
        <path class="cls-5" d="M124.9,141.3c.5,0,1-.4,1.1-.9l2.4-12.7c.1-.6-.3-1.2-.9-1.3-.6,0-1.2.3-1.3.9l-2.4,12.7c0,.6.3,1.2.9,1.3q.1,0,.2,0Z"/>
        <path class="cls-5" d="M124.7,141.3c-.7-.1-1.1-.8-1-1.5l2.4-12.7c0-.3.2-.6.5-.8.3-.2.6-.3.9-.2.7,0,1.1.8,1,1.5l-2.4,12.7c0,.6-.6,1-1.2,1,0,0-.2,0-.2,0ZM126.7,126.5c-.2.2-.4.4-.4.7l-2.4,12.7c0,.6.3,1.1.8,1.2.6.1,1.1-.3,1.2-.8l2.4-12.7c.1-.6-.3-1.1-.8-1.2h-.2c-.2,0-.4,0-.6.1Z"/>
      </g>
      <g>
        <path class="cls-9" d="M173,110.1c.3-1.2,3,.4,3.4-.2,1.3-1.8.7-3.4.7-3.4,1.6,0,1.7-2,1.7-2,.4-1.4-2.1-2.3-2.1-2.3,1.3-.8.9-2.1.9-2.1-.7-2.4-7.6-3.1-7.6-3.1l-19.8-2.6c6-15,1-15.2,1-15.2-1.8-1.1-4.1,6.5-4.1,6.5-.6,2.4-5.7,6.9-5.7,6.9-2.3,2.7-2.6,6.7-2.6,6.7l-3.2,18.6-2.2,2.6-1.7,7.5,2.2.7c4.4,1.4,9,2.1,13.6,2h3.4c0-.1,2.4-9.2,2.4-9.2l-3-1.9,1.4-6.2c0,0,20,2.6,21.3-3.3Z"/>
        <g>
          <path class="cls-5" d="M136.3,116c-.6,0-1-.7-.9-1.2l1.6-12.1.6-3.5c.1-.5.5-4.5,2.9-7.3h.1c1.9-1.8,5-5,5.3-6.4h0c.6-2,2.2-6.6,4.2-7.3.5-.2.9-.2,1.4,0,.6,0,1.3.5,1.9,1.4,1.5,2.3.9,7-1.7,14l18.4,2.4c1.8.2,7.7,1,8.5,3.9.1.5.2,1.3-.2,2.1.9.6,1.7,1.6,1.4,2.8,0,.9-.4,1.9-1.3,2.5.1.6.1,1.4-.3,2.1-.7,1.3-2.5,1.9-5.2,1.9s-1.1-.5-1.1-1.1.5-1.1,1.1-1.1c2.1,0,3-.4,3.2-.7.2-.3-.1-1-.2-1.1-.2-.3-.2-.8,0-1.1.2-.3.5-.6.9-.6s.6-.8.6-.9v-.3c0-.2-.7-.7-1.4-1-.4-.2-.7-.5-.7-.9s.2-.8.5-1.1c.4-.3.4-.7.4-.9-.3-1-3.8-2-6.7-2.3l-19.9-2.6c-.3,0-.6-.2-.8-.5s-.2-.7-.1-1c3.7-9.3,3-12.3,2.5-13.2-.2-.4-.4-.5-.5-.5h-.3c-.7.6-1.9,3.1-2.7,5.7-.6,2.5-4.9,6.5-5.9,7.4-2,2.4-2.3,6-2.3,6.1h0c0,0-.6,3.6-.6,3.6l-1.6,12.1c.1.4-.5.8-1.1.7h0Z"/>
          <path class="cls-5" d="M136.3,116.2h0c-.7,0-1.2-.8-1.1-1.4l1.6-12.1.6-3.5c0-.5.5-4.5,2.9-7.4h.1c1.9-1.8,4.9-4.9,5.3-6.4h0c.6-2.1,2.3-6.7,4.3-7.4.5-.2,1-.2,1.5,0,.4,0,1.3.4,2,1.4,1.5,2.4,1,7-1.6,14l18.2,2.4c1.8.2,7.8,1,8.7,4,.2.5.2,1.3-.1,2.1,1.1.8,1.6,1.8,1.4,2.9,0,.8-.4,1.9-1.3,2.6.1.8,0,1.5-.3,2.1-.8,1.4-2.5,2-5.4,2s-.7,0-.9-.4c-.2-.2-.4-.6-.4-.9,0-.7.6-1.3,1.3-1.3,2.1,0,2.9-.4,3.1-.7.1-.2-.1-.8-.2-.9-.2-.4-.2-.9,0-1.3s.6-.7,1.1-.7.4-.7.4-.7v-.3c-.1,0-.6-.6-1.3-.8-.5-.2-.8-.6-.8-1.1s.2-1,.6-1.2c.3-.2.3-.5.3-.7-.2-.8-3.4-1.9-6.5-2.2l-19.9-2.6c-.4,0-.7-.3-.9-.6-.2-.3-.2-.8-.1-1.1,3.7-9.2,3-12.2,2.5-13.1-.2-.3-.3-.4-.4-.4h-.2c-.7.7-1.8,3.1-2.6,5.5-.6,2.5-4.7,6.3-6,7.4-1.9,2.4-2.3,5.9-2.3,6h0c0,0-.6,3.6-.6,3.6l-1.6,12.1c0,.3-.2.6-.5.8-.2.2-.5.3-.8.3t-.1,0ZM150.8,80.1h.2c.1,0,.4.2.6.6.5.9,1.2,4-2.5,13.3-.1.3-.1.6.1.8.1.3.4.4.7.5l19.9,2.6c2.6.3,6.5,1.3,6.8,2.4.1.4,0,.8-.4,1.1-.3.2-.5.5-.5.9s.3.7.6.8c.6.2,1.4.8,1.5,1.1h0v.3c0,.5-.2,1-.7,1.1-.3,0-.6.2-.8.5s-.2.7,0,1c0,0,.5.8.2,1.3-.3.6-1.6.9-3.4.8-.5,0-1,.4-1,.9s.1.5.3.7.4.3.7.3c2.7,0,4.4-.5,5.1-1.8.3-.6.4-1.2.3-2h0c0,0,.1-.2.1-.2.9-.6,1.2-1.6,1.2-2.4.3-1.2-.6-2.1-1.3-2.6h-.1c0,0,.1-.2.1-.2.3-.7.3-1.6.2-2-.9-2.9-7.2-3.7-8.4-3.8l-18.6-2.4v-.2c2.7-6.9,3.3-11.6,1.8-13.9-.6-1-1.4-1.2-1.8-1.3-.4-.2-.8-.2-1.2,0-1.9.7-3.5,5.2-4.1,7.1h0c-.4,1.6-3.5,4.8-5.4,6.5h-.1c-2.3,2.9-2.8,6.9-2.8,7.3l-.6,3.5-1.6,12.1c-.1.5.3,1,.8,1.1h0c.3,0,.5,0,.7-.2s.3-.4.4-.6l1.2-12.1.6-3.5h0c0,0,.4-3.8,2.4-6.3.9-.8,5.2-4.8,5.9-7.3.8-2.6,2-5.2,2.7-5.8h.2Z"/>
        </g>
        <g>
          <path class="cls-5" d="M150,115.7c-.6,0-1-.7-.9-1.3l.5-2.6c.1-.6.7-1,1.3-.9,8.3,1.4,11.9,1.5,11.9,1.5,5.6,0,7.8-.5,7.8-.5.8-.2,1.2-.5,1.2-.7.1-.3-.3-.9-.6-1.1-.4-.4-.5-1.1,0-1.6.4-.4,1.1-.5,1.6,0s1.6,1.6,1.2,3.2c-.3,1.1-1.2,1.9-2.8,2.4-.1,0-2.5.6-8.4.6s-3.3,0-11.2-1.4l-.3,1.5c-.1.6-.7,1-1.3.9Z"/>
          <path class="cls-5" d="M150,115.9h0c-.7,0-1.2-.8-1-1.5l.5-2.6c.1-.3.2-.6.5-.8.3-.2.6-.3,1-.2,8.3,1.4,11.9,1.5,11.9,1.5h0c5.6,0,7.8-.5,7.8-.5.8-.2,1.1-.5,1.1-.6,0-.2-.3-.7-.5-1-.2-.2-.4-.6-.4-.9s.1-.7.4-.9c.2-.2.6-.4.9-.4s.7,0,.9.4c.2.2,1.6,1.7,1.2,3.4-.3,1.1-1.2,2-2.9,2.5-.1,0-2.4.7-8.5.6,0,0-2.9,0-11.1-1.3l-.3,1.3c-.1.6-.6,1.1-1.3,1.1,0,0-.2,0-.2,0ZM150,115.7h0ZM151.6,113.2c8.2,1.3,11.1,1.4,11.2,1.4h0c6,0,8.3-.6,8.4-.6,1.5-.5,2.4-1.2,2.6-2.2.4-1.6-1-2.9-1.1-3.1-.2-.2-.4-.3-.7-.3s-.5,0-.7.3c-.2.2-.3.4-.3.7s.1.5.3.7.7.8.6,1.3c-.1.3-.6.6-1.3.8,0,0-2.2.6-7.9.5h0c-.1,0-3.5,0-12-1.5-.3,0-.5,0-.7.2-.2,0-.3.4-.4.6l-.5,2.6c-.1.5.3,1,.8,1.1s1-.3,1.1-.8l.3-1.6h.3Z"/>
        </g>
        <g>
          <path class="cls-5" d="M162.2,101.2c-.6,0-1-.6-.9-1.2s.6-1,1.2-1c1.1,0,11.2,1.4,11.7,1.5.6,0,1,.7.9,1.3-.1.6-.7,1-1.3.9-.4,0-7.1-.9-11.6-1.5h0Z"/>
          <path class="cls-5" d="M173.8,102.9c-.4,0-7.1-.9-11.6-1.5h-.1c-.7,0-1.1-.7-1-1.4,0-.3.2-.6.5-.8.3-.2.6-.3.9-.3,1.1,0,11.2,1.4,11.7,1.5.3,0,.6.2.8.5s.3.6.2,1c-.1.3-.2.6-.5.8-.2.2-.5.2-.7.2q0,0-.2,0ZM161.8,99.4c-.2.2-.3.4-.4.6-.1.5.3,1,.8,1.1h0c4.5.6,11.2,1.4,11.6,1.5.3,0,.5,0,.7-.2.2,0,.3-.4.4-.6,0-.3,0-.5-.2-.7-.1-.2-.4-.3-.6-.4-.5,0-10.5-1.4-11.7-1.5h-.1c-.2,0-.4,0-.5.2Z"/>
        </g>
        <g>
          <path class="cls-5" d="M161.1,108.6s-.1,0,0,0l-8.2-1.7c-.6,0-1-.7-.9-1.3.1-.6.7-1,1.3-.9l8.2,1.7,6.8,1.1c.6,0,1,.7.9,1.3-.1.6-.7,1-1.3.9l-6.8-1.1h0Z"/>
          <path class="cls-5" d="M167.9,109.8l-6.8-1.1v-.2.2l-8.2-1.7c-.7,0-1.1-.8-1-1.5.1-.3.3-.6.6-.8.3-.2.6-.2.9-.2l8.1,1.7,6.8,1.1c.7,0,1.2.8,1.1,1.5-.1.6-.6,1.1-1.3,1.1q-.1,0-.2,0ZM152.6,104.9c-.2,0-.4.4-.4.6-.1.5.2,1,.7,1.1l8.2,1.7v.2-.2l6.8,1.1c.5,0,1-.3,1.1-.8s-.3-1-.8-1.1l-6.8-1.1-8.2-1.7h-.2c-.1.1-.3.1-.4.2Z"/>
        </g>
        <g>
          <path class="cls-5" d="M161.5,105.2c-.6,0-1-.6-.9-1.2s.6-1,1.2-1l13.4,1.7c.6,0,1,.6,1,1.2-.1.6-.6,1-1.2,1l-13.5-1.7h0Z"/>
          <path class="cls-5" d="M174.9,107l-13.4-1.7h0c-.7,0-1.1-.7-1-1.4,0-.3.2-.6.5-.9.3-.2.6-.3.9-.3l13.4,1.7c.7,0,1.2.7,1.1,1.4,0,.3-.2.6-.5.9s-.5.3-.8.3c0,0,0,0-.2,0ZM161.1,103.3c-.2.2-.3.4-.4.6-.1.5.3,1,.8,1.1v.2-.2c.1,0,13.5,1.7,13.5,1.7.3,0,.5,0,.7-.2s.3-.4.4-.6c.1-.5-.3-1-.8-1.1l-13.4-1.7h-.1c-.3,0-.5,0-.7.2Z"/>
        </g>
      </g>
      <path class="cls-5" d="M144.9,121.2c1.9,0,4-.2,6.4-.6.6,0,1-.7.9-1.3-.1-.6-.7-1-1.3-.9-10.3,1.8-14.7-1.4-14.8-1.4-.5-.4-1.2-.3-1.6.2-.4.5-.3,1.2.2,1.6.2.1,3.4,2.4,10.2,2.4Z"/>
      <path class="cls-5" d="M151.2,130.4c.5,0,1-.4,1.1-.9l1.2-6.5c.1-.6-.3-1.2-.9-1.3-.6,0-1.2.3-1.3.9l-1.2,6.5c-.1.6.3,1.2.9,1.3.1,0,.2,0,.2,0Z"/>
      <path class="cls-5" d="M132,127.5c.5,0,1-.4,1.1-.9l1.3-5.8c.1-.6-.3-1.2-.9-1.4-.6,0-1.2.3-1.4.9l-1.3,5.8c-.1.6.3,1.2.9,1.4.2,0,.2,0,.3,0Z"/>
      <g>
        <path class="cls-5" d="M148.8,131.7c2.6,0,4.4-.2,4.5-.2.6-.1,1.1-.6,1-1.3-.1-.6-.6-1.1-1.3-1-.1,0-14,1.4-22.1-3.9-.5-.3-1.2-.2-1.6.3-.3.5-.2,1.2.3,1.6,3.7,2.4,8.9,3.9,15.2,4.3,1.5.2,2.9.2,4,.2Z"/>
        <path class="cls-5" d="M144.9,131.7c-6.4-.4-11.5-1.9-15.3-4.4-.3-.2-.5-.5-.5-.8-.1-.3,0-.7.2-.9.2-.3.5-.5.8-.5.3,0,.7,0,.9.2,8.1,5.3,21.9,3.9,22.1,3.9.7-.1,1.3.4,1.4,1.1.1.7-.4,1.3-1.1,1.4-.1,0-1.8.2-4.5.2-1.4,0-2.7,0-4-.2ZM153.1,129.4c-.1,0-14,1.4-22.2-3.9-.2-.2-.5-.2-.8,0s-.5.2-.7.5c-.2.2-.2.5-.1.8.1.3.2.5.5.7,3.7,2.4,8.8,3.9,15.2,4.3,1.3.1,2.6.1,3.9.1,2.6,0,4.4-.2,4.5-.2.6-.1,1-.6.9-1.2-.1-.5-.5-.9-1-.9h-.2Z"/>
      </g>
      <g>
        <path class="cls-5" d="M109.1,175.1c.2,0,.5-.1.7-.2l20.1-11.7c.6-.4.9-1.2.5-1.8s-1.2-.9-1.8-.5l-20.1,11.7c-.6.4-.9,1.2-.5,1.8.2.5.7.7,1.1.7Z"/>
        <path class="cls-5" d="M107.9,174.5c-.4-.7-.2-1.6.5-2l20.1-11.7c.7-.4,1.6-.2,2,.5s.2,1.6-.5,2l-20.1,11.7c-.2.1-.5.2-.7.2-.6.1-1.1-.2-1.3-.7ZM128.6,161.1l-20.1,11.7c-.6.3-.8,1.1-.4,1.7.2.4.6.6,1,.6s.4-.1.6-.2l20.1-11.7c.6-.3.8-1.1.4-1.7-.2-.4-.6-.6-1-.6-.2,0-.4,0-.6.2Z"/>
      </g>
      <g>
        <path class="cls-5" d="M65,197.3c.5,0,1-.1,1.5-.3l11.5-5.4c.7-.3,1-1.1.6-1.8-.3-.7-1.1-1-1.8-.6l-11.5,5.4c-.4.2-1,0-1.2-.4l-2.2-4c-.4-.6-1.2-.9-1.8-.5s-.9,1.2-.5,1.8l2.2,4c.7,1.2,1.9,1.8,3.2,1.8Z"/>
        <path class="cls-5" d="M61.7,195.6l-2.2-4c-.2-.3-.2-.7,0-1.1s.4-.7.7-.9c.7-.4,1.6-.1,2,.6l2.2,4c.2.4.7.5,1,.3l11.5-5.4c.4-.2.8-.2,1.1-.1.4.1.7.4.8.8.2.4.2.8,0,1.1,0,.4-.4.7-.8.8l-11.5,5.4c-.5.2-1,.4-1.6.4-1.3,0-2.5-.8-3.2-1.9ZM76.9,189.3l-11.5,5.4c-.5.2-1.1,0-1.4-.4l-2.2-4c-.3-.6-1.1-.8-1.6-.5-.3.2-.5.4-.6.7s0,.6,0,.9l2.2,4c.6,1.1,1.8,1.8,3,1.8s1-.1,1.5-.3l11.5-5.4c.3-.1.5-.4.6-.7s0-.6,0-.9c0-.3-.4-.5-.7-.6,0,0-.3-.1-.4-.1-.2,0-.3.1-.5.1Z"/>
      </g>
      <g>
        <path class="cls-5" d="M47.4,142l51.9-30c1.5-.9,3.5-.4,4.5,1.2l27.2,45.3c.5.8.6,1.7.4,2.5-.2.9-.8,1.6-1.6,2l-1-1.8c.3-.2.5-.4.6-.8.1-.3,0-.7-.1-.9l-27.3-45.3c-.3-.6-1.1-.8-1.7-.4l-51.9,30c-.5.3-1.1.1-1.4-.4-.2-.4,0-1.1.4-1.4Z"/>
        <g>
          <path class="cls-5" d="M128.5,161.1h.1c.3-.2.4-.5.5-.8s0-.6-.1-.8l-27.2-45.3c-.3-.5-.9-.7-1.4-.4l-51.9,30c-.6.3-1.3.1-1.6-.4-.2-.3-.2-.6,0-.9,0-.3.3-.6.6-.7l51.9-30c1.6-.9,3.7-.4,4.7,1.2l27.2,45.3c.5.8.6,1.8.4,2.7-.2.9-.8,1.7-1.7,2.1h-.1c0,.1-1.3-2-1.3-2ZM99.4,112.1l-51.9,30c-.2.1-.3.3-.4.5,0,.2,0,.5,0,.7.2.4.8.6,1.2.3l51.9-30c.6-.4,1.5-.2,1.9.5l27.2,45.3c.2.3.2.7.1,1.1-.1.3-.3.6-.5.8l.8,1.5c.7-.4,1.2-1.1,1.4-1.8.2-.8.1-1.7-.3-2.4l-27.2-45.3c-.6-1-1.6-1.5-2.7-1.5-.6-.1-1.1,0-1.6.3Z"/>
          <path class="cls-5" d="M128.3,161.1h.3c.2-.2.4-.4.4-.7.1-.2,0-.5-.1-.7l-27.2-45.3c-.3-.4-.8-.6-1.3-.3l-51.9,30c-.3.2-.7.2-1,.1-.3-.1-.6-.3-.8-.6s-.2-.7,0-1c0-.3.3-.6.6-.8l51.9-30c1.7-1,3.9-.4,4.9,1.3l27.2,45.3c.5.8.6,1.8.4,2.8-.3.9-.9,1.7-1.7,2.2h-.3c0,.1-1.3-2.3-1.3-2.3ZM99.3,112l-51.9,30c-.2.1-.4.4-.5.6,0,.3,0,.6,0,.8s.4.4.6.5c.3.1.6,0,.8-.1l51.9-30c.6-.3,1.3,0,1.6.4l27.2,45.3c.2.3.2.6.1.9-.1.3-.3.6-.6.7h0l1,1.9h0c.8-.4,1.4-1.2,1.6-2,.2-.9.1-1.8-.4-2.6l-27.2-45.3c-.6-1-1.7-1.6-2.9-1.6-.3,0-.9.2-1.4.5ZM128.8,161.2h0c.3-.2.5-.5.6-.8s0-.7-.1-1l-27.3-45.2c-.3-.6-1.1-.8-1.7-.4l-51.9,30c-.2.1-.5.2-.8.1-.3-.1-.5-.2-.6-.5,0-.2-.2-.5,0-.8,0-.3.2-.5.5-.6l51.9-30c.5-.3,1-.4,1.6-.4,1.1,0,2.2.6,2.8,1.6l27.2,45.3c.5.8.6,1.7.4,2.5-.2.8-.7,1.5-1.4,1.9h-.1c0,.1-1-1.7-1-1.7ZM99.5,112.3l-51.9,30c-.2.1-.3.3-.3.4,0,.2,0,.4,0,.6,0,.2.3.3.4.3.2.1.4,0,.6-.1l51.9-30c.7-.4,1.6-.2,2.1.5l27.2,45.3c.2.4.3.8.2,1.2-.1.3-.3.6-.5.8l.7,1.3c.6-.4,1-1,1.2-1.7.2-.8.1-1.6-.3-2.3l-27.2-45.3c-.5-.9-1.5-1.4-2.6-1.4s-1.2,0-1.6.4Z"/>
        </g>
      </g>
      <g>
        <path class="cls-5" d="M71.6,36.1c1,0,1.8.8,1.8,1.8s-.8,1.8-1.8,1.8-1.8-.8-1.8-1.8c0-1,.8-1.8,1.8-1.8Z"/>
        <path class="cls-5" d="M90.6,36.1c1,0,1.8.8,1.8,1.8s-.8,1.8-1.8,1.8-1.8-.8-1.8-1.8c0-1,.8-1.8,1.8-1.8Z"/>
        <path class="cls-5" d="M87,31.6c0-.3.3-.5.5-.7s3.3-1.8,7-1.5c.6,0,1.1.6,1.1,1.2s-.6,1.1-1.2,1.1c-3-.2-5.7,1.2-5.8,1.3,0,0-.2,0-.3,0h-.2c-.4,0-.8-.2-1-.6,0-.3,0-.6,0-.9Z"/>
        <path class="cls-5" d="M82.3,51.4c.6,0,1.2.5,1.2,1.2s-.5,1.2-1.2,1.2h-2c-.6,0-1.2-.5-1.2-1.2s.5-1.2,1.2-1.2h2Z"/>
      </g>
    </g>
  </g>
</svg>