<?xml version="1.0" encoding="UTF-8"?>
<svg xmlns="http://www.w3.org/2000/svg" version="1.1" xmlns:svg="http://www.w3.org/2000/svg" viewBox="0 0 682.7 682.7">
  <defs>
    <style>
      .cls-1 {
        fill: #fffde6;
      }
    </style>
  </defs>
  <!-- Generator: Adobe Illustrator 28.6.0, SVG Export Plug-In . SVG Version: 1.2.0 Build 709)  -->
  <g>
    <g id="svg777">
      <g id="g787">
        <g id="g793">
          <path class="cls-1" d="M576,682.5h-268c-58.7,0-106.5-47.8-106.5-106.5v-53.3c0-14.6,11.9-26.5,26.5-26.5s26.5,11.9,26.5,26.5v53.3c0,29.5,24,53.5,53.5,53.5h268c29.5,0,53.5-24,53.5-53.5V106.7c0-29.5-24-53.5-53.5-53.5h-268c-29.5,0-53.5,24-53.5,53.5v53.3c0,14.6-11.9,26.5-26.5,26.5s-26.5-11.9-26.5-26.5v-53.3C201.5,48,249.3.2,308,.2h268c58.7,0,106.5,47.8,106.5,106.5v469.3c0,58.7-47.8,106.5-106.5,106.5Z"/>
        </g>
        <g id="g797">
          <path class="cls-1" d="M388,367.8H26.7c-14.6,0-26.5-11.9-26.5-26.5s11.9-26.5,26.5-26.5h361.3c14.6,0,26.5,11.9,26.5,26.5s-11.9,26.5-26.5,26.5Z"/>
        </g>
        <g id="g801">
          <path class="cls-1" d="M320,455.8c-6.8,0-13.6-2.6-18.8-7.8-10.3-10.4-10.2-27.2,0-37.5l60.2-59.7c2.6-2.5,4-5.9,4-9.5s-1.4-6.9-4-9.5l-60.2-59.7c-10.4-10.3-10.5-27.1,0-37.5,10.3-10.4,27.1-10.5,37.5,0l60.2,59.7c12.7,12.6,19.6,29.3,19.6,47.1s-7,34.5-19.6,47.1l-60.2,59.7c-5.2,5.2-12,7.7-18.7,7.7Z"/>
        </g>
      </g>
    </g>
  </g>
</svg>