<?xml version="1.0" encoding="utf-8"?>
<!-- Generator: Adobe Illustrator 28.1.0, SVG Export Plug-In . SVG Version: 6.00 Build 0)  -->
<svg version="1.1" id="レイヤー_1" xmlns="http://www.w3.org/2000/svg" xmlns:xlink="http://www.w3.org/1999/xlink" x="0px"
	 y="0px" viewBox="0 0 512 512" style="enable-background:new 0 0 512 512;" xml:space="preserve">
<style type="text/css">
	.st0{fill:#FFFFFF;}
</style>
<g id="_GRADIENT">
	<path class="st0" d="M144,128c8.8,0,16-7.2,16-16V96c0-8.8-7.2-16-16-16h-16c-8.8,0-16,7.2-16,16v16c0,8.8,7.2,16,16,16H144z
		 M128,96h16l0,16l0,0h-16V96z"/>
	<path class="st0" d="M192,128h16c8.8,0,16-7.2,16-16V96c0-8.8-7.2-16-16-16h-16c-8.8,0-16,7.2-16,16v16
		C176,120.8,183.2,128,192,128z M192,96h16l0,16l0,0h-16V96z"/>
	<path class="st0" d="M256,128h16c8.8,0,16-7.2,16-16V96c0-8.8-7.2-16-16-16h-16c-8.8,0-16,7.2-16,16v16
		C240,120.8,247.2,128,256,128z M256,96h16l0,16l0,0h-16V96z"/>
	<path class="st0" d="M320,144V40c0-13.2-10.8-24-24-24H104c-13.2,0-24,10.8-24,24v179.3l-41,41c-4.5,4.5-7,10.6-7,17v68.1
		c0,6.4-2.5,12.5-7,17L10.3,377l11.3,11.3l14.6-14.6C43.8,366.2,48,356,48,345.4v-68.1c0-2.1,0.8-4.2,2.3-5.7l43.3-43.3
		c5.7-5.7,15-5.7,20.7,0s5.7,15,0,20.7c0,0,0,0,0,0L87,276.3c-4.5,4.5-7,10.6-7,17V392c0,13.2,10.8,24,24,24h44.7l-9,9
		c-4.5,4.5-10.6,7-17,7h-13.5c-10.6,0-20.8,4.2-28.3,11.7l-46.6,46.6l11.3,11.3L92.3,455c4.5-4.5,10.6-7,17-7h13.5
		c10.6,0,20.8-4.2,28.3-11.7l11.6-11.6C195.8,469.5,248.2,496,304,496h16c97,0,176-79,176-176S417,144,320,144L320,144z M253.8,32
		l-2.5,9.9c-0.9,3.6-4.1,6.1-7.8,6.1h-87c-3.7,0-6.9-2.5-7.8-6.1l-2.5-9.9H253.8z M96,209.1V40c0-4.4,3.6-8,8-8h25.8l3.5,13.8
		c2.7,10.7,12.3,18.2,23.3,18.2h87c11,0,20.6-7.5,23.3-18.2l3.5-13.8H296c4.4,0,8,3.6,8,8v104H128v75.6c-0.7-0.9-1.5-1.8-2.3-2.6
		C117.9,209.2,106.6,206.2,96,209.1L96,209.1z M104,400c-4.4,0-8-3.6-8-8v-98.7c0-2.1,0.8-4.2,2.3-5.7l27.3-27.3
		c0.8-0.8,1.6-1.7,2.3-2.6V320c0,27.8,6.6,55.2,19.3,80H104z M320,480h-16c-41,0-80.5-15.8-110.2-44.1l24.2-72.7
		c2.6-7.8,9-13.7,16.9-15.7l13-3.3v49.1c-12.5,4.4-19,18.1-14.6,30.6c4.4,12.5,18.1,19,30.6,14.6c12.5-4.4,19-18.1,14.6-30.6
		c-2.4-6.8-7.8-12.2-14.6-14.6v-53.1l12.2-3l19.8,33V424h16v-53.8l19.8-33l12.2,3v38.8l-2.7,1.4c-8.2,4-13.3,12.4-13.3,21.5V440h16
		v-38.1c0-3,1.7-5.8,4.4-7.2l3.6-1.8l3.6,1.8c2.7,1.3,4.4,4.1,4.4,7.2V440h16v-38.1c0-9.1-5.1-17.4-13.3-21.5l-2.7-1.4v-34.8
		l12.5,3.1c8.1,2.1,14.6,8.2,17.1,16.2l26,84.6C388.1,468.9,354.5,480,320,480z M256,408c4.4,0,8,3.6,8,8s-3.6,8-8,8s-8-3.6-8-8
		C248,411.6,251.6,408,256,408z M312,240c8.7,0,17.1-2.8,24-8v32c0,17.7-14.3,32-32,32s-32-14.3-32-32v-24H312z M272,224v-4.9
		c0-13.2,10.8-24,24-24h40v4.9c0,13.2-10.8,24-24,24H272z M320,309.2v16.5l-16,26.7l-16-26.7v-16.5
		C298.3,312.9,309.7,312.9,320,309.2z M429,437l-24-78.1c-4.2-13.4-15-23.6-28.5-27L336,321.8v-21.9c10.2-9.1,16-22.1,16-35.8v-84.9
		h-56c-22.1,0-40,17.9-40,40V264c0,13.7,5.8,26.7,16,35.8v21.9L231.1,332c-13.3,3.3-24,13.2-28.2,26.2l-21.5,64.5
		C157.2,393.9,144,357.5,144,320V160h176c88.2,0,160,71.8,160,160C480,364.4,461.5,406.8,429,437z"/>
	<path class="st0" d="M376,24h16v24h-16V24z"/>
	<path class="st0" d="M352,48h24v16h-24V48z"/>
	<path class="st0" d="M376,64h16v24h-16V64z"/>
	<path class="st0" d="M392,48h24v16h-24V48z"/>
	<path class="st0" d="M448,88h16v24h-16V88z"/>
	<path class="st0" d="M424,112h24v16h-24V112z"/>
	<path class="st0" d="M448,128h16v24h-16V128z"/>
	<path class="st0" d="M464,112h24v16h-24V112z"/>
	<path class="st0" d="M416,224h-16c-13.2,0-24,10.8-24,24v29.6L353.1,312H416c13.2,0,24-10.8,24-24v-40C440,234.8,429.2,224,416,224
		z M424,288c0,4.4-3.6,8-8,8h-33.1l9.1-13.6V248c0-4.4,3.6-8,8-8h16c4.4,0,8,3.6,8,8V288z"/>
	<path class="st0" d="M216,208h-32c-13.2,0-24,10.8-24,24v32c0,13.2,10.8,24,24,24h21.6l34.4,22.9V232C240,218.8,229.2,208,216,208z
		 M224,281.1l-13.6-9.1H184c-4.4,0-8-3.6-8-8v-32c0-4.4,3.6-8,8-8h32c4.4,0,8,3.6,8,8V281.1z"/>
</g>
</svg>
