<?xml version="1.0" encoding="utf-8"?>
<!-- Generator: Adobe Illustrator 28.2.0, SVG Export Plug-In . SVG Version: 6.00 Build 0)  -->
<svg version="1.1" id="レイヤー_1" xmlns="http://www.w3.org/2000/svg" xmlns:xlink="http://www.w3.org/1999/xlink" x="0px"
	 y="0px" viewBox="0 0 512 512" style="enable-background:new 0 0 512 512;" xml:space="preserve">
<style type="text/css">
	.st0{fill:url(#SVGID_1_);}
	.st1{fill:url(#SVGID_00000152979391890631246500000002344896723663487414_);}
	.st2{fill:url(#SVGID_00000070102847383099175340000001397435067912993456_);}
	.st3{fill:url(#SVGID_00000163063503270125174090000008982079384865734791_);}
	.st4{fill:url(#SVGID_00000033354347686895183670000001617501929596351105_);}
	.st5{fill:url(#SVGID_00000038393532267534815640000015011000483072726437_);}
	.st6{fill:url(#SVGID_00000075851248466525375020000013356248108761169028_);}
	.st7{fill:url(#SVGID_00000148638276427282427630000014171516131184808604_);}
	.st8{fill:url(#SVGID_00000094596253083018097790000018255718633286444474_);}
	.st9{fill:url(#SVGID_00000070831934734393698680000001279413619619690118_);}
</style>
<g>
	<linearGradient id="SVGID_1_" gradientUnits="userSpaceOnUse" x1="252.994" y1="129.5017" x2="448.6686" y2="129.5017">
		<stop  offset="5.327789e-09" style="stop-color:#EC4E7F"/>
		<stop  offset="1" style="stop-color:#F86B97"/>
	</linearGradient>
	<path class="st0" d="M350.8,259L350.8,259c25.9,0,51.1-10.6,69.3-29c18.5-18.7,28.7-43.5,28.6-69.8c-0.2-8.1-1.6-16-4.3-23.6
		c-2.9-8.5-6.4-17-10.5-25c-10.4-20.8-26.2-45.3-46.9-72.8c-13.6-18-24.6-31.1-27.8-34.9l0,0l-0.1-0.1C357,1.4,354,0,350.8,0
		c-2.6,0-5.1,0.9-7.1,2.6c-0.4,0.3-0.7,0.7-1.1,1l-0.1,0.1c-3.9,4.6-24.5,28.9-45.2,58.8c-3.4,4.9-2.2,11.7,2.8,15.1
		c1.8,1.3,4,1.9,6.2,1.9c3.6,0,6.9-1.8,9-4.7c11.3-16.3,22.6-30.9,30.1-40.3c1.7-2.1,3.5-4.4,5.5-6.8c8.9,11,24,30.1,38.6,51.5
		c11.3,16.6,20.2,31.7,26.5,44.8c7.2,14.7,11.1,27.5,11,36c0.1,20.5-7.9,39.9-22.3,54.5c-14.3,14.5-33.4,22.5-53.8,22.5c0,0,0,0,0,0
		c-20,0-38.8-7.7-53-21.7c-0.3-0.3-0.5-0.5-0.8-0.8c-14.5-14.6-22.4-33.9-22.3-54.5c-0.1-7.8,3.2-19.3,9.3-32.4
		c2.5-5.4,0.1-11.9-5.3-14.4c-1.4-0.7-3-1-4.5-1c-4.2,0-8.1,2.5-9.9,6.4c-7.6,16.8-11.2,29.9-11.3,41.4c0,26.3,10.1,51.1,28.6,69.8
		C299.7,248.4,325,259,350.8,259z"/>
	
		<linearGradient id="SVGID_00000066508445470470910770000014124759741351830442_" gradientUnits="userSpaceOnUse" x1="278.2417" y1="95.4203" x2="299.9734" y2="95.4203">
		<stop  offset="5.327789e-09" style="stop-color:#EC4E7F"/>
		<stop  offset="1" style="stop-color:#F86B97"/>
	</linearGradient>
	<path style="fill:url(#SVGID_00000066508445470470910770000014124759741351830442_);" d="M283.5,104.7c1.7,1,3.6,1.6,5.6,1.6
		c0,0,0,0,0,0c3.8,0,7.4-2,9.3-5.3c3.1-5.1,1.4-11.8-3.7-14.9c-1.7-1-3.6-1.6-5.6-1.6c-3.2,0-6.2,1.4-8.3,3.8h-0.2l-1.3,2.1v0.1
		C276.9,95.6,278.6,101.8,283.5,104.7z"/>
	
		<linearGradient id="SVGID_00000160158727066178232160000005893012020908383890_" gradientUnits="userSpaceOnUse" x1="371.5882" y1="183.3061" x2="417.0451" y2="183.3061">
		<stop  offset="5.327789e-09" style="stop-color:#EC4E7F"/>
		<stop  offset="1" style="stop-color:#F86B97"/>
	</linearGradient>
	<path style="fill:url(#SVGID_00000160158727066178232160000005893012020908383890_);" d="M382.5,217.2L382.5,217.2
		c2.3,0,4.5-0.7,6.3-2c17.7-12.6,28.3-33.2,28.3-55c0-6-4.9-10.9-10.9-10.9s-10.9,4.9-10.9,10.9c0,14.8-7.1,28.7-19.1,37.2
		c-4.9,3.5-6,10.3-2.6,15.2C375.6,215.5,378.9,217.2,382.5,217.2z"/>
	
		<linearGradient id="SVGID_00000075854362470218396700000014085434010820397497_" gradientUnits="userSpaceOnUse" x1="339.9609" y1="216.4697" x2="361.7026" y2="216.4697">
		<stop  offset="5.327789e-09" style="stop-color:#EC4E7F"/>
		<stop  offset="1" style="stop-color:#F86B97"/>
	</linearGradient>
	<circle style="fill:url(#SVGID_00000075854362470218396700000014085434010820397497_);" cx="350.8" cy="216.5" r="10.9"/>
	
		<linearGradient id="SVGID_00000059279124899993903320000005105939147351355011_" gradientUnits="userSpaceOnUse" x1="118.591" y1="338.065" x2="417.04" y2="338.065">
		<stop  offset="5.327789e-09" style="stop-color:#EC4E7F"/>
		<stop  offset="1" style="stop-color:#F86B97"/>
	</linearGradient>
	<path style="fill:url(#SVGID_00000059279124899993903320000005105939147351355011_);" d="M314.2,364.6l-68.5,15.2
		c-2.8,0.6-5.3,2.3-6.8,4.8s-2.1,5.4-1.4,8.2c1.1,4.9,5.6,8.5,10.6,8.5c0,0,0,0,0,0c0.8,0,1.6-0.1,2.4-0.3l71.2-15.8
		c1.7-0.4,3.4-1.2,4.7-2.4l55.3-47.4c0.2-0.2,0.4-0.4,0.6-0.6l31.6-31.6c4.2-4.2,4.2-11.1,0-15.4c-8.4-8.4-19.5-13-31.4-13
		c-11.5,0-22.4,4.4-30.7,12.3l-52.6,37.6l-41.4,6.9c-17.2-8.9-93.4-47-128.3-47c-6,0-10.9,4.9-10.9,10.9s4.9,10.9,10.9,10.9
		c27.6,0,97,33.3,121.4,46.2c1.6,0.8,3.3,1.2,5.1,1.2c0.6,0,1.2-0.1,1.8-0.1l47.4-7.9c1.6-0.3,3.2-0.9,4.5-1.9l55.3-39.5
		c0.5-0.3,0.9-0.7,1.4-1.2c4.3-4.3,10-6.6,16.1-6.6c2.1,0,4.3,0.3,6.4,0.9l-21.7,21.7L314.2,364.6z"/>
	
		<linearGradient id="SVGID_00000103961564960658268420000007525095354234077360_" gradientUnits="userSpaceOnUse" x1="347.8091" y1="409.4165" x2="505.0088" y2="409.4165">
		<stop  offset="5.327789e-09" style="stop-color:#EC4E7F"/>
		<stop  offset="1" style="stop-color:#F86B97"/>
	</linearGradient>
	<path style="fill:url(#SVGID_00000103961564960658268420000007525095354234077360_);" d="M505,405.6l-2.1-4.3
		c-9.6-19.3-29-31.2-50.5-31.2c-4,0-8,0.4-11.8,1.3c-2.8,0.6-5.3,2.2-6.9,4.6c-1.6,2.4-2.2,5.3-1.6,8.2c1,5,5.5,8.7,10.6,8.7
		c0.7,0,1.5-0.1,2.1-0.2l0.2,0c2.4-0.5,4.8-0.8,7.3-0.8c8,0,15.6,2.7,21.8,7.7l-117.8,27.7c-2.8,0.6-5.2,2.4-6.8,4.8s-2,5.4-1.4,8.2
		c1.1,5,5.5,8.5,10.6,8.5c0.8,0,1.6-0.1,2.4-0.3l134.5-31.7c5.2-1.2,8.6-6,8.4-11.2H505z"/>
	
		<linearGradient id="SVGID_00000047758489660296636550000009631948147681808799_" gradientUnits="userSpaceOnUse" x1="142.4849" y1="284.5705" x2="258.9305" y2="284.5705">
		<stop  offset="5.327789e-09" style="stop-color:#EC4E7F"/>
		<stop  offset="1" style="stop-color:#F86B97"/>
	</linearGradient>
	<path style="fill:url(#SVGID_00000047758489660296636550000009631948147681808799_);" d="M150.9,268c22.4,5.2,42.1,14.6,58.6,28.1
		c5.9,4.8,16.4,12.8,32,24.4c1.8,1.4,4.1,2.2,6.5,2.2h0c6,0,10.9-4.9,10.9-10.8c0-3.4-1.6-6.7-4.4-8.7
		c-10.5-7.8-24.5-18.3-31.2-23.8c-19.1-15.6-41.8-26.5-67.5-32.4c-0.8-0.2-1.6-0.3-2.5-0.3c-6,0-10.9,4.9-10.9,10.9
		C142.5,262.5,146,266.8,150.9,268z"/>
	
		<linearGradient id="SVGID_00000115473837002811937730000017258249267919007401_" gradientUnits="userSpaceOnUse" x1="2.089906e-03" y1="262.5149" x2="101.3865" y2="262.5149">
		<stop  offset="5.327789e-09" style="stop-color:#EC4E7F"/>
		<stop  offset="1" style="stop-color:#F86B97"/>
	</linearGradient>
	<path style="fill:url(#SVGID_00000115473837002811937730000017258249267919007401_);" d="M10.9,282.7L10.9,282.7
		c1.2,0,2.3-0.2,3.4-0.5l23.6-7.7c17.4-5.4,35.4-8.9,53.5-10.4c2.9-0.2,5.5-1.6,7.4-3.8c1.9-2.2,2.8-5,2.6-7.9
		c-0.4-5.6-5.2-10-10.8-10c-0.3,0-0.6,0-0.9,0c-19.7,1.6-39.3,5.4-58.3,11.3l-23.9,7.8c-2.8,0.9-5,2.8-6.3,5.4
		c-1.3,2.6-1.5,5.5-0.6,8.3C2,279.7,6.2,282.7,10.9,282.7z"/>
	
		<linearGradient id="SVGID_00000037655307482164155880000011497932984324107700_" gradientUnits="userSpaceOnUse" x1="111.2362" y1="252.8347" x2="133.1223" y2="252.8347">
		<stop  offset="5.327789e-09" style="stop-color:#EC4E7F"/>
		<stop  offset="1" style="stop-color:#F86B97"/>
	</linearGradient>
	<path style="fill:url(#SVGID_00000037655307482164155880000011497932984324107700_);" d="M121.4,263.8c0.2,0,0.5,0,0.7,0
		c0,0,0.1,0,0.1,0c6,0,10.9-4.9,10.9-10.9c0-6-4.8-11-10.9-11c-6,0-10.9,4.9-10.9,10.9C111.2,258.5,115.7,263.3,121.4,263.8z"/>
	
		<linearGradient id="SVGID_00000163776799243329696480000009497698465142443680_" gradientUnits="userSpaceOnUse" x1="0" y1="408.5967" x2="488.2051" y2="408.5967">
		<stop  offset="5.327789e-09" style="stop-color:#EC4E7F"/>
		<stop  offset="1" style="stop-color:#F86B97"/>
	</linearGradient>
	<path style="fill:url(#SVGID_00000163776799243329696480000009497698465142443680_);" d="M436.8,450.2c-1.7-0.9-3.6-1.6-5.4-2.3
		l-21.8-7.3c-1.1-0.4-2.3-0.6-3.4-0.6c-4.7,0-8.8,3-10.3,7.4c-1.9,5.7,1.2,11.9,6.9,13.7l21.8,7.3c8.2,2.7,13.5,10.3,13.5,18.6
		l-146-46.7l71.1-32.3c0.2-0.1,0.4-0.2,0.6-0.3l118.6-63.2c2.6-1.4,4.4-3.6,5.3-6.4c0.8-2.8,0.6-5.7-0.8-8.3c-0.3-0.5-0.6-1-0.9-1.4
		c-10.9-14.6-28.4-23.3-46.6-23.3c-9,0-18,2.1-26,6.2c-2.6,1.3-4.5,3.5-5.4,6.3c-0.9,2.8-0.7,5.7,0.6,8.3c1.9,3.7,5.6,6,9.7,6
		c1.7,0,3.3-0.4,4.8-1.1c5-2.5,10.7-3.9,16.3-3.9c6.9,0,13.6,2,19.4,5.6l-104.9,56L269.4,427h-42.6L63,349c-1.5-0.7-3.1-1.1-4.7-1.1
		H10.9c-6,0-10.9,4.9-10.9,10.9c0,6,4.9,10.9,10.9,10.9h45l163.8,78c1.5,0.7,3.1,1.1,4.7,1.1h22l196,62.7c1.1,0.3,2.2,0.5,3.3,0.5
		c4.1,0,7.9-2.3,9.7-6C465.7,485.5,457.3,460.5,436.8,450.2z"/>
</g>
</svg>
