<?xml version="1.0" encoding="utf-8"?>
<!-- Generator: Adobe Illustrator 28.1.0, SVG Export Plug-In . SVG Version: 6.00 Build 0)  -->
<svg version="1.1" id="レイヤー_1" xmlns="http://www.w3.org/2000/svg" xmlns:xlink="http://www.w3.org/1999/xlink" x="0px"
	 y="0px" viewBox="0 0 682 682" style="enable-background:new 0 0 682 682;" xml:space="preserve">
<style type="text/css">
	.st0{fill:#FFFFFF;}
</style>
<path class="st0" d="M343.2,165.3c3.3,0,6.5-1.3,8.8-3.7s3.7-5.5,3.7-8.8c0-3.3-1.3-6.5-3.7-8.8s-5.5-3.7-8.8-3.7
	c-3.3,0-6.5,1.3-8.8,3.7c-2.3,2.3-3.7,5.5-3.7,8.8c0,3.3,1.3,6.5,3.7,8.8C336.7,164,339.9,165.3,343.2,165.3z"/>
<path class="st0" d="M353.1,464.7c-6.9,0-12.5,5.6-12.5,12.5c0,6.9,5.6,12.5,12.5,12.5h0.1c6.9,0,12.4-5.6,12.4-12.5
	C365.6,470.3,360,464.7,353.1,464.7z"/>
<path class="st0" d="M569.6,217.1c0-11.4-4.4-22-12.4-30.1c-4-4-8.5-7-13.4-9l13.4-13.4c8-8,12.4-18.7,12.4-30.1
	c0-11.4-4.4-22-12.4-30.1c-8.7-8.7-20.3-12.8-31.7-12.4V62.7c0-23-18.7-41.7-41.7-41.7H222.5c-23,0-41.7,18.7-41.7,41.7v175.6
	C169.6,227.6,155.3,220,139,217c-9.5-1.7-19.1,0.9-26.5,7c-7.4,6.2-11.6,15.2-11.6,24.8v349c0,6.9,5.6,12.5,12.5,12.5
	c6.9,0,12.5-5.6,12.5-12.5v-349c0-3,1.7-4.8,2.6-5.7c1-0.8,3.1-2.1,6-1.6c26.8,4.8,46.3,28.1,46.3,55.3v146.9c0,3.4,1.4,6.6,3.7,8.8
	c27.8,27.8,43.2,64.9,43.2,104.2v10.7c0,6.9,5.6,12.5,12.5,12.5c6.9,0,12.5-5.6,12.5-12.5v-10.7c0-10.6-1-21.1-2.8-31.4h208.9
	c-3.8,40.7-26.2,77.1-61.4,98.9l-20.7,12.8c-5.9,3.6-7.7,11.3-4,17.2c2.4,3.8,6.4,5.9,10.6,5.9c2.2,0,4.5-0.6,6.6-1.9l20.7-12.8
	c22.5-14,41.2-33.6,54.1-56.7c10.9-19.5,17.4-41.2,19.2-63.4h0c23,0,41.7-18.7,41.7-41.7v-40c0.2-0.2,0.5-0.4,0.7-0.6l31-31
	c8-8,12.4-18.7,12.4-30.1c0-11.4-4.4-22-12.4-30.1c-4-4-8.5-7-13.4-9l13.4-13.4c8-8,12.4-18.7,12.4-30.1c0-11.4-4.4-22-12.4-30.1
	c-3.9-3.9-8.5-6.9-13.3-9l13.3-13.3C565.2,239.1,569.6,228.4,569.6,217.1z M466.1,278.2c3.9,3.9,8.4,6.9,13.3,9l-13.3,13.3
	c-8,8-12.5,18.7-12.5,30.1s4.4,22,12.5,30.1c3.9,3.9,8.4,6.9,13.3,9L466.1,383c-8,8-12.5,18.7-12.5,30.1c0,6.1,1.3,12.1,3.8,17.5
	H205.8V165.3h87.4c6.9,0,12.5-5.6,12.5-12.5c0-6.9-5.6-12.5-12.5-12.5h-87.4v-24.4h279.9l-19.6,19.6c-8,8-12.5,18.7-12.5,30.1
	c0,11.4,4.4,22,12.5,30.1c3.9,3.9,8.4,6.9,13.3,9L466.1,218c-8,8-12.5,18.7-12.5,30.1C453.6,259.5,458,270.1,466.1,278.2z
	 M539.5,122.2c3.3,3.3,5.1,7.7,5.1,12.4s-1.8,9.1-5.1,12.4l-31,31c-3.3,3.3-7.7,5.1-12.4,5.1s-9.1-1.8-12.4-5.1
	c-3.3-3.3-5.1-7.7-5.1-12.4s1.8-9.1,5.1-12.4l31-31C521.6,115.3,532.7,115.3,539.5,122.2z M222.5,46h261.2c9.2,0,16.8,7.5,16.8,16.7
	V91H205.8V62.7C205.8,53.5,213.3,46,222.5,46z M483.8,500.5H243.2c-5.5-16-13.4-31.1-23.5-45h276c0.1,0,0.3,0,0.4,0
	c0.1,0,0.3,0,0.4,0h4v28.2C500.5,493,493,500.5,483.8,500.5z M539.5,394.4l-31,31c-3.3,3.3-7.6,5.1-12.2,5.1h-0.4
	c-4.6-0.1-8.9-1.9-12.2-5.1c-3.3-3.3-5.1-7.7-5.1-12.4s1.8-9.1,5.1-12.4l31-31c3.4-3.4,7.9-5.1,12.4-5.1c4.5,0,9,1.7,12.4,5.1
	c3.3,3.3,5.1,7.7,5.1,12.4S542.8,391.1,539.5,394.4z M539.5,311.9l-31,31c-3.3,3.3-7.7,5.1-12.4,5.1s-9.1-1.8-12.4-5.1
	c-3.3-3.3-5.1-7.7-5.1-12.4s1.8-9.1,5.1-12.4l31-31c3.4-3.4,7.9-5.1,12.4-5.1s9,1.7,12.4,5.1c3.3,3.3,5.1,7.7,5.1,12.4
	S542.8,308.6,539.5,311.9z M539.5,229.5l-31,31c-3.3,3.3-7.7,5.1-12.4,5.1s-9.1-1.8-12.4-5.1c-3.3-3.3-5.1-7.7-5.1-12.4
	s1.8-9.1,5.1-12.4l31-31c6.8-6.8,18-6.8,24.8,0c3.3,3.3,5.1,7.7,5.1,12.4S542.8,226.2,539.5,229.5z"/>
<path class="st0" d="M355,185.9c-46.1,0-83.6,37.5-83.6,83.6c0,46.1,37.5,83.6,83.6,83.6c46.1,0,83.6-37.5,83.6-83.6
	C438.7,223.4,401.1,185.9,355,185.9z M355,328.2c-32.3,0-58.7-26.3-58.7-58.7c0-32.3,26.3-58.7,58.7-58.7
	c32.3,0,58.7,26.3,58.7,58.7C413.7,301.9,387.4,328.2,355,328.2z"/>
<path class="st0" d="M373,243.8l-24.9,24.9l-8-8c-4.9-4.9-12.8-4.9-17.7,0c-4.9,4.9-4.9,12.8,0,17.7l16.9,16.9
	c2.3,2.3,5.5,3.7,8.8,3.7c3.3,0,6.5-1.3,8.8-3.7l33.7-33.7c4.9-4.9,4.9-12.8,0-17.7C385.8,238.9,377.9,238.9,373,243.8z"/>
<path class="st0" d="M113.4,635.4c-3.3,0-6.5,1.3-8.8,3.7c-2.3,2.3-3.7,5.5-3.7,8.8c0,3.3,1.3,6.5,3.7,8.8c2.3,2.3,5.5,3.7,8.8,3.7
	c3.3,0,6.5-1.3,8.8-3.7c2.3-2.3,3.7-5.5,3.7-8.8c0-3.3-1.3-6.5-3.7-8.8C119.9,636.7,116.7,635.4,113.4,635.4z"/>
</svg>
