<?xml version="1.0" encoding="utf-8"?>
<!-- Generator: Adobe Illustrator 28.2.0, SVG Export Plug-In . SVG Version: 6.00 Build 0)  -->
<svg version="1.1" id="Capa_1" xmlns="http://www.w3.org/2000/svg" xmlns:xlink="http://www.w3.org/1999/xlink" x="0px" y="0px"
	 viewBox="0 0 512 512" style="enable-background:new 0 0 512 512;" xml:space="preserve">
<style type="text/css">
	.st0{fill-rule:evenodd;clip-rule:evenodd;fill:url(#SVGID_1_);}
</style>
<g>
	<linearGradient id="SVGID_1_" gradientUnits="userSpaceOnUse" x1="74.0101" y1="256" x2="437.9899" y2="256">
		<stop  offset="5.327789e-09" style="stop-color:#EC4E7F"/>
		<stop  offset="1" style="stop-color:#F86B97"/>
	</linearGradient>
	<path class="st0" d="M126.5,512c-14,0-27.2-5.5-37.1-15.4c-9.9-9.9-15.4-23.1-15.4-37.1V145c0-4.9,2.3-9.5,6.2-12.4l45.1-33.8
		l-2.8-2.5C115.2,89.9,111,80.7,111,71V34c0-18.7,15.2-34,34-34h222c18.7,0,34,15.2,34,34v37c0,9.7-4.2,18.9-11.4,25.4l-2.8,2.5
		l45.1,33.8c3.9,2.9,6.2,7.5,6.2,12.4v314.5c0,14-5.5,27.2-15.4,37.1c-9.9,9.9-23.1,15.4-37.1,15.4H126.5z M104.9,152.7v306.8
		c0,5.7,2.3,11.2,6.3,15.2c4,4,9.5,6.3,15.2,6.3h259c5.7,0,11.2-2.3,15.2-6.3c4-4,6.3-9.5,6.3-15.2V152.7l-63.7-47.8H168.7
		L104.9,152.7z M141.9,74h228.1V30.9H141.9V74z M219,401c-8.5,0-15.5-6.9-15.5-15.5v-40h-40c-8.5,0-15.5-6.9-15.5-15.5v-74
		c0-8.5,6.9-15.5,15.5-15.5h40v-40c0-8.5,6.9-15.5,15.5-15.5h74c8.5,0,15.5,6.9,15.5,15.5v40h40c8.5,0,15.5,6.9,15.5,15.5v74
		c0,8.5-6.9,15.5-15.5,15.5h-40v40c0,8.5-6.9,15.5-15.5,15.5H219z M179,314.5h40c8.5,0,15.5,6.9,15.5,15.5v40h43.1v-40
		c0-8.5,6.9-15.5,15.5-15.5h40v-43.1h-40c-8.5,0-15.5-6.9-15.5-15.5v-40h-43.1v40c0,8.5-6.9,15.5-15.5,15.5h-40V314.5z"/>
</g>
</svg>
