<?xml version="1.0" encoding="utf-8"?>
<!-- Generator: Adobe Illustrator 28.1.0, SVG Export Plug-In . SVG Version: 6.00 Build 0)  -->
<svg version="1.1" id="Capa_1" xmlns="http://www.w3.org/2000/svg" xmlns:xlink="http://www.w3.org/1999/xlink" x="0px" y="0px"
	 viewBox="0 0 512 512" style="enable-background:new 0 0 512 512;" xml:space="preserve">
<style type="text/css">
	.st0{fill:url(#SVGID_1_);}
	.st1{fill:url(#SVGID_00000105412767060429069580000000998167048321749942_);}
</style>
<g>
	<g>
		<g>
			<linearGradient id="SVGID_1_" gradientUnits="userSpaceOnUse" x1="36.6829" y1="256" x2="475.3175" y2="256">
				<stop  offset="5.327789e-09" style="stop-color:#EC4E7F"/>
				<stop  offset="1" style="stop-color:#F86B97"/>
			</linearGradient>
			<path class="st0" d="M436.9,251.5C410.6,170.3,398.1,85.3,400,0h-32c-0.6,53.3,3.7,106.6,12.8,159.1
				c-23.4,26.4-62.8,48.5-122.5,18.5c-39.4-21-82.1-35-126.2-41.4C163.2,97.9,178.8,49.3,176,0h-32c2.8,45.1-12.4,89.5-42.3,123.4
				c-26.8,33-46.5,71.2-57.9,112.2c-33.6,117.7,62,263.1,66.1,269.3l26.6-17.8c-0.9-1.4-91.6-139-61.9-242.7
				c1.8-6.2,3.6-11.9,5.5-17.4c47.4,7.7,157.1,32.3,204,99.5l31.3,172.3l31.5-5.7L318,334c10.8-1.9,21.1-5.6,30.7-10.8
				c15.3-8.4,28.1-20.5,37.4-35.3l19.1-30.6l1,3.2c26.3,81.2,38.8,166.2,37,251.5h32C476.9,423.6,464,335.6,436.9,251.5z M359,270.9
				c-11.5,18.1-30.6,30.1-51.9,32.6C254,232.9,146.5,206,92.7,196.6c5-10.2,10.8-20.1,17.2-29.6c13-0.3,59.1,1.8,134.2,39.3
				c21,11.1,44.4,17.2,68.2,17.7c28-0.2,55-10.2,76.3-28.3c1.6,6.8,3.3,13.5,5,20L359,270.9z"/>
			
				<linearGradient id="SVGID_00000036951737047862522310000000384876282011986827_" gradientUnits="userSpaceOnUse" x1="283.22" y1="112" x2="315.22" y2="112">
				<stop  offset="5.327789e-09" style="stop-color:#EC4E7F"/>
				<stop  offset="1" style="stop-color:#F86B97"/>
			</linearGradient>
			<rect x="283.2" y="96" style="fill:url(#SVGID_00000036951737047862522310000000384876282011986827_);" width="32" height="32"/>
		</g>
	</g>
</g>
</svg>
