<?xml version="1.0" encoding="utf-8"?>
<!-- Generator: Adobe Illustrator 28.1.0, SVG Export Plug-In . SVG Version: 6.00 Build 0)  -->
<svg version="1.1" id="Capa_1" xmlns="http://www.w3.org/2000/svg" xmlns:xlink="http://www.w3.org/1999/xlink" x="0px" y="0px"
	 viewBox="0 0 512 512" style="enable-background:new 0 0 512 512;" xml:space="preserve">
<style type="text/css">
	.st0{fill:url(#SVGID_1_);}
	.st1{fill:url(#SVGID_00000147908510951771723080000017241721207783519630_);}
</style>
<g>
	<g>
		<linearGradient id="SVGID_1_" gradientUnits="userSpaceOnUse" x1="-3.502609e-04" y1="256" x2="512.0001" y2="256">
			<stop  offset="5.327789e-09" style="stop-color:#EC4E7F"/>
			<stop  offset="1" style="stop-color:#F86B97"/>
		</linearGradient>
		<path class="st0" d="M507.6,46.8L465.2,4.4c-5.2-5.2-13.5-5.9-19.4-1.5L301.1,107.9c-2.8-2.8-16.8-16.8-33.4-33.4
			c-5.9-5.9-15.4-5.9-21.2,0s-5.9,15.4,0,21.2l10.6,10.6l-23,23c-16.6-8-37.3-5.1-51.2,8.8L13.2,307.9c-17.6,17.6-17.6,46,0,63.6
			l127.3,127.3c17.6,17.6,46.1,17.6,63.6,0l169.7-169.7c13.9-13.9,16.8-34.6,8.8-51.2l23-23l10.6,10.6c5.9,5.9,15.4,5.9,21.2,0
			s5.9-15.4,0-21.2l-33.4-33.4L509.1,66.2C513.5,60.3,512.8,52,507.6,46.8z M352.6,307.9L182.9,477.6c-5.9,5.9-15.4,5.9-21.2,0
			L34.4,350.3c-5.9-5.9-5.9-15.4,0-21.2l169.7-169.7c5.9-5.9,15.4-5.9,21.2,0l127.3,127.3C358.4,292.5,358.4,302,352.6,307.9z
			 M363.2,254.9c-5.1-5.1-101.5-101.5-106.1-106.1l21.2-21.2c5.3,5.3,100.8,100.8,106.1,106.1L363.2,254.9z M382.6,189.4
			c-35-35-37.1-37.1-60-60L453,34.7L477.3,59L382.6,189.4z"/>
	</g>
</g>
<g>
	<g>
		
			<linearGradient id="SVGID_00000039117714240084420410000015022390811855611783_" gradientUnits="userSpaceOnUse" x1="97.2714" y1="327.2696" x2="272.1373" y2="327.2696">
			<stop  offset="5.327789e-09" style="stop-color:#EC4E7F"/>
			<stop  offset="1" style="stop-color:#F86B97"/>
		</linearGradient>
		<path style="fill:url(#SVGID_00000039117714240084420410000015022390811855611783_);" d="M267.7,244.3c-3.8-3.8-9.3-5.3-14.5-3.9
			l-100.4,26.9c-12.7,3.4-24.3,10.1-33.6,19.4c-29.3,29.3-29.3,76.8,0,106.1c29.2,29.2,76.8,29.2,106.1,0c9.3-9.3,16-20.9,19.4-33.6
			l26.9-100.4C273,253.6,271.5,248,267.7,244.3z M215.7,351.4c-2,7.6-6.1,14.5-11.6,20.1c-17.5,17.5-46.1,17.5-63.6,0
			c-17.6-17.6-17.6-46,0-63.6c5.6-5.6,12.5-9.6,20.1-11.6l75.3-20.2L215.7,351.4z"/>
	</g>
</g>
</svg>
