<?xml version="1.0" encoding="utf-8"?>
<!-- Generator: Adobe Illustrator 28.1.0, SVG Export Plug-In . SVG Version: 6.00 Build 0)  -->
<svg version="1.1" id="Layer_1" xmlns="http://www.w3.org/2000/svg" xmlns:xlink="http://www.w3.org/1999/xlink" x="0px" y="0px"
	 viewBox="0 0 512 512" style="enable-background:new 0 0 512 512;" xml:space="preserve">
<style type="text/css">
	.st0{fill:#FFFFFF;}
	.st1{fill:url(#SVGID_1_);}
</style>
<path class="st0" d="M240,19.9c8.8,5.8,23.2,5.8,32,0l23.2-15.4c8.8-5.8,20.6-3.3,26.2,5.6l14.9,23.5c5.6,8.9,18.8,14.8,29.2,13
	l27.5-4.7c10.4-1.8,20.2,5.3,21.7,15.8l4.1,27.5c1.5,10.4,11.2,21.1,21.4,23.8l27,7c10.2,2.6,16.3,13.1,13.4,23.3l-7.5,26.8
	c-2.8,10.2,1.6,23.8,9.9,30.4l21.9,17.4c8.3,6.6,9.5,18.6,2.8,26.7l-17.8,21.5c-6.7,8.1-8.2,22.4-3.3,31.8l12.9,24.7
	c4.9,9.4,1.2,20.8-8.3,25.5l-25,12.4c-9.4,4.7-16.6,17.1-16,27.7l1.7,27.8c0.7,10.5-7.4,19.5-18,20l-27.8,1.2
	c-10.5,0.5-22.2,8.9-25.9,18.8l-9.7,26.1c-3.7,9.9-14.7,14.8-24.5,10.9l-25.9-10.2c-9.8-3.9-23.9-0.9-31.3,6.6L269.4,505
	c-7.4,7.5-19.5,7.5-26.9,0L223,485.1c-7.4-7.5-21.5-10.5-31.3-6.6l-25.9,10.2c-9.8,3.9-20.8-1-24.5-10.9l-9.7-26.1
	c-3.7-9.9-15.3-18.4-25.9-18.8L78,431.7c-10.5-0.5-18.6-9.4-18-20l1.7-27.8c0.7-10.5-6.5-23-16-27.7l-25-12.4
	c-9.4-4.7-13.2-16.2-8.3-25.5l12.9-24.7c4.9-9.3,3.4-23.6-3.4-31.8L4.3,240.5c-6.7-8.1-5.5-20.1,2.8-26.7L29,196.4
	c8.3-6.6,12.7-20.2,9.9-30.4l-7.5-26.8c-2.8-10.2,3.2-20.6,13.4-23.3l27-7c10.2-2.6,19.8-13.3,21.4-23.8l4.1-27.5
	c1.5-10.4,11.3-17.5,21.7-15.8l27.5,4.7c10.4,1.8,23.5-4.1,29.2-13L190.6,10c5.6-8.9,17.5-11.4,26.2-5.6L240,19.9z"/>
<linearGradient id="SVGID_1_" gradientUnits="userSpaceOnUse" x1="90.4" y1="258.1" x2="421.6" y2="258.1" gradientTransform="matrix(1 0 0 -1 0 514)">
	<stop  offset="5.327789e-09" style="stop-color:#EC4E7F"/>
	<stop  offset="1" style="stop-color:#F86B97"/>
</linearGradient>
<path class="st1" d="M421.6,255.9c0,91.5-74.2,165.6-165.6,165.6c-91.5,0-165.6-74.2-165.6-165.6c0-91.5,74.2-165.6,165.6-165.6
	C347.5,90.3,421.6,164.4,421.6,255.9z"/>
<polygon class="st0" points="228.4,333.7 162.1,267.4 184.2,245.3 228.4,289.5 327.8,190 349.9,212.1 "/>
</svg>
