<?xml version="1.0" encoding="utf-8"?>
<!-- Generator: Adobe Illustrator 28.1.0, SVG Export Plug-In . SVG Version: 6.00 Build 0)  -->
<svg version="1.1" id="Capa_1" xmlns="http://www.w3.org/2000/svg" xmlns:xlink="http://www.w3.org/1999/xlink" x="0px" y="0px"
	 viewBox="0 0 427.6 427.6" style="enable-background:new 0 0 427.6 427.6;" xml:space="preserve">
<style type="text/css">
	.st0{fill:url(#SVGID_1_);}
	.st1{fill:url(#SVGID_00000023959924977104582630000003020497835206598544_);}
	.st2{fill:url(#SVGID_00000004542162248854407130000007004427989532123580_);}
</style>
<g>
	<linearGradient id="SVGID_1_" gradientUnits="userSpaceOnUse" x1="5.839409e-02" y1="181.0075" x2="362.1152" y2="181.0075">
		<stop  offset="5.327789e-09" style="stop-color:#EC4E7F"/>
		<stop  offset="1" style="stop-color:#F86B97"/>
	</linearGradient>
	<path class="st0" d="M251,250.9c0.5-0.5,1-1.1,1.4-1.7l80.4-80.6c18.7-18.5,29.1-43.2,29.3-69.5c0.1-26.3-10-51.1-28.4-69.9
		C315,10.4,290.1,0,263.6,0c-26.1,0-50.7,10.1-69.3,28.5l-80.9,80.9c-1.7,1-3.1,2.4-4.1,4.1l-80.6,80.5
		c-38.3,38.4-38.3,100.9,0.1,139.3C47.6,351.8,72.4,362,98.8,362c26.3,0,51.2-10.2,69.9-28.7l80.6-80.9
		C250,251.9,250.5,251.5,251,250.9z M151.9,316.4c-14.3,14.1-33.2,21.8-53.2,21.8c-20,0-38.9-7.8-53.1-21.8
		c-28.9-29.1-28.9-76.6,0-105.7l74.3-74.3l105.8,106L151.9,316.4z M136.7,119.7L210.4,46c14.1-14.1,32.9-21.9,52.8-21.9
		S302,31.9,316.1,46c29.1,29.1,29.1,76.5,0,105.7l-73.6,73.8L136.7,119.7z"/>
	
		<linearGradient id="SVGID_00000157271952263264665530000006582010113571528069_" gradientUnits="userSpaceOnUse" x1="187.3953" y1="98.8217" x2="245.3849" y2="98.8217">
		<stop  offset="5.327789e-09" style="stop-color:#EC4E7F"/>
		<stop  offset="1" style="stop-color:#F86B97"/>
	</linearGradient>
	<path style="fill:url(#SVGID_00000157271952263264665530000006582010113571528069_);" d="M233.6,70.1c-3.1,0-6.1,1.2-8.4,3.5
		L191,107.2c-4.7,4.6-4.8,12.1-0.2,16.8c2.2,2.3,5.3,3.6,8.5,3.6h0c3.1,0,6.1-1.2,8.3-3.3l34.3-33.8c4.7-4.6,4.8-12.1,0.3-16.8
		C239.8,71.4,236.8,70.1,233.6,70.1z"/>
	
		<linearGradient id="SVGID_00000081646486923755980100000000136622942175064974_" gradientUnits="userSpaceOnUse" x1="231.5164" y1="329.3697" x2="427.5448" y2="329.3697">
		<stop  offset="5.327789e-09" style="stop-color:#EC4E7F"/>
		<stop  offset="1" style="stop-color:#F86B97"/>
	</linearGradient>
	<path style="fill:url(#SVGID_00000081646486923755980100000000136622942175064974_);" d="M399,260.2L399,260.2
		c-18.5-18.8-43.1-29.1-69.4-29.1c-25.8,0-50.1,10-68.5,28.1l-0.9,0.9c-38.2,38.2-38.3,100.5-0.1,138.7
		c18.5,18.5,43.1,28.8,69.4,28.8c0,0,0,0,0,0c26.2,0,50.8-10.2,69.3-28.7C437.1,360.7,437.1,298.5,399,260.2z M255.3,329.5
		c0-41,33.3-74.3,74.3-74.3c15.5,0,30.8,5,43.3,14L269.3,372.9C260.2,360.3,255.3,345,255.3,329.5z M382.1,382
		c-14,14-32.7,21.7-52.5,21.7c-15.8,0-30.7-4.8-43.4-14L389.8,286C411.1,315.4,407.9,356.3,382.1,382z"/>
</g>
</svg>
