<?xml version="1.0" encoding="utf-8"?>
<!-- Generator: Adobe Illustrator 28.1.0, SVG Export Plug-In . SVG Version: 6.00 Build 0)  -->
<svg version="1.1" id="レイヤー_1" xmlns="http://www.w3.org/2000/svg" xmlns:xlink="http://www.w3.org/1999/xlink" x="0px"
	 y="0px" viewBox="0 0 512 512" style="enable-background:new 0 0 512 512;" xml:space="preserve">
<style type="text/css">
	.st0{fill:url(#SVGID_1_);}
	.st1{fill:url(#SVGID_00000052072810226139962370000008306221069642869408_);}
	.st2{fill:url(#SVGID_00000034797694396211198310000007378145627774270882_);}
	.st3{fill:url(#SVGID_00000167376966011597238440000017991817349503344267_);}
	.st4{fill:url(#SVGID_00000181054333522879342040000011538014879917815195_);}
	.st5{fill:url(#SVGID_00000062150397942250018300000018269242139086597289_);}
	.st6{fill:url(#SVGID_00000122704686479169936250000001765532583573787266_);}
	.st7{fill:url(#SVGID_00000055703715299414258070000005157564405187189122_);}
	.st8{fill:url(#SVGID_00000005235768780145583850000016366307290238319751_);}
</style>
<g id="_x38_77_x2C__Women_x27_s_x2C__Day_x2C__Women">
	<g>
		<linearGradient id="SVGID_1_" gradientUnits="userSpaceOnUse" x1="188.1017" y1="257.2484" x2="496.0089" y2="257.2484">
			<stop  offset="5.327789e-09" style="stop-color:#EC4E7F"/>
			<stop  offset="1" style="stop-color:#F86B97"/>
		</linearGradient>
		<path class="st0" d="M481.4,155.9c-0.7-0.4-1.5-0.8-1.8-1c-28.2-18.8-26.5-34.2-25.2-46.6c3.1-29.7,11.9-77.5,12-77.9
			c0.8-4.6-1.6-9.2-5.9-11c-4.3-1.8-9.3-0.4-12,3.4C390,104.6,322.8,161.8,322.2,162.4c-70.2,58.9-126.9,135.4-133.4,226
			c-4.4,60.8,16,100.6,16.9,102.2c1.8,3.4,5.3,5.5,9.3,5.4c5.7-0.2,10.1-5.1,9.6-10.8c-1.6-93.8,33.8-153.7,102.5-173.1
			c5.4-1.5,11.1-2,16.6-1.5c5.3,0.5,64,6,69.1,5.8c15.6-0.2,26.9-5.3,33.7-15.1c7.4-10.6,7.1-23.7,5.6-32.8
			c6.3-2.4,11.1-5.8,14.1-10.3c3.5-5.1,4.1-10.6,3.4-14.1c-0.4-2.1-1.5-4.1-3.1-5.5c-0.8-0.7-1.4-1.3-1.9-1.9
			c4.3-0.5,7.9-2.5,10.4-5.7c4.7-6,3.1-13.4,2.8-14.9c-0.3-1.2-0.2-0.6-5.9-15l18.5-10c2.6-1.4,4.5-4,5.1-6.9
			C499,165.1,486.7,158.6,481.4,155.9L481.4,155.9z M454.4,187.8c-4.5,2.4-6.4,7.8-4.5,12.5l6.7,16.8c-13.1,2.5-19.4,17.1-8.5,31.1
			c-1.6,1.1-4.7,2.4-9.9,3.3c-6.1,1.1-9.8,7.4-7.7,13.2c1.5,4.2,4.6,17.7-0.6,25.1c-2.9,4.2-8.7,6.4-17.3,6.5
			c-2-0.1-16.7-1-67.3-5.8c-8-0.8-16.2,0-24,2.2c-29.2,8.3-53.5,23.2-72.4,44.5c-20.2,22.8-33.6,52.1-40.1,87.6
			c-9.2-98,50.9-184.2,126-247.2c2.4-2.1,52.5-44.7,104.7-110.3c-2,13.1-4.1,27.2-5.3,38.9c-1.5,13.9-4.2,39.8,34,65.3
			c1.2,0.8,2.5,1.5,3.6,2.1c2.2,1.1,3.3,1.7,3.8,2.7L454.4,187.8z"/>
		
			<linearGradient id="SVGID_00000028323359486741675520000012174418582784800938_" gradientUnits="userSpaceOnUse" x1="123.6497" y1="257.2453" x2="401.985" y2="257.2453">
			<stop  offset="5.327789e-09" style="stop-color:#EC4E7F"/>
			<stop  offset="1" style="stop-color:#F86B97"/>
		</linearGradient>
		<path style="fill:url(#SVGID_00000028323359486741675520000012174418582784800938_);" d="M144.3,388.7
			c5.7-73.5,49.4-146.5,126.3-211c2.8-2.4,69.7-59.4,129.5-143.4c3.2-4.5,2.2-10.7-2.3-13.9c-4.5-3.2-10.7-2.2-13.9,2.3
			c-58.3,81.9-125.5,139.1-126.1,139.7c-70.2,58.9-126.9,135.4-133.4,226c-4.4,60.8,16,100.6,16.9,102.2c1.8,3.4,5.3,5.4,8.9,5.4
			c7.4,0,12.4-7.9,8.9-14.6C158.7,481,140,444.1,144.3,388.7L144.3,388.7z"/>
		
			<linearGradient id="SVGID_00000124858699942967368710000007471041872405832355_" gradientUnits="userSpaceOnUse" x1="17.8267" y1="328.0095" x2="165.9999" y2="328.0095">
			<stop  offset="5.327789e-09" style="stop-color:#EC4E7F"/>
			<stop  offset="1" style="stop-color:#F86B97"/>
		</linearGradient>
		<path style="fill:url(#SVGID_00000124858699942967368710000007471041872405832355_);" d="M38.2,388.5
			c4.4-73.5,47.4-146.4,124.2-210.8c4.2-3.5,4.8-9.9,1.2-14.1c-3.6-4.2-9.9-4.8-14.1-1.2C79.2,221.4,23.2,297.9,18.2,388.6
			c-3.3,60.8,18.1,100.6,19.1,102.2c1.8,3.3,5.2,5.2,8.8,5.2c7.5,0,12.4-8.1,8.8-14.8C54.6,480.8,34.9,443.9,38.2,388.5L38.2,388.5z
			"/>
		
			<linearGradient id="SVGID_00000028303215239674260630000003711135026024775823_" gradientUnits="userSpaceOnUse" x1="195.9999" y1="96.0009" x2="336.0015" y2="96.0009">
			<stop  offset="5.327789e-09" style="stop-color:#EC4E7F"/>
			<stop  offset="1" style="stop-color:#F86B97"/>
		</linearGradient>
		<path style="fill:url(#SVGID_00000028303215239674260630000003711135026024775823_);" d="M198.5,172.6c3.6,4.2,10,4.6,14.1,0.9
			C300,96.8,333.5,33.3,334.9,30.6c2.5-4.9,0.6-10.9-4.3-13.5s-10.9-0.6-13.5,4.3c-0.3,0.6-33.4,63.1-117.7,137.1
			C195.3,162.1,194.8,168.4,198.5,172.6L198.5,172.6z"/>
		
			<linearGradient id="SVGID_00000090263604628695262650000004277967610910058126_" gradientUnits="userSpaceOnUse" x1="73.1887" y1="381.0005" x2="126.0002" y2="381.0005">
			<stop  offset="5.327789e-09" style="stop-color:#EC4E7F"/>
			<stop  offset="1" style="stop-color:#F86B97"/>
		</linearGradient>
		<path style="fill:url(#SVGID_00000090263604628695262650000004277967610910058126_);" d="M123.2,282.9c3.8-4,3.7-10.3-0.3-14.1
			c-4-3.8-10.3-3.7-14.1,0.2c-2.5,2.6-61.1,65.4-22.5,219.4c1.3,5.4,6.8,8.6,12.1,7.3c5.4-1.3,8.6-6.8,7.3-12.1
			C87,409,92.9,358.4,101,329C109.8,297.6,122.9,283.2,123.2,282.9z"/>
		
			<linearGradient id="SVGID_00000127036294432464910290000016580405287498772884_" gradientUnits="userSpaceOnUse" x1="16" y1="126" x2="76" y2="126">
			<stop  offset="5.327789e-09" style="stop-color:#EC4E7F"/>
			<stop  offset="1" style="stop-color:#F86B97"/>
		</linearGradient>
		<path style="fill:url(#SVGID_00000127036294432464910290000016580405287498772884_);" d="M46,156c16.5,0,30-13.5,30-30
			S62.5,96,46,96s-30,13.5-30,30S29.5,156,46,156z M46,116c5.5,0,10,4.5,10,10c0,5.5-4.5,10-10,10s-10-4.5-10-10S40.5,116,46,116z"
			/>
		
			<linearGradient id="SVGID_00000089566322115234500940000005889610306971519637_" gradientUnits="userSpaceOnUse" x1="426" y1="406" x2="486" y2="406">
			<stop  offset="5.327789e-09" style="stop-color:#EC4E7F"/>
			<stop  offset="1" style="stop-color:#F86B97"/>
		</linearGradient>
		<path style="fill:url(#SVGID_00000089566322115234500940000005889610306971519637_);" d="M456,376c-16.5,0-30,13.5-30,30
			s13.5,30,30,30s30-13.5,30-30S472.5,376,456,376z M456,416c-5.5,0-10-4.5-10-10s4.5-10,10-10s10,4.5,10,10S461.5,416,456,416z"/>
		
			<linearGradient id="SVGID_00000011738565617334491360000011301302579931037842_" gradientUnits="userSpaceOnUse" x1="291.023" y1="425.6407" x2="404.4099" y2="425.6407">
			<stop  offset="5.327789e-09" style="stop-color:#EC4E7F"/>
			<stop  offset="1" style="stop-color:#F86B97"/>
		</linearGradient>
		<path style="fill:url(#SVGID_00000011738565617334491360000011301302579931037842_);" d="M347.7,383.9
			c-13.4-12-33.9-11.5-46.7,1.3c-13.3,13.3-13.3,34.9,0,48.1l39.7,39.7c3.9,3.9,10.2,3.9,14.1,0l39.7-39.7
			c13.3-13.3,13.3-34.9,0-48.1C381.6,372.4,361.1,372,347.7,383.9z M380.3,419.3l-32.6,32.6l-32.6-32.6c-5.5-5.5-5.5-14.4,0-19.9
			c5.5-5.5,14.4-5.5,19.9,0l5.7,5.7c3.9,3.9,10.2,3.9,14.1,0l5.7-5.7c5.5-5.5,14.4-5.5,19.9,0C385.8,404.9,385.8,413.8,380.3,419.3
			L380.3,419.3z"/>
		
			<linearGradient id="SVGID_00000026853597479366605780000016009989286069443736_" gradientUnits="userSpaceOnUse" x1="112.5722" y1="66.3514" x2="225.9837" y2="66.3514">
			<stop  offset="5.327789e-09" style="stop-color:#EC4E7F"/>
			<stop  offset="1" style="stop-color:#F86B97"/>
		</linearGradient>
		<path style="fill:url(#SVGID_00000026853597479366605780000016009989286069443736_);" d="M162.2,113.8c3.9,3.9,10.2,3.9,14.1,0
			L216,74.1c13.3-13.3,13.3-34.9,0-48.1c-12.9-12.9-33.4-13.3-46.7-1.3C156,12.7,135.4,13.1,122.6,26c-13.3,13.3-13.3,34.8,0,48.1
			L162.2,113.8z M146.6,36c3.8,0,7.3,1.5,9.9,4.1l5.7,5.7c3.9,3.9,10.2,3.9,14.1,0l5.7-5.7c5.5-5.5,14.4-5.5,19.9,0
			c5.5,5.5,5.5,14.4,0,19.9l-32.6,32.6L136.7,60c-2.7-2.7-4.1-6.2-4.1-9.9C132.6,42.3,138.9,36,146.6,36L146.6,36z"/>
	</g>
</g>
</svg>
