<?xml version="1.0" encoding="utf-8"?>
<!-- Generator: Adobe Illustrator 28.1.0, SVG Export Plug-In . SVG Version: 6.00 Build 0)  -->
<svg version="1.1" id="svg2214" xmlns:svg="http://www.w3.org/2000/svg"
	 xmlns="http://www.w3.org/2000/svg" xmlns:xlink="http://www.w3.org/1999/xlink" x="0px" y="0px" viewBox="0 0 682.7 682.7"
	 style="enable-background:new 0 0 682.7 682.7;" xml:space="preserve">
<style type="text/css">
	.st0{fill:url(#SVGID_1_);}
	.st1{fill:url(#SVGID_00000054973036137327709760000011487818161200870022_);}
	.st2{fill:url(#SVGID_00000173845936774780172950000003872417237795787706_);}
	.st3{fill:url(#SVGID_00000177469884664466602540000012240366186413569156_);}
	.st4{fill:url(#SVGID_00000158706975425024956450000012009736169288871850_);}
	.st5{fill:url(#SVGID_00000090983714275687244260000001404807902255159227_);}
	.st6{fill:url(#SVGID_00000014623942457616849660000000245737800781170059_);}
	.st7{fill:url(#SVGID_00000000941929951207879540000015571412789260584120_);}
</style>
<g>
	<linearGradient id="SVGID_1_" gradientUnits="userSpaceOnUse" x1="38.0684" y1="353.627" x2="682.666" y2="353.627">
		<stop  offset="5.327789e-09" style="stop-color:#EC4E7F"/>
		<stop  offset="1" style="stop-color:#F86B97"/>
	</linearGradient>
	<path class="st0" d="M674.2,150.7l-62.4-24.6l-24.6-62.4c-2-5.1-6.9-8.4-12.4-8.4c-5.5,0-10.4,3.3-12.4,8.4l-21.2,53.8
		c-0.6-0.6-1.2-1.3-1.9-1.9c-23.7-23.2-53.6-37.9-86.6-42.5c-32.5-4.5-65.1,1.2-94.2,16.5c-14,7.3-39.5,7.3-53.5,0
		c-29.1-15.3-61.7-21-94.2-16.5c-33,4.5-62.9,19.2-86.6,42.5c-2.1,2.1-4.1,4.2-5.9,6.1C88.5,155.1,72,199,72,245.3
		c0,74,37,112.4,66.7,143.2c7.4,7.7,14.2,14.7,19.8,21.6c-5.3,0.2-9.9,3.5-11.9,8.4l-28.3,71.8l-71.8,28.3c-5.1,2-8.4,6.9-8.4,12.4
		c0,5.5,3.3,10.4,8.4,12.4l71.8,28.3l28.3,71.7c2,5.1,6.9,8.4,12.4,8.4s10.4-3.3,12.4-8.4l28.3-71.7l3.6-1.4
		c20.5,25.6,49.3,42.5,82.3,48c0.7,0.1,1.5,0.2,2.2,0.2c3.1,0,6.2-1.1,8.6-3.2c3-2.5,4.7-6.3,4.7-10.2V446
		c0-15.1,12.3-27.5,27.4-27.6c7.5,0,14.4,2.8,19.7,8c5.3,5.2,8.2,12.2,8.2,19.6v159.2c0,3.9,1.7,7.6,4.7,10.2s6.9,3.6,10.8,3
		c34.4-5.7,63.6-23.2,84.4-50.7c20-26.4,30.6-59.5,30.6-95.9v-24.2c0-20.5,15.4-36.5,34.9-56.7C549.5,362,584,326.2,588,260.5
		l23.8-60.3l62.4-24.6c5.1-2,8.4-6.9,8.4-12.4S679.3,152.7,674.2,150.7z M177,556.6l-18,45.7l-18-45.7c-1.4-3.4-4.1-6.2-7.5-7.5
		l-45.7-18l45.7-18c3.4-1.4,6.2-4.1,7.5-7.5l18-45.7l18,45.7c1.4,3.4,4.1,6.2,7.5,7.5l45.7,18l-45.7,18
		C181.1,550.5,178.4,553.2,177,556.6z M229.5,560l42-16.5c1.1-0.4,2-1,2.9-1.6v46.4C257,582.9,241.9,573.3,229.5,560z M502.5,372.4
		c-21.8,22.6-42.3,43.9-42.3,75.2v24.2c0,56.7-30.4,101.6-77.2,116.5V446c0-14.6-5.7-28.3-16.1-38.6c-10.4-10.3-24.2-15.9-38.8-15.7
		c-29.6,0.3-53.8,24.7-53.8,54.3v74.3c-0.9-0.6-1.9-1.2-2.9-1.6l-69.7-27.5c-1-7.1-1.6-14.4-1.6-21.7v-24.2
		c0-31.2-20.6-52.6-42.3-75.2c-27.8-28.8-59.2-61.5-59.2-124.8c0-39.8,14-77.4,39.5-105.9c1.4-1.5,2.9-3.2,4.7-4.9
		c39.6-38.9,99.8-47.5,149.7-21.4c21.9,11.5,56.3,11.5,78.2,0c49.4-25.9,108.8-17.7,148.5,20.2l-44,17.3c-5.1,2-8.4,6.9-8.4,12.4
		s3.3,10.4,8.4,12.4l62.4,24.6l23.6,59.7C557.6,315.2,528.4,345.5,502.5,372.4z M596.6,177.5c-3.4,1.4-6.2,4.1-7.5,7.5l-14.3,36.3
		L560.4,185c-1.4-3.4-4.1-6.2-7.5-7.5l-36.3-14.3l36.3-14.3c3.4-1.4,6.2-4.1,7.5-7.5l14.3-36.3l14.3,36.3c1.4,3.4,4.1,6.2,7.5,7.5
		l36.3,14.3L596.6,177.5z"/>
	
		<linearGradient id="SVGID_00000092419976719784315220000008757410960044482483_" gradientUnits="userSpaceOnUse" x1="41.1719" y1="52.6182" x2="67.8389" y2="52.6182">
		<stop  offset="5.327789e-09" style="stop-color:#EC4E7F"/>
		<stop  offset="1" style="stop-color:#F86B97"/>
	</linearGradient>
	<path style="fill:url(#SVGID_00000092419976719784315220000008757410960044482483_);" d="M54.5,74.6c7.4,0,13.3-6,13.3-13.3V44
		c0-7.4-6-13.3-13.3-13.3s-13.3,6-13.3,13.3v17.2C41.2,68.6,47.1,74.6,54.5,74.6z"/>
	
		<linearGradient id="SVGID_00000067948761211812948630000013291964674558697868_" gradientUnits="userSpaceOnUse" x1="41.1719" y1="117.7344" x2="67.8389" y2="117.7344">
		<stop  offset="5.327789e-09" style="stop-color:#EC4E7F"/>
		<stop  offset="1" style="stop-color:#F86B97"/>
	</linearGradient>
	<path style="fill:url(#SVGID_00000067948761211812948630000013291964674558697868_);" d="M54.5,95.8c-7.4,0-13.3,6-13.3,13.3v17.2
		c0,7.4,6,13.3,13.3,13.3s13.3-6,13.3-13.3v-17.2C67.8,101.8,61.9,95.8,54.5,95.8z"/>
	
		<linearGradient id="SVGID_00000142861569399922476180000017721117494896107179_" gradientUnits="userSpaceOnUse" x1="65.1382" y1="85.1758" x2="109.0093" y2="85.1758">
		<stop  offset="5.327789e-09" style="stop-color:#EC4E7F"/>
		<stop  offset="1" style="stop-color:#F86B97"/>
	</linearGradient>
	<path style="fill:url(#SVGID_00000142861569399922476180000017721117494896107179_);" d="M78.5,98.5h17.2c7.4,0,13.3-6,13.3-13.3
		s-6-13.3-13.3-13.3H78.5c-7.4,0-13.3,6-13.3,13.3S71.1,98.5,78.5,98.5z"/>
	
		<linearGradient id="SVGID_00000079458452880876482950000010928126192901724822_" gradientUnits="userSpaceOnUse" x1="0" y1="85.1758" x2="43.8711" y2="85.1758">
		<stop  offset="5.327789e-09" style="stop-color:#EC4E7F"/>
		<stop  offset="1" style="stop-color:#F86B97"/>
	</linearGradient>
	<path style="fill:url(#SVGID_00000079458452880876482950000010928126192901724822_);" d="M43.9,85.2c0-7.4-6-13.3-13.3-13.3H13.3
		C6,71.8,0,77.8,0,85.2s6,13.3,13.3,13.3h17.2C37.9,98.5,43.9,92.5,43.9,85.2z"/>
	
		<linearGradient id="SVGID_00000031184943660266790840000014328171645508287378_" gradientUnits="userSpaceOnUse" x1="276.3312" y1="308.6586" x2="393.6968" y2="308.6586">
		<stop  offset="5.327789e-09" style="stop-color:#EC4E7F"/>
		<stop  offset="1" style="stop-color:#F86B97"/>
	</linearGradient>
	<path style="fill:url(#SVGID_00000031184943660266790840000014328171645508287378_);" d="M370.9,289.9c-19.8,19.8-52,19.8-71.8,0
		c-5.2-5.2-13.6-5.2-18.9,0c-5.2,5.2-5.2,13.6,0,18.9c15.1,15.1,34.9,22.6,54.8,22.6c19.8,0,39.7-7.5,54.8-22.6
		c5.2-5.2,5.2-13.6,0-18.9C384.6,284.7,376.1,284.7,370.9,289.9z"/>
	
		<linearGradient id="SVGID_00000019679660034438268100000008587828623215961218_" gradientUnits="userSpaceOnUse" x1="364.5928" y1="214.6216" x2="391.2588" y2="214.6216">
		<stop  offset="5.327789e-09" style="stop-color:#EC4E7F"/>
		<stop  offset="1" style="stop-color:#F86B97"/>
	</linearGradient>
	<path style="fill:url(#SVGID_00000019679660034438268100000008587828623215961218_);" d="M377.9,248.8c7.4,0,13.3-6,13.3-13.3
		v-41.7c0-7.4-6-13.3-13.3-13.3s-13.3,6-13.3,13.3v41.7C364.6,242.8,370.6,248.8,377.9,248.8z"/>
	
		<linearGradient id="SVGID_00000108290480956840124980000012316037389723589793_" gradientUnits="userSpaceOnUse" x1="278.7695" y1="214.6216" x2="305.4365" y2="214.6216">
		<stop  offset="5.327789e-09" style="stop-color:#EC4E7F"/>
		<stop  offset="1" style="stop-color:#F86B97"/>
	</linearGradient>
	<path style="fill:url(#SVGID_00000108290480956840124980000012316037389723589793_);" d="M292.1,248.8c7.4,0,13.3-6,13.3-13.3
		v-41.7c0-7.4-6-13.3-13.3-13.3s-13.3,6-13.3,13.3v41.7C278.8,242.8,284.7,248.8,292.1,248.8z"/>
</g>
</svg>
