<?xml version="1.0" encoding="utf-8"?>
<!-- Generator: Adobe Illustrator 28.2.0, SVG Export Plug-In . SVG Version: 6.00 Build 0)  -->
<svg version="1.1" id="Layer_1" xmlns="http://www.w3.org/2000/svg" xmlns:xlink="http://www.w3.org/1999/xlink" x="0px" y="0px"
	 viewBox="0 0 512 512" style="enable-background:new 0 0 512 512;" xml:space="preserve">
<style type="text/css">
	.st0{fill:url(#SVGID_1_);}
	.st1{fill:url(#SVGID_00000149363763571324917520000003642511339420726402_);}
</style>
<g>
	<linearGradient id="SVGID_1_" gradientUnits="userSpaceOnUse" x1="4.5149" y1="195.9051" x2="507.4714" y2="195.9051">
		<stop  offset="5.327789e-09" style="stop-color:#EC4E7F"/>
		<stop  offset="1" style="stop-color:#F86B97"/>
	</linearGradient>
	<path class="st0" d="M496.7,251.8c-6.9-1.1-13.5,3.6-14.7,10.5c-10.8,27.9-43.2,28.4-95.8,13.1c98.1-35.8,111.8-116.8,112.4-120.6
		c2.4-16.5-22.7-20.4-25.3-3.9c-0.5,3.5-15.2,85.5-126.7,109.2c-13.2-5.6-28.8-13.7-44-21.2c105.5-50.3,98.9-143.1,98.8-144.1
		c-0.6-18-28.2-15.4-25.4,2.4c0,0.9,6.2,87.4-105.7,127.6c-12.8-4.8-25.9-8.5-39.3-11.3c41.2-30.4,63.5-80.2,58.6-131.2
		c-1.2-7-7.9-11.6-14.8-10.4c-6.8,1.2-11.5,7.6-10.5,14.5c0.5,3.3,11.2,80.1-74.4,122.5c-13.4-0.3-26.9,0.7-40.2,3
		c20.6-30,27.5-67.3,18.9-102.7c-2-6.8-9.2-10.6-15.9-8.6c-6.8,2-10.6,9.2-8.6,15.9c10.7,47.9-14.1,100.8-60.7,118.3
		c2.8-17.7-12.7-89.8-39.2-71.6c-5.2,4.7-5.8,12.7-1.1,18c0.8,0.9,19.1,23.1,13.7,70.2c-12.9,10.8-69,50-47.3,66.2
		c5.8,4.1,13.8,2.6,17.8-3.1c80.3-101.8,191-99.3,312.1-29.8c74.6,30.6,146.7,46.2,168-18.6C508.3,259.3,503.6,252.9,496.7,251.8
		L496.7,251.8z"/>
	
		<linearGradient id="SVGID_00000160903963445795350060000010090185698587380888_" gradientUnits="userSpaceOnUse" x1="32.9003" y1="350.5749" x2="348.0747" y2="350.5749">
		<stop  offset="5.327789e-09" style="stop-color:#EC4E7F"/>
		<stop  offset="1" style="stop-color:#F86B97"/>
	</linearGradient>
	<path style="fill:url(#SVGID_00000160903963445795350060000010090185698587380888_);" d="M190.5,260.9
		c-84.9,0-151.8,78.1-154.6,81.4c-4,4.8-4,11.7,0,16.5c2.8,3.3,69.6,81.5,154.6,81.5s151.8-78.1,154.6-81.4c4-4.8,4-11.7,0-16.5
		C342.3,338.9,275.4,260.9,190.5,260.9L190.5,260.9z M190.4,414.7c-58.1,0-108.5-45.1-127.3-64.1c19.7-20.2,42.7-36.9,68-49.5
		c-30.6,85.3,96.3,126.2,121.4,39.3c4.3-16.6-21-22.8-24.8-6.1c-13.4,48.9-85.5,31-74.6-18.5c4.2-17.1,19.6-29.2,37.3-29.2
		c57.9,0,108.5,45.1,127.3,64.1C299,369.6,248.5,414.7,190.4,414.7L190.4,414.7z"/>
</g>
</svg>
