<?xml version="1.0" encoding="utf-8"?>
<!-- Generator: Adobe Illustrator 28.1.0, SVG Export Plug-In . SVG Version: 6.00 Build 0)  -->
<svg version="1.1" id="Layer_1" xmlns="http://www.w3.org/2000/svg" xmlns:xlink="http://www.w3.org/1999/xlink" x="0px" y="0px"
	 viewBox="0 0 64 64" style="enable-background:new 0 0 64 64;" xml:space="preserve">
<style type="text/css">
	.st0{fill:#FFFFFF;}
</style>
<path class="st0" d="M38.4,23.5v-1.1h-2.1c-0.6,0-1.1-0.5-1.1-1.1c0-0.6,0.5-1.1,1.1-1.1h2.1v-0.7l-3-4c-0.4-0.5-0.3-1.1,0.2-1.5
	c0.5-0.4,1.1-0.3,1.5,0.2l2.3,3.1l2.3-3.1c0.4-0.5,1-0.6,1.5-0.2c0.5,0.4,0.6,1,0.2,1.5l-3,4v0.7h2.1c0.6,0,1.1,0.5,1.1,1.1
	c0,0.6-0.5,1.1-1.1,1.1h-2.1v1.1h2.1c0.6,0,1.1,0.5,1.1,1.1c0,0.6-0.5,1.1-1.1,1.1h-2.1v1.1c0,0.6-0.5,1.1-1.1,1.1
	c-0.6,0-1.1-0.5-1.1-1.1v-1.1h-2.1c-0.6,0-1.1-0.5-1.1-1.1c0-0.6,0.5-1.1,1.1-1.1H38.4z M51.1,47.9h2.1v-4.2h-2.1V47.9z M16.1,47.9
	h2.1v-4.2h-2.1V47.9z M12.9,47.9H15v-4.2h-2.1V47.9z M9.7,47.9h2.1v-4.2H9.7V47.9z M6.5,47.9h2.1v-4.2H6.5V47.9z M30.9,47.9h2.1
	v-4.2h-2.1V47.9z M27.8,47.9h2.1v-4.2h-2.1V47.9z M24.6,47.9h2.1v-4.2h-2.1V47.9z M21.4,47.9h2.1v-4.2h-2.1V47.9z M45.8,47.9h2.1
	v-4.2h-2.1V47.9z M42.6,47.9h2.1v-4.2h-2.1V47.9z M39.4,47.9h2.1v-4.2h-2.1V47.9z M36.2,47.9h2.1v-4.2h-2.1V47.9z M18.2,24.6v2.1
	v2.1v5.3c0,0.6-0.5,1.1-1.1,1.1H7.6c-0.6,0-1.1-0.5-1.1-1.1V32v-2.1v-1.1v-2.1v-2.1c0-0.6,0.5-1.1,1.1-1.1h5.3H15h2.1
	C17.7,23.5,18.2,24,18.2,24.6z M8.7,26.7h1.1v-1.1H8.7V26.7z M8.7,29.9h1.1v-1.1H8.7V29.9z M8.7,33.1h1.1V32H8.7V33.1z M16.1,33.1
	V32H14c-0.6,0-1.1-0.5-1.1-1.1v-2.1v-2.1v-1.1h-1.1v1.1v2.1v1.1V32v1.1H16.1z M16.1,28.8H15v1.1h1.1V28.8z M16.1,26.7v-1.1H15v1.1
	H16.1z M63.8,18.2v26.5c0,2.6-1.7,4.7-4.2,5.2V50c0,2.9-2.4,5.3-5.3,5.3H5.5c-2.9,0-5.3-2.4-5.3-5.3V22.5c0-2.9,2.4-5.3,5.3-5.3H6
	c0.4-2.5,2.3-4.2,4.8-4.2h19.6c2.1-2.6,5.4-4.2,9-4.2s6.9,1.7,9,4.2h10.1C61.4,12.9,63.8,15.3,63.8,18.2z M59.6,30.9h2.1v-5.3h-2.1
	V30.9z M49.8,15c0.3,0.7,0.6,1.4,0.8,2.1h3.6c2.9,0,5.3,2.4,5.3,5.3v1.1h2.1v-5.3c0-1.8-1.4-3.2-3.2-3.2H49.8z M29.9,20.3
	c0,5.3,4.3,9.5,9.5,9.5s9.5-4.3,9.5-9.5s-4.3-9.5-9.5-9.5S29.9,15.1,29.9,20.3z M8.2,17.1h20c0.2-0.7,0.5-1.4,0.8-2.1H10.8
	C9.3,15,8.5,16,8.2,17.1z M57.5,22.5c0-1.8-1.4-3.2-3.2-3.2H51c0,0.3,0.1,0.7,0.1,1.1c0,6.4-5.2,11.7-11.7,11.7s-11.7-5.2-11.7-11.7
	c0-0.4,0-0.7,0.1-1.1H5.5c-1.8,0-3.2,1.4-3.2,3.2V50c0,1.8,1.4,3.2,3.2,3.2h48.8c1.8,0,3.2-1.4,3.2-3.2V22.5z M61.7,44.7V33.1h-2.1
	v14.7C61,47.4,61.7,46.2,61.7,44.7z"/>
</svg>
