<?xml version="1.0" encoding="utf-8"?>
<!-- Generator: Adobe Illustrator 28.1.0, SVG Export Plug-In . SVG Version: 6.00 Build 0)  -->
<svg version="1.1" id="Capa_1" xmlns="http://www.w3.org/2000/svg" xmlns:xlink="http://www.w3.org/1999/xlink" x="0px" y="0px"
	 viewBox="0 0 512 512" style="enable-background:new 0 0 512 512;" xml:space="preserve">
<style type="text/css">
	.st0{fill:#FFFFFF;}
	.st1{fill-rule:evenodd;clip-rule:evenodd;fill:#FFFFFF;}
</style>
<g>
	<g id="Page-1_23_">
		<g id="_x30_24---Giving-Pills">
			<path id="Shape_84_" class="st0" d="M41,494.9h39.8c6.8,0,13.2-2.9,17.7-8h199.7c11.7,0,23.1-3.2,33.1-9.3l149.2-90.9
				c7.1-4.3,12-11.3,13.7-19.3c1.7-8.1,0-16.5-4.8-23.2c-0.2-0.3-0.4-0.5-0.6-0.8c-7.7-10.2-21.1-14.4-33.2-10.4l-147.5,49.1
				c-2.4,0.8-5,1.2-7.5,1.2h-4.5c3.8-10.4,2.7-21.9-3-31.4l-0.7-1.2c-8.7-14.4-24.2-23.2-41-23.2h-41.7c-14.7,0-28.9-5-40.4-14.2
				c-14.3-11.4-32.1-17.6-50.4-17.7h-15.8c-3.4-9.5-12.3-15.9-22.4-15.9H41c-13.2,0-23.9,10.7-23.9,23.9V471
				C17.1,484.2,27.8,494.9,41,494.9L41,494.9z M104.7,311.7H119c14.7,0,28.9,5,40.4,14.2c14.3,11.4,32.1,17.6,50.4,17.7h41.7
				c11.2,0,21.5,5.9,27.3,15.5l0.7,1.2c4.3,7.2,3.9,16.4-1.2,23.2h-48.4c-15.7,0-31.1,4.7-44.2,13.4l-5.8,3.9
				c-3.7,2.5-4.6,7.4-2.2,11.1c2.5,3.7,7.4,4.6,11.1,2.2l5.8-3.9c10.5-7,22.8-10.7,35.3-10.7h70.8c4.3,0,8.6-0.7,12.6-2.1
				l147.4-49.1c5.5-1.8,11.5-0.1,15.1,4.4c0.1,0.2,0.3,0.4,0.4,0.6c2.3,3.1,3.3,7.1,2.5,10.9c-0.7,3.8-3.1,7.2-6.4,9.2L323,464.1
				c-7.5,4.6-16.1,7-24.8,7H104.7L104.7,311.7z M33,303.8c0-4.4,3.6-8,8-8h39.8c4.4,0,8,3.6,8,8V471c0,4.4-3.6,8-8,8H41
				c-4.4,0-8-3.6-8-8L33,303.8z"/>
			<path id="Shape_83_" class="st0" d="M256,48.9c-13.2,0-23.9,10.7-23.9,23.9s10.7,23.9,23.9,23.9c13.2,0,23.9-10.7,23.9-23.9
				S269.2,48.9,256,48.9z M256,80.8c-4.4,0-8-3.6-8-8c0-4.4,3.6-8,8-8c4.4,0,8,3.6,8,8C264,77.2,260.4,80.8,256,80.8L256,80.8z"/>
			<path id="Shape_82_" class="st0" d="M256,104.7c-13.2,0-23.9,10.7-23.9,23.9s10.7,23.9,23.9,23.9c13.2,0,23.9-10.7,23.9-23.9
				S269.2,104.7,256,104.7z M256,136.5c-4.4,0-8-3.6-8-8c0-4.4,3.6-8,8-8c4.4,0,8,3.6,8,8C264,133,260.4,136.5,256,136.5L256,136.5z
				"/>
			<path id="Shape_81_" class="st0" d="M256,160.4c-13.2,0-23.9,10.7-23.9,23.9s10.7,23.9,23.9,23.9c13.2,0,23.9-10.7,23.9-23.9
				S269.2,160.4,256,160.4z M256,192.3c-4.4,0-8-3.6-8-8c0-4.4,3.6-8,8-8c4.4,0,8,3.6,8,8C264,188.7,260.4,192.3,256,192.3
				L256,192.3z"/>
			<path id="Shape_80_" class="st0" d="M256,216.2c-13.2,0-23.9,10.7-23.9,23.9S242.8,264,256,264c13.2,0,23.9-10.7,23.9-23.9
				S269.2,216.2,256,216.2L256,216.2z M256,248c-4.4,0-8-3.6-8-8c0-4.4,3.6-8,8-8c4.4,0,8,3.6,8,8S260.4,248,256,248L256,248z"/>
			<path id="Shape_79_" class="st0" d="M351.6,96.7c13.2,0,23.9-10.7,23.9-23.9s-10.7-23.9-23.9-23.9c-13.2,0-23.9,10.7-23.9,23.9
				S338.4,96.7,351.6,96.7z M351.6,64.9c4.4,0,8,3.6,8,8s-3.6,8-8,8c-4.4,0-8-3.6-8-8C343.6,68.4,347.2,64.9,351.6,64.9z"/>
			<path id="Shape_78_" class="st0" d="M351.6,152.5c13.2,0,23.9-10.7,23.9-23.9s-10.7-23.9-23.9-23.9c-13.2,0-23.9,10.7-23.9,23.9
				S338.4,152.5,351.6,152.5z M351.6,120.6c4.4,0,8,3.6,8,8c0,4.4-3.6,8-8,8c-4.4,0-8-3.6-8-8C343.6,124.2,347.2,120.6,351.6,120.6z
				"/>
			<path id="Shape_77_" class="st0" d="M407.3,137.9v-89c0-17.6-14.3-31.9-31.9-31.9h-47.8c-9.1,0-17.9,3.9-23.9,10.8
				c-6-6.9-14.7-10.8-23.9-10.8h-47.8c-17.6,0-31.9,14.3-31.9,31.9v215c0,17.6,14.3,31.9,31.9,31.9h47.8c0.8,0,1.5-0.2,2.3-0.2
				c6.5,25.7,26.2,46,51.7,53.1c25.5,7.1,52.9-0.1,71.7-18.8l67.7-67.5c22.9-22.9,28.2-58,13.1-86.6
				C471.2,147.1,439.1,131.8,407.3,137.9L407.3,137.9z M280,279.9h-47.9c-8.8,0-15.9-7.1-15.9-15.9v-215c0-8.8,7.1-15.9,15.9-15.9
				h47.8c8.8,0,15.9,7.1,15.9,15.9c0,4.4,3.6,8,8,8c4.4,0,8-3.6,8-8c0-8.8,7.1-15.9,15.9-15.9h47.8c8.8,0,15.9,7.1,15.9,15.9v94
				c-8.3,3.6-15.8,8.8-22.2,15.1L335.2,192l-23.5,23.4V80.8c0-4.4-3.6-8-8-8s-8,3.6-8,8V232c-10.3,13-16,29.1-15.9,45.7
				C279.9,278.5,280,279.2,280,279.9L280,279.9z M394.4,318.6c-14.5,15.1-36,21.2-56.3,15.9c-20.3-5.3-36.1-21.1-41.3-41.4
				c-5.3-20.3,0.9-41.8,16-56.2l28.1-28l81.8,81.5L394.4,318.6z M462,251.1l-28.1,28l-81.8-81.6l28.3-28.2
				c14.6-14.8,35.9-20.6,56-15.3c20.1,5.3,35.7,21,41,41.1C482.7,215.2,476.8,236.6,462,251.1L462,251.1z"/>
			<path id="Path_72_" class="st1" d="M327.7,277.7c0-6.9,2.7-13.5,7.6-18.3c2-2,2.8-4.9,2.1-7.7c-0.7-2.7-2.9-4.9-5.6-5.6
				c-2.7-0.7-5.7,0-7.7,2.1c-7.9,7.8-12.3,18.5-12.3,29.6c0,11.1,4.4,21.8,12.3,29.6c2,2.1,5,2.9,7.7,2.2s5-2.9,5.7-5.7
				c0.7-2.8-0.1-5.7-2.2-7.7C330.4,291.2,327.6,284.6,327.7,277.7L327.7,277.7z"/>
		</g>
	</g>
</g>
</svg>
