<?xml version="1.0" encoding="utf-8"?>
<!-- Generator: Adobe Illustrator 28.3.0, SVG Export Plug-In . SVG Version: 6.00 Build 0)  -->
<svg version="1.1" id="fe6f7196-7356-4aae-8fe1-ea005662aa78"
	 xmlns="http://www.w3.org/2000/svg" xmlns:xlink="http://www.w3.org/1999/xlink" x="0px" y="0px" viewBox="0 0 24 24"
	 style="enable-background:new 0 0 24 24;" xml:space="preserve">
<style type="text/css">
	.st0{fill:#F56592;}
</style>
<g id="e7afcd97-3e01-419a-af16-f294a0adbf56">
	<g>
		<path class="st0" d="M12,1C5.9,1,1,5.9,1,12s4.9,11,11,11s11-4.9,11-11S18.1,1,12,1z M12,21c-5,0-9-4-9-9s4-9,9-9s9,4,9,9
			S17,21,12,21L12,21z"/>
		<path class="st0" d="M17,12.1L17,12.1c0-0.2,0-0.3-0.1-0.4l0,0c0-0.1-0.1-0.2-0.2-0.3l-3-3c-0.4-0.4-1-0.4-1.4,0s-0.4,1,0,1.4
			l1.3,1.2H8c-0.6,0-1,0.4-1,1s0.4,1,1,1h5.6l-1.3,1.3c-0.4,0.4-0.4,1,0,1.4c0,0,0,0,0,0c0.4,0.4,1,0.4,1.4,0c0,0,0,0,0,0l3-3
			c0.1-0.1,0.1-0.2,0.2-0.3c0,0,0-0.1,0-0.1C16.9,12.2,17,12.1,17,12.1z"/>
	</g>
</g>
</svg>
