<?xml version="1.0" encoding="utf-8"?>
<!-- Generator: Adobe Illustrator 28.1.0, SVG Export Plug-In . SVG Version: 6.00 Build 0)  -->
<svg version="1.1" id="svg3201" xmlns:svg="http://www.w3.org/2000/svg"
	 xmlns="http://www.w3.org/2000/svg" xmlns:xlink="http://www.w3.org/1999/xlink" x="0px" y="0px" viewBox="0 0 682.7 682.7"
	 style="enable-background:new 0 0 682.7 682.7;" xml:space="preserve">
<style type="text/css">
	.st0{fill:#FFFFFF;}
</style>
<g>
	<path class="st0" d="M548,561.8c3.7-8,5.5-16.4,5.5-25.3v-8.1c1.6-1.5,3.2-3,4.8-4.6c58-58,89.9-135,89.9-217
		c0-82-31.9-159-89.9-217c-44.6-44.6-100.8-74-162.6-85C377.7,1.6,359.3,0,341.1,0c-42.6,0-84,8.7-123.1,25.9
		c-7.7,3.4-11.2,12.4-7.8,20.1c2.4,5.5,7.9,9.1,14,9.1c2.1,0,4.2-0.4,6.1-1.3c24.9-10.9,51.1-18.2,77.8-21.5
		c0.6,1.7,1.3,3.1,1.8,4.2c0.9,2,1.1,2.6,1.1,3c0,0.7,0,0.7-1.8,3.1c-3.6,4.7-12,15.7-2.5,33.1c9.9,18.1,28.2,24.8,41.6,29.7
		c3.5,1.3,8.9,3.3,11.6,4.8c-0.1,0.3-0.2,0.7-0.4,1.1c-3.6,8.6-3.9,16.4-4.1,22.7c-0.1,3.5-0.3,7.4-1.1,8.4
		c-0.5,0.6-3.7,3.7-18.2,5.9c-11.7,1.8-20.8,10-25.7,23c-4.1,10.9-6.2,30.5,1.7,39.8c6,7,13.2,10.5,22,10.5c2.7,0,5.1-0.3,7-0.5
		c1.4-0.2,2.8-0.4,4.1-0.4c4.2,0,8.6,1.8,16.6,10.6c8.5,9.4,18.4,13.9,30.2,13.9c2.5,0,4.7-0.2,6.6-0.3c0.8-0.1,1.7-0.1,2.5-0.2
		c7.4,16.6,15,24.2,20.6,29.8c5.8,5.8,8,8,8,25.1c0,16.2,9.8,28.4,24.4,30.3c1.3,0.2,2.6,0.3,3.9,0.3c16.9,0,37.6-13.8,45.9-44.8
		c1.3-4.7,2.6-7.3,3.5-8.6c1.7,1.3,5.1,4.5,9.5,11.8c12.1,20.6,23.8,31.3,36.8,33.9c1.9,0.4,3.9,0.6,5.8,0.6
		c10.9,0,19.2-6.1,24.2-10c4.6,3,9.6,4.5,14.9,4.5c7.3,0,13.9-2.8,18.8-5.2c-1.3,65.7-25.7,128.4-69,177.4
		c-9.6-22-31.5-36.6-55.7-36.6c-33.5,0-60.7,27.2-60.7,60.7v22.7c0,8.8,1.9,17.3,5.5,25.3c-3.4,2.4-6.6,5.1-9.6,7.9
		c-7.1-9.6-15.7-17.9-25.6-24.7c4.7-9.4,7.1-19.8,7.1-30.4v-26.5c0-37.6-30.6-68.3-68.3-68.3c-37.6,0-68.3,30.6-68.3,68.3v26.5
		c0,10.5,2.5,21,7.1,30.3c-9.8,6.8-18.4,15.1-25.6,24.7c-3-2.9-6.3-5.5-9.6-7.9c3.7-8,5.5-16.5,5.5-25.3v-22.7
		c0-33.5-27.2-60.7-60.7-60.7c-24.2,0-46.1,14.6-55.7,36.6C97.2,448,73.9,397,66.9,341.9c9.5-1.3,16.3-4.1,21.4-6.3
		c3.1-1.3,4.9-2.1,6.1-2.1c1,0,2,0.8,4.6,2.9c1.4,1.2,3.7,3.7,5.9,6.1c8.6,9.3,20.3,22.1,36.3,22.1c0.8,0,1.7,0,2.5-0.1
		c10.8-0.9,20.3-7.6,28.2-19.8c9.4-14.6,1.3-30.8-5.2-43.9c-2-4-8.1-16.3-7-18.8c0.3-0.5,2.2-2.1,7.1-3.7c1.6,1.5,3.8,3.9,5.4,5.6
		c7.6,8.4,18.1,20,34.4,20.5c0.8,0,1.8,0,2.8,0c11.7,0,33-2.2,44.1-17.1c4.8-6.4,9.3-17.5,3.8-33.8c-8.3-24.7-27-35.4-48.7-45.9
		c-4.4-2.1-10.1-4-16.2-5.9c-5.6-1.8-18.5-6-22.2-8.9c-5-17-9.3-26.1-15.2-32.1c-8.1-8.4-17.6-8.7-23.9-9c-4.7-0.2-9.5-0.4-16.4-3.2
		c7.3-10.3,15.3-20.3,23.9-29.6c5.7-6.2,5.4-15.8-0.8-21.5c-2.8-2.6-6.5-4.1-10.4-4.1c-4.2,0-8.3,1.8-11.2,4.9
		c-54.1,58.3-83.1,134.3-81.7,214c1.4,79.9,33.3,155,89.8,211.5c1.5,1.5,3.1,3.1,4.8,4.7v8c0,8.8,1.9,17.3,5.5,25.3
		c-10,7.2-18.4,16.1-24.9,26.4c-9.6,15.1-14.7,32.6-14.7,50.5v28.6c0,8.4,6.8,15.2,15.2,15.2h462c8.4,0,15.2-6.8,15.2-15.2v-28.6
		C587.6,608.2,572.8,579.5,548,561.8z M523,536.5c0,16.7-13.5,30.2-30.2,30.2c-16.7,0-30.2-13.5-30.2-30.2v-22.7
		c0-16.7,13.5-30.2,30.2-30.2c16.7,0,30.2,13.5,30.2,30.2V536.5z M528.6,585.5c17.9,12,28.5,31.8,28.5,53.3v13.3H449.4V634
		c0-12.3-2.1-24.4-6.2-35.9c4-4.9,8.6-9.1,13.8-12.6c10.5,7.7,22.8,11.7,35.8,11.7C505.8,597.2,518.2,593.2,528.6,585.5z M460.2,299
		c-0.1-27.2-6.8-36-17-46.2c-5-5-10.1-10.1-15.7-23.8c-0.5-1.2-1.2-2.4-2-3.5c-5.8-7.7-13.6-11.4-23.7-11.4c-2.2,0-4.1,0.2-5.8,0.3
		c-1.6,0.1-3,0.2-4.2,0.2c-2.9,0-4.6-0.6-7.6-3.9c-16.7-18.5-30.2-20.7-38.9-20.7c-2.5,0-5,0.2-8.2,0.6c0.2-3.6,1-8.6,3-11.6
		c0.3-0.5,0.6-0.7,0.7-0.8c40.1-6.3,44.2-24.8,44.9-43.2c0.2-4.6,0.3-8.6,1.8-12.1c3.9-9.2,4.2-17.7,0.9-25.1
		C383,85.5,370.7,81,358.7,76.7c-10.3-3.7-20.9-7.6-25.3-15.6c0,0,0,0,0,0c3.1-4,8.2-10.8,8-22.1c-0.1-3.5-0.7-6.4-1.4-8.7
		c0.6,0,1.3,0,1.9,0c73.2,0,142.4,28.9,194.9,81.3c45,45,73.2,104.5,79.4,167.9c-3.8,1.3-7.1,3-9.9,4.5c-1.3,0.7-5,2.6-6.7,3.1
		c-4.3-4.3-9.5-6.5-15.2-6.5c-2.4,0-4.8,0.4-7.2,1.2c-4.6,1.6-8.1,4.3-11.6,6.9c-1.5,1.2-5.1,3.9-6.2,4c-0.7-0.2-6.4-2.5-16.3-19.4
		c-13.5-22.9-27.3-27.7-36.5-27.7c-1.2,0-2.5,0.1-3.7,0.2c-7.7,1.1-21.7,6.6-28.5,31.7C470.7,291.7,463.8,297.3,460.2,299z
		 M270.1,603.3c0.3-0.6,0.7-1.3,0.9-2.1c6.2-13.3,16.1-24.5,28.6-32.5c11.9,9.2,26.6,14.3,41.7,14.3s29.8-5.1,41.7-14.3
		c12.5,8,22.4,19.2,28.6,32.5c0.3,0.7,0.6,1.4,0.9,2c4.2,9.7,6.3,20.1,6.3,30.7v18.1H263.8V634C263.8,623.4,265.9,613,270.1,603.3z
		 M379.1,514.7c0,20.8-16.9,37.8-37.8,37.8s-37.8-16.9-37.8-37.8v-26.5c0-20.8,16.9-37.8,37.8-37.8s37.8,16.9,37.8,37.8V514.7z
		 M182.9,230.9c4.8,1.6,9.8,3.2,12.3,4.4c22.1,10.7,29.2,16.7,33.1,28.1c1.2,3.4,1,5.4,0.6,6c-1.4,1.9-7.9,4.8-19.4,4.8
		c-0.7,0-1.4,0-2.1,0c-3.4-0.1-8.8-6.1-12.8-10.5c-6.2-6.9-14.8-16.3-26.7-16.3c-2,0-4,0.3-6.1,0.8c-15.5,4-25.3,11-30,21.4
		c-7.2,15.7,0.9,32,7.5,45.1c1.9,3.9,5.8,11.7,6.2,14.7c-2.5,3.7-4.2,4.7-4.6,5c-1.1-0.2-4.4-2.1-13.7-12.2c-3.1-3.3-5.9-6.5-9-9
		c-8.2-6.8-16.1-10.1-24.1-10.1c-6.9,0-12.7,2.4-17.8,4.5c-3.6,1.5-7.2,3-11.8,3.9c-0.8-47.7,10.9-94.9,33.8-136.7
		c14.2,6.9,24.5,7.3,31.5,7.6c1,0,2.6,0.1,3.6,0.2c0.9,1.3,3.6,5.9,7.8,20.4C145.9,218.9,165.6,225.3,182.9,230.9z M220.1,536.5
		c0,16.7-13.5,30.2-30.2,30.2c-16.7,0-30.2-13.5-30.2-30.2v-22.7c0-16.7,13.5-30.2,30.2-30.2c16.7,0,30.2,13.5,30.2,30.2V536.5z
		 M225.7,585.5c5.2,3.5,9.9,7.7,13.8,12.6c-4.1,11.6-6.2,23.6-6.2,35.9v18.1H125.6v-13.3c0-21.5,10.6-41.3,28.5-53.3
		c10.5,7.7,22.8,11.7,35.8,11.7C202.9,597.2,215.2,593.2,225.7,585.5z"/>
	<path class="st0" d="M172.2,84.5c8.4,0,15.2-6.8,15.2-15.2s-6.8-15.2-15.3-15.2c-8.4,0-15.2,6.8-15.2,15.2S163.8,84.5,172.2,84.5z"
		/>
</g>
</svg>
