<?xml version="1.0" encoding="UTF-8"?>
<svg xmlns="http://www.w3.org/2000/svg" version="1.1" xmlns:xlink="http://www.w3.org/1999/xlink" viewBox="0 0 471.7 391.3">
  <defs>
    <style>
      .cls-1 {
        fill: #916a66;
      }

      .cls-2 {
        fill: #a7817f;
      }

      .cls-3 {
        fill: #ffe5dd;
      }

      .cls-4 {
        fill: #d2751a;
      }

      .cls-4, .cls-5, .cls-6 {
        fill-rule: evenodd;
      }

      .cls-7 {
        fill: #773320;
      }

      .cls-8 {
        mask: url(#mask-5);
      }

      .cls-9 {
        fill: #fff9f0;
      }

      .cls-10 {
        fill: #45201f;
      }

      .cls-11 {
        fill: url(#_裼隯澵_胙琅韃炅_1-3);
      }

      .cls-11, .cls-12, .cls-13 {
        mix-blend-mode: multiply;
      }

      .cls-14 {
        mask: url(#mask-1);
      }

      .cls-15 {
        fill: #e36439;
      }

      .cls-16 {
        fill: #412621;
      }

      .cls-12 {
        fill: url(#_裼隯澵_胙琅韃炅_1);
      }

      .cls-17 {
        fill: #432725;
      }

      .cls-18 {
        fill: #9b452c;
      }

      .cls-19 {
        fill: #9d2e1d;
      }

      .cls-20 {
        filter: url(#luminosity-noclip-5);
      }

      .cls-21, .cls-22, .cls-23, .cls-24 {
        fill: #fff;
      }

      .cls-25 {
        mask: url(#mask);
      }

      .cls-26 {
        fill: #351e1c;
      }

      .cls-27 {
        fill: #e2dace;
      }

      .cls-22 {
        opacity: .5;
      }

      .cls-28 {
        fill: #ff814c;
      }

      .cls-29 {
        fill: none;
      }

      .cls-30 {
        fill: #6063a3;
      }

      .cls-5, .cls-31 {
        fill: #fa8921;
      }

      .cls-32 {
        fill: #ceb4ae;
      }

      .cls-33 {
        fill: #ceb2ae;
      }

      .cls-13 {
        fill: url(#_裼隯澵_胙琅韃炅_1-2);
      }

      .cls-34 {
        mask: url(#mask-2);
      }

      .cls-35 {
        filter: url(#luminosity-noclip-3);
      }

      .cls-36 {
        fill: #cac1b7;
      }

      .cls-37 {
        fill: #79853d;
      }

      .cls-38 {
        fill: #f35733;
      }

      .cls-39 {
        fill: #e5c9c2;
      }

      .cls-40 {
        fill: url(#_裼隯澵_胙琅韃炅_8-2);
      }

      .cls-40, .cls-41, .cls-42 {
        opacity: .8;
      }

      .cls-43 {
        fill: #7e5650;
      }

      .cls-41 {
        fill: url(#_裼隯澵_胙琅韃炅_8-3);
      }

      .cls-44 {
        fill: #c08d82;
      }

      .cls-45 {
        opacity: .2;
      }

      .cls-46 {
        fill: #f4d8d0;
      }

      .cls-23 {
        opacity: .4;
      }

      .cls-6 {
        fill: #e0c6c2;
      }

      .cls-47 {
        fill: #301413;
      }

      .cls-48 {
        fill: #3b4371;
      }

      .cls-24 {
        opacity: .6;
      }

      .cls-49 {
        mask: url(#mask-4);
      }

      .cls-42 {
        fill: url(#_裼隯澵_胙琅韃炅_8);
      }

      .cls-50 {
        fill: #605f2a;
      }

      .cls-51 {
        fill: #33375f;
      }

      .cls-52 {
        fill: #f26e4b;
      }

      .cls-53 {
        clip-path: url(#clippath);
      }

      .cls-54 {
        fill: #ffa13b;
      }

      .cls-55 {
        mask: url(#mask-3);
      }

      .cls-56 {
        filter: url(#luminosity-noclip);
      }
    </style>
    <clipPath id="clippath">
      <path class="cls-29" d="M385,148.3c-41-12.5-76.4-30-116.4-78.9-40.1-48.8-147.7-33.8-179,39.4-31.3,73.2-8.8,140.8,28.8,153.4,37.6,12.5,53.7,24.8,74.4,72.8,16.6,38.5,109.1,57.1,137.8,19.9,52.4-68,53.9-41.4,78.9-92.1,25-50.7,17.7-101.8-24.4-114.6Z"/>
    </clipPath>
    <filter id="luminosity-noclip" x="58.9" y="73.8" width="92.4" height="92.4" color-interpolation-filters="sRGB" filterUnits="userSpaceOnUse">
      <feFlood flood-color="#fff" result="bg"/>
      <feBlend in="SourceGraphic" in2="bg"/>
    </filter>
    <filter id="luminosity-noclip-2" x="58.9" y="-8388" width="92.4" height="32766" color-interpolation-filters="sRGB" filterUnits="userSpaceOnUse">
      <feFlood flood-color="#fff" result="bg"/>
      <feBlend in="SourceGraphic" in2="bg"/>
    </filter>
    <mask id="mask-1" x="58.9" y="-8388" width="92.4" height="32766" maskUnits="userSpaceOnUse"/>
    <radialGradient id="_裼隯澵_胙琅韃炅_1" data-name="ﾁ裼隯澵隆 胙琅韃炅 1" cx="105.1" cy="120" fx="105.1" fy="120" r="44.7" gradientTransform="translate(17.9 -13.6) rotate(8.1)" gradientUnits="userSpaceOnUse">
      <stop offset="0" stop-color="#fff"/>
      <stop offset=".4" stop-color="#898989"/>
      <stop offset=".8" stop-color="#262626"/>
      <stop offset="1" stop-color="#000"/>
    </radialGradient>
    <mask id="mask" x="58.9" y="73.8" width="92.4" height="92.4" maskUnits="userSpaceOnUse">
      <g class="cls-56">
        <g class="cls-14">
          <circle class="cls-12" cx="105.1" cy="120" r="46.2" transform="translate(-15.9 16) rotate(-8.1)"/>
        </g>
      </g>
    </mask>
    <radialGradient id="_裼隯澵_胙琅韃炅_8" data-name="ﾁ裼隯澵隆 胙琅韃炅 8" cx="105.1" cy="120" fx="105.1" fy="120" r="44.7" gradientTransform="translate(17.9 -13.6) rotate(8.1)" gradientUnits="userSpaceOnUse">
      <stop offset="0" stop-color="#ffa13b"/>
      <stop offset="1" stop-color="#ffa13b"/>
    </radialGradient>
    <filter id="luminosity-noclip-3" x="172.6" y="-2.8" width="92.4" height="92.4" color-interpolation-filters="sRGB" filterUnits="userSpaceOnUse">
      <feFlood flood-color="#fff" result="bg"/>
      <feBlend in="SourceGraphic" in2="bg"/>
    </filter>
    <filter id="luminosity-noclip-4" x="172.6" y="-8388" width="92.4" height="32766" color-interpolation-filters="sRGB" filterUnits="userSpaceOnUse">
      <feFlood flood-color="#fff" result="bg"/>
      <feBlend in="SourceGraphic" in2="bg"/>
    </filter>
    <mask id="mask-3" x="172.6" y="-8388" width="92.4" height="32766" maskUnits="userSpaceOnUse"/>
    <radialGradient id="_裼隯澵_胙琅韃炅_1-2" data-name="ﾁ裼隯澵隆 胙琅韃炅 1" cx="218.8" cy="43.4" fx="218.8" fy="43.4" r="44.7" gradientTransform="translate(257.8 -176.2) rotate(88.9)" xlink:href="#_裼隯澵_胙琅韃炅_1"/>
    <mask id="mask-2" x="172.6" y="-2.8" width="92.4" height="92.4" maskUnits="userSpaceOnUse">
      <g class="cls-35">
        <g class="cls-55">
          <circle class="cls-13" cx="218.8" cy="43.4" r="46.2" transform="translate(171 261.3) rotate(-88.9)"/>
        </g>
      </g>
    </mask>
    <radialGradient id="_裼隯澵_胙琅韃炅_8-2" data-name="ﾁ裼隯澵隆 胙琅韃炅 8" cx="218.8" cy="43.4" fx="218.8" fy="43.4" r="44.7" gradientTransform="translate(257.8 -176.2) rotate(88.9)" xlink:href="#_裼隯澵_胙琅韃炅_8"/>
    <filter id="luminosity-noclip-5" x="310.7" y="69.5" width="92.4" height="92.4" color-interpolation-filters="sRGB" filterUnits="userSpaceOnUse">
      <feFlood flood-color="#fff" result="bg"/>
      <feBlend in="SourceGraphic" in2="bg"/>
    </filter>
    <filter id="luminosity-noclip-6" x="310.7" y="-8388" width="92.4" height="32766" color-interpolation-filters="sRGB" filterUnits="userSpaceOnUse">
      <feFlood flood-color="#fff" result="bg"/>
      <feBlend in="SourceGraphic" in2="bg"/>
    </filter>
    <mask id="mask-5" x="310.7" y="-8388" width="92.4" height="32766" maskUnits="userSpaceOnUse"/>
    <radialGradient id="_裼隯澵_胙琅韃炅_1-3" data-name="ﾁ裼隯澵隆 胙琅韃炅 1" cx="356.9" cy="115.7" fx="356.9" fy="115.7" r="44.7" gradientTransform="matrix(1,0,0,1,0,0)" xlink:href="#_裼隯澵_胙琅韃炅_1"/>
    <mask id="mask-4" x="310.7" y="69.5" width="92.4" height="92.4" maskUnits="userSpaceOnUse">
      <g class="cls-20">
        <g class="cls-8">
          <path class="cls-11" d="M403.1,115.7c0,25.5-20.7,46.2-46.2,46.2s-46.2-20.7-46.2-46.2,20.7-46.2,46.2-46.2,46.2,20.7,46.2,46.2Z"/>
        </g>
      </g>
    </mask>
    <radialGradient id="_裼隯澵_胙琅韃炅_8-3" data-name="ﾁ裼隯澵隆 胙琅韃炅 8" cx="356.9" cy="115.7" fx="356.9" fy="115.7" r="44.7" gradientTransform="matrix(1,0,0,1,0,0)" xlink:href="#_裼隯澵_胙琅韃炅_8"/>
  </defs>
  <!-- Generator: Adobe Illustrator 28.7.1, SVG Export Plug-In . SVG Version: 1.2.0 Build 142)  -->
  <g>
    <g id="_レイヤー_1" data-name="レイヤー_1">
      <g>
        <g>
          <path class="cls-3" d="M385,148.3c-41-12.5-76.4-30-116.4-78.9-40.1-48.8-147.7-33.8-179,39.4-31.3,73.2-8.8,140.8,28.8,153.4,37.6,12.5,53.7,24.8,74.4,72.8,16.6,38.5,109.1,57.1,137.8,19.9,52.4-68,53.9-41.4,78.9-92.1,25-50.7,17.7-101.8-24.4-114.6Z"/>
          <path class="cls-3" d="M355.1,74.1c-28.7-30.7-39.6-39.8-70.2-32.3-30.6,7.5,20.9,59.5,72.7,84.3,51.7,24.8,32.7-14.4-2.5-52Z"/>
          <g class="cls-53">
            <g>
              <g>
                <polygon class="cls-39" points="29.6 107.4 29.6 94 51.9 94 51.9 30 58 30 58 94 81.9 94 81.9 107.4 94.7 107.4 94.7 375.9 2.3 375.9 2.3 107.4 29.6 107.4"/>
                <rect class="cls-32" x="2.3" y="107.4" width="12.8" height="241.5" transform="translate(17.4 456.4) rotate(180)"/>
              </g>
              <g>
                <rect class="cls-39" x="48.5" y="171.4" width="92.5" height="204.5" transform="translate(189.5 547.3) rotate(180)"/>
                <rect class="cls-32" x="48.5" y="171.4" width="12.8" height="204.5" transform="translate(109.8 547.3) rotate(180)"/>
              </g>
              <path class="cls-32" d="M66.7,377.1c-3.8-1.8-.8-6.7,2.2-5.9-.2-2,0-4,.7-6.2.1-.5.7-.8,1.2-.7,4.2,1.4,8,3.2,11.6,5.5.2-1.9,1.6-3.7,3.8-4.3,3.8-1.2,6.7,1.9,8.8,4.9.3-.7.6-1.3,1-2,.2-.4.9-.6,1.3-.3.3.2.6.4.9.7-1.4-4.1-2.3-9.2,1.6-10.4,4.1-1.2,7.7,3.2,10.2,7.5.2-2.3,1.2-4.3,4.1-4.8,4.5-.8,6.2,4.8,6.9,9,.7-1,1.4-1.9,2.2-2.8.5-.5,1.2-.3,1.5.2.5.7.8,1.3,1.1,1.9,1.8-3.8,4.7-8.4,8.6-8.8,4.3-.4,6,6.3,7.3,10.2,1.8-1.6,4.5-1.6,6.4-.2.7-2.5,2.8-4.4,5.6-4.7,2.8-.2,5,1.3,6.4,3.5,1.1-5.9,1.2-11.3,5.8-15.4,2-1.8,4.2-.1,4.5.4,3.4,5.7,4.1,11.1,4.6,17.6,1.4-2.2,2.9-4.3,4.7-6.2.3-.3.8-.4,1.2-.2,2.4,1.5,4.2,3.4,5.5,5.7.9-2.4,3-4.3,5.8-3.8,1.9.3,3.3,1.7,3.9,3.3,2.1-3.3,4.4-6.5,7-9.5,1.7-2,4-4.8,7-3.4,4.6,2.2,3.5,7.7,1.4,12.2,3.8-2.9,8.7-5.7,11.5-2.7,3,3.3.4,6.7-2.2,9.6H66.7Z"/>
              <path class="cls-32" d="M-40.4,377.1c-3.8-1.8-.8-6.7,2.2-5.9-.2-2,0-4,.7-6.2.1-.5.7-.8,1.2-.7,4.2,1.4,8,3.2,11.6,5.5.2-1.9,1.6-3.7,3.8-4.3,3.8-1.2,6.7,1.9,8.8,4.9.3-.7.6-1.3,1-2,.2-.4.9-.6,1.3-.3.3.2.6.4.9.7-1.4-4.1-2.3-9.2,1.6-10.4,4.1-1.2,7.7,3.2,10.2,7.5.2-2.3,1.2-4.3,4.1-4.8,4.5-.8,6.2,4.8,6.9,9,.7-1,1.4-1.9,2.2-2.8.5-.5,1.2-.3,1.5.2.5.7.8,1.3,1.1,1.9,1.8-3.8,4.7-8.4,8.6-8.8,4.3-.4,6,6.3,7.3,10.2,1.8-1.6,4.5-1.6,6.4-.2.7-2.5,2.8-4.4,5.6-4.7,2.8-.2,5,1.3,6.4,3.5,1.1-5.9,1.2-11.3,5.8-15.4,2-1.8,4.2-.1,4.5.4,3.4,5.7,4.1,11.1,4.6,17.6,1.4-2.2,2.9-4.3,4.7-6.2.3-.3.8-.4,1.2-.2,2.4,1.5,4.2,3.4,5.5,5.7.9-2.4,3-4.3,5.8-3.8,1.9.3,3.3,1.7,3.9,3.3,2.1-3.3,4.4-6.5,7-9.5,1.7-2,4-4.8,7-3.4,4.6,2.2,3.5,7.7,1.4,12.2,3.8-2.9,8.7-5.7,11.5-2.7,3,3.3.4,6.7-2.2,9.6H-40.4Z"/>
              <g>
                <rect class="cls-39" x="293.9" y="171.4" width="92.5" height="204.5" transform="translate(680.3 547.3) rotate(180)"/>
                <rect class="cls-32" x="293.9" y="171.4" width="12.8" height="204.5" transform="translate(600.6 547.3) rotate(180)"/>
              </g>
              <g>
                <rect class="cls-39" x="138.4" y="74.1" width="124.1" height="301.8" transform="translate(400.9 450) rotate(180)"/>
                <rect class="cls-32" x="138.4" y="74.1" width="12.8" height="301.8" transform="translate(289.6 450) rotate(180)"/>
                <rect class="cls-46" x="230" y="88.6" width="19.4" height="8" transform="translate(479.4 185.1) rotate(180)"/>
                <rect class="cls-46" x="197.4" y="88.6" width="19.4" height="8" transform="translate(414.2 185.1) rotate(180)"/>
                <rect class="cls-46" x="230" y="117.8" width="19.4" height="8" transform="translate(479.4 243.7) rotate(180)"/>
                <rect class="cls-46" x="197.4" y="117.8" width="19.4" height="8" transform="translate(414.2 243.7) rotate(180)"/>
                <rect class="cls-46" x="164.8" y="117.8" width="19.4" height="8" transform="translate(348.9 243.7) rotate(180)"/>
                <rect class="cls-46" x="230" y="147.1" width="19.4" height="8" transform="translate(479.4 302.3) rotate(180)"/>
                <rect class="cls-46" x="164.8" y="147.1" width="19.4" height="8" transform="translate(348.9 302.3) rotate(180)"/>
                <rect class="cls-46" x="197.4" y="161.8" width="19.4" height="8" transform="translate(414.2 331.5) rotate(180)"/>
                <rect class="cls-46" x="230" y="176.4" width="19.4" height="8" transform="translate(479.4 360.8) rotate(180)"/>
                <rect class="cls-46" x="197.4" y="191" width="19.4" height="8" transform="translate(414.2 390.1) rotate(180)"/>
                <rect class="cls-46" x="230" y="205.7" width="19.4" height="8" transform="translate(479.4 419.4) rotate(180)"/>
                <rect class="cls-46" x="164.8" y="205.7" width="19.4" height="8" transform="translate(348.9 419.4) rotate(180)"/>
                <rect class="cls-46" x="230" y="232.7" width="19.4" height="8" transform="translate(479.4 473.5) rotate(180)"/>
                <rect class="cls-46" x="197.4" y="232.7" width="19.4" height="8" transform="translate(414.2 473.5) rotate(180)"/>
                <rect class="cls-46" x="230" y="262" width="19.4" height="8" transform="translate(479.4 532.1) rotate(180)"/>
                <rect class="cls-46" x="197.4" y="262" width="19.4" height="8" transform="translate(414.2 532.1) rotate(180)"/>
                <rect class="cls-46" x="164.8" y="262" width="19.4" height="8" transform="translate(348.9 532.1) rotate(180)"/>
                <rect class="cls-46" x="230" y="291.3" width="19.4" height="8" transform="translate(479.4 590.6) rotate(180)"/>
                <rect class="cls-46" x="164.8" y="291.3" width="19.4" height="8" transform="translate(348.9 590.6) rotate(180)"/>
                <rect class="cls-46" x="197.4" y="305.9" width="19.4" height="8" transform="translate(414.2 619.9) rotate(180)"/>
                <rect class="cls-46" x="164.8" y="305.9" width="19.4" height="8" transform="translate(348.9 619.9) rotate(180)"/>
                <rect class="cls-46" x="230" y="320.6" width="19.4" height="8" transform="translate(479.4 649.2) rotate(180)"/>
                <rect class="cls-46" x="197.4" y="335.2" width="19.4" height="8" transform="translate(414.2 678.5) rotate(180)"/>
                <rect class="cls-46" x="230" y="349.8" width="19.4" height="8" transform="translate(479.4 707.7) rotate(180)"/>
                <rect class="cls-46" x="164.8" y="349.8" width="19.4" height="8" transform="translate(348.9 707.7) rotate(180)"/>
              </g>
              <g>
                <rect class="cls-39" x="357.6" y="96.6" width="121.6" height="279.3" transform="translate(836.8 472.5) rotate(180)"/>
                <rect class="cls-32" x="357.6" y="96.6" width="12.6" height="279.3" transform="translate(727.8 472.5) rotate(180)"/>
                <rect class="cls-46" x="447.4" y="110" width="19" height="7.4" transform="translate(913.8 227.4) rotate(180)"/>
                <rect class="cls-46" x="415.4" y="110" width="19" height="7.4" transform="translate(849.8 227.4) rotate(180)"/>
                <rect class="cls-46" x="447.4" y="137.1" width="19" height="7.4" transform="translate(913.8 281.6) rotate(180)"/>
                <rect class="cls-46" x="415.4" y="137.1" width="19" height="7.4" transform="translate(849.8 281.6) rotate(180)"/>
                <rect class="cls-46" x="383.4" y="137.1" width="19" height="7.4" transform="translate(785.9 281.6) rotate(180)"/>
                <rect class="cls-46" x="447.4" y="164.2" width="19" height="7.4" transform="translate(913.8 335.8) rotate(180)"/>
                <rect class="cls-46" x="383.4" y="164.2" width="19" height="7.4" transform="translate(785.9 335.8) rotate(180)"/>
                <rect class="cls-46" x="415.4" y="177.7" width="19" height="7.4" transform="translate(849.8 362.9) rotate(180)"/>
                <rect class="cls-46" x="447.4" y="191.3" width="19" height="7.4" transform="translate(913.8 390) rotate(180)"/>
                <rect class="cls-46" x="415.4" y="204.8" width="19" height="7.4" transform="translate(849.8 417.1) rotate(180)"/>
                <rect class="cls-46" x="447.4" y="218.4" width="19" height="7.4" transform="translate(913.8 444.2) rotate(180)"/>
                <rect class="cls-46" x="383.4" y="218.4" width="19" height="7.4" transform="translate(785.9 444.2) rotate(180)"/>
                <rect class="cls-46" x="447.4" y="243.4" width="19" height="7.4" transform="translate(913.8 494.2) rotate(180)"/>
                <rect class="cls-46" x="415.4" y="243.4" width="19" height="7.4" transform="translate(849.8 494.2) rotate(180)"/>
                <rect class="cls-46" x="447.4" y="270.5" width="19" height="7.4" transform="translate(913.8 548.4) rotate(180)"/>
                <rect class="cls-46" x="415.4" y="270.5" width="19" height="7.4" transform="translate(849.8 548.4) rotate(180)"/>
                <rect class="cls-46" x="383.4" y="270.5" width="19" height="7.4" transform="translate(785.9 548.4) rotate(180)"/>
                <rect class="cls-46" x="447.4" y="297.6" width="19" height="7.4" transform="translate(913.8 602.6) rotate(180)"/>
                <rect class="cls-46" x="383.4" y="297.6" width="19" height="7.4" transform="translate(785.9 602.6) rotate(180)"/>
                <rect class="cls-46" x="415.4" y="311.1" width="19" height="7.4" transform="translate(849.8 629.7) rotate(180)"/>
                <rect class="cls-46" x="383.4" y="311.1" width="19" height="7.4" transform="translate(785.9 629.7) rotate(180)"/>
                <rect class="cls-46" x="447.4" y="324.7" width="19" height="7.4" transform="translate(913.8 656.8) rotate(180)"/>
                <rect class="cls-46" x="415.4" y="338.2" width="19" height="7.4" transform="translate(849.8 683.9) rotate(180)"/>
                <rect class="cls-46" x="447.4" y="351.8" width="19" height="7.4" transform="translate(913.8 711) rotate(180)"/>
                <rect class="cls-46" x="383.4" y="351.8" width="19" height="7.4" transform="translate(785.9 711) rotate(180)"/>
              </g>
              <g>
                <rect class="cls-39" x="-59.5" y="185.4" width="78.3" height="190.5" transform="translate(-40.7 561.3) rotate(180)"/>
                <rect class="cls-46" x="-1.7" y="194.5" width="12.2" height="5.1" transform="translate(8.9 394.1) rotate(180)"/>
                <rect class="cls-46" x="-22.3" y="194.5" width="12.2" height="5.1" transform="translate(-32.3 394.1) rotate(180)"/>
                <rect class="cls-46" x="-1.7" y="213" width="12.2" height="5.1" transform="translate(8.9 431.1) rotate(180)"/>
                <rect class="cls-46" x="-22.3" y="213" width="12.2" height="5.1" transform="translate(-32.3 431.1) rotate(180)"/>
                <rect class="cls-46" x="-42.9" y="213" width="12.2" height="5.1" transform="translate(-73.5 431.1) rotate(180)"/>
                <rect class="cls-46" x="-1.7" y="231.5" width="12.2" height="5.1" transform="translate(8.9 468) rotate(180)"/>
                <rect class="cls-46" x="-42.9" y="231.5" width="12.2" height="5.1" transform="translate(-73.5 468) rotate(180)"/>
                <rect class="cls-46" x="-22.3" y="240.7" width="12.2" height="5.1" transform="translate(-32.3 486.5) rotate(180)"/>
                <rect class="cls-46" x="-1.7" y="250" width="12.2" height="5.1" transform="translate(8.9 505) rotate(180)"/>
                <rect class="cls-46" x="-22.3" y="259.2" width="12.2" height="5.1" transform="translate(-32.3 523.5) rotate(180)"/>
                <rect class="cls-46" x="-1.7" y="268.5" width="12.2" height="5.1" transform="translate(8.9 542) rotate(180)"/>
                <rect class="cls-46" x="-42.9" y="268.5" width="12.2" height="5.1" transform="translate(-73.5 542) rotate(180)"/>
                <rect class="cls-46" x="-1.7" y="285.5" width="12.2" height="5.1" transform="translate(8.9 576.1) rotate(180)"/>
                <rect class="cls-46" x="-22.3" y="285.5" width="12.2" height="5.1" transform="translate(-32.3 576.1) rotate(180)"/>
                <rect class="cls-46" x="-1.7" y="304" width="12.2" height="5.1" transform="translate(8.9 613.1) rotate(180)"/>
                <rect class="cls-46" x="-22.3" y="304" width="12.2" height="5.1" transform="translate(-32.3 613.1) rotate(180)"/>
                <rect class="cls-46" x="-42.9" y="304" width="12.2" height="5.1" transform="translate(-73.5 613.1) rotate(180)"/>
                <rect class="cls-46" x="-1.7" y="322.5" width="12.2" height="5.1" transform="translate(8.9 650.1) rotate(180)"/>
                <rect class="cls-46" x="-42.9" y="322.5" width="12.2" height="5.1" transform="translate(-73.5 650.1) rotate(180)"/>
                <rect class="cls-46" x="-22.3" y="331.7" width="12.2" height="5.1" transform="translate(-32.3 668.6) rotate(180)"/>
                <rect class="cls-46" x="-42.9" y="331.7" width="12.2" height="5.1" transform="translate(-73.5 668.6) rotate(180)"/>
                <rect class="cls-46" x="-1.7" y="341" width="12.2" height="5.1" transform="translate(8.9 687) rotate(180)"/>
                <rect class="cls-46" x="-22.3" y="350.2" width="12.2" height="5.1" transform="translate(-32.3 705.5) rotate(180)"/>
                <rect class="cls-46" x="-1.7" y="359.5" width="12.2" height="5.1" transform="translate(8.9 724) rotate(180)"/>
                <rect class="cls-46" x="-42.9" y="359.5" width="12.2" height="5.1" transform="translate(-73.5 724) rotate(180)"/>
              </g>
              <path class="cls-32" d="M260.5,375.6c-4.2-2-.8-7.4,2.4-6.6-.2-2.3,0-4.4.7-6.8.2-.5.7-.9,1.3-.7,4.6,1.5,8.8,3.5,12.8,6.1.2-2.2,1.8-4,4.2-4.8,4.2-1.3,7.4,2.1,9.7,5.4.3-.7.6-1.4,1.1-2.2.3-.5,1-.7,1.5-.4.3.2.7.5,1,.7-1.6-4.5-2.6-10.2,1.7-11.5,4.5-1.4,8.5,3.5,11.3,8.3.2-2.6,1.3-4.8,4.5-5.4,4.9-.9,6.8,5.3,7.7,10,.7-1.1,1.5-2.1,2.5-3.1.5-.5,1.3-.3,1.7.2.5.7.9,1.4,1.2,2.1,2-4.2,5.2-9.3,9.5-9.7,4.7-.4,6.7,6.9,8.1,11.3,2-1.8,5-1.8,7-.2.8-2.8,3.1-4.9,6.2-5.2,3.1-.3,5.5,1.5,7.1,3.9,1.2-6.5,1.4-12.5,6.4-17,2.3-2,4.6-.1,4.9.4,3.8,6.3,4.6,12.2,5.1,19.4,1.5-2.4,3.2-4.7,5.1-6.9.3-.3.9-.4,1.3-.2,2.7,1.7,4.6,3.7,6,6.3,1-2.6,3.3-4.7,6.4-4.2,2.1.4,3.7,1.8,4.3,3.7,2.3-3.7,4.9-7.2,7.7-10.5,1.9-2.3,4.4-5.3,7.7-3.7,5.1,2.4,3.9,8.5,1.6,13.5,4.3-3.2,9.6-6.3,12.7-3,3.3,3.6.5,7.4-2.5,10.6h-169.9Z"/>
              <path class="cls-32" d="M151.5,376.9c-4.2-2-.8-7.4,2.4-6.6-.2-2.3,0-4.4.7-6.8.2-.5.7-.9,1.3-.7,4.6,1.5,8.8,3.5,12.8,6.1.2-2.2,1.8-4,4.2-4.8,4.2-1.3,7.5,2.1,9.7,5.4.3-.7.6-1.4,1.1-2.2.3-.5,1-.7,1.5-.4.3.2.7.5,1,.7-1.6-4.5-2.6-10.2,1.7-11.5,4.5-1.4,8.5,3.5,11.3,8.3.2-2.6,1.3-4.8,4.5-5.4,4.9-.9,6.8,5.3,7.7,10,.7-1.1,1.5-2.1,2.5-3.1.5-.5,1.3-.3,1.7.2.5.7.9,1.4,1.2,2.1,2-4.2,5.2-9.3,9.5-9.7,4.7-.4,6.7,6.9,8.1,11.3,2-1.8,5-1.8,7-.2.8-2.8,3.1-4.9,6.2-5.2,3.1-.3,5.5,1.5,7.1,3.9,1.2-6.5,1.4-12.5,6.4-17,2.3-2,4.6-.1,4.9.4,3.8,6.3,4.6,12.2,5.1,19.4,1.5-2.4,3.2-4.7,5.1-6.9.3-.3.9-.4,1.3-.2,2.7,1.7,4.6,3.7,6,6.3,1-2.6,3.3-4.7,6.4-4.2,2.1.4,3.7,1.8,4.3,3.7,2.3-3.7,4.9-7.2,7.7-10.5,1.9-2.3,4.4-5.3,7.7-3.7,5,2.4,3.9,8.5,1.6,13.5,4.3-3.2,9.6-6.3,12.7-3,3.3,3.6.5,7.4-2.5,10.6h-169.9Z"/>
              <g>
                <polygon class="cls-22" points="23.6 384.2 -.5 384.2 128.5 41.2 152.5 41.2 23.6 384.2"/>
                <polygon class="cls-22" points="-18.9 384.2 -30.9 384.2 98 41.2 110.1 41.2 -18.9 384.2"/>
                <rect class="cls-21" x="67.2" y="232.8" width="9.4" height="316.8" transform="translate(-319.4 463.1) rotate(-90)"/>
                <rect class="cls-21" x="120.1" y="34.9" width="6.8" height="358.4"/>
                <rect class="cls-21" x="70.4" y="234.1" width="2.9" height="303.1" transform="translate(457.5 313.8) rotate(90)"/>
                <rect class="cls-21" x="67.8" y="-121.2" width="8.1" height="316.8" transform="translate(34.7 109) rotate(-90)"/>
                <rect class="cls-21" x="70.4" y="-109" width="2.9" height="303.3" transform="translate(114.5 -29.2) rotate(90)"/>
                <polygon class="cls-23" points="528.6 34.9 218.6 34.9 218.6 37.2 -83.2 37.2 -83.2 390.6 528.6 389.3 528.6 34.9"/>
                <polygon class="cls-22" points="237.6 384.2 213.5 384.2 342.5 41.2 366.6 41.2 237.6 384.2"/>
                <polygon class="cls-22" points="195.1 384.2 183.1 384.2 312 41.2 324.1 41.2 195.1 384.2"/>
                <polygon class="cls-24" points="430 384.2 418 384.2 528.6 78 528.6 102.7 430 384.2"/>
                <rect class="cls-21" x="316.9" y="34.9" width="6.8" height="358.4"/>
                <rect class="cls-21" x="367.3" y="232.8" width="9.4" height="316.8" transform="translate(-19.3 763.2) rotate(-90)"/>
                <rect class="cls-21" x="370.5" y="234.1" width="2.9" height="303.1" transform="translate(757.6 13.7) rotate(90)"/>
                <rect class="cls-21" x="367.9" y="-121.2" width="8.1" height="316.8" transform="translate(334.8 409.1) rotate(-90)"/>
                <rect class="cls-21" x="370.5" y="-109" width="2.9" height="303.3" transform="translate(414.6 -329.3) rotate(90)"/>
                <rect class="cls-21" x="219" y="-208.7" width="4" height="615.1" transform="translate(122.1 319.9) rotate(-90)"/>
                <rect class="cls-21" x="219" y="-34.4" width="4" height="615.1" transform="translate(-52.2 494.2) rotate(-90)"/>
              </g>
            </g>
          </g>
        </g>
        <rect class="cls-43" x="75.7" y="375.5" width="321.1" height="2.4"/>
        <g>
          <g>
            <rect class="cls-47" x="311.7" y="70.3" width="4.6" height="37.6"/>
            <polygon class="cls-47" points="333.4 375.5 335.7 375.5 301.5 280.3 299.2 280.3 333.4 375.5"/>
            <rect class="cls-47" x="292.1" y="280.3" width="2.2" height="95.2" transform="translate(586.5 655.8) rotate(180)"/>
            <polygon class="cls-47" points="250.6 375.5 252.9 375.5 287 280.3 284.8 280.3 250.6 375.5"/>
            <polygon class="cls-47" points="313.8 323.8 298.2 280.3 302.8 280.3 318.4 323.8 313.8 323.8"/>
            <rect class="cls-47" x="291" y="280.3" width="4.6" height="40"/>
            <polygon class="cls-47" points="268.1 323.8 283.7 280.3 288.3 280.3 272.7 323.8 268.1 323.8"/>
            <rect class="cls-48" x="283.7" y="275.5" width="19.1" height="4.8"/>
            <rect class="cls-47" x="305.5" y="74.2" width="17.1" height="4.8"/>
            <rect class="cls-47" x="273.3" y="278.8" width="39.9" height="4.8" transform="translate(586.5 562.5) rotate(180)"/>
            <polygon class="cls-47" points="293.6 334.4 323.8 346.4 323.8 344.5 293.6 332.5 293.6 334.4"/>
            <polygon class="cls-47" points="262.3 346.4 292.9 334.4 292.9 332.5 262.3 344.5 262.3 346.4"/>
          </g>
          <g>
            <rect class="cls-48" x="220" y="273.1" width="162.7" height="5.7" rx=".8" ry=".8"/>
            <path class="cls-48" d="M221.4,79h159.9c.8,0,1.4.6,1.4,1.4v2.9c0,.8-.6,1.4-1.4,1.4h-159.9c-.8,0-1.4-.6-1.4-1.4v-2.9c0-.8.6-1.4,1.4-1.4Z"/>
            <rect class="cls-36" x="225" y="81.9" width="151.7" height="197"/>
            <rect class="cls-9" x="223.1" y="81.9" width="151.7" height="197"/>
            <path class="cls-30" d="M218.4,273.1h161.2c.4,0,.8.3.8.8v4.2c0,.4-.3.8-.8.8h-161.2c-.4,0-.8-.3-.8-.8v-4.2c0-.4.3-.8.8-.8Z"/>
            <path class="cls-30" d="M219.1,79h159.9c.8,0,1.4.6,1.4,1.4v2.9c0,.8-.6,1.4-1.4,1.4h-159.9c-.8,0-1.4-.6-1.4-1.4v-2.9c0-.8.6-1.4,1.4-1.4Z"/>
          </g>
          <g class="cls-45">
            <path class="cls-26" d="M349.1,251.6s.4-18.4-.3-24l-21.9,1.1s1.3,18.1.4,22.9h21.8Z"/>
            <path class="cls-26" d="M350.3,224.1s.4-18.3-.3-23.8l-21.8,1.1s1.3,17.9.4,22.7h21.7Z"/>
            <path class="cls-26" d="M351.3,193.3s.4-18.1-.3-23.6l-21.7,1.1s1.3,17.8.4,22.5h21.6Z"/>
            <path class="cls-26" d="M354.9,157.5s.4-17.9-.3-23.4l-21.6,1.1s1.3,17.6.4,22.3h21.5Z"/>
            <path class="cls-26" d="M326.3,157.3s.5-17.9-.2-23.4l-21.6,1.1s1.2,17.6.3,22.3h21.5Z"/>
            <path class="cls-26" d="M302.3,156.1s.5-17.9-.1-23.4l-21.6,1.1s1.2,17.6.3,22.3h21.5Z"/>
            <path class="cls-26" d="M331.4,125.5s.5-17.8-.2-23.2l-21.5,1.1s1.2,17.5.3,22.1h21.4Z"/>
            <path class="cls-26" d="M260.5,166.7s.6-18,0-23.4l-21.6,1.1s1.1,17.6.1,22.4h21.5Z"/>
            <path class="cls-26" d="M317.5,193.3s.5-18.1-.2-23.6l-21.7,1.1s1.2,17.8.3,22.5h21.6Z"/>
            <path class="cls-26" d="M324.2,251.6s.5-18.4-.2-24l-21.9,1.1s1.2,18.1.3,22.9h21.7Z"/>
            <path class="cls-26" d="M324.6,224.1s.5-18.3-.2-23.8l-21.8,1.1s1.2,17.9.3,22.7h21.7Z"/>
            <path class="cls-26" d="M296.9,251.6s.6-18.4-.1-24l-21.9,1.1s1.2,18,.2,22.9h21.7Z"/>
            <path class="cls-26" d="M269.6,251.6s.6-18.4,0-24l-21.9,1.1s1.1,18,.2,22.9h21.7Z"/>
            <path class="cls-26" d="M261.5,195.8s.7-18.4,0-24l-21.9,1.1s1,18,0,22.9h21.7Z"/>
            <g>
              <path class="cls-26" d="M294.2,234.6s2.1-19.2,3.4-23.1l-19.5-2.2-3.1,2.9s-2.8,16.9-2.7,21.7l21.8.6Z"/>
              <polygon class="cls-26" points="277.5 212.4 278.1 209.3 275 212.3 277.5 212.4"/>
            </g>
            <g>
              <path class="cls-26" d="M341.6,211.4s2-19.1,3.3-23l-19.4-2.1-3,2.9s-2.7,16.8-2.5,21.6l21.8.5Z"/>
              <polygon class="cls-26" points="324.9 189.4 325.4 186.3 322.4 189.2 324.9 189.4"/>
            </g>
          </g>
          <g>
            <path class="cls-54" d="M346.7,249.6s.4-18.4-.3-24l-21.9,1.1s1.3,18.1.4,22.9h21.8Z"/>
            <path class="cls-54" d="M348,222.1s.4-18.3-.3-23.8l-21.8,1.1s1.3,17.9.4,22.7h21.7Z"/>
            <path class="cls-30" d="M348.9,191.3s.4-18.1-.3-23.6l-21.7,1.1s1.3,17.8.4,22.5h21.6Z"/>
            <path class="cls-38" d="M352.6,155.5s.4-17.9-.3-23.4l-21.6,1.1s1.3,17.6.4,22.3h21.5Z"/>
            <path class="cls-30" d="M323.9,155.3s.5-17.9-.2-23.4l-21.6,1.1s1.2,17.6.3,22.3h21.5Z"/>
            <path class="cls-54" d="M300,154.1s.5-17.9-.1-23.4l-21.6,1.1s1.2,17.6.3,22.3h21.5Z"/>
            <path class="cls-38" d="M329,123.4s.5-17.8-.2-23.2l-21.5,1.1s1.2,17.5.3,22.1h21.4Z"/>
            <path class="cls-30" d="M258.2,164.7s.6-18,0-23.4l-21.6,1.1s1.1,17.6.1,22.4h21.5Z"/>
            <path class="cls-30" d="M315.2,191.3s.5-18.1-.2-23.6l-21.7,1.1s1.2,17.8.3,22.5h21.6Z"/>
            <path class="cls-54" d="M321.8,249.6s.5-18.4-.2-24l-21.9,1.1s1.2,18,.3,22.9h21.7Z"/>
            <path class="cls-54" d="M322.3,222s.5-18.3-.2-23.8l-21.8,1.1s1.2,17.9.3,22.7h21.7Z"/>
            <path class="cls-54" d="M294.5,249.6s.6-18.4-.1-24l-21.9,1.1s1.2,18,.2,22.9h21.7Z"/>
            <path class="cls-54" d="M267.2,249.6s.6-18.4,0-24l-21.9,1.1s1.1,18,.2,22.9h21.7Z"/>
            <path class="cls-54" d="M259.1,193.8s.7-18.4,0-24l-21.9,1.1s1,18,0,22.9h21.7Z"/>
            <g>
              <path class="cls-38" d="M291.8,232.5s2.1-19.2,3.4-23.1l-19.5-2.2-3.1,2.9s-2.8,16.9-2.7,21.7l21.8.6Z"/>
              <polygon class="cls-19" points="275.2 210.4 275.8 207.3 272.7 210.2 275.2 210.4"/>
            </g>
            <g>
              <path class="cls-38" d="M339.3,209.4s2-19.1,3.3-23l-19.4-2.1-3,2.9s-2.7,16.8-2.5,21.6l21.8.5Z"/>
              <polygon class="cls-19" points="322.5 187.4 323.1 184.3 320 187.2 322.5 187.4"/>
            </g>
          </g>
        </g>
        <g>
          <path class="cls-28" d="M289.5,172.4c-8.2,4.4-15.6,5.6-21.8,5.4-.6,0-1.3,0-1.9-.1-1.1-.1-2.1-.2-3-.4-1.4-.3-2.6-.5-3.8-.9-.2,0-.4-.1-.6-.2-5.3-1.5-8.1-2.9-10.9-5.7-2.9-2.8-4.3-5.2-4.3-5.2,0,0-23.7-20.5-16.1-22.2,7.7-1.6,21.4,2.1,33.3,7.2,0,0,.1,0,.1,0,.7.3,1.3.5,1.9.8.4.2.8.3,1.1.5,6,2.6,10.5,4.5,11.6,4.4,1.9-.3,5.2-29.5,6-30.5,0,0,4-4.2,5.7-2.2,5.2,6,11,44.5,2.6,49.1Z"/>
          <path class="cls-15" d="M278.1,151.5c.5,1.2,1.3,3.1,1.3,4.4,0,1.3-.6,2.7-1.8,3.3-1.6.7-3.6.7-5.3.2-18.5-4.4-21.7-12.6-21.4-13.1.7.3,10.9,4.7,11.6,4.9.4.2.8.3,1.1.5,6,2.6,10.5,4.6,11.6,4.4,1.1-.2,1.5-7.9,2.9-4.5Z"/>
          <path class="cls-28" d="M280,122.5c-.8-3.9,1-7.9,3.4-11,.9-1.2,3.1-3.9,4.5-4.2,1.2-.2,1.7,1.1.6,2-1.2,1.1-3.1,3.6-3.5,5,1.4-2.1,3.4.2,3.1,1.8.8-.5,1.7,1.2,1,2.9.6-.7,2.2,1.4.3,4.1-1.2,1.9-1.7,2.5-3,3.1-1.5.7-3.2.2-4.6-.7-.3,0-.5-.1-.7-.4,0-.1-.1-.2-.2-.3-.6-.7-.9-1.5-.9-2.3Z"/>
          <path class="cls-28" d="M277.4,117.7c.6-1.1,2.2-.2,1.9.9-.1.4-.2.9-.3,1.4,1,.2,2,.7,2.6,1.6.4.8,1.4,2.8.8,3.6-.3.4-1.1,1.9-1.6,1.5-1-.8-3.9-5.5-4-5.7-.5-1.2,0-2.3.5-3.4Z"/>
          <path class="cls-28" d="M240.5,356c-1-1-10.3,1.1-10.3,1.7,0,1.8.3,8.4,1.3,9.2,1,.7,10.3-.4,10.3-2.1,0-1.5-.3-7.8-1.3-8.7Z"/>
          <path class="cls-28" d="M165.3,351.4c-.2-1.4-8.9-5.1-9.3-4.7-1.1,1.4-4.7,7-4.3,8.2.4,1.2,8.6,5.7,9.6,4.3.8-1.2,4.3-6.5,4-7.8Z"/>
          <path class="cls-10" d="M208.3,238.9c.6,1.6,1.3,3.3,1.9,5,4.6,11.9,10.3,25.7,10.9,32.9,1.1,13.4,7.3,45.9,7.3,61.7,0,12.9,3.6,21.7,3.3,24.6,0,0,11.7-2.3,11.7-2.3,4.5-18.5,9.1-63.5,9.1-83.8s-1.8-54.2-9.2-70.2c-7.1-15.3-35.4,12.5-38.7,16.2-1.3,1.4.7,7.8,3.7,15.7Z"/>
          <path class="cls-47" d="M208.3,238.9c.6,1.6,1.3,3.3,1.9,5,4.6,11.9,10.3,25.7,10.9,32.9,1.1,13.4,6.5,81.9,7.5,86.3,2.1,1.2,6.2.2,9.1-1.1.9-11.4-4.4-22.1-5.7-33.3-2.5-21.3,4.9-43.7-4.2-64.1-2.5-5.7-6.7-11.6-6.3-18.1.2-3.2,2.3-6.9.4-10-3.3-5.6-9.5-1.8-12.3,2-.3-.1-.7-.2-1,0-.1,0-.2.1-.3.2Z"/>
          <path class="cls-10" d="M213,217.4s0,.7,0,2c-.2,8.3-1.1,40.3-4.7,71.6-2.3,20.2-27.9,53.3-44.9,66.2l-9.3-5-2.1-1.1s10.4-18.9,15.5-26.8c13.2-20.3,10.4-32.1,10.5-45.5.2-27.6-7-41.1.5-61.6.3-.9.7-1.9,1.1-2.9,1.4-3.4,3.3-7.1,5.6-11,.3-.6.9-.9,1.6-1.2.8-.3,1.9-.3,3.1-.2,5.2.6,13.6,5,20.9,12.8.8.8,1.5,1.7,2.2,2.6Z"/>
          <path class="cls-47" d="M184.8,259.3c-2.6-13.3-4-25.8-.1-39,.1-.5,0-.8-.4-1,0-.2-.2-.3-.5-.4-1.5-.5-3.4-1.2-5.5-1.6-7.5,20.5-.3,34-.5,61.6,0,13.4,2.7,25.2-10.5,45.5-5.1,7.8-15.5,26.8-15.5,26.8l2.1,1.1c7.6-6.9,15.4-14,19.9-23.3,5.1-10.5,8.4-22.7,10.9-34.1,2.6-12.1,2.4-23.5,0-35.6Z"/>
          <path class="cls-47" d="M231.3,364.5s-2.9,6.9,1,11.2c0,0,21.4-3.2,27.6-5.5,0,0-1.5-8.2-7.1-7.9-5.6.4-11.1,1.7-11.1,1.7,0,0-5.6,4.3-10.4.5Z"/>
          <path class="cls-47" d="M152.5,352.4s-6.6,3.5-6.3,9.3c0,0,18.5,11.2,24.8,13.3,0,0,4.1-7.3-.5-10.6-4.6-3.3-9.6-5.7-9.6-5.7,0,0-7-.2-8.4-6.3Z"/>
          <path class="cls-27" d="M231.4,145.5c2.4,5.8,4.7,10.5,4.7,10.5,0,0-4.5,5.7-3,9.4.8,1.8,2.6,3.3,5,4.8,3.3,2,7.5,3.9,10.9,6.1,10.6-8,12.5-21.9,9.1-30.8-9.5-8-22-18-29.6-19.4-4.7-.9-.9,10.4,2.8,19.4Z"/>
          <path class="cls-27" d="M244.8,206.8c0,2.6-58.5,15.8-64.3,14.7-2.4-.4-3.9-1.1-4.3-1.9-1.1-2.4,2.8-26.2,2.3-42,0-3.1-.2-6.2-.2-9.2,0-15.9,1-30.7,4.6-33.5.8-.6,1.8-1.3,2.8-2,1.6-1.1,3.4-2.2,5.4-3.3,3.2-1.7,7-3.3,11.2-4.3,6.5-1.7,14-2.2,22.3-.3,0,0,0,0,0,0,2,.4,4.1,1,6.2,1.8.5.2,1,.4,1.5.6,7,2.8,6,18.1,4.9,30.9-.5,5.9-1,11.4-.8,14.7,0,1.1.2,2.3.4,3.4,1.6,9.4,6.8,23.4,8,30.3Z"/>
          <path class="cls-28" d="M218.5,117.3v6.9s1.6,3,0,3.3c-3.6.7-8.7-3.3-8.7-3.3v-10.5l8.7,3.6Z"/>
          <path class="cls-15" d="M209.8,118.8v-4.6s3.9,4.9,8.1,5.1c0,0-4.6,1.9-8.1-.5Z"/>
          <path class="cls-28" d="M223.5,102.1s1.6,7.1.9,13.2c-.5,4.3-9.5,7.9-14.3.5-4.8-7.4-.8-16-.8-16l14.2,2.3Z"/>
          <path class="cls-30" d="M173.4,223.9c1.4.9,41.7-5.3,41.7-5.3,2.8-9,11.5-46.6,11.2-50.3-1.5-23.5-23.3-42.6-23.3-42.6-8.5-.3-19.4,9.6-19.4,9.6,2.6-5.1,13.6-4.7,15.3-2.1,3.7,5.6,2.6,22.8-.7,29.9-9.7,20.6-19.1,21.8-19.1,21.8l-5.7,39Z"/>
          <path class="cls-30" d="M222,177.3c-1.2,3.1,15.8,35.7,15.8,35.7,0,0,12-2.4,12.3-2.6,0,0-5.1-13.5-8.9-23.1-.7-1.9-1.4-3.7-2-5.4h0c-.7-2-1.2-3.7-1.5-5.1-.4-1.5-.5-2.7-.4-3.4-.2-3.4,2.8-9.8,3-15.8.3-10.7-3.6-28.7-7-29.9-.3-.1-.7-.3-1-.4-.2,0-.3-.1-.5-.2-2.1-.8-4.2-1.4-6.2-1.8,0,0,0,0,0,0,0,0,4.6,31.8-3.5,51.9Z"/>
          <path class="cls-17" d="M226,99.2c.9-5-7.8-4.1-10.6-3.7-2,.2-9,1.5-9.4,4.7-1.9,3.1-2,7.4-.6,10.7,0,.8.3,1.5,1.2,2.1,1.3.8,2.9.2,3.6-1,1.1-1.9.5-4.6.6-6.7,0-.4.1-1.9.2-3.2,1.2-.5,2.1-.8,3.8-.4,1.7.3,3.4.8,5.1,1.1,2.8.4,8-.3,6.1-3.4Z"/>
          <g>
            <path class="cls-4" d="M236.6,213.7l-23.8,5.9c-1.9.5-3.9-.7-4.4-2.6l-9-36.1c-.5-1.9.7-3.9,2.6-4.4l23.8-5.9c1.9-.5,3.9.7,4.4,2.6l9,36.1c.5,1.9-.7,3.9-2.6,4.4Z"/>
            <path class="cls-5" d="M237.8,213.5l-23.8,5.9c-1.9.5-3.9-.7-4.4-2.6l-9-36.1c-.5-1.9.7-3.9,2.6-4.4l23.8-5.9c1.9-.5,3.9.7,4.4,2.6l9,36.1c.5,1.9-.7,3.9-2.6,4.4Z"/>
            <path class="cls-6" d="M214,168.7c-3.8.9-6.1,4.8-5.1,8.6.9,3.8,4.8,6.1,8.6,5.1,3.8-.9,6.1-4.8,5.1-8.6-.9-3.8-4.8-6.1-8.6-5.1ZM216.8,180c-2.4.6-4.9-.9-5.5-3.3-.6-2.4.9-4.9,3.3-5.5,2.4-.6,4.9.9,5.5,3.3.6,2.4-.9,4.9-3.3,5.5Z"/>
          </g>
          <path class="cls-28" d="M182.6,213.8c.5,0,1-.1,1.5-.2,16.8-2,46.1-15,46.1-15.1,0-1.4.5-7.1.5-7.1-.7,0-27.9.5-39.4.9-.9,0-1.7,0-2.3,0,0,0,0,0,0,0-1.1.2-1.9.2-2.6,0,0,0-.1,0-.2,0,0,0,0,0,0,0-1.6-.4.2-14.2,3.1-19.6,1.3-2.4,2.7-4.8,3.9-6.8,3-5,4.4-10.8,3.6-16.5-.7-5.5-2.9-9.7-5.3-12.7-3.3-4.2-9.8-3.8-12.7.7-5.6,8.6-8.4,13.1-14.3,27.5,0,0,0,.1,0,.2-7.5,18.1,2.2,50,18.3,48.5Z"/>
          <path class="cls-15" d="M182.6,213.8c.5,0,1-.1,1.5-.2,16.8-2,46.1-15.1,46.1-15.1,0,0,0,0,0-.2-3.1.3-9.1,3.1-12,3.8-10.2,2.4-27.4,4.5-32.5,5.4-7.3,1.4-11.6-3.8-13.7-10-3.3-9.4-2.5-24.4-1.3-34.2,2.3-7.1-5-3-5-2.9-9.8,24.2.8,54.8,16.8,53.3Z"/>
          <path class="cls-27" d="M164.2,159.9c.6-2.4,4.8-17.9,13.6-24.9,4-3.2,15.4-7.8,19.8-3,9.6,10.3,2.6,27.7-4.2,40.1-10.5,1-21-3.9-29.2-12.2Z"/>
          <g>
            <path class="cls-28" d="M238.2,195c.3-.7.4-1.5-.1-2.2,0,0-.2-.1-.2-.2.4-.5.6-1.1.2-1.7-.3-.5-.8-.8-1.5-.9,0-.2,0-.4-.1-.5-1-2.4-4.8.4-6,1-.4.2-.6.6-.5.9,0,0-.2.2-.3.3-1.1,1.4-.8,4-.1,5.5,1,2,2.9,2.6,4.9,2.1,1.4-.3,4.5-1.1,4.6-3,0-.8-.3-1.2-.9-1.3Z"/>
            <path class="cls-28" d="M234.6,185.9c-1.5-.3-3-.2-4.2.9-1.1,1-2.4,3.9-2.7,5.3-.7.5.3.4,1.4.5,1.3.1,2.7-.3,3-1.8,0-.7-.1-1.2.3-1.8.5-.7,1.5-.9,2.3-1,1-.2,1-1.9,0-2.1Z"/>
          </g>
        </g>
        <g>
          <g>
            <path class="cls-36" d="M355.1,368.8h-2.8c-1,0-1.9-.8-1.9-1.9v-13.2h6.6v13.2c0,1-.8,1.9-1.9,1.9Z"/>
            <path class="cls-36" d="M392.4,372.6c1.1-3.3-.7-6.9-4.1-8l-29.8-9.8v-39.8h-9.9v39.9l-29.4,9.7c-3.3,1.1-5.2,4.7-4.1,8l38.6-12.7h0l38.6,12.7Z"/>
            <path class="cls-36" d="M359.5,355.8h-11.2v-43.5c0-1.8,1.4-3.2,3.2-3.2h4.8c1.8,0,3.2,1.4,3.2,3.2v43.5Z"/>
            <g>
              <path class="cls-2" d="M324.7,370.2c0-3.5-2.8-6.3-6.3-6.3s-6.3,2.8-6.3,6.3,2.8,6.3,6.3,6.3,6.3-2.8,6.3-6.3Z"/>
              <path class="cls-44" d="M323.3,370.2c0-2.7-2.2-4.9-4.9-4.9s-4.9,2.2-4.9,4.9,2.2,4.9,4.9,4.9,4.9-2.2,4.9-4.9Z"/>
            </g>
            <g>
              <path class="cls-2" d="M359.9,370.2c0-3.5-2.8-6.3-6.3-6.3s-6.3,2.8-6.3,6.3,2.8,6.3,6.3,6.3,6.3-2.8,6.3-6.3Z"/>
              <path class="cls-44" d="M358.6,370.2c0-2.7-2.2-4.9-4.9-4.9s-4.9,2.2-4.9,4.9,2.2,4.9,4.9,4.9,4.9-2.2,4.9-4.9Z"/>
            </g>
            <g>
              <path class="cls-2" d="M396.2,370.2c0-3.5-2.8-6.3-6.3-6.3s-6.3,2.8-6.3,6.3,2.8,6.3,6.3,6.3,6.3-2.8,6.3-6.3Z"/>
              <path class="cls-44" d="M394.8,370.2c0-2.7-2.2-4.9-4.9-4.9s-4.9,2.2-4.9,4.9,2.2,4.9,4.9,4.9,4.9-2.2,4.9-4.9Z"/>
            </g>
            <path class="cls-2" d="M362.5,325.9h-16.4c-2.4,0-4.4-3.5-4.4-7.7h25.1c0,4.3-1.9,7.7-4.4,7.7Z"/>
            <path class="cls-38" d="M305.6,312.4c0,3.2,2.6,5.9,5.9,5.9h48.8s1.3-.4,3.5-1.1c8.8-2.8,31.3-10.1,32.8-12.5,1.9-2.9,6.3-44.3,6.3-44.3h-48.8c-3.2-.3-6,2.1-6.3,5.4l-1.1,25.9c-.7,8.4-7.8,14.9-16.1,14.9h-19c-3.2,0-5.9,2.6-5.9,5.9Z"/>
            <path class="cls-38" d="M305.6,312.4c0,3.2,2.6,5.9,5.9,5.9h52.3v-11.7h-52.3c-3.2,0-5.9,2.6-5.9,5.9Z"/>
            <path class="cls-19" d="M360.3,318.2h19c14.5,0,26.7-11.3,27.8-25.7l1.1-25.9c.3-3.2-2.2-6-5.4-6.3-3.2-.3-6,2.1-6.3,5.4l-1.1,25.9c-.7,8.4-7.7,14.9-16.1,14.9h-19c-3.2,0-5.9,2.6-5.9,5.9s2.6,5.9,5.9,5.9Z"/>
          </g>
          <path class="cls-30" d="M327.9,268s-35.9,6-48.5,18.9c-15.2,15.5-17,66.9-17,66.9l30.8,2.7s-7.3-39.3,1.6-48.4c8.9-9.1,35.2-1.1,49.1-8.1,27.7-14-15.9-32-15.9-32Z"/>
          <path class="cls-48" d="M291.3,343.4s-2.8-34.2,7.1-38.2c8.2-3.4,45.3-22.8,45.3-22.8l-6.2-7.8s-40.8,3.9-50.2,17.3c-13.8,19.5,4.1,51.5,4.1,51.5Z"/>
          <path class="cls-48" d="M262.4,353.8s4.2,3.7,11.3,4.9c1.9.3,4.1.5,6.4.3,3-.2,9.5-.9,13-2.4,0,0-7.5-2.2-13.5-3.4-2.7-.5-5.7-.9-8.9-.8-2.7,0-5.5.5-8.3,1.5Z"/>
          <g>
            <path class="cls-30" d="M361.6,268s-47.5,6.9-60.2,19.7c-15.3,15.5,12,71.4,12,71.4l22.5-15.1s-14.1-31.8-11.3-33.7c10.5-7.2,29.3.1,43.1-6.9,27.7-14-6.2-35.5-6.2-35.5Z"/>
            <path class="cls-48" d="M313.5,359.2c4.1-1.1,7.5-2.5,10.3-4,2.6-1.4,4.8-2.9,6.4-4.3,4.3-3.6,5.8-6.8,5.8-6.8-2.8.3-5.5,1-7.8,2.1-3,1.4-5.7,3.3-7.8,5.2-4.4,3.9-6.9,7.8-6.9,7.8Z"/>
            <path class="cls-28" d="M320.3,351.4l3.5,3.8,8.1,8.8,3.3-2-5-11.2-2.1-4.7c-3,1.4-5.7,3.3-7.8,5.2Z"/>
            <path class="cls-16" d="M330.8,363.5s-13.9,8.3-12.4,17l15.9-9.5.9-2.7,2.1.9,3.8-2.3s-1.1-6.1-6.2-5.6c0,0-.8,2.3-4.1,2.2Z"/>
          </g>
          <path class="cls-28" d="M273.2,352.4l2.9,6.8,3.2,6.7,3.6-1.3-.5-5.1-.5-5.9c-2.7-.5-5.6-1.4-8.8-1.2Z"/>
          <path class="cls-16" d="M278.4,364.7s-16,2.2-18.1,10.8l18.3-2.5,1.9-2.1,1.6,1.6,4.3-.6s1.4-6-3.5-7.6c0,0-1.6,1.8-4.6.4Z"/>
          <g>
            <path class="cls-28" d="M290.9,245.6c.3.2.6.5.9.7,11.7,6.8,29.9-.4,38.6-5.2,2.3-1.3,3.9-2.4,4.6-3,3.4-3.2,9.5-26.3-5.3-23-1.5.4-5,2.5-8.7,5-1.8,1.2-3.7,2.5-5.4,3.7-3.3,2.2-10,5.8-10.6,5.7-2.6-.5-7.6-34.4-8.1-35,0,0-5.6,1-7.4.7-.3,0-6.7,44.4,1.2,50.6Z"/>
            <path class="cls-15" d="M290.9,245.6c.3.2.6.5.9.7,11.7,6.8,29.9-.4,38.6-5.2.9-4.4-.7-9.1-2.8-13.1-1.5-2.9-3.3-7.4-6.5-8-1.8,1.2-3.7,2.5-5.4,3.7-.4,2-.3,4,.2,6.2,1.1,4.8,4.2,10.2-1.6,13.2-2.2,1.1-5,.9-7.4,1.1-2.7.2-5.3.9-8,1.1-2.9.2-5.4-.2-8,.3Z"/>
            <path class="cls-50" d="M347.3,221.8c.5,5.4-10.2,14.9-14.2,22.1-8.3-2.2-14-11.6-15.8-25.1,7.6-12.5,22.2-18.7,32.5-20.8,8.9-1.8-2.9,19.1-2.5,23.8Z"/>
            <path class="cls-37" d="M317.5,270.2c33.4,14.6,61.1,15.3,61.2,15.3-.6-1.2-3.5-35.7-3.8-38.4-.5-4.4-.3-8.9,0-11.8.1-1.4.3-2.5.4-3,0,0,0-.1,0-.2,2.7-13.4,8.5-29.2-7-34.1-1.9-.6-4.2-1-6.8-1.3h0c-2.8-.3-6.1-.3-9.8,0,0,0-4.7,1.6-10.1,4.4-1.8.9-3.8,2-5.7,3.2-5.6,3.5-6.8,10.5-6.6,15.3.1,3.3,4.1,10.4,5.2,11.8-2.4,15.8-14.5,34.4-17.1,38.9Z"/>
            <path class="cls-28" d="M348.1,191.8v6.3s-1.7,3.1,0,3.4c3.7.7,9-5,9-5v-8.4l-9,3.7Z"/>
            <path class="cls-15" d="M357.1,193.2v-3.5s-4.6,2.9-9,3.2c0,0,5.3,2.8,9,.3Z"/>
            <path class="cls-28" d="M346.6,171.5s-3.5,8.5-4.4,14.8c-.7,4.5,7.4,10.5,14.2,4.3,6.7-6.2,5-15.8,5-15.8l-14.8-3.2Z"/>
            <path class="cls-26" d="M372.4,169.2c-1.1-3.2-3.5-5.1-6.9-4.9-1.4,0-2.8.5-3.6,1.7-.4.7-.6,1.5-.6,2.3-4.4-2.7-22.8-6.5-19.2,8.6,3.8-5.4,11.6-3.9,13.9.4,0,.8,0,1.6,0,2.6-.2,2.7-.5,5.1.7,7.6,1.6,3.3,4.9,3.6,6.5,1.1,1.1-1.7,2.3-5.2,2.8-8.5,1.7,1.1,4.2,1.4,5.8,0,2.8-2.3,1.5-8,.5-10.9Z"/>
            <path class="cls-28" d="M355.3,180.5s2.7-1.2,3.2.9c.5,2.2-1.5,3.4-2.5,3-1-.4-1.3-3-.7-3.9Z"/>
            <path class="cls-50" d="M342,233.4c4.9,3.7,11.9,3.8,17.5,5.9,5,1.9,10.2,6.5,15.4,7.7-.5-4.4-.3-8.9,0-11.8,0,0-.1-.1-.2-.2.2-.9.3-1.9.5-2.9,0,0,0-.1,0-.2-1-1.8-2.5-3.9-4.9-6.2-6.4-6.1-9.1-14-9.1-14-1.5,7.5.8,14.1,3.3,18.7,1.1,2,1.9,2.8,3.9,5.2,0,0,0,.2,0,.3.2,2.4-12.1-2.6-13.9-3.1-4-1.1-8-1.6-12.1-1.4-1,0-1.1,1.5-.4,2Z"/>
            <path class="cls-38" d="M367.9,177.8c-2.5-3.1-4.3-6.5-5.3-10.3-.4-1.4-2.5-.7-2.1.7,1,4,2.9,7.7,5.6,10.9.9,1.1,2.8-.1,1.8-1.2Z"/>
            <path class="cls-21" d="M373.2,200.4s-.9-.5-1.5-.9-9.1.3-9.1.3l-.6,4.7-.6,7.3,2,1.6s.2-.7.5-.2c.3.5,1.8.7,1.8.7l3.4-3.9s2.9-4.4,3.1-4.8c.2-.3,1-4.9,1-4.9Z"/>
            <path class="cls-52" d="M361.4,218.3s-.4-.6-.4.2c0,.8-3.1-1.7-3.4-3.3-.3-1.7-.9-5.9,0-7.9.9-2,5.7-8.2,5.7-8.2l6-.2,2.1.6,4.4,2.5-1.1,6.4s-6.3,11.7-6.6,11.7-6.6-1.7-6.6-1.7Z"/>
            <path class="cls-28" d="M408.6,176.8s6.7.3,7.3.5c0,0,2.1,4.1,3.8,8.1,4.3,10.1,8.6,33.3,4.6,48.9-3.9,15.2-33.4,10.7-47.5-2,0,0-.1,0-.2-.1-11.2-10.1,11.8-20.3,13.5-18.3.6.7,1.6,1.5,2.6,2.3,5.4,4.1,14.7,8.6,15.5,7.5.7-1,1.8-5.5,2-8.2.4-4.8.2-11.6-.1-18.2-.5-10.3-1.6-19.9-1.4-20.5Z"/>
            <path class="cls-15" d="M410,197.3c.4,6.6.6,13.4.1,18.2-.2,2.7-1.3,7.2-2,8.2-.8,1.1-10.1-3.4-15.5-7.5-.7,1-1.2,2.2-1.6,3.4-.2.3-.4.7-.3,1.1,0,0,0,.2,0,.3-.3,1.1.9,1.6,1.7,1.2,5.7,3.9,15.9,12.8,20.6,4.2,4.2-7.7,2.8-21.3-1.5-28.7-.4-.6-1-.7-1.4-.4Z"/>
            <path class="cls-37" d="M395.2,214.9c-1.6-1.8-12.8-13.6-23.6-15.6-4.9-.9-16.1-2.2-17.7,3.9-2.6,9.7,11.3,23.3,21.8,32.7,9.5-3.9,16.2-10,19.5-20.9Z"/>
            <path class="cls-28" d="M276,195.4c0-.6.3-1,.8-1.3-.7-.5-1.3-1.1-1.3-1.9,0-1.1.5-1.4,1.4-1.6.2,0,.3,0,.5,0,0,0,0-.1,0-.2,0-.3.2-.5.4-.7,1.3-.7,3-.5,4.4-.3,4.2.6,6.1-.1,7.4-1-1.2-.7-1.5-1-2.4-.9-.5,0-1.1,0-1.4-.6-.4-.6,0-1,.4-1.3.7-.6,2.3-.8,3.2-1,.6-.1,1.2,0,1.8.4,5.4,3.8,6.4,9.6,6.2,12.1-.1,1.1-3.1,5.6-3.2,5.4-.3-.6-3.9-4.5-4-5.6-3.6,1.8-7.9,2.8-8.8.8-2.6.2-5.2-.2-5.2-2.4Z"/>
            <path class="cls-28" d="M408.9,162.2c-.5.2-.8.5-.9,1.1,0,.6,0,1.2.3,1.8-.8-.4-1.5.6-1.4,1.4.2,1.7,1.4,3,1.9,4.6.4,1.2.5,2.4.5,3.6-1-1.3-1.1-3.3-2.5-4.4-.7-.6-1.7,0-1.8,1-.1,3.1,1.3,6,3.8,7.6,0,.3.3.6.7.7,2.9.6,5.7.2,6.8-3.2,1.1-3.5.5-8.3-.9-11.5-.3-.7-.9-.8-1.4-.5-.5-.8-1.2-1.5-2-1.9-.4-.2-.9-.2-1.2,0-.6-.4-1.2-.6-2-.3Z"/>
          </g>
        </g>
        <g>
          <path class="cls-1" d="M139.2,375.5h3.8c1.2,0,2.2-1,2.2-2.2v-118.9h-8.2v118.9c0,1.2,1,2.2,2.2,2.2Z"/>
          <path class="cls-2" d="M172.7,375.5h3.8c1.2,0,2.2-1,2.2-2.2v-118.9h-8.2v118.9c0,1.2,1,2.2,2.2,2.2Z"/>
          <path class="cls-1" d="M302.4,375.5h3.8c1.2,0,2.2-1,2.2-2.2v-118.9h-8.2v118.9c0,1.2,1,2.2,2.2,2.2Z"/>
          <path class="cls-2" d="M335.9,375.5h3.8c1.2,0,2.2-1,2.2-2.2v-118.9h-8.2v118.9c0,1.2,1,2.2,2.2,2.2Z"/>
          <rect class="cls-33" x="184.8" y="252.1" width="166.3" height="7.3"/>
          <rect class="cls-1" x="121.4" y="252.1" width="63.4" height="7.3"/>
        </g>
        <g>
          <g>
            <path class="cls-28" d="M161,358.1c-.8-1-9.3.2-9.4.7-.2,1.6-.4,7.6.5,8.4.8.7,9.3.4,9.4-1.1,0-1.3.3-7-.5-7.9Z"/>
            <path class="cls-16" d="M151.4,365.4s-3.7,5.8-.7,10.1c0,0,20.5.2,26.7-1,0,0-.1-7.6-5.5-8-5.3-.4-10.6,0-10.6,0,0,0-5.8,3-9.9-1Z"/>
            <path class="cls-7" d="M163.9,360.6s-.7.3-1.8.7c-1.7.6-4.2,1.5-6.7,1.9-1.2.2-2.3.3-3.3.2-1.2-.1-2.2-.5-2.8-1.2-2.2-7.8-3.7-26-5.5-39.8-.7-5.3-1.1-9.4-2.2-12.5-.9-2.7-6.7-4.4-14.1-6-.6-.1-1.1-.2-1.7-.4-1.8-.4-3.8-.8-5.8-1.2-1.1-.2-2.2-.5-3.3-.7-7.3-1.6-14.9-3.7-20.6-6.8-3.5-1.9-6.3-4.2-8.1-7.1,0-.1-.1-.2-.2-.3-2.7-4.8-2.7-9.7-1.1-14.1,4.2-11.5,19.3-19.7,24.9-14.1,0,0,6.6,1.7,15,5.3,1.7.7,3.4,1.5,5.2,2.4,1.1.5,2.1,1.1,3.2,1.7.2,0,.4.2.6.3,1.4.7,2.7,1.5,4.1,2.4.8.5,1.6,1,2.4,1.6,2.2,1.5,4.4,3.2,6.5,4.9,2.7,2.3,5.2,4.9,7.3,7.7,2.2,2.9,4,6.1,5.3,9.7.3.7.5,1.4.7,2.2.3,1,.6,2.1.8,3.1,0,.4.2.7.2,1.1.6,2.6,1,6.2,1.2,9.1h0c.9,14.5-.5,31.8-.3,49.9Z"/>
            <path class="cls-28" d="M191,359c-.7-1.1-9.2-1.1-9.4-.6-.4,1.5-1.4,7.5-.7,8.3.7.8,9.2,1.7,9.5.2.3-1.3,1.3-6.9.6-7.9Z"/>
            <path class="cls-16" d="M180.5,364.5s-3.8,5.8-.8,10.1c0,0,20.5.3,26.7-.9,0,0,0-7.6-5.4-8-5.3-.5-10.6-.1-10.6-.1,0,0-5.9,3-9.9-1.1Z"/>
            <path class="cls-18" d="M124.5,288.2c10.6,14.8,41.6,5.4,45,12.9,5.1,11,13.6,52.2,10.3,59.6.4.4.9.7,1.5,1,4,2.1,10.5,2.5,10.5,2.5,4.9-17.1,7.4-49.5,5.8-67.8-2.6-28.4-57.6-40.7-57.6-40.7-6.9-5.6-18.8,9.4-18.6,23.3,0,3.1,1,6.3,3.1,9.2Z"/>
            <path class="cls-7" d="M181.5,318.3c-.7-3.2-1.3-6.5-2.1-9.7-.5-2.1-1.1-4.1-1.8-6.1-2.5-7-7.5-9.2-13.8-10-1.5-.2-3-.3-4.6-.4-.1,0-.2,0-.3,0-2.3-.1-4.7-.2-7.1-.4-6.9-.6-13.9-2.1-19.2-6-2.3-1.7-4.2-3.9-5.7-6.7-.7-1.6-1.1-2.7-1.4-3.5-.1-.3-.2-.5-.4-.7-.2-.3-2.1-4.3-2.4-4.3-1.2,0-2.1,1.9-2.6,2.7,0,0,0,1.2,0,1.2-.2.3,0,1-.2,1.3-.1.1,1.3,1.7,1.2,1.8,0,.1,0,.2,0,.4h0c0,1.3.3,2.8.7,4.3,0,0,0,0,0,0h0c.5,1.9,1.3,3.8,2.3,5.4,0,0,0,.1.1.2.1.2.2.3.3.5.1.2.3.4.4.5.1.1.2.3.3.4,0,0,.1.2.2.2,0,0,.1.2.2.2,0,0,0,0,0,0,0,.1.2.2.3.3.1.1.2.2.3.3.2.2.4.4.6.6,0,0,.1.1.2.2.2.2.4.3.6.5,0,0,0,0,0,0,0,0,.2.1.3.2l.3.2c0,0,.1,0,.2.1.2.1.4.3.7.5.2.1.3.2.5.3,0,0,0,0,.1,0,0,0,0,0,0,0,.3.2.6.3.8.5.3.1.6.3.9.4,0,0,0,0,0,0,0,0,.2,0,.2.1.2,0,.4.2.5.2.3.1.6.2.9.4.3.1.6.2,1,.3.3.1.6.2,1,.3.3,0,.5.2.8.2.3,0,.6.2,1,.3.3,0,.5.1.8.2.4,0,.8.2,1.2.2.6.1,1.2.2,1.8.3.3,0,.6,0,.9.1.3,0,.6,0,.9.1.6,0,1.2.1,1.8.2.3,0,.6,0,.9,0,.3,0,.6,0,.9,0,.6,0,1.2,0,1.8.1.7,0,1.4,0,2.1.1.3,0,.5,0,.8,0,.5,0,1,0,1.5,0,.1,0,.2,0,.3,0,.3,0,.6,0,.9,0,.3,0,.6,0,.9,0,.3,0,.6,0,.9,0,1.5,0,2.9,0,4.3.2.5,0,.9,0,1.4,0,.2,0,.5,0,.7,0,.1,0,.3,0,.4,0h.6c.2,0,.3.1.5.1.3,0,.5,0,.8.1,0,0,0,0,.1,0,.1,0,.3,0,.4,0,.2,0,.3,0,.5.1.2,0,.5.1.7.2.2,0,.3,0,.5.1.2,0,.4.1.6.2.1,0,.3.1.4.2.1,0,.3.1.4.2.1,0,.2.1.4.2.1,0,.2.1.3.2,0,0,.1,0,.2.1,0,0,0,0,.1.1,0,0,.1,0,.2.2,0,0,.1.1.2.2,0,0,0,0,.1.1,0,0,0,0,0,.1.1.2.3.4.4.6,0,.1.1.3.2.4,0,.2.2.4.3.6,0,0,0,0,0,0,.1.4.3.7.4,1.1,0,.1.1.3.2.4.1.3.2.6.3.9,0,.3.2.6.3.8,0,.2.1.3.2.5.2.6.4,1.3.7,2,0,0,0,.1,0,.1.2.5.3,1.1.5,1.6,0,.3.2.6.2.8h0c0,.4.1.6.2.9.2.5.3,1.1.5,1.7.2.6.3,1.2.5,1.9,0,0,0,.1,0,.1,0,.3.2.6.2,1,.2.7.4,1.4.5,2.2,0,.3.1.5.2.8.2.7.3,1.3.5,2,0,.4.2.8.3,1.3.1.6.3,1.2.4,1.8,0,.3.1.5.2.8.1.5.2,1.1.3,1.6,0,.5.2.9.3,1.4,0,.2,0,.5.1.7,0,.5.2,1,.3,1.4,0,0,0,.1,0,.2.1.7.3,1.3.4,1.9,0,.1,0,.3,0,.4,0,.3.1.7.2,1,0,0,0,.1,0,.2,0,.3.1.6.2.9.1.7.2,1.4.4,2.1,0,.6.2,1.1.3,1.7.1.9.3,1.9.4,2.8,0,.2,0,.5,0,.7.3,2.3.6,4.5.8,6.5,0,.2,0,.4,0,.7,0,.3,0,.6,0,1,0,.3,0,.6,0,.9,0,.6,0,1.2,0,1.8,0,.2,0,.5,0,.7,0,.3,0,.6,0,.8,0,.3,0,.5,0,.8,0,0,0,0,0,0,0,.1,0,.3,0,.4,0,.2,0,.3,0,.5,0,.7,0,1.4-.1,2.1,0,.2,0,.3,0,.5,0,.1,0,.3,0,.4,0,.2,0,.3,0,.5,0,.1,0,.2,0,.3,0,.1,0,.2,0,.4,0,.2-.1.4-.2.6.3.3.7.5,1.1.8.1,0,.3.1.4.2.5-1.2,1-2.4,1.4-3.6.1-.4.3-.9.4-1.3,2.3-7.4,2.8-15.1,1.6-22.9-.8-5.2-2.1-10.4-3.3-15.6Z"/>
            <path class="cls-28" d="M143,261.6c-.2.9-12,9.4-18.8,12.7-11.7,5.8-31.9,11.4-37.2,11-2.2-.2-3.6-.6-4-1.3-1.2-2.1.1-23.8-1.8-37.9-.4-2.7-.7-5.5-1-8.2-1.5-14.2-1.9-27.7,1.1-30.5.7-.6,1.5-1.3,2.3-2.1,1.3-1.1,2.8-2.3,4.6-3.4,2.7-1.8,6-3.6,9.7-4.9,5.7-2.1,12.4-3.3,20-2.3,0,0,0,0,0,0,1.8.2,3.7.6,5.7,1.1.5.1.9.2,1.4.4,6.6,1.9,7,15.7,7.2,27.3,0,5.4,0,10.3.6,13.3.2,1,.4,2,.7,3,2.3,8.3,7.8,15.8,9.5,21.8Z"/>
            <path class="cls-28" d="M108.7,173l-12.6,3s-.3,8.5,6.3,13c.4.3.9.6,1.3.8l.9,5.3s5,3.1,8.1,2.2c1.4-.4-.3-3-.3-3l-.6-5.4c1.8-1.5,2.7-3.6,2.3-5.3-1.6-5.3-5.3-10.6-5.3-10.6Z"/>
            <path class="cls-38" d="M145.7,261.7c-.2.9-15.9,10.3-24.9,15.1-11.5,6.1-28.4,9-33.8,8.5-2.2-.2-3.6-.6-4-1.3-1.2-2.1.1-23.8-1.8-37.9-.4-2.7-.7-5.5-1-8.2-1.5-14.2-1.9-27.7,1.1-30.5.7-.6,1.5-1.3,2.3-2.1,1.3-1.1,2.8-2.3,4.6-3.4,2.7-1.8,6-3.6,9.7-4.9,5.7-2.1,12.4-3.3,20-2.3,0,0,0,0,0,0,1.8.2,3.7.6,5.7,1.1.5.1.9.2,1.4.4,6.6,1.9,7,15.7,7.2,27.3,0,5.4,14.8,37.4,13.5,38.2Z"/>
            <path class="cls-19" d="M124,206.9c1.8-.4,5.1-.5,5.1-.5l2,.3c.9,5,1,11.2,1.1,16.8,0,5.4,14.8,37.4,13.5,38.2-.2.7-9.5,6.4-17.8,11.2,0,0,0,0,0,0,6.6-17.4-1.9-37.8-2.4-46.4-.5-8.6-6.2-14.4-6.2-14.4,0,0,2.9-4.8,4.7-5.2Z"/>
            <path class="cls-28" d="M194,220.7c0-.5-.4-.8-.9-1,.5-.6.9-1.2.8-1.8,0-.9-.7-1.1-1.5-1.2-.1,0-.3,0-.4,0,0,0,0-.1,0-.2,0-.2-.2-.4-.5-.5-1.3-.4-2.6,0-3.8.5-3.5,1.2-5.3.9-6.5.3,1-.8,1.1-1.1,2-1.1.4,0,.9-.2,1.1-.7.2-.6-.1-.9-.5-1.1-.7-.4-2.1-.3-2.9-.4-.6,0-1.1.2-1.5.6-4.1,4.1-4,9.2-3.4,11.4.3.9,3.5,4.4,3.6,4.1.2-.6,2.6-4.4,2.6-5.4,3.4,1,7.3,1.2,7.7-.7,2.3-.2,4.5-1,4.1-2.9Z"/>
            <path class="cls-28" d="M176.4,220s5.4,1.7,5.9,4.2c0,0-10.4,33.4-20.6,31.4-19.6-3.7-35.5-17.2-35.6-34.4,0,0,20.3-4.1,18.8-2.2-.5.7,14.9,21,16,21.4,1,.5,12.5-15.6,15.6-20.5Z"/>
            <path class="cls-38" d="M126.5,235.6c-1.4-1.8-10.2-14-10.2-24.1,0-4.6.7-15,6.5-15.4,9.3-.7,19.2,14.2,26,25.3-5.1,8-11.8,13-22.3,14.2Z"/>
          </g>
          <g>
            <path class="cls-36" d="M122,367h-3.1c-1.1,0-2.1-.9-2.1-2.1v-14.6h7.3v14.6c0,1.1-.9,2.1-2.1,2.1Z"/>
            <path class="cls-36" d="M163.3,371.1c1.2-3.7-.8-7.7-4.5-8.9l-33-10.8v-44h-11v44.2l-32.5,10.7c-3.7,1.2-5.7,5.2-4.5,8.9l42.7-14h0l42.7,14Z"/>
            <path class="cls-36" d="M126.8,352.5h-12.4v-48.1c0-2,1.6-3.5,3.5-3.5h5.3c2,0,3.5,1.6,3.5,3.5v48.1Z"/>
            <g>
              <path class="cls-2" d="M88.4,368.5c0-3.8-3.1-6.9-6.9-6.9s-6.9,3.1-6.9,6.9,3.1,6.9,6.9,6.9,6.9-3.1,6.9-6.9Z"/>
              <circle class="cls-44" cx="81.4" cy="368.5" r="5.4"/>
            </g>
            <g>
              <path class="cls-2" d="M127.3,368.5c0-3.8-3.1-6.9-6.9-6.9s-6.9,3.1-6.9,6.9,3.1,6.9,6.9,6.9,6.9-3.1,6.9-6.9Z"/>
              <circle class="cls-44" cx="120.4" cy="368.5" r="5.4"/>
            </g>
            <g>
              <path class="cls-2" d="M167.5,368.5c0-3.8-3.1-6.9-6.9-6.9s-6.9,3.1-6.9,6.9,3.1,6.9,6.9,6.9,6.9-3.1,6.9-6.9Z"/>
              <path class="cls-44" d="M166,368.5c0-3-2.4-5.4-5.4-5.4s-5.4,2.4-5.4,5.4,2.4,5.4,5.4,5.4,5.4-2.4,5.4-5.4Z"/>
            </g>
            <path class="cls-2" d="M130.2,306.3h-18.2c-2.7,0-4.8-3.8-4.8-8.5h27.8c0,4.7-2.2,8.5-4.8,8.5Z"/>
            <path class="cls-54" d="M142.4,287h-7.2c-7.9,0-14.6-6.2-15.2-14.1l-1.1-35.2c-.2-3-2.9-5.3-6-5.1h-46s0,0,0,0c-2.9.3-5.1,2.9-4.9,5.9l1.1,35.2c1.1,13.6,12.6,24.2,26.2,24.2h53.1c3.1,0,5.5-2.5,5.5-5.5s-2.5-5.5-5.5-5.5Z"/>
            <path class="cls-31" d="M159.1,298h-21.5c-13.6,0-25.2-10.7-26.2-24.2l-1.1-35.2c-.2-3,2-5.7,5.1-5.9,3-.2,5.7,2,5.9,5.1l1.1,35.2c.6,7.9,7.3,14.1,15.2,14.1h21.5c3.1,0,5.5,2.5,5.5,5.5s-2.5,5.5-5.5,5.5Z"/>
          </g>
          <path class="cls-17" d="M109.9,175.2c-.4,0-.6-.2-.9-.3-.7,0-1.6-.2-2.8-.8-.7.6-.4.7-1.2,1.1.6,1,.3,5.1,0,6.2-.5,1.7-1.2,2.3-2.4,3.1,0,.1-.1.3-.2.4,0,0,0,0,0,.1,0,0,0,0,0,.1,0,.2,0,.3,0,.5h0c0,.2,0,.4,0,.7,1.4,1.9,2,3.4,1.3,5.8,2.7,1.3,3.6,10.5,2.5,13,0,0,0,0,0,0,.1.4.2.8.3,1.2,4.7,4-18.5,9.1-21.1,4.8-.1,0-.3-.2-.4-.4,0,0,0-.1-.1-.2-1.5.6-3.3.6-4.5-1-1.3-1.8-.3-9.9,1-11.2-2.6-2.6-3.2-5.8,0-7.8-.6-1.8-.6-3.5,0-5,.7-1.9,2.3-3.3,4.5-3.8-.4-2.6,1.4-5,3.2-5-1.1-2.6-1.3-3.5.9-5.6.8-.7,2-1,3-.9.1-2.1,1.7-3.4,4.3-4.2,1.4-.4,2.4-.2,2.9.6.9-.6,2-.8,3.2-.8,1.9,0,2.6.5,3.2,1.8,1-.2,2,0,2.7.9.2.2.3.5.3.7,3.6-.2,4,6.7.4,6.1Z"/>
        </g>
        <g class="cls-25">
          <circle class="cls-42" cx="105.1" cy="120" r="46.2" transform="translate(-15.9 16) rotate(-8.1)"/>
        </g>
        <g>
          <g>
            <path class="cls-54" d="M86.4,117.9c0-10,8.2-18,18.2-18,10,0,18.1,8.2,18,18.2,0,4.7-1.8,8.9-4.7,12.1-3.6,3.9-6.2,9-6.3,14.4v.5s-14.6-.1-14.6-.1v-.5c0-5.4-2.5-10.5-6.1-14.5-2.9-3.2-4.6-7.5-4.5-12.1Z"/>
            <path class="cls-17" d="M99.8,131.4s-.9-4-1.6-7.9c-.4-2.3-.6-4-.6-5.2-.3,0-.7-.2-1-.5-2.8-2-.2-6,0-6.1,0-.1.3-.2.6,0,.2.1.3.3.2.4-.7,1-2.1,4-.2,5.3.2.1.3.2.5.3,0-2.5.5-2.6.9-2.6.5,0,1.1,0,1.4.4.6.7.2,2.1-.8,2.7-.2,0-.3.1-.5.2.2,3,1,8.3,2.2,13.1,0,.2-.1.3-.4.3,0,0-.1,0-.2,0-.2,0-.3-.2-.3-.3ZM98.9,115.6c-.3,0-.4.8-.4,1.9.7-.4,1-1.5.7-1.9,0,0,0,0,0,0,0,0,0,0-.2,0Z"/>
            <path class="cls-17" d="M108.7,131.7c0,0-.1,0-.2,0-.2,0-.4-.1-.4-.3,1.2-4.9,2.2-10.1,2.4-13.1-.2,0-.4,0-.5-.2-1-.5-1.4-2-.8-2.7.3-.4.8-.5,1.4-.4.3,0,.9.2.8,2.6.2,0,.3-.1.5-.3,1.9-1.3.5-4.3-.1-5.3,0-.1,0-.3.2-.4.2-.1.5,0,.6,0,.1.2,2.6,4.2-.2,6.1-.3.2-.7.4-1,.5,0,1.2-.3,2.9-.7,5.2-.7,3.9-1.7,7.9-1.7,7.9,0,.1-.2.2-.3.3ZM109.9,115.7s0,0,0,0c-.3.3,0,1.4.7,1.9,0-1.1,0-1.8-.4-1.9-.1,0-.2,0-.2,0Z"/>
            <path class="cls-17" d="M99.8,130.9l.4-.4c2.4-2,5.9-1.9,8.3,0l.4.4v14.6c-.1,0-9.3,0-9.3,0v-14.6ZM108.1,131.4h-.1c-2.1-1.8-5.1-1.9-7.2-.2h-.1c0,.1,0,13.5,0,13.5h7.5c0,0,0-13.3,0-13.3Z"/>
            <path class="cls-48" d="M96.7,146.2h15.2c.6.1,1.1-.4,1.1-1h0c0-.6-.5-1.1-1.1-1.1h-15.2c-.6-.1-1.1.4-1.1,1h0c0,.6.5,1.1,1.1,1.1Z"/>
            <path class="cls-51" d="M97.5,148.4h13.6c.6.1,1-.4,1-1h0c0-.6-.4-1.1-1-1.1h-13.6c-.6-.1-1,.4-1,1h0c0,.6.4,1.1,1,1.1Z"/>
            <path class="cls-48" d="M97.5,150.6h13.6c.6.1,1-.4,1-1h0c0-.6-.4-1.1-1-1.1h-13.5c-.6-.1-1,.4-1,1h0c0,.6.4,1.1,1,1.1Z"/>
            <path class="cls-51" d="M97.5,152.8h13.5c.6.1,1-.4,1-1h0c0-.6-.4-1.1-1-1.1h-13.6c-.6-.1-1,.4-1,1h0c0,.6.4,1.1,1,1.1Z"/>
            <path class="cls-48" d="M97.5,155h13.5c.6.1,1-.4,1-1h0c0-.6-.4-1.1-1-1.1h-13.5c-.6-.1-1,.4-1,1h0c0,.6.4,1.1,1,1.1Z"/>
            <path class="cls-51" d="M107.8,157.3h-7.2c-1.2,0-2.2-1.1-2.2-2.3h11.6c0,1.3-1,2.3-2.3,2.3Z"/>
          </g>
          <g>
            <path class="cls-54" d="M104.4,94.5c-.6-.1-1-.7-1-1.3v-7.2c0-.7.6-1.3,1.4-1.3.7,0,1.3.6,1.3,1.3v7.2c0,.7-.6,1.3-1.4,1.3-.1,0-.2,0-.3,0Z"/>
            <path class="cls-54" d="M92.1,96.8c-.3,0-.6-.3-.8-.6l-3.9-6.3c-.4-.6-.2-1.4.4-1.8.6-.4,1.4-.2,1.8.4l3.9,6.3c.4.6.2,1.4-.4,1.8-.3.2-.7.2-1,.2Z"/>
            <path class="cls-54" d="M83.8,106.3c0,0-.2,0-.2,0l-6.8-3c-.7-.3-.9-1.1-.7-1.7.3-.6,1.1-.9,1.7-.6l6.8,3c.7.3.9,1.1.7,1.7-.3.6-.9.9-1.5.7Z"/>
            <path class="cls-54" d="M74.7,121.8c-.5-.1-1-.6-1-1.2,0-.7.5-1.3,1.2-1.3l6.1-.2c.7,0,1.3.5,1.3,1.2,0,.7-.5,1.3-1.2,1.3l-6.1.2c-.1,0-.2,0-.4,0Z"/>
            <path class="cls-54" d="M117.5,97c-.1,0-.3,0-.4-.2-.6-.4-.8-1.2-.4-1.8l4-6.2c.4-.6,1.2-.8,1.8-.4.6.4.8,1.2.4,1.8l-4,6.2c-.3.5-.9.7-1.4.6Z"/>
            <path class="cls-54" d="M125.7,106.7c-.4,0-.7-.4-.9-.7-.3-.7,0-1.4.7-1.7l6.8-2.9c.7-.3,1.4,0,1.7.7.3.7,0,1.4-.7,1.7l-6.8,2.9c-.3.1-.6.1-.8,0Z"/>
            <path class="cls-54" d="M128.4,121.9c-.6-.1-1-.7-1-1.3,0-.7.6-1.3,1.4-1.2l6.1.3c.7,0,1.3.6,1.2,1.4,0,.7-.6,1.3-1.4,1.2l-6.1-.3c0,0-.2,0-.2,0Z"/>
          </g>
        </g>
        <g class="cls-34">
          <circle class="cls-40" cx="218.8" cy="43.4" r="46.2" transform="translate(171 261.3) rotate(-88.9)"/>
        </g>
        <g>
          <g>
            <path class="cls-54" d="M199,40.7c0-10.9,9-19.7,19.9-19.6,10.9,0,19.7,9,19.6,19.9,0,5.1-2,9.7-5.2,13.2-3.9,4.3-6.8,9.9-6.8,15.7v.6s-16-.1-16-.1v-.5c0-5.9-2.7-11.5-6.6-15.9-3.1-3.5-5-8.2-5-13.2Z"/>
            <path class="cls-17" d="M213.7,55.3s-1-4.4-1.7-8.7c-.4-2.5-.6-4.3-.7-5.7-.4,0-.8-.3-1.1-.5-3.1-2.1-.2-6.5-.1-6.7,0-.1.4-.2.6,0,.2.1.4.3.3.5-.8,1.1-2.3,4.4-.2,5.8.2.1.4.2.6.3,0-2.7.6-2.8,1-2.8.6,0,1.2,0,1.5.5.7.8.2,2.3-.9,2.9-.2,0-.4.2-.6.2.2,3.3,1.1,9,2.4,14.3,0,.2-.1.3-.4.3,0,0-.1,0-.2,0-.2,0-.3-.2-.4-.3ZM212.7,38.2c-.3,0-.5.8-.5,2.1.8-.5,1.1-1.6.7-2,0,0,0,0,0,0,0,0-.1,0-.2,0Z"/>
            <path class="cls-17" d="M223.4,55.8c0,0-.1,0-.2,0-.3,0-.4-.1-.4-.3,1.3-5.3,2.4-11,2.6-14.3-.2,0-.4-.1-.6-.2-1.1-.6-1.6-2.1-.9-2.9.3-.4.9-.6,1.5-.5.4,0,1,.2.9,2.9.2,0,.4-.1.6-.3,2-1.4.6-4.7-.1-5.8,0-.2,0-.4.3-.5.2-.1.5,0,.6,0,.1.2,2.9,4.6-.2,6.7-.4.3-.8.4-1.1.5,0,1.3-.3,3.1-.8,5.6-.8,4.3-1.8,8.6-1.8,8.6,0,.1-.2.3-.4.3ZM224.7,38.3s0,0,0,0c-.3.4,0,1.6.7,2,0-1.2-.1-2-.4-2.1-.1,0-.2,0-.2,0Z"/>
            <path class="cls-17" d="M213.7,54.8l.5-.4c2.6-2.1,6.4-2.1,9.1,0l.5.4v16c-.1,0-10.1,0-10.1,0v-16ZM222.8,55.4h-.1c-2.3-2-5.6-2-7.9-.2h-.1c0,.1-.1,14.7-.1,14.7h8.1c0,0,.1-14.5.1-14.5Z"/>
            <path class="cls-48" d="M210.3,71.5h16.6c.7.1,1.2-.4,1.2-1.1h0c0-.7-.5-1.2-1.2-1.2h-16.6c-.7-.1-1.2.4-1.2,1.1h0c0,.7.5,1.2,1.2,1.2Z"/>
            <path class="cls-51" d="M211.2,73.9h14.8c.6.1,1.1-.4,1.1-1.1h0c0-.7-.5-1.2-1.1-1.2h-14.8c-.6-.1-1.1.4-1.1,1.1h0c0,.7.5,1.2,1.1,1.2Z"/>
            <path class="cls-48" d="M211.1,76.3h14.8c.6.1,1.1-.4,1.1-1.1h0c0-.7-.5-1.2-1.1-1.2h-14.8c-.6-.1-1.1.4-1.1,1.1h0c0,.7.5,1.2,1.1,1.2Z"/>
            <path class="cls-51" d="M211.1,78.7h14.8c.6.1,1.1-.4,1.1-1.1h0c0-.7-.5-1.2-1.1-1.2h-14.8c-.6-.1-1.1.4-1.1,1.1h0c0,.7.5,1.2,1.1,1.2Z"/>
            <path class="cls-48" d="M211.1,81.1h14.8c.6.1,1.1-.4,1.1-1.1h0c0-.7-.5-1.2-1.1-1.2h-14.8c-.6-.1-1.1.4-1.1,1.1h0c0,.7.5,1.2,1.1,1.2Z"/>
            <path class="cls-51" d="M222.4,83.6h-7.8c-1.3,0-2.4-1.2-2.4-2.5h12.7c0,1.4-1.1,2.5-2.5,2.5Z"/>
          </g>
          <g>
            <path class="cls-54" d="M218.7,15.1c-.6-.2-1.1-.7-1.1-1.4v-7.9c0-.8.7-1.4,1.5-1.4.8,0,1.4.6,1.4,1.4v7.9c0,.8-.7,1.4-1.5,1.4-.1,0-.2,0-.3,0Z"/>
            <path class="cls-54" d="M205.3,17.7c-.3,0-.7-.3-.9-.6l-4.2-6.8c-.4-.7-.2-1.5.5-1.9.7-.4,1.5-.2,1.9.5l4.2,6.8c.4.7.2,1.5-.5,1.9-.3.2-.7.3-1.1.2Z"/>
            <path class="cls-54" d="M196.3,28c0,0-.2,0-.2,0l-7.4-3.3c-.7-.3-1-1.2-.7-1.9.3-.7,1.1-1,1.9-.7l7.4,3.3c.7.3,1,1.2.7,1.9-.3.6-1,.9-1.6.8Z"/>
            <path class="cls-54" d="M186.3,44.9c-.6-.1-1-.7-1.1-1.3,0-.8.6-1.4,1.4-1.5l6.7-.2c.8,0,1.4.6,1.5,1.4,0,.8-.6,1.4-1.4,1.5l-6.7.2c-.1,0-.3,0-.4,0Z"/>
            <path class="cls-54" d="M233,17.9c-.1,0-.3,0-.4-.2-.7-.4-.8-1.3-.4-1.9l4.3-6.8c.4-.7,1.3-.8,1.9-.4.7.4.8,1.3.4,1.9l-4.3,6.8c-.3.5-.9.7-1.5.6Z"/>
            <path class="cls-54" d="M241.9,28.4c-.4-.1-.8-.4-1-.8-.3-.7,0-1.5.7-1.8l7.4-3.2c.7-.3,1.5,0,1.8.7.3.7,0,1.5-.7,1.8l-7.4,3.2c-.3.1-.6.1-.9,0Z"/>
            <path class="cls-54" d="M244.9,45c-.6-.2-1.1-.8-1.1-1.4,0-.8.7-1.4,1.5-1.3l6.7.3c.8,0,1.4.7,1.3,1.5,0,.8-.7,1.4-1.5,1.3l-6.7-.3c0,0-.2,0-.3,0Z"/>
          </g>
        </g>
        <g class="cls-49">
          <path class="cls-41" d="M403.1,115.7c0,25.5-20.7,46.2-46.2,46.2s-46.2-20.7-46.2-46.2,20.7-46.2,46.2-46.2,46.2,20.7,46.2,46.2Z"/>
        </g>
        <g>
          <g>
            <path class="cls-54" d="M339,116c0-10,8.2-18,18.2-18,10,0,18.1,8.2,18,18.2,0,4.7-1.8,8.9-4.7,12.1-3.6,3.9-6.2,9-6.3,14.4v.5s-14.6-.1-14.6-.1v-.5c0-5.4-2.5-10.5-6-14.5-2.9-3.2-4.6-7.5-4.5-12.1Z"/>
            <path class="cls-17" d="M352.5,129.4s-.9-4-1.6-7.9c-.4-2.3-.6-4-.6-5.2-.3,0-.7-.2-1-.5-2.8-2-.2-6,0-6.1,0-.1.3-.2.6,0,.2.1.3.3.2.4-.7,1-2.1,4-.2,5.3.2.1.3.2.5.3,0-2.5.5-2.6.9-2.6.5,0,1.1,0,1.4.4.6.7.2,2.1-.8,2.7-.2,0-.3.1-.5.2.2,3,1,8.3,2.2,13.1,0,.2-.1.3-.4.3,0,0-.1,0-.2,0-.2,0-.3-.2-.3-.3ZM351.5,113.7c-.3,0-.4.8-.4,1.9.7-.4,1-1.5.7-1.9,0,0,0,0,0,0,0,0,0,0-.2,0Z"/>
            <path class="cls-17" d="M361.3,129.8c0,0-.1,0-.2,0-.2,0-.4-.1-.4-.3,1.2-4.9,2.2-10.1,2.4-13.1-.2,0-.4,0-.5-.2-1-.5-1.4-2-.8-2.7.3-.3.8-.5,1.4-.4.3,0,.9.2.8,2.6.2,0,.3-.1.5-.3,1.9-1.3.5-4.3-.1-5.3,0-.1,0-.3.2-.4.2-.1.5,0,.6,0,.1.2,2.6,4.2-.2,6.1-.3.2-.7.4-1,.5,0,1.2-.3,2.9-.7,5.2-.7,3.9-1.7,7.9-1.7,7.9,0,.1-.2.2-.3.3ZM362.6,113.8s0,0,0,0c-.3.3,0,1.4.7,1.9,0-1.1,0-1.8-.4-1.9-.1,0-.2,0-.2,0Z"/>
            <path class="cls-17" d="M352.5,128.9l.4-.4c2.4-2,5.9-1.9,8.3,0l.4.4v14.6c-.1,0-9.3,0-9.3,0v-14.6ZM360.8,129.4h-.1c-2.1-1.8-5.1-1.9-7.2-.2h-.1c0,.1,0,13.5,0,13.5h7.5c0,0,0-13.3,0-13.3Z"/>
            <path class="cls-48" d="M349.4,144.2h15.2c.6.1,1.1-.4,1.1-1h0c0-.6-.5-1.1-1.1-1.1h-15.2c-.6-.1-1.1.4-1.1,1h0c0,.6.5,1.1,1.1,1.1Z"/>
            <path class="cls-51" d="M350.2,146.4h13.6c.6.1,1-.4,1-1h0c0-.6-.4-1.1-1-1.1h-13.6c-.6-.1-1,.4-1,1h0c0,.6.4,1.1,1,1.1Z"/>
            <path class="cls-48" d="M350.1,148.6h13.6c.6.1,1-.4,1-1h0c0-.6-.4-1.1-1-1.1h-13.5c-.6-.1-1,.4-1,1h0c0,.6.4,1.1,1,1.1Z"/>
            <path class="cls-51" d="M350.1,150.8h13.5c.6.1,1-.4,1-1h0c0-.6-.4-1.1-1-1.1h-13.5c-.6-.1-1,.4-1,1h0c0,.6.4,1.1,1,1.1Z"/>
            <path class="cls-48" d="M350.1,153h13.5c.6.1,1-.4,1-1h0c0-.6-.4-1.1-1-1.1h-13.6c-.6-.1-1,.4-1,1h0c0,.6.4,1.1,1,1.1Z"/>
            <path class="cls-51" d="M360.5,155.3h-7.2c-1.2,0-2.2-1.1-2.2-2.3h11.6c0,1.3-1,2.3-2.3,2.3Z"/>
          </g>
          <g>
            <path class="cls-54" d="M357,92.5c-.6-.1-1-.7-1-1.3v-7.2c0-.7.6-1.3,1.4-1.3.7,0,1.3.6,1.3,1.3v7.2c0,.7-.6,1.3-1.4,1.3-.1,0-.2,0-.3,0Z"/>
            <path class="cls-54" d="M344.8,94.9c-.3,0-.6-.3-.8-.6l-3.9-6.3c-.4-.6-.2-1.4.4-1.8.6-.4,1.4-.2,1.8.4l3.9,6.3c.4.6.2,1.4-.4,1.8-.3.2-.7.2-1,.2Z"/>
            <path class="cls-54" d="M336.5,104.4c0,0-.2,0-.2,0l-6.8-3c-.6-.3-.9-1.1-.6-1.7.3-.6,1.1-.9,1.7-.6l6.8,3c.7.3.9,1.1.7,1.7-.3.6-.9.9-1.5.7Z"/>
            <path class="cls-54" d="M327.4,119.8c-.5-.1-1-.6-1-1.2,0-.7.5-1.3,1.2-1.3l6.1-.2c.7,0,1.3.5,1.3,1.2,0,.7-.5,1.3-1.2,1.3l-6.1.2c-.1,0-.2,0-.4,0Z"/>
            <path class="cls-54" d="M370.2,95.1c-.1,0-.3,0-.4-.2-.6-.4-.8-1.2-.4-1.8l4-6.2c.4-.6,1.2-.8,1.8-.4.6.4.8,1.2.4,1.8l-4,6.2c-.3.5-.9.7-1.4.6Z"/>
            <path class="cls-54" d="M378.3,104.7c-.4,0-.7-.4-.9-.7-.3-.7,0-1.4.7-1.7l6.8-2.9c.7-.3,1.4,0,1.7.7.3.7,0,1.4-.7,1.7l-6.8,2.9c-.3.1-.6.1-.8,0Z"/>
            <path class="cls-54" d="M381.1,120c-.6-.1-1-.7-1-1.3,0-.7.6-1.3,1.4-1.2l6.1.3c.7,0,1.3.6,1.2,1.4,0,.7-.6,1.3-1.4,1.2l-6.1-.3c0,0-.2,0-.2,0Z"/>
          </g>
        </g>
      </g>
    </g>
  </g>
</svg>