<?xml version="1.0" encoding="UTF-8"?>
<svg xmlns="http://www.w3.org/2000/svg" version="1.1" xmlns:xlink="http://www.w3.org/1999/xlink" viewBox="0 0 471.7 391.3">
  <defs>
    <style>
      .cls-1 {
        fill: #eaf4f5;
      }

      .cls-2 {
        fill: #fff;
      }

      .cls-3 {
        fill: #d8eef0;
      }

      .cls-4 {
        fill: none;
      }

      .cls-5 {
        fill: #87b8c7;
      }

      .cls-6 {
        fill: #ff586a;
      }

      .cls-7 {
        fill: #c3e4e8;
      }

      .cls-8 {
        fill: #78a8b3;
      }

      .cls-9 {
        fill: #fed8c5;
      }

      .cls-10 {
        fill: #eeac96;
      }

      .cls-11 {
        clip-path: url(#clippath);
      }

      .cls-12 {
        fill: #cf4755;
      }
    </style>
    <clipPath id="clippath">
      <path class="cls-4" d="M196.5,181l-.5,117.6c0,3.1,2.5,5.6,5.6,5.6h180.4c3.1,0,5.6-2.5,5.6-5.5l.5-117.6c0-3.9-3.2-7.1-7.1-7.1h-177.3c-3.9,0-7.1,3.1-7.1,7.1Z"/>
    </clipPath>
  </defs>
  <!-- Generator: Adobe Illustrator 28.7.1, SVG Export Plug-In . SVG Version: 1.2.0 Build 142)  -->
  <g>
    <g id="_レイヤー_1" data-name="レイヤー_1">
      <g>
        <g>
          <path class="cls-1" d="M85.4,220.2c-15.5,29.6-4.1,57.6,2.2,73.3,13.1,32.3,57.1,73.8,162.5,81,135.7,9.3,156.3-108.7,152.5-159.5-3.8-50.8-9.7-117.5-121.1-154.6-111.4-37.1-67.7,91.7-153.4,129.5-15.2,6.7-34.9,15.4-42.7,30.3Z"/>
          <path class="cls-1" d="M93.5,166.5c1.3,3.1,4.1,5.1,7.4,5.4,12.7,1.2,31.1-4.1,50.1-28,21.2-26.7,44.5-54.2,21.7-52.1-22.8,2.1-60.5,23.8-74.1,46.4-8.4,13.9-7.2,23.2-5.1,28.3Z"/>
        </g>
        <rect class="cls-3" x="89.3" y="375.1" width="302.1" height="2.3"/>
        <g>
          <g>
            <g>
              <path class="cls-3" d="M155.2,272.5h-28.3v-15.5h28.3v15.5ZM128.5,270.9h25.2v-12.3h-25.2v12.3Z"/>
              <path class="cls-3" d="M135.8,286.4h-28.3v-15.5h28.3v15.5ZM109,284.8h25.2v-12.3h-25.2v12.3Z"/>
            </g>
            <path class="cls-3" d="M225.2,138.9h-28.3v-15.5h28.3v15.5ZM198.4,137.3h25.2v-12.3h-25.2v12.3Z"/>
            <g>
              <path class="cls-3" d="M275,310.5h-28.3v-15.5h28.3v15.5ZM248.3,308.9h25.2v-12.3h-25.2v12.3Z"/>
              <path class="cls-3" d="M248.3,310.5h-28.3v-15.5h28.3v15.5ZM221.5,308.9h25.2v-12.3h-25.2v12.3Z"/>
              <path class="cls-3" d="M261.7,324.4h-28.3v-15.5h28.3v15.5ZM234.9,322.8h25.2v-12.3h-25.2v12.3Z"/>
            </g>
          </g>
          <g>
            <g>
              <path class="cls-3" d="M251.9,209.8h-28.3v-15.5h28.3v15.5ZM225.2,208.2h25.2v-12.3h-25.2v12.3Z"/>
              <path class="cls-3" d="M271.3,223.7h-28.3v-15.5h28.3v15.5ZM244.6,222.1h25.2v-12.3h-25.2v12.3Z"/>
            </g>
            <g>
              <path class="cls-3" d="M363.6,157.1h-28.3v-15.5h28.3v15.5ZM336.8,155.5h25.2v-12.3h-25.2v12.3Z"/>
              <path class="cls-3" d="M336.8,157.1h-28.3v-15.5h28.3v15.5ZM310.1,155.5h25.2v-12.3h-25.2v12.3Z"/>
              <path class="cls-3" d="M350.2,171.1h-28.3v-15.5h28.3v15.5ZM323.5,169.5h25.2v-12.3h-25.2v12.3Z"/>
            </g>
          </g>
        </g>
      </g>
      <g>
        <g>
          <g>
            <path class="cls-2" d="M200.5,305.5c-2.4,0-4.4-2-4.4-4.4v-131.7c0-3.1,2.5-5.7,5.7-5.7h180.8c3.1,0,5.7,2.5,5.7,5.7v131.7c0,2.4-2,4.4-4.4,4.4h-183.4Z"/>
            <path class="cls-5" d="M382.5,164.2c2.9,0,5.3,2.4,5.3,5.3v131.7c0,2.2-1.8,4-4,4h-183.4c-2.2,0-4-1.8-4-4v-131.7c0-2.9,2.4-5.3,5.3-5.3h180.8ZM382.5,163.5h-180.8c-3.3,0-6,2.7-6,6v131.7c0,2.6,2.1,4.7,4.7,4.7h183.4c2.6,0,4.7-2.1,4.7-4.7v-131.7c0-3.3-2.7-6-6-6h0Z"/>
          </g>
          <path d="M388.6,184.2h-192.8v-14.7c0-3.3,2.7-6,6-6h180.8c3.3,0,6,2.7,6,6v14.7Z"/>
          <g>
            <path class="cls-5" d="M228.9,173.8c0-1.8,1.4-3.2,3.2-3.2s3.2,1.4,3.2,3.2-1.4,3.2-3.2,3.2-3.2-1.4-3.2-3.2Z"/>
            <path class="cls-6" d="M216.7,173.8c0-1.8,1.4-3.2,3.2-3.2s3.2,1.4,3.2,3.2-1.4,3.2-3.2,3.2-3.2-1.4-3.2-3.2Z"/>
            <path class="cls-2" d="M204.4,173.8c0-1.8,1.4-3.2,3.2-3.2s3.2,1.4,3.2,3.2-1.4,3.2-3.2,3.2-3.2-1.4-3.2-3.2Z"/>
          </g>
          <polygon class="cls-2" points="373.4 171.5 375 169.9 377.2 172.2 379.5 169.9 381 171.5 378.8 173.7 381 176 379.5 177.6 377.2 175.3 375 177.6 373.4 176 375.6 173.7 373.4 171.5"/>
        </g>
        <g class="cls-11">
          <path class="cls-7" d="M195.9,214.3v12.9h-3.2c-.2,0-.3.2-.3.4s.1.4.3.4h3.2v12.9h-3.2c-.2,0-.3.2-.3.4s.1.4.3.4h3.2v11.6h-3.2c-.2,0-.3.2-.3.4s.1.4.3.4h3.2v12.9h-3.2c-.2,0-.3.2-.3.4s.1.4.3.4h3.2v12.9h-3.2c-.2,0-.3.2-.3.4s.1.4.3.4h3.2v12.9h-3.2c-.2,0-.3.2-.3.4s.1.4.3.4h3.2v9.2c0,.2.1.4.3.4s.3-.2.3-.4v-9.2h9v9.2c0,.2.1.4.3.4s.3-.2.3-.4v-9.2h9.2v9.2c0,.2.1.4.3.4s.3-.2.3-.4v-9.2h9v9.2c0,.2.1.4.3.4s.3-.2.3-.4v-9.2h9v9.2c0,.2.1.4.3.4s.3-.2.3-.4v-9.2h9v9.2c0,.2.1.4.3.4s.3-.2.3-.4v-9.2h9v9.2c0,.2.1.4.3.4s.3-.2.3-.4v-9.2h9v9.2c0,.2.1.4.3.4s.3-.2.3-.4v-9.2h9v9.2c0,.2.1.4.3.4s.3-.2.3-.4v-9.2h9v9.2c0,.2.1.4.3.4s.3-.2.3-.4v-9.2h9v9.2c0,.2.1.4.3.4h0c.2,0,.3-.2.3-.4v-9.2h9v9.2c0,.2.1.4.3.4s.3-.2.3-.4v-9.2h9.2v9.2c0,.2.1.4.3.4s.3-.2.3-.4v-9.2h9v9.2c0,.2.1.4.3.4s.3-.2.3-.4v-9.2h9v9.2c0,.2.1.4.3.4s.3-.2.3-.4v-9.2h9v9.2c0,.2.1.4.3.4s.3-.2.3-.4v-9.2h9v9.2c0,.2.1.4.3.4s.3-.2.3-.4v-9.2h9v9.2c0,.2.1.4.3.4s.3-.2.3-.4v-9.2h9v9.2c0,.2.1.4.3.4s.3-.2.3-.4v-9.2h9v9.2c0,.2.1.4.3.4s.3-.2.3-.4v-9.2h9v9.2c0,.2.1.4.3.4s.3-.2.3-.4v-9.2h3.4c.2,0,.3-.2.3-.4s-.1-.4-.3-.4h-3.4v-12.9h3.4c.2,0,.3-.2.3-.4s-.1-.4-.3-.4h-3.4v-12.9h3.4c.2,0,.3-.2.3-.4s-.1-.4-.3-.4h-3.4v-12.9h3.4c.2,0,.3-.2.3-.4s-.1-.4-.3-.4h-3.4v-11.6h3.4c.2,0,.3-.2.3-.4s-.1-.4-.3-.4h-3.4v-12.9h3.4c.2,0,.3-.2.3-.4s-.1-.4-.3-.4h-3.4v-12.9h3.4c.2,0,.3-.2.3-.4s-.1-.4-.3-.4h-3.4v-12.9h3.4c.2,0,.3-.2.3-.4s-.1-.4-.3-.4h-3.4v-12c0-.2-.1-.4-.3-.4s-.3.2-.3.4v12h-9v-12c0-.2-.1-.4-.3-.4s-.3.2-.3.4v12h-9v-12c0-.2-.1-.4-.3-.4s-.3.2-.3.4v12h-9v-12c0-.2-.1-.4-.3-.4s-.3.2-.3.4v12h-9v-12c0-.2-.1-.4-.3-.4s-.3.2-.3.4v12h-9v-12c0-.2-.1-.4-.3-.4s-.3.2-.3.4v12h-9v-12c0-.2-.1-.4-.3-.4s-.3.2-.3.4v12h-9v-12c0-.2-.1-.4-.3-.4s-.3.2-.3.4v12h-9v-12c0-.2-.1-.4-.3-.4s-.3.2-.3.4v12h-9.2v-12c0-.2-.1-.4-.3-.4s-.3.2-.3.4v12h-9v-12c0-.2-.1-.4-.3-.4h0c-.2,0-.3.2-.3.4v12h-9v-12c0-.2-.1-.4-.3-.4s-.3.2-.3.4v12h-9v-12c0-.2-.1-.4-.3-.4s-.3.2-.3.4v12h-9v-12c0-.2-.1-.4-.3-.4s-.3.2-.3.4v12h-9v-12c0-.2-.1-.4-.3-.4s-.3.2-.3.4v12h-9v-12c0-.2-.1-.4-.3-.4s-.3.2-.3.4v12h-9v-12c0-.2-.1-.4-.3-.4s-.3.2-.3.4v12h-9v-12c0-.2-.1-.4-.3-.4s-.3.2-.3.4v12h-9v-12c0-.2-.1-.4-.3-.4s-.3.2-.3.4v12h-9.2v-12c0-.2-.1-.4-.3-.4s-.3.2-.3.4v12h-9v-12c0-.2-.1-.4-.3-.4s-.3.2-.3.4v12h-3.2c-.2,0-.3.2-.3.4s.1.4.3.4h3.2v12.9h-3.2c-.2,0-.3.2-.3.4s.1.4.3.4h3.2ZM205.5,213.6h-9v-12.9h9v12.9ZM205.5,227.2h-9v-12.9h9v12.9ZM205.5,240.8h-9v-12.9h9v12.9ZM215.3,213.6h-9.2v-12.9h9.2v12.9ZM215.3,227.2h-9.2v-12.9h9.2v12.9ZM215.3,240.8h-9.2v-12.9h9.2v12.9ZM224.9,213.6h-9v-12.9h9v12.9ZM224.9,227.2h-9v-12.9h9v12.9ZM224.9,240.8h-9v-12.9h9v12.9ZM234.5,213.6h-9v-12.9h9v12.9ZM234.5,227.2h-9v-12.9h9v12.9ZM234.5,240.8h-9v-12.9h9v12.9ZM244.1,213.6h-9v-12.9h9v12.9ZM244.1,227.2h-9v-12.9h9v12.9ZM244.1,240.8h-9v-12.9h9v12.9ZM253.7,213.6h-9v-12.9h9v12.9ZM253.7,227.2h-9v-12.9h9v12.9ZM253.7,240.8h-9v-12.9h9v12.9ZM263.3,213.6h-9v-12.9h9v12.9ZM263.3,227.2h-9v-12.9h9v12.9ZM263.3,240.8h-9v-12.9h9v12.9ZM272.9,213.6h-9v-12.9h9v12.9ZM272.9,227.2h-9v-12.9h9v12.9ZM272.9,240.8h-9v-12.9h9v12.9ZM282.5,213.6h-9v-12.9h9v12.9ZM282.5,227.2h-9v-12.9h9v12.9ZM282.5,240.8h-9v-12.9h9v12.9ZM292.1,213.6h-9v-12.9h9v12.9ZM292.1,227.2h-9v-12.9h9v12.9ZM292.1,240.8h-9v-12.9h9v12.9ZM301.7,213.6h-9v-12.9h9v12.9ZM301.7,227.2h-9v-12.9h9v12.9ZM301.7,240.8h-9v-12.9h9v12.9ZM311.5,213.6h-9.2v-12.9h9.2v12.9ZM311.5,227.2h-9.2v-12.9h9.2v12.9ZM311.5,240.8h-9.2v-12.9h9.2v12.9ZM321.1,213.6h-9v-12.9h9v12.9ZM321.1,227.2h-9v-12.9h9v12.9ZM321.1,240.8h-9v-12.9h9v12.9ZM330.6,213.6h-9v-12.9h9v12.9ZM330.6,227.2h-9v-12.9h9v12.9ZM330.6,240.8h-9v-12.9h9v12.9ZM340.2,213.6h-9v-12.9h9v12.9ZM340.2,227.2h-9v-12.9h9v12.9ZM340.2,240.8h-9v-12.9h9v12.9ZM349.8,213.6h-9v-12.9h9v12.9ZM349.8,227.2h-9v-12.9h9v12.9ZM349.8,240.8h-9v-12.9h9v12.9ZM359.4,213.6h-9v-12.9h9v12.9ZM359.4,227.2h-9v-12.9h9v12.9ZM359.4,240.8h-9v-12.9h9v12.9ZM369,213.6h-9v-12.9h9v12.9ZM369,227.2h-9v-12.9h9v12.9ZM369,240.8h-9v-12.9h9v12.9ZM378.6,213.6h-9v-12.9h9v12.9ZM378.6,227.2h-9v-12.9h9v12.9ZM378.6,240.8h-9v-12.9h9v12.9ZM388.2,213.6h-9v-12.9h9v12.9ZM388.2,227.2h-9v-12.9h9v12.9ZM388.2,240.8h-9v-12.9h9v12.9ZM379.2,281.1h9v12.9h-9v-12.9ZM379.2,267.5h9v12.9h-9v-12.9ZM379.2,253.9h9v12.9h-9v-12.9ZM379.2,250.8v-9.2h9v11.6h-9v-2.4ZM369.6,281.1h9v12.9h-9v-12.9ZM369.6,267.5h9v12.9h-9v-12.9ZM369.6,253.9h9v12.9h-9v-12.9ZM369.6,250.8v-9.2h9v11.6h-9v-2.4ZM360,281.1h9v12.9h-9v-12.9ZM360,267.5h9v12.9h-9v-12.9ZM360,253.9h9v12.9h-9v-12.9ZM360,250.8v-9.2h9v11.6h-9v-2.4ZM350.4,281.1h9v12.9h-9v-12.9ZM350.4,267.5h9v12.9h-9v-12.9ZM350.4,253.9h9v12.9h-9v-12.9ZM350.4,250.8v-9.2h9v11.6h-9v-2.4ZM340.8,281.1h9v12.9h-9v-12.9ZM340.8,267.5h9v12.9h-9v-12.9ZM340.8,253.9h9v12.9h-9v-12.9ZM340.8,250.8v-9.2h9v11.6h-9v-2.4ZM331.2,281.1h9v12.9h-9v-12.9ZM331.2,267.5h9v12.9h-9v-12.9ZM331.2,253.9h9v12.9h-9v-12.9ZM331.2,250.8v-9.2h9v11.6h-9v-2.4ZM321.6,281.1h9v12.9h-9v-12.9ZM321.6,267.5h9v12.9h-9v-12.9ZM321.6,253.9h9v12.9h-9v-12.9ZM321.6,250.8v-9.2h9v11.6h-9v-2.4ZM312,281.1h9v12.9h-9v-12.9ZM312,267.5h9v12.9h-9v-12.9ZM312,253.9h9v12.9h-9v-12.9ZM312,250.8v-9.2h9v11.6h-9v-2.4ZM302.2,281.1h9.2v12.9h-9.2v-12.9ZM302.2,267.5h9.2v12.9h-9.2v-12.9ZM302.2,253.9h9.2v12.9h-9.2v-12.9ZM302.2,250.8v-9.2h9.2v11.6h-9.2v-2.4ZM292.6,281.1h9v12.9h-9v-12.9ZM292.6,267.5h9v12.9h-9v-12.9ZM292.6,253.9h9v12.9h-9v-12.9ZM292.6,250.8v-9.2h9v11.6h-9v-2.4ZM283,281.1h9v12.9h-9v-12.9ZM283,267.5h9v12.9h-9v-12.9ZM283,253.9h9v12.9h-9v-12.9ZM283,250.8v-9.2h9v11.6h-9v-2.4ZM273.4,281.1h9v12.9h-9v-12.9ZM273.4,267.5h9v12.9h-9v-12.9ZM273.4,253.9h9v12.9h-9v-12.9ZM273.4,250.8v-9.2h9v11.6h-9v-2.4ZM263.8,281.1h9v12.9h-9v-12.9ZM263.8,267.5h9v12.9h-9v-12.9ZM263.8,253.9h9v12.9h-9v-12.9ZM263.8,250.8v-9.2h9v11.6h-9v-2.4ZM254.2,281.1h9v12.9h-9v-12.9ZM254.2,267.5h9v12.9h-9v-12.9ZM254.2,253.9h9v12.9h-9v-12.9ZM254.2,250.8v-9.2h9v11.6h-9v-2.4ZM244.6,281.1h9v12.9h-9v-12.9ZM244.6,267.5h9v12.9h-9v-12.9ZM244.6,253.9h9v12.9h-9v-12.9ZM244.6,250.8v-9.2h9v11.6h-9v-2.4ZM235.1,281.1h9v12.9h-9v-12.9ZM235.1,267.5h9v12.9h-9v-12.9ZM235.1,253.9h9v12.9h-9v-12.9ZM235.1,250.8v-9.2h9v11.6h-9v-2.4ZM225.5,281.1h9v12.9h-9v-12.9ZM225.5,267.5h9v12.9h-9v-12.9ZM225.5,253.9h9v12.9h-9v-12.9ZM225.5,250.8v-9.2h9v11.6h-9v-2.4ZM215.9,281.1h9v12.9h-9v-12.9ZM215.9,267.5h9v12.9h-9v-12.9ZM215.9,253.9h9v12.9h-9v-12.9ZM215.9,250.8v-9.2h9v11.6h-9v-2.4ZM206.1,281.1h9.2v12.9h-9.2v-12.9ZM206.1,267.5h9.2v12.9h-9.2v-12.9ZM206.1,253.9h9.2v12.9h-9.2v-12.9ZM206.1,250.8v-9.2h9.2v11.6h-9.2v-2.4ZM196.5,281.1h9v12.9h-9v-12.9ZM196.5,267.5h9v12.9h-9v-12.9ZM196.5,253.9h9v12.9h-9v-12.9ZM196.5,250.8v-9.2h9v11.6h-9v-2.4Z"/>
        </g>
        <g>
          <path class="cls-6" d="M207.3,295.2c-.7,0-1.4-.4-1.8-1-.6-1-.3-2.3.7-3l118.1-72.7c1-.6,2.3-.3,3,.7.6,1,.3,2.3-.7,3l-118.1,72.7c-.4.2-.7.3-1.1.3Z"/>
          <polygon class="cls-6" points="328.4 231.1 338.6 212.3 317.2 212.9 328.4 231.1"/>
        </g>
        <g>
          <polygon class="cls-5" points="373.1 295.2 205.3 295.2 205.3 196.1 206.4 196.1 206.4 294.1 373.1 294.1 373.1 295.2"/>
          <polygon class="cls-5" points="202 197.2 205.8 190.6 209.6 197.2 202 197.2"/>
          <polygon class="cls-5" points="372 298.5 378.6 294.7 372 290.8 372 298.5"/>
        </g>
      </g>
      <g>
        <g>
          <path class="cls-9" d="M304.3,373.2c0,.8-.6,1.4-1.4,1.4h-10.2s-47.3.2-47.3.2c-.8,0-1.4-.6-1.4-1.4v-5.1c0-.8.6-1.4,1.4-1.4h4.9s42.2-.1,42.2-.1h10.3c.2,0,.4,0,.5,0,.5.2.9.7.9,1.3v5.1Z"/>
          <path class="cls-10" d="M245.4,375.1c-.9,0-1.7-.7-1.7-1.7v-5.1c0-.9.7-1.7,1.6-1.7l57.5-.2c.2,0,.4,0,.6.1.6.3,1.1.9,1.1,1.6v5.1c0,.9-.7,1.7-1.6,1.7l-57.5.2ZM302.8,366.9l-57.5.2c-.6,0-1.2.5-1.2,1.2v5.1c0,.6.5,1.2,1.2,1.2l57.5-.2c.6,0,1.2-.5,1.2-1.2v-5.1c0-.5-.3-.9-.8-1.1-.1,0-.3,0-.4,0Z"/>
        </g>
        <g>
          <path class="cls-9" d="M309.7,365.3c0,.8-.6,1.4-1.4,1.4h-4.9s-10.6,0-10.6,0h-41.9c-.2.1-.4,0-.5,0-.5-.2-.9-.7-.9-1.3v-5.1c0-.8.6-1.4,1.4-1.4h38.2c0-.1,19.3-.2,19.3-.2.8,0,1.4.6,1.4,1.4v5.1Z"/>
          <path class="cls-10" d="M250.8,367.2c-.2,0-.4,0-.6-.1-.6-.3-1-.9-1-1.5v-5.1c0-.4.2-.9.5-1.2.3-.3.7-.5,1.2-.5l57.4-.2c.4,0,.9.2,1.2.5.3.3.5.7.5,1.2v5.1c0,.9-.7,1.7-1.6,1.7l-57.5.2ZM308.3,359h0l-57.4.2c-.3,0-.6.1-.8.3-.2.2-.3.5-.3.8v5.2c0,.5.3.9.7,1.1.1,0,.3,0,.4,0l57.4-.2c.6,0,1.2-.5,1.2-1.2v-5.1c0-.3-.1-.6-.4-.8-.2-.2-.5-.3-.8-.3Z"/>
        </g>
        <g>
          <path class="cls-9" d="M305.9,357.3c0,.8-.6,1.4-1.4,1.4h-15.5s0,0,0,0h-41.9c-.8.1-1.4-.5-1.4-1.3v-5.1c0-.6.4-1.2.9-1.3.1,0,.3,0,.5,0h34c0-.1,19.8-.2,19.8-.2h3.7c.8,0,1.4.6,1.4,1.4v5.1Z"/>
          <path class="cls-10" d="M247,359.2c-.9,0-1.7-.7-1.7-1.7v-5.1c0-.7.4-1.4,1.1-1.6.2,0,.4,0,.5,0l57.4-.2c.9,0,1.7.7,1.7,1.7v5.1c0,.4-.2.9-.5,1.2-.3.3-.7.5-1.2.5l-57.4.2ZM304.4,351l-57.4.2c-.1,0-.2,0-.4,0-.5.2-.8.6-.8,1.1v5.1c0,.6.5,1.2,1.2,1.2h41.9c0-.1.1-.2.1-.2h0s15.4,0,15.4,0c.6,0,1.2-.5,1.2-1.2v-5.1c0-.6-.5-1.2-1.2-1.2Z"/>
        </g>
        <g>
          <path class="cls-9" d="M301.7,349.4c0,.6-.4,1.2-1,1.3-.1,0-.3,0-.5,0h-19.2c0,0-34.5.2-34.5.2h-3.7c-.8,0-1.4-.6-1.4-1.4v-5.1c0-.8.6-1.4,1.4-1.4h7.7s34.8-.1,34.8-.1c0,0,0,0,0,0h14.9c.1,0,.2,0,.3,0,.6.1,1.1.7,1.1,1.4v5.1Z"/>
          <path class="cls-10" d="M242.8,351.3c-.9,0-1.7-.7-1.7-1.7v-5.1c0-.9.7-1.7,1.6-1.7h42.8c0-.1,0-.1,0-.1h14.6c.1,0,.3,0,.4,0,.8.2,1.3.8,1.3,1.6v5.1c0,.7-.4,1.4-1.1,1.6-.2,0-.4,0-.5,0l-57.4.2ZM285.3,343.2h-42.5c-.6.1-1.2.7-1.2,1.3v5.1c0,.6.5,1.2,1.2,1.2l57.4-.2c.1,0,.3,0,.4,0,.5-.2.8-.6.8-1.1v-5.1c0-.5-.4-1-.9-1.1,0,0-.2,0-.3,0h-14.8s0,0,0,0h-.1Z"/>
        </g>
        <g>
          <path class="cls-9" d="M309.7,341.5c0,.8-.6,1.4-1.4,1.4h-7.7s-15.1,0-15.1,0h-34.6c-.1.1-.2,0-.3,0-.6-.1-1.1-.7-1.1-1.4v-5.1c0-.7.4-1.2,1.1-1.4.1,0,.2,0,.3,0h32.8c0,0,24.7-.2,24.7-.2.1,0,.2,0,.4,0,.6.2,1.1.7,1.1,1.4v5.1Z"/>
          <path class="cls-10" d="M250.8,343.3c-.1,0-.3,0-.4,0-.7-.2-1.3-.8-1.3-1.6v-5.1c0-.8.5-1.4,1.3-1.6.1,0,.2,0,.4,0l57.4-.2c.2,0,.3,0,.4,0,.7.2,1.2.9,1.2,1.6v5.1c0,.9-.7,1.7-1.6,1.7l-57.5.2ZM308.2,335.2l-57.4.2c-.1,0-.2,0-.3,0-.5.1-.9.6-.9,1.1v5.2c0,.5.4,1,.9,1.1,0,0,.2,0,.3,0l57.4-.2c.6,0,1.2-.5,1.2-1.2v-5.1c0-.5-.4-1-.9-1.1,0,0-.2,0-.3,0Z"/>
        </g>
        <g>
          <path class="cls-9" d="M309.7,333.6c0,.7-.5,1.2-1.1,1.4-.1,0-.2,0-.3,0h-24.5c0,0-32.9.2-32.9.2-.1,0-.2,0-.4,0-.6-.2-1.1-.7-1.1-1.4v-5.1c0-.8.6-1.4,1.4-1.4h6.1s19.6,0,19.6,0h31.7c0,0,.2,0,.2,0,.7.1,1.2.7,1.2,1.4v5.1Z"/>
          <path class="cls-10" d="M250.8,335.4c-.2,0-.3,0-.4,0-.7-.2-1.2-.8-1.2-1.6v-5.1c0-.4.2-.9.5-1.2.3-.3.7-.5,1.2-.5l57.4-.2c0,0,.2,0,.3,0,.8.1,1.4.8,1.4,1.6v5.1c0,.8-.5,1.4-1.3,1.6-.1,0-.2,0-.4,0l-57.5.2ZM308.2,327.3l-57.4.2c-.3,0-.6.1-.8.3-.2.2-.3.5-.3.8v5.1c0,.5.4,1,.9,1.1,0,0,.2,0,.3,0l57.4-.2c.1,0,.2,0,.3,0,.5-.1.9-.6.9-1.1v-5.1c0-.6-.4-1.1-1-1.1,0,0-.1,0-.2,0Z"/>
        </g>
        <g>
          <path class="cls-9" d="M316,325.6c0,.8-.6,1.4-1.4,1.4h-6.1s-31.8.1-31.8.1h-19.5c0,0-.2,0-.2,0-.7-.1-1.2-.7-1.2-1.4v-5.1c0-.7.5-1.3,1.3-1.4h0s0,0,.1,0h21.7c0,0,27.9-.1,27.9-.1h7.8c.8,0,1.4.6,1.4,1.4v5.1Z"/>
          <path class="cls-10" d="M257.2,327.4c0,0-.2,0-.3,0-.8-.1-1.4-.8-1.4-1.6v-5.2c0-.9.6-1.6,1.5-1.7,0,0,.1,0,.2,0l57.4-.2c.4,0,.9.2,1.2.5.3.3.5.7.5,1.2v5.1c0,.4-.2.9-.5,1.2-.3.3-.7.5-1.2.5l-57.4.2ZM257.1,319.4s0,0,0,0c-.6,0-1.1.6-1.1,1.2v5.1c0,.6.4,1.1,1,1.1,0,0,.1,0,.2,0l57.4-.2c.3,0,.6-.1.8-.3.2-.2.3-.5.3-.8v-5.1c0-.3-.1-.6-.4-.8-.2-.2-.5-.3-.8-.3l-57.4.2h0Z"/>
        </g>
      </g>
      <path class="cls-10" d="M368.1,370.8c8.3-6.5,11.2-19.1,6.4-31-4.8-11.8-15.7-18.9-26.2-18.1l-.3-.8-5.5,2.2c-12,4.7-17.1,19.9-11.4,33.8,5.7,14,20.1,21.5,32.1,16.8l5.4-2-.4-.9Z"/>
      <path class="cls-9" d="M380,337.7c5.7,14,.5,29.3-11.5,34-12,4.7-26.2-3-32-17-5.7-14-.6-29.1,11.4-33.8,12-4.7,26.4,2.8,32.1,16.8Z"/>
      <g>
        <path class="cls-9" d="M376.1,339.2c4.7,11.5.4,24.1-9.5,28-9.9,3.9-21.6-2.5-26.3-13.9-4.7-11.5-.5-23.9,9.4-27.8,9.9-3.9,21.7,2.3,26.4,13.8Z"/>
        <path class="cls-10" d="M351.4,366.1c-5-2.7-9-7.2-11.3-12.8-4.7-11.6-.5-24.2,9.5-28.1,4.8-1.9,10.3-1.5,15.3,1.1,5,2.6,9.1,7.2,11.4,12.8,2.3,5.6,2.5,11.6.7,17-1.8,5.4-5.5,9.4-10.3,11.3-1,.4-2,.7-3.1.9-4,.7-8.2,0-12.2-2.1ZM375.9,339.3c-2.3-5.5-6.2-10-11.1-12.5-4.9-2.6-10.2-3-14.9-1.1-9.7,3.8-13.9,16.1-9.2,27.5,2.3,5.5,6.2,10,11.1,12.6,4.9,2.6,10.2,3,14.9,1.2,4.7-1.8,8.3-5.7,10.1-11,1.8-5.3,1.5-11.2-.7-16.7h0Z"/>
      </g>
      <g>
        <path class="cls-6" d="M187,4.1h87.5c4.3,0,7.8,3.5,7.8,7.8v43c0,4.3-3.5,7.8-7.8,7.8h-67.3l-11.7,14.1c-.9,1.2-2.7.6-2.7-.9l3.5-13.2h-9.3c-4.3,0-7.8-3.5-7.8-7.8V11.9c0-4.3,3.5-7.8,7.8-7.8Z"/>
        <g>
          <path class="cls-10" d="M188.3,35.8c2.1,11.4,12.1,20,24.1,20s2.6-.1,3.8-.3c11.7-1.8,20.7-12,20.7-24.2s-2.8-12.9-7.2-17.3c-4.4-4.4-10.6-7.2-17.3-7.2-13.5,0-24.5,11-24.5,24.5s.1,3,.4,4.5ZM212.4,16.4c4.1,0,7.9,1.7,10.6,4.4,2.7,2.7,4.4,6.5,4.4,10.6,0,7.5-5.5,13.7-12.6,14.8-.8.1-1.5.2-2.3.2-7.3,0-13.4-5.3-14.7-12.2-.2-.9-.3-1.8-.3-2.7,0-8.3,6.7-15,15-15Z"/>
          <path class="cls-2" d="M227.3,31.8c.1-4.1-1.4-7.9-4.1-10.7l6.9-6.5c4.3,4.6,6.9,10.8,6.7,17.5-.4,12.2-9.6,22.1-21.4,23.6l-1.2-9.4c7.2-.9,12.8-7,13.1-14.4Z"/>
          <path class="cls-5" d="M216.2,58.4l-2.1-14s-11.3-.2-13.9-10.4l-14.1,3.1s4.4,24.3,30.1,21.3Z"/>
        </g>
        <g>
          <polygon class="cls-2" points="275.7 32.7 275.7 30.2 258.9 30.2 258.9 32.7 275.7 32.7"/>
          <polygon class="cls-2" points="275.7 25.2 275.7 22.7 245.4 22.7 245.4 25.2 275.7 25.2"/>
          <polygon class="cls-2" points="275.7 17.6 275.7 15.1 247.6 15.1 247.6 17.6 275.7 17.6"/>
          <polygon class="cls-2" points="257.2 30.2 252 30.2 252 32.7 257.2 32.7 257.2 30.2"/>
          <polygon class="cls-2" points="275.7 47.1 275.7 44.6 258.9 44.6 258.9 47.1 275.7 47.1"/>
          <polygon class="cls-2" points="275.7 39.6 275.7 37 245.4 37 245.4 39.6 275.7 39.6"/>
          <polygon class="cls-2" points="257.2 44.6 252 44.6 252 47.1 257.2 47.1 257.2 44.6"/>
        </g>
      </g>
      <g>
        <g>
          <g>
            <path class="cls-9" d="M92.6,367.3c7.5-2.5,10.4-14.9,11.7-21.6l8.3,3.1s-3.1,12.1-2.1,19.8c1,7.7-1.2,7-1.2,7h-26.3s2.1-5.8,9.7-8.4Z"/>
            <path d="M92.6,367.3c2.3-.8,4.1-2.4,5.6-4.6,1-1.5,6.3.2,7.4,3.1,0,0,2.2,1.5,4.7,1.3,0,.5,0,1.1.1,1.6,1,7.7-1.2,7-1.2,7h-26.3s2.1-5.8,9.7-8.4Z"/>
            <path class="cls-9" d="M195.1,367.9c-13.8,0-15.6-7.9-14.4-16.4h-9.2c.1,3.8,0,9.7-1,14.9-1.5,7.8,2.4,9.2,2.4,9.2h33.6s-4.9-7.8-11.3-7.8Z"/>
            <path d="M181.8,368.5c1.3-2-2.6-5.7.3-5.8,2,3.2,5.9,5.3,13,5.3s11.3,7.8,11.3,7.8h-33.6s-3.7-1.3-2.5-8.5c3.5,0,9.5,4.2,11.4,1.3Z"/>
            <path class="cls-5" d="M178.8,267c-.9-14.1-17.4,5.5-17.3,9.3.2,4.7.3,6.9-.1,23.5-.4,16.6,2.6,24.9,5.3,32.6,2.7,7.7,2.6,24.9,2.6,24.9,9.6.9,13.8-1.6,13.8-1.6,0,0-1.6-25-1-39.3.6-14.3-3-46-3.3-49.3Z"/>
            <path class="cls-8" d="M172.4,357.5c0-5.5-.5-17.4-2.5-23.6-2.7-8.2-1.7-24.7-1.3-42.3.4-17.7-3.7-12.4-3.9-17.5,0-1.6,2.7-5.9,6.1-9.5-4.7,3.6-9.3,9.7-9.3,11.7.2,4.7.3,6.9-.1,23.5-.4,16.6,2.6,24.9,5.3,32.6,2.7,7.7,2.6,24.9,2.6,24.9,1.1.1,2.2.2,3.1.2Z"/>
            <path class="cls-5" d="M178.6,212c-.6,18.7.5,55,1.4,66.7.8,10.6-6.1,14.3-11.5,12.9-3.1-.8-5.8-3.4-6.2-7.5,0-.2,0-.3,0-.5,0-.2,0-.3,0-.5,0-.4,0-.8,0-1.2-.6-9.5-8-42.7-12.4-59.8-.2-.8-.4-1.5-.6-2.2-.2-.7-.4-1.5-.5-2.2-.3-1.1-.5-2.1-.7-3.1-.2-.7-.3-1.3-.4-2-.5-2.6-.9-4.9-1-6.9-1.2-16,.4-21.4,4.7-30.2,4.3-8.9,15-9.2,18.8-6,0,0,.2.1.2.2,2.5,2.3,5,10.6,7.5,22,.9,4.3,1,11.7.8,20.4Z"/>
            <path class="cls-8" d="M155.3,225.3c.3,2.4,12.3,64.3,13.2,66.3.2.4-5.7-.8-6.2-7.5,0-.2,0-.3,0-.5,0-.2,0-.3,0-.5,0-.4,0-.8,0-1.2-.6-9.5-8-42.7-12.4-59.8-.2-.8-.4-1.5-.6-2.2-.2-.7-.4-1.5-.5-2.2-.3-1.1-.5-2.1-.7-3.1-.1-.7-.3-1.3-.4-2-.5-2.6-.9-4.9-1-6.9-1.2-16,.4-21.4,4.7-30.2,4.3-8.9,15-9.2,18.8-6,0,0,.2.1.2.2,2.5,2.3,5,10.6,7.5,22,.9,4.3,1,11.7.8,20.4-10.4,8-23.9,7.8-23.3,13.3Z"/>
            <path class="cls-5" d="M117.5,281.3c1.1-3.2,1.7-5.6,2.6-8.9,3.6-14.1,17.9.2,17,3.9-1.1,4.7-2.8,6.9-5.6,23.5-2.8,16.6-7.4,24.9-11.6,32.6-4.2,7.7-7.3,22.4-7.3,22.4-8.1.5-11.4-3.5-11.4-3.5,0,0,4.3-20.6,6.4-34.9,2.1-14.3,7.2-27.5,9.8-35Z"/>
            <path class="cls-8" d="M113.3,320c2.1-14.3,4.8-22.7,7.4-30.2,1.1-3.2,4.1-10.5,5-13.8,1.5-5.8,4.8-6.8,8-5.7-4.2-4.2-11.2-7.3-13.6,2-.9,3.3-1.5,5.7-2.6,8.9-2.6,7.5-7.7,20.8-9.8,35-2.1,14.3-6.4,34.9-6.4,34.9,0,0,1.7,2.1,5.7,3.1.7-3.5,4.4-21.5,6.3-34.3Z"/>
            <path class="cls-5" d="M129.6,190.9c4.8-11.7,13.2-19.5,15.9-21.5,4.5-3.3,15.1-2.9,17.7,5.9,2.6,8.9,3.2,14.2-1.1,30.2-4.3,16-24.8,65.5-27.1,77.5-2.3,12-20.8,12.1-16.2-5.1,4.6-17.2,5.2-73.6,10.7-87.1Z"/>
            <path class="cls-8" d="M129.9,222.5c.1-4.5,3.5-8.2,7.7-9.4,2-.6,10.7,1,16.2,2.1,2.7.5,5.4-1,6.3-3.6.9-2.5,1.8-5.1,2-5.9,4.3-16,3.7-21.4,1.1-30.2-2.6-8.9-13.2-9.2-17.7-5.9-2.7,2-11.1,9.8-15.9,21.5-5.5,13.5-6.1,69.9-10.7,87.1-1.6,5.9-.4,9.8,1.8,11.8,0-.2,9.1-62.1,9.2-67.4Z"/>
          </g>
          <path d="M146.1,68.2c5,0,9.1,4,9.1,8.9,0,5-4,9.1-8.9,9.1-5,0-9.1-4-9.1-8.9,0-5,4-9.1,8.9-9.1Z"/>
          <path d="M133.3,108.4c3.6-8.7-1-8.1,3.7-18.8,4.7-10.8,10.1-12.1,15.3-13.8,13.1-4.3,27.5,11.6,22.7,23.4-4.4,10.9-.3,21,2.5,30.5,2.8,9.5-.3,37.5-24.8,35.7-24.4-1.8-28.1-13-27.9-28.1.2-18,4.8-20,8.5-29Z"/>
          <path class="cls-9" d="M164.1,131.2c1.6,2.6,22,33.6,26.1,36.4,4.8,3.3,9.5-2.5,7.7-9-1.7-6.3-14.5-29.9-21.6-35.7-7.6-6.2-15.7,2.6-12.1,8.3Z"/>
          <path class="cls-10" d="M165,129.7c20.2,3.7,32.3,27.2,33,28.9-1.8-6.4-14.5-29.9-21.6-35.6-7.1-5.7-11.8,6.7-11.3,6.8Z"/>
          <path class="cls-10" d="M141.6,155.8c-.3-3.8-1.6-7.4-4.6-20.6-1.2-5.2-2.7-9.2-1.3-11.4,1.7-2.8,6.8-3.1,10.5-3,6.6.2,3.9-15.8,3.9-15.8,1.1-3.3,12-2.3,11.2,8.2-.8,10.6,9.8,6,12.2,8.1,3.3,2.8,2.9,8.7,3.5,11.8.6,3.1,5.1,7,4.3,12.7-.8,5.7-6.2,5.3-6.2,5.3-2,2.2-3.9,6.2-4.2,9-.6,6.7,2.4,13.4,2.4,13.4-19.6,7.8-35.8-.1-35.8-.1,0,0,5.2-6.2,4.2-17.7Z"/>
          <path class="cls-10" d="M146.1,120.7c6.6.2,3.9-15.8,3.9-15.8.6-1.8,4.3-2.3,7.2-.6-2.1.5-7.2,9.3-4.7,22.5.7,3.8,4.7,6.1,8.4,6.9,0,0-23.5,3.4-24,1.4-1.2-5.2,5.5-14.6,9.2-14.5Z"/>
          <path class="cls-6" d="M195.2,150.2s-3.5,6.2-10.8,11.6l-10.8-14.5-5.5-26s5.1-2.7,10.8,3.5c5.7,6.2,13.4,21.8,16.3,25.4Z"/>
          <path class="cls-6" d="M141.6,155.8c-.3-3.8-1.6-7.4-4.6-20.6-1.2-5.2-2.7-9.2-1.3-11.4,1.5-2.6,5.8-3.1,9.3-3.1,3.9,9,12.1,14.1,18.3,11.5,4-1.7,6.3-6.2,6.5-11.6,1.6,0,2.9,0,3.6.6,3.3,2.8,2.9,8.7,3.5,11.8.6,3.1,5.1,7,4.3,12.7-.8,5.7-6.2,5.4-6.2,5.4-2,2.2-3.9,6.2-4.2,9-.6,6.7,2.4,13.4,2.4,13.4-19.6,7.8-35.8-.1-35.8-.1,0,0,5.2-6.2,4.2-17.7Z"/>
          <path class="cls-12" d="M141.6,155.8c-.3-3.8-1.6-7.4-4.6-20.6-1.2-5.2-2.7-9.2-1.3-11.4,1.5-2.5,5.5-3,9-3.1,0,.6.1,1.1.3,1.7,1.4,7.6,6.7,13.5,13.4,16.1l-3.8.7c-4.4.8-7.2,5.6-6.2,9.9.7,3.1,3.1,5.3,6,6.1l1.7,9.1c1.3,6.9-4.9,13-11.8,11.3-4.3-1-6.8-2.3-6.8-2.3,0,0,5.2-6.2,4.2-17.7Z"/>
          <path class="cls-9" d="M149,95.9s4-13.6,8.4-14.2c4.4-.6,7.9-.4,10.3,4.3,0,0,2.8,4.1,2.1,9.3,0,0,6.1,4.9.2,12.9-5.9,8-16.7,3.3-20.5-3.5,0,0-5.8,2.2-6.9-3.2-1.1-5.5,2.5-5.9,6.3-5.5Z"/>
          <path class="cls-10" d="M149,95.9s4-13.6,8.4-14.2c3.5-.5,6.5-.5,8.8,2-3-.6-12.8,11.7-12.5,18.7.3,7.1,8.1,11.1,14.1,7.7.7-.4,1.4-.9,2-1.4-5.9,7.3-16.4,2.7-20.2-4,0,0-5.8,2.2-6.9-3.2-1.1-5.5,2.5-5.9,6.3-5.5Z"/>
          <path class="cls-9" d="M187.4,159.3c-2.2,9.1,8.6,13.2,11.5,7.5,4.3-8.3,6.2-35.2,10.2-39.1,4.1-4,8.7-3.5,7.4-9.3-1.3-5.8-3-5.2-6.8-6-3.9-.8-5.9,3-6.5,9.4-.6,6.4-14.1,29.9-15.9,37.5Z"/>
          <path d="M171.2,87.7s-7-.7-11.2-4.4c-4.2-3.7-6.2-2.9-6.2-2.9,11.7-5.9,17.3,7.3,17.3,7.3Z"/>
          <path d="M157.7,81c2,1.4,2.6,6.1-1.9,11.6-4.6,5.5-2.6,11.8-6.7,8.6-4.1-3.3-4.1-3.8-4.8-8.6-.6-4.7,9-14.7,13.3-11.5Z"/>
          <g>
            <path class="cls-9" d="M101.3,149.9c2.9-4.4,31.3-24.3,37.1-28.2,2.1-1.4,9.2,10.8,5,16.4-2.4,3.1-33.8,21.3-38.8,22.1-5.8.9-7-4.6-3.3-10.3Z"/>
            <path class="cls-10" d="M135.4,138.3c3.2-4.4,5.9-8.7,6.2-14.2,2.4,3.6,4.6,10.2,1.8,14-2.1,2.8-27.9,17.9-36.6,21.4,1.7-.9,24.3-15.4,28.6-21.1Z"/>
            <path class="cls-6" d="M120,153.8s21.4-13.1,24.3-15.9c2.9-2.8-.3-14.5-5.6-16.4,0,0-.1,0-.3.2-2.1,1.3-13.7,8.8-24,16.2,0,0-2.2,6.6,5.5,15.9Z"/>
            <path class="cls-12" d="M120,153.8s21.4-13.1,24.3-15.9c2.9-2.8-.3-14.5-5.6-16.4,0,0-.1,0-.3.2h0s6.6,9.7,2.4,15.1c-4.2,5.4-17.5,11.1-20.8,17.1Z"/>
            <path class="cls-9" d="M124,192.1c.9,5.6,7.2,11.3,11.4,10.1,1.2-.4,2.1-.9,2.9-1.5,2-1.5,3-3.5,3.7-5.9,0-.3-1.1-4-1.5-3.7-1.8-1.1-5-2.1-8.6-3-6.2-1.6-16.1-27-21.6-34.7-5.5-7.6-15.2-1.9-12.2,3.7,4.4,8.3,24.9,29.4,25.8,35Z"/>
          </g>
        </g>
        <g>
          <g>
            <rect class="cls-2" x="127.5" y="117.1" width="124.5" height="92"/>
            <path class="cls-5" d="M252.6,209.7h-125.7v-93.2h125.7v93.2ZM128.1,208.5h123.3v-90.8h-123.3v90.8Z"/>
          </g>
          <g>
            <rect class="cls-6" x="227.9" y="179.3" width="11.7" height="23.6"/>
            <rect class="cls-10" x="227.9" y="189.9" width="11.7" height="13"/>
            <rect class="cls-6" x="206.4" y="164.8" width="11.7" height="38.1"/>
            <rect class="cls-10" x="206.4" y="173.7" width="11.7" height="29.2"/>
            <rect class="cls-6" x="185" y="167" width="11.7" height="35.9"/>
            <rect class="cls-10" x="185" y="181.2" width="11.7" height="21.7"/>
            <rect class="cls-6" x="163.5" y="153.7" width="11.7" height="49.2"/>
            <rect class="cls-10" x="163.5" y="163.1" width="11.7" height="39.8"/>
            <rect class="cls-6" x="142" y="136.7" width="11.7" height="66.2"/>
            <rect class="cls-10" x="142" y="154.1" width="11.7" height="48.8"/>
          </g>
        </g>
        <path class="cls-9" d="M215.8,112.6c-.1,0-.2.2-.3.3-.3-.6-.7-1.1-1.3-1.2-.8-.1-1.3.6-1.8,1.1,0,0,0,0,0,0-.5-1.3-1.4-2.4-2.7-2.3-1.2.1-1.7,1.1-1.8,2.4-.2-.5-.5-.9-.8-1.2-1.2-1.4-2.9-.2-3.6,1.1-.1.2,0,.4,0,.6,0,0,0,0,0,.1,0,1.3.3,2.6.7,3.9.3.9.6,2.2,1.4,2.8,1.3,1.1,2.3-.6,2.8-1.9.2,1.3.7,2.5,2.4,2.1,1.1-.3,1.8-1.1,2.2-2,.2.6.5,1.2.9,1.6,1.1,1.1,2.3-.4,2.8-1.4.2-.5.3-1,.3-1.5,0,0,.2.1.3.2.9.3,1.7-.8,2-1.5.8-2.1-1.2-4.1-3.4-3.2Z"/>
        <path class="cls-9" d="M127.9,199.7c.7-.2,2-.8,1.8-1.8,0-.1,0-.2-.1-.3.5,0,1,0,1.5-.1,1.1-.3,2.7-1.3,1.8-2.5-.4-.5-.9-.9-1.5-1.2,1-.2,1.8-.8,2.3-1.9.7-1.6-.4-2.3-1.7-2.6,1.3-.3,3.2-1.1,2.3-2.5-.5-.8-1.8-1.3-2.6-1.7-1.2-.6-2.5-1-3.8-1.3,0,0,0,0-.1,0-.1-.1-.3-.2-.6,0-1.4.5-2.8,2.1-1.6,3.5.3.4.7.7,1.1,1-1.2,0-2.3.2-2.6,1.4-.3,1.3.7,2.3,1.9,3,0,0,0,0,0,0-.6.4-1.3.8-1.3,1.6,0,.6.5,1.1,1,1.5-.2,0-.3,0-.4.2-1.2,2,.5,4.2,2.7,3.8Z"/>
      </g>
      <g>
        <path class="cls-10" d="M373.6,101.8v.4s-28.9-.3-28.9-.3l14.4-24.4,1.3.7c8,4.8,13.3,13.7,13.2,23.7Z"/>
        <path class="cls-5" d="M302.6,108.8c0,.5,0,.9,0,1.4,0,1.8.3,3.5.7,5.2.7,2.8,1.8,5.5,3.2,8,.5.9,1.1,1.7,1.7,2.5,0,.1.2.2.2.3,4.2,5.4,10.4,9.2,17.4,10,3.8.4,7.2.3,10.2-.1.2,0,.4,0,.6,0,13.5-2.3,19.7-12.2,21.4-21.5,0-.2,0-.4,0-.6.2-1.2.3-2.4.4-3.5,0-.4,0-.8,0-1.2l-24.9-.3h-.6s-1.6,0-1.6,0l-3.2-21.3v-.6c0,0-.1-.2-.1-.2l-.2-1.6-.5-3.3-1.8.4c-11.9,1.7-21.3,11.5-22.9,23.3-.2,1.5-.2,2.6-.2,3.4Z"/>
        <path class="cls-6" d="M334.8,105.3l-4.3-29.2s0,0,0,0l1.8-.4c2.4-.3,5-.4,7.8,0,3.7.5,7.1,1.8,10.1,3.6l-15.5,26Z"/>
      </g>
    </g>
  </g>
</svg>