<?xml version="1.0" encoding="UTF-8"?>
<svg xmlns="http://www.w3.org/2000/svg" version="1.1" xmlns:xlink="http://www.w3.org/1999/xlink" viewBox="0 0 471.7 391.3">
  <defs>
    <style>
      .cls-1 {
        fill: url(#_裼隯澵_胙琅韃炅_86-2);
      }

      .cls-2 {
        fill: url(#_裼隯澵_胙琅韃炅_21-5);
      }

      .cls-3 {
        fill: url(#_裼隯澵_胙琅韃炅_30-2);
      }

      .cls-4 {
        mask: url(#mask-1);
      }

      .cls-5 {
        fill: url(#_裼隯澵_胙琅韃炅_21-3);
      }

      .cls-6 {
        fill: url(#_裼隯澵_胙琅韃炅_21-2);
      }

      .cls-7 {
        fill: url(#_裼隯澵_胙琅韃炅_1);
      }

      .cls-7, .cls-8 {
        mix-blend-mode: multiply;
      }

      .cls-9 {
        fill: url(#_裼隯澵_胙琅韃炅_21);
      }

      .cls-10 {
        fill: #fff;
      }

      .cls-11 {
        mask: url(#mask);
      }

      .cls-12 {
        fill: url(#_裼隯澵_胙琅韃炅_30);
      }

      .cls-13 {
        fill: url(#_裼隯澵_胙琅韃炅_7);
      }

      .cls-14 {
        fill: url(#_裼隯澵_胙琅韃炅_30-7);
      }

      .cls-15 {
        fill: url(#_裼隯澵_胙琅韃炅_7-4);
      }

      .cls-16 {
        fill: none;
      }

      .cls-8 {
        fill: url(#_裼隯澵_胙琅韃炅_1-2);
      }

      .cls-17 {
        mask: url(#mask-2);
      }

      .cls-18 {
        filter: url(#luminosity-noclip-3);
      }

      .cls-19 {
        fill: #fdae97;
      }

      .cls-20 {
        fill: url(#_裼隯澵_胙琅韃炅_5);
      }

      .cls-21 {
        fill: url(#_裼隯澵_胙琅韃炅_8);
      }

      .cls-22 {
        fill: #1b1b1b;
        opacity: .3;
      }

      .cls-23 {
        fill: url(#_裼隯澵_胙琅韃炅_8-2);
      }

      .cls-24 {
        fill: url(#_裼隯澵_胙琅韃炅_30-5);
      }

      .cls-25 {
        fill: #1a120e;
      }

      .cls-26 {
        fill: url(#_裼隯澵_胙琅韃炅_8-4);
      }

      .cls-27 {
        fill: url(#_裼隯澵_胙琅韃炅_8-5);
      }

      .cls-28 {
        fill: #b6e3f5;
      }

      .cls-29 {
        fill: url(#_裼隯澵_胙琅韃炅_30-4);
      }

      .cls-30 {
        fill: url(#_裼隯澵_胙琅韃炅_86);
      }

      .cls-31 {
        fill: url(#_裼隯澵_胙琅韃炅_7-3);
      }

      .cls-32 {
        fill: url(#_裼隯澵_胙琅韃炅_7-2);
      }

      .cls-33 {
        fill: url(#_裼隯澵_胙琅韃炅_8-3);
      }

      .cls-34 {
        fill: #ff7761;
      }

      .cls-35 {
        clip-path: url(#clippath);
      }

      .cls-36 {
        fill: url(#_裼隯澵_胙琅韃炅_30-6);
      }

      .cls-37 {
        fill: #a3cadc;
      }

      .cls-38 {
        fill: url(#_裼隯澵_胙琅韃炅_30-3);
      }

      .cls-39 {
        fill: url(#_裼隯澵_胙琅韃炅_21-4);
      }

      .cls-40 {
        fill: url(#_裼隯澵_胙琅韃炅_21-6);
      }

      .cls-41 {
        opacity: .7;
      }

      .cls-42 {
        mask: url(#mask-3);
      }

      .cls-43 {
        fill: url(#_裼隯澵_胙琅韃炅_7-5);
      }

      .cls-44 {
        filter: url(#luminosity-noclip);
      }
    </style>
    <filter id="luminosity-noclip" x="102" y="23.3" width="101.1" height="110.3" color-interpolation-filters="sRGB" filterUnits="userSpaceOnUse">
      <feFlood flood-color="#fff" result="bg"/>
      <feBlend in="SourceGraphic" in2="bg"/>
    </filter>
    <filter id="luminosity-noclip-2" x="102" y="-8388" width="101.1" height="32766" color-interpolation-filters="sRGB" filterUnits="userSpaceOnUse">
      <feFlood flood-color="#fff" result="bg"/>
      <feBlend in="SourceGraphic" in2="bg"/>
    </filter>
    <mask id="mask-1" x="102" y="-8388" width="101.1" height="32766" maskUnits="userSpaceOnUse"/>
    <radialGradient id="_裼隯澵_胙琅韃炅_1" data-name="ﾁ裼隯澵隆 胙琅韃炅 1" cx="152.5" cy="78.4" fx="152.5" fy="78.4" r="52.9" gradientUnits="userSpaceOnUse">
      <stop offset="0" stop-color="#fff"/>
      <stop offset="1" stop-color="gray"/>
    </radialGradient>
    <mask id="mask" x="102" y="23.3" width="101.1" height="110.3" maskUnits="userSpaceOnUse">
      <g class="cls-44">
        <g class="cls-4">
          <path class="cls-7" d="M153.6,116.8c28.4-20.9,88.4-115.4,12.7-88.8-68,23.9-96.6,150.5-12.7,88.8Z"/>
        </g>
      </g>
    </mask>
    <radialGradient id="_裼隯澵_胙琅韃炅_86" data-name="ﾁ裼隯澵隆 胙琅韃炅 86" cx="152.5" cy="78.4" fx="152.5" fy="78.4" r="52.9" gradientUnits="userSpaceOnUse">
      <stop offset="0" stop-color="#a1d4fd"/>
      <stop offset="1" stop-color="#dfeffd"/>
    </radialGradient>
    <filter id="luminosity-noclip-3" x="60" y="10" width="387.9" height="373" color-interpolation-filters="sRGB" filterUnits="userSpaceOnUse">
      <feFlood flood-color="#fff" result="bg"/>
      <feBlend in="SourceGraphic" in2="bg"/>
    </filter>
    <filter id="luminosity-noclip-4" x="60" y="-8388" width="387.9" height="32766" color-interpolation-filters="sRGB" filterUnits="userSpaceOnUse">
      <feFlood flood-color="#fff" result="bg"/>
      <feBlend in="SourceGraphic" in2="bg"/>
    </filter>
    <mask id="mask-3" x="60" y="-8388" width="387.9" height="32766" maskUnits="userSpaceOnUse"/>
    <radialGradient id="_裼隯澵_胙琅韃炅_1-2" data-name="ﾁ裼隯澵隆 胙琅韃炅 1" cx="254" cy="196.5" fx="254" fy="196.5" r="190.2" xlink:href="#_裼隯澵_胙琅韃炅_1"/>
    <mask id="mask-2" x="60" y="10" width="387.9" height="373" maskUnits="userSpaceOnUse">
      <g class="cls-18">
        <g class="cls-42">
          <path class="cls-8" d="M121.3,149.8C238.5,105.6,203.7,16.1,317.5,10.2c90.1-4.7,134.5,90.2,130.1,182-5.3,108.9-74.3,184.1-197.8,190.5C75.3,391.7-4.3,197.2,121.3,149.8Z"/>
        </g>
      </g>
    </mask>
    <radialGradient id="_裼隯澵_胙琅韃炅_86-2" data-name="ﾁ裼隯澵隆 胙琅韃炅 86" cx="254" cy="196.5" fx="254" fy="196.5" r="190.2" xlink:href="#_裼隯澵_胙琅韃炅_86"/>
    <clipPath id="clippath">
      <path class="cls-16" d="M121.3,149.8C238.5,105.6,203.7,16.1,317.5,10.2c90.1-4.7,134.5,90.2,130.1,182-5.3,108.9-74.3,184.1-197.8,190.5C75.3,391.7-4.3,197.2,121.3,149.8Z"/>
    </clipPath>
    <linearGradient id="_裼隯澵_胙琅韃炅_7" data-name="ﾁ裼隯澵隆 胙琅韃炅 7" x1="231.5" y1="321.4" x2="278.2" y2="321.4" gradientUnits="userSpaceOnUse">
      <stop offset="0" stop-color="#007d90"/>
      <stop offset="1" stop-color="#00bdd2"/>
    </linearGradient>
    <linearGradient id="_裼隯澵_胙琅韃炅_7-2" data-name="ﾁ裼隯澵隆 胙琅韃炅 7" x1="273" y1="316.8" x2="296.1" y2="316.8" xlink:href="#_裼隯澵_胙琅韃炅_7"/>
    <linearGradient id="_裼隯澵_胙琅韃炅_5" data-name="ﾁ裼隯澵隆 胙琅韃炅 5" x1="251" y1="363.9" x2="296.4" y2="363.9" gradientUnits="userSpaceOnUse">
      <stop offset="0" stop-color="#e9e8e3"/>
      <stop offset="1" stop-color="#a8aeb7"/>
    </linearGradient>
    <linearGradient id="_裼隯澵_胙琅韃炅_30" data-name="ﾁ裼隯澵隆 胙琅韃炅 30" x1="287.9" y1="148.2" x2="452.9" y2="148.2" gradientUnits="userSpaceOnUse">
      <stop offset="0" stop-color="#ff4428"/>
      <stop offset="1" stop-color="#ff7e3b"/>
    </linearGradient>
    <linearGradient id="_裼隯澵_胙琅韃炅_30-2" data-name="ﾁ裼隯澵隆 胙琅韃炅 30" x1="311.4" y1="148.2" x2="429.3" y2="148.2" xlink:href="#_裼隯澵_胙琅韃炅_30"/>
    <linearGradient id="_裼隯澵_胙琅韃炅_30-3" data-name="ﾁ裼隯澵隆 胙琅韃炅 30" x1="335" y1="148.2" x2="405.8" y2="148.2" xlink:href="#_裼隯澵_胙琅韃炅_30"/>
    <linearGradient id="_裼隯澵_胙琅韃炅_30-4" data-name="ﾁ裼隯澵隆 胙琅韃炅 30" x1="358.6" y1="148.2" x2="382.2" y2="148.2" xlink:href="#_裼隯澵_胙琅韃炅_30"/>
    <linearGradient id="_裼隯澵_胙琅韃炅_8" data-name="ﾁ裼隯澵隆 胙琅韃炅 8" x1="109.8" y1="364" x2="371" y2="138.8" gradientUnits="userSpaceOnUse">
      <stop offset="0" stop-color="#001b8d"/>
      <stop offset="1" stop-color="#0073d5"/>
    </linearGradient>
    <linearGradient id="_裼隯澵_胙琅韃炅_8-2" data-name="ﾁ裼隯澵隆 胙琅韃炅 8" x1="120.4" y1="376.2" x2="381.6" y2="151" xlink:href="#_裼隯澵_胙琅韃炅_8"/>
    <linearGradient id="_裼隯澵_胙琅韃炅_21" data-name="ﾁ裼隯澵隆 胙琅韃炅 21" x1="100.7" y1="333.7" x2="118.7" y2="333.7" gradientUnits="userSpaceOnUse">
      <stop offset="0" stop-color="#fda024"/>
      <stop offset="1" stop-color="#fdb245"/>
    </linearGradient>
    <linearGradient id="_裼隯澵_胙琅韃炅_21-2" data-name="ﾁ裼隯澵隆 胙琅韃炅 21" x1="151.3" y1="347" x2="169.1" y2="347" xlink:href="#_裼隯澵_胙琅韃炅_21"/>
    <linearGradient id="_裼隯澵_胙琅韃炅_21-3" data-name="ﾁ裼隯澵隆 胙琅韃炅 21" x1="186.5" y1="293.5" x2="204.3" y2="293.5" xlink:href="#_裼隯澵_胙琅韃炅_21"/>
    <linearGradient id="_裼隯澵_胙琅韃炅_21-4" data-name="ﾁ裼隯澵隆 胙琅韃炅 21" x1="227.1" y1="272" x2="244.9" y2="272" xlink:href="#_裼隯澵_胙琅韃炅_21"/>
    <linearGradient id="_裼隯澵_胙琅韃炅_21-5" data-name="ﾁ裼隯澵隆 胙琅韃炅 21" x1="289.4" y1="233.4" x2="307.2" y2="233.4" xlink:href="#_裼隯澵_胙琅韃炅_21"/>
    <linearGradient id="_裼隯澵_胙琅韃炅_21-6" data-name="ﾁ裼隯澵隆 胙琅韃炅 21" x1="249" y1="213.5" x2="266.8" y2="213.5" xlink:href="#_裼隯澵_胙琅韃炅_21"/>
    <linearGradient id="_裼隯澵_胙琅韃炅_7-3" data-name="ﾁ裼隯澵隆 胙琅韃炅 7" x1="114.6" y1="325.2" x2="167.4" y2="325.2" xlink:href="#_裼隯澵_胙琅韃炅_7"/>
    <linearGradient id="_裼隯澵_胙琅韃炅_30-5" data-name="ﾁ裼隯澵隆 胙琅韃炅 30" x1="152.7" y1="296.4" x2="145.4" y2="160.2" xlink:href="#_裼隯澵_胙琅韃炅_30"/>
    <linearGradient id="_裼隯澵_胙琅韃炅_30-6" data-name="ﾁ裼隯澵隆 胙琅韃炅 30" x1="190.2" y1="294.4" x2="182.9" y2="158.2" xlink:href="#_裼隯澵_胙琅韃炅_30"/>
    <linearGradient id="_裼隯澵_胙琅韃炅_7-4" data-name="ﾁ裼隯澵隆 胙琅韃炅 7" x1="171" y1="266.8" x2="225" y2="266.8" xlink:href="#_裼隯澵_胙琅韃炅_7"/>
    <linearGradient id="_裼隯澵_胙琅韃炅_30-7" data-name="ﾁ裼隯澵隆 胙琅韃炅 30" x1="209.4" y1="293.3" x2="202.2" y2="157.1" xlink:href="#_裼隯澵_胙琅韃炅_30"/>
    <linearGradient id="_裼隯澵_胙琅韃炅_8-3" data-name="ﾁ裼隯澵隆 胙琅韃炅 8" x1="215.5" y1="169.8" x2="224.8" y2="78.6" xlink:href="#_裼隯澵_胙琅韃炅_8"/>
    <linearGradient id="_裼隯澵_胙琅韃炅_8-4" data-name="ﾁ裼隯澵隆 胙琅韃炅 8" x1="174.5" y1="165.7" x2="183.8" y2="74.4" xlink:href="#_裼隯澵_胙琅韃炅_8"/>
    <linearGradient id="_裼隯澵_胙琅韃炅_8-5" data-name="ﾁ裼隯澵隆 胙琅韃炅 8" x1="147.1" y1="162.9" x2="156.3" y2="71.7" xlink:href="#_裼隯澵_胙琅韃炅_8"/>
    <linearGradient id="_裼隯澵_胙琅韃炅_7-5" data-name="ﾁ裼隯澵隆 胙琅韃炅 7" x1="55.2" y1="232.5" x2="150" y2="232.5" xlink:href="#_裼隯澵_胙琅韃炅_7"/>
  </defs>
  <!-- Generator: Adobe Illustrator 28.7.1, SVG Export Plug-In . SVG Version: 1.2.0 Build 142)  -->
  <g>
    <g id="_レイヤー_1" data-name="レイヤー_1">
      <g>
        <g class="cls-41">
          <g class="cls-11">
            <path class="cls-30" d="M153.6,116.8c28.4-20.9,88.4-115.4,12.7-88.8-68,23.9-96.6,150.5-12.7,88.8Z"/>
          </g>
        </g>
        <g class="cls-41">
          <g class="cls-17">
            <path class="cls-1" d="M121.3,149.8C238.5,105.6,203.7,16.1,317.5,10.2c90.1-4.7,134.5,90.2,130.1,182-5.3,108.9-74.3,184.1-197.8,190.5C75.3,391.7-4.3,197.2,121.3,149.8Z"/>
          </g>
        </g>
        <g class="cls-35">
          <g>
            <g>
              <polygon class="cls-28" points="448.6 68.2 344.1 130.5 276.3 106.3 193.5 174.5 132.7 163.7 54.9 216 54.9 220.8 133.9 168.1 194.5 178.7 277 110.8 344.5 134.8 448.6 72.7 448.6 68.2"/>
              <path class="cls-37" d="M266,109.4c-.2-5.7,4.4-10.7,10.2-11.2,5.9-.5,10.8,3.8,11.1,9.5.2,5.7-4.3,10.7-10.2,11.2-5.9.5-10.9-3.8-11.1-9.5Z"/>
              <path class="cls-37" d="M183.1,176.9c-.2-5.9,4.6-11,10.6-11.6,6.1-.5,11.1,3.8,11.3,9.6.2,5.8-4.5,11-10.6,11.6-6.1.5-11.2-3.8-11.4-9.6Z"/>
              <path class="cls-37" d="M122.7,167.2c-.2-5.9,4.7-11.1,10.9-11.6,6.2-.5,11.3,3.8,11.5,9.7.2,5.9-4.7,11.1-10.8,11.6-6.2.5-11.3-3.8-11.5-9.7Z"/>
              <path class="cls-37" d="M334,132.6c-.3-5.7,4.2-10.7,10-11.2,5.8-.5,10.7,3.7,10.9,9.4.3,5.7-4.2,10.7-10,11.2-5.8.5-10.7-3.7-11-9.4Z"/>
            </g>
            <g>
              <polygon class="cls-37" points="484.5 134.1 357.2 185 292.5 150.5 198.6 206.1 139.6 186.2 54.9 226 54.9 230.4 140.1 190.7 198.9 210.5 292.5 155 357 189.4 484.5 138.3 484.5 134.1"/>
              <path class="cls-28" d="M281.6,152c.7-5.8,6.1-10.1,12.1-9.7,6,.4,10.3,5.4,9.7,11.2-.7,5.8-6.1,10.1-12.1,9.7-6-.4-10.4-5.4-9.7-11.2Z"/>
              <path class="cls-28" d="M187.8,207c.7-5.9,6.3-10.3,12.4-9.9,6.1.4,10.5,5.5,9.8,11.3-.7,5.9-6.3,10.3-12.4,9.9-6.2-.4-10.6-5.5-9.9-11.4Z"/>
              <path class="cls-28" d="M129,188.2c.7-5.9,6.4-10.3,12.6-9.9,6.2.4,10.7,5.5,9.9,11.4-.7,5.9-6.4,10.4-12.6,10-6.2-.4-10.7-5.5-9.9-11.4Z"/>
              <path class="cls-28" d="M346.7,185.6c.6-5.8,6-10.1,11.9-9.7,5.9.4,10.2,5.4,9.6,11.1-.6,5.7-5.9,10.1-11.9,9.7-5.9-.4-10.2-5.4-9.6-11.1Z"/>
            </g>
            <g>
              <rect class="cls-10" x="64.7" y="10.1" width=".9" height="379.5"/>
              <rect class="cls-10" x="89.2" y="10.1" width=".9" height="379.5"/>
              <rect class="cls-10" x="113.8" y="10.1" width=".9" height="379.5"/>
              <rect class="cls-10" x="138.3" y="10.1" width=".9" height="379.5"/>
              <rect class="cls-10" x="162.9" y="10.1" width=".9" height="379.5"/>
              <rect class="cls-10" x="187.4" y="10.1" width=".9" height="379.5"/>
              <rect class="cls-10" x="212" y="10.1" width=".9" height="379.5"/>
              <rect class="cls-10" x="236.5" y="10.1" width=".9" height="379.5"/>
              <rect class="cls-10" x="261.1" y="10.1" width=".9" height="379.5"/>
              <rect class="cls-10" x="285.6" y="10.1" width=".9" height="379.5"/>
              <rect class="cls-10" x="310.2" y="10.1" width=".9" height="379.5"/>
              <rect class="cls-10" x="334.7" y="10.1" width=".9" height="379.5"/>
              <rect class="cls-10" x="359.3" y="10.1" width=".9" height="379.5"/>
              <rect class="cls-10" x="383.8" y="10.1" width=".9" height="379.5"/>
              <rect class="cls-10" x="408.3" y="10.1" width=".9" height="379.5"/>
              <rect class="cls-10" x="432.9" y="10.1" width=".9" height="379.5"/>
              <rect class="cls-10" x="457.4" y="10.1" width=".9" height="379.5"/>
            </g>
          </g>
        </g>
      </g>
      <rect class="cls-25" x="76.9" y="381" width="354.1" height=".9"/>
      <g>
        <g>
          <path class="cls-13" d="M235.2,300c19.5-17.9,45.4,28.5,42.9,46.8h-9.8c-9.5-4.6-49-32.3-33.1-46.8Z"/>
          <path class="cls-25" d="M273,347c-14.5-26.5-37.9-46.4-38.1-46.6l.6-.7c.2.2,23.8,20.3,38.3,46.9l-.8.4Z"/>
          <path class="cls-25" d="M261.5,328.8c-.7,0-17-1.8-22-3.7l.3-.8c4.9,1.8,21.6,3.6,21.8,3.6v.9Z"/>
          <path class="cls-25" d="M249.6,313.2l-.8-.3c2.3-5.7,2.7-14.8,2.7-14.9h.9c0,.4-.5,9.4-2.8,15.2Z"/>
          <path class="cls-25" d="M269.4,316.9c6,10.5,9.6,22.5,8.6,30-13.6-11.9-10.8-28-8.6-30Z"/>
          <path class="cls-32" d="M285.3,287.5c17.3-7.2,12.1,36.1-3.1,59.3h-7.1c-3.5-5.8-3.8-53.5,10.2-59.3Z"/>
          <path class="cls-25" d="M278.5,346.9l-.9-.2c2.7-12.8,10.1-54.3,10.2-54.7l.9.2c0,.4-7.5,41.9-10.2,54.7Z"/>
          <rect class="cls-25" x="279.7" y="328.2" width="10.7" height=".9" transform="translate(-149 299) rotate(-45.1)"/>
          <rect class="cls-25" x="279.1" y="307.1" width=".9" height="10.6" transform="translate(-136.8 361.8) rotate(-54.9)"/>
        </g>
        <path class="cls-20" d="M251,346.9v6c0,6.8,1.4,13.5,4.1,19.4l1.1,2.3,7.1,6.4h20.3l7.6-6.4,1.1-2.3c2.7-5.9,4.1-12.6,4.1-19.4v-6h-45.4Z"/>
        <rect class="cls-25" x="251.3" y="361.5" width="33.8" height=".9"/>
        <rect class="cls-25" x="279.3" y="374.1" width="12.1" height=".9"/>
      </g>
      <g>
        <path d="M345.6,382.4h-4.6l25-188.8c.2-1.3,1.3-2.2,2.6-2.1,1.3.2,2.2,1.3,2.1,2.6l-25.1,188.2Z"/>
        <path d="M433.7,382.4l-54.6-176.4-1.1,176.4h-4.7l2-189.1c0-1.1.8-2.1,1.9-2.4,1.1-.2,2.2.4,2.7,1.4l58.4,190h-4.5Z"/>
      </g>
      <g>
        <path class="cls-25" d="M319,229.6c7.5,8.7,16,15.1,25.1,19.4,14.5,6.9,30.4,8.2,45.8,4.4,3.1-.8,6.2-1.8,9.2-3,8.2-3.2,16.1-8,23.4-14.2,0,0,.1,0,.2-.1,5.1-4.4,10-9.4,14.4-15.2.7-.8,1.3-1.7,1.9-2.6,1.2-1.7,2.4-3.5,3.6-5.3,28.4-44.3,25.3-107.1-7-144.5-19-22.1-44.4-30.2-68.7-25-.6.1-1.3.3-1.9.4,0,0,0,0-.1,0-2.2.5-4.4,1.2-6.6,2-4,1.4-7.9,3.1-11.7,5.3-11,6.1-21.3,15.3-30.1,27.3-11.9,16.4-19.2,36-22.1,56.2-.2,1.6-.4,3.3-.6,5-3.4,32.8,5,66.5,25.2,89.9Z"/>
        <path class="cls-12" d="M441.6,197.1c-1.6,3.6-3.4,7.1-5.3,10.5-1.9,3.3-4,6.6-6.3,9.7-5.4,7.4-11.3,13.7-17.7,18.8,0,0-.1,0-.2.1-3.2,2.5-6.4,4.8-9.8,6.8-3.3,1.9-6.7,3.6-10.1,5-15.8,6.4-32.6,6.8-48.2,1,0,0,0,0,0,0-4.4-1.6-8.7-3.8-12.9-6.4-3-1.9-6-4.1-8.8-6.5-3.1-2.7-6.2-5.7-9-9-4-4.7-7.6-9.8-10.7-15.2-.6-1.1-1.2-2.1-1.7-3.2-6.3-12.2-10.4-25.9-12.1-40.1-1.2-9.7-1.2-19.7-.2-29.6,0-.6.1-1.1.2-1.7.1-1.1.3-2.2.4-3.3.6-4.4,1.4-8.7,2.5-13,.3-1,.5-2.1.8-3.1,3.8-13.9,9.9-27.1,18.3-38.8,7.1-9.8,15.3-17.7,24.1-23.5,1.3-.9,2.7-1.7,4.1-2.5,2-1.2,4.1-2.2,6.2-3.2,4.1-1.9,8.3-3.4,12.5-4.5,2.4-.6,4.8-1.1,7.2-1.4,0,0,0,0,0,0,0,0,0,0,0,0,.7,0,1.3-.2,1.9-.2,21.7-2.4,43.7,6,60.6,25.5,28.1,32.6,33,85.8,14.1,127.8Z"/>
        <path class="cls-10" d="M421.5,207.4c-27,37.3-71.8,41.1-100,8.4-28.2-32.7-29.2-89.5-2.1-126.8,27-37.4,71.8-41.1,100-8.4,28.2,32.7,29.2,89.5,2.1,126.8Z"/>
        <path class="cls-3" d="M412.9,197.6c-22.5,31.1-59.8,34.3-83.3,7-23.5-27.2-24.3-74.6-1.8-105.7,22.5-31.1,59.8-34.3,83.4-7,23.5,27.2,24.3,74.6,1.8,105.7Z"/>
        <path class="cls-10" d="M404.4,187.7c-18,24.9-47.9,27.4-66.7,5.6-18.8-21.8-19.4-59.7-1.4-84.6,18-24.9,47.9-27.4,66.7-5.6,18.8,21.8,19.4,59.7,1.4,84.6Z"/>
        <path class="cls-38" d="M395.9,177.8c-13.5,18.7-35.9,20.6-50,4.2-14.1-16.3-14.6-44.7-1.1-63.4,13.5-18.7,35.9-20.6,50-4.2,14.1,16.3,14.6,44.7,1.1,63.4Z"/>
        <path class="cls-10" d="M387.4,168c-9,12.4-23.9,13.7-33.3,2.8-9.4-10.9-9.7-29.8-.7-42.3,9-12.4,23.9-13.7,33.3-2.8,9.4,10.9,9.7,29.8.7,42.3Z"/>
        <path class="cls-29" d="M378.9,158.1c-4.5,6.2-12,6.9-16.7,1.4-4.7-5.5-4.9-14.9-.4-21.1,4.5-6.2,12-6.9,16.7-1.4,4.7,5.4,4.9,14.9.4,21.1Z"/>
      </g>
      <path class="cls-22" d="M383.8,204.9l-.2-15.7-.2-16.7-.3-22.8-1-.4-3.9-1.7-17.7,9.4-11.2,6-11.1,5.9-11.1,5.9-5.2,2.8,8.6,5,17.6,10.3-4,6.7-7.3,12.2-7.3,12.2-4.9,8.3-1.2,2.1-1.1,1.8c2.8,2.4,5.8,4.6,8.8,6.5l.6-1.1,3.6-6.1,3.1-5.2,7.4-12.5,7.5-12.7,4-6.8,16.2,9.5,5.3,3.1,5,2.1v-8.2Z"/>
      <g>
        <polygon class="cls-25" points="73.6 381.1 69.1 378 79.9 376.7 79.9 380.1 73.6 381.1"/>
        <polygon class="cls-25" points="373.6 141.5 378.1 144.6 366.9 207 362.4 203.9 373.6 141.5"/>
        <path class="cls-25" d="M373.6,141.5l-60.9,18.8,22.8,20-30.5,34.3-5.7,6.5-1.4,1.6h0c-1.6-.9-3.4-1.3-5.3-1.1-1.8.2-3.5.9-4.7,2h0l-25.4-13.4h0c0-.2,0-.4,0-.6-.8-4.8-5.3-8.4-10.2-7.9-4.9.5-8.2,4.8-7.4,9.6.2,1.5.8,2.9,1.7,4h0s-14.9,44.7-14.9,44.7h0s0,0,0,0c-.5,0-.9,0-1.4,0-4.9.5-8.2,4.8-7.4,9.6,0,.1,0,.3,0,.4h0s0,0,0,0l-21.6,10.9-5,2.5h0c-1.8-1.4-4.2-2.2-6.6-1.9-4.9.5-8.2,4.8-7.4,9.6.3,1.8,1.1,3.5,2.3,4.8h0s-24.9,40-24.9,40h0c-1.5-.8-3.3-1.2-5.1-1-3.6.4-6.3,2.8-7.2,5.9h0s-33-11-33-11h0c-.1-1.2-.5-2.3-1.1-3.4-2.4-4.3-7.9-6-12.3-3.8-4.4,2.2-6,7.4-3.6,11.6,0,0,0,0,0,0h0s-26.8,41.3-26.8,41.3l-.5.8-.9,1.4h6.6l25.6-39.7h0c2.5,1.3,5.6,1.4,8.3,0,1.5-.7,2.7-1.8,3.5-3.1h0s0,0,0,0l1.9.5,32.5,10.8h0c1.4,3.9,5.5,6.6,9.7,6.2,4.9-.5,8.2-4.8,7.4-9.6-.2-1.2-.6-2.3-1.2-3.3l25.8-40.7h0s0,0,0,0c1,.2,2,.3,3.1.2,4.9-.5,8.2-4.8,7.4-9.6,0-.5-.2-.9-.3-1.4h0s26.1-13.1,26.1-13.1h0c1.9,1.9,4.6,2.9,7.4,2.6,4.9-.5,8.2-4.8,7.4-9.6-.4-2.5-1.7-4.6-3.6-6h0s14.4-43.2,14.4-43.2h0c1.2.4,2.5.6,3.8.4,2.7-.3,4.9-1.7,6.2-3.8h0s24.1,12.7,24.1,12.7h0c-.2,1-.2,2,0,3.1.8,4.8,5.3,8.4,10.2,7.9,4.9-.5,8.2-4.8,7.4-9.6-.2-1-.5-2-1-2.9h0s8.7-9.8,8.7-9.8l29.2-32.8h0s22.8,20,22.8,20l11.2-62.4Z"/>
        <g>
          <g>
            <path class="cls-21" d="M350.2,180.1l-2.1,2.3-3.3,3.8-.7.8h0s-29.2,32.8-29.2,32.8l-8.7,9.8-6.2,7-.4-.2-1-.6-9-4.7-24.1-12.6-.8-.4-6.8-3.6-2.4,7.3-14.3,43.2h0s-2.9,8.8-2.9,8.8l-3,1.5-5.3,2.7-26.1,13.1-5,2.5-2.8,4.4-.7,1-1.8,2.8h0s-25.8,40.7-25.8,40.7l-6.4,10.1-.3-.2-9.2-3.1-32.5-10.8-1.9-.5h0l-8.4-2.2-3.4,5.2-25.6,39.7h-6.6l.9-1.4.5-.8,26.8-41.3,4.9-7.6,1.1.3,10.9,2.8,33,11,7.7,2.5,4.7-7.5,24.9-40h0s5.9-9.4,5.9-9.4l.2-.3,5.7-2.9h0l5-2.5,21.6-10.9h0l6.5-3.2,2.3-6.9h0s14.9-44.7,14.9-44.7l3.8-11.6,12.1,6.4,25.4,13.4h0l6.3,3.3,3.8-4.2,1.4-1.6,5.7-6.5,30.5-34.3,4-4.5,2.1-2.3,4.2,3.6Z"/>
            <polygon class="cls-23" points="366.9 207 378.1 144.6 317.2 163.3 366.9 207"/>
          </g>
          <path class="cls-9" d="M117.6,329.8c2.4,4.3.8,9.5-3.6,11.6-4.4,2.2-9.9.5-12.3-3.8-2.4-4.3-.8-9.5,3.6-11.6,4.4-2.2,9.9-.5,12.3,3.8Z"/>
          <path class="cls-6" d="M169,346.1c.8,4.8-2.6,9.2-7.4,9.6-4.9.5-9.4-3-10.2-7.9-.8-4.8,2.6-9.2,7.4-9.6,4.9-.5,9.4,3,10.2,7.9Z"/>
          <path class="cls-5" d="M204.2,292.6c.8,4.8-2.6,9.2-7.4,9.6-4.9.5-9.4-3-10.2-7.9-.8-4.8,2.6-9.2,7.4-9.6,4.9-.5,9.4,3,10.2,7.9Z"/>
          <path class="cls-39" d="M244.8,271.1c.8,4.8-2.6,9.2-7.4,9.6-4.9.5-9.4-3-10.2-7.9-.8-4.8,2.6-9.2,7.4-9.6s9.4,3,10.2,7.9Z"/>
          <path class="cls-2" d="M307.1,232.5c.8,4.8-2.6,9.2-7.4,9.6-4.9.5-9.4-3-10.2-7.9-.8-4.8,2.6-9.2,7.4-9.6,4.9-.5,9.4,3,10.2,7.9Z"/>
          <path class="cls-40" d="M266.7,212.7c.8,4.8-2.6,9.2-7.4,9.6-4.9.5-9.4-3-10.2-7.9-.8-4.8,2.6-9.2,7.4-9.6,4.9-.5,9.4,3,10.2,7.9Z"/>
        </g>
      </g>
      <g>
        <g>
          <g>
            <g>
              <g>
                <polygon class="cls-19" points="123.9 312.2 140.7 313.6 146.6 292.1 125.6 290.5 123.9 312.2"/>
                <path class="cls-25" d="M125.4,290.2l-.9,11.5-.4,4.7-.5,6.1,11.8.9h.7c0,0,4.8.4,4.8.4l1.6-5.6,2.1-7.5,2.5-8.8-21.6-1.7ZM136.2,313h-.7c0,0-11.4-1-11.4-1l.4-5.6.4-4.7.9-11,20.5,1.6-2.4,8.5-2,7.3-1.5,5.2-4.2-.3Z"/>
              </g>
              <path class="cls-31" d="M143.9,308.9s-3.8-2.6-8.9.6c-5.2,3.2-6.2-.7-7.3-1.6-1.1-.9-2.5-1.7-4.7-1.4,0,0-6,14.7-8.3,29.5l35.3,8.2,17.6-4.3s.3-5.4-4.6-6.7c-2.3-.6-7.6-1-13-1.6-3.6-.4-7.1-5.8-7.8-8.8-1.2-5.5,1.7-13.9,1.7-13.9Z"/>
              <path class="cls-10" d="M124.4,334.7c2.4-9.2-4.5-13.9-4.5-14l.4-.6c0,0,7.3,5,4.8,14.7l-.7-.2Z"/>
              <g>
                <path class="cls-10" d="M115.5,331.2c-.5,1.8-.6,3.4-.9,4.6l35,8.2,17.9-4.4s.1-2.5-1.3-4.5l-17.5,4.3-33.1-8.3Z"/>
                <path class="cls-25" d="M149.5,344.3h0s-35.1-8.3-35.1-8.3v-.2c.1-.4.2-.9.3-1.5.1-1,.3-2.1.6-3.2v-.2c0,0,.2,0,.2,0l33.1,8.2,17.6-4.3h0c1.5,2.1,1.4,4.7,1.4,4.8h0c0,.1-.1.2-.1.2l-18,4.4ZM114.8,335.7l34.7,8.2,17.7-4.4c0-.5,0-2.5-1.2-4.1l-17.5,4.3-33-8.2c-.3,1.1-.4,2.1-.6,3,0,.5-.1.9-.2,1.3Z"/>
              </g>
              <path class="cls-10" d="M143.4,331.4h0c-.4-.2-10.7-5.1-10.6-10.2.1-5,3.8-10.6,4-10.8l.6.4c0,0-3.8,5.8-3.9,10.4-.1,4.4,9.2,9.1,10.1,9.5h6.2c0,0,0,.6,0,.6h-6.3Z"/>
              <rect class="cls-10" x="138.9" y="326.2" width="5.7" height=".7" transform="translate(-24.2 11.6) rotate(-4.3)"/>
              <rect class="cls-10" x="135.5" y="321.9" width="5.7" height=".7" transform="translate(-23.9 11.4) rotate(-4.3)"/>
            </g>
            <path class="cls-24" d="M112.8,302.1s3.9.9,9.5,1.5c0,0,.2,0,.3,0,0,0,.2,0,.2,0,5.4.6,12.3.9,19,0,0,0,.2,0,.3,0,0,0,.2,0,.3,0,5-.7,9.9-2.1,13.8-4.6,0,0,6.5-26.7,13.5-55.5h0c2.5-10.3,5-20.9,7.4-30.6,1.7-7.3,3.3-14,4.7-19.9,0-.4.2-.7.2-1.1,1.8-7.7,3.1-13.6,3.8-16.7,4.1-20.1-33.6-24.7-38.7-17.4-2.2,3.1-7,21.8-12.4,44.7-.8,3.3-1.6,6.7-2.3,10.1-9.4,40.9-19.5,89.4-19.5,89.4Z"/>
            <path class="cls-25" d="M154.6,260.4c-.5-.2-.9-.5-1.4-.8-2.1-1.5-3.3-4.1-3.5-7.5-.8-11-.8-28.1-.8-28.3h.6c0,.2,0,17.3.8,28.2.2,3.2,1.4,5.6,3.3,7,3.2,2.4,7.6,1.4,7.7,1.4v.6s-3.5.8-6.7-.7Z"/>
            <path class="cls-25" d="M148.9,200.1s2.3,10.2,28,12.8c0,0,.1,0,.2,0,1.7-7.3,3.3-14,4.7-19.9,0-.4.2-.7.2-1.1-2.2-1-3.7-1.7-3.9-1.8-.5-.1-9.2-.2-9.2-.2l-14.3,1.6-10.3,1.5,4.4,7.1Z"/>
          </g>
          <path class="cls-25" d="M213.7,233.3h-.7c1.7-8.2,6.1-17.2,10-25.1,3.6-7.4,6.7-13.7,5.8-16-.1-.4-.4-.6-.7-.7-1.7-.7-6.1,0-11.6.7-11.3,1.6-28.4,4-39.6-2.8l.4-.6c10.9,6.6,27.9,4.3,39.1,2.7,5.8-.8,10-1.4,12-.7.5.2.9.6,1.1,1.1,1,2.5-2,8.7-5.8,16.5-3.9,7.9-8.2,16.8-9.9,24.8Z"/>
          <path class="cls-36" d="M158,203.6c9.7-1.8,58.6,6.4,73.4-7.4,7.9-7.4,7.2-25.8-8.8-31-10.5-3.4-45.7-7.8-75.7,3.3-19.6,7.3-22.2,41.2,11.1,35.2Z"/>
          <g>
            <g>
              <polygon class="cls-19" points="179.4 254.4 195.2 260.1 206.6 240.9 186.7 233.8 179.4 254.4"/>
              <path class="cls-25" d="M195.3,260.4l-16.3-5.8,7.5-21.1,20.4,7.3-11.6,19.6ZM179.7,254.3l15.4,5.5,11.1-18.7-19.3-6.9-7.2,20.1Z"/>
            </g>
            <path class="cls-15" d="M199.5,256.4s-3-3.5-8.8-1.8c-5.8,1.8-5.8-2.3-6.6-3.5-.8-1.1-2-2.3-4.2-2.6,0,0-8,18.1-9,33l36.3,3.5,17.6-5.5s0-5.4-5-6.4c-2.1-.4-7-.6-12.2-.9-7.1-.5-10.7-4.5-11.7-7.6-1.7-5.4,3.4-8.3,3.4-8.3Z"/>
            <path class="cls-10" d="M180.6,279.4c1.5-9.4-6.4-13.9-6.5-13.9l.3-.6c0,0,8.5,4.7,6.9,14.6h-.7Z"/>
            <g>
              <path class="cls-10" d="M171.4,276.8c-.3,1.8-.3,3.5-.4,4.7l36.3,3.5,17.6-5.5s0-2.5-1.6-4.4l-17.2,5.4-34.8-3.7Z"/>
              <path class="cls-25" d="M207.3,285.3h0s-36.5-3.6-36.5-3.6v-.2c0-.4.1-.9.1-1.5,0-1,.1-2.1.3-3.3v-.2s.2,0,.2,0l34.7,3.7,17.3-5.4h0c1.6,2,1.7,4.6,1.7,4.7h0c0,.1-17.8,5.7-17.8,5.7ZM171.2,281.3l36.1,3.5,17.4-5.5c0-.5-.2-2.5-1.5-4.1l-17.1,5.3h0s-34.6-3.6-34.6-3.6c-.2,1.1-.2,2.1-.3,3,0,.5,0,.9,0,1.3Z"/>
            </g>
            <path class="cls-10" d="M199.3,274.4h0c-.5-.2-11.2-4.1-11.5-9.2-.4-5,4.4-9.1,4.6-9.2l.4.5s-4.7,4-4.3,8.7c.3,4.4,10,8.2,11,8.5l6.2-.7v.7c0,0-6.2.7-6.2.7Z"/>
            <rect class="cls-10" x="194.3" y="269.3" width="5.7" height=".7" transform="translate(-42.4 36.9) rotate(-9.7)"/>
            <rect class="cls-10" x="190.5" y="265.4" width="5.7" height=".7" transform="translate(-41.9 36.2) rotate(-9.7)"/>
          </g>
          <path class="cls-14" d="M235.5,188.5c-1.9,9.5-6.5,25.9-10.6,38.1-4.1,12.2-9.7,29.6-9.7,29.6,0,0-27.3-2.3-40.8-21.5,0,0,16.4-36.2,20.5-47.1,4.1-10.9,44-16.1,40.6.9Z"/>
          <path class="cls-25" d="M179.4,239.6h-.7c1.7-8.2,6.1-17.2,10-25.1,3.6-7.4,6.7-13.7,5.8-16-.1-.4-.4-.6-.7-.7-1.7-.7-6.1,0-11.6.7-11.3,1.6-28.4,4-39.6-2.8l.4-.6c10.9,6.6,27.9,4.3,39.1,2.7,5.8-.8,10-1.4,12-.7.5.2.9.6,1.1,1.1,1,2.5-2,8.7-5.8,16.5-3.9,7.9-8.2,16.8-9.9,24.8Z"/>
          <path class="cls-25" d="M196.8,228l-.5-.4c0,0,7.2-9.1,14.8-14.7l.4.6c-7.5,5.5-14.6,14.5-14.7,14.6Z"/>
          <path class="cls-25" d="M218.3,247.8l-.6-.2c4.7-12.8,8.7-26.6,11.6-36.7,1.2-4.2,2.3-7.8,3.1-10.6.2-.6.4-1.1.6-1.7,1.9-5.7,4.2-12.8,1.2-22.8-3.2-10.9-27.6-13-27.9-13.1v-.7c1.1,0,25.2,2.3,28.5,13.6,3,10.2.7,17.5-1.2,23.2-.2.6-.4,1.2-.6,1.7-.9,2.8-1.9,6.4-3.1,10.6-2.9,10.1-6.9,24-11.7,36.7Z"/>
          <path class="cls-33" d="M186,92.9c-2.4,4.3,1.9,19.9,10.4,25.9,8.5,6,32.3,14.9,49.5,18.9,0,0,22.9-13.1,6.6-37,0,0-33-12.9-42.7-14.6-9.7-1.7-21.2,2.2-23.8,6.9Z"/>
          <path class="cls-25" d="M252.5,100.7s-10.2-2.1-13.8,16c-3.6,18.1,5.2,20.3,7.2,21,2,.7,24.3-15.3,6.6-37Z"/>
          <path class="cls-26" d="M219.9,108c1.6,14.7-8.8,48.2-5.4,55.3,0,0-14.1,4.4-23.8.7-24.1-9-41.6,36.3-57.9,24.6.4-49,18.1-96.8,35.6-103.8,17.8-7.1,48.5-3.4,51.5,23.3Z"/>
          <path class="cls-25" d="M202.4,154.2c-.1,0-13.9,5.8-23.5-3.8l.5-.5c9.3,9.3,22.6,3.7,22.7,3.6l.3.6Z"/>
          <path class="cls-25" d="M199.2,96.7v-.7c4.6.2,7.3-4,7.3-4l.6.4c-.1.2-2.9,4.6-7.9,4.3Z"/>
          <g>
            <path class="cls-19" d="M203.8,74.9l-5,16.1s-14-.5-14.5-9.4l3.6-10.9,15.9,4.2Z"/>
            <path class="cls-34" d="M202.6,78.9l-1.7,5.1c-10.2-.6-9.4-9.4-9.3-9.4,10.5,4.1,11,4.3,11,4.3Z"/>
            <path class="cls-19" d="M205.1,81.4c-4.5.7-13.8-4-16.3-7.8-.9-1.4-1.3-5.3-1.1-7.3.8-6.2,1.4-11.8,5.7-14.3,1.8-1,6.8-2.3,8.7-2.2,6.1.2,7.5,5.9,8.6,11.8,1.2,6.7,2.4,18.4-5.6,19.7Z"/>
            <path class="cls-25" d="M208.9,54.8c-2.9-5.6-2.8.4-7.4-1-5-1.6-9.8.6-9.4,4.4.7,7.4-2.1,6.7-2.1,6.7l-3.2,9.2s-5.7-5.9-6.3-17.1c-.4-7.8,8-9.3,14.1-13,7.2-4.3,17,.6,14.3,10.7Z"/>
            <path class="cls-25" d="M206.2,70.3l-.3-.6c.9-.4,2.1-1.2,2.2-1.7,0,0,0-.1-.1-.2-2.4-2.2-2.4-5.7-2.4-5.8h0c0,0,0-.2,0-.2,0,0,1.3-2.2,4-1.8v.7c-2.1-.3-3.1,1-3.3,1.4,0,.5.1,3.4,2.1,5.2.3.3.4.6.3.8-.2,1.1-2.2,2.1-2.6,2.2Z"/>
            <path class="cls-19" d="M191.1,66.3c.4,2.3-1.2,4.5-3.5,4.9-2.3.4-4.5-1.2-4.9-3.5-.4-2.3,1.2-4.5,3.5-4.9,2.3-.4,4.5,1.2,4.9,3.5Z"/>
            <path class="cls-25" d="M186.7,70.2c-.7,0-1.4-.5-1.4-.6l.4-.5c.2.1.7.5,1,.4.1,0,.2,0,.3-.2.1-.2.1-.2-.1-.5-.2-.3-.6-.8-.3-1.7.2-.6.5-1,.8-1.3.4-.5.5-.6,0-.9-.8-.8-2.8.8-2.8.8l-.4-.5c0,0,2.4-2,3.7-.8.9.8.4,1.5,0,1.9-.2.3-.5.6-.7,1-.2.5,0,.8.2,1.1.2.3.5.7.1,1.3-.2.3-.4.4-.7.5,0,0,0,0-.1,0Z"/>
            <path class="cls-25" d="M208.7,71.8s-3.2,1.5-7.4-.3c0,0-1,4.4,1.5,5,2.5.5,5.9-4.7,5.9-4.7Z"/>
            <path class="cls-25" d="M198.6,63l-.4-.5c3.7-2.8,5.3-1.1,5.3-1l-.5.4.3-.2-.3.2s-1.3-1.3-4.4,1.1Z"/>
            <path class="cls-25" d="M200.4,64.2c.1.6.7,1,1.3.9.6-.1,1-.7.9-1.3-.1-.6-.7-1-1.3-.9-.6.1-1,.7-.9,1.3Z"/>
            <path class="cls-25" d="M207.6,63.1c.1.6.7,1,1.3.9.6-.1,1-.7.9-1.3-.1-.6-.7-1-1.3-.9-.6.1-1,.7-.9,1.3Z"/>
          </g>
          <path class="cls-25" d="M296.8,68.1s7.3,2.5,7,5.6c-.3,3.1-4.2-.5-4.2-.5,0,0,2.5,2.6,1.7,3.4-.9.8-3.3.3-4.8-1.2-1.5-1.6-5.6-3.7-4.9-4.6.7-.9,1.4-3.4,5.3-2.7Z"/>
          <path class="cls-19" d="M302.9,68.2c1.6-.4,4.6-2-2.2-2.8-6.8-.8-13,1.2-17,8.7-2.9,5.5-4.3,7.3-4.9,7.9,0,0,0,0,0,0-12.1,11.5-30,21.2-34.1,24.1-7.7,5.5-7.1,32.4,13.2,25.6,9.8-3.2,24.8-36.7,28.1-44.8,0,0,0,0,0-.2,1.3-1.5,3.7-3.9,3.7-3.9,3.1-1,5-5.4,6.1-6.6,1.1-1.2,4.2-2.7,5.2-3.5,1-.8,2.9-1.6,1-2.5-1.9-.9-4.1.4-6.8,1.5s-3.3-.9-3.3-.9c.4-2.3,9.1-2.4,10.8-2.8Z"/>
        </g>
        <path class="cls-25" d="M218.2,131.1h-.8c0-.2,1.8-10.5,2-14.8h.8c-.2,4.4-1.9,14.4-2,14.8Z"/>
      </g>
      <g>
        <path class="cls-19" d="M118.6,187.6c.8-13.7,22.3-44.2,22.9-47.8l9.1-6.3s3.4-5.9,3-6.8c-.4-.9-14.4-13.9-14.4-13.9,0,0-9,5.1-16.4,11.5-13.5,9.2-14,61-13.9,61.4l9.7,1.9Z"/>
        <path class="cls-27" d="M180.7,91.6c-2.7-4.1-9.4-8.2-18.7-3.3-9.2,4.9-29.1,17.2-40.4,30.6,0,0,13.3,13.5,34.1,17.2,0,0,17.3-16.4,23.2-24.3,5.9-7.9,4.8-15.8,1.8-20.2Z"/>
        <path class="cls-25" d="M140.5,116.6c0-.1-2.8-11,7.7-17.7l.4.6c-10,6.4-7.4,16.8-7.4,16.9l-.7.2Z"/>
        <g>
          <path d="M120.6,208.8l-23.4-5c-1.1-.2-2-1-2.4-1.9-.4-1-.4-2.1.2-3.1l3.6-6.2c.7-1.3,2.2-1.9,3.6-1.6l19,4.1c1.4.3,2.5,1.5,2.7,2.9l.8,7.2c.1,1.1-.3,2.2-1.1,2.9-.8.7-1.9,1-3,.8ZM101.6,193.8c-.2,0-.3,0-.4.2l-3.6,6.2c0,.1,0,.3,0,.3,0,0,.1.2.3.2l23.4,5c.2,0,.3,0,.3,0,0,0,.1-.2.1-.3l-.8-7.2c0-.2-.1-.3-.3-.3l-18.9-4.1Z"/>
          <path d="M139.6,271.4l-75-16.1c-2.4-.5-4-2.9-3.5-5.3l10.8-50.5c.5-2.4,2.9-4,5.3-3.5l75,16.1c2.4.5,4,2.9,3.5,5.3l-10.8,50.5c-.5,2.4-2.9,4-5.3,3.5Z"/>
          <path class="cls-43" d="M133.8,270.2l-75-16.1c-2.4-.5-4-2.9-3.5-5.3l10.8-50.5c.5-2.4,2.9-4,5.3-3.5l75,16.1c2.4.5,4,2.9,3.5,5.3l-10.8,50.5c-.5,2.4-2.9,4-5.3,3.5Z"/>
          <rect class="cls-10" x="104.7" y="175.2" width="2" height="85.7" transform="translate(-129.7 275.7) rotate(-77.9)"/>
          <path class="cls-10" d="M113,225.8l-15.8-3.4,2.5-11.7,15.8,3.4-2.5,11.7ZM98.3,221.6l13.9,3,2.1-9.8-13.9-3-2.1,9.8Z"/>
        </g>
        <g>
          <path class="cls-19" d="M117.6,199.5s1.3-1.5,2.1-2.6c.8-1.1,1-2,.3-4.1-.7-2.1-1.3-7.3-3.1-8.6-1.7-1.3-6.5-4.7-10.7-.4-4.2,4.4-4.7,14-1.3,12.2,0,0-.5,3.8,3.1,2.7,0,0,1.3,4.1,4.1,1.7,0,0,2.2,5.2,5.5-1Z"/>
          <path class="cls-25" d="M112.1,200.6c.6-.6,1-1.3,1.4-2,.4-.7.7-1.5.9-2.3-.6.6-1,1.3-1.4,2-.4.7-.7,1.5-.9,2.3Z"/>
          <path class="cls-25" d="M108,198.9c.6-.9,1.1-1.9,1.6-2.8.5-1,.9-1.9,1.3-3-.4.4-.7.8-1,1.3-.3.5-.6.9-.8,1.4-.5,1-.9,2-1.2,3.1Z"/>
          <path class="cls-25" d="M104.8,196.1c.3-.7.5-1.4.7-2.1.1-.3.2-.7.4-1,.1-.4.3-.7.4-1.1-.6.5-1,1.2-1.2,1.9-.1.4-.2.7-.3,1.1,0,.4,0,.8,0,1.2Z"/>
        </g>
        <path class="cls-25" d="M155.9,136.6h-.2c-4.9-.9-10-2.7-10.1-2.7l.3-.8c0,0,5,1.8,9.7,2.6,1.7-1.6,17.3-16.4,21.1-21.7l.7.5c-4,5.7-20.6,21.3-21.3,22h-.2Z"/>
        <path class="cls-19" d="M118.8,184.5s-.9,2-.3,3.4l-5-.3-3.8-3.4-1.2-1.5s.3-.3.7-1.1c.4-.8,7.3-1.1,7.3-1.1l3,1.4-.7,2.7Z"/>
      </g>
    </g>
  </g>
</svg>