<?xml version="1.0" encoding="UTF-8"?>
<svg xmlns="http://www.w3.org/2000/svg" version="1.1" xmlns:xlink="http://www.w3.org/1999/xlink" viewBox="0 0 471.7 391.3">
  <defs>
    <style>
      .cls-1 {
        fill: #835f59;
      }

      .cls-2 {
        fill: #0d4ab5;
      }

      .cls-3 {
        fill: url(#_裼隯澵_胙琅韃炅_7-11);
      }

      .cls-4 {
        fill: url(#_裼隯澵_胙琅韃炅_25);
      }

      .cls-5 {
        fill: url(#_裼隯澵_胙琅韃炅_7-13);
      }

      .cls-6 {
        fill: #000a3d;
      }

      .cls-7 {
        fill: url(#_裼隯澵_胙琅韃炅_7-6);
      }

      .cls-8 {
        fill: url(#_裼隯澵_胙琅韃炅_31-6);
      }

      .cls-9 {
        fill: url(#_裼隯澵_胙琅韃炅_13);
      }

      .cls-10 {
        fill: #fff;
      }

      .cls-11 {
        fill: url(#_裼隯澵_胙琅韃炅_31-9);
      }

      .cls-12 {
        fill: url(#_裼隯澵_胙琅韃炅_31-7);
      }

      .cls-13 {
        fill: url(#_裼隯澵_胙琅韃炅_13-4);
      }

      .cls-14 {
        fill: url(#_裼隯澵_胙琅韃炅_7);
      }

      .cls-15 {
        fill: url(#_裼隯澵_胙琅韃炅_7-4);
      }

      .cls-16 {
        fill: #ff4900;
      }

      .cls-17 {
        fill: url(#_裼隯澵_胙琅韃炅_31-5);
      }

      .cls-18 {
        fill: url(#_裼隯澵_胙琅韃炅_31-4);
      }

      .cls-19 {
        fill: url(#_裼隯澵_胙琅韃炅_31-10);
      }

      .cls-20 {
        fill: url(#_裼隯澵_胙琅韃炅_13-3);
      }

      .cls-21 {
        fill: #fa8921;
      }

      .cls-22 {
        fill: url(#_裼隯澵_胙琅韃炅_7-12);
      }

      .cls-23 {
        fill: url(#_裼隯澵_胙琅韃炅_13-2);
      }

      .cls-24 {
        fill: url(#_裼隯澵_胙琅韃炅_7-9);
      }

      .cls-25 {
        fill: url(#_裼隯澵_胙琅韃炅_25-4);
      }

      .cls-26 {
        fill: #bed5e8;
      }

      .cls-27 {
        fill: url(#_裼隯澵_胙琅韃炅_31-3);
      }

      .cls-28 {
        fill: url(#_裼隯澵_胙琅韃炅_7-7);
      }

      .cls-29 {
        fill: url(#_裼隯澵_胙琅韃炅_25-5);
      }

      .cls-30 {
        fill: url(#_裼隯澵_胙琅韃炅_7-8);
      }

      .cls-31 {
        fill: url(#_裼隯澵_胙琅韃炅_7-10);
      }

      .cls-32 {
        fill: url(#_裼隯澵_胙琅韃炅_31-2);
      }

      .cls-33 {
        fill: #9bcef5;
      }

      .cls-34 {
        fill: url(#_裼隯澵_胙琅韃炅_25-3);
      }

      .cls-35 {
        fill: #eaf4fe;
      }

      .cls-36 {
        fill: url(#_裼隯澵_胙琅韃炅_7-3);
      }

      .cls-37 {
        fill: url(#_裼隯澵_胙琅韃炅_7-2);
      }

      .cls-38 {
        fill: #ffd2d4;
      }

      .cls-39 {
        fill: url(#_裼隯澵_胙琅韃炅_25-2);
      }

      .cls-40 {
        fill: url(#_裼隯澵_胙琅韃炅_31-8);
      }

      .cls-41 {
        fill: url(#_裼隯澵_胙琅韃炅_31);
      }

      .cls-42 {
        fill: url(#_裼隯澵_胙琅韃炅_7-5);
      }
    </style>
    <linearGradient id="_裼隯澵_胙琅韃炅_7" data-name="ﾁ裼隯澵隆 胙琅韃炅 7" x1="85.2" y1="321.1" x2="145.9" y2="321.1" gradientUnits="userSpaceOnUse">
      <stop offset="0" stop-color="#ffa401"/>
      <stop offset="1" stop-color="#ff5001"/>
    </linearGradient>
    <linearGradient id="_裼隯澵_胙琅韃炅_7-2" data-name="ﾁ裼隯澵隆 胙琅韃炅 7" x1="60.9" y1="254.9" x2="120.3" y2="254.9" xlink:href="#_裼隯澵_胙琅韃炅_7"/>
    <linearGradient id="_裼隯澵_胙琅韃炅_31" data-name="ﾁ裼隯澵隆 胙琅韃炅 31" x1="107.5" y1="256.8" x2="175.2" y2="202" gradientUnits="userSpaceOnUse">
      <stop offset="0" stop-color="#dae5f9"/>
      <stop offset="1" stop-color="#075cc9"/>
    </linearGradient>
    <linearGradient id="_裼隯澵_胙琅韃炅_31-2" data-name="ﾁ裼隯澵隆 胙琅韃炅 31" x1="49.8" y1="315.7" x2="96" y2="279.1" xlink:href="#_裼隯澵_胙琅韃炅_31"/>
    <linearGradient id="_裼隯澵_胙琅韃炅_25" data-name="ﾁ裼隯澵隆 胙琅韃炅 25" x1="117.4" y1="268.7" x2="172.8" y2="268.7" gradientUnits="userSpaceOnUse">
      <stop offset="0" stop-color="#0045ad"/>
      <stop offset="1" stop-color="#010630"/>
    </linearGradient>
    <linearGradient id="_裼隯澵_胙琅韃炅_7-3" data-name="ﾁ裼隯澵隆 胙琅韃炅 7" x1="321.1" y1="371.8" x2="356.2" y2="371.8" xlink:href="#_裼隯澵_胙琅韃炅_7"/>
    <linearGradient id="_裼隯澵_胙琅韃炅_13" data-name="ﾁ裼隯澵隆 胙琅韃炅 13" x1="340.5" y1="371.7" x2="395.3" y2="371.7" gradientUnits="userSpaceOnUse">
      <stop offset="0" stop-color="#d1e7ff"/>
      <stop offset="1" stop-color="#a5cdfe"/>
    </linearGradient>
    <linearGradient id="_裼隯澵_胙琅韃炅_7-4" data-name="ﾁ裼隯澵隆 胙琅韃炅 7" x1="333.9" y1="333.5" x2="361.1" y2="333.5" xlink:href="#_裼隯澵_胙琅韃炅_7"/>
    <linearGradient id="_裼隯澵_胙琅韃炅_13-2" data-name="ﾁ裼隯澵隆 胙琅韃炅 13" x1="349" y1="333.4" x2="391.4" y2="333.4" xlink:href="#_裼隯澵_胙琅韃炅_13"/>
    <linearGradient id="_裼隯澵_胙琅韃炅_31-3" data-name="ﾁ裼隯澵隆 胙琅韃炅 31" x1="336.1" y1="344.9" x2="363.6" y2="344.9" xlink:href="#_裼隯澵_胙琅韃炅_31"/>
    <linearGradient id="_裼隯澵_胙琅韃炅_13-3" data-name="ﾁ裼隯澵隆 胙琅韃炅 13" x1="357.6" y1="344.8" x2="398.1" y2="344.8" xlink:href="#_裼隯澵_胙琅韃炅_13"/>
    <linearGradient id="_裼隯澵_胙琅韃炅_31-4" data-name="ﾁ裼隯澵隆 胙琅韃炅 31" x1="344.6" y1="356.7" x2="392.8" y2="356.7" xlink:href="#_裼隯澵_胙琅韃炅_31"/>
    <linearGradient id="_裼隯澵_胙琅韃炅_13-4" data-name="ﾁ裼隯澵隆 胙琅韃炅 13" x1="327.9" y1="356.6" x2="357.6" y2="356.6" xlink:href="#_裼隯澵_胙琅韃炅_13"/>
    <linearGradient id="_裼隯澵_胙琅韃炅_7-5" data-name="ﾁ裼隯澵隆 胙琅韃炅 7" x1="244.7" y1="246.1" x2="285.3" y2="246.1" xlink:href="#_裼隯澵_胙琅韃炅_7"/>
    <linearGradient id="_裼隯澵_胙琅韃炅_25-2" data-name="ﾁ裼隯澵隆 胙琅韃炅 25" x1="153.6" y1="346.9" x2="334.7" y2="346.9" xlink:href="#_裼隯澵_胙琅韃炅_25"/>
    <linearGradient id="_裼隯澵_胙琅韃炅_25-3" data-name="ﾁ裼隯澵隆 胙琅韃炅 25" x1="233.4" y1="349.4" x2="338.8" y2="349.4" xlink:href="#_裼隯澵_胙琅韃炅_25"/>
    <linearGradient id="_裼隯澵_胙琅韃炅_7-6" data-name="ﾁ裼隯澵隆 胙琅韃炅 7" x1="193.6" y1="373.1" x2="230.6" y2="373.1" xlink:href="#_裼隯澵_胙琅韃炅_7"/>
    <linearGradient id="_裼隯澵_胙琅韃炅_25-4" data-name="ﾁ裼隯澵隆 胙琅韃炅 25" x1="142.5" y1="349.6" x2="233.4" y2="349.6" xlink:href="#_裼隯澵_胙琅韃炅_25"/>
    <linearGradient id="_裼隯澵_胙琅韃炅_7-7" data-name="ﾁ裼隯澵隆 胙琅韃炅 7" x1="171.9" y1="297.2" x2="287.9" y2="258.4" xlink:href="#_裼隯澵_胙琅韃炅_7"/>
    <linearGradient id="_裼隯澵_胙琅韃炅_7-8" data-name="ﾁ裼隯澵隆 胙琅韃炅 7" x1="233.7" y1="372.6" x2="271.1" y2="372.6" xlink:href="#_裼隯澵_胙琅韃炅_7"/>
    <linearGradient id="_裼隯澵_胙琅韃炅_7-9" data-name="ﾁ裼隯澵隆 胙琅韃炅 7" x1="162" y1="267.7" x2="278.1" y2="228.9" xlink:href="#_裼隯澵_胙琅韃炅_7"/>
    <linearGradient id="_裼隯澵_胙琅韃炅_25-5" data-name="ﾁ裼隯澵隆 胙琅韃炅 25" x1="231.2" y1="192.6" x2="266.4" y2="192.6" xlink:href="#_裼隯澵_胙琅韃炅_25"/>
    <linearGradient id="_裼隯澵_胙琅韃炅_31-5" data-name="ﾁ裼隯澵隆 胙琅韃炅 31" x1="213.2" y1="332.1" x2="249.2" y2="332.1" xlink:href="#_裼隯澵_胙琅韃炅_31"/>
    <linearGradient id="_裼隯澵_胙琅韃炅_31-6" data-name="ﾁ裼隯澵隆 胙琅韃炅 31" x1="249.2" y1="310.3" x2="332.6" y2="310.3" xlink:href="#_裼隯澵_胙琅韃炅_31"/>
    <linearGradient id="_裼隯澵_胙琅韃炅_7-10" data-name="ﾁ裼隯澵隆 胙琅韃炅 7" x1="96.6" y1="127.6" x2="174.7" y2="127.6" xlink:href="#_裼隯澵_胙琅韃炅_7"/>
    <linearGradient id="_裼隯澵_胙琅韃炅_31-7" data-name="ﾁ裼隯澵隆 胙琅韃炅 31" x1="90.4" y1="146.9" x2="133.5" y2="126.8" xlink:href="#_裼隯澵_胙琅韃炅_31"/>
    <linearGradient id="_裼隯澵_胙琅韃炅_31-8" data-name="ﾁ裼隯澵隆 胙琅韃炅 31" x1="190.6" y1="87.5" x2="236" y2="65.1" xlink:href="#_裼隯澵_胙琅韃炅_31"/>
    <linearGradient id="_裼隯澵_胙琅韃炅_7-11" data-name="ﾁ裼隯澵隆 胙琅韃炅 7" x1="227.8" y1="85.5" x2="265.8" y2="85.5" xlink:href="#_裼隯澵_胙琅韃炅_7"/>
    <linearGradient id="_裼隯澵_胙琅韃炅_7-12" data-name="ﾁ裼隯澵隆 胙琅韃炅 7" x1="328.3" y1="66.3" x2="394.7" y2="66.3" xlink:href="#_裼隯澵_胙琅韃炅_7"/>
    <linearGradient id="_裼隯澵_胙琅韃炅_31-9" data-name="ﾁ裼隯澵隆 胙琅韃炅 31" x1="311" y1="93.8" x2="355.9" y2="69" xlink:href="#_裼隯澵_胙琅韃炅_31"/>
    <linearGradient id="_裼隯澵_胙琅韃炅_31-10" data-name="ﾁ裼隯澵隆 胙琅韃炅 31" x1="314.8" y1="192.4" x2="339.8" y2="179" xlink:href="#_裼隯澵_胙琅韃炅_31"/>
    <linearGradient id="_裼隯澵_胙琅韃炅_7-13" data-name="ﾁ裼隯澵隆 胙琅韃炅 7" x1="321.1" y1="215" x2="336.8" y2="215" xlink:href="#_裼隯澵_胙琅韃炅_7"/>
  </defs>
  <!-- Generator: Adobe Illustrator 28.7.1, SVG Export Plug-In . SVG Version: 1.2.0 Build 142)  -->
  <g>
    <g id="_レイヤー_1" data-name="レイヤー_1">
      <g>
        <g>
          <rect class="cls-6" x="82.9" y="379.8" width="327.4" height="2.5"/>
          <g>
            <path class="cls-35" d="M72.9,202.3c13-84.2,86.1-239.7,193.4-177.2,92.1,53.7,28.7,118.8,104.4,145.6,129.3,45.7,16.9,238.6-139.9,205.3-156.8-33.3-170-95.3-158-173.6Z"/>
            <path class="cls-35" d="M332.9,52.8c-6.1,30.7,4.6,87.9,64.6,107.5,60,19.6,39.2-27.5,0-65.8-39.2-38.3-55.4-87.9-64.6-41.7Z"/>
          </g>
          <g>
            <g>
              <g>
                <path class="cls-26" d="M363.2,286.4h-30.7v-16.8h30.7v16.8ZM334.2,284.7h27.3v-13.4h-27.3v13.4Z"/>
                <path class="cls-26" d="M384.3,301.5h-30.7v-16.8h30.7v16.8ZM355.3,299.8h27.3v-13.4h-27.3v13.4Z"/>
              </g>
              <path class="cls-26" d="M287.4,141.6h-30.7v-16.8h30.7v16.8ZM258.4,139.9h27.3v-13.4h-27.3v13.4Z"/>
              <g>
                <path class="cls-26" d="M233.3,327.7h-30.7v-16.8h30.7v16.8ZM204.4,325.9h27.3v-13.4h-27.3v13.4Z"/>
                <path class="cls-26" d="M262.4,327.7h-30.7v-16.8h30.7v16.8ZM233.4,325.9h27.3v-13.4h-27.3v13.4Z"/>
                <path class="cls-26" d="M247.8,342.7h-30.7v-16.8h30.7v16.8ZM218.9,341h27.3v-13.4h-27.3v13.4Z"/>
              </g>
            </g>
            <g>
              <g>
                <path class="cls-26" d="M183.8,223.2h-30.7v-16.8h30.7v16.8ZM154.9,221.4h27.3v-13.4h-27.3v13.4Z"/>
                <path class="cls-26" d="M162.8,238.3h-30.7v-16.8h30.7v16.8ZM133.8,236.5h27.3v-13.4h-27.3v13.4Z"/>
              </g>
              <g>
                <path class="cls-26" d="M177.9,81.4h-30.7v-16.8h30.7v16.8ZM148.9,79.7h27.3v-13.4h-27.3v13.4Z"/>
                <path class="cls-26" d="M163.4,96.5h-30.7v-16.8h30.7v16.8ZM134.4,94.8h27.3v-13.4h-27.3v13.4Z"/>
              </g>
            </g>
          </g>
        </g>
        <g>
          <g>
            <polygon class="cls-6" points="123.7 380.9 125.3 380.9 123 329.8 121.3 329.8 123.7 380.9"/>
            <path class="cls-6" d="M85.7,326.9c0-3.5,22.8-3.8,29.8-3.8s29.8.3,29.8,3.8-22.8,3.8-29.8,3.8-29.8-.3-29.8-3.8ZM115.5,324.7c-15.4,0-25.4,1.2-27.8,2.1,2.4,1,12.4,2.1,27.8,2.1s25.4-1.2,27.8-2.1c-2.4-1-12.4-2.1-27.8-2.1Z"/>
            <path class="cls-14" d="M143.7,300.3c1.4,3.5,2.2,7.3,2.2,11.3,0,16.8-13.6,30.4-30.4,30.4s-30.4-13.6-30.4-30.4.8-7.8,2.2-11.3h56.4Z"/>
            <path class="cls-6" d="M87.3,300.3c0,2.5,12.6,4.5,28.2,4.5s28.2-2,28.2-4.5-12.6-4.5-28.2-4.5-28.2,2-28.2,4.5Z"/>
            <path class="cls-1" d="M90.1,300.3c0,1.8,11.4,3.3,25.4,3.3s25.4-1.5,25.4-3.3-11.4-3.3-25.4-3.3-25.4,1.5-25.4,3.3Z"/>
            <path class="cls-10" d="M90.1,310.5c0-2.3,3.6-2.3,3.5,0-.2,5.4.5,10.8,4.4,14.8,1.6,1.6-.9,4.2-2.5,2.5-4.5-4.7-5.7-11-5.5-17.4Z"/>
            <path class="cls-6" d="M115.5,330.7c7,0,29.8-.3,29.8-3.8h-1.7c0-.2,0-.3,0-.3-1,1-11.4,2.4-28.3,2.4s-27.3-1.4-28.3-2.4c0,0,0,.1,0,.3h-1.7c0,3.5,22.8,3.8,29.8,3.8Z"/>
            <polygon class="cls-6" points="149.6 380.9 151.3 380.8 145 327.3 143.3 327.4 149.6 380.9"/>
            <polygon class="cls-6" points="82.9 380.9 88.2 327.6 86.5 327.5 81.2 380.8 82.9 380.9"/>
            <polygon class="cls-6" points="111.2 380.9 112.2 329.8 110.6 329.8 109.5 380.9 111.2 380.9"/>
            <path class="cls-16" d="M90.1,300.3c0,1.3,6.1,2.5,14.9,3,.5,0,1,0,1.6,0,.7,0,1.5,0,2.2,0,.5,0,1,0,1.5,0,1.1,0,2.3,0,3.5,0,.5,0,1.1,0,1.6,0h0c2.4,0,4.6,0,6.8-.1.5,0,1.1,0,1.6,0,9.9-.5,17-1.7,17-3.1s-5.9-2.5-14.5-3c-.6,0-1.1,0-1.7,0-2.6-.1-5.3-.2-8.2-.2h-1.6c-1.8,0-3.5,0-5.1,0-.5,0-1,0-1.5,0-.9,0-1.7,0-2.5.1-.5,0-1.1,0-1.6,0-8.3.6-14.1,1.7-14.1,3Z"/>
            <path class="cls-37" d="M115.2,270.7c-1.1-.6-2.1-1.6-2.9-2.4-1.3-1.3-3.3-3.4-3.3-5.4,0-1.6,1.7-2,2.8-1,1,.9,1.4,2.2,2.2,3.2,1,1.2,2.5,2.2,4.1,2.9,2.2-3.1,2.6-7.4,1.8-11.2-.9-4.3-3.7-10.5-8-16.3-.5,1.5-1.4,3-2,4-.8,1.3-2.1,3.9-3.6,4.4-1.6.6-2-.9-1.7-2.2,0,0,0-.1,0-.2,0,0,0,0,0,0,0-.1,0-.2,0-.3,0-.1.1-.2.2-.2.9-1.7,1.9-3.4,2.7-5.2.6-1.3.9-2.7,1.3-4.1-3.7-4.2-8.3-7.9-13.3-10,1,2.1,1.7,4.5,2.4,6.6.7,2.1,2.4,6.7.8,8.8-.4.6-1.4.9-2.1.6-1.1-.6-1-3-1-4,0-2.6,0-4.8-.9-7.3-.7-2.2-1.9-4.1-3.2-6-3.1-.7-6.4-.8-9.8,0,1,.9,1.8,2,2,3.2.2,1.2-.5,3.9-2.1,4-2,.1-2.2-4.6-2.4-6.5-1.8.7-3.7,1.6-5.6,2.8-3.2,2.1-5.7,4.9-7.5,8,0,0,0,.1,0,.2.7,5.2,7.3,7,11.2,9,1.2.6,5.8,2.8,5.2,4.6-.3,1-1.9,1-2.7.8-2-.4-3.7-1.9-5.3-3.1-3.5-2.8-7-5.4-10-8.7-3.2,6.9-4,14.9-3.9,20.8.1,0,.2,0,.4,0,2.3,1,4.9,1.4,7.4,1.2,1.6-.1,3.2-.5,4.8-.3,1.3.2,3.4,1.8,1.9,3.1-1.3,1.1-4.1.9-5.7.7-3.1-.4-5.9-1.4-8.7-2.8,0,1.7.3,3.2.4,4.3.9,5.8,4.4,11,9.2,14.3,1.6,1.1,3.4,1.9,5.2,2.5,3.6-3.1,6.3-6.5,7.9-11.2.6-1.9,2-7,4.6-6.8,1.2,0,2,1.5,2.2,2.5.4,1.7-.7,3.5-1.6,4.8-1.4,2-3,3.9-4.3,5.9-1.3,2-2.7,3.9-4.2,5.8,3.4.4,6.9.2,10.1-.8,5.1-1.6,10.4-6.9,7.6-12.3,5.5,1.2,12.2,2,17.1-.8ZM70.3,256.3c0,0-.2,0-.2,0-.1.2-.4.3-.6,0,0,0-.1-.1-.2-.2-.5-.3-.9-1.1-1-1.7,0-.1,0-.3,0-.3,0-.3-.1-.7-.1-1,0-.8.4-1.7,1.3-1.5,1.1.2,2.1,1.3,2.2,2.4,0,.9-.4,2-1.4,2.3ZM103.5,257.5c-.6.7-1.5.8-2.2.2-.7-.7-.9-1.7-.7-2.6,0-.2.1-.2.3-.3,0,0,0,0,0,0,.8-.3,1.9-.4,2.6.2.8.7.5,1.8,0,2.5Z"/>
            <path class="cls-41" d="M158.5,240.7c2.8,1,5.6,1.8,8.6,2.1,1.6-5.6,1.4-11.7.7-17.5-2.1,2.1-4.3,3.9-7.1,5.2-2.3,1.1-6.4,2.9-8.5.5-.1-.2-.2-.5,0-.6,2.3-1.9,5.3-1.7,8-2.5,2.7-.8,5.5-2.6,7.3-4.9,0-.5-.1-1-.2-1.4-.5-4.3-1.3-8.6-2.1-12.8,0,0,0,.2-.1.2-.4.7-1.1,2.3-2,2.5-.9.1-1.2-.9-1.1-1.6.3-1.1,1.3-1.9,1.7-3,.3-.6.5-1.3.7-1.9-.7-3.4-1.5-6.7-2.3-10.1,0-.2-.3-.3-.5-.3-3.3.5-6.7.9-10.1,1.5-3.7,3.6-6.3,7.9-6.7,13.1-.1,1.5.8,9.4-2.8,8.4-3.8-1-2-8.1-1.3-10.5,1.2-3.7,3.1-7,5.4-10.1-7.6,1.5-15.1,3.7-22,7.3-2.6,5.4-2.2,11,1.1,16.3.7,1.2,5,6.5,1.5,7.1-2.9.5-5.1-5.2-5.6-7.3-.7-3.1-.3-6.4,0-9.6.1-1.9.5-3.7,1.1-5.5,0,0-.2,0-.2.1-5.2,3.1-10.1,7.1-11.7,13.1-.7,2.7-.8,5.5-.5,8.2,1.3,1.9,2.8,3.8,4.4,5.5,1.7,1.7,3.7,2.5,5.6,3.8,1.4.9,3.8,3.9,1.7,5.4-1.7,1.2-4.8-.3-6.4-.9-.7-.3-1.3-.6-1.9-.9-.3,16.4,14.1,7.9,14.1,8-.1,15.1,15.2,15.2,24.7,11.7-.9-.2-1.9-.4-2.9-.5-1.9-.3-3.8-.4-5.7-.8-2-.4-4.9-1.7-4.4-4.3.4-2.2,3.3-.4,4.3.2,3.7,2,8,3.9,12.3,3.7.5-.3.9-.6,1.3-.9,3.3-2.3,6-5.4,7.9-8.9-3.6,0-7.3-.4-10.9-1-2.6-.5-6.8-1.1-8-3.9-.1-.3,0-.6.4-.6,3.1-.2,6.1.6,8.9,2.1,3.3,1.7,6.8,2.5,10.3,2,.4-.9.8-1.8,1.1-2.7,0,0,0-.1,0-.2-2.9-.3-5.8-1.1-8.5-2.1-.5-.2-.3-1,.2-.8ZM152.9,209.8c0-.1.1-.2.2-.3.1-.7.6-1.2,1.5-1.4,2-.3,3.4,2,1.7,3.4-.6.5-1.6.8-2.4.6-1-.3-1.1-1.4-1-2.3ZM134.4,250.2c-.6.5-1.4.6-2.1.1-.3-.2-.1-.5,0-.6,0-.6.2-1.2.6-1.5.6-.6,1.5-.4,1.9.2.4.6,0,1.4-.5,1.8ZM136.1,217.8c-.2,1-.6,2.5-1.6,3-1.2.6-1.7-.9-1.8-1.8,0,0,0-.1,0-.2-.5-1-.8-2.1-.7-3.1.2-1.5,1.7-1.9,2.9-1.2,1.2.7,1.4,2.1,1.2,3.3ZM147.4,233.8c-.5.6-1.4.7-2.1.4-.9-.4-1.3-1.4-1.2-2.3,0-.3.4-.5.7-.4.5-.7,1.5-.8,2.2-.2.6.6,1.1,1.8.4,2.5Z"/>
            <path class="cls-32" d="M85.9,305c.8,1.7,1.4,3.5,1.8,5.3-3.6,1.3-7.7,1.5-11.6,1.4,1.3-1.4,2.4-2.9,3.1-4.8.6-1.5,1.6-4.2,0-5.4-.1,0-.3,0-.4,0-1.1,1.5-.9,3.4-1.3,5.2-.4,1.7-1.5,3.6-2.9,4.9-.3,0-.6,0-1,0-2.9-.1-5.7-.4-8.6-.7,0,0,.1,0,.2,0,.5-.3,1.5-.8,1.5-1.4,0-.6-.7-.7-1.1-.6-.7.2-1.2.9-1.9,1.3-.4.2-.8.4-1.2.5-2.3-.3-4.5-.6-6.8-.9-.2,0-.2-.2-.2-.3.1-2.1.3-4.3.5-6.5,2.2-2.5,4.9-4.4,8.4-4.9,1-.2,6.2,0,5.4-2.2-.9-2.3-5.5-.9-7-.3-2.4.9-4.5,2.3-6.4,3.9.6-4.9,1.7-9.8,3.8-14.3,3.5-1.9,7.2-2,10.8-.1.8.4,4.6,2.8,4.8.6.2-1.8-3.7-3-5.1-3.2-2.1-.3-4.2.1-6.3.4-1.3.2-2.4.5-3.6,1,0,0,0-.1,0-.2,1.8-3.4,4.2-6.7,8.1-8.1,1.8-.6,3.6-.8,5.4-.7,1.4.7,2.7,1.6,3.9,2.5,1.2,1,1.8,2.2,2.8,3.4.7.8,2.7,2.2,3.6.8.7-1.1-.4-3-.9-4-.2-.4-.4-.8-.7-1.2,10.9-1,5.9,8.5,6,8.5,10-.8,10.8,8.9,8.9,15-.2-.6-.3-1.2-.5-1.8-.3-1.2-.5-2.4-.8-3.5-.4-1.3-1.3-3-3-2.6-1.5.3-.1,2.1.3,2.7,1.5,2.2,3,4.8,3,7.6-.2.3-.3.6-.5.9-1.4,2.2-3.3,4.1-5.5,5.5-.2-2.3-.6-4.6-1.2-6.8-.4-1.6-1.1-4.2-3-4.9-.2,0-.4,0-.4.3,0,2,.7,3.8,1.8,5.5,1.3,2,2,4.2,1.8,6.4-.6.3-1.1.6-1.7.8,0,0,0,0-.1,0-.4-1.8-1-3.6-1.8-5.3-.2-.3-.7-.1-.5.2ZM65.2,303c0,0-.1,0-.2.1-.5.1-.8.5-.8,1-.1,1.3,1.5,2,2.3.9.3-.4.5-1,.3-1.5-.3-.6-1-.6-1.6-.5ZM91,289.2c.3-.4.3-.9,0-1.3-.1-.2-.3,0-.4,0-.4,0-.8.2-1,.4-.4.4-.2,1,.3,1.2.4.2.9,0,1.2-.4ZM69.7,292c.7-.2,1.6-.5,1.9-1.2.3-.8-.7-1-1.3-1.1,0,0,0,0-.1,0-.7-.3-1.4-.4-2.1-.3-1,.2-1.2,1.2-.6,1.9.5.7,1.4.8,2.2.6ZM80.8,298.3c.4-.4.4-.9.1-1.3-.3-.6-1-.7-1.6-.6-.2,0-.3.3-.2.4-.4.4-.5,1,0,1.4.4.4,1.2.6,1.7.1Z"/>
            <path class="cls-4" d="M172.1,269.8c-1,0-2-.1-3-.2-2-.2-4.9.2-6.6-1.2-.2-.2-.3-.5,0-.7,3.2-2.7,6.6.3,10,.4.4-2.6.4-5.4.2-7.7-.2-1.9-.6-3.8-1.3-5.5-1.9,2.6-3.5,5.3-6,7.3-1,.8-3.5,3.2-4.8,2.2-1.4-1.1,1.1-2.7,1.8-3.3,3.1-2.1,6.2-4.1,8.6-7.2-1.2-2.5-3.1-4.5-5.7-5.8-1.8-.9-3.8-1.5-5.9-2,.5,3.2,0,7.9-3,8.7-2.1.6-3.4-1.9-3.5-3.8-.2-2.2,1.3-4.2,3-5.5-3.1-.4-6.3-.3-9.3-.1-.6,0-1.1,0-1.7.2,0,0,0,.1,0,.2-1.5,2.9-3.2,6.1-3.5,9.4-.1,1.2.4,2.8-.2,4-1,1.8-2.9.3-3.2-1.1-.5-2.7.7-6,1.6-8.5.4-1,.7-2.2,1.2-3.3-3.8.8-7.4,2.1-10.7,4.4-1.1.8-2.1,1.6-3,2.6-.4,3.2-.3,6.5.9,9.4.9,2.1,3.2,6,.9,8.2-1.6,1.5-2.6-1.4-2.9-2.6-1-3.8-1.5-7.8-1.7-11.8-1.6,2.3-2.9,5-3.9,7.7-1,2.7-1.8,5.4-2.4,8.2,2,1.4,4.3,2,6.4,3.2,1,.6,3,1.8,2,3.3-2,3.2-6.5-.5-9-3.2-.2,2.6.6,4.6,2.4,6.4,3.8,4,9.9,5.3,14.6,1.7-.2,4.7,3.3,8.5,7.9,7.8,1.6-.2,3-1.1,4.2-2.2-1.1.1-2.1.2-3.2.1-1.4,0-3.7-.2-4.2-1.8-.5-1.6.9-1.7,1.9-1.3,1.2.5,2,1.2,3.4,1.2,1.6,0,3.1-.5,4.6-1.1,1.7-2,3.4-3.9,5.8-5.1.9-.5,1.9-.9,2.9-1.3-1.9-.2-4.7-.5-5.3-2.2-1-2.9,3.4-3.1,4.9-2.9,2,.3,3.9,1,5.9,1.1,1.7.1,3.4-.1,5-.5.3-.2.7-.5,1-.8,1.5-1.3,2.5-3.2,3-5.3ZM136.3,271.9c-.9,0-1.3-1.1-1.4-1.9,0-.8,0-1.6.4-2.3,0,0,0-.1,0-.2.2-.6.5-1.2,1.1-1.4.4-.1.9,0,1.2.4.7.7,1,2,.8,3.1-.2.9-1,2.4-2,2.3ZM147.5,261.1c-.5-1-.1-2.2.7-2.9,0,0,.2,0,.3,0,.8-.5,1.7-.4,2.2.5.5,1,.1,2.4-.8,3-.8.6-1.8.3-2.3-.6ZM145.7,281.5c-.6.9-1.8,1.3-2.6.5-.6-.6-.6-1.6-.3-2.4-.2-.2-.2-.4,0-.6,1.5-1.3,4,.6,2.9,2.5Z"/>
            <path class="cls-6" d="M122.3,303.4c.5,0,1.1,0,1.6,0,.6-1.6,1.2-3.2,1.9-4.8.2-.4.4-.8.6-1.3,3.9-8,9.6-14.9,16.6-20.5.8-.6-.3-1.7-1.1-1.1-7.1,5.6-12.9,12.7-16.9,20.9,0,.2-.2.4-.3.6-1,2-1.7,4.1-2.4,6.2Z"/>
            <path class="cls-6" d="M113.9,303.6c.5,0,1.1,0,1.6,0,.3-2.2.6-4.4,1-6.6.6-3.8,1.4-7.6,2.2-11.4,1.8-7.9,3.9-15.8,6-23.7,2.1-7.7,4.3-15.3,9-21.9.6-.8-.8-1.6-1.4-.8-4.6,6.2-6.8,13.5-8.8,20.9-2.4,8.8-4.7,17.6-6.7,26.4-.7,3.4-1.4,6.8-2,10.3-.4,2.2-.7,4.4-1,6.6Z"/>
            <path class="cls-6" d="M95.1,267.4c2.1,4.2,3.8,8.5,5.1,13,.2.6.4,1.3.6,1.9h0c1.4,4.9,2.5,9.9,3.3,15,.3,2,.6,4,.8,6,.5,0,1,0,1.6,0-.3-2.1-.5-4.1-.9-6.1-.7-4.5-1.6-9-2.9-13.5-.2-.8-.5-1.6-.7-2.5-1.5-5-3.4-9.9-5.7-14.7-.4-.9-1.8-.1-1.4.8Z"/>
            <path class="cls-6" d="M80.5,291.6c4.1-2.7,8.1-5.5,12.2-8.1,2.3-1.5,4.6-2.6,7.3-1.6.3.1.5.2.8.4.8.4,1.4.9,2.1,1.5.8.8,1.5,1.7,2.1,2.6,1.9,3.1,2.8,6.9,3.3,10.7.3,2.1.5,4.2.6,6.3.5,0,1,0,1.5,0-.1-2.1-.3-4.3-.6-6.5-.7-5.3-2.1-10.5-5.5-14-.6-.7-1.4-1.3-2.1-1.7-.6-.4-1.3-.7-1.9-.9-1.6-.6-3.4-.6-5.2,0-2.4.9-4.6,2.8-6.7,4.2-2.9,1.9-5.7,3.8-8.6,5.7-.8.5,0,1.8.8,1.3Z"/>
          </g>
          <g>
            <g>
              <path class="cls-36" d="M356.2,380.1h-26.8c-4.6,0-8.3-3.7-8.3-8.3h0c0-4.6,3.7-8.3,8.3-8.3h26.8v16.6Z"/>
              <path class="cls-21" d="M321.1,370.9c.5-4.1,4-7.4,8.2-7.4h26.8v6.5c-3.2,1.2-6.8,2.7-8,.9-1.3-2.1-5.8-5.5-5.8-5.5,0,0-8.6,0-14.5,0s-6.8,5.4-6.8,5.5Z"/>
              <g>
                <path class="cls-9" d="M395.3,378.5h-48.1c-3.7,0-6.8-3-6.8-6.8h0c0-3.7,3-6.8,6.8-6.8h48.1v13.5Z"/>
                <path class="cls-6" d="M398.2,377.3h-50.5c-3,0-5.4-2.4-5.4-5.4s2.4-5.4,5.4-5.4h50.5v-2.8h-50.5c-4.6,0-8.3,3.7-8.3,8.3s3.7,8.3,8.3,8.3h50.5v-2.8Z"/>
              </g>
            </g>
            <g>
              <path class="cls-15" d="M361.1,340h-20.8c-3.5,0-6.4-2.9-6.4-6.4h0c0-3.5,2.9-6.4,6.4-6.4h20.8v12.8Z"/>
              <g>
                <path class="cls-23" d="M391.4,338.7h-37.2c-2.9,0-5.2-2.3-5.2-5.2h0c0-2.9,2.3-5.2,5.2-5.2h37.2v10.5Z"/>
                <path class="cls-6" d="M393.6,337.8h-39.1c-2.3,0-4.2-1.9-4.2-4.2s1.9-4.2,4.2-4.2h39.1v-2.2h-39.1c-3.5,0-6.4,2.9-6.4,6.4s2.9,6.4,6.4,6.4h39.1v-2.2Z"/>
              </g>
            </g>
            <g>
              <path class="cls-27" d="M363.6,349.8h-22.6c-2.7,0-4.9-2.2-4.9-4.9h0c0-2.7,2.2-4.9,4.9-4.9h22.6v9.8Z"/>
              <path class="cls-6" d="M336.3,346.1c0-.4-.2-.8-.2-1.2,0-2.7,2.2-4.9,4.9-4.9h22.6v2.3l-5.5-.6h-16.9s-4.3,0-4.9,4.4Z"/>
              <g>
                <path class="cls-20" d="M398.1,348.8h-36.4c-2.2,0-4-1.8-4-4h0c0-2.2,1.8-4,4-4h36.4v8Z"/>
                <path class="cls-6" d="M399.7,348.1h-37.9c-1.8,0-3.2-1.4-3.2-3.2s1.4-3.2,3.2-3.2h37.9v-1.7h-37.9c-2.7,0-4.9,2.2-4.9,4.9s2.2,4.9,4.9,4.9h37.9v-1.7Z"/>
              </g>
            </g>
            <g>
              <path class="cls-18" d="M344.6,363.5h41.3c3.8,0,6.9-3.1,6.9-6.9h0c0-3.8-3.1-6.9-6.9-6.9h-41.3v13.7Z"/>
              <path class="cls-6" d="M385.9,349.8c3.8,0,6.9,3.1,6.9,6.9s0,.5,0,.7c0,0-2-4.7-7.5-4.7-5.6,0-29.5,0-29.5,0l-6.5-2.9h36.8Z"/>
              <g>
                <path class="cls-13" d="M327.9,362.2h24.1c3.1,0,5.6-2.5,5.6-5.6h0c0-3.1-2.5-5.6-5.6-5.6h-24.1v11.2Z"/>
                <path class="cls-6" d="M325.6,361.2h26.1c2.5,0,4.5-2,4.5-4.5s-2-4.5-4.5-4.5h-26.1v-2.4h26.1c3.8,0,6.9,3.1,6.9,6.9s-3.1,6.9-6.9,6.9h-26.1v-2.4Z"/>
              </g>
            </g>
          </g>
          <g>
            <g>
              <path class="cls-38" d="M301.1,304.9c9.2-5.6,9-5.4,12.1-13.4.7-1.9-5.4-4.6-5.4-4.6-12.6,10.8-11,3.7-14.6-.2-1.6-1.7-13.1-43.8-27.5-51.1-4.9-2.5-4.2-.2-6,5-3.6,10.6.9,34.1,9.3,48.7,9.9,17.1,16.4,25.2,32.1,15.6Z"/>
              <path class="cls-42" d="M251.7,270.7c5.9.9,11.5.8,16.8-.5,1.1-.2,2.1-.6,3.2-.9,4.7-1.7,9.2-4.4,13.6-8.5-.6-2.9-5.1-22.3-15.2-31.2-2.1-1.9-5.7-4.7-9.4-6.6-3.6-1.9-7.5-2.9-10.3-1.3-.5.3-.9.6-1.3,1-8.8,8.7-2.6,31.6,2.6,48Z"/>
              <path class="cls-33" d="M259.9,271.9c5.2-.8,8.7-1.7,11.9-2.6-13.8-9.7-.6-23.2-5.1-29.2-1.9-2.6-3-14.9-5.8-17-3.6-1.9-7.5-2.9-10.3-1.3,2.5,2,7.2,6.4,9.6,8,4.1,5.6.5,14.2.4,21.1-.2,1.4-1.3,20.7-.5,21Z"/>
              <path class="cls-39" d="M155.6,328.7c15.4,12.5,13.8,23.1,30.7,33.7,13.9,8.7,29.9,18,46.8,18.8,7.6.4,93.7-49.2,101.2-47.3,1.8.5-1.1-17-22.1-21.2-6.7-1.3-40,7.4-71.5,8.8-37.9,1.7-75.1-3.8-86.6-2.4-1.4.2.7,8.9,1.6,9.6Z"/>
              <path class="cls-6" d="M247.8,351.7c-27.6,8.4-71.1-32.4-86.3-31.5-15.3.9,7,29.4,7,29.4l59.1,21.4s47.7-27.7,20.2-19.3Z"/>
              <path class="cls-6" d="M318.5,318.3c-29.8,4.1-45.4,21.6-72.9,30-27.6,8.4-18,22.7-18,22.7l47.6-5.2,39.8-21.1s15.4-28,3.6-26.4Z"/>
              <path class="cls-38" d="M227.6,379.4s10.6,2,22-1.3c11.4-3.2,3.3-18.3,3.3-18.3,0,0-15.9,12.2-19.4,12.5-3.5.2-5.8,1.3-5.8,1.3v5.7Z"/>
              <path class="cls-34" d="M240.2,380.7c3.5,2.3,114.4-10.2,96.7-50.3-15.2-34.5-42.9,9.9-103.4,39.7.6,3.4,5.8,10,6.8,10.6Z"/>
              <path class="cls-38" d="M244.4,378.7s-11.6,2.6-20-.7c-8.4-3.2-8.5-16.1-8.5-16.1,0,0,17.8,10.1,20.4,10.3,2.6.2,4.3,1.3,4.3,1.3l3.8,5.1Z"/>
              <g>
                <path class="cls-7" d="M193.6,379.3c5.4,5.2,15.1,3.7,21.9,1.7.2,0,.3,0,.4-.1.2,0,.3,0,.5-.1.2,0,.3-.1.5-.2.3-.1.6-.2.9-.3l.5-.2c2.9-1,4.9-1.9,4.9-1.9,2.4-4,5.7-3.1,5.7-3.1,4.5-5.6-1.7-11.7-1.7-11.7l-33.6,15.9Z"/>
                <path class="cls-6" d="M215.4,376.5c.8,1.4.8,3,.1,4.5,0,0,0,0,0,0,.2,0,.3,0,.4-.1.6-1.5.5-3.1-.2-4.6-.1-.2-.5,0-.4.2ZM217.9,375.2c.9,1.6.9,3.4,0,4.9,0,0,0,0,0,0,0,0,0,0,0,0l.5-.2c.8-1.6.7-3.5-.1-5.1-.1-.2-.5,0-.4.2Z"/>
                <path class="cls-6" d="M228.3,365.3l-32.8,15.5c-.8.4-1.4-.8-.6-1.2l32.8-15.5c.8-.4,1.4.8.6,1.2Z"/>
              </g>
              <path class="cls-25" d="M228.5,379.9c-2.5,2.3-99.6-13-84.3-52.3,10.1-26,44.8,11.9,89.3,41.7-.4,3.4-4.3,10-5,10.6Z"/>
              <path class="cls-28" d="M281.3,316.7s-29.7,23.7-93.3,3.7c0,0-1.8-107.7,56.8-102.3,42.8,3.9,29.7,52.3,36.5,98.6Z"/>
              <path class="cls-38" d="M248.8,218.8s-4.1,11.9-15.1-.4c0,0,1.9-5,1.4-12.9l11.2,3s-1.9,4.4,2.5,10.3Z"/>
              <path class="cls-16" d="M188,320.5s-1.2-46.1,24.2-85.5l7.5-10.1s25,14.5,5.7,63c-4.2,10.7-14.6,36.7-14.6,36.7l-22.8-4.2Z"/>
              <g>
                <path class="cls-30" d="M235.6,375.2s3.3-1.1,5.9,2.8c0,0,2,.8,5,1.7.2,0,.3,0,.5.1.3,0,.6.2.8.2,0,0,.1,0,.2,0,.3,0,.6.2.9.2.1,0,.3,0,.4.1,6.9,1.7,16.6,2.7,21.8-2.8l-34.4-14.3s-5.9,6.4-1.2,11.7Z"/>
                <path class="cls-6" d="M246.5,379.7c.2,0,.3,0,.5.1,0,0,0,0,0,0,0,0,0,0,0,0-.9-1.5-1-3.3-.2-4.9.1-.2-.2-.4-.4-.1-.8,1.6-.7,3.5.1,5.1ZM248.9,375.8c-.7,1.5-.7,3.1,0,4.6.1,0,.3,0,.4.1,0,0,0,0,0,0-.7-1.4-.8-3,0-4.5.1-.2-.3-.4-.4-.1Z"/>
                <path class="cls-6" d="M235.8,365.4l33.5,13.9c.8.3,1.3-.9.5-1.2l-33.5-13.9c-.8-.3-1.3.9-.5,1.2Z"/>
              </g>
              <g>
                <path class="cls-38" d="M262.5,305.6c.9,1.4,2.1.5,3.5.8,1.7.3,6.2,3.8,8.1,3,2.5-1.1-3.1-2.7-1.8-3.8.5-.4,8.2,3.1,6.1-.5-.5-.8-4.6-2.8-2.9-3.1,1.8.6,5.8,2.4,6.4.5.3-.9-2-2.2-3.1-2.5-5.8-1.8-2.7-2,1.1-.5,2,.7,3-.3,1.3-1.9-3.4-3.3-9.8-2.8-13.8-1.3-1.7.6-7,6.4-4.9,9.5Z"/>
                <path class="cls-38" d="M269.2,296.5c.6-.3,1.1-1,1.7-1.4.7-.4,1.5-1.1,1.8-1.8.6-1.2-.7-1.4-1.6-1.1-1.6.5-4.2,3.6-5.2,4.9-.1.2,2.6-.3,3.2-.7Z"/>
              </g>
              <path class="cls-38" d="M175.4,309.4c14.5,17.5,90.7-3.1,90.7-3.1l-1.5-7.7c-.8-.2-64.7,2.3-64.8-3.9,0-2.7,26.4-31.8,29.4-44.9,1.6-6.6.2-12.3-1.4-16.6-2.2-6.1-9.3-7-15-3.9-11.6,6.3-25.7,21.4-34,37.7-9.1,17.9-13.6,30.3-3.4,42.5Z"/>
              <path class="cls-24" d="M216.3,275.4c2.3-2.2,17.2-17.2,19.4-31.3,1-6.4,2.2-21-5.8-22.8-12.8-3-29.8,15.6-41.6,29.6,5.4,12.2,13.6,20.7,28,24.6Z"/>
              <path class="cls-38" d="M263.9,299s.3.2,1.5-.6c1.1-.8,2.7,6.9,2.7,6.9l-1.1.7s-1,0-1.9.2c-.9.3-2.2-1.8-2.2-1.8v-.3s.2-2.4.2-2.5c0,0,.9-2.6.9-2.6Z"/>
              <polygon class="cls-38" points="265.9 297.8 267.5 296 269.6 295.6 271.3 295.5 271.1 297.6 268.2 299.9 265.9 297.8"/>
              <path class="cls-38" d="M257.7,194.4s-.7,9.7-3.9,17.2c-2.3,5.3-15.1,6.5-18.4-4.8-3.3-11.3,5-20.8,5-20.8l17.3,8.4Z"/>
              <path class="cls-29" d="M259.7,184.1c-1.6-.4-2.9,0-4.4,0-2.7.2-4.7-.4-7.2-1.1-3.1-.9-6.1-1.5-9.1,0-4.7,2.4-8.4,10.3-7.6,16-.2,1-.2,1.9.7,2.9,1.4,1.5,3.6,1.4,5,0,2.2-2,2.4-5.7,3.3-8.3.2-.6.5-1.3.8-2.1,6.7,3.4,15.8,7.5,22,3.8,6.4-3.7,2.5-9.9-3.4-11.3Z"/>
            </g>
            <g>
              <polygon class="cls-2" points="250.9 322.8 213.4 324.8 249.2 334.8 250.9 322.8"/>
              <polygon class="cls-17" points="213.4 324.8 213.2 328.3 249.2 339.4 249.2 334.8 213.4 324.8"/>
              <polygon class="cls-2" points="326.7 330.2 249.2 334.8 249.2 339.4 326.7 334.2 326.7 330.2"/>
              <polygon class="cls-6" points="287.1 292.2 272.1 122.9 183 122.9 183 121.2 273.7 121.2 288.8 292.1 287.1 292.2"/>
              <polygon class="cls-6" points="318.9 63.3 276.3 63.3 276.3 65.1 296.5 65.1 296.5 295.5 298.3 295.5 298.3 65.1 318.9 65.1 318.9 63.3"/>
              <path class="cls-8" d="M326.7,330.2l-77.5,4.7,6-42.1c.2-1.5,1.4-2.6,2.9-2.7l71.3-4.3c1.9-.1,3.5,1.5,3.2,3.5l-5.8,40.9Z"/>
            </g>
          </g>
          <g>
            <g>
              <g>
                <path class="cls-31" d="M174.7,127.6c0-21.5-17.5-39-39-39s-20.5,4.4-27.6,11.4c-7.1,7.1-11.5,16.8-11.5,27.6,0,19.4,14.3,35.6,32.9,38.6,2,.3,4,.5,6.1.5,19.1,0,35-13.8,38.4-31.9.4-2.3.7-4.7.7-7.1ZM159.5,127.6c0,1.5-.1,2.9-.4,4.3-2,11.1-11.8,19.5-23.4,19.5s-2.5,0-3.7-.3c-11.4-1.8-20.1-11.7-20.1-23.6s2.7-12.6,7-16.9c4.3-4.3,10.3-7,16.8-7,13.1,0,23.8,10.7,23.8,23.9Z"/>
                <path class="cls-12" d="M111.8,128.3c-.2-6.6,2.3-12.6,6.5-17.1l-11-10.4c-6.9,7.3-11,17.2-10.6,27.9.6,19.4,15.3,35.2,34,37.6l1.9-15.1c-11.4-1.5-20.4-11.1-20.8-23Z"/>
                <path class="cls-6" d="M129.6,170.6l3.3-22.3s18.1-.4,22.2-16.5l22.5,4.9s-7,38.7-48,33.9Z"/>
              </g>
              <g>
                <polygon class="cls-6" points="73.5 67 73.5 64.2 102.1 64.2 102.1 67 73.5 67"/>
                <polygon class="cls-6" points="73.5 58.6 73.5 55.8 125.2 55.8 125.2 58.6 73.5 58.6"/>
                <polygon class="cls-6" points="73.5 50.2 73.5 47.4 121.5 47.4 121.5 50.2 73.5 50.2"/>
                <polygon class="cls-6" points="105.1 64.2 113.9 64.2 113.9 67 105.1 67 105.1 64.2"/>
              </g>
              <polygon points="134.8 89.4 129.5 72.5 73.2 72.5 73.2 71.6 130.2 71.6 135.6 89.2 134.8 89.4"/>
              <path d="M135.7,93.4c-1.4,0-2.5-1.1-2.5-2.5s1.1-2.5,2.5-2.5,2.5,1.1,2.5,2.5-1.1,2.5-2.5,2.5ZM135.7,89.2c-.9,0-1.6.7-1.6,1.6s.7,1.6,1.6,1.6,1.6-.7,1.6-1.6-.7-1.6-1.6-1.6Z"/>
              <path class="cls-6" d="M119.9,159.1c-1.4,0-2.5-1.1-2.5-2.5s1.1-2.5,2.5-2.5,2.5,1.1,2.5,2.5-1.1,2.5-2.5,2.5ZM119.9,155c-.9,0-1.6.7-1.6,1.6s.7,1.6,1.6,1.6,1.6-.7,1.6-1.6-.7-1.6-1.6-1.6Z"/>
              <polygon points="100.8 186.5 40.5 186.5 40.5 185.5 100.3 185.5 118.5 158.1 119.3 158.6 100.8 186.5"/>
            </g>
            <g>
              <polygon class="cls-6" points="40.5 181.5 40.5 178.7 69.1 178.7 69.1 181.5 40.5 181.5"/>
              <polygon class="cls-6" points="40.5 173.1 40.5 170.3 92.2 170.3 92.2 173.1 40.5 173.1"/>
              <polygon class="cls-6" points="40.5 164.7 40.5 161.9 88.5 161.9 88.5 164.7 40.5 164.7"/>
              <polygon class="cls-6" points="72.1 178.7 80.9 178.7 80.9 181.5 72.1 181.5 72.1 178.7"/>
            </g>
            <g>
              <polygon class="cls-6" points="185.6 156.3 185.6 153.5 214.2 153.5 214.2 156.3 185.6 156.3"/>
              <polygon class="cls-6" points="185.6 147.9 185.6 145.1 237.3 145.1 237.3 147.9 185.6 147.9"/>
              <polygon class="cls-6" points="185.6 139.5 185.6 136.7 233.6 136.7 233.6 139.5 185.6 139.5"/>
              <polygon class="cls-6" points="217.2 153.5 226 153.5 226.1 156.3 217.2 156.3 217.2 153.5"/>
            </g>
            <polygon points="239.8 162.9 177.4 162.9 161.5 143.2 162.2 142.7 177.8 162 239.8 162 239.8 162.9"/>
          </g>
          <g>
            <path class="cls-40" d="M226.8,98.8c.3,0,.7.1,1,.2,15,2.7,30.5-5.4,36.5-20.1.6-1.4,1.1-2.9,1.4-4.4,0-.2.1-.4.2-.6,3.7-15.6-4.4-32.1-19.7-38.4-8.5-3.5-17.6-3.2-25.4,0-7.8,3.3-14.4,9.5-17.9,18-7,16.9,1.1,36.4,18.1,43.4,1.9.8,3.9,1.4,5.8,1.8ZM214.9,58.6c2.1-5.2,6.2-9,11-11,4.8-2,10.4-2.2,15.5,0,9.3,3.9,14.3,13.9,12,23.5,0,.2,0,.3-.1.5-.2.9-.5,1.7-.8,2.5-3.7,9-13.1,13.9-22.3,12.2-.2,0-.4,0-.6-.1-1.2-.3-2.4-.6-3.6-1.1-10.4-4.3-15.3-16.2-11-26.5Z"/>
            <path class="cls-6" d="M241.9,47.8c-5.1-2.3-10.7-2.3-15.5-.4l-4.6-12.1c8-3,17.1-3.1,25.4.7,15.1,6.8,22.7,23.5,18.5,39l-12.5-3.4c2.6-9.5-2.1-19.7-11.3-23.8Z"/>
            <path class="cls-3" d="M227.8,99l2.3-12.7c9.2,1.7,18.6-3.2,22.3-12.2.3-.8.6-1.7.8-2.5l12.5,3.1c-.4,1.5-.9,2.9-1.4,4.4-6,14.7-21.5,22.7-36.5,20.1Z"/>
          </g>
          <g>
            <path class="cls-22" d="M329.6,56.9c0,.3-.2.7-.3,1-3.9,14.8,2.9,30.8,17.1,38,1.4.7,2.8,1.3,4.2,1.8.2,0,.4.1.6.2,15.3,4.9,32.3-1.8,39.8-16.6,4.2-8.2,4.6-17.3,1.9-25.4-2.7-8.1-8.4-15.2-16.5-19.3-16.3-8.3-36.4-1.7-44.7,14.6-.9,1.8-1.7,3.7-2.2,5.7ZM370.7,48.2c5,2.5,8.5,6.9,10.1,11.8,1.6,4.9,1.4,10.5-1.2,15.5-4.6,9-15,13.1-24.3,10.1-.2,0-.3-.1-.5-.2-.8-.3-1.7-.6-2.5-1-8.7-4.4-12.8-14.2-10.4-23.2,0-.2,0-.4.2-.6.3-1.2.8-2.3,1.4-3.5,5.1-10,17.3-14,27.3-8.9Z"/>
            <path class="cls-6" d="M379.3,76c2.7-4.9,3.1-10.5,1.6-15.5l12.4-3.7c2.4,8.2,1.7,17.3-2.7,25.3-7.9,14.5-25.2,20.8-40.3,15.4l4.3-12.2c9.2,3.3,19.8-.5,24.6-9.4Z"/>
            <path class="cls-11" d="M329.3,57.9l12.5,3.3c-2.4,9,1.8,18.8,10.4,23.2.8.4,1.6.8,2.5,1l-4.1,12.3c-1.4-.5-2.9-1.1-4.2-1.8-14.2-7.2-21-23.2-17.1-38Z"/>
          </g>
          <g>
            <g>
              <rect class="cls-6" x="321.1" y="146.7" width="15.6" height="15.6"/>
              <rect class="cls-19" x="321.1" y="177" width="15.6" height="15.6"/>
              <rect class="cls-5" x="321.1" y="207.2" width="15.6" height="15.6"/>
              <rect class="cls-16" x="321.1" y="237.4" width="15.6" height="15.6"/>
            </g>
            <g>
              <polygon class="cls-6" points="345.4 160 345.4 158.5 379.4 158.5 379.4 160 345.4 160"/>
              <polygon class="cls-6" points="345.4 155.3 345.4 153.8 406.9 153.8 406.9 155.3 345.4 155.3"/>
              <polygon class="cls-6" points="345.4 150.7 345.4 149.1 402.5 149.1 402.5 150.7 345.4 150.7"/>
              <polygon class="cls-6" points="383 158.5 393.5 158.5 393.5 160 383 160 383 158.5"/>
            </g>
            <g>
              <polygon class="cls-6" points="345.4 190.2 345.4 188.7 379.4 188.7 379.4 190.2 345.4 190.2"/>
              <polygon class="cls-6" points="345.4 185.6 345.4 184 406.9 184 406.9 185.6 345.4 185.6"/>
              <polygon class="cls-6" points="345.4 180.9 345.4 179.3 402.5 179.3 402.5 180.9 345.4 180.9"/>
              <polygon class="cls-6" points="383 188.7 393.5 188.7 393.5 190.2 383 190.2 383 188.7"/>
            </g>
            <g>
              <polygon class="cls-6" points="345.4 220.5 345.4 218.9 379.4 218.9 379.4 220.5 345.4 220.5"/>
              <polygon class="cls-6" points="345.4 215.8 345.4 214.3 406.9 214.3 406.9 215.8 345.4 215.8"/>
              <polygon class="cls-6" points="345.4 211.1 345.4 209.6 402.5 209.6 402.5 211.1 345.4 211.1"/>
              <polygon class="cls-6" points="383 218.9 393.5 218.9 393.5 220.5 383 220.5 383 218.9"/>
            </g>
            <g>
              <polygon class="cls-6" points="345.4 250.7 345.4 249.2 379.4 249.2 379.4 250.7 345.4 250.7"/>
              <polygon class="cls-6" points="345.4 246 345.4 244.5 406.9 244.5 406.9 246 345.4 246"/>
              <polygon class="cls-6" points="345.4 241.4 345.4 239.8 402.5 239.8 402.5 241.4 345.4 241.4"/>
              <polygon class="cls-6" points="383 249.2 393.5 249.2 393.5 250.7 383 250.7 383 249.2"/>
            </g>
          </g>
        </g>
      </g>
    </g>
  </g>
</svg>