<?xml version="1.0" encoding="UTF-8"?>
<svg xmlns="http://www.w3.org/2000/svg" version="1.1" xmlns:xlink="http://www.w3.org/1999/xlink" viewBox="0 0 471.7 391.3">
  <defs>
    <style>
      .cls-1 {
        fill: #d17f80;
      }

      .cls-2 {
        fill: #7109b5;
      }

      .cls-3 {
        fill: #331b0a;
      }

      .cls-4 {
        fill: #3e36c7;
      }

      .cls-5 {
        fill: #fff;
      }

      .cls-6 {
        fill: #131313;
      }

      .cls-7 {
        fill: none;
      }

      .cls-8, .cls-9 {
        fill: #cfe0fa;
      }

      .cls-10 {
        clip-path: url(#clippath-1);
      }

      .cls-11 {
        fill: #fc721a;
      }

      .cls-12 {
        fill: #425fec;
      }

      .cls-13 {
        fill: #ecf2fa;
      }

      .cls-14 {
        fill: #101c3a;
      }

      .cls-9 {
        opacity: .3;
      }

      .cls-15 {
        fill: #f8a3a2;
      }

      .cls-16 {
        clip-path: url(#clippath);
      }
    </style>
    <clipPath id="clippath">
      <rect class="cls-7" x="20.1" y="138.1" width="148.7" height="238.5"/>
    </clipPath>
    <clipPath id="clippath-1">
      <rect class="cls-7" x="20.1" y="73.4" width="303.1" height="303.1"/>
    </clipPath>
  </defs>
  <!-- Generator: Adobe Illustrator 28.7.1, SVG Export Plug-In . SVG Version: 1.2.0 Build 142)  -->
  <g>
    <g id="_レイヤー_1" data-name="レイヤー_1">
      <g>
        <g>
          <path class="cls-13" d="M321.9,283.9c-27.8,7.7-80.3,61.4-47.8,86.6,32.6,25.2,129.8-109.4,47.8-86.6Z"/>
          <path class="cls-13" d="M329.4,275.7c-117.9,24-82.5,85.3-161.1,99.8C62.2,395,12.4,235.9,78.9,137.7c53.2-78.5,144.9-103.3,226.1-71,114.8,45.5,117.4,190.1,24.4,209.1Z"/>
        </g>
        <g>
          <g>
            <g>
              <path class="cls-12" d="M353,122.3c0-5.8-4.7-10.4-10.4-10.4s-10.4,4.7-10.4,10.4,4.7,10.4,10.4,10.4,10.4-4.7,10.4-10.4Z"/>
              <path class="cls-11" d="M369.6,81.9c2.8-4.7,4.5-10.3,4.5-16.2,0-17.4-14.1-31.4-31.4-31.4s-31.4,14.1-31.4,31.4.9,8.5,2.5,12.3h0c.2.5.5,1.1.7,1.6l18.7,40.6,9.4.7h0s0,0,0,0h0s0,0,0,0l9.4-.7,17.6-38.2Z"/>
              <path class="cls-9" d="M359.1,79.6c9.2-7.2,10.9-20.5,3.7-29.8-7.2-9.2-20.5-10.9-29.8-3.7-9.2,7.2-.5,12.4,6.7,21.7,7.2,9.2,10.1,19,19.4,11.8Z"/>
              <path class="cls-9" d="M311.2,65.7c0,4.3.9,8.5,2.5,12.3h0c.2.5.5,1.1.7,1.6l18.7,40.6,9.4.7h0s0,0,0,0h0s0,0,0,0l14.1-10.9s-25.1-1.9-45.5-44.2Z"/>
              <path class="cls-14" d="M338.4,109.9c0,0,0-9.9-.9-19.8-.5-5.9-1.2-10.2-1.9-13.3-1.8.7-3.9,1.1-5.8.5-2.5-.7-4.2-2.2-4.7-4.3-.4-1.7,0-3.4,1.3-4.5,1.4-1.3,3.5-1.5,5.8-.8,1.9.6,3.2,3.4,4.3,7.3.6-.3,1.2-.7,1.8-1,1.3-.8,2.4-1.8,3.5-2.8-2.4-2.6-4.2-5.4-4.5-7.4-.2-1.7,0-3,.9-4,1.3-1.5,3.5-1.5,4.5-1.5,1,0,3.2,0,4.5,1.5.8.9,1.1,2.3.9,4-.3,2-2.1,4.9-4.5,7.4,1.1,1,2.2,2,3.5,2.8.5.4,1.1.7,1.8,1,1-3.9,2.4-6.7,4.3-7.3,2.3-.8,4.4-.5,5.8.8,1.2,1.1,1.7,2.8,1.3,4.5-.5,2.1-2.2,3.6-4.7,4.3-2,.5-4,.2-5.8-.5-.7,3.1-1.4,7.4-1.9,13.3-.9,9.9-.9,19.7-.9,19.8h-1.2c0-2.9.1-22.1,2.8-33.6-.8-.4-1.5-.8-2.1-1.2-1.3-.8-2.5-1.9-3.7-3-1.1,1.1-2.4,2.1-3.7,3-.6.4-1.4.8-2.1,1.2,2.7,11.5,2.8,30.6,2.8,33.6h-1.2ZM329.8,68.6c-1,0-1.8.3-2.5.9-.9.8-1.2,2-.9,3.3.4,1.6,1.8,2.8,3.8,3.4,1.7.5,3.6.1,5.2-.6-1.3-4.9-2.6-6.3-3.6-6.6-.7-.2-1.4-.4-2.1-.4ZM349.9,75.6c1.6.7,3.5,1,5.2.6,2-.6,3.4-1.8,3.8-3.4.3-1.2,0-2.5-.9-3.3-1-1-2.7-1.2-4.5-.5-.9.3-2.3,1.7-3.6,6.6ZM342.6,59.6c-.8,0-2.6,0-3.5,1.1-.6.7-.8,1.7-.6,3,.2,1.6,1.8,4.3,4.2,6.8,2.3-2.5,3.9-5.1,4.2-6.8.2-1.3,0-2.3-.6-3-.9-1.1-2.7-1.1-3.6-1.1h0Z"/>
              <path class="cls-12" d="M357.6,111.9h-30c-1.1,0-2-.9-2-2h0c0-1.1.9-2,2-2h30c1.1,0,2,.9,2,2h0c0,1.1-.9,2-2,2Z"/>
              <path class="cls-14" d="M357.6,115.8h-30c-1.1,0-2-.9-2-2h0c0-1.1.9-2,2-2h30c1.1,0,2,.9,2,2h0c0,1.1-.9,2-2,2Z"/>
              <path class="cls-12" d="M357.6,119.7h-30c-1.1,0-2-.9-2-2h0c0-1.1.9-2,2-2h30c1.1,0,2,.9,2,2h0c0,1.1-.9,2-2,2Z"/>
              <rect class="cls-14" x="325.6" y="119.7" width="33.9" height="3.9" rx="2" ry="2"/>
            </g>
            <g>
              <rect class="cls-4" x="300.1" y="39.5" width="1.2" height="12.7" transform="translate(145.9 307.7) rotate(-68.1)"/>
              <rect class="cls-4" x="294.4" y="80.4" width="12.7" height="1.2" transform="translate(-8.5 118) rotate(-21.9)"/>
              <rect class="cls-4" x="291" y="62.8" width="11.6" height="1.2"/>
            </g>
            <g>
              <rect class="cls-4" x="378.1" y="45.2" width="12.7" height="1.2" transform="translate(10.7 147) rotate(-21.9)"/>
              <rect class="cls-4" x="383.8" y="74.6" width="1.2" height="12.7" transform="translate(165.8 407.4) rotate(-68.1)"/>
              <rect class="cls-4" x="382.5" y="62.8" width="11.6" height="1.2"/>
            </g>
          </g>
          <polygon class="cls-4" points="409.9 162.9 402.5 159.6 395.1 163 398.4 155.6 395 148.2 402.4 151.5 409.8 148.1 406.1 155.5 409.9 162.9"/>
          <polygon class="cls-4" points="210.4 89.8 203.4 81.6 192.6 81.4 200.8 74.4 201 63.6 208 71.8 218.8 72 210.1 78.7 210.4 89.8"/>
          <polygon class="cls-4" points="393.3 29.9 387.4 25.1 379.7 26.4 384.6 20.4 383.3 12.8 389.3 17.6 396.9 16.3 391.7 22.2 393.3 29.9"/>
          <polygon class="cls-4" points="249.9 140.9 246.8 142.7 246.2 146.2 244.3 143.2 240.8 142.5 243.9 140.7 244.6 137.1 246.3 140.4 249.9 140.9"/>
          <polygon class="cls-4" points="408.7 113.4 408.7 110 406.1 107.7 409.5 107.7 411.8 105.1 411.8 108.5 414.4 110.8 410.9 110.7 408.7 113.4"/>
          <polygon class="cls-4" points="298.8 22.4 298.8 18.2 295.6 15.4 299.8 15.3 302.6 12.2 302.6 16.4 305.8 19.2 301.5 19 298.8 22.4"/>
          <polygon class="cls-4" points="415.9 43.2 415.9 41.2 414.4 39.9 416.4 39.9 417.7 38.4 417.7 40.4 419.2 41.7 417.2 41.6 415.9 43.2"/>
          <polygon class="cls-4" points="347.2 19.7 347.2 17.7 345.7 16.4 347.7 16.4 349 14.9 349 16.8 350.5 18.2 348.5 18.1 347.2 19.7"/>
          <polygon class="cls-4" points="252.2 99.8 253.2 94.5 249.9 90.2 255.2 91.2 259.5 87.9 258.5 93.2 261.8 97.5 256.4 96.2 252.2 99.8"/>
          <polygon class="cls-4" points="448.9 76.4 449.9 71 446.6 66.7 451.9 67.8 456.3 64.5 455.2 69.8 458.5 74.1 453.2 72.8 448.9 76.4"/>
          <polygon class="cls-4" points="214.7 20.9 217.8 20.1 219.2 17.3 220 20.3 222.9 21.8 219.8 22.6 218.4 25.4 217.7 22.3 214.7 20.9"/>
          <polygon class="cls-4" points="260.3 55.7 259.6 53.7 257.6 52.9 259.6 52.1 260.5 50.1 261.2 52.2 263.2 53 261.1 53.6 260.3 55.7"/>
        </g>
        <g class="cls-16">
          <g>
            <polygon class="cls-14" points="30.5 144.4 81.6 453.2 88.8 453.2 37.7 144.4 30.5 144.4"/>
            <polygon class="cls-14" points="119.7 144.4 170.7 453.2 177.9 453.2 126.9 144.4 119.7 144.4"/>
            <polygon class="cls-14" points="39.6 191.9 39.9 198.1 131.7 198.1 131.3 191.9 39.6 191.9"/>
            <polygon class="cls-14" points="48.1 243.7 48.5 249.9 140.2 249.9 139.8 243.7 48.1 243.7"/>
            <polygon class="cls-14" points="56.7 294.5 57.1 300.7 148.8 300.7 148.4 294.5 56.7 294.5"/>
            <polygon class="cls-14" points="65.1 347.3 65.5 353.5 157.2 353.5 156.9 347.3 65.1 347.3"/>
            <polygon class="cls-14" points="73.6 399.1 74 405.3 165.7 405.3 165.4 399.1 73.6 399.1"/>
          </g>
        </g>
        <path class="cls-8" d="M349.3,371.5h-.2c-11.7-9.5-26.5-12.5-40.7-8.1,1.3-4.3,3.5-8.3,1.6-12.9-1.9-4.7-7.1-7.4-11.7-8.7-8.4-2.4-17.4-1.2-24,3.9-2.4-11.3-12-21-24.4-20.4-13.1.6-22.2,12.4-22.6,24.7-6.9-1.9-14.5-2.6-21.3-.3-5.9,2-7.5,7.9-11.8,9.8-5.9,2.6-12.7-2-17.9,3.6-2.3,2.4-2.8,5.2-2,8,1.1,2.1,2.8,4,4.8,5.5h168.4c1.2.7,2.5.4,3.3-.4,1.8-1.2,1.4-4.7-1.4-4.7Z"/>
        <g class="cls-10">
          <g>
            <path class="cls-15" d="M59.4,217.8l-9.8,13.4c.2.4.4.8.6,1.3.2.4.3.8.5,1.3,1.6,4.5,2.7,11.6,4,19.6.6,3.7,1.2,7.6,1.9,11.6.6,3.2,1.2,6.4,2,9.5,0,0,0,0,0,.1h0c.7,3.1,1.6,6.1,2.5,9,2.5,7.6,5.9,14.2,10.8,18.4.9.8,1.9,1.5,2.9,2h0c10.9,9.2,22.5,7.5,28.7,2.3,0,0,.2-.1.2-.2.1-.1.3-.2.4-.3.4-.3.7-.7,1-1,.6-.7,1.2-1.5,1.6-2.3.2-.3.3-.6.5-.8.1-.3.3-.6.4-.9,0-.2.2-.5.3-.7,0-.2.1-.3.2-.5,2.7-7.7.5-18.4-6.5-25.6-.9-1.5-2.5-3.7-4.5-6.5-3.3-4.6-7.8-10.7-12.6-16.9-5.3-7-11-14.4-15.5-20.3-4.6-6-8.2-10.5-9.3-11.9-.2-.3-.3-.4-.3-.5h0Z"/>
            <polygon class="cls-15" points="127.6 295.1 103.7 300.1 85.9 260.9 118.5 246.5 143.4 287 127.6 295.1"/>
            <g>
              <path class="cls-15" d="M37.2,205.6s3-1.1,5-1.7c2-.6,3.4-.4,6.2,1.7,2.8,2.1,9.6,4.1,10.6,7.4,1,3.3,4.2,14.3-4.6,18.2-8.8,3.8-23.6-.9-18.9-4.9,0,0-5.9-1.3-2.4-6.1,0,0-5.4-4.1-.4-7,0,0-6.6-6.1,4.5-7.7Z"/>
              <path class="cls-1" d="M32.7,213.3c1.2-.5,2.5-.7,3.8-.9,1.3-.2,2.6-.2,3.9,0-1.2.5-2.5.7-3.8.9-1.3.2-2.6.2-3.9,0Z"/>
              <path class="cls-1" d="M33.1,220.3c1.7-.5,3.4-.7,5.1-.9,1.7-.2,3.4-.4,5.2-.4-.8.4-1.6.6-2.5.8-.8.2-1.7.3-2.6.4-1.7.2-3.5.3-5.2,0Z"/>
              <path class="cls-1" d="M35.4,226.4c1.2,0,2.4,0,3.5,0,.6,0,1.2,0,1.7,0,.6,0,1.2,0,1.8,0-1.1.6-2.3.8-3.6.8-.6,0-1.2,0-1.8-.2-.6-.1-1.2-.3-1.7-.7Z"/>
            </g>
            <g>
              <path class="cls-12" d="M173.5,224.8c5.1,5.3,1,20.2-8,35.6-9,15.5-35.5,37.2-58.8,49.7,0,0-31.7-25.2-25.1-52.9,0,0,39.8-23.1,53.3-29.3,13.5-6.3,32.9-9,38.6-3.1Z"/>
              <path class="cls-5" d="M95.7,262c0,.2-4,16.7,11.9,26.5l.6-.9c-15.2-9.4-11.5-25.1-11.5-25.3l-1.1-.3Z"/>
              <path class="cls-5" d="M93.7,298.2c6,7.7,12.2,12.6,12.3,12.7l.2.2h.3c.3-.2,34.3-10.5,52.2-33.5l-.9-.7c-16.8,21.7-48.1,32-51.3,33-1.6-1.3-12.1-10.1-18.3-22.2l-1,.5c1.9,3.7,4.2,7.1,6.5,10.1Z"/>
            </g>
            <g>
              <path class="cls-15" d="M308.1,85.5c-3.6,2.4-11.7,6.4-15.6,9.9,0,0,0,0,0,.1-3.1,2-10.3,12.8-11.1,15.3-1.2,3.6.3,2.6-1.6,11.9,0,.3,0,.6,0,.8h0c-.5,1.2-.9,2.6-1.5,4,0,.1-.1.3-.1.4h0c-2.8,8-6.3,18.7-9.2,27.8-3.8,10.1-7.7,20.4-9.2,28.6-3.4,17.6,32.3,38.8,36.6,7.5,2.2-15.9.2-45.8-.9-59.2.6-1,1.1-2.2,1.6-3.5,0,0,7.3-8.4,10.8-11.4,3.4-2.9,1.5-6.2,0-8.9-1.5-2.7-.9-4-3.7-5.9-2.4-1.5-3.4-3.2-4.5-4.7,3.4-2.2,8.5-6.3,11.1-10.1,2.2-3.1-.9-3.8-2.5-2.7Z"/>
              <path class="cls-15" d="M226.4,198s29.1-15.6,35.2-17.4c13.3-4,37.5,9,31.6,20.8-5.9,11.8-27.7,33.3-49.3,41.7-21.6,8.4-41.5-30.2-17.5-45Z"/>
              <path class="cls-12" d="M174.6,250.8c2.4,7.1,9.8,23.3,28.1,22.5,18.3-.9,48.4-23.3,70.7-38.6,0,0-7.9-40.6-36.1-47.6,0,0-39.6,25.2-51.7,34.5-12,9.3-13.6,21.4-11,29.2Z"/>
              <path class="cls-5" d="M268.6,217.3c4.1,9.1,5.7,17,5.7,17.1v.3c0,0-.1.2-.1.2-.3.3-25.6,26.2-54.9,31.5l-.2-1.1c27.5-5,51.6-28.5,54.1-31-.4-2.1-3.5-15.7-11.5-27l.9-.6c2.5,3.5,4.5,7.2,6.1,10.7Z"/>
            </g>
            <path class="cls-11" d="M238.6,383.2c2.9,12,4.2,91.8-2,104.5-4.4,9.1-54.5,31.5-59.1,6.3-4.1-22.2-16.2-96.3-15.1-109.5,1-12.7,67.6-37.4,76.2-1.3Z"/>
            <path class="cls-14" d="M160.5,358.2c.6-8.5,30-22.6,52.4-20.5l6.5,78.5c-1.9,2.3-8.2,11.7-9.3,14.2-8.9,19.5-16.9,33-37,38.4-5.6-38.6-13.2-100.5-12.5-110.6Z"/>
            <path class="cls-11" d="M215.8,373c-1.8,12.2-40.7,112.9-51.3,122.4-7.5,6.8-35.2,8.4-49.3-13.1-14.1-21.5,23.5-124.6,29.3-136.4,5.7-11.4,76.7-9.6,71.2,27.1Z"/>
            <g>
              <path class="cls-15" d="M190.7,174.9c-4.2-7.6-8.8-20-17.6-14.5-2.2,1.4-13,7.1-15,9.3-4.7,5.3,1,13.5,2.8,22.3.5,2.6,2.6,7.3,4.4,9l-2.5.7,2.3,20.9s14.5,8.6,24.2-2.1l-1.4-16.8c2.4-.3,4.3-.8,5.2-1.5,6.3-4.2,2.3-18.8-2.5-27.4Z"/>
              <path class="cls-14" d="M188.7,214s-3.3-2.6-7.8-10.7l7,.3.8,10.4Z"/>
              <path class="cls-14" d="M184,160.2c-.8.8-3.5,2.9-3.5,2.9,0,0,1.6,7.9,1.3,11.1-.3,3.2,3.3,8.8-4,2.6-7.3-6.2,3.8,9.1-3.9,18.3-2.1,2.5-3.8,4.6-5.1,6.3-2.1,2.7-5.6,3.5-8.8,2.5-.4-.1-.7-.2-1.1-.2-3-.1-13.8-7.1-17.8-19.2-4-12.1.2-17.9,10.3-23.4,10.1-5.5,4.9-8.8,11.2-12.2,6.3-3.3,12.4-14.1,12.4-14.1,0,0,16.8,18.6,9.1,25.5Z"/>
              <path class="cls-15" d="M169.7,187.9c3.1,2.7,7.5,2.7,9.8,0,2.3-2.7,1.7-7-1.4-9.7-3.1-2.7-7.5-2.7-9.8,0-2.3,2.7-1.7,7,1.4,9.7Z"/>
              <path class="cls-14" d="M178.8,185.3c0,.2-.2.4-.3.6-.3.4-.7.6-1.3.6-1.1,0-1.5-.7-1.7-1.3-.3-.6-.5-1.1-1.5-1.4-.8-.2-1.4-.2-2-.1-1,.1-2.2.2-2.7-1.7-.2-.6,0-1.2.2-1.8.9-1.6,3.7-2.4,3.8-2.4l.3,1.1c-.7.2-2.5.9-3.1,1.9-.2.3-.2.6-.1,1,.3,1,.5,1,1.5.9.7,0,1.5-.2,2.5.2,1.4.4,1.8,1.3,2.1,2,.3.5.4.7.8.7.2,0,.3,0,.4-.2.3-.4.2-1.3.2-1.7l1.1-.2c0,.1.2,1.2,0,2Z"/>
            </g>
            <path class="cls-12" d="M246.2,412.9c-76.1,30.4-128.4-17.2-128.4-17.2-5-11.7,3.1-41.2,4.4-86.5,1.3-45.3,8.1-71.6,25.6-82.3,6.4-3.9,9.3-4.8,13.7-5.7,3.6-.9,7.4,0,10.2.4,8,1.1,13.2-2.1,16.7-4.2.5-.3,1.2-.4,1.7-.2,13.1,4.3,30.7,17.7,36.1,33.5,7.5,21.9,7.3,37.1,12.5,93.2,5.2,56.1,7.5,69.1,7.5,69.1Z"/>
            <path class="cls-14" d="M157.3,481.8c6.5-7.4,17.6-4.4,17.7-4.4h.5c0,.1,19-42.8,19-42.8l-1-.4-18.6,42.1c-2.3-.5-12.2-2.2-18.4,4.8l.8.7Z"/>
            <path class="cls-14" d="M197.1,371.3c13.3,0,21.6-7.3,21.7-7.4l-.7-.8c-.2.2-18.5,16.3-44.8-.6l-.6.9c9.2,6,17.5,7.9,24.4,7.9Z"/>
            <path class="cls-5" d="M235.3,318.5h.9c1.3-29.2-5.9-54.6-6-54.8l-.9.3c0,.3,7.2,25.5,5.9,54.6Z"/>
            <path class="cls-5" d="M122.7,312.9h-1.2c0-.3.8-26.9,2.6-37.8l1.2.2c-1.8,10.7-2.6,37.3-2.6,37.6Z"/>
            <path class="cls-5" d="M209.8,272.7l-.3-1.2c11.6-3.4,20.4-8.3,20.5-8.4l.6,1.1c0,0-9.1,5-20.8,8.5Z"/>
          </g>
        </g>
        <path class="cls-8" d="M270.4,370.3h-.3c-14.4-11.6-32.4-15.3-49.9-9.9,1.6-5.3,4.3-10.2,1.9-15.8-2.3-5.7-8.7-9.1-14.4-10.7-10.3-2.9-21.4-1.5-29.4,4.8-2.9-13.9-14.7-25.7-29.9-25-16.1.7-27.2,15.2-27.6,30.3-8.4-2.3-17.8-3.2-26.1-.4-7.2,2.5-9.2,9.7-14.5,12-7.2,3.2-15.5-2.4-21.9,4.4-2.8,3-3.5,6.4-2.5,9.7,1.4,2.6,3.4,4.9,5.8,6.8h206.3c2.1,0,3.3,0,4-.5,2.2-1.5,1.7-5.8-1.7-5.8Z"/>
        <g>
          <g>
            <polygon class="cls-11" points="354.6 288.1 336.8 288.1 342.2 268.7 359.9 268.7 354.6 288.1"/>
            <polygon class="cls-14" points="364 283.3 359.9 268.7 342.2 268.7 346.2 283.3 364 283.3"/>
            <polygon class="cls-11" points="363.9 283.4 346.2 283.4 354.1 255.1 371.8 255.1 363.9 283.4"/>
            <polygon class="cls-14" points="378.2 277.7 371.8 255.1 354.1 255.1 360.4 277.7 378.2 277.7"/>
            <polygon class="cls-2" points="378.1 277.7 360.4 277.7 370.3 242.2 388.1 242.2 378.1 277.7"/>
            <polygon class="cls-3" points="360.3 277.9 370.9 277.9 370.9 277.6 360.5 277.6 356.7 264.1 356.4 264.2 360.3 277.9"/>
          </g>
          <path class="cls-8" d="M449.6,291.2h-.2c-10.6-8.5-23.8-11.3-36.7-7.3,1.2-3.9,3.1-7.5,1.4-11.7-1.7-4.2-6.4-6.7-10.6-7.8-7.6-2.1-15.7-1.1-21.6,3.6-2.2-10.2-10.8-18.9-22-18.4-11.8.5-20,11.2-20.3,22.3-6.2-1.7-13.1-2.4-19.2-.3-5.3,1.8-6.7,7.1-10.6,8.9-5.3,2.3-11.4-1.8-16.1,3.2-2,2.2-2.6,4.7-1.8,7.2,1,1.9,2.5,3.6,4.3,5h151.8c1.6,0,2.4,0,3-.4,1.6-1.1,1.2-4.2-1.3-4.2Z"/>
          <polygon class="cls-14" points="395.7 269.8 388 242.2 370.3 242.2 378 269.8 395.7 269.8"/>
          <g>
            <polygon class="cls-2" points="395.8 269.9 378 269.9 391.5 209 409.3 209 395.8 269.9"/>
            <polygon class="cls-2" points="417.7 217.9 402.4 200.5 377.5 217.9 417.7 217.9"/>
          </g>
        </g>
        <g>
          <g>
            <polygon class="cls-11" points="103.8 112 92.2 112 95.7 99.3 107.3 99.3 103.8 112"/>
            <polygon class="cls-14" points="110 108.9 107.3 99.3 95.7 99.3 98.4 108.9 110 108.9"/>
            <polygon class="cls-11" points="109.9 108.9 98.3 108.9 103.5 90.5 115.1 90.5 109.9 108.9"/>
            <polygon class="cls-14" points="119.2 105.2 115.1 90.5 103.5 90.5 107.6 105.2 119.2 105.2"/>
            <polygon class="cls-2" points="119.2 105.2 107.6 105.2 114.1 82 125.7 82 119.2 105.2"/>
            <polygon class="cls-3" points="107.6 105.3 114.5 105.3 114.5 105.1 107.7 105.1 105.2 96.3 105 96.4 107.6 105.3"/>
          </g>
          <path class="cls-8" d="M165.9,114h-.1c-6.9-5.6-15.6-7.4-24-4.8.8-2.5,2-4.9.9-7.6-1.1-2.8-4.2-4.4-6.9-5.1-4.9-1.4-10.3-.7-14.1,2.3-1.4-6.7-7.1-12.3-14.4-12-7.7.4-13.1,7.3-13.3,14.6-4.1-1.1-8.5-1.6-12.6-.2-3.5,1.2-4.4,4.7-7,5.8-3.5,1.5-7.5-1.2-10.5,2.1-1.3,1.4-1.7,3.1-1.2,4.7.7,1.3,1.6,2.4,2.8,3.3h99.2c1,0,1.6,0,1.9-.3,1.1-.7.8-2.8-.8-2.8Z"/>
          <polygon class="cls-14" points="130.7 100 125.7 82 114.1 82 119.1 100 130.7 100"/>
          <g>
            <polygon class="cls-2" points="130.7 100.1 119.1 100.1 128 60.3 139.5 60.3 130.7 100.1"/>
            <polygon class="cls-2" points="145 66.2 135.1 54.8 118.8 66.2 145 66.2"/>
          </g>
        </g>
        <rect class="cls-6" x="54.3" y="376.6" width="369.1" height="2.6"/>
      </g>
    </g>
  </g>
</svg>