<?xml version="1.0" encoding="utf-8"?>
<!-- Generator: Adobe Illustrator 27.6.1, SVG Export Plug-In . SVG Version: 6.00 Build 0)  -->
<svg version="1.1" id="レイヤー_1" xmlns="http://www.w3.org/2000/svg" xmlns:xlink="http://www.w3.org/1999/xlink" x="0px"
	 y="0px" viewBox="0 0 38.8 34.6" style="enable-background:new 0 0 38.8 34.6;" xml:space="preserve">
<style type="text/css">
	.st0{fill:#1374AC;}
</style>
<g>
	<path class="st0" d="M1.2,34.3c-0.9-0.6-1.3-1.8-0.8-2.8L16.6,1c0.6-0.9,1.8-1.3,2.8-0.8C20.3,0.8,20.7,2,20.2,3L4,33.5
		c-0.4,0.7-1.1,1.1-1.8,1.1C1.9,34.6,1.6,34.5,1.2,34.3z"/>
	<path class="st0" d="M23.4,34.1c-0.9-0.6-1.1-1.9-0.4-2.8l12.4-16.9c0.6-0.9,1.9-1.1,2.8-0.4c0.9,0.6,1.1,1.9,0.5,2.8l-12.5,17
		c-0.4,0.5-1,0.8-1.6,0.8C24.2,34.6,23.8,34.4,23.4,34.1z"/>
</g>
</svg>
