<?xml version="1.0" encoding="utf-8"?>
<!-- Generator: Adobe Illustrator 27.6.1, SVG Export Plug-In . SVG Version: 6.00 Build 0)  -->
<svg version="1.1" id="レイヤー_1" xmlns="http://www.w3.org/2000/svg" xmlns:xlink="http://www.w3.org/1999/xlink" x="0px"
	 y="0px" viewBox="0 0 38.8 34.6" style="enable-background:new 0 0 38.8 34.6;" xml:space="preserve">
<style type="text/css">
	.st0{fill:#1374AC;}
</style>
<g>
	<path class="st0" d="M37,34.6c-0.7,0-1.4-0.4-1.8-1.1L19,3c-0.5-1-0.1-2.2,0.8-2.8c1-0.5,2.2-0.1,2.8,0.8l16.2,30.5
		c0.5,1,0.1,2.2-0.8,2.8C37.6,34.5,37.3,34.6,37,34.6z"/>
	<path class="st0" d="M14.6,34.6c-0.6,0-1.2-0.3-1.6-0.8l-12.5-17C-0.1,15.9,0.1,14.6,1,14c0.9-0.7,2.2-0.5,2.8,0.4l12.4,16.9
		c0.7,0.9,0.5,2.2-0.4,2.8C15.4,34.4,15,34.6,14.6,34.6z"/>
</g>
</svg>
