<?xml version="1.0" encoding="UTF-8"?>
<svg xmlns="http://www.w3.org/2000/svg" version="1.1" xmlns:xlink="http://www.w3.org/1999/xlink" viewBox="0 0 400 104.6">
  <defs>
    <style>
      .cls-1 {
        fill: #fff;
      }

      .cls-2 {
        fill: url(#_名称未設定グラデーション_255-2);
      }

      .cls-3 {
        fill: #636363;
      }

      .cls-4 {
        fill: url(#_名称未設定グラデーション_493);
      }

      .cls-5 {
        fill: #3e75e8;
      }

      .cls-6 {
        fill: url(#_名称未設定グラデーション_255);
      }
    </style>
    <linearGradient id="_名称未設定グラデーション_255" data-name="名称未設定グラデーション 255" x1="6.6" y1="77.7" x2="77.2" y2="65.6" gradientUnits="userSpaceOnUse">
      <stop offset="0" stop-color="#72f3ff"/>
      <stop offset="1" stop-color="#187eff"/>
    </linearGradient>
    <linearGradient id="_名称未設定グラデーション_255-2" data-name="名称未設定グラデーション 255" x1="41.2" y1="71.2" x2="75.4" y2="50.9" xlink:href="#_名称未設定グラデーション_255"/>
    <linearGradient id="_名称未設定グラデーション_493" data-name="名称未設定グラデーション 493" x1=".8" y1="40" x2="77.7" y2="12.2" gradientUnits="userSpaceOnUse">
      <stop offset="0" stop-color="#72f3ff"/>
      <stop offset=".1" stop-color="#6ae9ff"/>
      <stop offset=".4" stop-color="#57d0ff"/>
      <stop offset=".7" stop-color="#37a6ff"/>
      <stop offset="1" stop-color="#187eff"/>
    </linearGradient>
  </defs>
  <!-- Generator: Adobe Illustrator 28.6.0, SVG Export Plug-In . SVG Version: 1.2.0 Build 709)  -->
  <g>
    <g id="_レイヤー_1" data-name="レイヤー_1">
      <g>
        <g>
          <path class="cls-1" d="M99.7,31.5c-5.9,0-10.7,1.8-14.4,5.5-3.7,3.7-5.5,8.5-5.5,14.4s2,10.9,6,15c4,4.1,9,6.2,15.1,6.2s6.1-.5,8.9-1.4c2.5-.8,4.6-1.9,6.2-3.1l-2.9-5.1c-1.2.6-2.4,1.1-3.5,1.7-2.2,1-4.4,1.5-6.7,1.5-3.7,0-6.7-1.3-9-4-2.1-2.4-3.2-5.5-3.2-9.2h25.9c0-.2,0-.5,0-1,0-.4,0-1.1,0-1.9,0-5.1-1.3-9.4-4-12.7-3.1-3.9-7.4-5.9-13.1-5.9ZM90.9,47.7c0-3.1.8-5.7,2.4-7.7,1.6-2,3.8-3.1,6.5-3.1s4.9,1.1,6.1,3.4c1,1.8,1.5,4.2,1.5,7.4h-16.5Z"/>
          <path class="cls-1" d="M182.8,31.5c-5.9,0-10.7,1.8-14.4,5.5-3.7,3.7-5.5,8.5-5.5,14.4s2,10.9,6,15c4,4.1,9,6.2,15.1,6.2s6.1-.5,8.9-1.4c2.5-.8,4.6-1.9,6.2-3.1l-2.9-5.1c-1.2.6-2.4,1.1-3.5,1.7-2.2,1-4.4,1.5-6.7,1.5-3.7,0-6.7-1.3-9-4-2.1-2.4-3.2-5.5-3.2-9.2h25.9c0-.2,0-.5,0-1,0-.4,0-1.1,0-1.9,0-5.1-1.3-9.4-4-12.7-3.1-3.9-7.4-5.9-13.1-5.9ZM174,47.7c0-3.1.8-5.7,2.4-7.7,1.6-2,3.8-3.1,6.5-3.1s4.9,1.1,6.1,3.4c1,1.8,1.5,4.2,1.5,7.4h-16.5Z"/>
          <rect class="cls-1" x="208.9" y="13" width="10" height="58.5"/>
          <path class="cls-1" d="M274.9,16l-24.3,55.5h9.2s6.2-15.5,6.2-15.5h19.9l5,15.5h11.8l-19.4-55.5h-8.3ZM268.5,49.3l8.6-22.2,6.7,22.2h-15.3Z"/>
          <path class="cls-1" d="M334,30.7c-2.8,0-5.4.6-7.8,1.7-2.4,1.1-4.5,2.9-6.3,5.2v-5.6h-10v59.5h10v-25.5c1.9,2.1,3.9,3.7,6.1,4.8,2.2,1,4.8,1.6,7.9,1.6,5.1,0,9.4-2.2,12.9-6.5,3.4-4.2,5-9,5-14.6s-1.4-10.5-4.1-14.2c-3.2-4.2-7.7-6.3-13.7-6.3ZM338.2,61.6c-1.7,3.1-4.1,4.7-7.2,4.7s-6.6-1.6-8.6-4.8c-1.7-2.7-2.5-6.1-2.5-10.3s.8-7.1,2.4-9.7c1.9-3,4.6-4.6,8.1-4.6s6.3,1.7,8,5c1.3,2.6,2,6.1,2,10.3s-.7,6.8-2.2,9.4Z"/>
          <path class="cls-1" d="M395.5,37c-3.2-4.2-7.7-6.3-13.7-6.3s-5.4.6-7.8,1.7c-2.4,1.1-4.5,2.9-6.3,5.2v-5.6h-10v59.5h10v-25.5c1.9,2.1,3.9,3.7,6.1,4.8,2.2,1,4.8,1.6,7.9,1.6,5.1,0,9.4-2.2,12.9-6.5,3.4-4.2,5-9,5-14.6s-1.4-10.5-4.1-14.2ZM386.1,61.6c-1.7,3.1-4.1,4.7-7.2,4.7s-6.6-1.6-8.6-4.8c-1.7-2.7-2.5-6.1-2.5-10.3s.8-7.1,2.4-9.7c1.9-3,4.6-4.6,8.1-4.6s6.3,1.7,8,5c1.3,2.6,2,6.1,2,10.3s-.7,6.8-2.2,9.4Z"/>
          <polygon class="cls-1" points="165 33.3 162.5 17.9 149.7 27.2 153.7 28.8 141.4 59 131.1 31.4 121.2 33.4 136.6 71.5 143.7 71.5 160.9 31.6 165 33.3"/>
        </g>
        <g>
          <path class="cls-6" d="M35.3,60.4c-2.9,13.7-8.8,23.4-11.5,27.8h0c-4.9.9-11.2,2.4-15.9,3.7,7.4-10.5,12.1-22.8,14-31.3,1.8.2,3.8.4,5.7.4s5.1-.2,7.7-.6Z"/>
          <path class="cls-5" d="M38.5,96.5c0,3-1.6,6.6-6.6,8H2.9s-2.5-1.2-2.8-3.8c-.4-3.2,1.2-4.8,2.9-5.6.8-.4,2.1-.9,3.5-1.3,4.3-1.4,10.9-3,16.2-4h0c3.2-.6,5.9-1,7.5-1.1.1,0,.2,0,.3,0,4.3,0,7.9,3.3,7.9,7.8Z"/>
          <path class="cls-3" d="M52.9,53.3c-.4.2-.8.4-1.3.6-.5.2-1,.5-1.5.7.9-.4,1.8-.9,2.7-1.3Z"/>
          <path class="cls-3" d="M56.7,51.1c-.3.2-.5.3-.8.5.3-.2.5-.4.7-.5h0Z"/>
          <path class="cls-2" d="M62.2,68c-4.4,2.7-10,6.4-14,9.5,4.2-8.9.8-16.3-1.9-19.8,2.1-.7,4.1-1.6,6-2.5,1.6-.8,3.3-1.7,5.3-3.1,4.7,5.4,4.9,12.4,4.6,15.9Z"/>
          <path class="cls-5" d="M75.4,80.5l-27.1,10.4s-2.7-.2-4-2.5c-1.5-2.8-.6-4.9.7-6.3.4-.4.8-.8,1.3-1.3,3.4-3,10.2-7.7,15.6-11.1,2.6-1.6,4.8-2.8,6.2-3.4,1-.4,2.1-.7,3.2-.7,3.1,0,6,1.8,7.3,5,1.1,2.8.9,6.7-3.3,9.9Z"/>
          <g>
            <path class="cls-3" d="M52.9,53.3c-.4.2-.8.4-1.3.6-.5.2-1,.5-1.5.7.9-.4,1.8-.9,2.7-1.3Z"/>
            <path class="cls-3" d="M56.7,51.1c-.3.2-.5.3-.8.5.3-.2.5-.4.7-.5h0Z"/>
          </g>
          <path class="cls-4" d="M50.7,4.1c-4.5-1.8-11-3.5-17.7-3.9-1.1,0-2.3-.1-3.4-.1s-1.3,0-2,0c-.2,0-.5,0-.7,0-.2,0-.5,0-.7,0,0,0,0,0-.1,0-10.6.8-14.7,3.1-15.6,7.3-.5,2.3.7,7,5.7,7.6,5.8.7,7.8,17.3,7.7,29,6.7-.3,13-1.2,13.1-1.2h0s0,0,.1,0h0s0,0,0,0c0,0,0,0,0,0,0-.4,0-.7,0-1.1,0-4.8-.7-10.9-1.7-16.1h0c-.3-1.5-.6-2.8-.9-4.1h0c-.2-.7-.3-1.3-.5-1.9-.2-.8-.4-1.4-.4-2,0-1.1.3-2,1.3-2.5.8-.4,1.9-.6,3.5-.6s.9,0,1.3,0c6.2.3,18.1,3.8,18.5,13.3.4,8.5-7.2,12.6-13.7,14.6-1.5.5-3,.8-4.3,1.1-.1,0-.2,0-.4,0-.9.2-1.8.4-2.7.5,0,0-.1,0-.2,0,0,0-6.5.9-13.3,1.3,0,0-1,0-1.7,0-1.7,0-4.1.2-6,1.5-3.8,2.7-4.1,10.1,2.3,11.6,1.3.3,2.5.5,3.8.7,1.8.2,3.6.3,5.4.3,2.7,0,5.4-.2,8-.6h0c5-.8,9.9-2.3,14.2-4.1,0,0,.1,0,.2,0,.1,0,.2,0,.3-.1.9-.4,1.8-.9,2.7-1.3.2-.1.5-.3.7-.4,0,0,.2,0,.2-.1.1,0,.2-.1.3-.2.2-.1.5-.3.8-.4.2-.1.4-.2.6-.4,0,0,.2-.1.3-.2.3-.2.5-.4.7-.5h0c1.9-1.3,4.2-3,7-5.5,4.6-4.2,7.9-10.1,7.7-16.4-.4-13.1-10.3-21-20.7-25.1Z"/>
        </g>
      </g>
    </g>
  </g>
</svg>