<?xml version="1.0" encoding="UTF-8"?>
<svg xmlns="http://www.w3.org/2000/svg" version="1.1" xmlns:xlink="http://www.w3.org/1999/xlink" viewBox="0 0 168.9 200">
  <defs>
    <style>
      .cls-1 {
        fill: #fff;
      }

      .cls-2 {
        fill: url(#_名称未設定グラデーション_2);
      }

      .cls-3 {
        fill: url(#_名称未設定グラデーション);
      }

      .cls-4 {
        fill: #636363;
      }

      .cls-5 {
        fill: url(#_名称未設定グラデーション_3);
      }

      .cls-6 {
        fill: #3e75e8;
      }
    </style>
    <linearGradient id="_名称未設定グラデーション" data-name="名称未設定グラデーション" x1="38.3" y1="93.7" x2="136.9" y2="110.6" gradientTransform="translate(0 202) scale(1 -1)" gradientUnits="userSpaceOnUse">
      <stop offset="0" stop-color="#72f3ff"/>
      <stop offset="1" stop-color="#187eff"/>
    </linearGradient>
    <linearGradient id="_名称未設定グラデーション_2" data-name="名称未設定グラデーション 2" x1="86.6" y1="102.7" x2="134.4" y2="131" gradientTransform="translate(0 202) scale(1 -1)" gradientUnits="userSpaceOnUse">
      <stop offset="0" stop-color="#72f3ff"/>
      <stop offset="1" stop-color="#187eff"/>
    </linearGradient>
    <linearGradient id="_名称未設定グラデーション_3" data-name="名称未設定グラデーション 3" x1="30.1" y1="146.3" x2="137.4" y2="185.1" gradientTransform="translate(0 202) scale(1 -1)" gradientUnits="userSpaceOnUse">
      <stop offset="0" stop-color="#72f3ff"/>
      <stop offset="0" stop-color="#6ae9ff"/>
      <stop offset=".4" stop-color="#57d0ff"/>
      <stop offset=".7" stop-color="#37a6ff"/>
      <stop offset="1" stop-color="#187eff"/>
    </linearGradient>
  </defs>
  <!-- Generator: Adobe Illustrator 28.6.0, SVG Export Plug-In . SVG Version: 1.2.0 Build 709)  -->
  <g>
    <g id="_レイヤー_1" data-name="レイヤー_1">
      <g id="_レイヤー_1-2" data-name="_レイヤー_1">
        <g>
          <g>
            <path class="cls-3" d="M78.3,84.2c-4.1,19.1-12.3,32.7-16.1,38.8h0c-6.9,1.2-15.6,3.3-22.2,5.2,10.3-14.7,16.8-31.9,19.5-43.8,2.5.4,5.2.5,8,.5s7.1-.3,10.8-.8Z"/>
            <path class="cls-6" d="M82.9,134.6c0,4.3-2.1,9.2-9.2,11.2h-40.6s-3.5-1.6-3.9-5.2c-.5-4.4,1.6-6.7,4-7.9,1.2-.5,2.8-1.2,4.9-1.9,6-2,15.2-4.1,22.7-5.6h0c4.4-.8,8.3-1.5,10.5-1.5h.4c5.9,0,10.9,4.5,11.1,10.9h0Z"/>
            <path class="cls-4" d="M103,74.3c-.7.3-1.2.7-1.7.9-.7.3-1.3.7-2,.9,1.3-.5,2.5-1.2,3.7-1.9Z"/>
            <path class="cls-4" d="M108.2,71.3c-.4.3-.7.5-1.1.7.4-.3.7-.5,1.1-.8h0Z"/>
            <path class="cls-2" d="M116,94.7c-6.1,3.7-13.9,8.9-19.5,13.3,5.9-12.4,1.2-22.8-2.7-27.6,2.9-1.1,5.7-2.1,8.4-3.5,2.3-1.1,4.5-2.4,7.5-4.3,6.7,7.6,6.8,17.2,6.4,22.2h-.1Z"/>
            <path class="cls-6" d="M134.4,112.2l-37.8,14.5s-3.9-.3-5.6-3.5c-2.1-3.9-.9-6.8.9-8.8.5-.5,1.1-1.1,1.9-1.7,4.8-4.1,14.3-10.8,21.9-15.5,3.6-2.1,6.7-4,8.7-4.8,1.5-.7,2.9-.9,4.4-.9,4.3,0,8.4,2.5,10.1,6.9,1.6,3.9,1.3,9.3-4.5,13.7h0Z"/>
            <g>
              <path class="cls-4" d="M103,74.3c-.7.3-1.2.7-1.7.9-.7.3-1.3.7-2,.9,1.3-.5,2.5-1.2,3.7-1.9Z"/>
              <path class="cls-4" d="M108.2,71.3c-.4.3-.7.5-1.1.7.4-.3.7-.5,1.1-.8h0Z"/>
            </g>
            <path class="cls-5" d="M99.8,5.6c-6.3-2.5-15.3-4.8-24.7-5.5-1.6,0-3.2-.1-4.8-.1h-5.1c-14.8,1.2-20.6,4.3-21.8,10.1-.7,3.2.9,9.7,8,10.5,8,.9,10.8,24.2,10.8,40.4,9.3-.4,18.1-1.7,18.3-1.7h.1v-1.5c0-6.7-.9-15.2-2.4-22.4h0c-.4-2-.8-4-1.2-5.7h0c-.3-.9-.4-1.7-.7-2.5-.3-1.1-.5-2-.5-2.8,0-1.6.4-2.8,1.9-3.5,1.1-.5,2.7-.8,4.9-.8s1.2,0,1.9,0c8.7.4,25.2,5.3,25.9,18.5.5,11.9-10.1,17.5-19.1,20.4-2.1.7-4.1,1.2-6,1.6h-.5c-1.2.3-2.5.5-3.7.7h-.3s-9.1,1.3-18.5,1.7h-2.4c-2.4,0-5.7.3-8.4,2.1-5.3,3.7-5.7,14.1,3.2,16.3,1.7.4,3.5.8,5.3.9,2.5.3,5.1.5,7.6.5,3.7,0,7.5-.3,11.2-.9h0c7.1-1.1,13.9-3.2,19.7-5.7,0,0,.1,0,.3-.1.1,0,.3,0,.4-.1,1.3-.5,2.5-1.2,3.7-1.9.4-.1.7-.4,1.1-.5,0,0,.3,0,.4-.1.1,0,.3-.1.5-.3.4-.1.7-.4,1.1-.7.3-.1.5-.4.8-.5,0,0,.3-.1.4-.3.4-.3.7-.5,1.1-.8h0c2.7-1.7,5.9-4.3,9.7-7.7,6.4-5.9,11.1-14.1,10.8-23-.5-18.3-14.4-29.2-29-35v.3Z"/>
          </g>
          <g>
            <path class="cls-1" d="M29.5,172.5c-2.8,0-4.9.8-6.7,2.5-1.7,1.7-2.5,4-2.5,6.7s.9,5.1,2.8,6.9c1.9,1.9,4.1,2.9,7.1,2.9s2.8-.3,4.1-.7c1.2-.4,2.1-.8,2.9-1.5l-1.3-2.4c-.5.3-1.1.5-1.6.8-1.1.4-2,.7-3.1.7-1.7,0-3.1-.7-4.1-1.9-.9-1.2-1.5-2.5-1.5-4.3h12v-1.3c0-2.4-.7-4.4-1.9-5.9-1.5-1.9-3.5-2.8-6.1-2.8h-.1ZM25.5,180c0-1.5.4-2.7,1.1-3.6.8-.9,1.7-1.5,3.1-1.5s2.3.5,2.8,1.6c.4.8.7,2,.7,3.5h-7.7.1Z"/>
            <path class="cls-1" d="M68.1,172.5c-2.8,0-4.9.8-6.7,2.5-1.7,1.7-2.5,4-2.5,6.7s.9,5.1,2.8,6.9,4.1,2.9,7.1,2.9,2.8-.3,4.1-.7c1.2-.4,2.1-.8,2.9-1.5l-1.3-2.4c-.5.3-1.1.5-1.6.8-1.1.4-2,.7-3.1.7-1.7,0-3.1-.7-4.1-1.9-.9-1.2-1.5-2.5-1.5-4.3h12v-1.3c0-2.4-.7-4.4-1.9-5.9-1.5-1.9-3.5-2.8-6.1-2.8h-.1ZM64.1,180c0-1.5.4-2.7,1.1-3.6.8-.9,1.7-1.5,3.1-1.5s2.3.5,2.8,1.6.7,2,.7,3.5h-7.7.1Z"/>
            <rect class="cls-1" x="80.2" y="163.9" width="4.7" height="27.2"/>
            <path class="cls-1" d="M110.9,165.3l-11.3,25.8h4.3l2.9-7.2h9.2l2.3,7.2h5.5l-9.1-25.8h-3.9.1ZM108,180.8l4-10.3,3.1,10.3h-7.1Z"/>
            <path class="cls-1" d="M138.2,172.1c-1.3,0-2.5.3-3.6.8-1.1.5-2.1,1.3-2.9,2.4v-2.7h-4.7v27.6h4.7v-11.9c.8.9,1.7,1.7,2.8,2.3s2.3.7,3.7.7c2.4,0,4.4-1.1,6-3.1s2.4-4.1,2.4-6.8-.7-4.9-1.9-6.7c-1.5-2-3.6-2.9-6.4-2.9v.3ZM140.3,186.6c-.8,1.5-1.9,2.1-3.3,2.1s-3.1-.8-4-2.3c-.8-1.2-1.2-2.8-1.2-4.8s.4-3.3,1.2-4.5c.9-1.5,2.1-2.1,3.7-2.1s2.9.8,3.7,2.3c.7,1.2.9,2.8.9,4.8s-.4,3.2-1.1,4.4h0Z"/>
            <path class="cls-1" d="M166.9,175.1c-1.5-2-3.6-2.9-6.4-2.9s-2.5.3-3.6.8c-1.1.5-2.1,1.3-2.9,2.4v-2.7h-4.7v27.6h4.7v-11.9c.8.9,1.7,1.7,2.8,2.3s2.3.7,3.7.7c2.4,0,4.4-1.1,6-3.1s2.4-4.1,2.4-6.8-.7-4.9-1.9-6.7v.3ZM162.5,186.6c-.8,1.5-1.9,2.1-3.3,2.1s-3.1-.8-4-2.3c-.8-1.2-1.2-2.8-1.2-4.8s.4-3.3,1.2-4.5c.9-1.5,2.1-2.1,3.7-2.1s2.9.8,3.7,2.3c.7,1.2.9,2.8.9,4.8s-.4,3.2-1.1,4.4h0Z"/>
            <polygon class="cls-1" points="59.8 173.3 58.6 166.1 52.7 170.5 54.6 171.2 48.8 185.4 44 172.4 39.5 173.3 46.7 191.1 49.9 191.1 57.9 172.5 59.8 173.3"/>
            <path class="cls-1" d="M18.7,190.7l-5.2.9-5.2-10.9h-3.2v10.4H0v-25.8h8.7c2.5,0,4.7.7,6.1,1.9,1.6,1.2,2.3,2.9,2.3,5.2s-.5,3.5-1.5,4.8c-1.1,1.3-2.1,2.1-3.2,2.4l6.1,11.1h.1ZM12.3,173.1c0-1.6-.4-2.8-1.3-3.5-.7-.5-1.7-.8-3.2-.8h-2.7v8.8h2.5c1.3,0,2.4-.4,3.3-1.2.9-.8,1.3-1.9,1.3-3.3Z"/>
          </g>
        </g>
      </g>
    </g>
  </g>
</svg>