<?xml version="1.0" encoding="UTF-8"?>
<svg xmlns="http://www.w3.org/2000/svg" version="1.1" viewBox="0 0 131.5 20">
  <defs>
    <style>
      .cls-1 {
        fill: #fff;
      }
    </style>
  </defs>
  <!-- Generator: Adobe Illustrator 28.6.0, SVG Export Plug-In . SVG Version: 1.2.0 Build 709)  -->
  <g>
    <g id="_レイヤー_1" data-name="レイヤー_1">
      <g>
        <g>
          <path class="cls-1" d="M32.3,6.9c0-1.8,0-2-1-2.2h-.3c0-.1,0-.4,0-.5.4,0,.7,0,1,0,.3,0,.6,0,1,0h3.2c1.1,0,2.1,0,2.3,0,.1.3.2,1.5.3,2.3,0,.1-.3.1-.4,0-.3-.8-.4-1.4-1.3-1.6-.4,0-.9-.1-1.7-.1h-1.2c-.5,0-.5,0-.5.7v3.4c0,.5,0,.5.6.5h1c.7,0,1.2,0,1.5-.1.2,0,.3-.2.4-.6v-.7c.2-.1.5-.1.6,0,0,.4,0,1.1,0,1.7s0,1.3,0,1.6c0,.1-.4.1-.4,0l-.2-.7c0-.3-.2-.6-.5-.6-.2,0-.7,0-1.3,0h-1c-.5,0-.6,0-.6.5v2.4c0,.9,0,1.5.3,1.8.2.2.6.4,2.1.4s1.8,0,2.2-.3c.3-.2.8-.8,1.2-1.7.1,0,.4,0,.4.1-.1.6-.5,1.9-.8,2.4-.8,0-1.5,0-2.3,0-.8,0-1.5,0-2.3,0h-1.5c-.7,0-1.3,0-2.3,0-.1,0-.1-.3,0-.4h.6c1-.1,1.1-.4,1.1-2.2v-6.2h0Z"/>
          <path class="cls-1" d="M44.9,12.4c.2-.3.2-.4,0-.7l-1.8-2.3c-.4-.5-.5-.6-1.1-.7h-.4c-.1-.2-.1-.4,0-.5.6,0,1.1,0,1.6,0s1.2,0,1.5,0c.2,0,.2.3,0,.4h-.3c-.3.1-.4.3-.1.6l.8,1.1c.3.4.4.6.6.8.2-.2.3-.4.6-.8l.8-1.2c.2-.2.1-.4-.2-.4h-.3c-.2-.1-.2-.4,0-.5.6,0,1,0,1.4,0s.7,0,1.3,0c.2,0,.2.3,0,.4h-.5c-.5.2-.8.5-1.1.9l-1.4,1.7c-.3.3-.3.4,0,.7l1.8,2.5c.4.5.8.8,1.1.8h.6c.1.1.1.4,0,.5-.6,0-1.3,0-1.7,0s-1.1,0-1.7,0c-.2,0-.2-.4,0-.4h.3c.5-.1.5-.2.2-.6l-.8-1.2c-.4-.5-.5-.7-.7-.9-.2.2-.3.4-.7.9l-.9,1.2c-.2.3,0,.4.3.5h.3c.1.1.1.4,0,.5-.5,0-1.1,0-1.5,0s-.9,0-1.4,0c-.2,0-.2-.3,0-.4h.5c.6-.1,1-.5,1.3-.9l1.5-2Z"/>
          <path class="cls-1" d="M53.1,10.2c0-1.1,0-1.4-.4-1.4h-.5c-.2-.1-.1-.5,0-.5,1,0,1.8-.1,2.7-.1s1.6.1,2.1.3c.6.2,1.4.8,1.4,2s-.8,1.7-1.4,2c-.6.2-1.2.3-1.6.3,0,0,0-.2,0-.3,1.1-.2,1.6-.9,1.6-1.9s-.7-1.7-1.9-1.7-.7.1-.7.6v4.6c0,1.2,0,1.3.8,1.4h.4c.1.1.1.4,0,.5-.7,0-1.3,0-1.8,0s-1.1,0-1.7,0c-.1,0-.2-.3,0-.4h.3c.7-.2.8-.2.8-1.4v-3.6h0Z"/>
          <path class="cls-1" d="M61.3,10c0-1.2,0-1.2-.7-1.4h-.2c-.1-.1-.1-.4,0-.5.3,0,.5,0,.8,0,.3,0,.5,0,.8,0h2.4c.8,0,1.4,0,1.6,0,0,.2.1,1,.2,1.7,0,.1-.3.2-.4,0-.1-.4-.2-.7-.3-.8-.3-.4-1-.4-1.5-.4h-.8c-.6,0-.6,0-.6.5v1.9c0,.3,0,.3.3.3h.8c.9,0,1-.1,1.1-.7v-.3c.2-.1.4-.1.5,0,0,.5,0,.8,0,1.2s0,.7,0,1.2c0,.1-.3.2-.4,0v-.3c-.2-.5-.3-.7-1.2-.7h-.8c-.3,0-.3,0-.3.4v1.2c0,.5,0,1,.2,1.2.2.2.5.2,1.4.2s1.7,0,2.2-1.4c.1-.1.4,0,.4,0,0,.7-.3,1.6-.5,1.9-.5,0-1,0-1.5,0-.5,0-.9,0-1.4,0h-1.5c-.5,0-1.1,0-1.9,0-.1,0-.2-.3,0-.4h.5c.7-.1.8-.2.8-1.4v-3.8h0Z"/>
          <path class="cls-1" d="M69.8,10.2c0-1.1,0-1.4-.4-1.5h-.5c-.1,0-.2-.4,0-.5.9,0,1.9-.1,2.8-.1,1.6,0,3.3.3,3.3,2.1s-.9,1.6-1.5,1.8c0,0,0,.2,0,.3.9,1.4,1.6,2.3,2.2,2.7.3.3.6.3.9.4,0,0,0,.2,0,.3-.2,0-.4,0-.7,0-1,0-1.6-.3-2.4-1.3-.4-.6-.9-1.3-1.2-1.8-.1-.2-.4-.3-.7-.3-.4,0-.5,0-.5.3v1.2c0,1.2,0,1.3.8,1.4h.4c.1.1,0,.4,0,.5-.7,0-1.3,0-1.8,0s-1.1,0-1.7,0c-.2,0-.2-.4,0-.4h.3c.7-.2.8-.2.8-1.4,0,0,0-3.6,0-3.6ZM71.1,11.5c0,.4,0,.4.9.4s1.7-.4,1.7-1.6-.6-1.6-1.8-1.6-.8,0-.8.5c0,0,0,2.3,0,2.3Z"/>
          <path class="cls-1" d="M80.2,9.2c0-.4,0-.4-.4-.4h-.5c-1,0-1.5.1-1.9,1.3-.2.1-.4,0-.4,0,.2-.7.4-1.6.5-2,0,0,.2,0,.3,0,0,.3.3.3.9.3h4.8c.6,0,.8,0,.9-.3.1,0,.3,0,.3,0-.1.4-.2,1.4-.2,2,0,.1-.4.2-.4,0-.1-1.1-.6-1.2-1.6-1.2h-.6c-.3,0-.4,0-.4.4v4.7c0,1.2,0,1.3.8,1.4h.5c.1.1.1.4,0,.5-.7,0-1.4,0-1.9,0s-1.2,0-1.9,0c-.1,0-.2-.3,0-.4h.5c.7-.1.8-.2.8-1.4v-4.7h0Z"/>
          <path class="cls-1" d="M94.6,15.9c-1.4,0-2.3-.4-2.7-.6-.2-.4-.4-1.6-.5-2.4,0-.1.3-.2.4,0,.3.9,1,2.5,2.9,2.5s2.1-.9,2.1-2-.2-1.6-1.4-2.4l-1.6-1.1c-.9-.6-1.8-1.5-1.8-2.9s1.3-2.9,3.5-2.9,1.1,0,1.6.2c.2,0,.5.1.6.1.2.4.3,1.4.3,2.1,0,.1-.3.1-.4,0-.2-.8-.7-1.9-2.3-1.9s-2,1.1-2,1.9.8,1.7,1.5,2.1l1.4.9c1.1.7,2.1,1.7,2.1,3.3,0,1.9-1.4,3.2-3.6,3.2Z"/>
          <path class="cls-1" d="M103.4,9.2c0-.4,0-.4-.4-.4h-.5c-1,0-1.5.1-1.9,1.3-.2.1-.4,0-.4,0,.2-.7.4-1.6.5-2,0,0,.2,0,.3,0,0,.3.3.3.9.3h4.8c.6,0,.8,0,.9-.3.1,0,.3,0,.3,0-.1.4-.2,1.4-.2,2,0,.1-.4.2-.4,0-.1-1.1-.6-1.2-1.6-1.2h-.6c-.3,0-.4,0-.4.4v4.7c0,1.2,0,1.3.8,1.4h.5c.1.1.1.4,0,.5-.7,0-1.3,0-1.9,0s-1.2,0-1.9,0c-.1,0-.2-.3,0-.4h.5c.7-.1.8-.2.8-1.4v-4.7h0Z"/>
          <path class="cls-1" d="M111,13c-.4,0-.4,0-.6.4l-.4,1.1c-.2.5-.1.6.2.7h.5c.1.2.1.5,0,.5-.4,0-.9,0-1.4,0s-.9,0-1.2,0c-.2,0-.2-.3,0-.4h.4c.5-.2.7-.4,1.1-1.2l1.6-3.9c.3-.7.4-1.1.4-1.4.3-.1.6-.4.7-.6.1,0,.2,0,.3,0,0,.2.3,1.1.7,2.1l1.5,4.1c.2.6.4.8,1,.9h.3c.2.1.1.4,0,.5-.4,0-.8,0-1.4,0s-1.1,0-1.5,0c-.2,0-.2-.4,0-.4h.3c.4-.1.4-.2.2-.8l-.4-1.1c-.1-.4-.2-.4-.6-.4h-1.6ZM112.3,12.5c.4,0,.5,0,.3-.5l-.5-1.5c-.1-.4-.2-.5-.3-.6h0c0,0-.1.2-.3.6l-.6,1.5c-.2.5-.2.5.2.5h1.2Z"/>
          <path class="cls-1" d="M118.6,10c0-1.2,0-1.2-.7-1.4h-.2c-.1-.1-.1-.4,0-.5.2,0,.5,0,.7,0,.3,0,.5,0,.8,0h2.4c.8,0,1.4,0,1.6,0,0,.2,0,1,0,1.7,0,.2-.3.2-.4,0-.1-.4-.2-.7-.3-.8-.3-.4-1-.4-1.5-.4h-.7c-.5,0-.6,0-.6.6v2c0,.3,0,.3.3.3h.9c.9,0,1-.1,1.1-.6v-.3c.2-.1.4-.1.5,0,0,.5,0,.8,0,1.2s0,.7,0,1.2c0,.1-.3.2-.4,0v-.3c-.2-.5-.3-.6-1.2-.6h-.9c-.3,0-.3,0-.3.4v1.3c0,1.2,0,1.3.8,1.4h.5c.1.1.1.4,0,.5-.9,0-1.4,0-1.9,0s-1.1,0-1.7,0c-.1,0-.2-.3,0-.4h.3c.7-.2.8-.2.8-1.4v-3.8h0Z"/>
          <path class="cls-1" d="M126.6,10c0-1.2,0-1.2-.7-1.4h-.2c-.1-.1-.1-.4,0-.5.2,0,.5,0,.7,0,.3,0,.5,0,.8,0h2.4c.8,0,1.4,0,1.6,0,0,.2,0,1,0,1.7,0,.2-.3.2-.4,0-.1-.4-.2-.7-.3-.8-.3-.4-1-.4-1.5-.4h-.7c-.5,0-.6,0-.6.6v2c0,.3,0,.3.3.3h.9c.9,0,1-.1,1.1-.6v-.3c.2-.1.4-.1.5,0,0,.5,0,.8,0,1.2s0,.7,0,1.2c0,.1-.3.2-.4,0v-.3c-.2-.5-.3-.6-1.2-.6h-.9c-.3,0-.3,0-.3.4v1.3c0,1.2,0,1.3.8,1.4h.5c.1.1.1.4,0,.5-.9,0-1.4,0-2,0s-1.1,0-1.7,0c-.1,0-.2-.3,0-.4h.3c.7-.2.8-.2.8-1.4,0,0,0-3.8,0-3.8Z"/>
        </g>
        <path class="cls-1" d="M15.9,5c0-2.6,1.8-4.6,1.8-4.6.2-.2.1-.4-.2-.4H.5C.2,0,0,.2,0,.5v5c0,.3.2.5.5.5h14.9c.3,0,.5-.2.5-.5,0,0,0-.1,0-.5ZM16.4,7.4c-.2-.3-.5-.5-.8-.5H.5c-.3,0-.5.2-.5.5v5c0,.3.2.5.5.5h17.9c.3,0,.4-.2.2-.5l-2.3-5.2ZM19.3,14.5c0-.3-.3-.5-.6-.5H.5c-.3,0-.5.2-.5.5v5c0,.3.2.5.5.5h16.3c.3,0,.7-.2.9-.4,0,0,1.4-1.9,1.5-4.2,0-.5,0-.9,0-.9Z"/>
      </g>
    </g>
  </g>
</svg>