<?xml version="1.0" encoding="utf-8"?>
<!-- Generator: Adobe Illustrator 26.3.1, SVG Export Plug-In . SVG Version: 6.00 Build 0)  -->
<svg version="1.1" id="Layer_1" xmlns="http://www.w3.org/2000/svg" xmlns:xlink="http://www.w3.org/1999/xlink" x="0px" y="0px"
	 viewBox="0 0 512 512" style="enable-background:new 0 0 512 512;" xml:space="preserve">
<style type="text/css">
	.st0{fill:#FFFFFF;}
</style>
<g>
	<path class="st0" d="M456.8,32.1h-41.2V15c0-8.3-6.7-15-15-15s-15,6.7-15,15v17.1h-66.4V15c0-8.3-6.7-15-15-15s-15,6.7-15,15v17.1
		h-66.4V15c0-8.3-6.7-15-15-15s-15,6.7-15,15v17.1h-66.4V15c0-8.3-6.7-15-15-15s-15,6.7-15,15v17.1H55.2C24.7,32.1,0,56.9,0,87.3
		v369.5C0,487.3,24.7,512,55.2,512h401.7c30.4,0,55.2-24.7,55.2-55.2V87.3C512,56.9,487.3,32.1,456.8,32.1L456.8,32.1z M55.2,62.1
		h41.2v17.1c0,8.3,6.7,15,15,15s15-6.7,15-15V62.1h66.4v17.1c0,8.3,6.7,15,15,15s15-6.7,15-15V62.1h66.4v17.1c0,8.3,6.7,15,15,15
		s15-6.7,15-15V62.1h66.4v17.1c0,8.3,6.7,15,15,15s15-6.7,15-15V62.1h41.2c13.9,0,25.2,11.3,25.2,25.2v41.2H30V87.3
		C30,73.4,41.3,62.1,55.2,62.1L55.2,62.1z M456.8,482H55.2C41.3,482,30,470.7,30,456.8V158.5h452v298.3
		C482,470.7,470.7,482,456.8,482z"/>
	<path class="st0" d="M151.6,208.9H87.3c-8.3,0-15,6.7-15,15v64.3c0,8.3,6.7,15,15,15h64.3c8.3,0,15-6.7,15-15v-64.3
		C166.6,215.6,159.9,208.9,151.6,208.9L151.6,208.9z M136.6,273.1h-34.3v-34.3h34.3V273.1z"/>
	<path class="st0" d="M424.7,208.9h-64.3c-8.3,0-15,6.7-15,15v64.3c0,8.3,6.7,15,15,15h64.3c8.3,0,15-6.7,15-15v-64.3
		C439.7,215.6,433,208.9,424.7,208.9z M409.7,273.1h-34.3v-34.3h34.3V273.1z"/>
	<path class="st0" d="M151.6,337.4H87.3c-8.3,0-15,6.7-15,15v64.3c0,8.3,6.7,15,15,15h64.3c8.3,0,15-6.7,15-15v-64.3
		C166.6,344.1,159.9,337.4,151.6,337.4L151.6,337.4z M136.6,401.7h-34.3v-34.3h34.3V401.7z"/>
	<path class="st0" d="M424.7,337.4h-64.3c-8.3,0-15,6.7-15,15v64.3c0,8.3,6.7,15,15,15h64.3c8.3,0,15-6.7,15-15v-64.3
		C439.7,344.1,433,337.4,424.7,337.4z M409.7,401.7h-34.3v-34.3h34.3V401.7z"/>
	<path class="st0" d="M288.1,337.4h-64.3c-8.3,0-15,6.7-15,15v64.3c0,8.3,6.7,15,15,15h64.3c8.3,0,15-6.7,15-15v-64.3
		C303.1,344.1,296.4,337.4,288.1,337.4z M273.1,401.7h-34.3v-34.3h34.3V401.7z"/>
	<path class="st0" d="M279.5,222.7l-34.8,34.8l-12.1-12.1c-5.9-5.9-15.4-5.9-21.2,0s-5.9,15.4,0,21.2l22.7,22.7
		c2.8,2.8,6.6,4.4,10.6,4.4c4,0,7.8-1.6,10.6-4.4l45.4-45.4c5.9-5.9,5.9-15.4,0-21.2C294.8,216.8,285.3,216.8,279.5,222.7
		L279.5,222.7z"/>
</g>
</svg>
