<?xml version="1.0" encoding="UTF-8"?>
<svg id="object" xmlns="http://www.w3.org/2000/svg" version="1.1" viewBox="0 0 512 512">
  <defs>
    <style>
      .cls-1 {
        fill: #fff;
        stroke-width: 0px;
      }
    </style>
  </defs>
  <path class="cls-1" d="M470.4,420.1H135.3c-4.1,0-5.9-5.4-2.7-7.9l46.7-35.9h266.6c19,0,34.7-15.6,35-34.5l3-153.7c.3-17.5-12.5-32.7-29.9-35.3-8.4-1.2-16.2,4.5-17.4,12.9s4.5,16.1,12.9,17.4c2.2.3,3.8,2.2,3.7,4.4l-3,153.8c0,2.4-2,4.5-4.4,4.5H186.2l-48.4-209.1,24.5,3.6c8.4,1.2,16.2-4.6,17.4-12.9,1.3-8.4-4.5-16.2-12.9-17.4l-36.8-5.5-14.1-54.6c-1.7-6.8-7.8-11.4-14.8-11.4h-59.7c-8.5,0-15.3,6.9-15.3,15.3s6.9,15.3,15.3,15.3h47.8l67.5,285.6-43,33.1c-25.9,20-11.4,63,21.4,63h40.2c-1.8,4.4-2.8,10-2.8,15.4,0,25.3,20.8,45.9,46.3,45.9s46.3-20.5,46.3-45.8-1-11.1-2.8-15.5h83.7c-1.8,4.4-2.8,10-2.8,15.4,0,25.3,20.8,45.9,46.3,45.9s46.3-20.5,46.3-45.8-1-11.1-2.8-15.5h37.2c8.5,0,15.3-6.9,15.3-15.3s-6.9-15.3-15.3-15.3h0ZM219,481.3c-8.6,0-15.6-6.9-15.6-15.3s7-15.3,15.6-15.3,15.6,6.9,15.6,15.3-7,15.3-15.6,15.3ZM389.7,481.3c-8.6,0-15.6-6.9-15.6-15.3s7-15.3,15.6-15.3,15.6,6.9,15.6,15.3-7,15.3-15.6,15.3Z"/>
  <g>
    <path class="cls-1" d="M306.6,222c-61.4,0-111.3-49.8-111.3-111S245.2,0,306.6,0s111.3,49.8,111.3,111-49.9,111-111.3,111h0ZM306.6,30.6c-44.5,0-80.7,36.1-80.7,80.4s36.2,80.4,80.7,80.4,80.7-36.1,80.7-80.4-36.2-80.4-80.7-80.4Z"/>
    <path class="cls-1" d="M279.4,150l-24.6-29.2c-5.5-6.5-4.6-16.1,1.9-21.6,6.5-5.4,16.1-4.6,21.6,1.9l13.5,16.1,42.1-44.7c5.8-6.2,15.5-6.5,21.7-.7,6.2,5.8,6.5,15.5.7,21.6l-53.9,57.2c-4.8,5.1-17.1,6.1-22.9-.6h0Z"/>
  </g>
</svg>