<?xml version="1.0" encoding="UTF-8"?>
<svg xmlns="http://www.w3.org/2000/svg" version="1.1" viewBox="0 0 512 512">
  <defs>
    <style>
      .cls-1 {
        fill: #d10b17;
      }
    </style>
  </defs>
  <!-- Generator: Adobe Illustrator 28.6.0, SVG Export Plug-In . SVG Version: 1.2.0 Build 709)  -->
  <g>
    <g id="Capa_1">
      <path class="cls-1" d="M510.2,401.8l-29.7-86.5c14.3-29.3,21.9-61.9,22-94.7.1-57-22-110.9-62.1-151.8C400.1,28,346.6,4.9,289.6,4c-59.1-.9-114.6,21.6-156.4,63.4-40.3,40.3-62.6,93.4-63.3,150.1-39.7,29.9-63.1,76.5-63,126.2,0,23.3,5.3,46.4,15.2,67.4L1.6,470.7c-3.5,10.2-.9,21.4,6.7,29,5.4,5.4,12.5,8.3,19.8,8.3s6.2-.5,9.2-1.6l59.6-20.4c20.9,9.9,44.1,15.2,67.4,15.2h.2c50.5,0,97.5-24,127.2-64.7,31-.8,61.6-8.3,89.4-21.9l86.5,29.7c3.6,1.2,7.3,1.8,11,1.8,8.7,0,17.1-3.4,23.5-9.8,9.2-9.1,12.2-22.3,8.1-34.5ZM164.5,470.7h-.2c-20.6,0-41.1-5.1-59.2-14.7-3.7-2-8.1-2.3-12.1-.9l-61.1,21,21-61.1c1.4-4,1-8.4-.9-12.1-9.6-18.1-14.7-38.6-14.7-59.2,0-33.2,12.8-64.6,35.4-88.1,7.4,44.9,28.8,86.3,62,118.9,32.9,32.4,74.3,52.9,119,59.7-23.6,23.2-55.4,36.5-89.2,36.5ZM480.6,414.8c-.9.9-1.9,1.1-3.1.7l-92.6-31.8c-1.6-.6-3.3-.8-5-.8-2.5,0-4.9.6-7.1,1.8-26.5,14-56.3,21.4-86.4,21.5h-.3c-100.9,0-184.2-81.9-185.8-182.8-.8-50.8,18.5-98.5,54.4-134.4s83.6-55.2,134.4-54.4c100.9,1.6,182.9,85.1,182.8,186.1,0,30.1-7.5,60-21.5,86.4-2,3.7-2.3,8.1-.9,12.1l31.8,92.6c.4,1.1.2,2.1-.7,3Z"/>
      <path class="cls-1" d="M376.9,139.5h-181.6c-8.4,0-15.2,6.8-15.2,15.2s6.8,15.2,15.2,15.2h181.6c8.4,0,15.2-6.8,15.2-15.2,0-8.4-6.8-15.2-15.2-15.2Z"/>
      <path class="cls-1" d="M376.9,202.2h-181.6c-8.4,0-15.2,6.8-15.2,15.2s6.8,15.2,15.2,15.2h181.6c8.4,0,15.2-6.8,15.2-15.2s-6.8-15.2-15.2-15.2Z"/>
      <path class="cls-1" d="M307,264.9h-111.7c-8.4,0-15.2,6.8-15.2,15.2s6.8,15.2,15.2,15.2h111.7c8.4,0,15.2-6.8,15.2-15.2s-6.8-15.2-15.2-15.2Z"/>
    </g>
  </g>
</svg>