<?xml version="1.0" encoding="UTF-8"?>
<svg id="Capa_1" data-name="Capa 1" xmlns="http://www.w3.org/2000/svg" version="1.1" viewBox="0 0 512 512">
  <defs>
    <style>
      .cls-1 {
        fill: #fff;
        stroke-width: 0px;
      }
    </style>
  </defs>
  <path class="cls-1" d="M59.2,429.7c-8.3,0-15.1-6.7-15.1-15.1v-234.9c0-8.3,6.7-15.1,15.1-15.1h40.2c8.3,0,15.1,6.7,15.1,15.1s-6.7,15.1-15.1,15.1h-25.1v219.9c0,8.3-6.7,15.1-15.1,15.1Z"/>
  <path class="cls-1" d="M452.8,429.7c-8.3,0-15.1-6.7-15.1-15.1v-219.9h-97.4c-8.3,0-15.1-6.7-15.1-15.1s6.7-15.1,15.1-15.1h112.4c8.3,0,15.1,6.7,15.1,15.1v234.9c0,8.3-6.7,15.1-15.1,15.1Z"/>
  <path class="cls-1" d="M452.8,508H59.2c-30.4,0-55.2-24.8-55.2-55.2v-38.2c0-8.3,6.7-15.1,15.1-15.1h473.9c8.3,0,15.1,6.7,15.1,15.1v38.2c0,30.4-24.8,55.2-55.2,55.2ZM34.1,429.7v23.1c0,13.8,11.3,25.1,25.1,25.1h393.6c13.8,0,25.1-11.3,25.1-25.1v-23.1H34.1Z"/>
  <path class="cls-1" d="M219.9,234.9c-30.4,0-55.2-24.8-55.2-55.2s24.8-55.2,55.2-55.2,55.2,24.8,55.2,55.2-24.8,55.2-55.2,55.2ZM219.9,154.6c-13.8,0-25.1,11.3-25.1,25.1s11.3,25.1,25.1,25.1,25.1-11.3,25.1-25.1-11.3-25.1-25.1-25.1Z"/>
  <path class="cls-1" d="M300.2,355.4c-8.3,0-15.1-6.7-15.1-15.1,0-36-29.3-65.3-65.3-65.3s-65.3,29.3-65.3,65.3-6.7,15.1-15.1,15.1-15.1-6.7-15.1-15.1c0-52.6,42.8-95.4,95.4-95.4s95.4,42.8,95.4,95.4-6.7,15.1-15.1,15.1Z"/>
  <path class="cls-1" d="M452.8,114.4h-72.3c-30.4,0-55.2-24.8-55.2-55.2s24.8-55.2,55.2-55.2h72.3c30.4,0,55.2,24.8,55.2,55.2s-24.8,55.2-55.2,55.2ZM380.5,34.1c-13.8,0-25.1,11.3-25.1,25.1s11.3,25.1,25.1,25.1h72.3c13.8,0,25.1-11.3,25.1-25.1s-11.3-25.1-25.1-25.1h-72.3Z"/>
  <path class="cls-1" d="M320.3,134.5c-3.9,0-7.7-1.5-10.6-4.4-5.9-5.9-5.9-15.4,0-21.3l31.8-31.8c5.9-5.9,15.4-5.9,21.3,0,5.9,5.9,5.9,15.4,0,21.3l-31.8,31.8c-2.9,2.9-6.8,4.4-10.6,4.4Z"/>
</svg>