<?xml version="1.0" encoding="UTF-8"?>
<svg id="Layer_1" data-name="Layer 1" xmlns="http://www.w3.org/2000/svg" version="1.1" viewBox="0 0 512 512">
  <defs>
    <style>
      .cls-1 {
        fill: #005bac;
        stroke-width: 0px;
      }
    </style>
  </defs>
  <path class="cls-1" d="M357.4,126.7c-62.4-56.2-158.5-51.1-214.7,11.2-56.2,62.3-51.2,158.5,11.2,214.7,7.9,7.1,16.5,13.4,25.7,18.7,2.7,1.4,4.4,4.1,4.4,7.1v13.6c.1,11.1,4.7,21.7,12.9,29.2-3.1,5.8-4.8,12.2-4.9,18.8v16c0,22.1,17.9,40,40,40h8c0,8.8,7.2,16,16,16s16-7.2,16-16h8c22.1,0,40-17.9,40-40v-16c-.1-6.6-1.7-13-4.9-18.8,8.2-7.5,12.8-18.1,12.9-29.2v-13.6c0-3,1.7-5.7,4.3-7,72.6-42.2,97.2-135.2,55-207.8-7.9-13.8-18.1-26.2-29.9-36.9h0ZM288,456c0,4.4-3.6,8-8,8h-48c-4.4,0-8-3.6-8-8v-16c0-4.4,3.6-8,8-8h48c4.4,0,8,3.6,8,8v16ZM316.2,344c-12.3,7.1-20,20.2-20.2,34.4v13.6c0,4.4-3.6,8-8,8h-64c-4.4,0-8-3.6-8-8v-13.6c-.2-14.2-7.9-27.3-20.2-34.4-57.4-33.1-77.2-106.4-44.1-163.9,21.5-37.3,61.3-60.3,104.4-60.1,66.3,0,120.1,53.5,120.2,119.8.1,43-22.9,82.8-60.1,104.2h0Z"/>
  <path class="cls-1" d="M326.6,261.6c-7.7-4.4-17.4-1.7-21.8,6s-1.7,17.4,6,21.8,17.4,1.7,21.8-6h0c4.4-7.7,1.7-17.4-6-21.8Z"/>
  <path class="cls-1" d="M245.8,152.6c-8.8,1-15.2,8.9-14.2,17.8,1,8.8,8.9,15.2,17.8,14.2,25.2-3.1,49.3,11.2,58.7,34.7,3.5,8.1,13,11.8,21.1,8.2,7.7-3.4,11.5-12.2,8.6-20.1-14.9-37-52.5-59.4-92-54.8Z"/>
  <path class="cls-1" d="M256,56c8.8,0,16-7.2,16-16v-24c0-8.8-7.2-16-16-16s-16,7.2-16,16v24c0,8.8,7.2,16,16,16Z"/>
  <path class="cls-1" d="M403,70.3l-17,17c-6.2,6.3-6.2,16.4.1,22.6,3,3,7.1,4.7,11.3,4.7s8.3-1.7,11.3-4.6l17-17c6.3-6.3,6.3-16.4,0-22.6s-16.4-6.3-22.7,0h0Z"/>
  <path class="cls-1" d="M480,224h-24c-8.8,0-16,7.2-16,16s7.2,16,16,16h24c8.8,0,16-7.2,16-16s-7.2-16-16-16Z"/>
  <path class="cls-1" d="M408.7,370.1c-6.3-6.3-16.4-6.3-22.6,0s-6.3,16.4,0,22.6l17,17c3,3,7.1,4.7,11.4,4.7,8.8,0,16-7.2,16-16s-1.7-8.4-4.7-11.4l-17.1-16.9Z"/>
  <path class="cls-1" d="M103.3,370.1l-17,17c-6.3,6.3-6.3,16.4,0,22.6s16.4,6.3,22.6,0l17-17c6.3-6.3,6.3-16.4,0-22.6-6.2-6.3-16.4-6.3-22.6,0h0Z"/>
  <path class="cls-1" d="M56,224h-24c-8.8,0-16,7.2-16,16s7.2,16,16,16h24c8.8,0,16-7.2,16-16s-7.2-16-16-16Z"/>
  <path class="cls-1" d="M103.3,109.9c3,3,7.1,4.6,11.3,4.6,8.8,0,16-7.2,16-16s-1.7-8.3-4.7-11.3l-17-17c-6.3-6.3-16.4-6.3-22.6,0-6.2,6.3-6.3,16.4,0,22.6l17,17.1Z"/>
</svg>