<?xml version="1.0" encoding="utf-8"?>
<!-- Generator: Adobe Illustrator 26.3.1, SVG Export Plug-In . SVG Version: 6.00 Build 0)  -->
<svg version="1.1" id="Layer_1" xmlns="http://www.w3.org/2000/svg" xmlns:xlink="http://www.w3.org/1999/xlink" x="0px" y="0px"
	 viewBox="0 0 512 512" style="enable-background:new 0 0 512 512;" xml:space="preserve">
<style type="text/css">
	.st0{fill:#FFFFFF;}
</style>
<path class="st0" d="M357.4,126.7C295,70.5,198.9,75.6,142.7,137.9s-51.2,158.5,11.2,214.7c7.9,7.1,16.5,13.4,25.7,18.7
	c2.7,1.4,4.4,4.1,4.4,7.1V392c0.1,11.1,4.7,21.7,12.9,29.2c-3.1,5.8-4.8,12.2-4.9,18.8v16c0,22.1,17.9,40,40,40h8
	c0,8.8,7.2,16,16,16c8.8,0,16-7.2,16-16h8c22.1,0,40-17.9,40-40v-16c-0.1-6.6-1.7-13-4.9-18.8c8.2-7.5,12.8-18.1,12.9-29.2v-13.6
	c0-3,1.7-5.7,4.3-7c72.6-42.2,97.2-135.2,55-207.8C379.4,149.8,369.2,137.4,357.4,126.7L357.4,126.7z M288,456c0,4.4-3.6,8-8,8h-48
	c-4.4,0-8-3.6-8-8v-16c0-4.4,3.6-8,8-8h48c4.4,0,8,3.6,8,8V456z M316.2,344c-12.3,7.1-20,20.2-20.2,34.4V392c0,4.4-3.6,8-8,8h-64
	c-4.4,0-8-3.6-8-8v-13.6c-0.2-14.2-7.9-27.3-20.2-34.4c-57.4-33.1-77.2-106.4-44.1-163.9c21.5-37.3,61.3-60.3,104.4-60.1
	c66.3-0.1,120.1,53.5,120.2,119.8c0.1,43-22.9,82.8-60.1,104.2H316.2z"/>
<path class="st0" d="M326.6,261.6c-7.7-4.4-17.4-1.7-21.8,6s-1.7,17.4,6,21.8s17.4,1.7,21.8-6c0,0,0,0,0-0.1
	C337,275.7,334.3,266,326.6,261.6z"/>
<path class="st0" d="M245.8,152.6c-8.8,1-15.2,8.9-14.2,17.8c1,8.8,8.9,15.2,17.8,14.2c25.2-3.1,49.3,11.2,58.7,34.7
	c3.5,8.1,13,11.8,21.1,8.2c7.7-3.4,11.5-12.2,8.6-20.1C322.9,170.4,285.3,148,245.8,152.6z"/>
<path class="st0" d="M256,56c8.8,0,16-7.2,16-16V16c0-8.8-7.2-16-16-16c-8.8,0-16,7.2-16,16v24C240,48.8,247.2,56,256,56z"/>
<path class="st0" d="M403,70.3l-17,17c-6.2,6.3-6.2,16.4,0.1,22.6c3,3,7.1,4.7,11.3,4.7c4.2,0,8.3-1.7,11.3-4.6l17-17
	c6.3-6.3,6.3-16.4,0-22.6S409.3,64.1,403,70.3L403,70.3z"/>
<path class="st0" d="M480,224h-24c-8.8,0-16,7.2-16,16s7.2,16,16,16h24c8.8,0,16-7.2,16-16S488.8,224,480,224z"/>
<path class="st0" d="M408.7,370.1c-6.3-6.3-16.4-6.3-22.6,0s-6.3,16.4,0,22.6l17,17c3,3,7.1,4.7,11.4,4.7c8.8,0,16-7.2,16-16
	c0-4.3-1.7-8.4-4.7-11.4L408.7,370.1z"/>
<path class="st0" d="M103.3,370.1l-17,17c-6.3,6.3-6.3,16.4,0,22.6s16.4,6.3,22.6,0l17-17c6.3-6.3,6.3-16.4,0-22.6
	C119.7,363.8,109.5,363.8,103.3,370.1L103.3,370.1L103.3,370.1z"/>
<path class="st0" d="M56,224H32c-8.8,0-16,7.2-16,16s7.2,16,16,16h24c8.8,0,16-7.2,16-16S64.8,224,56,224z"/>
<path class="st0" d="M103.3,109.9c3,3,7.1,4.6,11.3,4.6c8.8,0,16-7.2,16-16c0-4.2-1.7-8.3-4.7-11.3l-17-17c-6.3-6.3-16.4-6.3-22.6,0
	s-6.3,16.4,0,22.6L103.3,109.9z"/>
</svg>
