<?xml version="1.0" encoding="UTF-8"?>
<svg xmlns="http://www.w3.org/2000/svg" version="1.1" xmlns:xlink="http://www.w3.org/1999/xlink" viewBox="0 0 471.7 391.3">
  <defs>
    <style>
      .cls-1 {
        fill: #0d4ab5;
      }

      .cls-2 {
        fill: url(#_裼隯澵_胙琅韃炅_25);
      }

      .cls-3 {
        fill: #000a3d;
      }

      .cls-4 {
        fill: url(#_裼隯澵_胙琅韃炅_7-6);
      }

      .cls-5 {
        fill: url(#_裼隯澵_胙琅韃炅_13);
      }

      .cls-6 {
        fill: url(#_裼隯澵_胙琅韃炅_13-4);
      }

      .cls-7 {
        fill: url(#_裼隯澵_胙琅韃炅_7);
      }

      .cls-8 {
        fill: url(#_裼隯澵_胙琅韃炅_7-4);
      }

      .cls-9 {
        fill: none;
      }

      .cls-10 {
        clip-path: url(#clippath-1);
      }

      .cls-11 {
        fill: url(#_裼隯澵_胙琅韃炅_13-3);
      }

      .cls-12 {
        fill: url(#_裼隯澵_胙琅韃炅_13-2);
      }

      .cls-13 {
        fill: url(#_裼隯澵_胙琅韃炅_7-9);
      }

      .cls-14 {
        fill: url(#_裼隯澵_胙琅韃炅_25-4);
      }

      .cls-15 {
        fill: #bed5e8;
      }

      .cls-16 {
        fill: url(#_裼隯澵_胙琅韃炅_7-7);
      }

      .cls-17 {
        fill: url(#_裼隯澵_胙琅韃炅_7-8);
      }

      .cls-18 {
        fill: url(#_裼隯澵_胙琅韃炅_7-10);
      }

      .cls-19 {
        fill: url(#_裼隯澵_胙琅韃炅_18-2);
      }

      .cls-20 {
        fill: url(#_裼隯澵_胙琅韃炅_25-3);
      }

      .cls-21 {
        fill: url(#_裼隯澵_胙琅韃炅_18-3);
      }

      .cls-22 {
        fill: #eaf4fe;
      }

      .cls-23 {
        fill: url(#_裼隯澵_胙琅韃炅_7-3);
      }

      .cls-24 {
        fill: url(#_裼隯澵_胙琅韃炅_7-2);
      }

      .cls-25 {
        fill: #ffd2d4;
      }

      .cls-26 {
        fill: url(#_裼隯澵_胙琅韃炅_25-2);
      }

      .cls-27 {
        fill: url(#_裼隯澵_胙琅韃炅_7-5);
      }

      .cls-28 {
        fill: url(#_裼隯澵_胙琅韃炅_18);
      }
    </style>
    <linearGradient id="_裼隯澵_胙琅韃炅_13" data-name="ﾁ裼隯澵隆 胙琅韃炅 13" x1="405.9" y1="199" x2="275" y2="154.5" gradientUnits="userSpaceOnUse">
      <stop offset="0" stop-color="#d1e7ff"/>
      <stop offset="1" stop-color="#a5cdfe"/>
    </linearGradient>
    <linearGradient id="_裼隯澵_胙琅韃炅_25" data-name="ﾁ裼隯澵隆 胙琅韃炅 25" x1="331.8" y1="359.5" x2="320.5" y2="208" gradientUnits="userSpaceOnUse">
      <stop offset="0" stop-color="#0045ad"/>
      <stop offset="1" stop-color="#010630"/>
    </linearGradient>
    <linearGradient id="_裼隯澵_胙琅韃炅_25-2" data-name="ﾁ裼隯澵隆 胙琅韃炅 25" x1="372.5" y1="356.5" x2="361.1" y2="205" xlink:href="#_裼隯澵_胙琅韃炅_25"/>
    <linearGradient id="_裼隯澵_胙琅韃炅_18" data-name="ﾁ裼隯澵隆 胙琅韃炅 18" x1="329.7" y1="134.7" x2="344.6" y2="134.7" gradientUnits="userSpaceOnUse">
      <stop offset="0" stop-color="#a3cdff"/>
      <stop offset="1" stop-color="#5f9be1"/>
    </linearGradient>
    <linearGradient id="_裼隯澵_胙琅韃炅_25-3" data-name="ﾁ裼隯澵隆 胙琅韃炅 25" x1="326.4" y1="112.2" x2="349.6" y2="112.2" xlink:href="#_裼隯澵_胙琅韃炅_25"/>
    <linearGradient id="_裼隯澵_胙琅韃炅_7" data-name="ﾁ裼隯澵隆 胙琅韃炅 7" x1="332.4" y1="136.4" x2="338" y2="136.4" gradientUnits="userSpaceOnUse">
      <stop offset="0" stop-color="#ffa401"/>
      <stop offset="1" stop-color="#ff5001"/>
    </linearGradient>
    <linearGradient id="_裼隯澵_胙琅韃炅_13-2" data-name="ﾁ裼隯澵隆 胙琅韃炅 13" x1="405.8" y1="199.3" x2="274.9" y2="154.8" xlink:href="#_裼隯澵_胙琅韃炅_13"/>
    <linearGradient id="_裼隯澵_胙琅韃炅_7-2" data-name="ﾁ裼隯澵隆 胙琅韃炅 7" x1="328.6" y1="156.2" x2="336.7" y2="156.2" xlink:href="#_裼隯澵_胙琅韃炅_7"/>
    <linearGradient id="_裼隯澵_胙琅韃炅_25-4" data-name="ﾁ裼隯澵隆 胙琅韃炅 25" x1="329.7" y1="122.8" x2="347.3" y2="122.8" xlink:href="#_裼隯澵_胙琅韃炅_25"/>
    <linearGradient id="_裼隯澵_胙琅韃炅_18-2" data-name="ﾁ裼隯澵隆 胙琅韃炅 18" x1="310.3" y1="164.9" x2="322.7" y2="164.9" xlink:href="#_裼隯澵_胙琅韃炅_18"/>
    <linearGradient id="_裼隯澵_胙琅韃炅_13-3" data-name="ﾁ裼隯澵隆 胙琅韃炅 13" x1="404.1" y1="204.4" x2="273.2" y2="159.9" xlink:href="#_裼隯澵_胙琅韃炅_13"/>
    <linearGradient id="_裼隯澵_胙琅韃炅_18-3" data-name="ﾁ裼隯澵隆 胙琅韃炅 18" x1="357" y1="185" x2="376.7" y2="185" xlink:href="#_裼隯澵_胙琅韃炅_18"/>
    <linearGradient id="_裼隯澵_胙琅韃炅_13-4" data-name="ﾁ裼隯澵隆 胙琅韃炅 13" x1="408.5" y1="191.4" x2="277.6" y2="147" xlink:href="#_裼隯澵_胙琅韃炅_13"/>
    <linearGradient id="_裼隯澵_胙琅韃炅_7-3" data-name="ﾁ裼隯澵隆 胙琅韃炅 7" x1="131.6" y1="125.3" x2="238.1" y2="125.3" xlink:href="#_裼隯澵_胙琅韃炅_7"/>
    <linearGradient id="_裼隯澵_胙琅韃炅_7-4" data-name="ﾁ裼隯澵隆 胙琅韃炅 7" x1="181.6" y1="28.3" x2="189.4" y2="28.3" xlink:href="#_裼隯澵_胙琅韃炅_7"/>
    <linearGradient id="_裼隯澵_胙琅韃炅_7-5" data-name="ﾁ裼隯澵隆 胙琅韃炅 7" x1="134.1" y1="36.6" x2="153.1" y2="36.6" xlink:href="#_裼隯澵_胙琅韃炅_7"/>
    <linearGradient id="_裼隯澵_胙琅韃炅_7-6" data-name="ﾁ裼隯澵隆 胙琅韃炅 7" x1="101.2" y1="69.3" x2="128.7" y2="69.3" xlink:href="#_裼隯澵_胙琅韃炅_7"/>
    <linearGradient id="_裼隯澵_胙琅韃炅_7-7" data-name="ﾁ裼隯澵隆 胙琅韃炅 7" x1="94.3" y1="118.9" x2="120" y2="118.9" xlink:href="#_裼隯澵_胙琅韃炅_7"/>
    <linearGradient id="_裼隯澵_胙琅韃炅_7-8" data-name="ﾁ裼隯澵隆 胙琅韃炅 7" x1="220.2" y1="37.3" x2="239.6" y2="37.3" xlink:href="#_裼隯澵_胙琅韃炅_7"/>
    <linearGradient id="_裼隯澵_胙琅韃炅_7-9" data-name="ﾁ裼隯澵隆 胙琅韃炅 7" x1="244.2" y1="70.4" x2="271.8" y2="70.4" xlink:href="#_裼隯澵_胙琅韃炅_7"/>
    <linearGradient id="_裼隯澵_胙琅韃炅_7-10" data-name="ﾁ裼隯澵隆 胙琅韃炅 7" x1="252.3" y1="120.1" x2="277.9" y2="120.1" xlink:href="#_裼隯澵_胙琅韃炅_7"/>
    <clipPath id="clippath-1">
      <rect class="cls-9" x="77.3" y="298.2" width="234.3" height="75.4"/>
    </clipPath>
  </defs>
  <!-- Generator: Adobe Illustrator 28.7.1, SVG Export Plug-In . SVG Version: 1.2.0 Build 142)  -->
  <g>
    <g id="_レイヤー_1" data-name="レイヤー_1">
      <g>
        <g>
          <g>
            <path class="cls-22" d="M113.6,335.4c67.6,64.8,199.9,34.5,267.6,0,67.7-34.5,17.8-117.2,35.7-187.5,15.2-59.7-44.1-112.5-101.3-110.1-1,0-2,0-3,.2-9.1.7-18.2,2.8-26.8,6.5-63.6,27.6-68.7,44.9-128,42.7-153.1-5.5-111.7,183.4-44.1,248.2Z"/>
            <path class="cls-22" d="M113.6,335.4c67.6,64.8,199.9,34.5,267.6,0,67.7-34.5,17.8-117.2,35.7-187.5,15.2-59.7-44.1-112.5-101.3-110.1-1,0-2,0-3,.2-9.1.7-18.2,2.8-26.8,6.5-63.6,27.6-68.7,44.9-128,42.7-153.1-5.5-111.7,183.4-44.1,248.2Z"/>
            <path class="cls-22" d="M161.1,61.7c-.4,2.9,1.5,5.7,4.4,6.4,11.7,2.7,45.6,7.1,74-22.8,33.1-35-74.2-16-78.4,16.5Z"/>
          </g>
          <rect class="cls-3" x="75.9" y="373.5" width="316.5" height="2.4"/>
          <g>
            <g>
              <g>
                <path class="cls-15" d="M139.4,270.3h-29.7v-16.3h29.7v16.3ZM111.4,268.6h26.3v-12.9h-26.3v12.9Z"/>
                <path class="cls-15" d="M119,284.9h-29.7v-16.3h29.7v16.3ZM91,283.2h26.3v-12.9h-26.3v12.9Z"/>
              </g>
              <path class="cls-15" d="M212.7,130.4h-29.7v-16.3h29.7v16.3ZM184.7,128.7h26.3v-12.9h-26.3v12.9Z"/>
              <path class="cls-15" d="M367.7,293.8h-29.7v-16.3h29.7v16.3ZM339.7,292.1h26.3v-12.9h-26.3v12.9Z"/>
              <g>
                <path class="cls-15" d="M264.9,310.1h-29.7v-16.3h29.7v16.3ZM236.9,308.4h26.3v-12.9h-26.3v12.9Z"/>
                <path class="cls-15" d="M236.9,310.1h-29.7v-16.3h29.7v16.3ZM208.8,308.4h26.3v-12.9h-26.3v12.9Z"/>
                <path class="cls-15" d="M250.9,324.7h-29.7v-16.3h29.7v16.3ZM222.9,323h26.3v-12.9h-26.3v12.9Z"/>
              </g>
            </g>
            <g>
              <g>
                <path class="cls-15" d="M308,216.5h-29.7v-16.3h29.7v16.3ZM280,214.8h26.3v-12.9h-26.3v12.9Z"/>
                <path class="cls-15" d="M328.4,231.1h-29.7v-16.3h29.7v16.3ZM300.3,229.4h26.3v-12.9h-26.3v12.9Z"/>
              </g>
              <g>
                <path class="cls-15" d="M357.7,149.5h-29.7v-16.3h29.7v16.3ZM329.6,147.8h26.3v-12.9h-26.3v12.9Z"/>
                <path class="cls-15" d="M329.6,149.5h-29.7v-16.3h29.7v16.3ZM301.6,147.8h26.3v-12.9h-26.3v12.9Z"/>
                <path class="cls-15" d="M343.7,164.1h-29.7v-16.3h29.7v16.3ZM315.6,162.4h26.3v-12.9h-26.3v12.9Z"/>
              </g>
            </g>
          </g>
        </g>
        <g>
          <path class="cls-25" d="M274.2,152c-1-.6-1.9,1-1.1,1.7.3.3.7.6.9,1-.2.2-.3.4-.5.5-1.7-2.5-4.6-4.1-7.4-5.1-1.3-.5-4.5-1.5-5.8-.9-1,.5-.7,1.7.5,1.9,1.5.2,4.3,1.3,5.4,2.2-2.2-.9-2.6,2-1.5,3-.9,0-.8,1.8.7,2.8-.8-.2-1,2.2,1.9,3.4,1.9.9,2.7,1.1,4,.9,1.5-.2,2.5-1.3,3.1-2.6.6.3,1.4.6,1.5.2.4-1.1.2-6.3.2-6.6-.2-1.2-1.1-1.8-2.1-2.4Z"/>
          <path class="cls-25" d="M312.6,354.3c.9-.9,9.7,1,9.8,1.6,0,1.7-.3,8-1.2,8.7-.9.7-9.8,1.5-9.8-.1,0-1.4.3-9.3,1.2-10.2Z"/>
          <path class="cls-3" d="M322.1,362.8s4.1,6,1.1,10.6c0,0-21.6.8-28.1-.3,0,0,0-8,5.5-8.6,5.6-.6,11.2-.3,11.2-.3,0,0,6.2,3,10.4-1.3Z"/>
          <path class="cls-25" d="M384.1,349.8c.2-1.3,8.5-4.9,8.8-4.5,1,1.3,4.5,6.6,4.1,7.8-.3,1.1-8.2,5.4-9.1,4.1-.8-1.1-4.1-6.2-3.8-7.4Z"/>
          <path class="cls-3" d="M396.7,351.2s6.5,3.2,6.2,8.7c0,0-18.4,11.3-24.6,13.6,0,0-4-6.9.6-10.2,4.6-3.3,9.6-5.8,9.6-5.8,0,0,6.9-.5,8.3-6.3Z"/>
          <path class="cls-5" d="M322.7,163.7s.3,2.6-.3,6.4c-1.3,8.9-7,23.8-30.9,25.4-20.5,1.4-23.3-32-23.3-32,1.8-2.1,9.6-3.5,9.6-3.5,2.7,7.1,9.8,16.8,12.8,15.2,3-1.6,20.9-35.8,32-40.9,6.8-3.1.2,29.3.2,29.3Z"/>
          <path class="cls-2" d="M343.3,242.9c-.6,1.5-1.2,3.1-1.8,4.8-4.4,11.3-9.8,24.4-10.3,31.3-1,12.7-7,43.7-6.9,58.7,0,12.3-3.4,20.6-3.1,23.4,0,0-11.2-2.1-11.2-2.1-4.3-17.6-8.7-60.3-8.7-79.6s1.7-51.5,8.8-66.8c6.7-14.5,33.7,11.9,36.8,15.4,1.2,1.4-.7,7.4-3.6,15Z"/>
          <path class="cls-3" d="M343,242.7c-.3-.2-.7-.2-1,0-2.7-3.6-8.6-7.2-11.7-1.9-1.7,3,.2,6.5.4,9.5.4,6.2-3.5,11.8-6,17.2-8.6,19.4-1.6,40.7-4,60.9-1.2,10.6-6.2,20.8-5.4,31.6,2.7,1.2,6.6,2.1,8.6,1,1-4.2,6.2-69.3,7.2-82,.6-6.8,5.9-20,10.3-31.3.6-1.6,1.3-3.3,1.8-4.8-.1,0-.2-.1-.3-.2Z"/>
          <path class="cls-26" d="M338.8,222.5s0,.7,0,1.9c.2,7.8,1.1,38.3,4.5,68.1,2.2,19.2,26.5,50.7,42.7,62.9l8.9-4.8,2-1.1s-9.9-18-14.7-25.4c-12.5-19.3-9.9-30.5-9.9-43.3-.2-26.2,6.7-39.1-.5-58.6-.3-.9-.7-1.8-1.1-2.7-1.4-3.3-3.1-6.7-5.3-10.4-.3-.5-.8-.9-1.5-1.1-.8-.3-1.8-.3-2.9-.2-5,.6-13,4.8-19.9,12.2-.7.8-1.4,1.6-2.1,2.4Z"/>
          <path class="cls-22" d="M306.1,212.4c.3,1,25,8.9,32.7,10.1,8.2,1.3,18.2-.5,25.3-.8,5.4-.3,9.4-1,9.9-2.1,1.1-2.3-1.1-22.7-.7-37.7,0-2.4.1-4.9.1-7.3.1-15.6-.9-30.6-4.4-33.3-.8-.6-1.7-1.2-2.7-1.9-1.5-1-3.2-2.1-5.2-3.1-3-1.6-6.6-3.1-10.6-4.1-6.2-1.6-13.3-2.1-21.2-.3,0,0,0,0,0,0-1.9.4-3.9,1-5.9,1.7-.5.2-.9.3-1.4.5-6.7,2.7-5.7,17.2-4.6,29.4.5,5.7,1,10.8.8,14,0,1.1-.2,2.2-.4,3.2-1.5,9-10.7,25-11.8,31.6Z"/>
          <path class="cls-28" d="M343.6,131h1c0,.1-3.2,7.7-3.2,7.7l-6.1-4.5-5.6,3.4,3.9-6.4s2.5-.7,3.6-.2c1.1.5.5,2.4.5,2.4l5.9-2.4Z"/>
          <path class="cls-25" d="M335.3,124.4v6.5s-1.5,2.8,0,3.1c3.4.7,8.3-3.1,8.3-3.1v-10l-8.3,3.4Z"/>
          <path class="cls-25" d="M331.6,110.5s-1.5,6.7-.9,12.5c.4,4.1,9,7.6,13.6.6,4.6-7,.9-15.2.9-15.2l-13.5,2.1Z"/>
          <path class="cls-20" d="M327.8,110.1c3.5,3.7,10.5,2.8,15.8,1.9,0,.6,0,1.1,0,1.6,0,2-.6,4.5.5,6.4.7,1.2,2.2,1.7,3.4,1,.8-.5,1-1.1,1.1-1.8,1.7-3.7.8-9.9-1.9-12.5-1.7-1.6-3.9-1.8-6.2-1.8-1.9,0-3.4,0-5.1-.7-1.1-.4-1.9-.9-3-1-4.3-.3-8.2,3.1-4.6,7Z"/>
          <polygon class="cls-7" points="335.3 134.1 338 136.1 335.7 138.6 333.3 138.5 332.4 135.9 335.3 134.1"/>
          <path class="cls-12" d="M350.7,132.2s3.7,85.9-3.8,95.7c0,0,22.6-.3,29.7-3.7,0,0-4.9-81.7-10-84.8-5.2-3.1-11.2-6.7-15.8-7.2Z"/>
          <path class="cls-24" d="M333.3,138.5s-6.3,14.7-4.4,30.8l4.4,4.7,3.4-3.9s-3.3-20.9-1-31.4h-2.4Z"/>
          <path class="cls-14" d="M346.4,119.9c0-.1.2-.2.3-.3.9-1-.8-2.3-1.7-1.3-1.1,1.2-2.2,2.1-3.8,2.7-2.1.7-3.1.1-4.5-1.2-.4-.4-1.2-.3-1.5.1-1.3,1.4-4.9-.6-5.4,1.7-.4,1.8,1.7,4.9,3.9,5.5,5.9,1.8,9.7-.7,13.4-5.5.5-.7,0-1.5-.7-1.6Z"/>
          <path class="cls-19" d="M321.5,139.8s-7.8,13.1-8.2,25c-.5,17.9-3.1,25.1-3.1,25.1l9.5-5.1,2.9-21.3-1.1-23.9Z"/>
          <path class="cls-11" d="M327.6,132.4s-4.3,29-3.9,39.4c.3,10.3-10.3,47.8-10.3,47.8l-9-3.6s7.5-26.3,10-33.6c2.5-7.4,0-42,5.4-46.3,5.4-4.3,7.8-3.6,7.8-3.6Z"/>
          <path class="cls-3" d="M365.6,296.1c2.3,10.8,5.5,22.4,10.3,32.4,4.3,8.9,11.7,15.6,18.9,22.2l2-1.1s-9.9-18-14.7-25.4c-12.5-19.3-9.9-30.5-9.9-43.3-.2-26.2,6.7-39.1-.5-58.6-2,.4-3.8,1.1-5.2,1.5-.2,0-.4.2-.5.4-.3.2-.5.5-.3,1,3.7,12.6,2.3,24.4-.1,37.1-2.2,11.5-2.5,22.3,0,33.8Z"/>
          <path class="cls-21" d="M360.9,143.2c-.1.2-5.4,5.7-3.4,15.5,1.7,8.1,5.4,14.5,7.1,22.6,1.6,7.9.9,15.6.2,23.6-.3,3.7-.7,7.4-1,11.1-.2,1.9-.9,9.2,0,10.9,5.4-.3,12.2-1.6,12.7-2.7,1.1-2.3-3.6-27.3-3.1-42.3,0-2.4.1-4.9.1-7.3-.4-.8-.8-1.5-1.2-2.3-3.6-6-4.3-20.2-8.5-25.7-.8-1-3.5-4.5-2.9-3.5Z"/>
          <path class="cls-25" d="M330.3,194.7s0,0,0,0c-.8-1-2.8-3.5-4.1-3.9-.7-.2-1.7,0-1.2.9.3.6.9,1.1,1.4,1.4,0,0,0,0,0,0-2.8-.5-6.1-.2-8.1,1.7-1.3,1.3-.5,2.1,1.1,1.5,3-1.1,5.3-1,.8.4-.9.3-2.6,1.3-2.4,2,.4,1.4,3.6,0,5-.4,1.3.3-1.9,1.8-2.3,2.4-1.6,2.8,4.4,0,4.8.4,1,.9-3.4,2.1-1.4,3,1.5.6,5-2.1,6.3-2.3,1.1-.2,2,.5,2.7-.6,1.3-1.9-1-5-2.7-6.6Z"/>
          <path class="cls-6" d="M399.9,212.4c-9.4,15.1-69.7-10.5-69.7-10.5l1.1-6c.6-.1,46.8,5.9,46.9,1.1,0-2.1-16.8-29.1-19.2-39.3-1.2-5.1-.2-9.6,1.1-13,1.7-4.8,7.3-5.5,11.7-3.1,9.1,4.9,20.1,16.7,26.6,29.5,7.1,14,9.5,28.3,1.4,41.4Z"/>
        </g>
        <g>
          <g>
            <path class="cls-23" d="M131.6,111.6c.2-29.4,24.2-53,53.6-52.9,29.4.2,53.2,24.2,53,53.7,0,13.7-5.4,26.1-13.9,35.5-10.6,11.6-18.3,26.6-18.4,42.3v1.6s-43.1-.3-43.1-.3v-1.4c.1-15.8-7.3-30.9-17.8-42.8-8.4-9.5-13.4-22-13.3-35.7Z"/>
            <path class="cls-3" d="M171,151.1c0-.1-2.7-11.7-4.6-23.3-1.1-6.8-1.6-11.7-1.8-15.2-1-.2-2-.7-3-1.4-8.2-5.7-.6-17.5-.3-18,.3-.4,1-.5,1.7-.2.7.3,1,.9.7,1.3-2,3.1-6.1,11.9-.6,15.7.5.4,1,.6,1.5.8-.1-7.3,1.6-7.5,2.6-7.7,1.6-.2,3.1.2,4,1.3,1.8,2.1.5,6.3-2.4,7.8-.5.3-1,.4-1.6.5.5,9,3.1,24.3,6.4,38.7.1.5-.4.9-1,.8-.2,0-.4,0-.5-.1-.5-.2-.9-.5-1-.9ZM168.3,104.8c-.9.2-1.3,2.3-1.2,5.5,2.1-1.2,2.9-4.4,2-5.5,0,0,0,0-.1,0-.1,0-.3,0-.7,0Z"/>
            <path class="cls-3" d="M197.1,152.2c-.2,0-.3,0-.5.1-.7,0-1.2-.3-1-.8,3.5-14.3,6.4-29.6,7-38.6-.5,0-1.1-.3-1.6-.5-3-1.6-4.2-5.8-2.3-7.9.9-1,2.4-1.5,4-1.2,1,.2,2.7.5,2.5,7.7.5-.1,1-.4,1.5-.7,5.5-3.7,1.6-12.6-.4-15.7-.3-.4,0-1,.7-1.3.7-.3,1.4-.2,1.7.2.3.5,7.8,12.4-.6,18-1,.7-2,1.1-3,1.4-.2,3.6-.8,8.4-2.1,15.2-2.1,11.6-4.9,23.1-4.9,23.3,0,.4-.5.7-1,.9ZM200.8,105.1c0,0,0,0-.1,0-.9,1-.2,4.2,1.9,5.5,0-3.3-.3-5.3-1.2-5.6-.4,0-.6,0-.7,0Z"/>
            <path class="cls-3" d="M171,149.7l1.3-1.1c7.1-5.8,17.4-5.7,24.4.2l1.3,1.1-.3,43-27-.2.3-43ZM195.5,151.1l-.4-.3c-6.1-5.1-15-5.2-21.2-.2l-.4.3-.3,39.3,22,.2.3-39.3Z"/>
            <path class="cls-3" d="M161.9,194.7l44.6.3c1.8,0,3.3-1.4,3.3-3.3h0c0-1.8-1.4-3.3-3.3-3.3l-44.6-.3c-1.8,0-3.3,1.5-3.3,3.3h0c0,1.8,1.5,3.3,3.3,3.3Z"/>
            <path class="cls-1" d="M164.2,201.4l39.9.3c1.6,0,2.9-1.5,3-3.3h0c0-1.8-1.3-3.3-2.9-3.3l-39.9-.3c-1.6,0-2.9,1.5-3,3.3h0c0,1.8,1.3,3.3,2.9,3.3Z"/>
            <path class="cls-3" d="M164.2,208l39.9.3c1.6,0,2.9-1.4,3-3.3h0c0-1.8-1.3-3.3-2.9-3.3l-39.9-.3c-1.6,0-2.9,1.5-3,3.3h0c0,1.8,1.3,3.3,2.9,3.3Z"/>
            <path class="cls-1" d="M164.1,214.5l39.9.3c1.6,0,2.9-1.5,3-3.3h0c0-1.8-1.3-3.3-2.9-3.3l-39.9-.3c-1.6,0-2.9,1.4-3,3.3h0c0,1.8,1.3,3.3,2.9,3.3Z"/>
            <path class="cls-3" d="M164.1,221.1l39.9.3c1.6,0,2.9-1.4,3-3.3h0c0-1.8-1.3-3.3-2.9-3.3l-39.9-.3c-1.6,0-2.9,1.5-3,3.3h0c0,1.8,1.3,3.3,2.9,3.3Z"/>
            <path class="cls-1" d="M194.5,228l-21.1-.2c-3.6,0-6.6-3-6.5-6.6h0l34.2.3h0c0,3.6-3,6.6-6.6,6.5Z"/>
          </g>
          <g>
            <path class="cls-8" d="M184.5,42.7c-1.7-.4-2.9-1.9-2.9-3.7l.2-21.3c0-2.1,1.7-3.8,3.8-3.8,2.1,0,3.8,1.7,3.8,3.8l-.2,21.3c0,2.1-1.7,3.8-3.8,3.8-.3,0-.6,0-.9-.1Z"/>
            <path class="cls-27" d="M148.4,49.5c-.9-.2-1.8-.8-2.3-1.7l-11.4-18.5c-1.1-1.8-.6-4.1,1.2-5.2,1.8-1.1,4.1-.6,5.2,1.2l11.4,18.5c1.1,1.8.6,4.1-1.2,5.2-.9.6-1.9.7-2.9.5Z"/>
            <path class="cls-4" d="M124,77.5c-.2,0-.4-.1-.7-.2l-19.9-8.9c-1.9-.9-2.8-3.1-1.9-5,.9-1.9,3.1-2.8,5-1.9l19.9,8.9c1.9.9,2.8,3.1,1.9,5-.8,1.7-2.6,2.6-4.4,2.1Z"/>
            <path class="cls-16" d="M97.2,122.9c-1.6-.4-2.8-1.8-2.9-3.6,0-2.1,1.6-3.9,3.7-3.9l18-.6c2.1,0,3.8,1.6,3.9,3.7,0,2.1-1.6,3.9-3.7,3.9l-18,.6c-.4,0-.7,0-1-.1Z"/>
            <path class="cls-17" d="M223.1,50.1c-.4,0-.8-.3-1.2-.5-1.8-1.1-2.3-3.5-1.1-5.2l11.7-18.3c1.1-1.8,3.5-2.3,5.2-1.1,1.8,1.1,2.3,3.5,1.1,5.2l-11.7,18.3c-.9,1.4-2.6,2-4.1,1.6Z"/>
            <path class="cls-13" d="M247.1,78.4c-1.1-.3-2.1-1-2.6-2.2-.8-1.9,0-4.2,2-5l20-8.6c1.9-.8,4.2,0,5,2,.8,1.9,0,4.2-2,5l-20,8.6c-.8.3-1.6.4-2.4.2Z"/>
            <path class="cls-18" d="M255.2,123.3c-1.7-.4-3-2-2.9-3.9.1-2.1,1.9-3.7,4-3.6l18,.9c2.1.1,3.7,1.9,3.6,4-.1,2.1-1.9,3.7-4,3.6l-18-.9c-.2,0-.5,0-.7-.1Z"/>
          </g>
        </g>
        <g class="cls-10">
          <path class="cls-3" d="M356.9,470.3c.2-.3.4-.6.6-1.1,1.7-4.2,0-9.4-2.6-13.3,0,0,0,0,0,0,.8.6,2,1.2,3,1.2,1.7,0,1.3-1.5.5-2.4-1.4-1.7-6.4-3.1-8.4-3.7,0,0,0,0,0,0-.4-.2-.8-.4-1.2-.5-.2-.2-.4-.5-.7-.8-4.1-4.7-17.6-20.1-27.4-29.3,0,0-.1,0-.2-.2-2.9-2.7-7.6-8.6-9.8-9.2-1.6-.4-3.6-12.3-4.1-20.5,1-.5,1.9-.9,2.9-1.5.1-3,.8-22.3-7-33.5-1.9-2.7-6.1-6.7-10.7-9.2-.6-.4-1.2-.8-1.8-1.1-.6-.2-1.2-.5-1.8-.7-2.5-1-5-1.7-7.4-2.2,0,0,0,0,0,0-2.5-.6-5-1-7.4-1.2v-7.2c2.5-1.7,4.1-4.4,3.7-6.7-.6-3.1-1.7-6.4-2.8-9,1.8.5,3.9.3,5-1.3,1.2-1.8.5-3.9-1.2-5-.6-.4-1.4-.4-1.9-.8-1.8-1.1-1-1.7-2.1-2.8-.9-1-1.7-1.6-2.9-2.1-2.8-1.1-6-.8-9-.2-.3-.6-1-1-1.8-.7-.2,0-.4.1-.6.2,0,0,0-.2-.2-.3-4.7-5.6-16.7-5.9-21.5-.2-3,3.6-3.6,8.7-3.4,13.2.2,3.7,1,7.3,1.6,10.9.4,2.5,1.2,6.3.7,8.7-.9,3.8-3.8,5.3-6.7,6-.6-.2-1.1-.4-1.7-.6-2.5-1-5-1.7-7.4-2.2,0,0,0,0,0,0-2.5-.6-5-1-7.4-1.2v-7c2.8-1.6,4.4-4.3,4.1-6.6-.8-5.2-3-10.5-4.3-13.3,2.3-.9,4.2-2.3,5.4-4.3,3.5-5.7-2.3-9-7.6-7.5-1.4.4-2.3,1.2-3.5,2-2,1.3-3.9,1.7-6.2,2.2-2.8.6-5.5,1.4-7.2,3.9-2.7,3.9-2.2,11.8.9,16,.3.9,2.5,5,3.7,5.4.6.2,1.3.2,1.9,0,.2.2.4.4.5.6.5.5,1.1.9,1.6,1.3l.3,7.2h0c-3.2.3-6.2.9-9,1.6-2.5.6-4.9,1.4-7.2,2.3-1.8-.6-3.5-1.1-5.3-1.5,0,0,0,0,0,0-2.5-.6-4.9-1-7.3-1.2,0-.2-.1-.4-.2-.6v-6.6c2.6-1.7,4.1-4.4,3.7-6.7-1-5.2-3.5-10.6-4.8-13.3.5.2.9.3,1.3.3.3.2.7.4,1.1.6,4.6,1.6,5.5-7.7.6-8.1,0-.3-.1-.7-.3-1-.7-1.4-2-1.8-3.4-1.7-.5-1.7-1.4-2.6-3.8-3-1.6-.2-3.1-.1-4.4.4-.5-1-1.8-1.6-3.7-1.3-3.6.5-6,2-6.6,4.7-1.4-.3-3-.2-4.2.6-3.2,2.3-4.1,6.6-2.2,9.9-2.4.3-4.4,3.8-3.4,7.2-2.9,1-4.8,3.2-5.3,5.8-.5,2.1-.2,4.4,1,6.6-2.4,2-2.8,4.4-1.9,6.6-.6-.1-1.1-.3-1.7-.4,0,0,0,0,0,0-2.5-.6-5-1-7.4-1.2v-7c2.8-1.6,4.4-4.3,4.1-6.6-.8-5.2-3-10.5-4.3-13.3,2.3-.9,4.2-2.3,5.4-4.3,3.5-5.7-2.3-9-7.6-7.5-1.4.4-2.3,1.2-3.5,2-2,1.3-3.9,1.7-6.2,2.2-2.8.6-5.5,1.4-7.2,3.9-2.7,3.9-2.2,11.8.9,16,.3.9,2.5,5,3.7,5.4.6.2,1.3.2,1.9,0,.2.2.4.4.5.6.5.5,1.1.9,1.6,1.3l.3,7.2h0c-3.2.3-6.2.9-9,1.6-5.1,1.3-9.6,3.2-13.5,5.2-2.5,1.3-4.7,2.6-6.6,3.9-1.3.9-2.4,1.7-3.4,2.4-4.3,3.3-5.7,21.3-5.6,40.5,0,3.7,0,7.4.2,11.1.4,13.6-1.9,32.2-2.7,42.8,0,0,0,0,0,0-2.4,5.8-2.7,12.3.6,18.9,0,.2.2.3.2.5,2.1,4,5.8,7.2,10.3,10,7.5,4.6,17.5,7.7,27.2,10.4,1.5.4,2.9.8,4.3,1.2,2.6.7,5.2,1.3,7.6,2,.8.2,1.5.4,2.2.6,9.9,2.7,17.4,5.2,18.5,8.9,1.3,4.3,2.4,10.6,3.5,17.7,2.9,18.5,5.4,42.8,8.6,53.2.8,1,2.2,1.4,3.7,1.5,0,0,0,0,0,0,.4,1.4.9,2.8,1.3,3.9-.1,0-.2,0-.3-.1,0,0-2.6,8.8,2.9,13.2,0,0,5.6-1.6,12.3-3.7-.8,2.6-1.2,5.8.6,8.7,0,0,27.5,1.7,35.8.5,0,0,0-2.8-.9-5.6,2.3-.7,5.8-1.7,9.7-2.9-.8,2.6-1.1,5.8.6,8.6,0,0,27.4,1.7,35.7.5,0,0,.2-4.8-2.1-8.1,1.6-.5,3.5-1,5.4-1.6-.8,2.6-1.2,5.8.6,8.7,0,0,27.4,1.7,35.8.5,0,0,.4-10.1-6.7-11.1-5.8-.8-11.5-.8-13.5-.8.1-.4.2-.8.4-1.2.8.2,1.3.3,1.3.3.4-.9.9-1.9,1.3-2.9,1-.4,1.8-.8,2.5-1.2,0,0-.3-1.1-1-2.4,4.6-11.9,9.1-27.6,12.5-43.1,2.1,15.3,4.1,31.2,6.5,39.1.8,1,2.2,1.4,3.7,1.5,0,0,0,0,0,0,.4,1.4.9,2.8,1.3,3.9-.1,0-.2,0-.3-.1,0,0-2.6,8.8,2.8,13.2,0,0,5.6-1.6,12.3-3.7-.8,2.6-1.1,5.8.6,8.6,0,0,27.4,1.7,35.7.5,0,0,.4-10.1-6.7-11.1-5.7-.8-11.5-.8-13.5-.8.1-.4.2-.8.4-1.2.8.2,1.3.3,1.3.3.4-.9.9-1.9,1.3-2.9,1-.4,1.8-.8,2.5-1.1,0,0-.3-1.1-1-2.4,8.9-22.8,17.1-59.6,18.5-81.8.5-8.8-2.5-16.8-7.4-24ZM353.1,465.5c-.2-4.1.8-2.1,1.2,1.4-.4-.5-.8-1-1.2-1.4ZM322.3,569.9s0,0,0,0c1.4-.6,2.4-1,2.4-1-.7-24.3.6-47.3-1-66.6h0c-.3-3.9-.7-7.6-1.3-11.2.3.2.6.3.9.5,0,0,.2,0,.2.1.3.2.5.4.8.5,0,0,.1,0,.2.1.3.2.5.4.7.7,0,0,0,0,0,0,.2.3.4.5.6.8,0,0,0,0,0,0,.2.3.3.6.4.9.5,1.7,1,3.9,1.4,6.4,0,0,0,.1,0,.2,0,0,0,0,0,0,.1.7.3,1.5.4,2.3,0,.3,0,.5.1.8.1.7.2,1.4.3,2.1,0,.2,0,.5.1.7,0,.4.1.9.2,1.3,0,0,0,.2,0,.3,0,.7.2,1.5.3,2.3,0,.7.2,1.4.2,2.1,0,.2,0,.4,0,.5,0,0,0,0,0,0,0,.4,0,.9.1,1.3,0,.9.2,1.8.3,2.7,0,.5,0,1,.1,1.6,0,.8.1,1.5.2,2.3,0,.9.1,1.8.2,2.7,0,.6,0,1.2.1,1.8,0,0,0,0,0,0,0,.9.1,1.8.2,2.7,0,.2,0,.4,0,.6,0,.2,0,.3,0,.5,0,1.1.1,2.2.2,3.3,0,.3,0,.7,0,1,0,0,0,.2,0,.3,0,.8,0,1.5,0,2.3.1,3.1.2,6.3.2,9.3,0,1,0,2,0,3,0,.6,0,1.2,0,1.7,0,.6,0,1.2,0,1.8,0,0,0,.1,0,.2,0,.6,0,1.1,0,1.7,0,.4,0,.8,0,1.1,0,0,0,0,0,.1,0,2.2-.2,4.4-.4,6.4,0,.2,0,.3,0,.5,0,.8-.1,1.6-.2,2.3,0,.1,0,.3,0,.4,0,.2,0,.4,0,.6,0,.4,0,.7-.1,1.1,0,.5-.2,1-.2,1.5,0,0,0,0,0,.1,0,.2,0,.4-.1.6,0,.4-.2.8-.2,1.2,0,0,0,.2,0,.2,0,.4-.2.7-.3,1.1,0,0,0,0,0,.1-3.3,1-5.7,1.9-6,2,0-.2.2-.4.1-.5-.1-.7-.5-2.2-1-3.8ZM178,569.3s0,0,0,0c1.4-.6,2.4-1,2.4-1-.7-24.3.6-47.4-1-66.8h0c-.2-3.1-.6-6-1-8.8,1.2.3,2.3.7,3.4,1,0,.1.1.3.2.4.5,1.7,1,3.9,1.4,6.4,0,0,0,.2,0,.2,0,0,0,0,0,0,.1.8.3,1.5.4,2.3,0,.3,0,.6.1.8.1.7.2,1.4.3,2.1,0,.2,0,.5.1.7,0,.4.1.9.2,1.4,0,0,0,.2,0,.3,0,.7.2,1.5.3,2.3,0,.7.2,1.4.2,2.1,0,.2,0,.3,0,.5,0,0,0,0,0,0,0,.4,0,.9.1,1.3,0,.9.2,1.8.3,2.7,0,.5,0,1,.1,1.6,0,.8.1,1.6.2,2.3,0,.9.1,1.8.2,2.7,0,.6,0,1.2.1,1.8,0,0,0,0,0,0,0,.9.1,1.8.2,2.7,0,.2,0,.4,0,.6,0,.1,0,.3,0,.4,0,1.1.1,2.3.2,3.5,0,.3,0,.7,0,1,0,0,0,.2,0,.3,0,.8,0,1.5,0,2.3.1,3.2.2,6.3.2,9.3,0,1,0,2,0,3,0,.6,0,1.2,0,1.7,0,.6,0,1.1,0,1.7,0,0,0,.2,0,.3,0,.5,0,1.1,0,1.6,0,.4,0,.8,0,1.2,0,0,0,0,0,0,0,2.3-.2,4.4-.4,6.4,0,.2,0,.3,0,.5,0,.8-.1,1.6-.2,2.3,0,.1,0,.3,0,.4,0,.2,0,.4,0,.6,0,.4,0,.7-.1,1.1,0,.5-.2,1.1-.2,1.6,0,0,0,0,0,.1,0,.2,0,.4-.1.6,0,.4-.2.8-.2,1.3,0,0,0,.2,0,.2,0,.4-.2.8-.3,1.1,0,0,0,0,0,.1-3.3,1-5.7,1.9-6,2,.1-.2.2-.4.1-.5-.1-.7-.5-2.2-1-3.8ZM256.6,342.3c.5-3.1.4-6.4-.1-9.5,1.2.3,2.3.1,3.2-1,.4.4.8.8,1.2,1.1.5.5,1.1.9,1.7,1.2l.4,7.2h0c-2.2.2-4.3.5-6.4,1ZM223.2,569.9s0,0,0,0c1.4-.6,2.4-1,2.4-1-.7-24.3.6-47.3-1-66.6h0c-.2-3-.6-5.9-1-8.7,1.3.4,2.4.9,3.5,1.3,0,0,0,0,0,0,.5,1.7,1,3.9,1.4,6.4,0,0,0,.1,0,.2,0,0,0,0,0,0,.1.7.3,1.5.4,2.3,0,.3,0,.5.1.8.1.7.2,1.4.3,2.1,0,.2,0,.5.1.7,0,.4.1.9.2,1.4,0,0,0,.2,0,.3,0,.7.2,1.5.3,2.3,0,.7.2,1.4.2,2.1,0,.2,0,.4,0,.5,0,0,0,0,0,0,0,.4,0,.9.1,1.3,0,.9.2,1.8.3,2.7,0,.5,0,1,.1,1.6,0,.8.1,1.5.2,2.3,0,.9.1,1.8.2,2.7,0,.6,0,1.2.1,1.8,0,0,0,0,0,0,0,.9.1,1.8.2,2.7,0,.2,0,.4,0,.6,0,.2,0,.3,0,.5,0,1.1.1,2.2.2,3.3,0,.3,0,.7,0,1,0,0,0,.2,0,.3,0,.8,0,1.5,0,2.3.1,3.1.2,6.3.2,9.3,0,1,0,2,0,3,0,.6,0,1.2,0,1.7,0,.6,0,1.2,0,1.8,0,0,0,.1,0,.2,0,.6,0,1.1,0,1.7,0,.4,0,.8,0,1.1,0,0,0,0,0,.1,0,2.2-.2,4.4-.4,6.4,0,.2,0,.3,0,.5,0,.8-.1,1.6-.2,2.3,0,.1,0,.3,0,.4,0,.2,0,.4,0,.5,0,.4,0,.7-.1,1.1,0,.5-.2,1.1-.2,1.6,0,0,0,0,0,.1,0,.2,0,.4-.1.6,0,.4-.2.8-.2,1.2,0,0,0,.2,0,.2,0,.4-.2.7-.3,1.1,0,0,0,0,0,.1-3.3,1-5.7,1.9-6,2,.1-.2.2-.4.1-.5-.1-.7-.5-2.2-1-3.8ZM220.5,576.6c-.4.2-.9.4-1.4.6.5-.2,1-.4,1.4-.6ZM262.8,569.3s0,0,0,0c1.4-.6,2.4-1,2.4-1-.7-23.6.5-46.1-.9-65.1.4-3.1.6-6.1.8-8.8,0-.9,0-1.7,0-2.6.2.2.4.3.5.5,0,0,0,0,0,0,.2.3.4.5.6.8,0,0,0,0,0,0,.2.3.3.6.4.9.5,1.7,1,3.9,1.4,6.4,0,0,0,0,0,.1,0,0,0,.1,0,.2.1.7.3,1.5.4,2.3,0,.3,0,.6.1.9.1.7.2,1.4.3,2.1,0,.2,0,.5,0,.7,0,.5.1.9.2,1.4,0,0,0,.1,0,.2,0,.7.2,1.5.3,2.3,0,.7.2,1.4.2,2.1,0,.2,0,.4,0,.5,0,0,0,0,0,0,0,.4,0,.9.1,1.3,0,.9.2,1.8.3,2.7,0,.5,0,1.1.1,1.6,0,.8.1,1.5.2,2.3,0,.9.1,1.8.2,2.7,0,.6,0,1.2.1,1.8,0,0,0,0,0,0,0,.9.1,1.8.2,2.6,0,.2,0,.4,0,.6,0,.2,0,.4,0,.6,0,1.1.1,2.2.2,3.2,0,.3,0,.7,0,1,0,0,0,.2,0,.3,0,.8,0,1.5,0,2.3.1,3.1.2,6.2.2,9.3,0,1,0,2,0,3,0,.6,0,1.2,0,1.7,0,.6,0,1.1,0,1.7,0,0,0,.2,0,.3,0,.5,0,1.1,0,1.6,0,.4,0,.8,0,1.1,0,0,0,.1,0,.2,0,2.2-.2,4.4-.4,6.4,0,.2,0,.4,0,.5,0,.8-.1,1.6-.2,2.3,0,.1,0,.3,0,.4,0,.2,0,.4,0,.6,0,.4,0,.7-.1,1.1,0,.5-.2,1.1-.2,1.5,0,0,0,0,0,.1,0,.2,0,.4-.1.6,0,.4-.2.8-.2,1.3,0,0,0,.2,0,.2,0,.4-.2.8-.3,1.1,0,0,0,0,0,.1-3.3,1-5.7,1.9-6,2,.1-.2.2-.4.1-.5-.1-.7-.5-2.2-1-3.8ZM260.1,576c-.4.2-.9.4-1.4.6.5-.2,1-.4,1.4-.6ZM175.2,576c-.4.2-.9.4-1.4.6.5-.2,1-.4,1.4-.6ZM197.1,582.9c.1-.4.2-.8.4-1.2.8.2,1.3.3,1.3.3.4-.9.9-1.9,1.3-2.9,1-.4,1.8-.8,2.5-1.2,0,0-.3-1.1-1-2.4,1.2-3,2.3-6.2,3.4-9.6.4,2.1.9,4,1.4,5.6.8,1,2.2,1.4,3.7,1.5,0,0,0,0,0,0,.4,1.4.9,2.8,1.3,3.9-.1,0-.2,0-.3-.1,0,0-1,3.4-.4,7,0,0,0,0,0,0-5.8-.8-11.5-.8-13.5-.8ZM242.3,583.5c.1-.4.2-.8.4-1.2.8.2,1.3.3,1.3.3.4-.9.9-1.9,1.3-2.9,1-.4,1.8-.8,2.5-1.1,0,0-.3-1.1-1-2.4.5-1.3,1-2.6,1.5-4,.4.1.9.2,1.4.2,0,0,0,0,0,0,.4,1.4.9,2.8,1.3,3.9-.1,0-.2,0-.3-.1,0,0-1.1,3.9-.3,7.7-3.6-.3-6.7-.3-8-.3ZM319.6,576.6c-.4.2-.9.4-1.4.6.5-.2,1-.4,1.4-.6Z"/>
        </g>
      </g>
    </g>
  </g>
</svg>