<?xml version="1.0" encoding="UTF-8"?>
<svg id="_レイヤー_1" data-name="レイヤー 1" xmlns="http://www.w3.org/2000/svg" version="1.1" xmlns:xlink="http://www.w3.org/1999/xlink" viewBox="0 0 512 512">
  <defs>
    <style>
      .cls-1 {
        fill: #afc2e8;
      }

      .cls-1, .cls-2, .cls-3, .cls-4 {
        stroke-width: 0px;
      }

      .cls-2 {
        fill: url(#_名称未設定グラデーション);
      }

      .cls-3 {
        fill: #005bac;
      }

      .cls-4 {
        fill: #fff;
      }
    </style>
    <linearGradient id="_名称未設定グラデーション" data-name="名称未設定グラデーション" x1="15" y1="258" x2="497" y2="258" gradientTransform="translate(0 514) scale(1 -1)" gradientUnits="userSpaceOnUse">
      <stop offset="0" stop-color="#b57cb4"/>
      <stop offset="1" stop-color="#a760b1"/>
    </linearGradient>
  </defs>
  <path class="cls-2" d="M497,256c0,133.1-107.9,241-241,241S15,389.1,15,256,122.9,15,256,15s241,107.9,241,241Z"/>
  <path class="cls-4" d="M497,256c0,133.1-107.9,241-241,241S15,389.1,15,256,122.9,15,256,15s241,107.9,241,241Z"/>
  <path class="cls-1" d="M437,75C388.7,26.6,324.4,0,256,0S123.3,26.6,75,75C26.6,123.3,0,187.6,0,256s26.6,132.7,75,181c48.4,48.3,112.6,75,181,75s132.7-26.6,181-75c48.4-48.4,75-112.6,75-181s-26.6-132.7-75-181h0ZM256,482c-124.6,0-226-101.4-226-226S131.4,30,256,30s226,101.4,226,226-101.4,226-226,226h0Z"/>
  <path class="cls-3" d="M385.8,201.8l-138.7,138.6c-4.2,4.2-9.6,6.3-15.1,6.3s-10.9-2.1-15.1-6.3l-69.3-69.3c-8.3-8.3-8.3-21.8,0-30.2,8.3-8.3,21.8-8.3,30.2,0l54.2,54.2,123.6-123.6c8.3-8.3,21.8-8.3,30.2,0,8.3,8.4,8.3,21.9,0,30.3Z"/>
</svg>